G75*
G70*
%OFA0B0*%
%FSLAX24Y24*%
%IPPOS*%
%LPD*%
%AMOC8*
5,1,8,0,0,1.08239X$1,22.5*
%
%ADD10C,0.0000*%
D10*
X007741Y011501D02*
X007743Y011376D01*
X007738Y011251D01*
X007727Y011127D01*
X007711Y011004D01*
X007688Y010881D01*
X007659Y010760D01*
X007624Y010640D01*
X007584Y010522D01*
X007538Y010406D01*
X007486Y010292D01*
X007429Y010181D01*
X007367Y010073D01*
X007299Y009969D01*
X007226Y009867D01*
X007149Y009769D01*
X007067Y009676D01*
X006980Y009586D01*
X006889Y009500D01*
X006794Y009420D01*
X006695Y009343D01*
X006593Y009272D01*
X006487Y009206D01*
X006378Y009145D01*
X006267Y009089D01*
X006152Y009039D01*
X006036Y008995D01*
X005917Y008956D01*
X005797Y008923D01*
X005675Y008896D01*
X005552Y008875D01*
X005429Y008860D01*
X005304Y008851D01*
X005179Y008848D01*
X005055Y008851D01*
X004930Y008860D01*
X004807Y008876D01*
X004684Y008897D01*
X004562Y008924D01*
X004442Y008957D01*
X004323Y008996D01*
X004207Y009041D01*
X004092Y009091D01*
X003981Y009147D01*
X003872Y009208D01*
X003766Y009274D01*
X003664Y009345D01*
X003565Y009422D01*
X003471Y009503D01*
X003380Y009588D01*
X003293Y009678D01*
X003211Y009772D01*
X003134Y009870D01*
X003061Y009971D01*
X002994Y010076D01*
X002931Y010184D01*
X002874Y010295D01*
X002823Y010409D01*
X002777Y010525D01*
X002737Y010643D01*
X002702Y010763D01*
X002674Y010884D01*
X002651Y011007D01*
X002634Y011130D01*
X002624Y011255D01*
X002619Y011379D01*
X002621Y011504D01*
X002628Y011628D01*
X002642Y011752D01*
X002662Y011876D01*
X002687Y011998D01*
X002719Y012118D01*
X002756Y012237D01*
X002799Y012354D01*
X002848Y012469D01*
X002903Y012582D01*
X002962Y012691D01*
X003027Y012798D01*
X003097Y012901D01*
X003172Y013000D01*
X003252Y013096D01*
X003337Y013188D01*
X003425Y013276D01*
X003518Y013359D01*
X003615Y013438D01*
X003716Y013511D01*
X003820Y013580D01*
X003927Y013644D01*
X004037Y013702D01*
X004150Y013755D01*
X004265Y013803D01*
X004383Y013845D01*
X004502Y013880D01*
X004623Y013911D01*
X004746Y013935D01*
X004869Y013953D01*
X004993Y013965D01*
X005118Y013971D01*
X005243Y013971D01*
X005367Y013965D01*
X005491Y013953D01*
X005615Y013935D01*
X005737Y013911D01*
X005858Y013881D01*
X005978Y013845D01*
X006095Y013803D01*
X006211Y013756D01*
X006324Y013703D01*
X006434Y013645D01*
X006541Y013581D01*
X010701Y015981D01*
X011981Y013901D02*
X007741Y011501D01*
X011501Y007741D02*
X013901Y011981D01*
X016061Y010781D02*
X013581Y006541D01*
X013645Y006434D01*
X013703Y006324D01*
X013756Y006211D01*
X013803Y006095D01*
X013845Y005978D01*
X013881Y005858D01*
X013911Y005737D01*
X013935Y005615D01*
X013953Y005491D01*
X013965Y005367D01*
X013971Y005243D01*
X013971Y005118D01*
X013965Y004993D01*
X013953Y004869D01*
X013935Y004746D01*
X013911Y004623D01*
X013880Y004502D01*
X013845Y004383D01*
X013803Y004265D01*
X013755Y004150D01*
X013702Y004037D01*
X013644Y003927D01*
X013580Y003820D01*
X013511Y003716D01*
X013438Y003615D01*
X013359Y003518D01*
X013276Y003425D01*
X013188Y003337D01*
X013096Y003252D01*
X013000Y003172D01*
X012901Y003097D01*
X012798Y003027D01*
X012691Y002962D01*
X012582Y002903D01*
X012469Y002848D01*
X012354Y002799D01*
X012237Y002756D01*
X012118Y002719D01*
X011998Y002687D01*
X011876Y002662D01*
X011752Y002642D01*
X011628Y002628D01*
X011504Y002621D01*
X011379Y002619D01*
X011255Y002624D01*
X011130Y002634D01*
X011007Y002651D01*
X010884Y002674D01*
X010763Y002702D01*
X010643Y002737D01*
X010525Y002777D01*
X010409Y002823D01*
X010295Y002874D01*
X010184Y002931D01*
X010076Y002994D01*
X009971Y003061D01*
X009870Y003134D01*
X009772Y003211D01*
X009678Y003293D01*
X009588Y003380D01*
X009503Y003471D01*
X009422Y003565D01*
X009345Y003664D01*
X009274Y003766D01*
X009208Y003872D01*
X009147Y003981D01*
X009091Y004092D01*
X009041Y004207D01*
X008996Y004323D01*
X008957Y004442D01*
X008924Y004562D01*
X008897Y004684D01*
X008876Y004807D01*
X008860Y004930D01*
X008851Y005055D01*
X008848Y005179D01*
X008851Y005304D01*
X008860Y005429D01*
X008875Y005552D01*
X008896Y005675D01*
X008923Y005797D01*
X008956Y005917D01*
X008995Y006036D01*
X009039Y006152D01*
X009089Y006267D01*
X009145Y006378D01*
X009206Y006487D01*
X009272Y006593D01*
X009343Y006695D01*
X009420Y006794D01*
X009500Y006889D01*
X009586Y006980D01*
X009676Y007067D01*
X009769Y007149D01*
X009867Y007226D01*
X009969Y007299D01*
X010073Y007367D01*
X010181Y007429D01*
X010292Y007486D01*
X010406Y007538D01*
X010522Y007584D01*
X010640Y007624D01*
X010760Y007659D01*
X010881Y007688D01*
X011004Y007711D01*
X011127Y007727D01*
X011251Y007738D01*
X011376Y007743D01*
X011501Y007741D01*
X018621Y010061D02*
X018621Y005181D01*
X018512Y005119D01*
X018405Y005053D01*
X018302Y004981D01*
X018202Y004905D01*
X018107Y004824D01*
X018015Y004738D01*
X017927Y004648D01*
X017845Y004553D01*
X017766Y004455D01*
X017693Y004353D01*
X017625Y004247D01*
X017562Y004139D01*
X017504Y004027D01*
X017452Y003913D01*
X017406Y003796D01*
X017365Y003678D01*
X017330Y003557D01*
X017301Y003435D01*
X017278Y003311D01*
X017261Y003187D01*
X017250Y003062D01*
X017245Y002936D01*
X017247Y002811D01*
X017254Y002685D01*
X017268Y002561D01*
X017287Y002437D01*
X017313Y002314D01*
X017344Y002192D01*
X017382Y002072D01*
X017425Y001954D01*
X017474Y001839D01*
X017529Y001726D01*
X017589Y001615D01*
X017654Y001508D01*
X017725Y001404D01*
X017800Y001304D01*
X017880Y001207D01*
X017965Y001115D01*
X018054Y001026D01*
X018148Y000942D01*
X018245Y000863D01*
X018346Y000789D01*
X018451Y000719D01*
X018559Y000655D01*
X018670Y000596D01*
X018784Y000543D01*
X018900Y000495D01*
X019018Y000453D01*
X019138Y000417D01*
X019260Y000387D01*
X019384Y000362D01*
X019508Y000344D01*
X019633Y000332D01*
X019758Y000326D01*
X019884Y000326D01*
X020009Y000332D01*
X020134Y000344D01*
X020258Y000362D01*
X020382Y000387D01*
X020504Y000417D01*
X020624Y000453D01*
X020742Y000495D01*
X020858Y000543D01*
X020972Y000596D01*
X021083Y000655D01*
X021191Y000719D01*
X021296Y000789D01*
X021397Y000863D01*
X021494Y000942D01*
X021588Y001026D01*
X021677Y001115D01*
X021762Y001207D01*
X021842Y001304D01*
X021917Y001404D01*
X021988Y001508D01*
X022053Y001615D01*
X022113Y001726D01*
X022168Y001839D01*
X022217Y001954D01*
X022260Y002072D01*
X022298Y002192D01*
X022329Y002314D01*
X022355Y002437D01*
X022374Y002561D01*
X022388Y002685D01*
X022395Y002811D01*
X022397Y002936D01*
X022392Y003062D01*
X022381Y003187D01*
X022364Y003311D01*
X022341Y003435D01*
X022312Y003557D01*
X022277Y003678D01*
X022236Y003796D01*
X022190Y003913D01*
X022138Y004027D01*
X022080Y004139D01*
X022017Y004247D01*
X021949Y004353D01*
X021876Y004455D01*
X021797Y004553D01*
X021715Y004648D01*
X021627Y004738D01*
X021535Y004824D01*
X021440Y004905D01*
X021340Y004981D01*
X021237Y005053D01*
X021130Y005119D01*
X021021Y005181D01*
X021021Y010061D01*
X023661Y010781D02*
X026141Y006541D01*
X028221Y007741D02*
X025741Y011981D01*
X027661Y013901D02*
X031901Y011501D01*
X033101Y013581D02*
X028861Y015981D01*
X029581Y018621D02*
X034461Y018621D01*
X034523Y018512D01*
X034589Y018405D01*
X034661Y018302D01*
X034737Y018202D01*
X034818Y018107D01*
X034904Y018015D01*
X034994Y017927D01*
X035089Y017845D01*
X035187Y017766D01*
X035289Y017693D01*
X035395Y017625D01*
X035503Y017562D01*
X035615Y017504D01*
X035729Y017452D01*
X035846Y017406D01*
X035964Y017365D01*
X036085Y017330D01*
X036207Y017301D01*
X036331Y017278D01*
X036455Y017261D01*
X036580Y017250D01*
X036706Y017245D01*
X036831Y017247D01*
X036957Y017254D01*
X037081Y017268D01*
X037205Y017287D01*
X037328Y017313D01*
X037450Y017344D01*
X037570Y017382D01*
X037688Y017425D01*
X037803Y017474D01*
X037916Y017529D01*
X038027Y017589D01*
X038134Y017654D01*
X038238Y017725D01*
X038338Y017800D01*
X038435Y017880D01*
X038527Y017965D01*
X038616Y018054D01*
X038700Y018148D01*
X038779Y018245D01*
X038853Y018346D01*
X038923Y018451D01*
X038987Y018559D01*
X039046Y018670D01*
X039099Y018784D01*
X039147Y018900D01*
X039189Y019018D01*
X039225Y019138D01*
X039255Y019260D01*
X039280Y019384D01*
X039298Y019508D01*
X039310Y019633D01*
X039316Y019758D01*
X039316Y019884D01*
X039310Y020009D01*
X039298Y020134D01*
X039280Y020258D01*
X039255Y020382D01*
X039225Y020504D01*
X039189Y020624D01*
X039147Y020742D01*
X039099Y020858D01*
X039046Y020972D01*
X038987Y021083D01*
X038923Y021191D01*
X038853Y021296D01*
X038779Y021397D01*
X038700Y021494D01*
X038616Y021588D01*
X038527Y021677D01*
X038435Y021762D01*
X038338Y021842D01*
X038238Y021917D01*
X038134Y021988D01*
X038027Y022053D01*
X037916Y022113D01*
X037803Y022168D01*
X037688Y022217D01*
X037570Y022260D01*
X037450Y022298D01*
X037328Y022329D01*
X037205Y022355D01*
X037081Y022374D01*
X036957Y022388D01*
X036831Y022395D01*
X036706Y022397D01*
X036580Y022392D01*
X036455Y022381D01*
X036331Y022364D01*
X036207Y022341D01*
X036085Y022312D01*
X035964Y022277D01*
X035846Y022236D01*
X035729Y022190D01*
X035615Y022138D01*
X035503Y022080D01*
X035395Y022017D01*
X035289Y021949D01*
X035187Y021876D01*
X035089Y021797D01*
X034994Y021715D01*
X034904Y021627D01*
X034818Y021535D01*
X034737Y021440D01*
X034661Y021340D01*
X034589Y021237D01*
X034523Y021130D01*
X034461Y021021D01*
X029581Y021021D01*
X028861Y023661D02*
X033101Y026141D01*
X031901Y028221D02*
X027661Y025741D01*
X025741Y027661D02*
X028141Y031901D01*
X026061Y033181D02*
X023661Y028861D01*
X021021Y029581D02*
X021021Y034461D01*
X021130Y034523D01*
X021237Y034589D01*
X021340Y034661D01*
X021440Y034737D01*
X021535Y034818D01*
X021627Y034904D01*
X021715Y034994D01*
X021797Y035089D01*
X021876Y035187D01*
X021949Y035289D01*
X022017Y035395D01*
X022080Y035503D01*
X022138Y035615D01*
X022190Y035729D01*
X022236Y035846D01*
X022277Y035964D01*
X022312Y036085D01*
X022341Y036207D01*
X022364Y036331D01*
X022381Y036455D01*
X022392Y036580D01*
X022397Y036706D01*
X022395Y036831D01*
X022388Y036957D01*
X022374Y037081D01*
X022355Y037205D01*
X022329Y037328D01*
X022298Y037450D01*
X022260Y037570D01*
X022217Y037688D01*
X022168Y037803D01*
X022113Y037916D01*
X022053Y038027D01*
X021988Y038134D01*
X021917Y038238D01*
X021842Y038338D01*
X021762Y038435D01*
X021677Y038527D01*
X021588Y038616D01*
X021494Y038700D01*
X021397Y038779D01*
X021296Y038853D01*
X021191Y038923D01*
X021083Y038987D01*
X020972Y039046D01*
X020858Y039099D01*
X020742Y039147D01*
X020624Y039189D01*
X020504Y039225D01*
X020382Y039255D01*
X020258Y039280D01*
X020134Y039298D01*
X020009Y039310D01*
X019884Y039316D01*
X019758Y039316D01*
X019633Y039310D01*
X019508Y039298D01*
X019384Y039280D01*
X019260Y039255D01*
X019138Y039225D01*
X019018Y039189D01*
X018900Y039147D01*
X018784Y039099D01*
X018670Y039046D01*
X018559Y038987D01*
X018451Y038923D01*
X018346Y038853D01*
X018245Y038779D01*
X018148Y038700D01*
X018054Y038616D01*
X017965Y038527D01*
X017880Y038435D01*
X017800Y038338D01*
X017725Y038238D01*
X017654Y038134D01*
X017589Y038027D01*
X017529Y037916D01*
X017474Y037803D01*
X017425Y037688D01*
X017382Y037570D01*
X017344Y037450D01*
X017313Y037328D01*
X017287Y037205D01*
X017268Y037081D01*
X017254Y036957D01*
X017247Y036831D01*
X017245Y036706D01*
X017250Y036580D01*
X017261Y036455D01*
X017278Y036331D01*
X017301Y036207D01*
X017330Y036085D01*
X017365Y035964D01*
X017406Y035846D01*
X017452Y035729D01*
X017504Y035615D01*
X017562Y035503D01*
X017625Y035395D01*
X017693Y035289D01*
X017766Y035187D01*
X017845Y035089D01*
X017927Y034994D01*
X018015Y034904D01*
X018107Y034818D01*
X018202Y034737D01*
X018302Y034661D01*
X018405Y034589D01*
X018512Y034523D01*
X018621Y034461D01*
X018621Y029581D01*
X015981Y028861D02*
X013501Y033101D01*
X011421Y031901D02*
X013901Y027661D01*
X011981Y025741D02*
X007741Y028141D01*
X006541Y026061D02*
X010781Y023661D01*
X010061Y021021D02*
X005181Y021021D01*
X005119Y021130D01*
X005053Y021237D01*
X004981Y021340D01*
X004905Y021440D01*
X004824Y021535D01*
X004738Y021627D01*
X004648Y021715D01*
X004553Y021797D01*
X004455Y021876D01*
X004353Y021949D01*
X004247Y022017D01*
X004139Y022080D01*
X004027Y022138D01*
X003913Y022190D01*
X003796Y022236D01*
X003678Y022277D01*
X003557Y022312D01*
X003435Y022341D01*
X003311Y022364D01*
X003187Y022381D01*
X003062Y022392D01*
X002936Y022397D01*
X002811Y022395D01*
X002685Y022388D01*
X002561Y022374D01*
X002437Y022355D01*
X002314Y022329D01*
X002192Y022298D01*
X002072Y022260D01*
X001954Y022217D01*
X001839Y022168D01*
X001726Y022113D01*
X001615Y022053D01*
X001508Y021988D01*
X001404Y021917D01*
X001304Y021842D01*
X001207Y021762D01*
X001115Y021677D01*
X001026Y021588D01*
X000942Y021494D01*
X000863Y021397D01*
X000789Y021296D01*
X000719Y021191D01*
X000655Y021083D01*
X000596Y020972D01*
X000543Y020858D01*
X000495Y020742D01*
X000453Y020624D01*
X000417Y020504D01*
X000387Y020382D01*
X000362Y020258D01*
X000344Y020134D01*
X000332Y020009D01*
X000326Y019884D01*
X000326Y019758D01*
X000332Y019633D01*
X000344Y019508D01*
X000362Y019384D01*
X000387Y019260D01*
X000417Y019138D01*
X000453Y019018D01*
X000495Y018900D01*
X000543Y018784D01*
X000596Y018670D01*
X000655Y018559D01*
X000719Y018451D01*
X000789Y018346D01*
X000863Y018245D01*
X000942Y018148D01*
X001026Y018054D01*
X001115Y017965D01*
X001207Y017880D01*
X001304Y017800D01*
X001404Y017725D01*
X001508Y017654D01*
X001615Y017589D01*
X001726Y017529D01*
X001839Y017474D01*
X001954Y017425D01*
X002072Y017382D01*
X002192Y017344D01*
X002314Y017313D01*
X002437Y017287D01*
X002561Y017268D01*
X002685Y017254D01*
X002811Y017247D01*
X002936Y017245D01*
X003062Y017250D01*
X003187Y017261D01*
X003311Y017278D01*
X003435Y017301D01*
X003557Y017330D01*
X003678Y017365D01*
X003796Y017406D01*
X003913Y017452D01*
X004027Y017504D01*
X004139Y017562D01*
X004247Y017625D01*
X004353Y017693D01*
X004455Y017766D01*
X004553Y017845D01*
X004648Y017927D01*
X004738Y018015D01*
X004824Y018107D01*
X004905Y018202D01*
X004981Y018302D01*
X005053Y018405D01*
X005119Y018512D01*
X005181Y018621D01*
X010061Y018621D01*
X028861Y023662D02*
X029032Y023237D01*
X029182Y022805D01*
X029313Y022367D01*
X029423Y021923D01*
X029512Y021474D01*
X029581Y021022D01*
X033101Y026141D02*
X033210Y026075D01*
X033321Y026015D01*
X033436Y025960D01*
X033553Y025911D01*
X033673Y025867D01*
X033794Y025830D01*
X033918Y025798D01*
X034042Y025773D01*
X034168Y025753D01*
X034294Y025740D01*
X034421Y025733D01*
X034548Y025732D01*
X034675Y025738D01*
X034802Y025749D01*
X034928Y025767D01*
X035053Y025791D01*
X035176Y025821D01*
X035298Y025857D01*
X035418Y025899D01*
X035536Y025947D01*
X035651Y026000D01*
X035764Y026059D01*
X035874Y026123D01*
X035980Y026193D01*
X036083Y026268D01*
X036182Y026347D01*
X036277Y026432D01*
X036368Y026521D01*
X036454Y026614D01*
X036536Y026712D01*
X036613Y026813D01*
X036684Y026918D01*
X036751Y027026D01*
X036812Y027137D01*
X036868Y027252D01*
X036918Y027369D01*
X036962Y027488D01*
X037001Y027609D01*
X037033Y027732D01*
X037060Y027856D01*
X037080Y027982D01*
X037094Y028108D01*
X037102Y028235D01*
X037104Y028362D01*
X037099Y028489D01*
X037089Y028616D01*
X037072Y028742D01*
X037049Y028867D01*
X037020Y028991D01*
X036985Y029113D01*
X036944Y029233D01*
X036897Y029351D01*
X036845Y029467D01*
X036787Y029580D01*
X036723Y029690D01*
X036654Y029797D01*
X036580Y029901D01*
X036502Y030000D01*
X036418Y030096D01*
X036330Y030188D01*
X036237Y030275D01*
X036140Y030357D01*
X036039Y030435D01*
X035935Y030507D01*
X035827Y030575D01*
X035716Y030637D01*
X035603Y030693D01*
X035486Y030744D01*
X035367Y030790D01*
X035246Y030829D01*
X035124Y030862D01*
X035000Y030890D01*
X034874Y030911D01*
X034748Y030926D01*
X034621Y030935D01*
X034494Y030938D01*
X034367Y030935D01*
X034240Y030925D01*
X034114Y030909D01*
X033989Y030887D01*
X033865Y030859D01*
X033742Y030825D01*
X033622Y030785D01*
X033503Y030739D01*
X033387Y030688D01*
X033273Y030630D01*
X033163Y030568D01*
X033055Y030500D01*
X032951Y030426D01*
X032851Y030348D01*
X032755Y030265D01*
X032663Y030178D01*
X032575Y030086D01*
X032492Y029990D01*
X032413Y029890D01*
X032340Y029786D01*
X032272Y029679D01*
X032209Y029568D01*
X032151Y029455D01*
X032099Y029339D01*
X032053Y029220D01*
X032013Y029100D01*
X031978Y028977D01*
X031950Y028853D01*
X031928Y028728D01*
X031912Y028602D01*
X031902Y028475D01*
X031898Y028348D01*
X031900Y028221D01*
X028141Y031901D02*
X028267Y031897D01*
X028393Y031899D01*
X028518Y031908D01*
X028643Y031922D01*
X028766Y031943D01*
X028889Y031970D01*
X029010Y032002D01*
X029130Y032041D01*
X029247Y032085D01*
X029363Y032135D01*
X029475Y032191D01*
X029585Y032252D01*
X029691Y032319D01*
X029795Y032390D01*
X029894Y032467D01*
X029990Y032548D01*
X030082Y032634D01*
X030169Y032724D01*
X030252Y032818D01*
X030330Y032917D01*
X030403Y033019D01*
X030471Y033124D01*
X030534Y033233D01*
X030591Y033345D01*
X030643Y033459D01*
X030689Y033576D01*
X030730Y033695D01*
X030764Y033816D01*
X030793Y033938D01*
X030816Y034061D01*
X030832Y034186D01*
X030843Y034311D01*
X030847Y034437D01*
X030845Y034562D01*
X030837Y034687D01*
X030823Y034812D01*
X030803Y034936D01*
X030776Y035059D01*
X030744Y035180D01*
X030706Y035300D01*
X030662Y035418D01*
X030612Y035533D01*
X030557Y035646D01*
X030496Y035756D01*
X030430Y035862D01*
X030359Y035966D01*
X030283Y036066D01*
X030202Y036162D01*
X030116Y036254D01*
X030026Y036341D01*
X029932Y036424D01*
X029834Y036503D01*
X029732Y036576D01*
X029627Y036645D01*
X029518Y036708D01*
X029407Y036766D01*
X029293Y036818D01*
X029176Y036864D01*
X029057Y036905D01*
X028937Y036940D01*
X028814Y036969D01*
X028691Y036992D01*
X028566Y037009D01*
X028441Y037020D01*
X028316Y037025D01*
X028190Y037023D01*
X028065Y037016D01*
X027940Y037002D01*
X027816Y036982D01*
X027693Y036956D01*
X027572Y036924D01*
X027452Y036887D01*
X027334Y036843D01*
X027219Y036794D01*
X027106Y036739D01*
X026996Y036678D01*
X026889Y036613D01*
X026785Y036542D01*
X026685Y036466D01*
X026589Y036385D01*
X026496Y036300D01*
X026408Y036210D01*
X026325Y036116D01*
X026246Y036019D01*
X026173Y035917D01*
X026104Y035812D01*
X026040Y035704D01*
X025982Y035592D01*
X025929Y035478D01*
X025882Y035362D01*
X025841Y035243D01*
X025806Y035123D01*
X025776Y035001D01*
X025753Y034877D01*
X025736Y034753D01*
X025724Y034628D01*
X025719Y034502D01*
X025720Y034377D01*
X025728Y034251D01*
X025741Y034126D01*
X025760Y034002D01*
X025786Y033879D01*
X025817Y033758D01*
X025855Y033638D01*
X025898Y033520D01*
X025947Y033404D01*
X026001Y033291D01*
X026061Y033181D01*
X029581Y018621D02*
X029513Y018169D01*
X029423Y017720D01*
X029313Y017276D01*
X029183Y016838D01*
X029032Y016406D01*
X028861Y015981D01*
X033101Y013581D02*
X033208Y013645D01*
X033318Y013703D01*
X033431Y013756D01*
X033547Y013803D01*
X033664Y013845D01*
X033784Y013881D01*
X033905Y013911D01*
X034027Y013935D01*
X034151Y013953D01*
X034275Y013965D01*
X034399Y013971D01*
X034524Y013971D01*
X034649Y013965D01*
X034773Y013953D01*
X034896Y013935D01*
X035019Y013911D01*
X035140Y013880D01*
X035259Y013845D01*
X035377Y013803D01*
X035492Y013755D01*
X035605Y013702D01*
X035715Y013644D01*
X035822Y013580D01*
X035926Y013511D01*
X036027Y013438D01*
X036124Y013359D01*
X036217Y013276D01*
X036305Y013188D01*
X036390Y013096D01*
X036470Y013000D01*
X036545Y012901D01*
X036615Y012798D01*
X036680Y012691D01*
X036739Y012582D01*
X036794Y012469D01*
X036843Y012354D01*
X036886Y012237D01*
X036923Y012118D01*
X036955Y011998D01*
X036980Y011876D01*
X037000Y011752D01*
X037014Y011628D01*
X037021Y011504D01*
X037023Y011379D01*
X037018Y011255D01*
X037008Y011130D01*
X036991Y011007D01*
X036968Y010884D01*
X036940Y010763D01*
X036905Y010643D01*
X036865Y010525D01*
X036819Y010409D01*
X036768Y010295D01*
X036711Y010184D01*
X036648Y010076D01*
X036581Y009971D01*
X036508Y009870D01*
X036431Y009772D01*
X036349Y009678D01*
X036262Y009588D01*
X036171Y009503D01*
X036077Y009422D01*
X035978Y009345D01*
X035876Y009274D01*
X035770Y009208D01*
X035661Y009147D01*
X035550Y009091D01*
X035435Y009041D01*
X035319Y008996D01*
X035200Y008957D01*
X035080Y008924D01*
X034958Y008897D01*
X034835Y008876D01*
X034712Y008860D01*
X034587Y008851D01*
X034463Y008848D01*
X034338Y008851D01*
X034213Y008860D01*
X034090Y008875D01*
X033967Y008896D01*
X033845Y008923D01*
X033725Y008956D01*
X033606Y008995D01*
X033490Y009039D01*
X033375Y009089D01*
X033264Y009145D01*
X033155Y009206D01*
X033049Y009272D01*
X032947Y009343D01*
X032848Y009420D01*
X032753Y009500D01*
X032662Y009586D01*
X032575Y009676D01*
X032493Y009769D01*
X032416Y009867D01*
X032343Y009969D01*
X032275Y010073D01*
X032213Y010181D01*
X032156Y010292D01*
X032104Y010406D01*
X032058Y010522D01*
X032018Y010640D01*
X031983Y010760D01*
X031954Y010881D01*
X031931Y011004D01*
X031915Y011127D01*
X031904Y011251D01*
X031899Y011376D01*
X031901Y011501D01*
X028221Y007741D02*
X028346Y007743D01*
X028471Y007738D01*
X028595Y007727D01*
X028718Y007711D01*
X028841Y007688D01*
X028962Y007659D01*
X029082Y007624D01*
X029200Y007584D01*
X029316Y007538D01*
X029430Y007486D01*
X029541Y007429D01*
X029649Y007367D01*
X029753Y007299D01*
X029855Y007226D01*
X029953Y007149D01*
X030046Y007067D01*
X030136Y006980D01*
X030222Y006889D01*
X030302Y006794D01*
X030379Y006695D01*
X030450Y006593D01*
X030516Y006487D01*
X030577Y006378D01*
X030633Y006267D01*
X030683Y006152D01*
X030727Y006036D01*
X030766Y005917D01*
X030799Y005797D01*
X030826Y005675D01*
X030847Y005552D01*
X030862Y005429D01*
X030871Y005304D01*
X030874Y005179D01*
X030871Y005055D01*
X030862Y004930D01*
X030846Y004807D01*
X030825Y004684D01*
X030798Y004562D01*
X030765Y004442D01*
X030726Y004323D01*
X030681Y004207D01*
X030631Y004092D01*
X030575Y003981D01*
X030514Y003872D01*
X030448Y003766D01*
X030377Y003664D01*
X030300Y003565D01*
X030219Y003471D01*
X030134Y003380D01*
X030044Y003293D01*
X029950Y003211D01*
X029852Y003134D01*
X029751Y003061D01*
X029646Y002994D01*
X029538Y002931D01*
X029427Y002874D01*
X029313Y002823D01*
X029197Y002777D01*
X029079Y002737D01*
X028959Y002702D01*
X028838Y002674D01*
X028715Y002651D01*
X028592Y002634D01*
X028467Y002624D01*
X028343Y002619D01*
X028218Y002621D01*
X028094Y002628D01*
X027970Y002642D01*
X027846Y002662D01*
X027724Y002687D01*
X027604Y002719D01*
X027485Y002756D01*
X027368Y002799D01*
X027253Y002848D01*
X027140Y002903D01*
X027031Y002962D01*
X026924Y003027D01*
X026821Y003097D01*
X026722Y003172D01*
X026626Y003252D01*
X026534Y003337D01*
X026446Y003425D01*
X026363Y003518D01*
X026284Y003615D01*
X026211Y003716D01*
X026142Y003820D01*
X026078Y003927D01*
X026020Y004037D01*
X025967Y004150D01*
X025919Y004265D01*
X025877Y004383D01*
X025842Y004502D01*
X025811Y004623D01*
X025787Y004746D01*
X025769Y004869D01*
X025757Y004993D01*
X025751Y005118D01*
X025751Y005243D01*
X025757Y005367D01*
X025769Y005491D01*
X025787Y005615D01*
X025811Y005737D01*
X025841Y005858D01*
X025877Y005978D01*
X025919Y006095D01*
X025966Y006211D01*
X026019Y006324D01*
X026077Y006434D01*
X026141Y006541D01*
X010701Y015981D02*
X010545Y016407D01*
X010408Y016841D01*
X010292Y017279D01*
X010195Y017723D01*
X010117Y018170D01*
X010061Y018621D01*
X021021Y010061D02*
X021473Y010129D01*
X021922Y010219D01*
X022366Y010329D01*
X022804Y010459D01*
X023236Y010610D01*
X023661Y010781D01*
X018621Y010061D02*
X018182Y010132D01*
X017747Y010223D01*
X017317Y010334D01*
X016892Y010464D01*
X016473Y010613D01*
X016061Y010781D01*
X010061Y021021D02*
X010129Y021473D01*
X010219Y021922D01*
X010329Y022366D01*
X010459Y022804D01*
X010610Y023236D01*
X010781Y023661D01*
X006541Y026061D02*
X006434Y025997D01*
X006324Y025939D01*
X006211Y025886D01*
X006095Y025839D01*
X005978Y025797D01*
X005858Y025761D01*
X005737Y025731D01*
X005615Y025707D01*
X005491Y025689D01*
X005367Y025677D01*
X005243Y025671D01*
X005118Y025671D01*
X004993Y025677D01*
X004869Y025689D01*
X004746Y025707D01*
X004623Y025731D01*
X004502Y025762D01*
X004383Y025797D01*
X004265Y025839D01*
X004150Y025887D01*
X004037Y025940D01*
X003927Y025998D01*
X003820Y026062D01*
X003716Y026131D01*
X003615Y026204D01*
X003518Y026283D01*
X003425Y026366D01*
X003337Y026454D01*
X003252Y026546D01*
X003172Y026642D01*
X003097Y026741D01*
X003027Y026844D01*
X002962Y026951D01*
X002903Y027060D01*
X002848Y027173D01*
X002799Y027288D01*
X002756Y027405D01*
X002719Y027524D01*
X002687Y027644D01*
X002662Y027766D01*
X002642Y027890D01*
X002628Y028014D01*
X002621Y028138D01*
X002619Y028263D01*
X002624Y028387D01*
X002634Y028512D01*
X002651Y028635D01*
X002674Y028758D01*
X002702Y028879D01*
X002737Y028999D01*
X002777Y029117D01*
X002823Y029233D01*
X002874Y029347D01*
X002931Y029458D01*
X002994Y029566D01*
X003061Y029671D01*
X003134Y029772D01*
X003211Y029870D01*
X003293Y029964D01*
X003380Y030054D01*
X003471Y030139D01*
X003565Y030220D01*
X003664Y030297D01*
X003766Y030368D01*
X003872Y030434D01*
X003981Y030495D01*
X004092Y030551D01*
X004207Y030601D01*
X004323Y030646D01*
X004442Y030685D01*
X004562Y030718D01*
X004684Y030745D01*
X004807Y030766D01*
X004930Y030782D01*
X005055Y030791D01*
X005179Y030794D01*
X005304Y030791D01*
X005429Y030782D01*
X005552Y030767D01*
X005675Y030746D01*
X005797Y030719D01*
X005917Y030686D01*
X006036Y030647D01*
X006152Y030603D01*
X006267Y030553D01*
X006378Y030497D01*
X006487Y030436D01*
X006593Y030370D01*
X006695Y030299D01*
X006794Y030222D01*
X006889Y030142D01*
X006980Y030056D01*
X007067Y029966D01*
X007149Y029873D01*
X007226Y029775D01*
X007299Y029673D01*
X007367Y029569D01*
X007429Y029461D01*
X007486Y029350D01*
X007538Y029236D01*
X007584Y029120D01*
X007624Y029002D01*
X007659Y028882D01*
X007688Y028761D01*
X007711Y028638D01*
X007727Y028515D01*
X007738Y028391D01*
X007743Y028266D01*
X007741Y028141D01*
X011421Y031901D02*
X011296Y031899D01*
X011171Y031904D01*
X011047Y031915D01*
X010924Y031931D01*
X010801Y031954D01*
X010680Y031983D01*
X010560Y032018D01*
X010442Y032058D01*
X010326Y032104D01*
X010212Y032156D01*
X010101Y032213D01*
X009993Y032275D01*
X009889Y032343D01*
X009787Y032416D01*
X009689Y032493D01*
X009596Y032575D01*
X009506Y032662D01*
X009420Y032753D01*
X009340Y032848D01*
X009263Y032947D01*
X009192Y033049D01*
X009126Y033155D01*
X009065Y033264D01*
X009009Y033375D01*
X008959Y033490D01*
X008915Y033606D01*
X008876Y033725D01*
X008843Y033845D01*
X008816Y033967D01*
X008795Y034090D01*
X008780Y034213D01*
X008771Y034338D01*
X008768Y034463D01*
X008771Y034587D01*
X008780Y034712D01*
X008796Y034835D01*
X008817Y034958D01*
X008844Y035080D01*
X008877Y035200D01*
X008916Y035319D01*
X008961Y035435D01*
X009011Y035550D01*
X009067Y035661D01*
X009128Y035770D01*
X009194Y035876D01*
X009265Y035978D01*
X009342Y036077D01*
X009423Y036171D01*
X009508Y036262D01*
X009598Y036349D01*
X009692Y036431D01*
X009790Y036508D01*
X009891Y036581D01*
X009996Y036648D01*
X010104Y036711D01*
X010215Y036768D01*
X010329Y036819D01*
X010445Y036865D01*
X010563Y036905D01*
X010683Y036940D01*
X010804Y036968D01*
X010927Y036991D01*
X011050Y037008D01*
X011175Y037018D01*
X011299Y037023D01*
X011424Y037021D01*
X011548Y037014D01*
X011672Y037000D01*
X011796Y036980D01*
X011918Y036955D01*
X012038Y036923D01*
X012157Y036886D01*
X012274Y036843D01*
X012389Y036794D01*
X012502Y036739D01*
X012611Y036680D01*
X012718Y036615D01*
X012821Y036545D01*
X012920Y036470D01*
X013016Y036390D01*
X013108Y036305D01*
X013196Y036217D01*
X013279Y036124D01*
X013358Y036027D01*
X013431Y035926D01*
X013500Y035822D01*
X013564Y035715D01*
X013622Y035605D01*
X013675Y035492D01*
X013723Y035377D01*
X013765Y035259D01*
X013800Y035140D01*
X013831Y035019D01*
X013855Y034896D01*
X013873Y034773D01*
X013885Y034649D01*
X013891Y034524D01*
X013891Y034399D01*
X013885Y034275D01*
X013873Y034151D01*
X013855Y034027D01*
X013831Y033905D01*
X013801Y033784D01*
X013765Y033664D01*
X013723Y033547D01*
X013676Y033431D01*
X013623Y033318D01*
X013565Y033208D01*
X013501Y033101D01*
X021021Y029581D02*
X021473Y029513D01*
X021922Y029423D01*
X022366Y029313D01*
X022804Y029183D01*
X023236Y029032D01*
X023661Y028861D01*
X018621Y029581D02*
X018169Y029513D01*
X017720Y029423D01*
X017276Y029313D01*
X016838Y029183D01*
X016406Y029032D01*
X015981Y028861D01*
X011981Y013901D02*
X012263Y013545D01*
X012561Y013203D01*
X012874Y012874D01*
X013203Y012561D01*
X013545Y012263D01*
X013901Y011981D01*
X025741Y011981D02*
X026097Y012263D01*
X026439Y012561D01*
X026768Y012874D01*
X027081Y013203D01*
X027379Y013545D01*
X027661Y013901D01*
X027661Y025741D02*
X027379Y026097D01*
X027081Y026439D01*
X026768Y026768D01*
X026439Y027081D01*
X026097Y027379D01*
X025741Y027661D01*
X013901Y027661D02*
X013545Y027379D01*
X013203Y027081D01*
X012874Y026768D01*
X012561Y026439D01*
X012263Y026097D01*
X011981Y025741D01*
M02*
