%
M48
M72
T01C0.0120
T02C0.0276
%
T01
X5062Y12543
X3291Y18842
X9922Y20066
X10630Y18805
X11795Y18724
X12110Y18488
X12464Y18251
X12740Y19826
X13981Y17501
X14501Y17021
X14901Y16861
X13625Y16086
X11463Y14634
X14852Y11383
X16101Y11261
X16821Y12301
X17141Y12461
X17501Y12621
X18581Y13661
X18901Y13861
X19221Y14101
X19925Y12641
X20125Y9940
X23468Y13625
X24901Y13501
X24901Y13861
X24901Y14221
X24541Y15661
X24501Y16021
X24421Y16421
X26027Y16283
X28381Y17661
X29752Y19608
X29021Y20861
X27821Y21021
X27541Y21221
X27221Y21421
X25781Y21821
X25421Y21981
X25061Y22141
X23741Y22941
X22701Y22941
X21421Y21421
X22461Y20781
X22941Y20781
X21101Y19581
X21101Y19101
X20141Y19581
X22781Y16861
X27011Y19728
X25929Y23468
X28491Y25277
X25138Y28470
X23581Y28381
X23339Y27142
X22501Y27181
X22141Y27021
X21061Y26021
X20741Y25781
X20421Y25541
X20221Y25181
X20374Y24274
X21401Y24274
X21101Y25181
X19826Y27011
X18301Y28941
X19596Y29712
X16381Y26125
X17821Y24701
X15541Y23621
X15461Y23941
X15421Y24301
X14741Y25421
X14741Y25781
X14741Y26141
X14381Y27341
X15271Y28568
X11103Y24538
X13625Y23369
X16701Y21741
X23468Y25929
X27700Y34590
X33803Y28881
X36362Y20810
X28571Y15175
X25421Y12301
X24557Y11121
X29078Y6047
X34787Y12346
X20810Y3291
X12543Y5062
X16381Y13625
X5062Y27110
X10771Y33803
X18842Y36362
T02
X19826Y28684
X10968Y19826
X19826Y10968
X28684Y19826
M30
