G75*
G70*
%OFA0B0*%
%FSLAX24Y24*%
%IPPOS*%
%LPD*%
%AMOC8*
5,1,8,0,0,1.08239X$1,22.5*
%
%ADD10C,0.0010*%
%ADD11C,0.4882*%
%ADD12C,0.0679*%
%ADD13R,0.0434X0.0827*%
%ADD14C,0.0159*%
%ADD15R,0.0827X0.0434*%
%ADD16R,0.0620X0.0180*%
%ADD17R,0.0591X0.0473*%
%ADD18R,0.0473X0.0591*%
%ADD19R,0.0197X0.0631*%
%ADD20R,0.0280X0.0910*%
%ADD21R,0.1024X0.2402*%
%ADD22R,0.0434X0.1024*%
%ADD23R,0.1575X0.1575*%
%ADD24R,0.1300X0.1300*%
%ADD25R,0.0820X0.0250*%
%ADD26R,0.0631X0.0552*%
%ADD27R,0.0552X0.0631*%
%ADD28R,0.0434X0.0276*%
%ADD29C,0.0207*%
D10*
X007661Y011913D02*
X007686Y011790D01*
X007705Y011666D01*
X007717Y011541D01*
X007724Y011416D01*
X007724Y011291D01*
X007719Y011166D01*
X007707Y011041D01*
X007689Y010917D01*
X007666Y010794D01*
X007636Y010673D01*
X007600Y010553D01*
X007559Y010434D01*
X007511Y010318D01*
X007458Y010205D01*
X007400Y010094D01*
X007336Y009986D01*
X007268Y009881D01*
X007194Y009780D01*
X007115Y009683D01*
X007032Y009589D01*
X006944Y009500D01*
X006852Y009415D01*
X006755Y009335D01*
X006655Y009259D01*
X006552Y009189D01*
X006445Y009124D01*
X006335Y009064D01*
X006222Y009009D01*
X006107Y008960D01*
X005990Y008917D01*
X005870Y008879D01*
X005749Y008847D01*
X005626Y008822D01*
X005503Y008802D01*
X005378Y008788D01*
X005253Y008781D01*
X005128Y008779D01*
X005003Y008784D01*
X004878Y008795D01*
X004754Y008812D01*
X004630Y008834D01*
X004509Y008863D01*
X004388Y008898D01*
X004270Y008939D01*
X004153Y008985D01*
X004039Y009037D01*
X003928Y009095D01*
X003820Y009158D01*
X003715Y009226D01*
X003613Y009299D01*
X003515Y009377D01*
X003421Y009460D01*
X003331Y009547D01*
X003246Y009639D01*
X003165Y009734D01*
X003088Y009834D01*
X003017Y009937D01*
X002951Y010043D01*
X002890Y010152D01*
X002835Y010265D01*
X002785Y010380D01*
X002741Y010497D01*
X002702Y010616D01*
X002670Y010737D01*
X002643Y010860D01*
X002622Y010983D01*
X002608Y011107D01*
X002599Y011232D01*
X002597Y011358D01*
X002601Y011483D01*
X002611Y011608D01*
X002627Y011732D01*
X002649Y011855D01*
X002677Y011977D01*
X002711Y012098D01*
X002750Y012217D01*
X002796Y012333D01*
X002847Y012448D01*
X002904Y012560D01*
X002966Y012668D01*
X003033Y012774D01*
X003106Y012876D01*
X003183Y012975D01*
X003265Y013069D01*
X003352Y013160D01*
X003443Y013246D01*
X003538Y013328D01*
X003637Y013405D01*
X003739Y013477D01*
X003845Y013544D01*
X003954Y013605D01*
X004066Y013661D01*
X004181Y013712D01*
X004297Y013757D01*
X004416Y013796D01*
X004537Y013830D01*
X004659Y013857D01*
X004783Y013879D01*
X004907Y013894D01*
X005032Y013904D01*
X005157Y013907D01*
X005282Y013904D01*
X005407Y013895D01*
X005532Y013880D01*
X005655Y013859D01*
X005777Y013832D01*
X005898Y013799D01*
X006017Y013760D01*
X006134Y013715D01*
X006249Y013665D01*
X006361Y013609D01*
X006470Y013547D01*
X006576Y013481D01*
X006679Y013409D01*
X006778Y013333D01*
X006874Y013251D01*
X006873Y013251D02*
X010929Y015614D01*
X011716Y014236D02*
X007661Y011913D01*
X011913Y007661D02*
X014236Y011716D01*
X015614Y010929D02*
X013251Y006873D01*
X013251Y006874D02*
X013333Y006778D01*
X013409Y006679D01*
X013481Y006576D01*
X013547Y006470D01*
X013609Y006361D01*
X013665Y006249D01*
X013715Y006134D01*
X013760Y006017D01*
X013799Y005898D01*
X013832Y005777D01*
X013859Y005655D01*
X013880Y005532D01*
X013895Y005407D01*
X013904Y005282D01*
X013907Y005157D01*
X013904Y005032D01*
X013894Y004907D01*
X013879Y004783D01*
X013857Y004659D01*
X013830Y004537D01*
X013796Y004416D01*
X013757Y004297D01*
X013712Y004181D01*
X013661Y004066D01*
X013605Y003954D01*
X013544Y003845D01*
X013477Y003739D01*
X013405Y003637D01*
X013328Y003538D01*
X013246Y003443D01*
X013160Y003352D01*
X013069Y003265D01*
X012975Y003183D01*
X012876Y003106D01*
X012774Y003033D01*
X012668Y002966D01*
X012560Y002904D01*
X012448Y002847D01*
X012333Y002796D01*
X012217Y002750D01*
X012098Y002711D01*
X011977Y002677D01*
X011855Y002649D01*
X011732Y002627D01*
X011608Y002611D01*
X011483Y002601D01*
X011358Y002597D01*
X011232Y002599D01*
X011107Y002608D01*
X010983Y002622D01*
X010860Y002643D01*
X010737Y002670D01*
X010616Y002702D01*
X010497Y002741D01*
X010380Y002785D01*
X010265Y002835D01*
X010152Y002890D01*
X010043Y002951D01*
X009937Y003017D01*
X009834Y003088D01*
X009734Y003165D01*
X009639Y003246D01*
X009547Y003331D01*
X009460Y003421D01*
X009377Y003515D01*
X009299Y003613D01*
X009226Y003715D01*
X009158Y003820D01*
X009095Y003928D01*
X009037Y004039D01*
X008985Y004153D01*
X008939Y004270D01*
X008898Y004388D01*
X008863Y004509D01*
X008834Y004630D01*
X008812Y004754D01*
X008795Y004878D01*
X008784Y005003D01*
X008779Y005128D01*
X008781Y005253D01*
X008788Y005378D01*
X008802Y005503D01*
X008822Y005626D01*
X008847Y005749D01*
X008879Y005870D01*
X008917Y005990D01*
X008960Y006107D01*
X009009Y006222D01*
X009064Y006335D01*
X009124Y006445D01*
X009189Y006552D01*
X009259Y006655D01*
X009335Y006755D01*
X009415Y006852D01*
X009500Y006944D01*
X009589Y007032D01*
X009683Y007115D01*
X009780Y007194D01*
X009881Y007268D01*
X009986Y007336D01*
X010094Y007400D01*
X010205Y007458D01*
X010318Y007511D01*
X010434Y007559D01*
X010553Y007600D01*
X010673Y007636D01*
X010794Y007666D01*
X010917Y007689D01*
X011041Y007707D01*
X011166Y007719D01*
X011291Y007724D01*
X011416Y007724D01*
X011541Y007717D01*
X011666Y007705D01*
X011790Y007686D01*
X011913Y007661D01*
X019039Y005338D02*
X019039Y010023D01*
X020614Y010023D02*
X020614Y005338D01*
X020613Y005338D02*
X020732Y005297D01*
X020848Y005250D01*
X020961Y005197D01*
X021072Y005139D01*
X021180Y005076D01*
X021284Y005007D01*
X021386Y004933D01*
X021483Y004855D01*
X021576Y004772D01*
X021666Y004684D01*
X021751Y004592D01*
X021831Y004497D01*
X021907Y004397D01*
X021977Y004294D01*
X022043Y004187D01*
X022103Y004077D01*
X022158Y003965D01*
X022207Y003850D01*
X022251Y003733D01*
X022289Y003613D01*
X022321Y003492D01*
X022347Y003370D01*
X022367Y003247D01*
X022381Y003122D01*
X022389Y002997D01*
X022391Y002872D01*
X022387Y002747D01*
X022376Y002622D01*
X022360Y002498D01*
X022337Y002375D01*
X022309Y002253D01*
X022275Y002133D01*
X022234Y002015D01*
X022189Y001898D01*
X022137Y001784D01*
X022080Y001673D01*
X022018Y001564D01*
X021950Y001459D01*
X021877Y001357D01*
X021800Y001259D01*
X021718Y001165D01*
X021631Y001075D01*
X021540Y000989D01*
X021445Y000907D01*
X021346Y000831D01*
X021243Y000759D01*
X021137Y000693D01*
X021028Y000631D01*
X020916Y000575D01*
X020802Y000525D01*
X020685Y000480D01*
X020566Y000441D01*
X020445Y000408D01*
X020323Y000381D01*
X020200Y000359D01*
X020076Y000344D01*
X019951Y000335D01*
X019826Y000332D01*
X019701Y000335D01*
X019576Y000344D01*
X019452Y000359D01*
X019329Y000381D01*
X019207Y000408D01*
X019086Y000441D01*
X018967Y000480D01*
X018850Y000525D01*
X018736Y000575D01*
X018624Y000631D01*
X018515Y000693D01*
X018409Y000759D01*
X018306Y000831D01*
X018207Y000907D01*
X018112Y000989D01*
X018021Y001075D01*
X017934Y001165D01*
X017852Y001259D01*
X017775Y001357D01*
X017702Y001459D01*
X017634Y001564D01*
X017572Y001673D01*
X017515Y001784D01*
X017463Y001898D01*
X017418Y002015D01*
X017377Y002133D01*
X017343Y002253D01*
X017315Y002375D01*
X017292Y002498D01*
X017276Y002622D01*
X017265Y002747D01*
X017261Y002872D01*
X017263Y002997D01*
X017271Y003122D01*
X017285Y003247D01*
X017305Y003370D01*
X017331Y003492D01*
X017363Y003613D01*
X017401Y003733D01*
X017445Y003850D01*
X017494Y003965D01*
X017549Y004077D01*
X017609Y004187D01*
X017675Y004294D01*
X017745Y004397D01*
X017821Y004497D01*
X017901Y004592D01*
X017986Y004684D01*
X018076Y004772D01*
X018169Y004855D01*
X018266Y004933D01*
X018368Y005007D01*
X018472Y005076D01*
X018580Y005139D01*
X018691Y005197D01*
X018804Y005250D01*
X018920Y005297D01*
X019039Y005338D01*
X024039Y010929D02*
X026401Y006873D01*
X027740Y007661D02*
X025417Y011716D01*
X027936Y014236D02*
X031991Y011913D01*
X032779Y013251D02*
X028724Y015614D01*
X029629Y019039D02*
X034314Y019039D01*
X034314Y020614D02*
X029629Y020614D01*
X028724Y024039D02*
X032779Y026401D01*
X031991Y027740D02*
X027936Y025417D01*
X025417Y027936D02*
X027740Y031991D01*
X026401Y032779D02*
X024039Y028724D01*
X020614Y029629D02*
X020614Y034314D01*
X019039Y034314D02*
X019039Y029629D01*
X015614Y028724D02*
X013251Y032779D01*
X011913Y031991D02*
X014236Y027936D01*
X011716Y025417D02*
X007661Y027740D01*
X006873Y026362D02*
X010929Y024039D01*
X010023Y020614D02*
X005338Y020614D01*
X005338Y019039D02*
X010023Y019039D01*
X005338Y019039D02*
X005297Y018920D01*
X005250Y018804D01*
X005197Y018691D01*
X005139Y018580D01*
X005076Y018472D01*
X005007Y018368D01*
X004933Y018266D01*
X004855Y018169D01*
X004772Y018076D01*
X004684Y017986D01*
X004592Y017901D01*
X004497Y017821D01*
X004397Y017745D01*
X004294Y017675D01*
X004187Y017609D01*
X004077Y017549D01*
X003965Y017494D01*
X003850Y017445D01*
X003733Y017401D01*
X003613Y017363D01*
X003492Y017331D01*
X003370Y017305D01*
X003247Y017285D01*
X003122Y017271D01*
X002997Y017263D01*
X002872Y017261D01*
X002747Y017265D01*
X002622Y017276D01*
X002498Y017292D01*
X002375Y017315D01*
X002253Y017343D01*
X002133Y017377D01*
X002015Y017418D01*
X001898Y017463D01*
X001784Y017515D01*
X001673Y017572D01*
X001564Y017634D01*
X001459Y017702D01*
X001357Y017775D01*
X001259Y017852D01*
X001165Y017934D01*
X001075Y018021D01*
X000989Y018112D01*
X000907Y018207D01*
X000831Y018306D01*
X000759Y018409D01*
X000693Y018515D01*
X000631Y018624D01*
X000575Y018736D01*
X000525Y018850D01*
X000480Y018967D01*
X000441Y019086D01*
X000408Y019207D01*
X000381Y019329D01*
X000359Y019452D01*
X000344Y019576D01*
X000335Y019701D01*
X000332Y019826D01*
X000335Y019951D01*
X000344Y020076D01*
X000359Y020200D01*
X000381Y020323D01*
X000408Y020445D01*
X000441Y020566D01*
X000480Y020685D01*
X000525Y020802D01*
X000575Y020916D01*
X000631Y021028D01*
X000693Y021137D01*
X000759Y021243D01*
X000831Y021346D01*
X000907Y021445D01*
X000989Y021540D01*
X001075Y021631D01*
X001165Y021718D01*
X001259Y021800D01*
X001357Y021877D01*
X001459Y021950D01*
X001564Y022018D01*
X001673Y022080D01*
X001784Y022137D01*
X001898Y022189D01*
X002015Y022234D01*
X002133Y022275D01*
X002253Y022309D01*
X002375Y022337D01*
X002498Y022360D01*
X002622Y022376D01*
X002747Y022387D01*
X002872Y022391D01*
X002997Y022389D01*
X003122Y022381D01*
X003247Y022367D01*
X003370Y022347D01*
X003492Y022321D01*
X003613Y022289D01*
X003733Y022251D01*
X003850Y022207D01*
X003965Y022158D01*
X004077Y022103D01*
X004187Y022043D01*
X004294Y021977D01*
X004397Y021907D01*
X004497Y021831D01*
X004592Y021751D01*
X004684Y021666D01*
X004772Y021576D01*
X004855Y021483D01*
X004933Y021386D01*
X005007Y021284D01*
X005076Y021180D01*
X005139Y021072D01*
X005197Y020961D01*
X005250Y020848D01*
X005297Y020732D01*
X005338Y020613D01*
X006873Y026362D02*
X006779Y026281D01*
X006681Y026204D01*
X006580Y026133D01*
X006475Y026066D01*
X006366Y026005D01*
X006255Y025949D01*
X006142Y025898D01*
X006026Y025853D01*
X005908Y025814D01*
X005788Y025780D01*
X005667Y025753D01*
X005545Y025731D01*
X005421Y025715D01*
X005298Y025706D01*
X005173Y025702D01*
X005049Y025704D01*
X004925Y025713D01*
X004801Y025727D01*
X004679Y025748D01*
X004557Y025774D01*
X004437Y025807D01*
X004319Y025845D01*
X004203Y025889D01*
X004089Y025938D01*
X003977Y025993D01*
X003869Y026053D01*
X003763Y026119D01*
X003661Y026190D01*
X003562Y026265D01*
X003467Y026345D01*
X003376Y026430D01*
X003289Y026519D01*
X003207Y026612D01*
X003129Y026710D01*
X003057Y026810D01*
X002989Y026914D01*
X002926Y027022D01*
X002869Y027132D01*
X002817Y027245D01*
X002771Y027360D01*
X002730Y027478D01*
X002695Y027597D01*
X002666Y027718D01*
X002643Y027840D01*
X002626Y027963D01*
X002614Y028087D01*
X002609Y028211D01*
X002610Y028336D01*
X002617Y028460D01*
X002630Y028583D01*
X002649Y028706D01*
X002674Y028828D01*
X002705Y028948D01*
X002742Y029067D01*
X002784Y029184D01*
X002833Y029299D01*
X002886Y029411D01*
X002945Y029520D01*
X003010Y029627D01*
X003079Y029730D01*
X003153Y029829D01*
X003232Y029925D01*
X003316Y030017D01*
X003404Y030105D01*
X003496Y030188D01*
X003592Y030267D01*
X003692Y030341D01*
X003796Y030410D01*
X003902Y030474D01*
X004012Y030533D01*
X004124Y030586D01*
X004239Y030634D01*
X004356Y030676D01*
X004475Y030712D01*
X004595Y030743D01*
X004717Y030767D01*
X004840Y030786D01*
X004964Y030798D01*
X005088Y030805D01*
X005212Y030805D01*
X005336Y030800D01*
X005460Y030788D01*
X005583Y030771D01*
X005705Y030747D01*
X005826Y030718D01*
X005945Y030683D01*
X006063Y030641D01*
X006178Y030595D01*
X006291Y030542D01*
X006401Y030485D01*
X006508Y030422D01*
X006612Y030354D01*
X006712Y030280D01*
X006809Y030202D01*
X006902Y030120D01*
X006991Y030033D01*
X007075Y029942D01*
X007155Y029846D01*
X007230Y029747D01*
X007301Y029645D01*
X007366Y029539D01*
X007426Y029430D01*
X007480Y029319D01*
X007529Y029204D01*
X007573Y029088D01*
X007611Y028969D01*
X007643Y028849D01*
X007669Y028728D01*
X007689Y028605D01*
X007703Y028482D01*
X007711Y028357D01*
X007713Y028233D01*
X007709Y028109D01*
X007699Y027985D01*
X007683Y027862D01*
X007661Y027739D01*
X011913Y031991D02*
X011790Y031966D01*
X011666Y031947D01*
X011541Y031935D01*
X011416Y031928D01*
X011291Y031928D01*
X011166Y031933D01*
X011041Y031945D01*
X010917Y031963D01*
X010794Y031986D01*
X010673Y032016D01*
X010553Y032052D01*
X010434Y032093D01*
X010318Y032141D01*
X010205Y032194D01*
X010094Y032252D01*
X009986Y032316D01*
X009881Y032384D01*
X009780Y032458D01*
X009683Y032537D01*
X009589Y032620D01*
X009500Y032708D01*
X009415Y032800D01*
X009335Y032897D01*
X009259Y032997D01*
X009189Y033100D01*
X009124Y033207D01*
X009064Y033317D01*
X009009Y033430D01*
X008960Y033545D01*
X008917Y033662D01*
X008879Y033782D01*
X008847Y033903D01*
X008822Y034026D01*
X008802Y034149D01*
X008788Y034274D01*
X008781Y034399D01*
X008779Y034524D01*
X008784Y034649D01*
X008795Y034774D01*
X008812Y034898D01*
X008834Y035022D01*
X008863Y035143D01*
X008898Y035264D01*
X008939Y035382D01*
X008985Y035499D01*
X009037Y035613D01*
X009095Y035724D01*
X009158Y035832D01*
X009226Y035937D01*
X009299Y036039D01*
X009377Y036137D01*
X009460Y036231D01*
X009547Y036321D01*
X009639Y036406D01*
X009734Y036487D01*
X009834Y036564D01*
X009937Y036635D01*
X010043Y036701D01*
X010152Y036762D01*
X010265Y036817D01*
X010380Y036867D01*
X010497Y036911D01*
X010616Y036950D01*
X010737Y036982D01*
X010860Y037009D01*
X010983Y037030D01*
X011107Y037044D01*
X011232Y037053D01*
X011358Y037055D01*
X011483Y037051D01*
X011608Y037041D01*
X011732Y037025D01*
X011855Y037003D01*
X011977Y036975D01*
X012098Y036941D01*
X012217Y036902D01*
X012333Y036856D01*
X012448Y036805D01*
X012560Y036748D01*
X012668Y036686D01*
X012774Y036619D01*
X012876Y036546D01*
X012975Y036469D01*
X013069Y036387D01*
X013160Y036300D01*
X013246Y036209D01*
X013328Y036114D01*
X013405Y036015D01*
X013477Y035913D01*
X013544Y035807D01*
X013605Y035698D01*
X013661Y035586D01*
X013712Y035471D01*
X013757Y035355D01*
X013796Y035236D01*
X013830Y035115D01*
X013857Y034993D01*
X013879Y034869D01*
X013894Y034745D01*
X013904Y034620D01*
X013907Y034495D01*
X013904Y034370D01*
X013895Y034245D01*
X013880Y034120D01*
X013859Y033997D01*
X013832Y033875D01*
X013799Y033754D01*
X013760Y033635D01*
X013715Y033518D01*
X013665Y033403D01*
X013609Y033291D01*
X013547Y033182D01*
X013481Y033076D01*
X013409Y032973D01*
X013333Y032874D01*
X013251Y032778D01*
X019039Y034314D02*
X018920Y034355D01*
X018804Y034402D01*
X018691Y034455D01*
X018580Y034513D01*
X018472Y034576D01*
X018368Y034645D01*
X018266Y034719D01*
X018169Y034797D01*
X018076Y034880D01*
X017986Y034968D01*
X017901Y035060D01*
X017821Y035155D01*
X017745Y035255D01*
X017675Y035358D01*
X017609Y035465D01*
X017549Y035575D01*
X017494Y035687D01*
X017445Y035802D01*
X017401Y035919D01*
X017363Y036039D01*
X017331Y036160D01*
X017305Y036282D01*
X017285Y036405D01*
X017271Y036530D01*
X017263Y036655D01*
X017261Y036780D01*
X017265Y036905D01*
X017276Y037030D01*
X017292Y037154D01*
X017315Y037277D01*
X017343Y037399D01*
X017377Y037519D01*
X017418Y037637D01*
X017463Y037754D01*
X017515Y037868D01*
X017572Y037979D01*
X017634Y038088D01*
X017702Y038193D01*
X017775Y038295D01*
X017852Y038393D01*
X017934Y038487D01*
X018021Y038577D01*
X018112Y038663D01*
X018207Y038745D01*
X018306Y038821D01*
X018409Y038893D01*
X018515Y038959D01*
X018624Y039021D01*
X018736Y039077D01*
X018850Y039127D01*
X018967Y039172D01*
X019086Y039211D01*
X019207Y039244D01*
X019329Y039271D01*
X019452Y039293D01*
X019576Y039308D01*
X019701Y039317D01*
X019826Y039320D01*
X019951Y039317D01*
X020076Y039308D01*
X020200Y039293D01*
X020323Y039271D01*
X020445Y039244D01*
X020566Y039211D01*
X020685Y039172D01*
X020802Y039127D01*
X020916Y039077D01*
X021028Y039021D01*
X021137Y038959D01*
X021243Y038893D01*
X021346Y038821D01*
X021445Y038745D01*
X021540Y038663D01*
X021631Y038577D01*
X021718Y038487D01*
X021800Y038393D01*
X021877Y038295D01*
X021950Y038193D01*
X022018Y038088D01*
X022080Y037979D01*
X022137Y037868D01*
X022189Y037754D01*
X022234Y037637D01*
X022275Y037519D01*
X022309Y037399D01*
X022337Y037277D01*
X022360Y037154D01*
X022376Y037030D01*
X022387Y036905D01*
X022391Y036780D01*
X022389Y036655D01*
X022381Y036530D01*
X022367Y036405D01*
X022347Y036282D01*
X022321Y036160D01*
X022289Y036039D01*
X022251Y035919D01*
X022207Y035802D01*
X022158Y035687D01*
X022103Y035575D01*
X022043Y035465D01*
X021977Y035358D01*
X021907Y035255D01*
X021831Y035155D01*
X021751Y035060D01*
X021666Y034968D01*
X021576Y034880D01*
X021483Y034797D01*
X021386Y034719D01*
X021284Y034645D01*
X021180Y034576D01*
X021072Y034513D01*
X020961Y034455D01*
X020848Y034402D01*
X020732Y034355D01*
X020613Y034314D01*
X026401Y032778D02*
X026319Y032874D01*
X026243Y032973D01*
X026171Y033076D01*
X026105Y033182D01*
X026043Y033291D01*
X025987Y033403D01*
X025937Y033518D01*
X025892Y033635D01*
X025853Y033754D01*
X025820Y033875D01*
X025793Y033997D01*
X025772Y034120D01*
X025757Y034245D01*
X025748Y034370D01*
X025745Y034495D01*
X025748Y034620D01*
X025758Y034745D01*
X025773Y034869D01*
X025795Y034993D01*
X025822Y035115D01*
X025856Y035236D01*
X025895Y035355D01*
X025940Y035471D01*
X025991Y035586D01*
X026047Y035698D01*
X026108Y035807D01*
X026175Y035913D01*
X026247Y036015D01*
X026324Y036114D01*
X026406Y036209D01*
X026492Y036300D01*
X026583Y036387D01*
X026677Y036469D01*
X026776Y036546D01*
X026878Y036619D01*
X026984Y036686D01*
X027092Y036748D01*
X027204Y036805D01*
X027319Y036856D01*
X027435Y036902D01*
X027554Y036941D01*
X027675Y036975D01*
X027797Y037003D01*
X027920Y037025D01*
X028044Y037041D01*
X028169Y037051D01*
X028294Y037055D01*
X028420Y037053D01*
X028545Y037044D01*
X028669Y037030D01*
X028792Y037009D01*
X028915Y036982D01*
X029036Y036950D01*
X029155Y036911D01*
X029272Y036867D01*
X029387Y036817D01*
X029500Y036762D01*
X029609Y036701D01*
X029715Y036635D01*
X029818Y036564D01*
X029918Y036487D01*
X030013Y036406D01*
X030105Y036321D01*
X030192Y036231D01*
X030275Y036137D01*
X030353Y036039D01*
X030426Y035937D01*
X030494Y035832D01*
X030557Y035724D01*
X030615Y035613D01*
X030667Y035499D01*
X030713Y035382D01*
X030754Y035264D01*
X030789Y035143D01*
X030818Y035022D01*
X030840Y034898D01*
X030857Y034774D01*
X030868Y034649D01*
X030873Y034524D01*
X030871Y034399D01*
X030864Y034274D01*
X030850Y034149D01*
X030830Y034026D01*
X030805Y033903D01*
X030773Y033782D01*
X030735Y033662D01*
X030692Y033545D01*
X030643Y033430D01*
X030588Y033317D01*
X030528Y033207D01*
X030463Y033100D01*
X030393Y032997D01*
X030317Y032897D01*
X030237Y032800D01*
X030152Y032708D01*
X030063Y032620D01*
X029969Y032537D01*
X029872Y032458D01*
X029771Y032384D01*
X029666Y032316D01*
X029558Y032252D01*
X029447Y032194D01*
X029334Y032141D01*
X029218Y032093D01*
X029099Y032052D01*
X028979Y032016D01*
X028858Y031986D01*
X028735Y031963D01*
X028611Y031945D01*
X028486Y031933D01*
X028361Y031928D01*
X028236Y031928D01*
X028111Y031935D01*
X027986Y031947D01*
X027862Y031966D01*
X027739Y031991D01*
X031991Y027739D02*
X031966Y027862D01*
X031947Y027986D01*
X031935Y028111D01*
X031928Y028236D01*
X031928Y028361D01*
X031933Y028486D01*
X031945Y028611D01*
X031963Y028735D01*
X031986Y028858D01*
X032016Y028979D01*
X032052Y029099D01*
X032093Y029218D01*
X032141Y029334D01*
X032194Y029447D01*
X032252Y029558D01*
X032316Y029666D01*
X032384Y029771D01*
X032458Y029872D01*
X032537Y029969D01*
X032620Y030063D01*
X032708Y030152D01*
X032800Y030237D01*
X032897Y030317D01*
X032997Y030393D01*
X033100Y030463D01*
X033207Y030528D01*
X033317Y030588D01*
X033430Y030643D01*
X033545Y030692D01*
X033662Y030735D01*
X033782Y030773D01*
X033903Y030805D01*
X034026Y030830D01*
X034149Y030850D01*
X034274Y030864D01*
X034399Y030871D01*
X034524Y030873D01*
X034649Y030868D01*
X034774Y030857D01*
X034898Y030840D01*
X035022Y030818D01*
X035143Y030789D01*
X035264Y030754D01*
X035382Y030713D01*
X035499Y030667D01*
X035613Y030615D01*
X035724Y030557D01*
X035832Y030494D01*
X035937Y030426D01*
X036039Y030353D01*
X036137Y030275D01*
X036231Y030192D01*
X036321Y030105D01*
X036406Y030013D01*
X036487Y029918D01*
X036564Y029818D01*
X036635Y029715D01*
X036701Y029609D01*
X036762Y029500D01*
X036817Y029387D01*
X036867Y029272D01*
X036911Y029155D01*
X036950Y029036D01*
X036982Y028915D01*
X037009Y028792D01*
X037030Y028669D01*
X037044Y028545D01*
X037053Y028420D01*
X037055Y028294D01*
X037051Y028169D01*
X037041Y028044D01*
X037025Y027920D01*
X037003Y027797D01*
X036975Y027675D01*
X036941Y027554D01*
X036902Y027435D01*
X036856Y027319D01*
X036805Y027204D01*
X036748Y027092D01*
X036686Y026984D01*
X036619Y026878D01*
X036546Y026776D01*
X036469Y026677D01*
X036387Y026583D01*
X036300Y026492D01*
X036209Y026406D01*
X036114Y026324D01*
X036015Y026247D01*
X035913Y026175D01*
X035807Y026108D01*
X035698Y026047D01*
X035586Y025991D01*
X035471Y025940D01*
X035355Y025895D01*
X035236Y025856D01*
X035115Y025822D01*
X034993Y025795D01*
X034869Y025773D01*
X034745Y025758D01*
X034620Y025748D01*
X034495Y025745D01*
X034370Y025748D01*
X034245Y025757D01*
X034120Y025772D01*
X033997Y025793D01*
X033875Y025820D01*
X033754Y025853D01*
X033635Y025892D01*
X033518Y025937D01*
X033403Y025987D01*
X033291Y026043D01*
X033182Y026105D01*
X033076Y026171D01*
X032973Y026243D01*
X032874Y026319D01*
X032778Y026401D01*
X034314Y020613D02*
X034355Y020732D01*
X034402Y020848D01*
X034455Y020961D01*
X034513Y021072D01*
X034576Y021180D01*
X034645Y021284D01*
X034719Y021386D01*
X034797Y021483D01*
X034880Y021576D01*
X034968Y021666D01*
X035060Y021751D01*
X035155Y021831D01*
X035255Y021907D01*
X035358Y021977D01*
X035465Y022043D01*
X035575Y022103D01*
X035687Y022158D01*
X035802Y022207D01*
X035919Y022251D01*
X036039Y022289D01*
X036160Y022321D01*
X036282Y022347D01*
X036405Y022367D01*
X036530Y022381D01*
X036655Y022389D01*
X036780Y022391D01*
X036905Y022387D01*
X037030Y022376D01*
X037154Y022360D01*
X037277Y022337D01*
X037399Y022309D01*
X037519Y022275D01*
X037637Y022234D01*
X037754Y022189D01*
X037868Y022137D01*
X037979Y022080D01*
X038088Y022018D01*
X038193Y021950D01*
X038295Y021877D01*
X038393Y021800D01*
X038487Y021718D01*
X038577Y021631D01*
X038663Y021540D01*
X038745Y021445D01*
X038821Y021346D01*
X038893Y021243D01*
X038959Y021137D01*
X039021Y021028D01*
X039077Y020916D01*
X039127Y020802D01*
X039172Y020685D01*
X039211Y020566D01*
X039244Y020445D01*
X039271Y020323D01*
X039293Y020200D01*
X039308Y020076D01*
X039317Y019951D01*
X039320Y019826D01*
X039317Y019701D01*
X039308Y019576D01*
X039293Y019452D01*
X039271Y019329D01*
X039244Y019207D01*
X039211Y019086D01*
X039172Y018967D01*
X039127Y018850D01*
X039077Y018736D01*
X039021Y018624D01*
X038959Y018515D01*
X038893Y018409D01*
X038821Y018306D01*
X038745Y018207D01*
X038663Y018112D01*
X038577Y018021D01*
X038487Y017934D01*
X038393Y017852D01*
X038295Y017775D01*
X038193Y017702D01*
X038088Y017634D01*
X037979Y017572D01*
X037868Y017515D01*
X037754Y017463D01*
X037637Y017418D01*
X037519Y017377D01*
X037399Y017343D01*
X037277Y017315D01*
X037154Y017292D01*
X037030Y017276D01*
X036905Y017265D01*
X036780Y017261D01*
X036655Y017263D01*
X036530Y017271D01*
X036405Y017285D01*
X036282Y017305D01*
X036160Y017331D01*
X036039Y017363D01*
X035919Y017401D01*
X035802Y017445D01*
X035687Y017494D01*
X035575Y017549D01*
X035465Y017609D01*
X035358Y017675D01*
X035255Y017745D01*
X035155Y017821D01*
X035060Y017901D01*
X034968Y017986D01*
X034880Y018076D01*
X034797Y018169D01*
X034719Y018266D01*
X034645Y018368D01*
X034576Y018472D01*
X034513Y018580D01*
X034455Y018691D01*
X034402Y018804D01*
X034355Y018920D01*
X034314Y019039D01*
X032778Y013251D02*
X032874Y013333D01*
X032973Y013409D01*
X033076Y013481D01*
X033182Y013547D01*
X033291Y013609D01*
X033403Y013665D01*
X033518Y013715D01*
X033635Y013760D01*
X033754Y013799D01*
X033875Y013832D01*
X033997Y013859D01*
X034120Y013880D01*
X034245Y013895D01*
X034370Y013904D01*
X034495Y013907D01*
X034620Y013904D01*
X034745Y013894D01*
X034869Y013879D01*
X034993Y013857D01*
X035115Y013830D01*
X035236Y013796D01*
X035355Y013757D01*
X035471Y013712D01*
X035586Y013661D01*
X035698Y013605D01*
X035807Y013544D01*
X035913Y013477D01*
X036015Y013405D01*
X036114Y013328D01*
X036209Y013246D01*
X036300Y013160D01*
X036387Y013069D01*
X036469Y012975D01*
X036546Y012876D01*
X036619Y012774D01*
X036686Y012668D01*
X036748Y012560D01*
X036805Y012448D01*
X036856Y012333D01*
X036902Y012217D01*
X036941Y012098D01*
X036975Y011977D01*
X037003Y011855D01*
X037025Y011732D01*
X037041Y011608D01*
X037051Y011483D01*
X037055Y011358D01*
X037053Y011232D01*
X037044Y011107D01*
X037030Y010983D01*
X037009Y010860D01*
X036982Y010737D01*
X036950Y010616D01*
X036911Y010497D01*
X036867Y010380D01*
X036817Y010265D01*
X036762Y010152D01*
X036701Y010043D01*
X036635Y009937D01*
X036564Y009834D01*
X036487Y009734D01*
X036406Y009639D01*
X036321Y009547D01*
X036231Y009460D01*
X036137Y009377D01*
X036039Y009299D01*
X035937Y009226D01*
X035832Y009158D01*
X035724Y009095D01*
X035613Y009037D01*
X035499Y008985D01*
X035382Y008939D01*
X035264Y008898D01*
X035143Y008863D01*
X035022Y008834D01*
X034898Y008812D01*
X034774Y008795D01*
X034649Y008784D01*
X034524Y008779D01*
X034399Y008781D01*
X034274Y008788D01*
X034149Y008802D01*
X034026Y008822D01*
X033903Y008847D01*
X033782Y008879D01*
X033662Y008917D01*
X033545Y008960D01*
X033430Y009009D01*
X033317Y009064D01*
X033207Y009124D01*
X033100Y009189D01*
X032997Y009259D01*
X032897Y009335D01*
X032800Y009415D01*
X032708Y009500D01*
X032620Y009589D01*
X032537Y009683D01*
X032458Y009780D01*
X032384Y009881D01*
X032316Y009986D01*
X032252Y010094D01*
X032194Y010205D01*
X032141Y010318D01*
X032093Y010434D01*
X032052Y010553D01*
X032016Y010673D01*
X031986Y010794D01*
X031963Y010917D01*
X031945Y011041D01*
X031933Y011166D01*
X031928Y011291D01*
X031928Y011416D01*
X031935Y011541D01*
X031947Y011666D01*
X031966Y011790D01*
X031991Y011913D01*
X027739Y007661D02*
X027862Y007686D01*
X027986Y007705D01*
X028111Y007717D01*
X028236Y007724D01*
X028361Y007724D01*
X028486Y007719D01*
X028611Y007707D01*
X028735Y007689D01*
X028858Y007666D01*
X028979Y007636D01*
X029099Y007600D01*
X029218Y007559D01*
X029334Y007511D01*
X029447Y007458D01*
X029558Y007400D01*
X029666Y007336D01*
X029771Y007268D01*
X029872Y007194D01*
X029969Y007115D01*
X030063Y007032D01*
X030152Y006944D01*
X030237Y006852D01*
X030317Y006755D01*
X030393Y006655D01*
X030463Y006552D01*
X030528Y006445D01*
X030588Y006335D01*
X030643Y006222D01*
X030692Y006107D01*
X030735Y005990D01*
X030773Y005870D01*
X030805Y005749D01*
X030830Y005626D01*
X030850Y005503D01*
X030864Y005378D01*
X030871Y005253D01*
X030873Y005128D01*
X030868Y005003D01*
X030857Y004878D01*
X030840Y004754D01*
X030818Y004630D01*
X030789Y004509D01*
X030754Y004388D01*
X030713Y004270D01*
X030667Y004153D01*
X030615Y004039D01*
X030557Y003928D01*
X030494Y003820D01*
X030426Y003715D01*
X030353Y003613D01*
X030275Y003515D01*
X030192Y003421D01*
X030105Y003331D01*
X030013Y003246D01*
X029918Y003165D01*
X029818Y003088D01*
X029715Y003017D01*
X029609Y002951D01*
X029500Y002890D01*
X029387Y002835D01*
X029272Y002785D01*
X029155Y002741D01*
X029036Y002702D01*
X028915Y002670D01*
X028792Y002643D01*
X028669Y002622D01*
X028545Y002608D01*
X028420Y002599D01*
X028294Y002597D01*
X028169Y002601D01*
X028044Y002611D01*
X027920Y002627D01*
X027797Y002649D01*
X027675Y002677D01*
X027554Y002711D01*
X027435Y002750D01*
X027319Y002796D01*
X027204Y002847D01*
X027092Y002904D01*
X026984Y002966D01*
X026878Y003033D01*
X026776Y003106D01*
X026677Y003183D01*
X026583Y003265D01*
X026492Y003352D01*
X026406Y003443D01*
X026324Y003538D01*
X026247Y003637D01*
X026175Y003739D01*
X026108Y003845D01*
X026047Y003954D01*
X025991Y004066D01*
X025940Y004181D01*
X025895Y004297D01*
X025856Y004416D01*
X025822Y004537D01*
X025795Y004659D01*
X025773Y004783D01*
X025758Y004907D01*
X025748Y005032D01*
X025745Y005157D01*
X025748Y005282D01*
X025757Y005407D01*
X025772Y005532D01*
X025793Y005655D01*
X025820Y005777D01*
X025853Y005898D01*
X025892Y006017D01*
X025937Y006134D01*
X025987Y006249D01*
X026043Y006361D01*
X026105Y006470D01*
X026171Y006576D01*
X026243Y006679D01*
X026319Y006778D01*
X026401Y006874D01*
X028724Y015613D02*
X028904Y016020D01*
X029066Y016435D01*
X029209Y016857D01*
X029332Y017285D01*
X029436Y017718D01*
X029521Y018155D01*
X029585Y018596D01*
X029630Y019039D01*
X024039Y028724D02*
X023632Y028904D01*
X023217Y029066D01*
X022795Y029209D01*
X022367Y029332D01*
X021934Y029436D01*
X021497Y029521D01*
X021056Y029585D01*
X020613Y029630D01*
X028724Y024039D02*
X028904Y023632D01*
X029066Y023217D01*
X029209Y022795D01*
X029332Y022367D01*
X029436Y021934D01*
X029521Y021497D01*
X029585Y021056D01*
X029630Y020613D01*
X024039Y010928D02*
X023632Y010748D01*
X023217Y010586D01*
X022795Y010443D01*
X022367Y010320D01*
X021934Y010216D01*
X021497Y010131D01*
X021056Y010067D01*
X020613Y010022D01*
X010928Y015613D02*
X010748Y016020D01*
X010586Y016435D01*
X010443Y016857D01*
X010320Y017285D01*
X010216Y017718D01*
X010131Y018155D01*
X010067Y018596D01*
X010022Y019039D01*
X015613Y028724D02*
X016020Y028904D01*
X016435Y029066D01*
X016857Y029209D01*
X017285Y029332D01*
X017718Y029436D01*
X018155Y029521D01*
X018596Y029585D01*
X019039Y029630D01*
X010928Y024039D02*
X010748Y023632D01*
X010586Y023217D01*
X010443Y022795D01*
X010320Y022367D01*
X010216Y021934D01*
X010131Y021497D01*
X010067Y021056D01*
X010022Y020613D01*
X015613Y010928D02*
X016020Y010748D01*
X016435Y010586D01*
X016857Y010443D01*
X017285Y010320D01*
X017718Y010216D01*
X018155Y010131D01*
X018596Y010067D01*
X019039Y010022D01*
X025416Y011716D02*
X025779Y011979D01*
X026130Y012257D01*
X026467Y012552D01*
X026791Y012861D01*
X027100Y013185D01*
X027395Y013522D01*
X027673Y013873D01*
X027936Y014236D01*
X027936Y025416D02*
X027673Y025779D01*
X027395Y026130D01*
X027100Y026467D01*
X026791Y026791D01*
X026467Y027100D01*
X026130Y027395D01*
X025779Y027673D01*
X025416Y027936D01*
X011716Y014236D02*
X011979Y013873D01*
X012257Y013522D01*
X012552Y013185D01*
X012861Y012861D01*
X013185Y012552D01*
X013522Y012257D01*
X013873Y011979D01*
X014236Y011716D01*
X011716Y025416D02*
X011979Y025779D01*
X012257Y026130D01*
X012552Y026467D01*
X012861Y026791D01*
X013185Y027100D01*
X013522Y027395D01*
X013873Y027673D01*
X014236Y027936D01*
D11*
X016760Y020687D03*
D12*
X025181Y027021D03*
X026941Y024861D03*
D13*
G36*
X033205Y028027D02*
X032988Y028403D01*
X033703Y028815D01*
X033920Y028439D01*
X033205Y028027D01*
G37*
G36*
X033520Y027482D02*
X033303Y027858D01*
X034018Y028270D01*
X034235Y027894D01*
X033520Y027482D01*
G37*
G36*
X033834Y026936D02*
X033617Y027312D01*
X034332Y027724D01*
X034549Y027348D01*
X033834Y026936D01*
G37*
G36*
X035289Y027776D02*
X035072Y028152D01*
X035787Y028564D01*
X036004Y028188D01*
X035289Y027776D01*
G37*
G36*
X034974Y028322D02*
X034757Y028698D01*
X035472Y029110D01*
X035689Y028734D01*
X034974Y028322D01*
G37*
G36*
X034659Y028867D02*
X034442Y029243D01*
X035157Y029655D01*
X035374Y029279D01*
X034659Y028867D01*
G37*
G36*
X028403Y032988D02*
X028027Y033205D01*
X028439Y033920D01*
X028815Y033703D01*
X028403Y032988D01*
G37*
G36*
X027858Y033302D02*
X027482Y033519D01*
X027894Y034234D01*
X028270Y034017D01*
X027858Y033302D01*
G37*
G36*
X027312Y033617D02*
X026936Y033834D01*
X027348Y034549D01*
X027724Y034332D01*
X027312Y033617D01*
G37*
G36*
X028698Y034757D02*
X028322Y034974D01*
X028734Y035689D01*
X029110Y035472D01*
X028698Y034757D01*
G37*
G36*
X029243Y034442D02*
X028867Y034659D01*
X029279Y035374D01*
X029655Y035157D01*
X029243Y034442D01*
G37*
G36*
X028152Y035072D02*
X027776Y035289D01*
X028188Y036004D01*
X028564Y035787D01*
X028152Y035072D01*
G37*
X020456Y035925D03*
X019826Y035925D03*
X019196Y035925D03*
X019196Y037605D03*
X019826Y037605D03*
X020456Y037605D03*
G36*
X012716Y033834D02*
X012340Y033617D01*
X011928Y034332D01*
X012304Y034549D01*
X012716Y033834D01*
G37*
G36*
X012171Y033519D02*
X011795Y033302D01*
X011383Y034017D01*
X011759Y034234D01*
X012171Y033519D01*
G37*
G36*
X011625Y033205D02*
X011249Y032988D01*
X010837Y033703D01*
X011213Y033920D01*
X011625Y033205D01*
G37*
G36*
X010785Y034659D02*
X010409Y034442D01*
X009997Y035157D01*
X010373Y035374D01*
X010785Y034659D01*
G37*
G36*
X011331Y034974D02*
X010955Y034757D01*
X010543Y035472D01*
X010919Y035689D01*
X011331Y034974D01*
G37*
G36*
X011876Y035289D02*
X011500Y035072D01*
X011088Y035787D01*
X011464Y036004D01*
X011876Y035289D01*
G37*
G36*
X006665Y028403D02*
X006448Y028027D01*
X005733Y028439D01*
X005950Y028815D01*
X006665Y028403D01*
G37*
G36*
X006350Y027858D02*
X006133Y027482D01*
X005418Y027894D01*
X005635Y028270D01*
X006350Y027858D01*
G37*
G36*
X006035Y027312D02*
X005818Y026936D01*
X005103Y027348D01*
X005320Y027724D01*
X006035Y027312D01*
G37*
G36*
X004895Y028698D02*
X004678Y028322D01*
X003963Y028734D01*
X004180Y029110D01*
X004895Y028698D01*
G37*
G36*
X005210Y029243D02*
X004993Y028867D01*
X004278Y029279D01*
X004495Y029655D01*
X005210Y029243D01*
G37*
G36*
X004580Y028152D02*
X004363Y027776D01*
X003648Y028188D01*
X003865Y028564D01*
X004580Y028152D01*
G37*
G36*
X005818Y012716D02*
X006035Y012340D01*
X005320Y011928D01*
X005103Y012304D01*
X005818Y012716D01*
G37*
G36*
X006133Y012171D02*
X006350Y011795D01*
X005635Y011383D01*
X005418Y011759D01*
X006133Y012171D01*
G37*
G36*
X006448Y011625D02*
X006665Y011249D01*
X005950Y010837D01*
X005733Y011213D01*
X006448Y011625D01*
G37*
G36*
X004993Y010785D02*
X005210Y010409D01*
X004495Y009997D01*
X004278Y010373D01*
X004993Y010785D01*
G37*
G36*
X004678Y011331D02*
X004895Y010955D01*
X004180Y010543D01*
X003963Y010919D01*
X004678Y011331D01*
G37*
G36*
X004363Y011876D02*
X004580Y011500D01*
X003865Y011088D01*
X003648Y011464D01*
X004363Y011876D01*
G37*
G36*
X011249Y006665D02*
X011625Y006448D01*
X011213Y005733D01*
X010837Y005950D01*
X011249Y006665D01*
G37*
G36*
X011795Y006350D02*
X012171Y006133D01*
X011759Y005418D01*
X011383Y005635D01*
X011795Y006350D01*
G37*
G36*
X012340Y006035D02*
X012716Y005818D01*
X012304Y005103D01*
X011928Y005320D01*
X012340Y006035D01*
G37*
G36*
X010955Y004895D02*
X011331Y004678D01*
X010919Y003963D01*
X010543Y004180D01*
X010955Y004895D01*
G37*
G36*
X010409Y005210D02*
X010785Y004993D01*
X010373Y004278D01*
X009997Y004495D01*
X010409Y005210D01*
G37*
G36*
X011500Y004580D02*
X011876Y004363D01*
X011464Y003648D01*
X011088Y003865D01*
X011500Y004580D01*
G37*
X019196Y003727D03*
X019826Y003727D03*
X020456Y003727D03*
X020456Y002047D03*
X019826Y002047D03*
X019196Y002047D03*
G36*
X026936Y005818D02*
X027312Y006035D01*
X027724Y005320D01*
X027348Y005103D01*
X026936Y005818D01*
G37*
G36*
X027482Y006133D02*
X027858Y006350D01*
X028270Y005635D01*
X027894Y005418D01*
X027482Y006133D01*
G37*
G36*
X028027Y006448D02*
X028403Y006665D01*
X028815Y005950D01*
X028439Y005733D01*
X028027Y006448D01*
G37*
G36*
X028867Y004993D02*
X029243Y005210D01*
X029655Y004495D01*
X029279Y004278D01*
X028867Y004993D01*
G37*
G36*
X028322Y004678D02*
X028698Y004895D01*
X029110Y004180D01*
X028734Y003963D01*
X028322Y004678D01*
G37*
G36*
X027776Y004363D02*
X028152Y004580D01*
X028564Y003865D01*
X028188Y003648D01*
X027776Y004363D01*
G37*
G36*
X032988Y011249D02*
X033205Y011625D01*
X033920Y011213D01*
X033703Y010837D01*
X032988Y011249D01*
G37*
G36*
X033303Y011795D02*
X033520Y012171D01*
X034235Y011759D01*
X034018Y011383D01*
X033303Y011795D01*
G37*
G36*
X033617Y012340D02*
X033834Y012716D01*
X034549Y012304D01*
X034332Y011928D01*
X033617Y012340D01*
G37*
G36*
X034757Y010955D02*
X034974Y011331D01*
X035689Y010919D01*
X035472Y010543D01*
X034757Y010955D01*
G37*
G36*
X034442Y010409D02*
X034659Y010785D01*
X035374Y010373D01*
X035157Y009997D01*
X034442Y010409D01*
G37*
G36*
X035072Y011500D02*
X035289Y011876D01*
X036004Y011464D01*
X035787Y011088D01*
X035072Y011500D01*
G37*
D14*
X004993Y009898D03*
X011944Y003811D03*
X021007Y002016D03*
X029754Y004993D03*
X035841Y011944D03*
X037636Y021007D03*
X034660Y029754D03*
X027708Y035841D03*
X018645Y037636D03*
X009898Y034660D03*
X003811Y027708D03*
X002016Y018645D03*
D15*
X002047Y019196D03*
X002047Y019826D03*
X002047Y020456D03*
X003727Y020456D03*
X003727Y019826D03*
X003727Y019196D03*
X035925Y019196D03*
X035925Y019826D03*
X035925Y020456D03*
X037605Y020456D03*
X037605Y019826D03*
X037605Y019196D03*
D16*
G36*
X029314Y021085D02*
X028716Y020924D01*
X028670Y021097D01*
X029268Y021258D01*
X029314Y021085D01*
G37*
G36*
X029249Y021327D02*
X028651Y021166D01*
X028605Y021339D01*
X029203Y021500D01*
X029249Y021327D01*
G37*
G36*
X029182Y021578D02*
X028584Y021417D01*
X028538Y021590D01*
X029136Y021751D01*
X029182Y021578D01*
G37*
G36*
X029115Y021829D02*
X028517Y021668D01*
X028471Y021841D01*
X029069Y022002D01*
X029115Y021829D01*
G37*
G36*
X028918Y022563D02*
X028320Y022402D01*
X028274Y022575D01*
X028872Y022736D01*
X028918Y022563D01*
G37*
G36*
X028851Y022815D02*
X028253Y022654D01*
X028207Y022827D01*
X028805Y022988D01*
X028851Y022815D01*
G37*
G36*
X028783Y023066D02*
X028185Y022905D01*
X028139Y023078D01*
X028737Y023239D01*
X028783Y023066D01*
G37*
G36*
X028719Y023307D02*
X028121Y023146D01*
X028075Y023319D01*
X028673Y023480D01*
X028719Y023307D01*
G37*
G36*
X026906Y021496D02*
X026308Y021335D01*
X026262Y021508D01*
X026860Y021669D01*
X026906Y021496D01*
G37*
G36*
X026970Y021255D02*
X026372Y021094D01*
X026326Y021267D01*
X026924Y021428D01*
X026970Y021255D01*
G37*
G36*
X027038Y021004D02*
X026440Y020843D01*
X026394Y021016D01*
X026992Y021177D01*
X027038Y021004D01*
G37*
G36*
X027105Y020752D02*
X026507Y020591D01*
X026461Y020764D01*
X027059Y020925D01*
X027105Y020752D01*
G37*
G36*
X027169Y020511D02*
X026571Y020350D01*
X026525Y020523D01*
X027123Y020684D01*
X027169Y020511D01*
G37*
G36*
X026838Y021747D02*
X026240Y021586D01*
X026194Y021759D01*
X026792Y021920D01*
X026838Y021747D01*
G37*
G36*
X026773Y021989D02*
X026175Y021828D01*
X026129Y022001D01*
X026727Y022162D01*
X026773Y021989D01*
G37*
G36*
X026706Y022240D02*
X026108Y022079D01*
X026062Y022252D01*
X026660Y022413D01*
X026706Y022240D01*
G37*
G36*
X026639Y022491D02*
X026041Y022330D01*
X025995Y022503D01*
X026593Y022664D01*
X026639Y022491D01*
G37*
G36*
X026574Y022733D02*
X025976Y022572D01*
X025930Y022745D01*
X026528Y022906D01*
X026574Y022733D01*
G37*
G36*
X022906Y026528D02*
X022745Y025930D01*
X022572Y025976D01*
X022733Y026574D01*
X022906Y026528D01*
G37*
G36*
X022664Y026593D02*
X022503Y025995D01*
X022330Y026041D01*
X022491Y026639D01*
X022664Y026593D01*
G37*
G36*
X022413Y026660D02*
X022252Y026062D01*
X022079Y026108D01*
X022240Y026706D01*
X022413Y026660D01*
G37*
G36*
X022162Y026727D02*
X022001Y026129D01*
X021828Y026175D01*
X021989Y026773D01*
X022162Y026727D01*
G37*
G36*
X021920Y026792D02*
X021759Y026194D01*
X021586Y026240D01*
X021747Y026838D01*
X021920Y026792D01*
G37*
G36*
X021669Y026859D02*
X021508Y026261D01*
X021335Y026307D01*
X021496Y026905D01*
X021669Y026859D01*
G37*
G36*
X021428Y026924D02*
X021267Y026326D01*
X021094Y026372D01*
X021255Y026970D01*
X021428Y026924D01*
G37*
G36*
X021177Y026991D02*
X021016Y026393D01*
X020843Y026439D01*
X021004Y027037D01*
X021177Y026991D01*
G37*
G36*
X020925Y027059D02*
X020764Y026461D01*
X020591Y026507D01*
X020752Y027105D01*
X020925Y027059D01*
G37*
G36*
X020684Y027123D02*
X020523Y026525D01*
X020350Y026571D01*
X020511Y027169D01*
X020684Y027123D01*
G37*
G36*
X021500Y029203D02*
X021339Y028605D01*
X021166Y028651D01*
X021327Y029249D01*
X021500Y029203D01*
G37*
G36*
X021751Y029136D02*
X021590Y028538D01*
X021417Y028584D01*
X021578Y029182D01*
X021751Y029136D01*
G37*
G36*
X022002Y029069D02*
X021841Y028471D01*
X021668Y028517D01*
X021829Y029115D01*
X022002Y029069D01*
G37*
G36*
X022736Y028872D02*
X022575Y028274D01*
X022402Y028320D01*
X022563Y028918D01*
X022736Y028872D01*
G37*
G36*
X022988Y028805D02*
X022827Y028207D01*
X022654Y028253D01*
X022815Y028851D01*
X022988Y028805D01*
G37*
G36*
X023239Y028737D02*
X023078Y028139D01*
X022905Y028185D01*
X023066Y028783D01*
X023239Y028737D01*
G37*
G36*
X023480Y028673D02*
X023319Y028075D01*
X023146Y028121D01*
X023307Y028719D01*
X023480Y028673D01*
G37*
G36*
X021259Y029268D02*
X021098Y028670D01*
X020925Y028716D01*
X021086Y029314D01*
X021259Y029268D01*
G37*
G36*
X015562Y025843D02*
X015999Y025406D01*
X015872Y025279D01*
X015435Y025716D01*
X015562Y025843D01*
G37*
G36*
X015385Y025667D02*
X015822Y025230D01*
X015695Y025103D01*
X015258Y025540D01*
X015385Y025667D01*
G37*
G36*
X015202Y025483D02*
X015639Y025046D01*
X015512Y024919D01*
X015075Y025356D01*
X015202Y025483D01*
G37*
G36*
X015018Y025299D02*
X015455Y024862D01*
X015328Y024735D01*
X014891Y025172D01*
X015018Y025299D01*
G37*
G36*
X014841Y025122D02*
X015278Y024685D01*
X015151Y024558D01*
X014714Y024995D01*
X014841Y025122D01*
G37*
G36*
X014657Y024938D02*
X015094Y024501D01*
X014967Y024374D01*
X014530Y024811D01*
X014657Y024938D01*
G37*
G36*
X014480Y024761D02*
X014917Y024324D01*
X014790Y024197D01*
X014353Y024634D01*
X014480Y024761D01*
G37*
G36*
X014297Y024578D02*
X014734Y024141D01*
X014607Y024014D01*
X014170Y024451D01*
X014297Y024578D01*
G37*
G36*
X014113Y024394D02*
X014550Y023957D01*
X014423Y023830D01*
X013986Y024267D01*
X014113Y024394D01*
G37*
G36*
X013936Y024217D02*
X014373Y023780D01*
X014246Y023653D01*
X013809Y024090D01*
X013936Y024217D01*
G37*
G36*
X012543Y025964D02*
X012980Y025527D01*
X012853Y025400D01*
X012416Y025837D01*
X012543Y025964D01*
G37*
G36*
X012727Y026147D02*
X013164Y025710D01*
X013037Y025583D01*
X012600Y026020D01*
X012727Y026147D01*
G37*
G36*
X012911Y026331D02*
X013348Y025894D01*
X013221Y025767D01*
X012784Y026204D01*
X012911Y026331D01*
G37*
G36*
X013448Y026869D02*
X013885Y026432D01*
X013758Y026305D01*
X013321Y026742D01*
X013448Y026869D01*
G37*
G36*
X013632Y027053D02*
X014069Y026616D01*
X013942Y026489D01*
X013505Y026926D01*
X013632Y027053D01*
G37*
G36*
X013816Y027236D02*
X014253Y026799D01*
X014126Y026672D01*
X013689Y027109D01*
X013816Y027236D01*
G37*
G36*
X013992Y027413D02*
X014429Y026976D01*
X014302Y026849D01*
X013865Y027286D01*
X013992Y027413D01*
G37*
G36*
X012366Y025787D02*
X012803Y025350D01*
X012676Y025223D01*
X012239Y025660D01*
X012366Y025787D01*
G37*
G36*
X012483Y019141D02*
X013081Y019302D01*
X013127Y019129D01*
X012529Y018968D01*
X012483Y019141D01*
G37*
G36*
X012548Y018900D02*
X013146Y019061D01*
X013192Y018888D01*
X012594Y018727D01*
X012548Y018900D01*
G37*
G36*
X012615Y018649D02*
X013213Y018810D01*
X013259Y018637D01*
X012661Y018476D01*
X012615Y018649D01*
G37*
G36*
X012682Y018398D02*
X013280Y018559D01*
X013326Y018386D01*
X012728Y018225D01*
X012682Y018398D01*
G37*
G36*
X012747Y018156D02*
X013345Y018317D01*
X013391Y018144D01*
X012793Y017983D01*
X012747Y018156D01*
G37*
G36*
X012814Y017905D02*
X013412Y018066D01*
X013458Y017893D01*
X012860Y017732D01*
X012814Y017905D01*
G37*
G36*
X012879Y017663D02*
X013477Y017824D01*
X013523Y017651D01*
X012925Y017490D01*
X012879Y017663D01*
G37*
G36*
X012946Y017412D02*
X013544Y017573D01*
X013590Y017400D01*
X012992Y017239D01*
X012946Y017412D01*
G37*
G36*
X013013Y017161D02*
X013611Y017322D01*
X013657Y017149D01*
X013059Y016988D01*
X013013Y017161D01*
G37*
G36*
X013078Y016920D02*
X013676Y017081D01*
X013722Y016908D01*
X013124Y016747D01*
X013078Y016920D01*
G37*
G36*
X010934Y016345D02*
X011532Y016506D01*
X011578Y016333D01*
X010980Y016172D01*
X010934Y016345D01*
G37*
G36*
X010869Y016587D02*
X011467Y016748D01*
X011513Y016575D01*
X010915Y016414D01*
X010869Y016587D01*
G37*
G36*
X010802Y016838D02*
X011400Y016999D01*
X011446Y016826D01*
X010848Y016665D01*
X010802Y016838D01*
G37*
G36*
X010734Y017089D02*
X011332Y017250D01*
X011378Y017077D01*
X010780Y016916D01*
X010734Y017089D01*
G37*
G36*
X010538Y017823D02*
X011136Y017984D01*
X011182Y017811D01*
X010584Y017650D01*
X010538Y017823D01*
G37*
G36*
X010470Y018074D02*
X011068Y018235D01*
X011114Y018062D01*
X010516Y017901D01*
X010470Y018074D01*
G37*
G36*
X010403Y018325D02*
X011001Y018486D01*
X011047Y018313D01*
X010449Y018152D01*
X010403Y018325D01*
G37*
G36*
X010338Y018567D02*
X010936Y018728D01*
X010982Y018555D01*
X010384Y018394D01*
X010338Y018567D01*
G37*
G36*
X016747Y013124D02*
X016908Y013722D01*
X017081Y013676D01*
X016920Y013078D01*
X016747Y013124D01*
G37*
G36*
X016988Y013059D02*
X017149Y013657D01*
X017322Y013611D01*
X017161Y013013D01*
X016988Y013059D01*
G37*
G36*
X017239Y012992D02*
X017400Y013590D01*
X017573Y013544D01*
X017412Y012946D01*
X017239Y012992D01*
G37*
G36*
X017491Y012925D02*
X017652Y013523D01*
X017825Y013477D01*
X017664Y012879D01*
X017491Y012925D01*
G37*
G36*
X017732Y012860D02*
X017893Y013458D01*
X018066Y013412D01*
X017905Y012814D01*
X017732Y012860D01*
G37*
G36*
X017983Y012793D02*
X018144Y013391D01*
X018317Y013345D01*
X018156Y012747D01*
X017983Y012793D01*
G37*
G36*
X018225Y012728D02*
X018386Y013326D01*
X018559Y013280D01*
X018398Y012682D01*
X018225Y012728D01*
G37*
G36*
X018476Y012661D02*
X018637Y013259D01*
X018810Y013213D01*
X018649Y012615D01*
X018476Y012661D01*
G37*
G36*
X018727Y012593D02*
X018888Y013191D01*
X019061Y013145D01*
X018900Y012547D01*
X018727Y012593D01*
G37*
G36*
X018968Y012529D02*
X019129Y013127D01*
X019302Y013081D01*
X019141Y012483D01*
X018968Y012529D01*
G37*
G36*
X018152Y010449D02*
X018313Y011047D01*
X018486Y011001D01*
X018325Y010403D01*
X018152Y010449D01*
G37*
G36*
X017901Y010516D02*
X018062Y011114D01*
X018235Y011068D01*
X018074Y010470D01*
X017901Y010516D01*
G37*
G36*
X017650Y010584D02*
X017811Y011182D01*
X017984Y011136D01*
X017823Y010538D01*
X017650Y010584D01*
G37*
G36*
X016916Y010780D02*
X017077Y011378D01*
X017250Y011332D01*
X017089Y010734D01*
X016916Y010780D01*
G37*
G36*
X016665Y010848D02*
X016826Y011446D01*
X016999Y011400D01*
X016838Y010802D01*
X016665Y010848D01*
G37*
G36*
X016414Y010915D02*
X016575Y011513D01*
X016748Y011467D01*
X016587Y010869D01*
X016414Y010915D01*
G37*
G36*
X016172Y010980D02*
X016333Y011578D01*
X016506Y011532D01*
X016345Y010934D01*
X016172Y010980D01*
G37*
G36*
X018394Y010384D02*
X018555Y010982D01*
X018728Y010936D01*
X018567Y010338D01*
X018394Y010384D01*
G37*
G36*
X024090Y013809D02*
X023653Y014246D01*
X023780Y014373D01*
X024217Y013936D01*
X024090Y013809D01*
G37*
G36*
X024267Y013986D02*
X023830Y014423D01*
X023957Y014550D01*
X024394Y014113D01*
X024267Y013986D01*
G37*
G36*
X024451Y014169D02*
X024014Y014606D01*
X024141Y014733D01*
X024578Y014296D01*
X024451Y014169D01*
G37*
G36*
X024635Y014353D02*
X024198Y014790D01*
X024325Y014917D01*
X024762Y014480D01*
X024635Y014353D01*
G37*
G36*
X024811Y014530D02*
X024374Y014967D01*
X024501Y015094D01*
X024938Y014657D01*
X024811Y014530D01*
G37*
G36*
X024995Y014714D02*
X024558Y015151D01*
X024685Y015278D01*
X025122Y014841D01*
X024995Y014714D01*
G37*
G36*
X025172Y014891D02*
X024735Y015328D01*
X024862Y015455D01*
X025299Y015018D01*
X025172Y014891D01*
G37*
G36*
X025356Y015075D02*
X024919Y015512D01*
X025046Y015639D01*
X025483Y015202D01*
X025356Y015075D01*
G37*
G36*
X025540Y015258D02*
X025103Y015695D01*
X025230Y015822D01*
X025667Y015385D01*
X025540Y015258D01*
G37*
G36*
X025716Y015435D02*
X025279Y015872D01*
X025406Y015999D01*
X025843Y015562D01*
X025716Y015435D01*
G37*
G36*
X027109Y013689D02*
X026672Y014126D01*
X026799Y014253D01*
X027236Y013816D01*
X027109Y013689D01*
G37*
G36*
X026926Y013505D02*
X026489Y013942D01*
X026616Y014069D01*
X027053Y013632D01*
X026926Y013505D01*
G37*
G36*
X026742Y013321D02*
X026305Y013758D01*
X026432Y013885D01*
X026869Y013448D01*
X026742Y013321D01*
G37*
G36*
X026204Y012784D02*
X025767Y013221D01*
X025894Y013348D01*
X026331Y012911D01*
X026204Y012784D01*
G37*
G36*
X026020Y012600D02*
X025583Y013037D01*
X025710Y013164D01*
X026147Y012727D01*
X026020Y012600D01*
G37*
G36*
X025837Y012416D02*
X025400Y012853D01*
X025527Y012980D01*
X025964Y012543D01*
X025837Y012416D01*
G37*
G36*
X025660Y012239D02*
X025223Y012676D01*
X025350Y012803D01*
X025787Y012366D01*
X025660Y012239D01*
G37*
G36*
X027286Y013865D02*
X026849Y014302D01*
X026976Y014429D01*
X027413Y013992D01*
X027286Y013865D01*
G37*
D17*
X019826Y006440D03*
X019826Y005653D03*
X018056Y003384D03*
X018056Y002596D03*
X021596Y002596D03*
X021596Y003384D03*
X019826Y033212D03*
X019826Y033999D03*
X018056Y036269D03*
X018056Y037056D03*
X021596Y037056D03*
X021596Y036269D03*
D18*
G36*
X026888Y035007D02*
X026652Y034600D01*
X026142Y034895D01*
X026378Y035302D01*
X026888Y035007D01*
G37*
G36*
X027282Y035688D02*
X027046Y035281D01*
X026536Y035576D01*
X026772Y035983D01*
X027282Y035688D01*
G37*
G36*
X029953Y033237D02*
X029717Y032830D01*
X029207Y033125D01*
X029443Y033532D01*
X029953Y033237D01*
G37*
G36*
X030347Y033919D02*
X030111Y033512D01*
X029601Y033807D01*
X029837Y034214D01*
X030347Y033919D01*
G37*
G36*
X027286Y032157D02*
X027050Y031750D01*
X026540Y032045D01*
X026776Y032452D01*
X027286Y032157D01*
G37*
G36*
X026892Y031475D02*
X026656Y031068D01*
X026146Y031363D01*
X026382Y031770D01*
X026892Y031475D01*
G37*
G36*
X031770Y026382D02*
X031363Y026146D01*
X031068Y026656D01*
X031475Y026892D01*
X031770Y026382D01*
G37*
G36*
X032452Y026776D02*
X032045Y026540D01*
X031750Y027050D01*
X032157Y027286D01*
X032452Y026776D01*
G37*
G36*
X035302Y026378D02*
X034895Y026142D01*
X034600Y026652D01*
X035007Y026888D01*
X035302Y026378D01*
G37*
G36*
X035983Y026772D02*
X035576Y026536D01*
X035281Y027046D01*
X035688Y027282D01*
X035983Y026772D01*
G37*
G36*
X033532Y029443D02*
X033125Y029207D01*
X032830Y029717D01*
X033237Y029953D01*
X033532Y029443D01*
G37*
G36*
X034214Y029837D02*
X033807Y029601D01*
X033512Y030111D01*
X033919Y030347D01*
X034214Y029837D01*
G37*
X036269Y021596D03*
X037056Y021596D03*
X033999Y019826D03*
X033212Y019826D03*
X036269Y018056D03*
X037056Y018056D03*
G36*
X035007Y012764D02*
X034600Y013000D01*
X034895Y013510D01*
X035302Y013274D01*
X035007Y012764D01*
G37*
G36*
X035688Y012370D02*
X035281Y012606D01*
X035576Y013116D01*
X035983Y012880D01*
X035688Y012370D01*
G37*
G36*
X033237Y009699D02*
X032830Y009935D01*
X033125Y010445D01*
X033532Y010209D01*
X033237Y009699D01*
G37*
G36*
X033919Y009306D02*
X033512Y009542D01*
X033807Y010052D01*
X034214Y009816D01*
X033919Y009306D01*
G37*
G36*
X032157Y012367D02*
X031750Y012603D01*
X032045Y013113D01*
X032452Y012877D01*
X032157Y012367D01*
G37*
G36*
X031475Y012760D02*
X031068Y012996D01*
X031363Y013506D01*
X031770Y013270D01*
X031475Y012760D01*
G37*
X027175Y017661D03*
X026387Y017661D03*
X026387Y018541D03*
X027175Y018541D03*
X019236Y025732D03*
X018448Y025732D03*
G36*
X013270Y031770D02*
X013506Y031363D01*
X012996Y031068D01*
X012760Y031475D01*
X013270Y031770D01*
G37*
G36*
X012877Y032452D02*
X013113Y032045D01*
X012603Y031750D01*
X012367Y032157D01*
X012877Y032452D01*
G37*
G36*
X013274Y035302D02*
X013510Y034895D01*
X013000Y034600D01*
X012764Y035007D01*
X013274Y035302D01*
G37*
G36*
X012880Y035983D02*
X013116Y035576D01*
X012606Y035281D01*
X012370Y035688D01*
X012880Y035983D01*
G37*
G36*
X010209Y033532D02*
X010445Y033125D01*
X009935Y032830D01*
X009699Y033237D01*
X010209Y033532D01*
G37*
G36*
X009816Y034214D02*
X010052Y033807D01*
X009542Y033512D01*
X009306Y033919D01*
X009816Y034214D01*
G37*
G36*
X005733Y030347D02*
X006140Y030111D01*
X005845Y029601D01*
X005438Y029837D01*
X005733Y030347D01*
G37*
G36*
X006415Y029953D02*
X006822Y029717D01*
X006527Y029207D01*
X006120Y029443D01*
X006415Y029953D01*
G37*
G36*
X007496Y027286D02*
X007903Y027050D01*
X007608Y026540D01*
X007201Y026776D01*
X007496Y027286D01*
G37*
G36*
X008178Y026892D02*
X008585Y026656D01*
X008290Y026146D01*
X007883Y026382D01*
X008178Y026892D01*
G37*
G36*
X004646Y026888D02*
X005053Y026652D01*
X004758Y026142D01*
X004351Y026378D01*
X004646Y026888D01*
G37*
G36*
X003964Y027282D02*
X004371Y027046D01*
X004076Y026536D01*
X003669Y026772D01*
X003964Y027282D01*
G37*
X003384Y021596D03*
X002596Y021596D03*
X005653Y019826D03*
X006440Y019826D03*
X003384Y018056D03*
X002596Y018056D03*
G36*
X004351Y013274D02*
X004758Y013510D01*
X005053Y013000D01*
X004646Y012764D01*
X004351Y013274D01*
G37*
G36*
X003669Y012880D02*
X004076Y013116D01*
X004371Y012606D01*
X003964Y012370D01*
X003669Y012880D01*
G37*
G36*
X006120Y010209D02*
X006527Y010445D01*
X006822Y009935D01*
X006415Y009699D01*
X006120Y010209D01*
G37*
G36*
X005438Y009816D02*
X005845Y010052D01*
X006140Y009542D01*
X005733Y009306D01*
X005438Y009816D01*
G37*
G36*
X007201Y012877D02*
X007608Y013113D01*
X007903Y012603D01*
X007496Y012367D01*
X007201Y012877D01*
G37*
G36*
X007883Y013270D02*
X008290Y013506D01*
X008585Y012996D01*
X008178Y012760D01*
X007883Y013270D01*
G37*
G36*
X012760Y008178D02*
X012996Y008585D01*
X013506Y008290D01*
X013270Y007883D01*
X012760Y008178D01*
G37*
G36*
X012367Y007496D02*
X012603Y007903D01*
X013113Y007608D01*
X012877Y007201D01*
X012367Y007496D01*
G37*
G36*
X009699Y006415D02*
X009935Y006822D01*
X010445Y006527D01*
X010209Y006120D01*
X009699Y006415D01*
G37*
G36*
X009306Y005733D02*
X009542Y006140D01*
X010052Y005845D01*
X009816Y005438D01*
X009306Y005733D01*
G37*
G36*
X012370Y003964D02*
X012606Y004371D01*
X013116Y004076D01*
X012880Y003669D01*
X012370Y003964D01*
G37*
G36*
X012764Y004646D02*
X013000Y005053D01*
X013510Y004758D01*
X013274Y004351D01*
X012764Y004646D01*
G37*
G36*
X026378Y004351D02*
X026142Y004758D01*
X026652Y005053D01*
X026888Y004646D01*
X026378Y004351D01*
G37*
G36*
X026772Y003669D02*
X026536Y004076D01*
X027046Y004371D01*
X027282Y003964D01*
X026772Y003669D01*
G37*
G36*
X029443Y006120D02*
X029207Y006527D01*
X029717Y006822D01*
X029953Y006415D01*
X029443Y006120D01*
G37*
G36*
X029837Y005438D02*
X029601Y005845D01*
X030111Y006140D01*
X030347Y005733D01*
X029837Y005438D01*
G37*
G36*
X026776Y007201D02*
X026540Y007608D01*
X027050Y007903D01*
X027286Y007496D01*
X026776Y007201D01*
G37*
G36*
X026382Y007883D02*
X026146Y008290D01*
X026656Y008585D01*
X026892Y008178D01*
X026382Y007883D01*
G37*
D19*
X023734Y021942D03*
X023478Y021942D03*
X023222Y021942D03*
X022966Y021942D03*
X022710Y021942D03*
X022454Y021942D03*
X022198Y021942D03*
X021942Y021942D03*
X021686Y021942D03*
X021430Y021942D03*
X021430Y024797D03*
X021686Y024797D03*
X021942Y024797D03*
X022198Y024797D03*
X022454Y024797D03*
X022710Y024797D03*
X022966Y024797D03*
X023222Y024797D03*
X023478Y024797D03*
X023734Y024797D03*
D20*
X023791Y019593D03*
X023291Y019593D03*
X022791Y019593D03*
X024291Y019593D03*
X024291Y017533D03*
X023791Y017533D03*
X023291Y017533D03*
X022791Y017533D03*
D21*
X021987Y013069D03*
D22*
X021487Y015432D03*
X022487Y015432D03*
D23*
X016760Y020681D03*
D24*
X013532Y020681D03*
X019988Y020681D03*
D25*
X021716Y020789D03*
X021716Y020289D03*
X021716Y019789D03*
X021716Y019289D03*
X021716Y018789D03*
X021716Y018289D03*
X021716Y017789D03*
X021716Y017289D03*
X025416Y017289D03*
X025416Y017789D03*
X025416Y018289D03*
X025416Y018789D03*
X025416Y019289D03*
X025416Y019789D03*
X025416Y020289D03*
X025416Y020789D03*
D26*
X027581Y016915D03*
X027581Y016167D03*
X011641Y021517D03*
X011641Y022265D03*
D27*
X018468Y024551D03*
X019216Y024551D03*
D28*
G36*
X025127Y027275D02*
X025405Y026944D01*
X025193Y026767D01*
X024915Y027098D01*
X025127Y027275D01*
G37*
G36*
X026898Y025164D02*
X027176Y024833D01*
X026964Y024656D01*
X026686Y024987D01*
X026898Y025164D01*
G37*
D29*
X018758Y028601D02*
X018138Y028601D01*
X018758Y028601D02*
X018758Y027587D01*
X018138Y027587D01*
X018138Y028601D01*
X018138Y027793D02*
X018758Y027793D01*
X018758Y027999D02*
X018138Y027999D01*
X018138Y028205D02*
X018758Y028205D01*
X018758Y028411D02*
X018138Y028411D01*
X017380Y028601D02*
X016760Y028601D01*
X017380Y028601D02*
X017380Y027587D01*
X016760Y027587D01*
X016760Y028601D01*
X016760Y027793D02*
X017380Y027793D01*
X017380Y027999D02*
X016760Y027999D01*
X016760Y028205D02*
X017380Y028205D01*
X017380Y028411D02*
X016760Y028411D01*
X016631Y025688D02*
X017251Y025688D01*
X017251Y024674D01*
X016631Y024674D01*
X016631Y025688D01*
X016631Y024880D02*
X017251Y024880D01*
X017251Y025086D02*
X016631Y025086D01*
X016631Y025292D02*
X017251Y025292D01*
X017251Y025498D02*
X016631Y025498D01*
X019751Y015368D02*
X020371Y015368D01*
X020371Y014354D01*
X019751Y014354D01*
X019751Y015368D01*
X019751Y014560D02*
X020371Y014560D01*
X020371Y014766D02*
X019751Y014766D01*
X019751Y014972D02*
X020371Y014972D01*
X020371Y015178D02*
X019751Y015178D01*
X014371Y013234D02*
X013751Y013234D01*
X013751Y014248D01*
X014371Y014248D01*
X014371Y013234D01*
X014371Y013440D02*
X013751Y013440D01*
X013751Y013646D02*
X014371Y013646D01*
X014371Y013852D02*
X013751Y013852D01*
X013751Y014058D02*
X014371Y014058D01*
M02*
