G75*
G70*
%OFA0B0*%
%FSLAX24Y24*%
%IPPOS*%
%LPD*%
%AMOC8*
5,1,8,0,0,1.08239X$1,22.5*
%
%ADD10C,0.4051*%
%ADD11C,0.0679*%
%ADD12C,0.0000*%
%ADD13R,0.0394X0.0787*%
%ADD14R,0.0787X0.0394*%
%ADD15R,0.0580X0.0140*%
%ADD16R,0.0060X0.0060*%
%ADD17R,0.0551X0.0433*%
%ADD18R,0.0433X0.0551*%
%ADD19R,0.0157X0.0591*%
%ADD20R,0.0240X0.0870*%
%ADD21R,0.0984X0.2362*%
%ADD22R,0.0394X0.0984*%
%ADD23R,0.1535X0.1535*%
%ADD24R,0.1260X0.1260*%
%ADD25R,0.0780X0.0210*%
%ADD26R,0.0591X0.0512*%
%ADD27R,0.0512X0.0591*%
%ADD28R,0.0394X0.0236*%
%ADD29C,0.0197*%
%ADD30C,0.0240*%
%ADD31C,0.0080*%
%ADD32C,0.0120*%
%ADD33OC8,0.0240*%
%ADD34C,0.0413*%
%ADD35C,0.0160*%
D10*
X016781Y020701D03*
D11*
X025181Y027021D03*
X026941Y024861D03*
D12*
X027661Y025741D02*
X031901Y028221D01*
X033101Y026141D02*
X028861Y023661D01*
X029581Y021021D02*
X034461Y021021D01*
X034523Y021130D01*
X034589Y021237D01*
X034661Y021340D01*
X034737Y021440D01*
X034818Y021535D01*
X034904Y021627D01*
X034994Y021715D01*
X035089Y021797D01*
X035187Y021876D01*
X035289Y021949D01*
X035395Y022017D01*
X035503Y022080D01*
X035615Y022138D01*
X035729Y022190D01*
X035846Y022236D01*
X035964Y022277D01*
X036085Y022312D01*
X036207Y022341D01*
X036331Y022364D01*
X036455Y022381D01*
X036580Y022392D01*
X036706Y022397D01*
X036831Y022395D01*
X036957Y022388D01*
X037081Y022374D01*
X037205Y022355D01*
X037328Y022329D01*
X037450Y022298D01*
X037570Y022260D01*
X037688Y022217D01*
X037803Y022168D01*
X037916Y022113D01*
X038027Y022053D01*
X038134Y021988D01*
X038238Y021917D01*
X038338Y021842D01*
X038435Y021762D01*
X038527Y021677D01*
X038616Y021588D01*
X038700Y021494D01*
X038779Y021397D01*
X038853Y021296D01*
X038923Y021191D01*
X038987Y021083D01*
X039046Y020972D01*
X039099Y020858D01*
X039147Y020742D01*
X039189Y020624D01*
X039225Y020504D01*
X039255Y020382D01*
X039280Y020258D01*
X039298Y020134D01*
X039310Y020009D01*
X039316Y019884D01*
X039316Y019758D01*
X039310Y019633D01*
X039298Y019508D01*
X039280Y019384D01*
X039255Y019260D01*
X039225Y019138D01*
X039189Y019018D01*
X039147Y018900D01*
X039099Y018784D01*
X039046Y018670D01*
X038987Y018559D01*
X038923Y018451D01*
X038853Y018346D01*
X038779Y018245D01*
X038700Y018148D01*
X038616Y018054D01*
X038527Y017965D01*
X038435Y017880D01*
X038338Y017800D01*
X038238Y017725D01*
X038134Y017654D01*
X038027Y017589D01*
X037916Y017529D01*
X037803Y017474D01*
X037688Y017425D01*
X037570Y017382D01*
X037450Y017344D01*
X037328Y017313D01*
X037205Y017287D01*
X037081Y017268D01*
X036957Y017254D01*
X036831Y017247D01*
X036706Y017245D01*
X036580Y017250D01*
X036455Y017261D01*
X036331Y017278D01*
X036207Y017301D01*
X036085Y017330D01*
X035964Y017365D01*
X035846Y017406D01*
X035729Y017452D01*
X035615Y017504D01*
X035503Y017562D01*
X035395Y017625D01*
X035289Y017693D01*
X035187Y017766D01*
X035089Y017845D01*
X034994Y017927D01*
X034904Y018015D01*
X034818Y018107D01*
X034737Y018202D01*
X034661Y018302D01*
X034589Y018405D01*
X034523Y018512D01*
X034461Y018621D01*
X029581Y018621D01*
X028861Y015981D02*
X033101Y013581D01*
X031901Y011501D02*
X027661Y013901D01*
X025741Y011981D02*
X028221Y007741D01*
X026141Y006541D02*
X023661Y010781D01*
X021021Y010061D02*
X021021Y005181D01*
X021130Y005119D01*
X021237Y005053D01*
X021340Y004981D01*
X021440Y004905D01*
X021535Y004824D01*
X021627Y004738D01*
X021715Y004648D01*
X021797Y004553D01*
X021876Y004455D01*
X021949Y004353D01*
X022017Y004247D01*
X022080Y004139D01*
X022138Y004027D01*
X022190Y003913D01*
X022236Y003796D01*
X022277Y003678D01*
X022312Y003557D01*
X022341Y003435D01*
X022364Y003311D01*
X022381Y003187D01*
X022392Y003062D01*
X022397Y002936D01*
X022395Y002811D01*
X022388Y002685D01*
X022374Y002561D01*
X022355Y002437D01*
X022329Y002314D01*
X022298Y002192D01*
X022260Y002072D01*
X022217Y001954D01*
X022168Y001839D01*
X022113Y001726D01*
X022053Y001615D01*
X021988Y001508D01*
X021917Y001404D01*
X021842Y001304D01*
X021762Y001207D01*
X021677Y001115D01*
X021588Y001026D01*
X021494Y000942D01*
X021397Y000863D01*
X021296Y000789D01*
X021191Y000719D01*
X021083Y000655D01*
X020972Y000596D01*
X020858Y000543D01*
X020742Y000495D01*
X020624Y000453D01*
X020504Y000417D01*
X020382Y000387D01*
X020258Y000362D01*
X020134Y000344D01*
X020009Y000332D01*
X019884Y000326D01*
X019758Y000326D01*
X019633Y000332D01*
X019508Y000344D01*
X019384Y000362D01*
X019260Y000387D01*
X019138Y000417D01*
X019018Y000453D01*
X018900Y000495D01*
X018784Y000543D01*
X018670Y000596D01*
X018559Y000655D01*
X018451Y000719D01*
X018346Y000789D01*
X018245Y000863D01*
X018148Y000942D01*
X018054Y001026D01*
X017965Y001115D01*
X017880Y001207D01*
X017800Y001304D01*
X017725Y001404D01*
X017654Y001508D01*
X017589Y001615D01*
X017529Y001726D01*
X017474Y001839D01*
X017425Y001954D01*
X017382Y002072D01*
X017344Y002192D01*
X017313Y002314D01*
X017287Y002437D01*
X017268Y002561D01*
X017254Y002685D01*
X017247Y002811D01*
X017245Y002936D01*
X017250Y003062D01*
X017261Y003187D01*
X017278Y003311D01*
X017301Y003435D01*
X017330Y003557D01*
X017365Y003678D01*
X017406Y003796D01*
X017452Y003913D01*
X017504Y004027D01*
X017562Y004139D01*
X017625Y004247D01*
X017693Y004353D01*
X017766Y004455D01*
X017845Y004553D01*
X017927Y004648D01*
X018015Y004738D01*
X018107Y004824D01*
X018202Y004905D01*
X018302Y004981D01*
X018405Y005053D01*
X018512Y005119D01*
X018621Y005181D01*
X018621Y010061D01*
X016061Y010781D02*
X013581Y006541D01*
X011501Y007741D02*
X013901Y011981D01*
X011981Y013901D02*
X007741Y011501D01*
X006541Y013581D02*
X010701Y015981D01*
X010061Y018621D02*
X005181Y018621D01*
X005119Y018512D01*
X005053Y018405D01*
X004981Y018302D01*
X004905Y018202D01*
X004824Y018107D01*
X004738Y018015D01*
X004648Y017927D01*
X004553Y017845D01*
X004455Y017766D01*
X004353Y017693D01*
X004247Y017625D01*
X004139Y017562D01*
X004027Y017504D01*
X003913Y017452D01*
X003796Y017406D01*
X003678Y017365D01*
X003557Y017330D01*
X003435Y017301D01*
X003311Y017278D01*
X003187Y017261D01*
X003062Y017250D01*
X002936Y017245D01*
X002811Y017247D01*
X002685Y017254D01*
X002561Y017268D01*
X002437Y017287D01*
X002314Y017313D01*
X002192Y017344D01*
X002072Y017382D01*
X001954Y017425D01*
X001839Y017474D01*
X001726Y017529D01*
X001615Y017589D01*
X001508Y017654D01*
X001404Y017725D01*
X001304Y017800D01*
X001207Y017880D01*
X001115Y017965D01*
X001026Y018054D01*
X000942Y018148D01*
X000863Y018245D01*
X000789Y018346D01*
X000719Y018451D01*
X000655Y018559D01*
X000596Y018670D01*
X000543Y018784D01*
X000495Y018900D01*
X000453Y019018D01*
X000417Y019138D01*
X000387Y019260D01*
X000362Y019384D01*
X000344Y019508D01*
X000332Y019633D01*
X000326Y019758D01*
X000326Y019884D01*
X000332Y020009D01*
X000344Y020134D01*
X000362Y020258D01*
X000387Y020382D01*
X000417Y020504D01*
X000453Y020624D01*
X000495Y020742D01*
X000543Y020858D01*
X000596Y020972D01*
X000655Y021083D01*
X000719Y021191D01*
X000789Y021296D01*
X000863Y021397D01*
X000942Y021494D01*
X001026Y021588D01*
X001115Y021677D01*
X001207Y021762D01*
X001304Y021842D01*
X001404Y021917D01*
X001508Y021988D01*
X001615Y022053D01*
X001726Y022113D01*
X001839Y022168D01*
X001954Y022217D01*
X002072Y022260D01*
X002192Y022298D01*
X002314Y022329D01*
X002437Y022355D01*
X002561Y022374D01*
X002685Y022388D01*
X002811Y022395D01*
X002936Y022397D01*
X003062Y022392D01*
X003187Y022381D01*
X003311Y022364D01*
X003435Y022341D01*
X003557Y022312D01*
X003678Y022277D01*
X003796Y022236D01*
X003913Y022190D01*
X004027Y022138D01*
X004139Y022080D01*
X004247Y022017D01*
X004353Y021949D01*
X004455Y021876D01*
X004553Y021797D01*
X004648Y021715D01*
X004738Y021627D01*
X004824Y021535D01*
X004905Y021440D01*
X004981Y021340D01*
X005053Y021237D01*
X005119Y021130D01*
X005181Y021021D01*
X010061Y021021D01*
X010781Y023661D02*
X006541Y026061D01*
X007741Y028141D02*
X011981Y025741D01*
X013901Y027661D02*
X011421Y031901D01*
X013501Y033101D02*
X015981Y028861D01*
X018621Y029581D02*
X018621Y034461D01*
X018512Y034523D01*
X018405Y034589D01*
X018302Y034661D01*
X018202Y034737D01*
X018107Y034818D01*
X018015Y034904D01*
X017927Y034994D01*
X017845Y035089D01*
X017766Y035187D01*
X017693Y035289D01*
X017625Y035395D01*
X017562Y035503D01*
X017504Y035615D01*
X017452Y035729D01*
X017406Y035846D01*
X017365Y035964D01*
X017330Y036085D01*
X017301Y036207D01*
X017278Y036331D01*
X017261Y036455D01*
X017250Y036580D01*
X017245Y036706D01*
X017247Y036831D01*
X017254Y036957D01*
X017268Y037081D01*
X017287Y037205D01*
X017313Y037328D01*
X017344Y037450D01*
X017382Y037570D01*
X017425Y037688D01*
X017474Y037803D01*
X017529Y037916D01*
X017589Y038027D01*
X017654Y038134D01*
X017725Y038238D01*
X017800Y038338D01*
X017880Y038435D01*
X017965Y038527D01*
X018054Y038616D01*
X018148Y038700D01*
X018245Y038779D01*
X018346Y038853D01*
X018451Y038923D01*
X018559Y038987D01*
X018670Y039046D01*
X018784Y039099D01*
X018900Y039147D01*
X019018Y039189D01*
X019138Y039225D01*
X019260Y039255D01*
X019384Y039280D01*
X019508Y039298D01*
X019633Y039310D01*
X019758Y039316D01*
X019884Y039316D01*
X020009Y039310D01*
X020134Y039298D01*
X020258Y039280D01*
X020382Y039255D01*
X020504Y039225D01*
X020624Y039189D01*
X020742Y039147D01*
X020858Y039099D01*
X020972Y039046D01*
X021083Y038987D01*
X021191Y038923D01*
X021296Y038853D01*
X021397Y038779D01*
X021494Y038700D01*
X021588Y038616D01*
X021677Y038527D01*
X021762Y038435D01*
X021842Y038338D01*
X021917Y038238D01*
X021988Y038134D01*
X022053Y038027D01*
X022113Y037916D01*
X022168Y037803D01*
X022217Y037688D01*
X022260Y037570D01*
X022298Y037450D01*
X022329Y037328D01*
X022355Y037205D01*
X022374Y037081D01*
X022388Y036957D01*
X022395Y036831D01*
X022397Y036706D01*
X022392Y036580D01*
X022381Y036455D01*
X022364Y036331D01*
X022341Y036207D01*
X022312Y036085D01*
X022277Y035964D01*
X022236Y035846D01*
X022190Y035729D01*
X022138Y035615D01*
X022080Y035503D01*
X022017Y035395D01*
X021949Y035289D01*
X021876Y035187D01*
X021797Y035089D01*
X021715Y034994D01*
X021627Y034904D01*
X021535Y034818D01*
X021440Y034737D01*
X021340Y034661D01*
X021237Y034589D01*
X021130Y034523D01*
X021021Y034461D01*
X021021Y029581D01*
X023661Y028861D02*
X026061Y033181D01*
X028141Y031901D02*
X025741Y027661D01*
X028141Y031901D02*
X028267Y031897D01*
X028393Y031899D01*
X028518Y031908D01*
X028643Y031922D01*
X028766Y031943D01*
X028889Y031970D01*
X029010Y032002D01*
X029130Y032041D01*
X029247Y032085D01*
X029363Y032135D01*
X029475Y032191D01*
X029585Y032252D01*
X029691Y032319D01*
X029795Y032390D01*
X029894Y032467D01*
X029990Y032548D01*
X030082Y032634D01*
X030169Y032724D01*
X030252Y032818D01*
X030330Y032917D01*
X030403Y033019D01*
X030471Y033124D01*
X030534Y033233D01*
X030591Y033345D01*
X030643Y033459D01*
X030689Y033576D01*
X030730Y033695D01*
X030764Y033816D01*
X030793Y033938D01*
X030816Y034061D01*
X030832Y034186D01*
X030843Y034311D01*
X030847Y034437D01*
X030845Y034562D01*
X030837Y034687D01*
X030823Y034812D01*
X030803Y034936D01*
X030776Y035059D01*
X030744Y035180D01*
X030706Y035300D01*
X030662Y035418D01*
X030612Y035533D01*
X030557Y035646D01*
X030496Y035756D01*
X030430Y035862D01*
X030359Y035966D01*
X030283Y036066D01*
X030202Y036162D01*
X030116Y036254D01*
X030026Y036341D01*
X029932Y036424D01*
X029834Y036503D01*
X029732Y036576D01*
X029627Y036645D01*
X029518Y036708D01*
X029407Y036766D01*
X029293Y036818D01*
X029176Y036864D01*
X029057Y036905D01*
X028937Y036940D01*
X028814Y036969D01*
X028691Y036992D01*
X028566Y037009D01*
X028441Y037020D01*
X028316Y037025D01*
X028190Y037023D01*
X028065Y037016D01*
X027940Y037002D01*
X027816Y036982D01*
X027693Y036956D01*
X027572Y036924D01*
X027452Y036887D01*
X027334Y036843D01*
X027219Y036794D01*
X027106Y036739D01*
X026996Y036678D01*
X026889Y036613D01*
X026785Y036542D01*
X026685Y036466D01*
X026589Y036385D01*
X026496Y036300D01*
X026408Y036210D01*
X026325Y036116D01*
X026246Y036019D01*
X026173Y035917D01*
X026104Y035812D01*
X026040Y035704D01*
X025982Y035592D01*
X025929Y035478D01*
X025882Y035362D01*
X025841Y035243D01*
X025806Y035123D01*
X025776Y035001D01*
X025753Y034877D01*
X025736Y034753D01*
X025724Y034628D01*
X025719Y034502D01*
X025720Y034377D01*
X025728Y034251D01*
X025741Y034126D01*
X025760Y034002D01*
X025786Y033879D01*
X025817Y033758D01*
X025855Y033638D01*
X025898Y033520D01*
X025947Y033404D01*
X026001Y033291D01*
X026061Y033181D01*
X031900Y028221D02*
X031898Y028348D01*
X031902Y028475D01*
X031912Y028602D01*
X031928Y028728D01*
X031950Y028853D01*
X031978Y028977D01*
X032013Y029100D01*
X032053Y029220D01*
X032099Y029339D01*
X032151Y029455D01*
X032209Y029568D01*
X032272Y029679D01*
X032340Y029786D01*
X032413Y029890D01*
X032492Y029990D01*
X032575Y030086D01*
X032663Y030178D01*
X032755Y030265D01*
X032851Y030348D01*
X032951Y030426D01*
X033055Y030500D01*
X033163Y030568D01*
X033273Y030630D01*
X033387Y030688D01*
X033503Y030739D01*
X033622Y030785D01*
X033742Y030825D01*
X033865Y030859D01*
X033989Y030887D01*
X034114Y030909D01*
X034240Y030925D01*
X034367Y030935D01*
X034494Y030938D01*
X034621Y030935D01*
X034748Y030926D01*
X034874Y030911D01*
X035000Y030890D01*
X035124Y030862D01*
X035246Y030829D01*
X035367Y030790D01*
X035486Y030744D01*
X035603Y030693D01*
X035716Y030637D01*
X035827Y030575D01*
X035935Y030507D01*
X036039Y030435D01*
X036140Y030357D01*
X036237Y030275D01*
X036330Y030188D01*
X036418Y030096D01*
X036502Y030000D01*
X036580Y029901D01*
X036654Y029797D01*
X036723Y029690D01*
X036787Y029580D01*
X036845Y029467D01*
X036897Y029351D01*
X036944Y029233D01*
X036985Y029113D01*
X037020Y028991D01*
X037049Y028867D01*
X037072Y028742D01*
X037089Y028616D01*
X037099Y028489D01*
X037104Y028362D01*
X037102Y028235D01*
X037094Y028108D01*
X037080Y027982D01*
X037060Y027856D01*
X037033Y027732D01*
X037001Y027609D01*
X036962Y027488D01*
X036918Y027369D01*
X036868Y027252D01*
X036812Y027137D01*
X036751Y027026D01*
X036684Y026918D01*
X036613Y026813D01*
X036536Y026712D01*
X036454Y026614D01*
X036368Y026521D01*
X036277Y026432D01*
X036182Y026347D01*
X036083Y026268D01*
X035980Y026193D01*
X035874Y026123D01*
X035764Y026059D01*
X035651Y026000D01*
X035536Y025947D01*
X035418Y025899D01*
X035298Y025857D01*
X035176Y025821D01*
X035053Y025791D01*
X034928Y025767D01*
X034802Y025749D01*
X034675Y025738D01*
X034548Y025732D01*
X034421Y025733D01*
X034294Y025740D01*
X034168Y025753D01*
X034042Y025773D01*
X033918Y025798D01*
X033794Y025830D01*
X033673Y025867D01*
X033553Y025911D01*
X033436Y025960D01*
X033321Y026015D01*
X033210Y026075D01*
X033101Y026141D01*
X010061Y018621D02*
X010117Y018170D01*
X010195Y017723D01*
X010292Y017279D01*
X010408Y016841D01*
X010545Y016407D01*
X010701Y015981D01*
X006541Y013581D02*
X006434Y013645D01*
X006324Y013703D01*
X006211Y013756D01*
X006095Y013803D01*
X005978Y013845D01*
X005858Y013881D01*
X005737Y013911D01*
X005615Y013935D01*
X005491Y013953D01*
X005367Y013965D01*
X005243Y013971D01*
X005118Y013971D01*
X004993Y013965D01*
X004869Y013953D01*
X004746Y013935D01*
X004623Y013911D01*
X004502Y013880D01*
X004383Y013845D01*
X004265Y013803D01*
X004150Y013755D01*
X004037Y013702D01*
X003927Y013644D01*
X003820Y013580D01*
X003716Y013511D01*
X003615Y013438D01*
X003518Y013359D01*
X003425Y013276D01*
X003337Y013188D01*
X003252Y013096D01*
X003172Y013000D01*
X003097Y012901D01*
X003027Y012798D01*
X002962Y012691D01*
X002903Y012582D01*
X002848Y012469D01*
X002799Y012354D01*
X002756Y012237D01*
X002719Y012118D01*
X002687Y011998D01*
X002662Y011876D01*
X002642Y011752D01*
X002628Y011628D01*
X002621Y011504D01*
X002619Y011379D01*
X002624Y011255D01*
X002634Y011130D01*
X002651Y011007D01*
X002674Y010884D01*
X002702Y010763D01*
X002737Y010643D01*
X002777Y010525D01*
X002823Y010409D01*
X002874Y010295D01*
X002931Y010184D01*
X002994Y010076D01*
X003061Y009971D01*
X003134Y009870D01*
X003211Y009772D01*
X003293Y009678D01*
X003380Y009588D01*
X003471Y009503D01*
X003565Y009422D01*
X003664Y009345D01*
X003766Y009274D01*
X003872Y009208D01*
X003981Y009147D01*
X004092Y009091D01*
X004207Y009041D01*
X004323Y008996D01*
X004442Y008957D01*
X004562Y008924D01*
X004684Y008897D01*
X004807Y008876D01*
X004930Y008860D01*
X005055Y008851D01*
X005179Y008848D01*
X005304Y008851D01*
X005429Y008860D01*
X005552Y008875D01*
X005675Y008896D01*
X005797Y008923D01*
X005917Y008956D01*
X006036Y008995D01*
X006152Y009039D01*
X006267Y009089D01*
X006378Y009145D01*
X006487Y009206D01*
X006593Y009272D01*
X006695Y009343D01*
X006794Y009420D01*
X006889Y009500D01*
X006980Y009586D01*
X007067Y009676D01*
X007149Y009769D01*
X007226Y009867D01*
X007299Y009969D01*
X007367Y010073D01*
X007429Y010181D01*
X007486Y010292D01*
X007538Y010406D01*
X007584Y010522D01*
X007624Y010640D01*
X007659Y010760D01*
X007688Y010881D01*
X007711Y011004D01*
X007727Y011127D01*
X007738Y011251D01*
X007743Y011376D01*
X007741Y011501D01*
X011501Y007741D02*
X011376Y007743D01*
X011251Y007738D01*
X011127Y007727D01*
X011004Y007711D01*
X010881Y007688D01*
X010760Y007659D01*
X010640Y007624D01*
X010522Y007584D01*
X010406Y007538D01*
X010292Y007486D01*
X010181Y007429D01*
X010073Y007367D01*
X009969Y007299D01*
X009867Y007226D01*
X009769Y007149D01*
X009676Y007067D01*
X009586Y006980D01*
X009500Y006889D01*
X009420Y006794D01*
X009343Y006695D01*
X009272Y006593D01*
X009206Y006487D01*
X009145Y006378D01*
X009089Y006267D01*
X009039Y006152D01*
X008995Y006036D01*
X008956Y005917D01*
X008923Y005797D01*
X008896Y005675D01*
X008875Y005552D01*
X008860Y005429D01*
X008851Y005304D01*
X008848Y005179D01*
X008851Y005055D01*
X008860Y004930D01*
X008876Y004807D01*
X008897Y004684D01*
X008924Y004562D01*
X008957Y004442D01*
X008996Y004323D01*
X009041Y004207D01*
X009091Y004092D01*
X009147Y003981D01*
X009208Y003872D01*
X009274Y003766D01*
X009345Y003664D01*
X009422Y003565D01*
X009503Y003471D01*
X009588Y003380D01*
X009678Y003293D01*
X009772Y003211D01*
X009870Y003134D01*
X009971Y003061D01*
X010076Y002994D01*
X010184Y002931D01*
X010295Y002874D01*
X010409Y002823D01*
X010525Y002777D01*
X010643Y002737D01*
X010763Y002702D01*
X010884Y002674D01*
X011007Y002651D01*
X011130Y002634D01*
X011255Y002624D01*
X011379Y002619D01*
X011504Y002621D01*
X011628Y002628D01*
X011752Y002642D01*
X011876Y002662D01*
X011998Y002687D01*
X012118Y002719D01*
X012237Y002756D01*
X012354Y002799D01*
X012469Y002848D01*
X012582Y002903D01*
X012691Y002962D01*
X012798Y003027D01*
X012901Y003097D01*
X013000Y003172D01*
X013096Y003252D01*
X013188Y003337D01*
X013276Y003425D01*
X013359Y003518D01*
X013438Y003615D01*
X013511Y003716D01*
X013580Y003820D01*
X013644Y003927D01*
X013702Y004037D01*
X013755Y004150D01*
X013803Y004265D01*
X013845Y004383D01*
X013880Y004502D01*
X013911Y004623D01*
X013935Y004746D01*
X013953Y004869D01*
X013965Y004993D01*
X013971Y005118D01*
X013971Y005243D01*
X013965Y005367D01*
X013953Y005491D01*
X013935Y005615D01*
X013911Y005737D01*
X013881Y005858D01*
X013845Y005978D01*
X013803Y006095D01*
X013756Y006211D01*
X013703Y006324D01*
X013645Y006434D01*
X013581Y006541D01*
X029581Y021022D02*
X029512Y021474D01*
X029423Y021923D01*
X029313Y022367D01*
X029182Y022805D01*
X029032Y023237D01*
X028861Y023662D01*
X018621Y010061D02*
X018182Y010132D01*
X017747Y010223D01*
X017317Y010334D01*
X016892Y010464D01*
X016473Y010613D01*
X016061Y010781D01*
X010061Y021021D02*
X010129Y021473D01*
X010219Y021922D01*
X010329Y022366D01*
X010459Y022804D01*
X010610Y023236D01*
X010781Y023661D01*
X006541Y026061D02*
X006434Y025997D01*
X006324Y025939D01*
X006211Y025886D01*
X006095Y025839D01*
X005978Y025797D01*
X005858Y025761D01*
X005737Y025731D01*
X005615Y025707D01*
X005491Y025689D01*
X005367Y025677D01*
X005243Y025671D01*
X005118Y025671D01*
X004993Y025677D01*
X004869Y025689D01*
X004746Y025707D01*
X004623Y025731D01*
X004502Y025762D01*
X004383Y025797D01*
X004265Y025839D01*
X004150Y025887D01*
X004037Y025940D01*
X003927Y025998D01*
X003820Y026062D01*
X003716Y026131D01*
X003615Y026204D01*
X003518Y026283D01*
X003425Y026366D01*
X003337Y026454D01*
X003252Y026546D01*
X003172Y026642D01*
X003097Y026741D01*
X003027Y026844D01*
X002962Y026951D01*
X002903Y027060D01*
X002848Y027173D01*
X002799Y027288D01*
X002756Y027405D01*
X002719Y027524D01*
X002687Y027644D01*
X002662Y027766D01*
X002642Y027890D01*
X002628Y028014D01*
X002621Y028138D01*
X002619Y028263D01*
X002624Y028387D01*
X002634Y028512D01*
X002651Y028635D01*
X002674Y028758D01*
X002702Y028879D01*
X002737Y028999D01*
X002777Y029117D01*
X002823Y029233D01*
X002874Y029347D01*
X002931Y029458D01*
X002994Y029566D01*
X003061Y029671D01*
X003134Y029772D01*
X003211Y029870D01*
X003293Y029964D01*
X003380Y030054D01*
X003471Y030139D01*
X003565Y030220D01*
X003664Y030297D01*
X003766Y030368D01*
X003872Y030434D01*
X003981Y030495D01*
X004092Y030551D01*
X004207Y030601D01*
X004323Y030646D01*
X004442Y030685D01*
X004562Y030718D01*
X004684Y030745D01*
X004807Y030766D01*
X004930Y030782D01*
X005055Y030791D01*
X005179Y030794D01*
X005304Y030791D01*
X005429Y030782D01*
X005552Y030767D01*
X005675Y030746D01*
X005797Y030719D01*
X005917Y030686D01*
X006036Y030647D01*
X006152Y030603D01*
X006267Y030553D01*
X006378Y030497D01*
X006487Y030436D01*
X006593Y030370D01*
X006695Y030299D01*
X006794Y030222D01*
X006889Y030142D01*
X006980Y030056D01*
X007067Y029966D01*
X007149Y029873D01*
X007226Y029775D01*
X007299Y029673D01*
X007367Y029569D01*
X007429Y029461D01*
X007486Y029350D01*
X007538Y029236D01*
X007584Y029120D01*
X007624Y029002D01*
X007659Y028882D01*
X007688Y028761D01*
X007711Y028638D01*
X007727Y028515D01*
X007738Y028391D01*
X007743Y028266D01*
X007741Y028141D01*
X011421Y031901D02*
X011296Y031899D01*
X011171Y031904D01*
X011047Y031915D01*
X010924Y031931D01*
X010801Y031954D01*
X010680Y031983D01*
X010560Y032018D01*
X010442Y032058D01*
X010326Y032104D01*
X010212Y032156D01*
X010101Y032213D01*
X009993Y032275D01*
X009889Y032343D01*
X009787Y032416D01*
X009689Y032493D01*
X009596Y032575D01*
X009506Y032662D01*
X009420Y032753D01*
X009340Y032848D01*
X009263Y032947D01*
X009192Y033049D01*
X009126Y033155D01*
X009065Y033264D01*
X009009Y033375D01*
X008959Y033490D01*
X008915Y033606D01*
X008876Y033725D01*
X008843Y033845D01*
X008816Y033967D01*
X008795Y034090D01*
X008780Y034213D01*
X008771Y034338D01*
X008768Y034463D01*
X008771Y034587D01*
X008780Y034712D01*
X008796Y034835D01*
X008817Y034958D01*
X008844Y035080D01*
X008877Y035200D01*
X008916Y035319D01*
X008961Y035435D01*
X009011Y035550D01*
X009067Y035661D01*
X009128Y035770D01*
X009194Y035876D01*
X009265Y035978D01*
X009342Y036077D01*
X009423Y036171D01*
X009508Y036262D01*
X009598Y036349D01*
X009692Y036431D01*
X009790Y036508D01*
X009891Y036581D01*
X009996Y036648D01*
X010104Y036711D01*
X010215Y036768D01*
X010329Y036819D01*
X010445Y036865D01*
X010563Y036905D01*
X010683Y036940D01*
X010804Y036968D01*
X010927Y036991D01*
X011050Y037008D01*
X011175Y037018D01*
X011299Y037023D01*
X011424Y037021D01*
X011548Y037014D01*
X011672Y037000D01*
X011796Y036980D01*
X011918Y036955D01*
X012038Y036923D01*
X012157Y036886D01*
X012274Y036843D01*
X012389Y036794D01*
X012502Y036739D01*
X012611Y036680D01*
X012718Y036615D01*
X012821Y036545D01*
X012920Y036470D01*
X013016Y036390D01*
X013108Y036305D01*
X013196Y036217D01*
X013279Y036124D01*
X013358Y036027D01*
X013431Y035926D01*
X013500Y035822D01*
X013564Y035715D01*
X013622Y035605D01*
X013675Y035492D01*
X013723Y035377D01*
X013765Y035259D01*
X013800Y035140D01*
X013831Y035019D01*
X013855Y034896D01*
X013873Y034773D01*
X013885Y034649D01*
X013891Y034524D01*
X013891Y034399D01*
X013885Y034275D01*
X013873Y034151D01*
X013855Y034027D01*
X013831Y033905D01*
X013801Y033784D01*
X013765Y033664D01*
X013723Y033547D01*
X013676Y033431D01*
X013623Y033318D01*
X013565Y033208D01*
X013501Y033101D01*
X029581Y018621D02*
X029513Y018169D01*
X029423Y017720D01*
X029313Y017276D01*
X029183Y016838D01*
X029032Y016406D01*
X028861Y015981D01*
X033101Y013581D02*
X033208Y013645D01*
X033318Y013703D01*
X033431Y013756D01*
X033547Y013803D01*
X033664Y013845D01*
X033784Y013881D01*
X033905Y013911D01*
X034027Y013935D01*
X034151Y013953D01*
X034275Y013965D01*
X034399Y013971D01*
X034524Y013971D01*
X034649Y013965D01*
X034773Y013953D01*
X034896Y013935D01*
X035019Y013911D01*
X035140Y013880D01*
X035259Y013845D01*
X035377Y013803D01*
X035492Y013755D01*
X035605Y013702D01*
X035715Y013644D01*
X035822Y013580D01*
X035926Y013511D01*
X036027Y013438D01*
X036124Y013359D01*
X036217Y013276D01*
X036305Y013188D01*
X036390Y013096D01*
X036470Y013000D01*
X036545Y012901D01*
X036615Y012798D01*
X036680Y012691D01*
X036739Y012582D01*
X036794Y012469D01*
X036843Y012354D01*
X036886Y012237D01*
X036923Y012118D01*
X036955Y011998D01*
X036980Y011876D01*
X037000Y011752D01*
X037014Y011628D01*
X037021Y011504D01*
X037023Y011379D01*
X037018Y011255D01*
X037008Y011130D01*
X036991Y011007D01*
X036968Y010884D01*
X036940Y010763D01*
X036905Y010643D01*
X036865Y010525D01*
X036819Y010409D01*
X036768Y010295D01*
X036711Y010184D01*
X036648Y010076D01*
X036581Y009971D01*
X036508Y009870D01*
X036431Y009772D01*
X036349Y009678D01*
X036262Y009588D01*
X036171Y009503D01*
X036077Y009422D01*
X035978Y009345D01*
X035876Y009274D01*
X035770Y009208D01*
X035661Y009147D01*
X035550Y009091D01*
X035435Y009041D01*
X035319Y008996D01*
X035200Y008957D01*
X035080Y008924D01*
X034958Y008897D01*
X034835Y008876D01*
X034712Y008860D01*
X034587Y008851D01*
X034463Y008848D01*
X034338Y008851D01*
X034213Y008860D01*
X034090Y008875D01*
X033967Y008896D01*
X033845Y008923D01*
X033725Y008956D01*
X033606Y008995D01*
X033490Y009039D01*
X033375Y009089D01*
X033264Y009145D01*
X033155Y009206D01*
X033049Y009272D01*
X032947Y009343D01*
X032848Y009420D01*
X032753Y009500D01*
X032662Y009586D01*
X032575Y009676D01*
X032493Y009769D01*
X032416Y009867D01*
X032343Y009969D01*
X032275Y010073D01*
X032213Y010181D01*
X032156Y010292D01*
X032104Y010406D01*
X032058Y010522D01*
X032018Y010640D01*
X031983Y010760D01*
X031954Y010881D01*
X031931Y011004D01*
X031915Y011127D01*
X031904Y011251D01*
X031899Y011376D01*
X031901Y011501D01*
X028221Y007741D02*
X028346Y007743D01*
X028471Y007738D01*
X028595Y007727D01*
X028718Y007711D01*
X028841Y007688D01*
X028962Y007659D01*
X029082Y007624D01*
X029200Y007584D01*
X029316Y007538D01*
X029430Y007486D01*
X029541Y007429D01*
X029649Y007367D01*
X029753Y007299D01*
X029855Y007226D01*
X029953Y007149D01*
X030046Y007067D01*
X030136Y006980D01*
X030222Y006889D01*
X030302Y006794D01*
X030379Y006695D01*
X030450Y006593D01*
X030516Y006487D01*
X030577Y006378D01*
X030633Y006267D01*
X030683Y006152D01*
X030727Y006036D01*
X030766Y005917D01*
X030799Y005797D01*
X030826Y005675D01*
X030847Y005552D01*
X030862Y005429D01*
X030871Y005304D01*
X030874Y005179D01*
X030871Y005055D01*
X030862Y004930D01*
X030846Y004807D01*
X030825Y004684D01*
X030798Y004562D01*
X030765Y004442D01*
X030726Y004323D01*
X030681Y004207D01*
X030631Y004092D01*
X030575Y003981D01*
X030514Y003872D01*
X030448Y003766D01*
X030377Y003664D01*
X030300Y003565D01*
X030219Y003471D01*
X030134Y003380D01*
X030044Y003293D01*
X029950Y003211D01*
X029852Y003134D01*
X029751Y003061D01*
X029646Y002994D01*
X029538Y002931D01*
X029427Y002874D01*
X029313Y002823D01*
X029197Y002777D01*
X029079Y002737D01*
X028959Y002702D01*
X028838Y002674D01*
X028715Y002651D01*
X028592Y002634D01*
X028467Y002624D01*
X028343Y002619D01*
X028218Y002621D01*
X028094Y002628D01*
X027970Y002642D01*
X027846Y002662D01*
X027724Y002687D01*
X027604Y002719D01*
X027485Y002756D01*
X027368Y002799D01*
X027253Y002848D01*
X027140Y002903D01*
X027031Y002962D01*
X026924Y003027D01*
X026821Y003097D01*
X026722Y003172D01*
X026626Y003252D01*
X026534Y003337D01*
X026446Y003425D01*
X026363Y003518D01*
X026284Y003615D01*
X026211Y003716D01*
X026142Y003820D01*
X026078Y003927D01*
X026020Y004037D01*
X025967Y004150D01*
X025919Y004265D01*
X025877Y004383D01*
X025842Y004502D01*
X025811Y004623D01*
X025787Y004746D01*
X025769Y004869D01*
X025757Y004993D01*
X025751Y005118D01*
X025751Y005243D01*
X025757Y005367D01*
X025769Y005491D01*
X025787Y005615D01*
X025811Y005737D01*
X025841Y005858D01*
X025877Y005978D01*
X025919Y006095D01*
X025966Y006211D01*
X026019Y006324D01*
X026077Y006434D01*
X026141Y006541D01*
X018621Y029581D02*
X018169Y029513D01*
X017720Y029423D01*
X017276Y029313D01*
X016838Y029183D01*
X016406Y029032D01*
X015981Y028861D01*
X021021Y010061D02*
X021473Y010129D01*
X021922Y010219D01*
X022366Y010329D01*
X022804Y010459D01*
X023236Y010610D01*
X023661Y010781D01*
X013901Y011981D02*
X013545Y012263D01*
X013203Y012561D01*
X012874Y012874D01*
X012561Y013203D01*
X012263Y013545D01*
X011981Y013901D01*
X021021Y029581D02*
X021473Y029513D01*
X021922Y029423D01*
X022366Y029313D01*
X022804Y029183D01*
X023236Y029032D01*
X023661Y028861D01*
X027661Y013901D02*
X027379Y013545D01*
X027081Y013203D01*
X026768Y012874D01*
X026439Y012561D01*
X026097Y012263D01*
X025741Y011981D01*
X027661Y025741D02*
X027379Y026097D01*
X027081Y026439D01*
X026768Y026768D01*
X026439Y027081D01*
X026097Y027379D01*
X025741Y027661D01*
X013901Y027661D02*
X013545Y027379D01*
X013203Y027081D01*
X012874Y026768D01*
X012561Y026439D01*
X012263Y026097D01*
X011981Y025741D01*
D13*
G36*
X006637Y028396D02*
X006440Y028054D01*
X005761Y028446D01*
X005958Y028788D01*
X006637Y028396D01*
G37*
G36*
X006322Y027851D02*
X006125Y027509D01*
X005446Y027901D01*
X005643Y028243D01*
X006322Y027851D01*
G37*
G36*
X006007Y027305D02*
X005810Y026963D01*
X005131Y027355D01*
X005328Y027697D01*
X006007Y027305D01*
G37*
G36*
X004867Y028691D02*
X004670Y028349D01*
X003991Y028741D01*
X004188Y029083D01*
X004867Y028691D01*
G37*
G36*
X005182Y029236D02*
X004985Y028894D01*
X004306Y029286D01*
X004503Y029628D01*
X005182Y029236D01*
G37*
G36*
X004552Y028145D02*
X004355Y027803D01*
X003676Y028195D01*
X003873Y028537D01*
X004552Y028145D01*
G37*
G36*
X011598Y033213D02*
X011256Y033016D01*
X010864Y033695D01*
X011206Y033892D01*
X011598Y033213D01*
G37*
G36*
X012144Y033527D02*
X011802Y033330D01*
X011410Y034009D01*
X011752Y034206D01*
X012144Y033527D01*
G37*
G36*
X012689Y033842D02*
X012347Y033645D01*
X011955Y034324D01*
X012297Y034521D01*
X012689Y033842D01*
G37*
G36*
X011849Y035297D02*
X011507Y035100D01*
X011115Y035779D01*
X011457Y035976D01*
X011849Y035297D01*
G37*
G36*
X011304Y034982D02*
X010962Y034785D01*
X010570Y035464D01*
X010912Y035661D01*
X011304Y034982D01*
G37*
G36*
X010758Y034667D02*
X010416Y034470D01*
X010024Y035149D01*
X010366Y035346D01*
X010758Y034667D01*
G37*
X019196Y035925D03*
X019826Y035925D03*
X020456Y035925D03*
X020456Y037605D03*
X019826Y037605D03*
X019196Y037605D03*
G36*
X027305Y033645D02*
X026963Y033842D01*
X027355Y034521D01*
X027697Y034324D01*
X027305Y033645D01*
G37*
G36*
X027851Y033330D02*
X027509Y033527D01*
X027901Y034206D01*
X028243Y034009D01*
X027851Y033330D01*
G37*
G36*
X028396Y033016D02*
X028054Y033213D01*
X028446Y033892D01*
X028788Y033695D01*
X028396Y033016D01*
G37*
G36*
X029236Y034470D02*
X028894Y034667D01*
X029286Y035346D01*
X029628Y035149D01*
X029236Y034470D01*
G37*
G36*
X028691Y034785D02*
X028349Y034982D01*
X028741Y035661D01*
X029083Y035464D01*
X028691Y034785D01*
G37*
G36*
X028145Y035100D02*
X027803Y035297D01*
X028195Y035976D01*
X028537Y035779D01*
X028145Y035100D01*
G37*
G36*
X033213Y028054D02*
X033016Y028396D01*
X033695Y028788D01*
X033892Y028446D01*
X033213Y028054D01*
G37*
G36*
X033528Y027509D02*
X033331Y027851D01*
X034010Y028243D01*
X034207Y027901D01*
X033528Y027509D01*
G37*
G36*
X033842Y026963D02*
X033645Y027305D01*
X034324Y027697D01*
X034521Y027355D01*
X033842Y026963D01*
G37*
G36*
X035297Y027803D02*
X035100Y028145D01*
X035779Y028537D01*
X035976Y028195D01*
X035297Y027803D01*
G37*
G36*
X034982Y028349D02*
X034785Y028691D01*
X035464Y029083D01*
X035661Y028741D01*
X034982Y028349D01*
G37*
G36*
X034667Y028894D02*
X034470Y029236D01*
X035149Y029628D01*
X035346Y029286D01*
X034667Y028894D01*
G37*
G36*
X033645Y012347D02*
X033842Y012689D01*
X034521Y012297D01*
X034324Y011955D01*
X033645Y012347D01*
G37*
G36*
X033331Y011802D02*
X033528Y012144D01*
X034207Y011752D01*
X034010Y011410D01*
X033331Y011802D01*
G37*
G36*
X033016Y011256D02*
X033213Y011598D01*
X033892Y011206D01*
X033695Y010864D01*
X033016Y011256D01*
G37*
G36*
X034470Y010416D02*
X034667Y010758D01*
X035346Y010366D01*
X035149Y010024D01*
X034470Y010416D01*
G37*
G36*
X034785Y010962D02*
X034982Y011304D01*
X035661Y010912D01*
X035464Y010570D01*
X034785Y010962D01*
G37*
G36*
X035100Y011507D02*
X035297Y011849D01*
X035976Y011457D01*
X035779Y011115D01*
X035100Y011507D01*
G37*
G36*
X028054Y006440D02*
X028396Y006637D01*
X028788Y005958D01*
X028446Y005761D01*
X028054Y006440D01*
G37*
G36*
X027509Y006125D02*
X027851Y006322D01*
X028243Y005643D01*
X027901Y005446D01*
X027509Y006125D01*
G37*
G36*
X026963Y005810D02*
X027305Y006007D01*
X027697Y005328D01*
X027355Y005131D01*
X026963Y005810D01*
G37*
G36*
X027803Y004355D02*
X028145Y004552D01*
X028537Y003873D01*
X028195Y003676D01*
X027803Y004355D01*
G37*
G36*
X028349Y004670D02*
X028691Y004867D01*
X029083Y004188D01*
X028741Y003991D01*
X028349Y004670D01*
G37*
G36*
X028894Y004985D02*
X029236Y005182D01*
X029628Y004503D01*
X029286Y004306D01*
X028894Y004985D01*
G37*
X020456Y003727D03*
X019826Y003727D03*
X019196Y003727D03*
X019196Y002047D03*
X019826Y002047D03*
X020456Y002047D03*
G36*
X012347Y006007D02*
X012689Y005810D01*
X012297Y005131D01*
X011955Y005328D01*
X012347Y006007D01*
G37*
G36*
X011802Y006322D02*
X012144Y006125D01*
X011752Y005446D01*
X011410Y005643D01*
X011802Y006322D01*
G37*
G36*
X011256Y006637D02*
X011598Y006440D01*
X011206Y005761D01*
X010864Y005958D01*
X011256Y006637D01*
G37*
G36*
X010416Y005182D02*
X010758Y004985D01*
X010366Y004306D01*
X010024Y004503D01*
X010416Y005182D01*
G37*
G36*
X010962Y004867D02*
X011304Y004670D01*
X010912Y003991D01*
X010570Y004188D01*
X010962Y004867D01*
G37*
G36*
X011507Y004552D02*
X011849Y004355D01*
X011457Y003676D01*
X011115Y003873D01*
X011507Y004552D01*
G37*
G36*
X006440Y011598D02*
X006637Y011256D01*
X005958Y010864D01*
X005761Y011206D01*
X006440Y011598D01*
G37*
G36*
X006125Y012144D02*
X006322Y011802D01*
X005643Y011410D01*
X005446Y011752D01*
X006125Y012144D01*
G37*
G36*
X005810Y012689D02*
X006007Y012347D01*
X005328Y011955D01*
X005131Y012297D01*
X005810Y012689D01*
G37*
G36*
X004355Y011849D02*
X004552Y011507D01*
X003873Y011115D01*
X003676Y011457D01*
X004355Y011849D01*
G37*
G36*
X004670Y011304D02*
X004867Y010962D01*
X004188Y010570D01*
X003991Y010912D01*
X004670Y011304D01*
G37*
G36*
X004985Y010758D02*
X005182Y010416D01*
X004503Y010024D01*
X004306Y010366D01*
X004985Y010758D01*
G37*
D14*
X003727Y019196D03*
X003727Y019826D03*
X003727Y020456D03*
X002047Y020456D03*
X002047Y019826D03*
X002047Y019196D03*
X035925Y019196D03*
X035925Y019826D03*
X035925Y020456D03*
X037605Y020456D03*
X037605Y019826D03*
X037605Y019196D03*
D15*
G36*
X029290Y021098D02*
X028730Y020949D01*
X028694Y021084D01*
X029254Y021233D01*
X029290Y021098D01*
G37*
G36*
X029225Y021340D02*
X028665Y021191D01*
X028629Y021326D01*
X029189Y021475D01*
X029225Y021340D01*
G37*
G36*
X029158Y021591D02*
X028598Y021442D01*
X028562Y021577D01*
X029122Y021726D01*
X029158Y021591D01*
G37*
G36*
X029091Y021842D02*
X028531Y021693D01*
X028495Y021828D01*
X029055Y021977D01*
X029091Y021842D01*
G37*
G36*
X028894Y022576D02*
X028334Y022427D01*
X028298Y022562D01*
X028858Y022711D01*
X028894Y022576D01*
G37*
G36*
X028827Y022828D02*
X028267Y022679D01*
X028231Y022814D01*
X028791Y022963D01*
X028827Y022828D01*
G37*
G36*
X028759Y023079D02*
X028199Y022930D01*
X028163Y023065D01*
X028723Y023214D01*
X028759Y023079D01*
G37*
G36*
X028695Y023320D02*
X028135Y023171D01*
X028099Y023306D01*
X028659Y023455D01*
X028695Y023320D01*
G37*
G36*
X026882Y021509D02*
X026322Y021360D01*
X026286Y021495D01*
X026846Y021644D01*
X026882Y021509D01*
G37*
G36*
X026946Y021268D02*
X026386Y021119D01*
X026350Y021254D01*
X026910Y021403D01*
X026946Y021268D01*
G37*
G36*
X027014Y021017D02*
X026454Y020868D01*
X026418Y021003D01*
X026978Y021152D01*
X027014Y021017D01*
G37*
G36*
X027081Y020765D02*
X026521Y020616D01*
X026485Y020751D01*
X027045Y020900D01*
X027081Y020765D01*
G37*
G36*
X027145Y020524D02*
X026585Y020375D01*
X026549Y020510D01*
X027109Y020659D01*
X027145Y020524D01*
G37*
G36*
X026814Y021760D02*
X026254Y021611D01*
X026218Y021746D01*
X026778Y021895D01*
X026814Y021760D01*
G37*
G36*
X026749Y022002D02*
X026189Y021853D01*
X026153Y021988D01*
X026713Y022137D01*
X026749Y022002D01*
G37*
G36*
X026682Y022253D02*
X026122Y022104D01*
X026086Y022239D01*
X026646Y022388D01*
X026682Y022253D01*
G37*
G36*
X026615Y022504D02*
X026055Y022355D01*
X026019Y022490D01*
X026579Y022639D01*
X026615Y022504D01*
G37*
G36*
X026550Y022746D02*
X025990Y022597D01*
X025954Y022732D01*
X026514Y022881D01*
X026550Y022746D01*
G37*
G36*
X022881Y026514D02*
X022732Y025954D01*
X022597Y025990D01*
X022746Y026550D01*
X022881Y026514D01*
G37*
G36*
X022639Y026579D02*
X022490Y026019D01*
X022355Y026055D01*
X022504Y026615D01*
X022639Y026579D01*
G37*
G36*
X022388Y026646D02*
X022239Y026086D01*
X022104Y026122D01*
X022253Y026682D01*
X022388Y026646D01*
G37*
G36*
X022137Y026713D02*
X021988Y026153D01*
X021853Y026189D01*
X022002Y026749D01*
X022137Y026713D01*
G37*
G36*
X021895Y026778D02*
X021746Y026218D01*
X021611Y026254D01*
X021760Y026814D01*
X021895Y026778D01*
G37*
G36*
X021644Y026845D02*
X021495Y026285D01*
X021360Y026321D01*
X021509Y026881D01*
X021644Y026845D01*
G37*
G36*
X021403Y026910D02*
X021254Y026350D01*
X021119Y026386D01*
X021268Y026946D01*
X021403Y026910D01*
G37*
G36*
X021152Y026977D02*
X021003Y026417D01*
X020868Y026453D01*
X021017Y027013D01*
X021152Y026977D01*
G37*
G36*
X020900Y027045D02*
X020751Y026485D01*
X020616Y026521D01*
X020765Y027081D01*
X020900Y027045D01*
G37*
G36*
X020659Y027109D02*
X020510Y026549D01*
X020375Y026585D01*
X020524Y027145D01*
X020659Y027109D01*
G37*
G36*
X021475Y029189D02*
X021326Y028629D01*
X021191Y028665D01*
X021340Y029225D01*
X021475Y029189D01*
G37*
G36*
X021726Y029122D02*
X021577Y028562D01*
X021442Y028598D01*
X021591Y029158D01*
X021726Y029122D01*
G37*
G36*
X021977Y029055D02*
X021828Y028495D01*
X021693Y028531D01*
X021842Y029091D01*
X021977Y029055D01*
G37*
G36*
X022711Y028858D02*
X022562Y028298D01*
X022427Y028334D01*
X022576Y028894D01*
X022711Y028858D01*
G37*
G36*
X022963Y028791D02*
X022814Y028231D01*
X022679Y028267D01*
X022828Y028827D01*
X022963Y028791D01*
G37*
G36*
X023214Y028723D02*
X023065Y028163D01*
X022930Y028199D01*
X023079Y028759D01*
X023214Y028723D01*
G37*
G36*
X023455Y028659D02*
X023306Y028099D01*
X023171Y028135D01*
X023320Y028695D01*
X023455Y028659D01*
G37*
G36*
X021234Y029254D02*
X021085Y028694D01*
X020950Y028730D01*
X021099Y029290D01*
X021234Y029254D01*
G37*
G36*
X015562Y025815D02*
X015971Y025406D01*
X015872Y025307D01*
X015463Y025716D01*
X015562Y025815D01*
G37*
G36*
X015385Y025639D02*
X015794Y025230D01*
X015695Y025131D01*
X015286Y025540D01*
X015385Y025639D01*
G37*
G36*
X015202Y025455D02*
X015611Y025046D01*
X015512Y024947D01*
X015103Y025356D01*
X015202Y025455D01*
G37*
G36*
X015018Y025271D02*
X015427Y024862D01*
X015328Y024763D01*
X014919Y025172D01*
X015018Y025271D01*
G37*
G36*
X014841Y025094D02*
X015250Y024685D01*
X015151Y024586D01*
X014742Y024995D01*
X014841Y025094D01*
G37*
G36*
X014657Y024910D02*
X015066Y024501D01*
X014967Y024402D01*
X014558Y024811D01*
X014657Y024910D01*
G37*
G36*
X014480Y024733D02*
X014889Y024324D01*
X014790Y024225D01*
X014381Y024634D01*
X014480Y024733D01*
G37*
G36*
X014297Y024550D02*
X014706Y024141D01*
X014607Y024042D01*
X014198Y024451D01*
X014297Y024550D01*
G37*
G36*
X014113Y024366D02*
X014522Y023957D01*
X014423Y023858D01*
X014014Y024267D01*
X014113Y024366D01*
G37*
G36*
X013936Y024189D02*
X014345Y023780D01*
X014246Y023681D01*
X013837Y024090D01*
X013936Y024189D01*
G37*
G36*
X012366Y025759D02*
X012775Y025350D01*
X012676Y025251D01*
X012267Y025660D01*
X012366Y025759D01*
G37*
G36*
X012543Y025936D02*
X012952Y025527D01*
X012853Y025428D01*
X012444Y025837D01*
X012543Y025936D01*
G37*
G36*
X012727Y026119D02*
X013136Y025710D01*
X013037Y025611D01*
X012628Y026020D01*
X012727Y026119D01*
G37*
G36*
X012911Y026303D02*
X013320Y025894D01*
X013221Y025795D01*
X012812Y026204D01*
X012911Y026303D01*
G37*
G36*
X013448Y026841D02*
X013857Y026432D01*
X013758Y026333D01*
X013349Y026742D01*
X013448Y026841D01*
G37*
G36*
X013632Y027025D02*
X014041Y026616D01*
X013942Y026517D01*
X013533Y026926D01*
X013632Y027025D01*
G37*
G36*
X013816Y027208D02*
X014225Y026799D01*
X014126Y026700D01*
X013717Y027109D01*
X013816Y027208D01*
G37*
G36*
X013992Y027385D02*
X014401Y026976D01*
X014302Y026877D01*
X013893Y027286D01*
X013992Y027385D01*
G37*
G36*
X012507Y019128D02*
X013067Y019277D01*
X013103Y019142D01*
X012543Y018993D01*
X012507Y019128D01*
G37*
G36*
X012572Y018887D02*
X013132Y019036D01*
X013168Y018901D01*
X012608Y018752D01*
X012572Y018887D01*
G37*
G36*
X012639Y018636D02*
X013199Y018785D01*
X013235Y018650D01*
X012675Y018501D01*
X012639Y018636D01*
G37*
G36*
X012706Y018385D02*
X013266Y018534D01*
X013302Y018399D01*
X012742Y018250D01*
X012706Y018385D01*
G37*
G36*
X012771Y018143D02*
X013331Y018292D01*
X013367Y018157D01*
X012807Y018008D01*
X012771Y018143D01*
G37*
G36*
X012838Y017892D02*
X013398Y018041D01*
X013434Y017906D01*
X012874Y017757D01*
X012838Y017892D01*
G37*
G36*
X012903Y017650D02*
X013463Y017799D01*
X013499Y017664D01*
X012939Y017515D01*
X012903Y017650D01*
G37*
G36*
X012970Y017399D02*
X013530Y017548D01*
X013566Y017413D01*
X013006Y017264D01*
X012970Y017399D01*
G37*
G36*
X013037Y017148D02*
X013597Y017297D01*
X013633Y017162D01*
X013073Y017013D01*
X013037Y017148D01*
G37*
G36*
X013102Y016907D02*
X013662Y017056D01*
X013698Y016921D01*
X013138Y016772D01*
X013102Y016907D01*
G37*
G36*
X010958Y016332D02*
X011518Y016481D01*
X011554Y016346D01*
X010994Y016197D01*
X010958Y016332D01*
G37*
G36*
X010893Y016574D02*
X011453Y016723D01*
X011489Y016588D01*
X010929Y016439D01*
X010893Y016574D01*
G37*
G36*
X010826Y016825D02*
X011386Y016974D01*
X011422Y016839D01*
X010862Y016690D01*
X010826Y016825D01*
G37*
G36*
X010758Y017076D02*
X011318Y017225D01*
X011354Y017090D01*
X010794Y016941D01*
X010758Y017076D01*
G37*
G36*
X010562Y017810D02*
X011122Y017959D01*
X011158Y017824D01*
X010598Y017675D01*
X010562Y017810D01*
G37*
G36*
X010494Y018061D02*
X011054Y018210D01*
X011090Y018075D01*
X010530Y017926D01*
X010494Y018061D01*
G37*
G36*
X010427Y018312D02*
X010987Y018461D01*
X011023Y018326D01*
X010463Y018177D01*
X010427Y018312D01*
G37*
G36*
X010362Y018554D02*
X010922Y018703D01*
X010958Y018568D01*
X010398Y018419D01*
X010362Y018554D01*
G37*
G36*
X016772Y013138D02*
X016921Y013698D01*
X017056Y013662D01*
X016907Y013102D01*
X016772Y013138D01*
G37*
G36*
X017013Y013073D02*
X017162Y013633D01*
X017297Y013597D01*
X017148Y013037D01*
X017013Y013073D01*
G37*
G36*
X017264Y013006D02*
X017413Y013566D01*
X017548Y013530D01*
X017399Y012970D01*
X017264Y013006D01*
G37*
G36*
X017516Y012939D02*
X017665Y013499D01*
X017800Y013463D01*
X017651Y012903D01*
X017516Y012939D01*
G37*
G36*
X017757Y012874D02*
X017906Y013434D01*
X018041Y013398D01*
X017892Y012838D01*
X017757Y012874D01*
G37*
G36*
X018008Y012807D02*
X018157Y013367D01*
X018292Y013331D01*
X018143Y012771D01*
X018008Y012807D01*
G37*
G36*
X018250Y012742D02*
X018399Y013302D01*
X018534Y013266D01*
X018385Y012706D01*
X018250Y012742D01*
G37*
G36*
X018501Y012675D02*
X018650Y013235D01*
X018785Y013199D01*
X018636Y012639D01*
X018501Y012675D01*
G37*
G36*
X018752Y012607D02*
X018901Y013167D01*
X019036Y013131D01*
X018887Y012571D01*
X018752Y012607D01*
G37*
G36*
X018993Y012543D02*
X019142Y013103D01*
X019277Y013067D01*
X019128Y012507D01*
X018993Y012543D01*
G37*
G36*
X018177Y010463D02*
X018326Y011023D01*
X018461Y010987D01*
X018312Y010427D01*
X018177Y010463D01*
G37*
G36*
X017926Y010530D02*
X018075Y011090D01*
X018210Y011054D01*
X018061Y010494D01*
X017926Y010530D01*
G37*
G36*
X017675Y010598D02*
X017824Y011158D01*
X017959Y011122D01*
X017810Y010562D01*
X017675Y010598D01*
G37*
G36*
X016941Y010794D02*
X017090Y011354D01*
X017225Y011318D01*
X017076Y010758D01*
X016941Y010794D01*
G37*
G36*
X016690Y010862D02*
X016839Y011422D01*
X016974Y011386D01*
X016825Y010826D01*
X016690Y010862D01*
G37*
G36*
X016439Y010929D02*
X016588Y011489D01*
X016723Y011453D01*
X016574Y010893D01*
X016439Y010929D01*
G37*
G36*
X016197Y010994D02*
X016346Y011554D01*
X016481Y011518D01*
X016332Y010958D01*
X016197Y010994D01*
G37*
G36*
X018419Y010398D02*
X018568Y010958D01*
X018703Y010922D01*
X018554Y010362D01*
X018419Y010398D01*
G37*
G36*
X024090Y013837D02*
X023681Y014246D01*
X023780Y014345D01*
X024189Y013936D01*
X024090Y013837D01*
G37*
G36*
X024267Y014014D02*
X023858Y014423D01*
X023957Y014522D01*
X024366Y014113D01*
X024267Y014014D01*
G37*
G36*
X024451Y014197D02*
X024042Y014606D01*
X024141Y014705D01*
X024550Y014296D01*
X024451Y014197D01*
G37*
G36*
X024635Y014381D02*
X024226Y014790D01*
X024325Y014889D01*
X024734Y014480D01*
X024635Y014381D01*
G37*
G36*
X024811Y014558D02*
X024402Y014967D01*
X024501Y015066D01*
X024910Y014657D01*
X024811Y014558D01*
G37*
G36*
X024995Y014742D02*
X024586Y015151D01*
X024685Y015250D01*
X025094Y014841D01*
X024995Y014742D01*
G37*
G36*
X025172Y014919D02*
X024763Y015328D01*
X024862Y015427D01*
X025271Y015018D01*
X025172Y014919D01*
G37*
G36*
X025356Y015103D02*
X024947Y015512D01*
X025046Y015611D01*
X025455Y015202D01*
X025356Y015103D01*
G37*
G36*
X025540Y015286D02*
X025131Y015695D01*
X025230Y015794D01*
X025639Y015385D01*
X025540Y015286D01*
G37*
G36*
X025716Y015463D02*
X025307Y015872D01*
X025406Y015971D01*
X025815Y015562D01*
X025716Y015463D01*
G37*
G36*
X027109Y013717D02*
X026700Y014126D01*
X026799Y014225D01*
X027208Y013816D01*
X027109Y013717D01*
G37*
G36*
X026926Y013533D02*
X026517Y013942D01*
X026616Y014041D01*
X027025Y013632D01*
X026926Y013533D01*
G37*
G36*
X026742Y013349D02*
X026333Y013758D01*
X026432Y013857D01*
X026841Y013448D01*
X026742Y013349D01*
G37*
G36*
X026204Y012812D02*
X025795Y013221D01*
X025894Y013320D01*
X026303Y012911D01*
X026204Y012812D01*
G37*
G36*
X026020Y012628D02*
X025611Y013037D01*
X025710Y013136D01*
X026119Y012727D01*
X026020Y012628D01*
G37*
G36*
X025837Y012444D02*
X025428Y012853D01*
X025527Y012952D01*
X025936Y012543D01*
X025837Y012444D01*
G37*
G36*
X025660Y012267D02*
X025251Y012676D01*
X025350Y012775D01*
X025759Y012366D01*
X025660Y012267D01*
G37*
G36*
X027286Y013893D02*
X026877Y014302D01*
X026976Y014401D01*
X027385Y013992D01*
X027286Y013893D01*
G37*
D16*
G36*
X026276Y013618D02*
X026234Y013660D01*
X026276Y013702D01*
X026318Y013660D01*
X026276Y013618D01*
G37*
G36*
X025993Y013335D02*
X025951Y013377D01*
X025993Y013419D01*
X026035Y013377D01*
X025993Y013335D01*
G37*
G36*
X017674Y011136D02*
X017689Y011193D01*
X017746Y011178D01*
X017731Y011121D01*
X017674Y011136D01*
G37*
G36*
X017288Y011240D02*
X017303Y011297D01*
X017360Y011282D01*
X017345Y011225D01*
X017288Y011240D01*
G37*
G36*
X011225Y017345D02*
X011282Y017360D01*
X011297Y017303D01*
X011240Y017288D01*
X011225Y017345D01*
G37*
G36*
X011121Y017731D02*
X011178Y017746D01*
X011193Y017689D01*
X011136Y017674D01*
X011121Y017731D01*
G37*
G36*
X013377Y026035D02*
X013419Y025993D01*
X013377Y025951D01*
X013335Y025993D01*
X013377Y026035D01*
G37*
G36*
X013660Y026318D02*
X013702Y026276D01*
X013660Y026234D01*
X013618Y026276D01*
X013660Y026318D01*
G37*
G36*
X021978Y028516D02*
X021963Y028459D01*
X021906Y028474D01*
X021921Y028531D01*
X021978Y028516D01*
G37*
G36*
X022364Y028412D02*
X022349Y028355D01*
X022292Y028370D01*
X022307Y028427D01*
X022364Y028412D01*
G37*
G36*
X028427Y022307D02*
X028370Y022292D01*
X028355Y022349D01*
X028412Y022364D01*
X028427Y022307D01*
G37*
G36*
X028531Y021921D02*
X028474Y021906D01*
X028459Y021963D01*
X028516Y021978D01*
X028531Y021921D01*
G37*
D17*
X019826Y033212D03*
X019826Y033999D03*
X018056Y036269D03*
X018056Y037056D03*
X021596Y037056D03*
X021596Y036269D03*
X019826Y006440D03*
X019826Y005653D03*
X018056Y003384D03*
X018056Y002596D03*
X021596Y002596D03*
X021596Y003384D03*
D18*
G36*
X005465Y009809D02*
X005838Y010025D01*
X006113Y009549D01*
X005740Y009333D01*
X005465Y009809D01*
G37*
G36*
X006147Y010202D02*
X006520Y010418D01*
X006795Y009942D01*
X006422Y009726D01*
X006147Y010202D01*
G37*
G36*
X007228Y012870D02*
X007601Y013086D01*
X007876Y012610D01*
X007503Y012394D01*
X007228Y012870D01*
G37*
G36*
X007910Y013263D02*
X008283Y013479D01*
X008558Y013003D01*
X008185Y012787D01*
X007910Y013263D01*
G37*
G36*
X004378Y013267D02*
X004751Y013483D01*
X005026Y013007D01*
X004653Y012791D01*
X004378Y013267D01*
G37*
G36*
X003696Y012873D02*
X004069Y013089D01*
X004344Y012613D01*
X003971Y012397D01*
X003696Y012873D01*
G37*
X003384Y018056D03*
X002596Y018056D03*
X005653Y019826D03*
X006440Y019826D03*
X003384Y021596D03*
X002596Y021596D03*
G36*
X004653Y026861D02*
X005026Y026645D01*
X004751Y026169D01*
X004378Y026385D01*
X004653Y026861D01*
G37*
G36*
X003971Y027255D02*
X004344Y027039D01*
X004069Y026563D01*
X003696Y026779D01*
X003971Y027255D01*
G37*
G36*
X006422Y029926D02*
X006795Y029710D01*
X006520Y029234D01*
X006147Y029450D01*
X006422Y029926D01*
G37*
G36*
X005740Y030320D02*
X006113Y030104D01*
X005838Y029628D01*
X005465Y029844D01*
X005740Y030320D01*
G37*
G36*
X007503Y027259D02*
X007876Y027043D01*
X007601Y026567D01*
X007228Y026783D01*
X007503Y027259D01*
G37*
G36*
X008185Y026865D02*
X008558Y026649D01*
X008283Y026173D01*
X007910Y026389D01*
X008185Y026865D01*
G37*
G36*
X013263Y031743D02*
X013479Y031370D01*
X013003Y031095D01*
X012787Y031468D01*
X013263Y031743D01*
G37*
G36*
X012870Y032425D02*
X013086Y032052D01*
X012610Y031777D01*
X012394Y032150D01*
X012870Y032425D01*
G37*
G36*
X013267Y035275D02*
X013483Y034902D01*
X013007Y034627D01*
X012791Y035000D01*
X013267Y035275D01*
G37*
G36*
X012873Y035956D02*
X013089Y035583D01*
X012613Y035308D01*
X012397Y035681D01*
X012873Y035956D01*
G37*
G36*
X010202Y033505D02*
X010418Y033132D01*
X009942Y032857D01*
X009726Y033230D01*
X010202Y033505D01*
G37*
G36*
X009809Y034187D02*
X010025Y033814D01*
X009549Y033539D01*
X009333Y033912D01*
X009809Y034187D01*
G37*
X018448Y025732D03*
X019236Y025732D03*
G36*
X026865Y031468D02*
X026649Y031095D01*
X026173Y031370D01*
X026389Y031743D01*
X026865Y031468D01*
G37*
G36*
X027259Y032150D02*
X027043Y031777D01*
X026567Y032052D01*
X026783Y032425D01*
X027259Y032150D01*
G37*
G36*
X029926Y033230D02*
X029710Y032857D01*
X029234Y033132D01*
X029450Y033505D01*
X029926Y033230D01*
G37*
G36*
X030320Y033912D02*
X030104Y033539D01*
X029628Y033814D01*
X029844Y034187D01*
X030320Y033912D01*
G37*
G36*
X027255Y035681D02*
X027039Y035308D01*
X026563Y035583D01*
X026779Y035956D01*
X027255Y035681D01*
G37*
G36*
X026861Y035000D02*
X026645Y034627D01*
X026169Y034902D01*
X026385Y035275D01*
X026861Y035000D01*
G37*
G36*
X033505Y029450D02*
X033132Y029234D01*
X032857Y029710D01*
X033230Y029926D01*
X033505Y029450D01*
G37*
G36*
X034187Y029844D02*
X033814Y029628D01*
X033539Y030104D01*
X033912Y030320D01*
X034187Y029844D01*
G37*
G36*
X035956Y026779D02*
X035583Y026563D01*
X035308Y027039D01*
X035681Y027255D01*
X035956Y026779D01*
G37*
G36*
X035275Y026385D02*
X034902Y026169D01*
X034627Y026645D01*
X035000Y026861D01*
X035275Y026385D01*
G37*
G36*
X032425Y026783D02*
X032052Y026567D01*
X031777Y027043D01*
X032150Y027259D01*
X032425Y026783D01*
G37*
G36*
X031743Y026389D02*
X031370Y026173D01*
X031095Y026649D01*
X031468Y026865D01*
X031743Y026389D01*
G37*
X036269Y021596D03*
X037056Y021596D03*
X033999Y019826D03*
X033212Y019826D03*
X036269Y018056D03*
X037056Y018056D03*
G36*
X035000Y012791D02*
X034627Y013007D01*
X034902Y013483D01*
X035275Y013267D01*
X035000Y012791D01*
G37*
G36*
X035681Y012397D02*
X035308Y012613D01*
X035583Y013089D01*
X035956Y012873D01*
X035681Y012397D01*
G37*
G36*
X033230Y009726D02*
X032857Y009942D01*
X033132Y010418D01*
X033505Y010202D01*
X033230Y009726D01*
G37*
G36*
X033912Y009333D02*
X033539Y009549D01*
X033814Y010025D01*
X034187Y009809D01*
X033912Y009333D01*
G37*
G36*
X032150Y012394D02*
X031777Y012610D01*
X032052Y013086D01*
X032425Y012870D01*
X032150Y012394D01*
G37*
G36*
X031468Y012787D02*
X031095Y013003D01*
X031370Y013479D01*
X031743Y013263D01*
X031468Y012787D01*
G37*
X027175Y017661D03*
X026387Y017661D03*
X026387Y018541D03*
X027175Y018541D03*
G36*
X026389Y007910D02*
X026173Y008283D01*
X026649Y008558D01*
X026865Y008185D01*
X026389Y007910D01*
G37*
G36*
X026783Y007228D02*
X026567Y007601D01*
X027043Y007876D01*
X027259Y007503D01*
X026783Y007228D01*
G37*
G36*
X026385Y004378D02*
X026169Y004751D01*
X026645Y005026D01*
X026861Y004653D01*
X026385Y004378D01*
G37*
G36*
X026779Y003696D02*
X026563Y004069D01*
X027039Y004344D01*
X027255Y003971D01*
X026779Y003696D01*
G37*
G36*
X029450Y006147D02*
X029234Y006520D01*
X029710Y006795D01*
X029926Y006422D01*
X029450Y006147D01*
G37*
G36*
X029844Y005465D02*
X029628Y005838D01*
X030104Y006113D01*
X030320Y005740D01*
X029844Y005465D01*
G37*
G36*
X012791Y004653D02*
X013007Y005026D01*
X013483Y004751D01*
X013267Y004378D01*
X012791Y004653D01*
G37*
G36*
X012397Y003971D02*
X012613Y004344D01*
X013089Y004069D01*
X012873Y003696D01*
X012397Y003971D01*
G37*
G36*
X009726Y006422D02*
X009942Y006795D01*
X010418Y006520D01*
X010202Y006147D01*
X009726Y006422D01*
G37*
G36*
X009333Y005740D02*
X009549Y006113D01*
X010025Y005838D01*
X009809Y005465D01*
X009333Y005740D01*
G37*
G36*
X012394Y007503D02*
X012610Y007876D01*
X013086Y007601D01*
X012870Y007228D01*
X012394Y007503D01*
G37*
G36*
X012787Y008185D02*
X013003Y008558D01*
X013479Y008283D01*
X013263Y007910D01*
X012787Y008185D01*
G37*
D19*
X021430Y021942D03*
X021686Y021942D03*
X021942Y021942D03*
X022198Y021942D03*
X022454Y021942D03*
X022710Y021942D03*
X022966Y021942D03*
X023222Y021942D03*
X023478Y021942D03*
X023734Y021942D03*
X023734Y024797D03*
X023478Y024797D03*
X023222Y024797D03*
X022966Y024797D03*
X022710Y024797D03*
X022454Y024797D03*
X022198Y024797D03*
X021942Y024797D03*
X021686Y024797D03*
X021430Y024797D03*
D20*
X022791Y019593D03*
X023291Y019593D03*
X023791Y019593D03*
X024291Y019593D03*
X024291Y017533D03*
X023791Y017533D03*
X023291Y017533D03*
X022791Y017533D03*
D21*
X021987Y013069D03*
D22*
X021487Y015432D03*
X022487Y015432D03*
D23*
X016760Y020681D03*
D24*
X013532Y020681D03*
X019988Y020681D03*
D25*
X021716Y020789D03*
X021716Y020289D03*
X021716Y019789D03*
X021716Y019289D03*
X021716Y018789D03*
X021716Y018289D03*
X021716Y017789D03*
X021716Y017289D03*
X025416Y017289D03*
X025416Y017789D03*
X025416Y018289D03*
X025416Y018789D03*
X025416Y019289D03*
X025416Y019789D03*
X025416Y020289D03*
X025416Y020789D03*
D26*
X027581Y016915D03*
X027581Y016167D03*
X011641Y021517D03*
X011641Y022265D03*
D27*
X018468Y024551D03*
X019216Y024551D03*
D28*
G36*
X025124Y027247D02*
X025377Y026946D01*
X025196Y026795D01*
X024943Y027096D01*
X025124Y027247D01*
G37*
G36*
X026895Y025136D02*
X027148Y024835D01*
X026967Y024684D01*
X026714Y024985D01*
X026895Y025136D01*
G37*
D29*
X018743Y028586D02*
X018153Y028586D01*
X018743Y028586D02*
X018743Y027602D01*
X018153Y027602D01*
X018153Y028586D01*
X018153Y027798D02*
X018743Y027798D01*
X018743Y027994D02*
X018153Y027994D01*
X018153Y028190D02*
X018743Y028190D01*
X018743Y028386D02*
X018153Y028386D01*
X018153Y028582D02*
X018743Y028582D01*
X017365Y028586D02*
X016775Y028586D01*
X017365Y028586D02*
X017365Y027602D01*
X016775Y027602D01*
X016775Y028586D01*
X016775Y027798D02*
X017365Y027798D01*
X017365Y027994D02*
X016775Y027994D01*
X016775Y028190D02*
X017365Y028190D01*
X017365Y028386D02*
X016775Y028386D01*
X016775Y028582D02*
X017365Y028582D01*
X017236Y025673D02*
X016646Y025673D01*
X017236Y025673D02*
X017236Y024689D01*
X016646Y024689D01*
X016646Y025673D01*
X016646Y024885D02*
X017236Y024885D01*
X017236Y025081D02*
X016646Y025081D01*
X016646Y025277D02*
X017236Y025277D01*
X017236Y025473D02*
X016646Y025473D01*
X016646Y025669D02*
X017236Y025669D01*
X019766Y015353D02*
X020356Y015353D01*
X020356Y014369D01*
X019766Y014369D01*
X019766Y015353D01*
X019766Y014565D02*
X020356Y014565D01*
X020356Y014761D02*
X019766Y014761D01*
X019766Y014957D02*
X020356Y014957D01*
X020356Y015153D02*
X019766Y015153D01*
X019766Y015349D02*
X020356Y015349D01*
X014356Y013249D02*
X013766Y013249D01*
X013766Y014233D01*
X014356Y014233D01*
X014356Y013249D01*
X014356Y013445D02*
X013766Y013445D01*
X013766Y013641D02*
X014356Y013641D01*
X014356Y013837D02*
X013766Y013837D01*
X013766Y014033D02*
X014356Y014033D01*
X014356Y014229D02*
X013766Y014229D01*
D30*
X013625Y016086D03*
X014501Y017021D03*
X014901Y016861D03*
X013981Y017501D03*
X012464Y018251D03*
X012110Y018488D03*
X011795Y018724D03*
X010630Y018805D03*
X009922Y020066D03*
X012740Y019826D03*
X013625Y023369D03*
X015461Y023941D03*
X015541Y023621D03*
X015421Y024301D03*
X014741Y025421D03*
X014741Y025781D03*
X014741Y026141D03*
X014381Y027341D03*
X015271Y028568D03*
X016381Y026125D03*
X019826Y027011D03*
X020741Y025781D03*
X020421Y025541D03*
X021061Y026021D03*
X022141Y027021D03*
X022501Y027181D03*
X023339Y027142D03*
X023468Y025929D03*
X023581Y028381D03*
X025138Y028470D03*
X028491Y025277D03*
X025929Y023468D03*
X025421Y021981D03*
X025061Y022141D03*
X025781Y021821D03*
X027221Y021421D03*
X027541Y021221D03*
X027821Y021021D03*
X029021Y020861D03*
X029752Y019608D03*
X027011Y019728D03*
X026027Y016283D03*
X024501Y016021D03*
X024541Y015661D03*
X024421Y016421D03*
X024901Y014221D03*
X024901Y013861D03*
X024901Y013501D03*
X025421Y012301D03*
X024557Y011121D03*
X023468Y013625D03*
X019925Y012641D03*
X018901Y013861D03*
X018581Y013661D03*
X019221Y014101D03*
X017501Y012621D03*
X017141Y012461D03*
X016821Y012301D03*
X016101Y011261D03*
X014852Y011383D03*
X016381Y013625D03*
X020125Y009940D03*
X020810Y003291D03*
X012543Y005062D03*
X005062Y012543D03*
X003291Y018842D03*
X011103Y024538D03*
X005062Y027110D03*
X010771Y033803D03*
X018842Y036362D03*
X019596Y029712D03*
X022701Y022941D03*
X023741Y022941D03*
X028571Y015175D03*
X034787Y012346D03*
X029078Y006047D03*
X036362Y020810D03*
X033803Y028881D03*
X027700Y034590D03*
X011463Y014634D03*
D31*
X011341Y014301D02*
X011981Y014621D01*
X014141Y014621D01*
X014061Y013741D01*
X014141Y014621D02*
X018141Y014621D01*
X020061Y016061D01*
X020621Y019101D01*
X021021Y022701D01*
X021981Y022701D01*
X021981Y021981D01*
X021942Y021942D01*
X021686Y021942D02*
X021661Y021968D01*
X021661Y022541D01*
X021181Y022301D01*
X020861Y019581D01*
X020621Y018061D01*
X020728Y014867D01*
X020061Y014861D01*
X020728Y014867D02*
X020781Y013261D01*
X020781Y010541D01*
X020381Y010141D01*
X020381Y009661D01*
X019821Y009661D01*
X019821Y010301D01*
X019341Y010781D01*
X019341Y011181D01*
X018941Y011581D01*
X018061Y011581D01*
X017581Y011421D01*
X017341Y010541D01*
X018421Y010261D01*
X018561Y010660D01*
X018319Y010725D02*
X018448Y011066D01*
X018736Y011066D01*
X018861Y010941D01*
X018861Y010541D01*
X018941Y010461D01*
X019236Y010174D01*
X019236Y005358D01*
X019181Y005101D01*
X018541Y004701D01*
X018056Y003384D01*
X018701Y003181D02*
X018701Y004301D01*
X019821Y004301D01*
X019826Y005653D01*
X019826Y006440D02*
X019826Y007228D01*
X019432Y007621D01*
X019432Y010193D01*
X019021Y010604D01*
X019021Y011021D01*
X018781Y011261D01*
X018251Y011263D01*
X018068Y010792D01*
X017817Y010860D02*
X017901Y011181D01*
X018141Y011421D01*
X018861Y011421D01*
X019181Y011101D01*
X019181Y010701D01*
X019629Y010253D01*
X019629Y008803D01*
X020417Y008015D01*
X020417Y004866D01*
X021598Y003684D01*
X021598Y003386D01*
X021596Y003384D01*
X021596Y002596D02*
X020456Y002047D01*
X019826Y002047D02*
X019821Y002621D01*
X018701Y003181D01*
X019196Y003727D02*
X019826Y003727D01*
X020456Y003727D01*
X020810Y003291D01*
X019196Y002047D02*
X018056Y002596D01*
X013137Y004702D02*
X012936Y006834D01*
X015397Y010968D01*
X016283Y011755D01*
X016677Y011657D01*
X016581Y011191D01*
X016339Y011256D02*
X016101Y011261D01*
X016283Y011952D02*
X016972Y011755D01*
X016832Y011124D01*
X017083Y011056D02*
X017267Y011854D01*
X016283Y012149D01*
X015003Y011165D01*
X013724Y010377D01*
X011952Y007425D01*
X011101Y007421D01*
X010072Y006471D01*
X010541Y005901D02*
X011261Y004941D01*
X010937Y004429D01*
X011482Y004114D02*
X012743Y004020D01*
X012543Y005062D02*
X012322Y005569D01*
X011777Y005884D01*
X011231Y006199D01*
X010541Y005901D02*
X011101Y006941D01*
X012061Y006461D01*
X012740Y007552D01*
X013133Y008234D02*
X014019Y009787D01*
X015200Y011066D01*
X016283Y011952D01*
X016821Y012301D02*
X017155Y013335D01*
X016914Y013400D02*
X017021Y013861D01*
X018021Y013541D01*
X017899Y013136D01*
X018150Y013069D01*
X018392Y013004D02*
X018581Y013661D01*
X018901Y013861D02*
X018643Y012937D01*
X018894Y012869D02*
X019221Y014101D01*
X019135Y012805D02*
X019925Y012641D01*
X021021Y014221D02*
X021021Y017981D01*
X021278Y017987D01*
X021226Y017935D01*
X021226Y017642D01*
X021285Y017584D01*
X022148Y017584D01*
X022206Y017642D01*
X022206Y017935D01*
X022148Y017994D01*
X021613Y017994D01*
X022538Y018013D01*
X022531Y017987D01*
X022531Y017553D01*
X022771Y017553D01*
X022771Y017513D01*
X022811Y017513D01*
X022811Y016958D01*
X022929Y016958D01*
X022965Y016968D01*
X022997Y016986D01*
X023023Y017012D01*
X023041Y017044D01*
X023051Y017080D01*
X023051Y017513D01*
X022811Y017513D01*
X022811Y017553D01*
X023051Y017553D01*
X023051Y017987D01*
X023047Y018001D01*
X023071Y018001D01*
X023071Y017057D01*
X023130Y016998D01*
X023452Y016998D01*
X023511Y017057D01*
X023511Y018010D01*
X023487Y018034D01*
X023597Y018036D01*
X023571Y018010D01*
X023571Y017057D01*
X023630Y016998D01*
X023651Y016998D01*
X023651Y016969D01*
X023363Y016681D01*
X021923Y016681D01*
X021841Y016599D01*
X021361Y016119D01*
X021361Y016024D01*
X021249Y016024D01*
X021190Y015965D01*
X021190Y014898D01*
X021249Y014840D01*
X021725Y014840D01*
X021784Y014898D01*
X021784Y015965D01*
X021725Y016024D01*
X021662Y016024D01*
X022039Y016401D01*
X022363Y016401D01*
X022323Y016361D01*
X022241Y016279D01*
X022241Y016016D01*
X022190Y015965D01*
X022190Y014898D01*
X022249Y014840D01*
X022725Y014840D01*
X022784Y014898D01*
X022784Y015965D01*
X022725Y016024D01*
X022521Y016024D01*
X022521Y016163D01*
X022599Y016241D01*
X023443Y016241D01*
X023559Y016241D01*
X024316Y016998D01*
X024452Y016998D01*
X024500Y017046D01*
X024388Y016641D01*
X024330Y016641D01*
X024201Y016512D01*
X024201Y016330D01*
X024280Y016251D01*
X023797Y014505D01*
X023778Y014485D01*
X023761Y014485D01*
X023725Y014476D01*
X023694Y014457D01*
X023631Y014395D01*
X023726Y014301D01*
X023725Y014301D01*
X023631Y014395D01*
X023569Y014332D01*
X023550Y014300D01*
X023549Y014295D01*
X022579Y014267D01*
X022579Y014292D01*
X022521Y014351D01*
X021454Y014351D01*
X021395Y014292D01*
X021395Y014232D01*
X021021Y014221D01*
X021021Y014279D02*
X021395Y014279D01*
X021021Y014357D02*
X023594Y014357D01*
X023621Y014421D02*
X023935Y014091D01*
X023468Y013625D01*
X024112Y014268D02*
X024901Y013501D01*
X025240Y013527D02*
X025633Y013429D01*
X026049Y013066D01*
X025865Y012882D02*
X025535Y013232D01*
X025240Y013232D01*
X024846Y012740D01*
X025043Y011362D01*
X025732Y009590D01*
X026519Y008234D01*
X026913Y007552D02*
X027581Y006381D01*
X026781Y005901D01*
X026701Y005821D01*
X027181Y004941D01*
X028461Y004861D01*
X028716Y004429D01*
X029261Y004744D02*
X029974Y005789D01*
X029580Y006471D02*
X027700Y007425D01*
X025240Y011558D01*
X025043Y012641D01*
X025338Y013035D01*
X025682Y012698D01*
X025505Y012521D02*
X025421Y012301D01*
X024649Y012740D02*
X025240Y013527D01*
X024901Y013861D02*
X024296Y014451D01*
X024480Y014635D02*
X024901Y014221D01*
X025501Y014221D02*
X026861Y015341D01*
X027821Y015261D01*
X028621Y014861D01*
X028941Y015261D01*
X028141Y015661D01*
X028381Y016461D01*
X028621Y017101D01*
X028890Y017729D01*
X028890Y018912D01*
X028621Y019181D01*
X026941Y019181D01*
X026461Y019661D01*
X026461Y019981D01*
X026061Y020381D01*
X026061Y021021D01*
X025741Y021341D01*
X024335Y021341D01*
X023734Y021942D01*
X023478Y021942D02*
X023501Y022541D01*
X024701Y023021D01*
X026781Y025661D01*
X027821Y025181D01*
X028701Y025661D01*
X028941Y025301D01*
X027861Y024541D01*
X027181Y023341D01*
X027981Y022061D01*
X029101Y022301D01*
X028781Y023421D01*
X028397Y023313D01*
X028461Y023072D02*
X028094Y022976D01*
X027897Y023369D01*
X028232Y024037D01*
X028772Y024455D01*
X033015Y026716D01*
X033981Y026141D01*
X034951Y026515D01*
X035632Y026909D02*
X035538Y028170D01*
X035223Y028716D02*
X034621Y028381D01*
X034941Y027341D01*
X033821Y026701D01*
X033741Y026781D01*
X033341Y027501D01*
X033181Y027501D01*
X032101Y026913D01*
X031419Y026519D02*
X030456Y025929D01*
X030062Y025436D01*
X028488Y024551D01*
X028094Y024194D01*
X027602Y023369D01*
X027995Y022680D01*
X028529Y022821D01*
X028596Y022569D02*
X027995Y022385D01*
X027405Y023369D01*
X027937Y024332D01*
X028429Y024707D01*
X029472Y025338D01*
X029669Y026125D01*
X032228Y027700D01*
X033181Y029580D01*
X033863Y029974D02*
X034908Y029261D01*
X033803Y028881D02*
X033454Y028421D01*
X033769Y027876D01*
X034083Y027330D01*
X029580Y033181D02*
X028684Y032425D01*
X027700Y032425D01*
X026125Y029669D01*
X025338Y029570D01*
X024649Y028488D01*
X023763Y027602D01*
X022877Y027602D01*
X022385Y027897D01*
X022569Y028596D01*
X022821Y028529D02*
X022680Y027995D01*
X023074Y027799D01*
X023665Y027799D01*
X024452Y028586D01*
X025240Y029767D01*
X025929Y030456D01*
X026519Y031419D01*
X026913Y032101D02*
X027581Y033181D01*
X028461Y032701D01*
X029101Y033821D01*
X028461Y034621D01*
X028716Y035223D01*
X029261Y034908D02*
X029974Y033863D01*
X028421Y033454D02*
X027876Y033768D01*
X027330Y034083D01*
X027700Y034590D01*
X028170Y035538D02*
X026909Y035632D01*
X026515Y034951D02*
X026617Y032818D01*
X024255Y028684D01*
X023566Y027995D01*
X023173Y027995D01*
X022976Y028094D01*
X023072Y028461D01*
X023313Y028397D02*
X023581Y028381D01*
X023821Y027421D02*
X022781Y027421D01*
X022061Y027901D01*
X022301Y029101D01*
X021301Y029381D01*
X021181Y029341D01*
X021092Y028992D01*
X021333Y028927D02*
X021204Y028488D01*
X020810Y028586D01*
X020810Y029275D01*
X020417Y029570D01*
X020417Y034590D01*
X021598Y035771D01*
X021596Y036269D01*
X021596Y037056D02*
X020456Y037605D01*
X019826Y037605D02*
X019821Y037021D01*
X020861Y036701D01*
X020861Y035341D01*
X019821Y035341D01*
X019826Y033999D01*
X019826Y033212D02*
X019826Y030653D01*
X020220Y030259D01*
X020220Y029472D01*
X020614Y029177D01*
X020614Y028389D01*
X021401Y028192D01*
X021584Y028860D01*
X021835Y028793D02*
X021499Y027897D01*
X020381Y028221D01*
X020381Y029101D01*
X020023Y029379D01*
X020023Y030062D01*
X019236Y030850D01*
X019236Y034590D01*
X018056Y036269D01*
X018056Y037056D02*
X019196Y037605D01*
X018842Y036362D02*
X019196Y035925D01*
X019826Y035925D01*
X020456Y035925D01*
X012936Y033015D02*
X014708Y029866D01*
X015102Y028094D01*
X015102Y027208D01*
X014314Y026027D01*
X013603Y026587D01*
X013787Y026771D02*
X014314Y026322D01*
X014905Y027208D01*
X014905Y027995D01*
X014708Y028488D01*
X013527Y030850D01*
X013133Y031419D01*
X012740Y032101D02*
X012061Y033261D01*
X012941Y033821D01*
X012781Y034141D01*
X012301Y034861D01*
X011261Y034781D01*
X010937Y035223D01*
X011482Y035538D02*
X012743Y035632D01*
X013137Y034951D02*
X013501Y034301D01*
X012936Y033015D01*
X012322Y034083D02*
X011777Y033768D01*
X011231Y033454D01*
X010771Y033803D01*
X010072Y033181D02*
X011952Y032228D01*
X014511Y028094D01*
X014511Y027897D01*
X014708Y027208D01*
X014314Y026617D01*
X013971Y026954D01*
X014147Y027131D02*
X014381Y027341D01*
X014741Y026141D02*
X015540Y025385D01*
X015717Y025561D02*
X016381Y026125D01*
X015717Y025561D02*
X016021Y025261D01*
X015301Y024541D01*
X014996Y024840D01*
X014812Y024656D01*
X014635Y024479D02*
X014941Y024221D01*
X015421Y024301D01*
X015461Y023941D02*
X014781Y023981D01*
X014452Y024296D01*
X014268Y024112D02*
X014621Y023821D01*
X015541Y023621D01*
X014861Y023341D02*
X019501Y023341D01*
X019981Y022861D01*
X022221Y022861D01*
X022198Y021942D01*
X022454Y021942D02*
X022454Y020789D01*
X022454Y020788D01*
X022461Y020781D01*
X022454Y020789D02*
X021716Y020789D01*
X021716Y020289D02*
X022710Y020289D01*
X022710Y021942D01*
X022966Y021942D02*
X023021Y022941D01*
X023741Y023821D01*
X024141Y024381D01*
X024141Y025341D01*
X022461Y025901D01*
X022497Y026317D01*
X022582Y026716D01*
X023339Y027142D01*
X023821Y027421D02*
X024781Y028381D01*
X025101Y028861D01*
X025501Y028621D01*
X025021Y027581D01*
X024301Y026541D01*
X024301Y024061D01*
X023821Y023501D01*
X023261Y022781D01*
X023222Y021942D01*
X023741Y022941D02*
X026061Y025581D01*
X025160Y027021D01*
X023468Y025929D02*
X022739Y026252D01*
X022246Y026384D02*
X022141Y025901D01*
X022941Y025341D01*
X022966Y024797D01*
X023222Y024797D02*
X023181Y024221D01*
X021181Y023981D01*
X020781Y025261D01*
X020741Y025781D01*
X021010Y026715D01*
X021261Y026648D02*
X021061Y026021D01*
X022461Y025181D01*
X022454Y024797D01*
X022198Y024797D02*
X022141Y025181D01*
X021981Y025261D01*
X021341Y025261D01*
X021101Y025181D01*
X021430Y024797D02*
X021401Y024274D01*
X021058Y023704D02*
X020421Y025541D01*
X020758Y026783D01*
X020517Y026847D02*
X020621Y027341D01*
X021661Y027101D01*
X021502Y026583D01*
X021753Y026516D01*
X021995Y026451D02*
X021821Y025821D01*
X022701Y025261D01*
X022710Y024797D01*
X023478Y024797D02*
X023421Y024061D01*
X021058Y023704D01*
X020701Y023661D02*
X020621Y024381D01*
X020221Y025181D01*
X019236Y025732D01*
X019216Y024551D02*
X020374Y024274D01*
X020701Y023661D02*
X017501Y023821D01*
X016941Y025181D01*
X017821Y024701D02*
X018247Y024461D01*
X018468Y024551D01*
X019826Y027011D02*
X020517Y026847D01*
X021995Y026451D02*
X022141Y027021D01*
X022501Y027181D02*
X022246Y026384D01*
X023734Y024797D02*
X023581Y023981D01*
X022701Y022941D01*
X021430Y021991D02*
X021431Y021591D01*
X021421Y021421D01*
X022941Y020781D02*
X023291Y020431D01*
X023291Y019593D01*
X023291Y018671D01*
X023421Y018541D01*
X026387Y018541D01*
X025987Y018061D02*
X024781Y018061D01*
X024461Y018381D01*
X022941Y018381D01*
X022791Y018531D01*
X022791Y019593D01*
X022781Y019603D01*
X022781Y020289D01*
X022710Y020289D01*
X022301Y019741D02*
X021764Y019741D01*
X021716Y019789D01*
X021309Y019789D01*
X021101Y019581D01*
X021289Y019289D02*
X021716Y019289D01*
X021289Y019289D02*
X021101Y019101D01*
X020141Y019581D02*
X020141Y020528D01*
X019988Y020681D01*
X022301Y019741D02*
X022461Y019581D01*
X022461Y018381D01*
X022701Y018141D01*
X023181Y018141D01*
X023261Y018061D01*
X023261Y017563D01*
X023291Y017533D01*
X023511Y017499D02*
X023571Y017499D01*
X023571Y017421D02*
X023511Y017421D01*
X023511Y017342D02*
X023571Y017342D01*
X023571Y017264D02*
X023511Y017264D01*
X023511Y017185D02*
X023571Y017185D01*
X023571Y017106D02*
X023511Y017106D01*
X023482Y017028D02*
X023600Y017028D01*
X023631Y016949D02*
X021021Y016949D01*
X021021Y016871D02*
X023553Y016871D01*
X023474Y016792D02*
X021021Y016792D01*
X021021Y016714D02*
X023396Y016714D01*
X023421Y016541D02*
X023791Y016911D01*
X023791Y017533D01*
X023571Y017578D02*
X023511Y017578D01*
X023511Y017656D02*
X023571Y017656D01*
X023571Y017735D02*
X023511Y017735D01*
X023511Y017813D02*
X023571Y017813D01*
X023571Y017892D02*
X023511Y017892D01*
X023511Y017970D02*
X023571Y017970D01*
X023071Y017970D02*
X023051Y017970D01*
X023051Y017892D02*
X023071Y017892D01*
X023071Y017813D02*
X023051Y017813D01*
X023051Y017735D02*
X023071Y017735D01*
X023071Y017656D02*
X023051Y017656D01*
X023051Y017578D02*
X023071Y017578D01*
X023071Y017499D02*
X023051Y017499D01*
X023051Y017421D02*
X023071Y017421D01*
X023071Y017342D02*
X023051Y017342D01*
X023051Y017264D02*
X023071Y017264D01*
X023071Y017185D02*
X023051Y017185D01*
X023051Y017106D02*
X023071Y017106D01*
X023100Y017028D02*
X023032Y017028D01*
X022811Y017028D02*
X022771Y017028D01*
X022771Y016958D02*
X022771Y017513D01*
X022531Y017513D01*
X022531Y017080D01*
X022541Y017044D01*
X022559Y017012D01*
X022585Y016986D01*
X022617Y016968D01*
X022653Y016958D01*
X022771Y016958D01*
X022791Y016871D02*
X022781Y016861D01*
X022791Y016871D02*
X022791Y017533D01*
X022771Y017499D02*
X022811Y017499D01*
X022811Y017421D02*
X022771Y017421D01*
X022771Y017342D02*
X022811Y017342D01*
X022811Y017264D02*
X022771Y017264D01*
X022771Y017185D02*
X022811Y017185D01*
X022811Y017106D02*
X022771Y017106D01*
X022550Y017028D02*
X021021Y017028D01*
X021021Y017106D02*
X021262Y017106D01*
X021285Y017084D02*
X022148Y017084D01*
X022206Y017142D01*
X022206Y017435D01*
X022148Y017494D01*
X021285Y017494D01*
X021226Y017435D01*
X021226Y017142D01*
X021285Y017084D01*
X021226Y017185D02*
X021021Y017185D01*
X021021Y017264D02*
X021226Y017264D01*
X021226Y017342D02*
X021021Y017342D01*
X021021Y017421D02*
X021226Y017421D01*
X021021Y017499D02*
X022531Y017499D01*
X022531Y017421D02*
X022206Y017421D01*
X022206Y017342D02*
X022531Y017342D01*
X022531Y017264D02*
X022206Y017264D01*
X022206Y017185D02*
X022531Y017185D01*
X022531Y017106D02*
X022170Y017106D01*
X022206Y017656D02*
X022531Y017656D01*
X022531Y017578D02*
X021021Y017578D01*
X021021Y017656D02*
X021226Y017656D01*
X021226Y017735D02*
X021021Y017735D01*
X021021Y017813D02*
X021226Y017813D01*
X021226Y017892D02*
X021021Y017892D01*
X021021Y017970D02*
X021262Y017970D01*
X022171Y017970D02*
X022531Y017970D01*
X022531Y017892D02*
X022206Y017892D01*
X022206Y017813D02*
X022531Y017813D01*
X022531Y017735D02*
X022206Y017735D01*
X021877Y016635D02*
X021021Y016635D01*
X021021Y016557D02*
X021799Y016557D01*
X021720Y016478D02*
X021021Y016478D01*
X021021Y016400D02*
X021642Y016400D01*
X021563Y016321D02*
X021021Y016321D01*
X021021Y016242D02*
X021484Y016242D01*
X021406Y016164D02*
X021021Y016164D01*
X021021Y016085D02*
X021361Y016085D01*
X021501Y016061D02*
X021981Y016541D01*
X023421Y016541D01*
X023501Y016381D02*
X024291Y017171D01*
X024291Y017533D01*
X024482Y017028D02*
X024495Y017028D01*
X024474Y016949D02*
X024267Y016949D01*
X024189Y016871D02*
X024452Y016871D01*
X024430Y016792D02*
X024110Y016792D01*
X024032Y016714D02*
X024408Y016714D01*
X024324Y016635D02*
X023953Y016635D01*
X023875Y016557D02*
X024246Y016557D01*
X024201Y016478D02*
X023796Y016478D01*
X023718Y016400D02*
X024201Y016400D01*
X024210Y016321D02*
X023639Y016321D01*
X023560Y016242D02*
X024278Y016242D01*
X024256Y016164D02*
X022522Y016164D01*
X022521Y016085D02*
X024235Y016085D01*
X024213Y016007D02*
X022742Y016007D01*
X022784Y015928D02*
X024191Y015928D01*
X024169Y015850D02*
X022784Y015850D01*
X022784Y015771D02*
X024148Y015771D01*
X024126Y015693D02*
X022784Y015693D01*
X022784Y015614D02*
X024104Y015614D01*
X024083Y015536D02*
X022784Y015536D01*
X022784Y015457D02*
X024061Y015457D01*
X024039Y015379D02*
X022784Y015379D01*
X022784Y015300D02*
X024017Y015300D01*
X023996Y015221D02*
X022784Y015221D01*
X022784Y015143D02*
X023974Y015143D01*
X023952Y015064D02*
X022784Y015064D01*
X022784Y014986D02*
X023931Y014986D01*
X023909Y014907D02*
X022784Y014907D01*
X022487Y015432D02*
X022381Y015538D01*
X022381Y016221D01*
X022541Y016381D01*
X023501Y016381D01*
X024421Y016421D02*
X025385Y015540D01*
X025561Y015717D02*
X026027Y016283D01*
X025201Y015357D02*
X024501Y016021D01*
X024541Y015661D02*
X025017Y015173D01*
X024840Y014996D02*
X024656Y014812D01*
X024381Y015101D01*
X023621Y014421D01*
X023672Y014436D02*
X021021Y014436D01*
X021021Y014515D02*
X023800Y014515D01*
X023822Y014593D02*
X021021Y014593D01*
X021021Y014672D02*
X023844Y014672D01*
X023865Y014750D02*
X021021Y014750D01*
X021021Y014829D02*
X023887Y014829D01*
X023669Y014357D02*
X023668Y014357D01*
X022986Y014279D02*
X022579Y014279D01*
X022190Y014907D02*
X021784Y014907D01*
X021784Y014986D02*
X022190Y014986D01*
X022190Y015064D02*
X021784Y015064D01*
X021784Y015143D02*
X022190Y015143D01*
X022190Y015221D02*
X021784Y015221D01*
X021784Y015300D02*
X022190Y015300D01*
X022190Y015379D02*
X021784Y015379D01*
X021784Y015457D02*
X022190Y015457D01*
X022190Y015536D02*
X021784Y015536D01*
X021784Y015614D02*
X022190Y015614D01*
X022190Y015693D02*
X021784Y015693D01*
X021784Y015771D02*
X022190Y015771D01*
X022190Y015850D02*
X021784Y015850D01*
X021784Y015928D02*
X022190Y015928D01*
X022232Y016007D02*
X021742Y016007D01*
X021723Y016085D02*
X022241Y016085D01*
X022241Y016164D02*
X021802Y016164D01*
X021880Y016242D02*
X022241Y016242D01*
X022283Y016321D02*
X021959Y016321D01*
X022038Y016400D02*
X022362Y016400D01*
X022323Y016361D02*
X022323Y016361D01*
X021501Y016061D02*
X021501Y015446D01*
X021487Y015432D01*
X021190Y015457D02*
X021021Y015457D01*
X021021Y015379D02*
X021190Y015379D01*
X021190Y015300D02*
X021021Y015300D01*
X021021Y015221D02*
X021190Y015221D01*
X021190Y015143D02*
X021021Y015143D01*
X021021Y015064D02*
X021190Y015064D01*
X021190Y014986D02*
X021021Y014986D01*
X021021Y014907D02*
X021190Y014907D01*
X021190Y015536D02*
X021021Y015536D01*
X021021Y015614D02*
X021190Y015614D01*
X021190Y015693D02*
X021021Y015693D01*
X021021Y015771D02*
X021190Y015771D01*
X021190Y015850D02*
X021021Y015850D01*
X021021Y015928D02*
X021190Y015928D01*
X021232Y016007D02*
X021021Y016007D01*
X017658Y013201D02*
X017501Y012621D01*
X017141Y012461D02*
X017406Y013268D01*
X016914Y013400D02*
X016381Y013625D01*
X013625Y016086D02*
X013400Y016914D01*
X013335Y017155D02*
X013341Y017181D01*
X013741Y017181D01*
X014141Y016781D01*
X014621Y016781D01*
X014701Y016861D01*
X014901Y016861D01*
X014501Y017021D02*
X013741Y017341D01*
X013581Y017501D01*
X013268Y017406D01*
X013201Y017657D02*
X013661Y017741D01*
X013981Y017501D01*
X013461Y018261D02*
X013221Y019261D01*
X012805Y019135D01*
X012740Y019826D01*
X012870Y018894D02*
X011795Y018724D01*
X012110Y018488D02*
X012937Y018643D01*
X013004Y018392D02*
X012464Y018251D01*
X013069Y018150D02*
X013136Y017899D01*
X013069Y018150D02*
X013461Y018261D01*
X011741Y017661D02*
X012461Y016301D01*
X012461Y015821D01*
X011821Y015181D01*
X011101Y014701D01*
X011341Y014301D01*
X011263Y015003D02*
X011657Y015299D01*
X012247Y016283D01*
X011755Y017267D01*
X011056Y017083D01*
X011124Y016832D02*
X011657Y016972D01*
X012051Y016283D01*
X011460Y015397D01*
X011165Y015200D01*
X010180Y014511D01*
X008234Y013133D01*
X007552Y012740D02*
X006381Y012141D01*
X006861Y011181D01*
X006141Y010621D01*
X005421Y010781D01*
X005021Y011181D01*
X004429Y010937D01*
X004114Y011482D02*
X004020Y012743D01*
X004702Y013137D02*
X006834Y012936D01*
X011066Y015397D01*
X011263Y015495D01*
X011755Y016381D01*
X011558Y016677D01*
X011191Y016581D01*
X011256Y016339D02*
X010861Y016221D01*
X010541Y017341D01*
X011741Y017661D01*
X011541Y018021D02*
X011301Y018941D01*
X011165Y019272D01*
X010377Y019728D01*
X009393Y019826D01*
X008803Y020417D01*
X005062Y020417D01*
X004461Y021341D01*
X003384Y021596D01*
X003021Y020941D02*
X002701Y019821D01*
X002047Y019826D01*
X002047Y019196D02*
X002596Y018056D01*
X003384Y018056D02*
X005062Y019236D01*
X010180Y019236D01*
X010981Y018901D01*
X011101Y018421D01*
X010725Y018319D01*
X010660Y018561D02*
X010630Y018805D01*
X011066Y019076D02*
X011141Y018901D01*
X011301Y018221D01*
X010792Y018068D01*
X010860Y017817D02*
X011541Y018021D01*
X011066Y019076D02*
X010279Y019531D01*
X009196Y019531D01*
X008901Y019826D01*
X006440Y019826D01*
X005653Y019826D02*
X004301Y019821D01*
X004301Y020941D01*
X003021Y020941D01*
X002596Y021596D02*
X002047Y020456D01*
X003727Y020456D02*
X003727Y019826D01*
X003727Y019196D01*
X003291Y018842D01*
X005062Y012543D02*
X005569Y012322D01*
X005884Y011777D01*
X006199Y011231D01*
X006471Y010072D02*
X007425Y011362D01*
X007228Y011952D01*
X009984Y013527D01*
X010574Y014511D01*
X011263Y015003D01*
X005789Y009679D02*
X004744Y010391D01*
X009679Y005789D02*
X010391Y004744D01*
X025141Y009393D02*
X024846Y011263D01*
X024649Y012740D01*
X025501Y014221D02*
X026621Y013021D01*
X027421Y013821D01*
X027131Y014147D01*
X026954Y013971D02*
X026716Y014314D01*
X027110Y014708D01*
X027799Y014610D01*
X028094Y014413D01*
X032129Y012051D01*
X032701Y010381D01*
X033181Y010072D01*
X033863Y009679D02*
X034908Y010391D01*
X035223Y010937D02*
X034701Y011181D01*
X033821Y010541D01*
X032781Y011181D01*
X033261Y012061D01*
X032101Y012740D01*
X031419Y013133D02*
X030062Y013921D01*
X029501Y013821D01*
X028192Y014610D01*
X027799Y014806D01*
X027011Y014905D01*
X026322Y014314D01*
X026771Y013787D01*
X026587Y013603D02*
X026027Y014314D01*
X026913Y015102D01*
X027741Y015021D01*
X028301Y014781D01*
X029501Y014061D01*
X030456Y014314D01*
X033015Y012936D01*
X034951Y013137D01*
X035632Y012743D02*
X035538Y011482D01*
X034787Y012346D02*
X034083Y012322D01*
X033769Y011777D01*
X033454Y011231D01*
X029078Y006047D02*
X028421Y006199D01*
X027876Y005884D01*
X027330Y005569D01*
X026515Y004702D02*
X026141Y005821D01*
X026716Y006834D01*
X025141Y009393D01*
X026909Y004020D02*
X028170Y004114D01*
X027503Y015641D02*
X027503Y016167D01*
X027581Y016167D01*
X027581Y016915D02*
X027661Y016915D01*
X026387Y017661D02*
X025987Y018061D01*
X027011Y019728D02*
X026847Y020517D01*
X026381Y020421D01*
X026181Y021381D01*
X026584Y021502D01*
X026516Y021753D01*
X026451Y021995D02*
X025781Y021821D01*
X025421Y021981D02*
X026384Y022246D01*
X026317Y022497D02*
X025061Y022141D01*
X026252Y022739D02*
X025929Y023468D01*
X027239Y024506D02*
X026931Y024910D01*
X028192Y021696D02*
X028793Y021835D01*
X028860Y021584D02*
X028389Y021401D01*
X028389Y020712D01*
X029373Y020121D01*
X030850Y020023D01*
X032031Y019826D01*
X033212Y019826D01*
X033999Y019826D02*
X035341Y019821D01*
X035341Y018861D01*
X035421Y018781D01*
X036621Y018781D01*
X037021Y019821D01*
X037605Y019826D01*
X037605Y019196D02*
X037056Y018056D01*
X036269Y018056D02*
X035581Y018061D01*
X034590Y019236D01*
X031243Y019236D01*
X030259Y019826D01*
X029373Y019925D01*
X028192Y020614D01*
X028192Y021696D01*
X028586Y021204D02*
X028586Y020810D01*
X029472Y020417D01*
X034590Y020417D01*
X036269Y021596D01*
X037056Y021596D02*
X037605Y020456D01*
X036362Y020810D02*
X035925Y020456D01*
X035925Y019826D01*
X035925Y019196D01*
X029021Y020861D02*
X028992Y021091D01*
X028927Y021333D02*
X028586Y021204D01*
X027821Y021021D02*
X026783Y020758D01*
X026716Y021010D02*
X027541Y021221D01*
X027221Y021421D02*
X026648Y021261D01*
X025416Y020289D02*
X025404Y020301D01*
X024301Y020301D02*
X024291Y020291D01*
X016760Y020681D02*
X016760Y021800D01*
X016701Y021741D01*
X014861Y023341D02*
X013661Y023021D01*
X010701Y024461D01*
X010941Y024861D01*
X011821Y024461D01*
X013021Y024381D01*
X014061Y025581D01*
X013021Y026701D01*
X012221Y025821D01*
X012521Y025505D01*
X012698Y025682D02*
X013035Y025338D01*
X012740Y025043D01*
X011952Y025043D01*
X011409Y025324D01*
X011558Y025240D01*
X011409Y025324D02*
X007326Y027700D01*
X007341Y028701D01*
X006471Y029580D01*
X005789Y029974D02*
X004744Y029261D01*
X004429Y028716D02*
X004861Y028461D01*
X005901Y029021D01*
X006941Y028461D01*
X006461Y027581D01*
X007552Y026913D01*
X008234Y026519D02*
X008803Y026125D01*
X010574Y025535D01*
X011460Y025043D01*
X011952Y024846D01*
X012838Y024846D01*
X013330Y025338D01*
X012882Y025865D01*
X013066Y026049D02*
X013625Y025338D01*
X012936Y024649D01*
X011854Y024649D01*
X011362Y024846D01*
X010771Y025141D01*
X009787Y024944D01*
X006932Y026519D01*
X004702Y026515D01*
X004020Y026909D02*
X004114Y028170D01*
X005062Y027110D02*
X005569Y027330D01*
X005884Y027876D01*
X006199Y028421D01*
X009679Y033863D02*
X010391Y034908D01*
X014741Y025781D02*
X015357Y025201D01*
X015173Y025017D02*
X014741Y025421D01*
X014091Y023935D02*
X013625Y023369D01*
X013017Y022265D02*
X013391Y021891D01*
X013391Y020951D01*
X013433Y020909D01*
X013292Y021235D01*
X013433Y020909D02*
X013532Y020681D01*
X013017Y022265D02*
X011641Y022265D01*
D32*
X021430Y021991D02*
X021430Y021942D01*
X024291Y020291D02*
X024291Y019593D01*
X024301Y020301D02*
X025404Y020301D01*
X025416Y020289D02*
X025673Y020289D01*
X025981Y019981D01*
X025981Y019735D01*
X027175Y018541D01*
X027175Y017661D01*
X027661Y017661D01*
X027661Y016915D01*
X027661Y017661D02*
X028381Y017661D01*
D33*
X028381Y017661D03*
X022781Y016861D03*
X021101Y019101D03*
X021101Y019581D03*
X020141Y019581D03*
X021421Y021421D03*
X022461Y020781D03*
X022941Y020781D03*
X021401Y024274D03*
X021101Y025181D03*
X020374Y024274D03*
X020221Y025181D03*
X017821Y024701D03*
X016701Y021741D03*
X018301Y028941D03*
D34*
X019826Y028684D03*
X010968Y019826D03*
X019826Y010968D03*
X028684Y019826D03*
D35*
X029581Y019421D02*
X029741Y019581D01*
X029581Y019421D02*
X027181Y019421D01*
X027011Y019591D01*
X027011Y019728D01*
X026027Y016283D02*
X027503Y015641D01*
X028571Y015175D01*
X023468Y013625D02*
X024557Y011121D01*
X020461Y010701D02*
X020141Y010381D01*
X020141Y009981D01*
X020461Y010701D02*
X020461Y012141D01*
X019961Y012641D01*
X019925Y012641D01*
X016381Y013625D02*
X014852Y011383D01*
X011463Y014634D02*
X013625Y016086D01*
X012701Y019821D02*
X011961Y019821D01*
X011391Y020391D01*
X010655Y020391D01*
X010585Y020461D01*
X011641Y021517D01*
X010585Y020461D02*
X010317Y020461D01*
X009922Y020066D01*
X011103Y024538D02*
X013625Y023369D01*
X016381Y026125D02*
X015720Y027579D01*
X017070Y028094D01*
X018448Y028094D02*
X018448Y025732D01*
X019216Y024551D01*
X019826Y027011D02*
X019205Y028666D01*
X019328Y028998D01*
X019596Y029712D01*
X018301Y028941D02*
X018448Y028094D01*
X015720Y027579D02*
X015271Y028568D01*
X023468Y025929D02*
X025138Y028470D01*
X027239Y024506D02*
X028491Y025277D01*
X027239Y024506D02*
X025929Y023468D01*
M02*
