G75*
G70*
%OFA0B0*%
%FSLAX24Y24*%
%IPPOS*%
%LPD*%
%AMOC8*
5,1,8,0,0,1.08239X$1,22.5*
%
%ADD10C,0.0010*%
D10*
X007661Y011913D02*
X007686Y011790D01*
X007705Y011666D01*
X007717Y011541D01*
X007724Y011416D01*
X007724Y011291D01*
X007719Y011166D01*
X007707Y011041D01*
X007689Y010917D01*
X007666Y010794D01*
X007636Y010673D01*
X007600Y010553D01*
X007559Y010434D01*
X007511Y010318D01*
X007458Y010205D01*
X007400Y010094D01*
X007336Y009986D01*
X007268Y009881D01*
X007194Y009780D01*
X007115Y009683D01*
X007032Y009589D01*
X006944Y009500D01*
X006852Y009415D01*
X006755Y009335D01*
X006655Y009259D01*
X006552Y009189D01*
X006445Y009124D01*
X006335Y009064D01*
X006222Y009009D01*
X006107Y008960D01*
X005990Y008917D01*
X005870Y008879D01*
X005749Y008847D01*
X005626Y008822D01*
X005503Y008802D01*
X005378Y008788D01*
X005253Y008781D01*
X005128Y008779D01*
X005003Y008784D01*
X004878Y008795D01*
X004754Y008812D01*
X004630Y008834D01*
X004509Y008863D01*
X004388Y008898D01*
X004270Y008939D01*
X004153Y008985D01*
X004039Y009037D01*
X003928Y009095D01*
X003820Y009158D01*
X003715Y009226D01*
X003613Y009299D01*
X003515Y009377D01*
X003421Y009460D01*
X003331Y009547D01*
X003246Y009639D01*
X003165Y009734D01*
X003088Y009834D01*
X003017Y009937D01*
X002951Y010043D01*
X002890Y010152D01*
X002835Y010265D01*
X002785Y010380D01*
X002741Y010497D01*
X002702Y010616D01*
X002670Y010737D01*
X002643Y010860D01*
X002622Y010983D01*
X002608Y011107D01*
X002599Y011232D01*
X002597Y011358D01*
X002601Y011483D01*
X002611Y011608D01*
X002627Y011732D01*
X002649Y011855D01*
X002677Y011977D01*
X002711Y012098D01*
X002750Y012217D01*
X002796Y012333D01*
X002847Y012448D01*
X002904Y012560D01*
X002966Y012668D01*
X003033Y012774D01*
X003106Y012876D01*
X003183Y012975D01*
X003265Y013069D01*
X003352Y013160D01*
X003443Y013246D01*
X003538Y013328D01*
X003637Y013405D01*
X003739Y013477D01*
X003845Y013544D01*
X003954Y013605D01*
X004066Y013661D01*
X004181Y013712D01*
X004297Y013757D01*
X004416Y013796D01*
X004537Y013830D01*
X004659Y013857D01*
X004783Y013879D01*
X004907Y013894D01*
X005032Y013904D01*
X005157Y013907D01*
X005282Y013904D01*
X005407Y013895D01*
X005532Y013880D01*
X005655Y013859D01*
X005777Y013832D01*
X005898Y013799D01*
X006017Y013760D01*
X006134Y013715D01*
X006249Y013665D01*
X006361Y013609D01*
X006470Y013547D01*
X006576Y013481D01*
X006679Y013409D01*
X006778Y013333D01*
X006874Y013251D01*
X006873Y013251D02*
X010929Y015614D01*
X011716Y014236D02*
X007661Y011913D01*
X011913Y007661D02*
X014236Y011716D01*
X015614Y010929D02*
X013251Y006873D01*
X013251Y006874D02*
X013333Y006778D01*
X013409Y006679D01*
X013481Y006576D01*
X013547Y006470D01*
X013609Y006361D01*
X013665Y006249D01*
X013715Y006134D01*
X013760Y006017D01*
X013799Y005898D01*
X013832Y005777D01*
X013859Y005655D01*
X013880Y005532D01*
X013895Y005407D01*
X013904Y005282D01*
X013907Y005157D01*
X013904Y005032D01*
X013894Y004907D01*
X013879Y004783D01*
X013857Y004659D01*
X013830Y004537D01*
X013796Y004416D01*
X013757Y004297D01*
X013712Y004181D01*
X013661Y004066D01*
X013605Y003954D01*
X013544Y003845D01*
X013477Y003739D01*
X013405Y003637D01*
X013328Y003538D01*
X013246Y003443D01*
X013160Y003352D01*
X013069Y003265D01*
X012975Y003183D01*
X012876Y003106D01*
X012774Y003033D01*
X012668Y002966D01*
X012560Y002904D01*
X012448Y002847D01*
X012333Y002796D01*
X012217Y002750D01*
X012098Y002711D01*
X011977Y002677D01*
X011855Y002649D01*
X011732Y002627D01*
X011608Y002611D01*
X011483Y002601D01*
X011358Y002597D01*
X011232Y002599D01*
X011107Y002608D01*
X010983Y002622D01*
X010860Y002643D01*
X010737Y002670D01*
X010616Y002702D01*
X010497Y002741D01*
X010380Y002785D01*
X010265Y002835D01*
X010152Y002890D01*
X010043Y002951D01*
X009937Y003017D01*
X009834Y003088D01*
X009734Y003165D01*
X009639Y003246D01*
X009547Y003331D01*
X009460Y003421D01*
X009377Y003515D01*
X009299Y003613D01*
X009226Y003715D01*
X009158Y003820D01*
X009095Y003928D01*
X009037Y004039D01*
X008985Y004153D01*
X008939Y004270D01*
X008898Y004388D01*
X008863Y004509D01*
X008834Y004630D01*
X008812Y004754D01*
X008795Y004878D01*
X008784Y005003D01*
X008779Y005128D01*
X008781Y005253D01*
X008788Y005378D01*
X008802Y005503D01*
X008822Y005626D01*
X008847Y005749D01*
X008879Y005870D01*
X008917Y005990D01*
X008960Y006107D01*
X009009Y006222D01*
X009064Y006335D01*
X009124Y006445D01*
X009189Y006552D01*
X009259Y006655D01*
X009335Y006755D01*
X009415Y006852D01*
X009500Y006944D01*
X009589Y007032D01*
X009683Y007115D01*
X009780Y007194D01*
X009881Y007268D01*
X009986Y007336D01*
X010094Y007400D01*
X010205Y007458D01*
X010318Y007511D01*
X010434Y007559D01*
X010553Y007600D01*
X010673Y007636D01*
X010794Y007666D01*
X010917Y007689D01*
X011041Y007707D01*
X011166Y007719D01*
X011291Y007724D01*
X011416Y007724D01*
X011541Y007717D01*
X011666Y007705D01*
X011790Y007686D01*
X011913Y007661D01*
X019039Y005338D02*
X019039Y010023D01*
X020614Y010023D02*
X020614Y005338D01*
X020613Y005338D02*
X020732Y005297D01*
X020848Y005250D01*
X020961Y005197D01*
X021072Y005139D01*
X021180Y005076D01*
X021284Y005007D01*
X021386Y004933D01*
X021483Y004855D01*
X021576Y004772D01*
X021666Y004684D01*
X021751Y004592D01*
X021831Y004497D01*
X021907Y004397D01*
X021977Y004294D01*
X022043Y004187D01*
X022103Y004077D01*
X022158Y003965D01*
X022207Y003850D01*
X022251Y003733D01*
X022289Y003613D01*
X022321Y003492D01*
X022347Y003370D01*
X022367Y003247D01*
X022381Y003122D01*
X022389Y002997D01*
X022391Y002872D01*
X022387Y002747D01*
X022376Y002622D01*
X022360Y002498D01*
X022337Y002375D01*
X022309Y002253D01*
X022275Y002133D01*
X022234Y002015D01*
X022189Y001898D01*
X022137Y001784D01*
X022080Y001673D01*
X022018Y001564D01*
X021950Y001459D01*
X021877Y001357D01*
X021800Y001259D01*
X021718Y001165D01*
X021631Y001075D01*
X021540Y000989D01*
X021445Y000907D01*
X021346Y000831D01*
X021243Y000759D01*
X021137Y000693D01*
X021028Y000631D01*
X020916Y000575D01*
X020802Y000525D01*
X020685Y000480D01*
X020566Y000441D01*
X020445Y000408D01*
X020323Y000381D01*
X020200Y000359D01*
X020076Y000344D01*
X019951Y000335D01*
X019826Y000332D01*
X019701Y000335D01*
X019576Y000344D01*
X019452Y000359D01*
X019329Y000381D01*
X019207Y000408D01*
X019086Y000441D01*
X018967Y000480D01*
X018850Y000525D01*
X018736Y000575D01*
X018624Y000631D01*
X018515Y000693D01*
X018409Y000759D01*
X018306Y000831D01*
X018207Y000907D01*
X018112Y000989D01*
X018021Y001075D01*
X017934Y001165D01*
X017852Y001259D01*
X017775Y001357D01*
X017702Y001459D01*
X017634Y001564D01*
X017572Y001673D01*
X017515Y001784D01*
X017463Y001898D01*
X017418Y002015D01*
X017377Y002133D01*
X017343Y002253D01*
X017315Y002375D01*
X017292Y002498D01*
X017276Y002622D01*
X017265Y002747D01*
X017261Y002872D01*
X017263Y002997D01*
X017271Y003122D01*
X017285Y003247D01*
X017305Y003370D01*
X017331Y003492D01*
X017363Y003613D01*
X017401Y003733D01*
X017445Y003850D01*
X017494Y003965D01*
X017549Y004077D01*
X017609Y004187D01*
X017675Y004294D01*
X017745Y004397D01*
X017821Y004497D01*
X017901Y004592D01*
X017986Y004684D01*
X018076Y004772D01*
X018169Y004855D01*
X018266Y004933D01*
X018368Y005007D01*
X018472Y005076D01*
X018580Y005139D01*
X018691Y005197D01*
X018804Y005250D01*
X018920Y005297D01*
X019039Y005338D01*
X024039Y010929D02*
X026401Y006873D01*
X027740Y007661D02*
X025417Y011716D01*
X027936Y014236D02*
X031991Y011913D01*
X032779Y013251D02*
X028724Y015614D01*
X029629Y019039D02*
X034314Y019039D01*
X034314Y020614D02*
X029629Y020614D01*
X028724Y024039D02*
X032779Y026401D01*
X031991Y027740D02*
X027936Y025417D01*
X025417Y027936D02*
X027740Y031991D01*
X026401Y032779D02*
X024039Y028724D01*
X020614Y029629D02*
X020614Y034314D01*
X019039Y034314D02*
X019039Y029629D01*
X015614Y028724D02*
X013251Y032779D01*
X011913Y031991D02*
X014236Y027936D01*
X011716Y025417D02*
X007661Y027740D01*
X006873Y026362D02*
X010929Y024039D01*
X010023Y020614D02*
X005338Y020614D01*
X005338Y019039D02*
X010023Y019039D01*
X005338Y019039D02*
X005297Y018920D01*
X005250Y018804D01*
X005197Y018691D01*
X005139Y018580D01*
X005076Y018472D01*
X005007Y018368D01*
X004933Y018266D01*
X004855Y018169D01*
X004772Y018076D01*
X004684Y017986D01*
X004592Y017901D01*
X004497Y017821D01*
X004397Y017745D01*
X004294Y017675D01*
X004187Y017609D01*
X004077Y017549D01*
X003965Y017494D01*
X003850Y017445D01*
X003733Y017401D01*
X003613Y017363D01*
X003492Y017331D01*
X003370Y017305D01*
X003247Y017285D01*
X003122Y017271D01*
X002997Y017263D01*
X002872Y017261D01*
X002747Y017265D01*
X002622Y017276D01*
X002498Y017292D01*
X002375Y017315D01*
X002253Y017343D01*
X002133Y017377D01*
X002015Y017418D01*
X001898Y017463D01*
X001784Y017515D01*
X001673Y017572D01*
X001564Y017634D01*
X001459Y017702D01*
X001357Y017775D01*
X001259Y017852D01*
X001165Y017934D01*
X001075Y018021D01*
X000989Y018112D01*
X000907Y018207D01*
X000831Y018306D01*
X000759Y018409D01*
X000693Y018515D01*
X000631Y018624D01*
X000575Y018736D01*
X000525Y018850D01*
X000480Y018967D01*
X000441Y019086D01*
X000408Y019207D01*
X000381Y019329D01*
X000359Y019452D01*
X000344Y019576D01*
X000335Y019701D01*
X000332Y019826D01*
X000335Y019951D01*
X000344Y020076D01*
X000359Y020200D01*
X000381Y020323D01*
X000408Y020445D01*
X000441Y020566D01*
X000480Y020685D01*
X000525Y020802D01*
X000575Y020916D01*
X000631Y021028D01*
X000693Y021137D01*
X000759Y021243D01*
X000831Y021346D01*
X000907Y021445D01*
X000989Y021540D01*
X001075Y021631D01*
X001165Y021718D01*
X001259Y021800D01*
X001357Y021877D01*
X001459Y021950D01*
X001564Y022018D01*
X001673Y022080D01*
X001784Y022137D01*
X001898Y022189D01*
X002015Y022234D01*
X002133Y022275D01*
X002253Y022309D01*
X002375Y022337D01*
X002498Y022360D01*
X002622Y022376D01*
X002747Y022387D01*
X002872Y022391D01*
X002997Y022389D01*
X003122Y022381D01*
X003247Y022367D01*
X003370Y022347D01*
X003492Y022321D01*
X003613Y022289D01*
X003733Y022251D01*
X003850Y022207D01*
X003965Y022158D01*
X004077Y022103D01*
X004187Y022043D01*
X004294Y021977D01*
X004397Y021907D01*
X004497Y021831D01*
X004592Y021751D01*
X004684Y021666D01*
X004772Y021576D01*
X004855Y021483D01*
X004933Y021386D01*
X005007Y021284D01*
X005076Y021180D01*
X005139Y021072D01*
X005197Y020961D01*
X005250Y020848D01*
X005297Y020732D01*
X005338Y020613D01*
X006873Y026362D02*
X006779Y026281D01*
X006681Y026204D01*
X006580Y026133D01*
X006475Y026066D01*
X006366Y026005D01*
X006255Y025949D01*
X006142Y025898D01*
X006026Y025853D01*
X005908Y025814D01*
X005788Y025780D01*
X005667Y025753D01*
X005545Y025731D01*
X005421Y025715D01*
X005298Y025706D01*
X005173Y025702D01*
X005049Y025704D01*
X004925Y025713D01*
X004801Y025727D01*
X004679Y025748D01*
X004557Y025774D01*
X004437Y025807D01*
X004319Y025845D01*
X004203Y025889D01*
X004089Y025938D01*
X003977Y025993D01*
X003869Y026053D01*
X003763Y026119D01*
X003661Y026190D01*
X003562Y026265D01*
X003467Y026345D01*
X003376Y026430D01*
X003289Y026519D01*
X003207Y026612D01*
X003129Y026710D01*
X003057Y026810D01*
X002989Y026914D01*
X002926Y027022D01*
X002869Y027132D01*
X002817Y027245D01*
X002771Y027360D01*
X002730Y027478D01*
X002695Y027597D01*
X002666Y027718D01*
X002643Y027840D01*
X002626Y027963D01*
X002614Y028087D01*
X002609Y028211D01*
X002610Y028336D01*
X002617Y028460D01*
X002630Y028583D01*
X002649Y028706D01*
X002674Y028828D01*
X002705Y028948D01*
X002742Y029067D01*
X002784Y029184D01*
X002833Y029299D01*
X002886Y029411D01*
X002945Y029520D01*
X003010Y029627D01*
X003079Y029730D01*
X003153Y029829D01*
X003232Y029925D01*
X003316Y030017D01*
X003404Y030105D01*
X003496Y030188D01*
X003592Y030267D01*
X003692Y030341D01*
X003796Y030410D01*
X003902Y030474D01*
X004012Y030533D01*
X004124Y030586D01*
X004239Y030634D01*
X004356Y030676D01*
X004475Y030712D01*
X004595Y030743D01*
X004717Y030767D01*
X004840Y030786D01*
X004964Y030798D01*
X005088Y030805D01*
X005212Y030805D01*
X005336Y030800D01*
X005460Y030788D01*
X005583Y030771D01*
X005705Y030747D01*
X005826Y030718D01*
X005945Y030683D01*
X006063Y030641D01*
X006178Y030595D01*
X006291Y030542D01*
X006401Y030485D01*
X006508Y030422D01*
X006612Y030354D01*
X006712Y030280D01*
X006809Y030202D01*
X006902Y030120D01*
X006991Y030033D01*
X007075Y029942D01*
X007155Y029846D01*
X007230Y029747D01*
X007301Y029645D01*
X007366Y029539D01*
X007426Y029430D01*
X007480Y029319D01*
X007529Y029204D01*
X007573Y029088D01*
X007611Y028969D01*
X007643Y028849D01*
X007669Y028728D01*
X007689Y028605D01*
X007703Y028482D01*
X007711Y028357D01*
X007713Y028233D01*
X007709Y028109D01*
X007699Y027985D01*
X007683Y027862D01*
X007661Y027739D01*
X011913Y031991D02*
X011790Y031966D01*
X011666Y031947D01*
X011541Y031935D01*
X011416Y031928D01*
X011291Y031928D01*
X011166Y031933D01*
X011041Y031945D01*
X010917Y031963D01*
X010794Y031986D01*
X010673Y032016D01*
X010553Y032052D01*
X010434Y032093D01*
X010318Y032141D01*
X010205Y032194D01*
X010094Y032252D01*
X009986Y032316D01*
X009881Y032384D01*
X009780Y032458D01*
X009683Y032537D01*
X009589Y032620D01*
X009500Y032708D01*
X009415Y032800D01*
X009335Y032897D01*
X009259Y032997D01*
X009189Y033100D01*
X009124Y033207D01*
X009064Y033317D01*
X009009Y033430D01*
X008960Y033545D01*
X008917Y033662D01*
X008879Y033782D01*
X008847Y033903D01*
X008822Y034026D01*
X008802Y034149D01*
X008788Y034274D01*
X008781Y034399D01*
X008779Y034524D01*
X008784Y034649D01*
X008795Y034774D01*
X008812Y034898D01*
X008834Y035022D01*
X008863Y035143D01*
X008898Y035264D01*
X008939Y035382D01*
X008985Y035499D01*
X009037Y035613D01*
X009095Y035724D01*
X009158Y035832D01*
X009226Y035937D01*
X009299Y036039D01*
X009377Y036137D01*
X009460Y036231D01*
X009547Y036321D01*
X009639Y036406D01*
X009734Y036487D01*
X009834Y036564D01*
X009937Y036635D01*
X010043Y036701D01*
X010152Y036762D01*
X010265Y036817D01*
X010380Y036867D01*
X010497Y036911D01*
X010616Y036950D01*
X010737Y036982D01*
X010860Y037009D01*
X010983Y037030D01*
X011107Y037044D01*
X011232Y037053D01*
X011358Y037055D01*
X011483Y037051D01*
X011608Y037041D01*
X011732Y037025D01*
X011855Y037003D01*
X011977Y036975D01*
X012098Y036941D01*
X012217Y036902D01*
X012333Y036856D01*
X012448Y036805D01*
X012560Y036748D01*
X012668Y036686D01*
X012774Y036619D01*
X012876Y036546D01*
X012975Y036469D01*
X013069Y036387D01*
X013160Y036300D01*
X013246Y036209D01*
X013328Y036114D01*
X013405Y036015D01*
X013477Y035913D01*
X013544Y035807D01*
X013605Y035698D01*
X013661Y035586D01*
X013712Y035471D01*
X013757Y035355D01*
X013796Y035236D01*
X013830Y035115D01*
X013857Y034993D01*
X013879Y034869D01*
X013894Y034745D01*
X013904Y034620D01*
X013907Y034495D01*
X013904Y034370D01*
X013895Y034245D01*
X013880Y034120D01*
X013859Y033997D01*
X013832Y033875D01*
X013799Y033754D01*
X013760Y033635D01*
X013715Y033518D01*
X013665Y033403D01*
X013609Y033291D01*
X013547Y033182D01*
X013481Y033076D01*
X013409Y032973D01*
X013333Y032874D01*
X013251Y032778D01*
X019039Y034314D02*
X018920Y034355D01*
X018804Y034402D01*
X018691Y034455D01*
X018580Y034513D01*
X018472Y034576D01*
X018368Y034645D01*
X018266Y034719D01*
X018169Y034797D01*
X018076Y034880D01*
X017986Y034968D01*
X017901Y035060D01*
X017821Y035155D01*
X017745Y035255D01*
X017675Y035358D01*
X017609Y035465D01*
X017549Y035575D01*
X017494Y035687D01*
X017445Y035802D01*
X017401Y035919D01*
X017363Y036039D01*
X017331Y036160D01*
X017305Y036282D01*
X017285Y036405D01*
X017271Y036530D01*
X017263Y036655D01*
X017261Y036780D01*
X017265Y036905D01*
X017276Y037030D01*
X017292Y037154D01*
X017315Y037277D01*
X017343Y037399D01*
X017377Y037519D01*
X017418Y037637D01*
X017463Y037754D01*
X017515Y037868D01*
X017572Y037979D01*
X017634Y038088D01*
X017702Y038193D01*
X017775Y038295D01*
X017852Y038393D01*
X017934Y038487D01*
X018021Y038577D01*
X018112Y038663D01*
X018207Y038745D01*
X018306Y038821D01*
X018409Y038893D01*
X018515Y038959D01*
X018624Y039021D01*
X018736Y039077D01*
X018850Y039127D01*
X018967Y039172D01*
X019086Y039211D01*
X019207Y039244D01*
X019329Y039271D01*
X019452Y039293D01*
X019576Y039308D01*
X019701Y039317D01*
X019826Y039320D01*
X019951Y039317D01*
X020076Y039308D01*
X020200Y039293D01*
X020323Y039271D01*
X020445Y039244D01*
X020566Y039211D01*
X020685Y039172D01*
X020802Y039127D01*
X020916Y039077D01*
X021028Y039021D01*
X021137Y038959D01*
X021243Y038893D01*
X021346Y038821D01*
X021445Y038745D01*
X021540Y038663D01*
X021631Y038577D01*
X021718Y038487D01*
X021800Y038393D01*
X021877Y038295D01*
X021950Y038193D01*
X022018Y038088D01*
X022080Y037979D01*
X022137Y037868D01*
X022189Y037754D01*
X022234Y037637D01*
X022275Y037519D01*
X022309Y037399D01*
X022337Y037277D01*
X022360Y037154D01*
X022376Y037030D01*
X022387Y036905D01*
X022391Y036780D01*
X022389Y036655D01*
X022381Y036530D01*
X022367Y036405D01*
X022347Y036282D01*
X022321Y036160D01*
X022289Y036039D01*
X022251Y035919D01*
X022207Y035802D01*
X022158Y035687D01*
X022103Y035575D01*
X022043Y035465D01*
X021977Y035358D01*
X021907Y035255D01*
X021831Y035155D01*
X021751Y035060D01*
X021666Y034968D01*
X021576Y034880D01*
X021483Y034797D01*
X021386Y034719D01*
X021284Y034645D01*
X021180Y034576D01*
X021072Y034513D01*
X020961Y034455D01*
X020848Y034402D01*
X020732Y034355D01*
X020613Y034314D01*
X026401Y032778D02*
X026319Y032874D01*
X026243Y032973D01*
X026171Y033076D01*
X026105Y033182D01*
X026043Y033291D01*
X025987Y033403D01*
X025937Y033518D01*
X025892Y033635D01*
X025853Y033754D01*
X025820Y033875D01*
X025793Y033997D01*
X025772Y034120D01*
X025757Y034245D01*
X025748Y034370D01*
X025745Y034495D01*
X025748Y034620D01*
X025758Y034745D01*
X025773Y034869D01*
X025795Y034993D01*
X025822Y035115D01*
X025856Y035236D01*
X025895Y035355D01*
X025940Y035471D01*
X025991Y035586D01*
X026047Y035698D01*
X026108Y035807D01*
X026175Y035913D01*
X026247Y036015D01*
X026324Y036114D01*
X026406Y036209D01*
X026492Y036300D01*
X026583Y036387D01*
X026677Y036469D01*
X026776Y036546D01*
X026878Y036619D01*
X026984Y036686D01*
X027092Y036748D01*
X027204Y036805D01*
X027319Y036856D01*
X027435Y036902D01*
X027554Y036941D01*
X027675Y036975D01*
X027797Y037003D01*
X027920Y037025D01*
X028044Y037041D01*
X028169Y037051D01*
X028294Y037055D01*
X028420Y037053D01*
X028545Y037044D01*
X028669Y037030D01*
X028792Y037009D01*
X028915Y036982D01*
X029036Y036950D01*
X029155Y036911D01*
X029272Y036867D01*
X029387Y036817D01*
X029500Y036762D01*
X029609Y036701D01*
X029715Y036635D01*
X029818Y036564D01*
X029918Y036487D01*
X030013Y036406D01*
X030105Y036321D01*
X030192Y036231D01*
X030275Y036137D01*
X030353Y036039D01*
X030426Y035937D01*
X030494Y035832D01*
X030557Y035724D01*
X030615Y035613D01*
X030667Y035499D01*
X030713Y035382D01*
X030754Y035264D01*
X030789Y035143D01*
X030818Y035022D01*
X030840Y034898D01*
X030857Y034774D01*
X030868Y034649D01*
X030873Y034524D01*
X030871Y034399D01*
X030864Y034274D01*
X030850Y034149D01*
X030830Y034026D01*
X030805Y033903D01*
X030773Y033782D01*
X030735Y033662D01*
X030692Y033545D01*
X030643Y033430D01*
X030588Y033317D01*
X030528Y033207D01*
X030463Y033100D01*
X030393Y032997D01*
X030317Y032897D01*
X030237Y032800D01*
X030152Y032708D01*
X030063Y032620D01*
X029969Y032537D01*
X029872Y032458D01*
X029771Y032384D01*
X029666Y032316D01*
X029558Y032252D01*
X029447Y032194D01*
X029334Y032141D01*
X029218Y032093D01*
X029099Y032052D01*
X028979Y032016D01*
X028858Y031986D01*
X028735Y031963D01*
X028611Y031945D01*
X028486Y031933D01*
X028361Y031928D01*
X028236Y031928D01*
X028111Y031935D01*
X027986Y031947D01*
X027862Y031966D01*
X027739Y031991D01*
X031991Y027739D02*
X031966Y027862D01*
X031947Y027986D01*
X031935Y028111D01*
X031928Y028236D01*
X031928Y028361D01*
X031933Y028486D01*
X031945Y028611D01*
X031963Y028735D01*
X031986Y028858D01*
X032016Y028979D01*
X032052Y029099D01*
X032093Y029218D01*
X032141Y029334D01*
X032194Y029447D01*
X032252Y029558D01*
X032316Y029666D01*
X032384Y029771D01*
X032458Y029872D01*
X032537Y029969D01*
X032620Y030063D01*
X032708Y030152D01*
X032800Y030237D01*
X032897Y030317D01*
X032997Y030393D01*
X033100Y030463D01*
X033207Y030528D01*
X033317Y030588D01*
X033430Y030643D01*
X033545Y030692D01*
X033662Y030735D01*
X033782Y030773D01*
X033903Y030805D01*
X034026Y030830D01*
X034149Y030850D01*
X034274Y030864D01*
X034399Y030871D01*
X034524Y030873D01*
X034649Y030868D01*
X034774Y030857D01*
X034898Y030840D01*
X035022Y030818D01*
X035143Y030789D01*
X035264Y030754D01*
X035382Y030713D01*
X035499Y030667D01*
X035613Y030615D01*
X035724Y030557D01*
X035832Y030494D01*
X035937Y030426D01*
X036039Y030353D01*
X036137Y030275D01*
X036231Y030192D01*
X036321Y030105D01*
X036406Y030013D01*
X036487Y029918D01*
X036564Y029818D01*
X036635Y029715D01*
X036701Y029609D01*
X036762Y029500D01*
X036817Y029387D01*
X036867Y029272D01*
X036911Y029155D01*
X036950Y029036D01*
X036982Y028915D01*
X037009Y028792D01*
X037030Y028669D01*
X037044Y028545D01*
X037053Y028420D01*
X037055Y028294D01*
X037051Y028169D01*
X037041Y028044D01*
X037025Y027920D01*
X037003Y027797D01*
X036975Y027675D01*
X036941Y027554D01*
X036902Y027435D01*
X036856Y027319D01*
X036805Y027204D01*
X036748Y027092D01*
X036686Y026984D01*
X036619Y026878D01*
X036546Y026776D01*
X036469Y026677D01*
X036387Y026583D01*
X036300Y026492D01*
X036209Y026406D01*
X036114Y026324D01*
X036015Y026247D01*
X035913Y026175D01*
X035807Y026108D01*
X035698Y026047D01*
X035586Y025991D01*
X035471Y025940D01*
X035355Y025895D01*
X035236Y025856D01*
X035115Y025822D01*
X034993Y025795D01*
X034869Y025773D01*
X034745Y025758D01*
X034620Y025748D01*
X034495Y025745D01*
X034370Y025748D01*
X034245Y025757D01*
X034120Y025772D01*
X033997Y025793D01*
X033875Y025820D01*
X033754Y025853D01*
X033635Y025892D01*
X033518Y025937D01*
X033403Y025987D01*
X033291Y026043D01*
X033182Y026105D01*
X033076Y026171D01*
X032973Y026243D01*
X032874Y026319D01*
X032778Y026401D01*
X034314Y020613D02*
X034355Y020732D01*
X034402Y020848D01*
X034455Y020961D01*
X034513Y021072D01*
X034576Y021180D01*
X034645Y021284D01*
X034719Y021386D01*
X034797Y021483D01*
X034880Y021576D01*
X034968Y021666D01*
X035060Y021751D01*
X035155Y021831D01*
X035255Y021907D01*
X035358Y021977D01*
X035465Y022043D01*
X035575Y022103D01*
X035687Y022158D01*
X035802Y022207D01*
X035919Y022251D01*
X036039Y022289D01*
X036160Y022321D01*
X036282Y022347D01*
X036405Y022367D01*
X036530Y022381D01*
X036655Y022389D01*
X036780Y022391D01*
X036905Y022387D01*
X037030Y022376D01*
X037154Y022360D01*
X037277Y022337D01*
X037399Y022309D01*
X037519Y022275D01*
X037637Y022234D01*
X037754Y022189D01*
X037868Y022137D01*
X037979Y022080D01*
X038088Y022018D01*
X038193Y021950D01*
X038295Y021877D01*
X038393Y021800D01*
X038487Y021718D01*
X038577Y021631D01*
X038663Y021540D01*
X038745Y021445D01*
X038821Y021346D01*
X038893Y021243D01*
X038959Y021137D01*
X039021Y021028D01*
X039077Y020916D01*
X039127Y020802D01*
X039172Y020685D01*
X039211Y020566D01*
X039244Y020445D01*
X039271Y020323D01*
X039293Y020200D01*
X039308Y020076D01*
X039317Y019951D01*
X039320Y019826D01*
X039317Y019701D01*
X039308Y019576D01*
X039293Y019452D01*
X039271Y019329D01*
X039244Y019207D01*
X039211Y019086D01*
X039172Y018967D01*
X039127Y018850D01*
X039077Y018736D01*
X039021Y018624D01*
X038959Y018515D01*
X038893Y018409D01*
X038821Y018306D01*
X038745Y018207D01*
X038663Y018112D01*
X038577Y018021D01*
X038487Y017934D01*
X038393Y017852D01*
X038295Y017775D01*
X038193Y017702D01*
X038088Y017634D01*
X037979Y017572D01*
X037868Y017515D01*
X037754Y017463D01*
X037637Y017418D01*
X037519Y017377D01*
X037399Y017343D01*
X037277Y017315D01*
X037154Y017292D01*
X037030Y017276D01*
X036905Y017265D01*
X036780Y017261D01*
X036655Y017263D01*
X036530Y017271D01*
X036405Y017285D01*
X036282Y017305D01*
X036160Y017331D01*
X036039Y017363D01*
X035919Y017401D01*
X035802Y017445D01*
X035687Y017494D01*
X035575Y017549D01*
X035465Y017609D01*
X035358Y017675D01*
X035255Y017745D01*
X035155Y017821D01*
X035060Y017901D01*
X034968Y017986D01*
X034880Y018076D01*
X034797Y018169D01*
X034719Y018266D01*
X034645Y018368D01*
X034576Y018472D01*
X034513Y018580D01*
X034455Y018691D01*
X034402Y018804D01*
X034355Y018920D01*
X034314Y019039D01*
X032778Y013251D02*
X032874Y013333D01*
X032973Y013409D01*
X033076Y013481D01*
X033182Y013547D01*
X033291Y013609D01*
X033403Y013665D01*
X033518Y013715D01*
X033635Y013760D01*
X033754Y013799D01*
X033875Y013832D01*
X033997Y013859D01*
X034120Y013880D01*
X034245Y013895D01*
X034370Y013904D01*
X034495Y013907D01*
X034620Y013904D01*
X034745Y013894D01*
X034869Y013879D01*
X034993Y013857D01*
X035115Y013830D01*
X035236Y013796D01*
X035355Y013757D01*
X035471Y013712D01*
X035586Y013661D01*
X035698Y013605D01*
X035807Y013544D01*
X035913Y013477D01*
X036015Y013405D01*
X036114Y013328D01*
X036209Y013246D01*
X036300Y013160D01*
X036387Y013069D01*
X036469Y012975D01*
X036546Y012876D01*
X036619Y012774D01*
X036686Y012668D01*
X036748Y012560D01*
X036805Y012448D01*
X036856Y012333D01*
X036902Y012217D01*
X036941Y012098D01*
X036975Y011977D01*
X037003Y011855D01*
X037025Y011732D01*
X037041Y011608D01*
X037051Y011483D01*
X037055Y011358D01*
X037053Y011232D01*
X037044Y011107D01*
X037030Y010983D01*
X037009Y010860D01*
X036982Y010737D01*
X036950Y010616D01*
X036911Y010497D01*
X036867Y010380D01*
X036817Y010265D01*
X036762Y010152D01*
X036701Y010043D01*
X036635Y009937D01*
X036564Y009834D01*
X036487Y009734D01*
X036406Y009639D01*
X036321Y009547D01*
X036231Y009460D01*
X036137Y009377D01*
X036039Y009299D01*
X035937Y009226D01*
X035832Y009158D01*
X035724Y009095D01*
X035613Y009037D01*
X035499Y008985D01*
X035382Y008939D01*
X035264Y008898D01*
X035143Y008863D01*
X035022Y008834D01*
X034898Y008812D01*
X034774Y008795D01*
X034649Y008784D01*
X034524Y008779D01*
X034399Y008781D01*
X034274Y008788D01*
X034149Y008802D01*
X034026Y008822D01*
X033903Y008847D01*
X033782Y008879D01*
X033662Y008917D01*
X033545Y008960D01*
X033430Y009009D01*
X033317Y009064D01*
X033207Y009124D01*
X033100Y009189D01*
X032997Y009259D01*
X032897Y009335D01*
X032800Y009415D01*
X032708Y009500D01*
X032620Y009589D01*
X032537Y009683D01*
X032458Y009780D01*
X032384Y009881D01*
X032316Y009986D01*
X032252Y010094D01*
X032194Y010205D01*
X032141Y010318D01*
X032093Y010434D01*
X032052Y010553D01*
X032016Y010673D01*
X031986Y010794D01*
X031963Y010917D01*
X031945Y011041D01*
X031933Y011166D01*
X031928Y011291D01*
X031928Y011416D01*
X031935Y011541D01*
X031947Y011666D01*
X031966Y011790D01*
X031991Y011913D01*
X027739Y007661D02*
X027862Y007686D01*
X027986Y007705D01*
X028111Y007717D01*
X028236Y007724D01*
X028361Y007724D01*
X028486Y007719D01*
X028611Y007707D01*
X028735Y007689D01*
X028858Y007666D01*
X028979Y007636D01*
X029099Y007600D01*
X029218Y007559D01*
X029334Y007511D01*
X029447Y007458D01*
X029558Y007400D01*
X029666Y007336D01*
X029771Y007268D01*
X029872Y007194D01*
X029969Y007115D01*
X030063Y007032D01*
X030152Y006944D01*
X030237Y006852D01*
X030317Y006755D01*
X030393Y006655D01*
X030463Y006552D01*
X030528Y006445D01*
X030588Y006335D01*
X030643Y006222D01*
X030692Y006107D01*
X030735Y005990D01*
X030773Y005870D01*
X030805Y005749D01*
X030830Y005626D01*
X030850Y005503D01*
X030864Y005378D01*
X030871Y005253D01*
X030873Y005128D01*
X030868Y005003D01*
X030857Y004878D01*
X030840Y004754D01*
X030818Y004630D01*
X030789Y004509D01*
X030754Y004388D01*
X030713Y004270D01*
X030667Y004153D01*
X030615Y004039D01*
X030557Y003928D01*
X030494Y003820D01*
X030426Y003715D01*
X030353Y003613D01*
X030275Y003515D01*
X030192Y003421D01*
X030105Y003331D01*
X030013Y003246D01*
X029918Y003165D01*
X029818Y003088D01*
X029715Y003017D01*
X029609Y002951D01*
X029500Y002890D01*
X029387Y002835D01*
X029272Y002785D01*
X029155Y002741D01*
X029036Y002702D01*
X028915Y002670D01*
X028792Y002643D01*
X028669Y002622D01*
X028545Y002608D01*
X028420Y002599D01*
X028294Y002597D01*
X028169Y002601D01*
X028044Y002611D01*
X027920Y002627D01*
X027797Y002649D01*
X027675Y002677D01*
X027554Y002711D01*
X027435Y002750D01*
X027319Y002796D01*
X027204Y002847D01*
X027092Y002904D01*
X026984Y002966D01*
X026878Y003033D01*
X026776Y003106D01*
X026677Y003183D01*
X026583Y003265D01*
X026492Y003352D01*
X026406Y003443D01*
X026324Y003538D01*
X026247Y003637D01*
X026175Y003739D01*
X026108Y003845D01*
X026047Y003954D01*
X025991Y004066D01*
X025940Y004181D01*
X025895Y004297D01*
X025856Y004416D01*
X025822Y004537D01*
X025795Y004659D01*
X025773Y004783D01*
X025758Y004907D01*
X025748Y005032D01*
X025745Y005157D01*
X025748Y005282D01*
X025757Y005407D01*
X025772Y005532D01*
X025793Y005655D01*
X025820Y005777D01*
X025853Y005898D01*
X025892Y006017D01*
X025937Y006134D01*
X025987Y006249D01*
X026043Y006361D01*
X026105Y006470D01*
X026171Y006576D01*
X026243Y006679D01*
X026319Y006778D01*
X026401Y006874D01*
X028724Y015613D02*
X028904Y016020D01*
X029066Y016435D01*
X029209Y016857D01*
X029332Y017285D01*
X029436Y017718D01*
X029521Y018155D01*
X029585Y018596D01*
X029630Y019039D01*
X024039Y028724D02*
X023632Y028904D01*
X023217Y029066D01*
X022795Y029209D01*
X022367Y029332D01*
X021934Y029436D01*
X021497Y029521D01*
X021056Y029585D01*
X020613Y029630D01*
X028724Y024039D02*
X028904Y023632D01*
X029066Y023217D01*
X029209Y022795D01*
X029332Y022367D01*
X029436Y021934D01*
X029521Y021497D01*
X029585Y021056D01*
X029630Y020613D01*
X024039Y010928D02*
X023632Y010748D01*
X023217Y010586D01*
X022795Y010443D01*
X022367Y010320D01*
X021934Y010216D01*
X021497Y010131D01*
X021056Y010067D01*
X020613Y010022D01*
X010928Y015613D02*
X010748Y016020D01*
X010586Y016435D01*
X010443Y016857D01*
X010320Y017285D01*
X010216Y017718D01*
X010131Y018155D01*
X010067Y018596D01*
X010022Y019039D01*
X015613Y028724D02*
X016020Y028904D01*
X016435Y029066D01*
X016857Y029209D01*
X017285Y029332D01*
X017718Y029436D01*
X018155Y029521D01*
X018596Y029585D01*
X019039Y029630D01*
X010928Y024039D02*
X010748Y023632D01*
X010586Y023217D01*
X010443Y022795D01*
X010320Y022367D01*
X010216Y021934D01*
X010131Y021497D01*
X010067Y021056D01*
X010022Y020613D01*
X015613Y010928D02*
X016020Y010748D01*
X016435Y010586D01*
X016857Y010443D01*
X017285Y010320D01*
X017718Y010216D01*
X018155Y010131D01*
X018596Y010067D01*
X019039Y010022D01*
X025416Y011716D02*
X025779Y011979D01*
X026130Y012257D01*
X026467Y012552D01*
X026791Y012861D01*
X027100Y013185D01*
X027395Y013522D01*
X027673Y013873D01*
X027936Y014236D01*
X027936Y025416D02*
X027673Y025779D01*
X027395Y026130D01*
X027100Y026467D01*
X026791Y026791D01*
X026467Y027100D01*
X026130Y027395D01*
X025779Y027673D01*
X025416Y027936D01*
X011716Y014236D02*
X011979Y013873D01*
X012257Y013522D01*
X012552Y013185D01*
X012861Y012861D01*
X013185Y012552D01*
X013522Y012257D01*
X013873Y011979D01*
X014236Y011716D01*
X011716Y025416D02*
X011979Y025779D01*
X012257Y026130D01*
X012552Y026467D01*
X012861Y026791D01*
X013185Y027100D01*
X013522Y027395D01*
X013873Y027673D01*
X014236Y027936D01*
M02*
