G75*
G70*
%OFA0B0*%
%FSLAX24Y24*%
%IPPOS*%
%LPD*%
%AMOC8*
5,1,8,0,0,1.08239X$1,22.5*
%
%ADD10C,0.4882*%
%ADD11C,0.0679*%
%ADD12C,0.0000*%
%ADD13R,0.0434X0.0827*%
%ADD14C,0.0159*%
%ADD15R,0.0827X0.0434*%
%ADD16R,0.0620X0.0180*%
%ADD17R,0.0591X0.0473*%
%ADD18R,0.0473X0.0591*%
%ADD19R,0.0197X0.0631*%
%ADD20R,0.0280X0.0910*%
%ADD21R,0.1024X0.2402*%
%ADD22R,0.0434X0.1024*%
%ADD23R,0.1575X0.1575*%
%ADD24R,0.1300X0.1300*%
%ADD25R,0.0820X0.0250*%
%ADD26R,0.0631X0.0552*%
%ADD27R,0.0552X0.0631*%
%ADD28R,0.0434X0.0276*%
%ADD29C,0.0207*%
D10*
X016760Y020687D03*
D11*
X025181Y027021D03*
X026941Y024861D03*
D12*
X027661Y025741D02*
X031901Y028221D01*
X033101Y026141D02*
X028861Y023661D01*
X029581Y021021D02*
X034461Y021021D01*
X034523Y021130D01*
X034589Y021237D01*
X034661Y021340D01*
X034737Y021440D01*
X034818Y021535D01*
X034904Y021627D01*
X034994Y021715D01*
X035089Y021797D01*
X035187Y021876D01*
X035289Y021949D01*
X035395Y022017D01*
X035503Y022080D01*
X035615Y022138D01*
X035729Y022190D01*
X035846Y022236D01*
X035964Y022277D01*
X036085Y022312D01*
X036207Y022341D01*
X036331Y022364D01*
X036455Y022381D01*
X036580Y022392D01*
X036706Y022397D01*
X036831Y022395D01*
X036957Y022388D01*
X037081Y022374D01*
X037205Y022355D01*
X037328Y022329D01*
X037450Y022298D01*
X037570Y022260D01*
X037688Y022217D01*
X037803Y022168D01*
X037916Y022113D01*
X038027Y022053D01*
X038134Y021988D01*
X038238Y021917D01*
X038338Y021842D01*
X038435Y021762D01*
X038527Y021677D01*
X038616Y021588D01*
X038700Y021494D01*
X038779Y021397D01*
X038853Y021296D01*
X038923Y021191D01*
X038987Y021083D01*
X039046Y020972D01*
X039099Y020858D01*
X039147Y020742D01*
X039189Y020624D01*
X039225Y020504D01*
X039255Y020382D01*
X039280Y020258D01*
X039298Y020134D01*
X039310Y020009D01*
X039316Y019884D01*
X039316Y019758D01*
X039310Y019633D01*
X039298Y019508D01*
X039280Y019384D01*
X039255Y019260D01*
X039225Y019138D01*
X039189Y019018D01*
X039147Y018900D01*
X039099Y018784D01*
X039046Y018670D01*
X038987Y018559D01*
X038923Y018451D01*
X038853Y018346D01*
X038779Y018245D01*
X038700Y018148D01*
X038616Y018054D01*
X038527Y017965D01*
X038435Y017880D01*
X038338Y017800D01*
X038238Y017725D01*
X038134Y017654D01*
X038027Y017589D01*
X037916Y017529D01*
X037803Y017474D01*
X037688Y017425D01*
X037570Y017382D01*
X037450Y017344D01*
X037328Y017313D01*
X037205Y017287D01*
X037081Y017268D01*
X036957Y017254D01*
X036831Y017247D01*
X036706Y017245D01*
X036580Y017250D01*
X036455Y017261D01*
X036331Y017278D01*
X036207Y017301D01*
X036085Y017330D01*
X035964Y017365D01*
X035846Y017406D01*
X035729Y017452D01*
X035615Y017504D01*
X035503Y017562D01*
X035395Y017625D01*
X035289Y017693D01*
X035187Y017766D01*
X035089Y017845D01*
X034994Y017927D01*
X034904Y018015D01*
X034818Y018107D01*
X034737Y018202D01*
X034661Y018302D01*
X034589Y018405D01*
X034523Y018512D01*
X034461Y018621D01*
X029581Y018621D01*
X028861Y015981D02*
X033101Y013581D01*
X031901Y011501D02*
X027661Y013901D01*
X025741Y011981D02*
X028221Y007741D01*
X026141Y006541D02*
X023661Y010781D01*
X021021Y010061D02*
X021021Y005181D01*
X021130Y005119D01*
X021237Y005053D01*
X021340Y004981D01*
X021440Y004905D01*
X021535Y004824D01*
X021627Y004738D01*
X021715Y004648D01*
X021797Y004553D01*
X021876Y004455D01*
X021949Y004353D01*
X022017Y004247D01*
X022080Y004139D01*
X022138Y004027D01*
X022190Y003913D01*
X022236Y003796D01*
X022277Y003678D01*
X022312Y003557D01*
X022341Y003435D01*
X022364Y003311D01*
X022381Y003187D01*
X022392Y003062D01*
X022397Y002936D01*
X022395Y002811D01*
X022388Y002685D01*
X022374Y002561D01*
X022355Y002437D01*
X022329Y002314D01*
X022298Y002192D01*
X022260Y002072D01*
X022217Y001954D01*
X022168Y001839D01*
X022113Y001726D01*
X022053Y001615D01*
X021988Y001508D01*
X021917Y001404D01*
X021842Y001304D01*
X021762Y001207D01*
X021677Y001115D01*
X021588Y001026D01*
X021494Y000942D01*
X021397Y000863D01*
X021296Y000789D01*
X021191Y000719D01*
X021083Y000655D01*
X020972Y000596D01*
X020858Y000543D01*
X020742Y000495D01*
X020624Y000453D01*
X020504Y000417D01*
X020382Y000387D01*
X020258Y000362D01*
X020134Y000344D01*
X020009Y000332D01*
X019884Y000326D01*
X019758Y000326D01*
X019633Y000332D01*
X019508Y000344D01*
X019384Y000362D01*
X019260Y000387D01*
X019138Y000417D01*
X019018Y000453D01*
X018900Y000495D01*
X018784Y000543D01*
X018670Y000596D01*
X018559Y000655D01*
X018451Y000719D01*
X018346Y000789D01*
X018245Y000863D01*
X018148Y000942D01*
X018054Y001026D01*
X017965Y001115D01*
X017880Y001207D01*
X017800Y001304D01*
X017725Y001404D01*
X017654Y001508D01*
X017589Y001615D01*
X017529Y001726D01*
X017474Y001839D01*
X017425Y001954D01*
X017382Y002072D01*
X017344Y002192D01*
X017313Y002314D01*
X017287Y002437D01*
X017268Y002561D01*
X017254Y002685D01*
X017247Y002811D01*
X017245Y002936D01*
X017250Y003062D01*
X017261Y003187D01*
X017278Y003311D01*
X017301Y003435D01*
X017330Y003557D01*
X017365Y003678D01*
X017406Y003796D01*
X017452Y003913D01*
X017504Y004027D01*
X017562Y004139D01*
X017625Y004247D01*
X017693Y004353D01*
X017766Y004455D01*
X017845Y004553D01*
X017927Y004648D01*
X018015Y004738D01*
X018107Y004824D01*
X018202Y004905D01*
X018302Y004981D01*
X018405Y005053D01*
X018512Y005119D01*
X018621Y005181D01*
X018621Y010061D01*
X016061Y010781D02*
X013581Y006541D01*
X011501Y007741D02*
X013901Y011981D01*
X011981Y013901D02*
X007741Y011501D01*
X006541Y013581D02*
X010701Y015981D01*
X010061Y018621D02*
X005181Y018621D01*
X005119Y018512D01*
X005053Y018405D01*
X004981Y018302D01*
X004905Y018202D01*
X004824Y018107D01*
X004738Y018015D01*
X004648Y017927D01*
X004553Y017845D01*
X004455Y017766D01*
X004353Y017693D01*
X004247Y017625D01*
X004139Y017562D01*
X004027Y017504D01*
X003913Y017452D01*
X003796Y017406D01*
X003678Y017365D01*
X003557Y017330D01*
X003435Y017301D01*
X003311Y017278D01*
X003187Y017261D01*
X003062Y017250D01*
X002936Y017245D01*
X002811Y017247D01*
X002685Y017254D01*
X002561Y017268D01*
X002437Y017287D01*
X002314Y017313D01*
X002192Y017344D01*
X002072Y017382D01*
X001954Y017425D01*
X001839Y017474D01*
X001726Y017529D01*
X001615Y017589D01*
X001508Y017654D01*
X001404Y017725D01*
X001304Y017800D01*
X001207Y017880D01*
X001115Y017965D01*
X001026Y018054D01*
X000942Y018148D01*
X000863Y018245D01*
X000789Y018346D01*
X000719Y018451D01*
X000655Y018559D01*
X000596Y018670D01*
X000543Y018784D01*
X000495Y018900D01*
X000453Y019018D01*
X000417Y019138D01*
X000387Y019260D01*
X000362Y019384D01*
X000344Y019508D01*
X000332Y019633D01*
X000326Y019758D01*
X000326Y019884D01*
X000332Y020009D01*
X000344Y020134D01*
X000362Y020258D01*
X000387Y020382D01*
X000417Y020504D01*
X000453Y020624D01*
X000495Y020742D01*
X000543Y020858D01*
X000596Y020972D01*
X000655Y021083D01*
X000719Y021191D01*
X000789Y021296D01*
X000863Y021397D01*
X000942Y021494D01*
X001026Y021588D01*
X001115Y021677D01*
X001207Y021762D01*
X001304Y021842D01*
X001404Y021917D01*
X001508Y021988D01*
X001615Y022053D01*
X001726Y022113D01*
X001839Y022168D01*
X001954Y022217D01*
X002072Y022260D01*
X002192Y022298D01*
X002314Y022329D01*
X002437Y022355D01*
X002561Y022374D01*
X002685Y022388D01*
X002811Y022395D01*
X002936Y022397D01*
X003062Y022392D01*
X003187Y022381D01*
X003311Y022364D01*
X003435Y022341D01*
X003557Y022312D01*
X003678Y022277D01*
X003796Y022236D01*
X003913Y022190D01*
X004027Y022138D01*
X004139Y022080D01*
X004247Y022017D01*
X004353Y021949D01*
X004455Y021876D01*
X004553Y021797D01*
X004648Y021715D01*
X004738Y021627D01*
X004824Y021535D01*
X004905Y021440D01*
X004981Y021340D01*
X005053Y021237D01*
X005119Y021130D01*
X005181Y021021D01*
X010061Y021021D01*
X010781Y023661D02*
X006541Y026061D01*
X007741Y028141D02*
X011981Y025741D01*
X013901Y027661D02*
X011421Y031901D01*
X013501Y033101D02*
X015981Y028861D01*
X018621Y029581D02*
X018621Y034461D01*
X018512Y034523D01*
X018405Y034589D01*
X018302Y034661D01*
X018202Y034737D01*
X018107Y034818D01*
X018015Y034904D01*
X017927Y034994D01*
X017845Y035089D01*
X017766Y035187D01*
X017693Y035289D01*
X017625Y035395D01*
X017562Y035503D01*
X017504Y035615D01*
X017452Y035729D01*
X017406Y035846D01*
X017365Y035964D01*
X017330Y036085D01*
X017301Y036207D01*
X017278Y036331D01*
X017261Y036455D01*
X017250Y036580D01*
X017245Y036706D01*
X017247Y036831D01*
X017254Y036957D01*
X017268Y037081D01*
X017287Y037205D01*
X017313Y037328D01*
X017344Y037450D01*
X017382Y037570D01*
X017425Y037688D01*
X017474Y037803D01*
X017529Y037916D01*
X017589Y038027D01*
X017654Y038134D01*
X017725Y038238D01*
X017800Y038338D01*
X017880Y038435D01*
X017965Y038527D01*
X018054Y038616D01*
X018148Y038700D01*
X018245Y038779D01*
X018346Y038853D01*
X018451Y038923D01*
X018559Y038987D01*
X018670Y039046D01*
X018784Y039099D01*
X018900Y039147D01*
X019018Y039189D01*
X019138Y039225D01*
X019260Y039255D01*
X019384Y039280D01*
X019508Y039298D01*
X019633Y039310D01*
X019758Y039316D01*
X019884Y039316D01*
X020009Y039310D01*
X020134Y039298D01*
X020258Y039280D01*
X020382Y039255D01*
X020504Y039225D01*
X020624Y039189D01*
X020742Y039147D01*
X020858Y039099D01*
X020972Y039046D01*
X021083Y038987D01*
X021191Y038923D01*
X021296Y038853D01*
X021397Y038779D01*
X021494Y038700D01*
X021588Y038616D01*
X021677Y038527D01*
X021762Y038435D01*
X021842Y038338D01*
X021917Y038238D01*
X021988Y038134D01*
X022053Y038027D01*
X022113Y037916D01*
X022168Y037803D01*
X022217Y037688D01*
X022260Y037570D01*
X022298Y037450D01*
X022329Y037328D01*
X022355Y037205D01*
X022374Y037081D01*
X022388Y036957D01*
X022395Y036831D01*
X022397Y036706D01*
X022392Y036580D01*
X022381Y036455D01*
X022364Y036331D01*
X022341Y036207D01*
X022312Y036085D01*
X022277Y035964D01*
X022236Y035846D01*
X022190Y035729D01*
X022138Y035615D01*
X022080Y035503D01*
X022017Y035395D01*
X021949Y035289D01*
X021876Y035187D01*
X021797Y035089D01*
X021715Y034994D01*
X021627Y034904D01*
X021535Y034818D01*
X021440Y034737D01*
X021340Y034661D01*
X021237Y034589D01*
X021130Y034523D01*
X021021Y034461D01*
X021021Y029581D01*
X023661Y028861D02*
X026061Y033181D01*
X028141Y031901D02*
X025741Y027661D01*
X028141Y031901D02*
X028267Y031897D01*
X028393Y031899D01*
X028518Y031908D01*
X028643Y031922D01*
X028766Y031943D01*
X028889Y031970D01*
X029010Y032002D01*
X029130Y032041D01*
X029247Y032085D01*
X029363Y032135D01*
X029475Y032191D01*
X029585Y032252D01*
X029691Y032319D01*
X029795Y032390D01*
X029894Y032467D01*
X029990Y032548D01*
X030082Y032634D01*
X030169Y032724D01*
X030252Y032818D01*
X030330Y032917D01*
X030403Y033019D01*
X030471Y033124D01*
X030534Y033233D01*
X030591Y033345D01*
X030643Y033459D01*
X030689Y033576D01*
X030730Y033695D01*
X030764Y033816D01*
X030793Y033938D01*
X030816Y034061D01*
X030832Y034186D01*
X030843Y034311D01*
X030847Y034437D01*
X030845Y034562D01*
X030837Y034687D01*
X030823Y034812D01*
X030803Y034936D01*
X030776Y035059D01*
X030744Y035180D01*
X030706Y035300D01*
X030662Y035418D01*
X030612Y035533D01*
X030557Y035646D01*
X030496Y035756D01*
X030430Y035862D01*
X030359Y035966D01*
X030283Y036066D01*
X030202Y036162D01*
X030116Y036254D01*
X030026Y036341D01*
X029932Y036424D01*
X029834Y036503D01*
X029732Y036576D01*
X029627Y036645D01*
X029518Y036708D01*
X029407Y036766D01*
X029293Y036818D01*
X029176Y036864D01*
X029057Y036905D01*
X028937Y036940D01*
X028814Y036969D01*
X028691Y036992D01*
X028566Y037009D01*
X028441Y037020D01*
X028316Y037025D01*
X028190Y037023D01*
X028065Y037016D01*
X027940Y037002D01*
X027816Y036982D01*
X027693Y036956D01*
X027572Y036924D01*
X027452Y036887D01*
X027334Y036843D01*
X027219Y036794D01*
X027106Y036739D01*
X026996Y036678D01*
X026889Y036613D01*
X026785Y036542D01*
X026685Y036466D01*
X026589Y036385D01*
X026496Y036300D01*
X026408Y036210D01*
X026325Y036116D01*
X026246Y036019D01*
X026173Y035917D01*
X026104Y035812D01*
X026040Y035704D01*
X025982Y035592D01*
X025929Y035478D01*
X025882Y035362D01*
X025841Y035243D01*
X025806Y035123D01*
X025776Y035001D01*
X025753Y034877D01*
X025736Y034753D01*
X025724Y034628D01*
X025719Y034502D01*
X025720Y034377D01*
X025728Y034251D01*
X025741Y034126D01*
X025760Y034002D01*
X025786Y033879D01*
X025817Y033758D01*
X025855Y033638D01*
X025898Y033520D01*
X025947Y033404D01*
X026001Y033291D01*
X026061Y033181D01*
X031900Y028221D02*
X031898Y028348D01*
X031902Y028475D01*
X031912Y028602D01*
X031928Y028728D01*
X031950Y028853D01*
X031978Y028977D01*
X032013Y029100D01*
X032053Y029220D01*
X032099Y029339D01*
X032151Y029455D01*
X032209Y029568D01*
X032272Y029679D01*
X032340Y029786D01*
X032413Y029890D01*
X032492Y029990D01*
X032575Y030086D01*
X032663Y030178D01*
X032755Y030265D01*
X032851Y030348D01*
X032951Y030426D01*
X033055Y030500D01*
X033163Y030568D01*
X033273Y030630D01*
X033387Y030688D01*
X033503Y030739D01*
X033622Y030785D01*
X033742Y030825D01*
X033865Y030859D01*
X033989Y030887D01*
X034114Y030909D01*
X034240Y030925D01*
X034367Y030935D01*
X034494Y030938D01*
X034621Y030935D01*
X034748Y030926D01*
X034874Y030911D01*
X035000Y030890D01*
X035124Y030862D01*
X035246Y030829D01*
X035367Y030790D01*
X035486Y030744D01*
X035603Y030693D01*
X035716Y030637D01*
X035827Y030575D01*
X035935Y030507D01*
X036039Y030435D01*
X036140Y030357D01*
X036237Y030275D01*
X036330Y030188D01*
X036418Y030096D01*
X036502Y030000D01*
X036580Y029901D01*
X036654Y029797D01*
X036723Y029690D01*
X036787Y029580D01*
X036845Y029467D01*
X036897Y029351D01*
X036944Y029233D01*
X036985Y029113D01*
X037020Y028991D01*
X037049Y028867D01*
X037072Y028742D01*
X037089Y028616D01*
X037099Y028489D01*
X037104Y028362D01*
X037102Y028235D01*
X037094Y028108D01*
X037080Y027982D01*
X037060Y027856D01*
X037033Y027732D01*
X037001Y027609D01*
X036962Y027488D01*
X036918Y027369D01*
X036868Y027252D01*
X036812Y027137D01*
X036751Y027026D01*
X036684Y026918D01*
X036613Y026813D01*
X036536Y026712D01*
X036454Y026614D01*
X036368Y026521D01*
X036277Y026432D01*
X036182Y026347D01*
X036083Y026268D01*
X035980Y026193D01*
X035874Y026123D01*
X035764Y026059D01*
X035651Y026000D01*
X035536Y025947D01*
X035418Y025899D01*
X035298Y025857D01*
X035176Y025821D01*
X035053Y025791D01*
X034928Y025767D01*
X034802Y025749D01*
X034675Y025738D01*
X034548Y025732D01*
X034421Y025733D01*
X034294Y025740D01*
X034168Y025753D01*
X034042Y025773D01*
X033918Y025798D01*
X033794Y025830D01*
X033673Y025867D01*
X033553Y025911D01*
X033436Y025960D01*
X033321Y026015D01*
X033210Y026075D01*
X033101Y026141D01*
X010061Y018621D02*
X010117Y018170D01*
X010195Y017723D01*
X010292Y017279D01*
X010408Y016841D01*
X010545Y016407D01*
X010701Y015981D01*
X006541Y013581D02*
X006434Y013645D01*
X006324Y013703D01*
X006211Y013756D01*
X006095Y013803D01*
X005978Y013845D01*
X005858Y013881D01*
X005737Y013911D01*
X005615Y013935D01*
X005491Y013953D01*
X005367Y013965D01*
X005243Y013971D01*
X005118Y013971D01*
X004993Y013965D01*
X004869Y013953D01*
X004746Y013935D01*
X004623Y013911D01*
X004502Y013880D01*
X004383Y013845D01*
X004265Y013803D01*
X004150Y013755D01*
X004037Y013702D01*
X003927Y013644D01*
X003820Y013580D01*
X003716Y013511D01*
X003615Y013438D01*
X003518Y013359D01*
X003425Y013276D01*
X003337Y013188D01*
X003252Y013096D01*
X003172Y013000D01*
X003097Y012901D01*
X003027Y012798D01*
X002962Y012691D01*
X002903Y012582D01*
X002848Y012469D01*
X002799Y012354D01*
X002756Y012237D01*
X002719Y012118D01*
X002687Y011998D01*
X002662Y011876D01*
X002642Y011752D01*
X002628Y011628D01*
X002621Y011504D01*
X002619Y011379D01*
X002624Y011255D01*
X002634Y011130D01*
X002651Y011007D01*
X002674Y010884D01*
X002702Y010763D01*
X002737Y010643D01*
X002777Y010525D01*
X002823Y010409D01*
X002874Y010295D01*
X002931Y010184D01*
X002994Y010076D01*
X003061Y009971D01*
X003134Y009870D01*
X003211Y009772D01*
X003293Y009678D01*
X003380Y009588D01*
X003471Y009503D01*
X003565Y009422D01*
X003664Y009345D01*
X003766Y009274D01*
X003872Y009208D01*
X003981Y009147D01*
X004092Y009091D01*
X004207Y009041D01*
X004323Y008996D01*
X004442Y008957D01*
X004562Y008924D01*
X004684Y008897D01*
X004807Y008876D01*
X004930Y008860D01*
X005055Y008851D01*
X005179Y008848D01*
X005304Y008851D01*
X005429Y008860D01*
X005552Y008875D01*
X005675Y008896D01*
X005797Y008923D01*
X005917Y008956D01*
X006036Y008995D01*
X006152Y009039D01*
X006267Y009089D01*
X006378Y009145D01*
X006487Y009206D01*
X006593Y009272D01*
X006695Y009343D01*
X006794Y009420D01*
X006889Y009500D01*
X006980Y009586D01*
X007067Y009676D01*
X007149Y009769D01*
X007226Y009867D01*
X007299Y009969D01*
X007367Y010073D01*
X007429Y010181D01*
X007486Y010292D01*
X007538Y010406D01*
X007584Y010522D01*
X007624Y010640D01*
X007659Y010760D01*
X007688Y010881D01*
X007711Y011004D01*
X007727Y011127D01*
X007738Y011251D01*
X007743Y011376D01*
X007741Y011501D01*
X011501Y007741D02*
X011376Y007743D01*
X011251Y007738D01*
X011127Y007727D01*
X011004Y007711D01*
X010881Y007688D01*
X010760Y007659D01*
X010640Y007624D01*
X010522Y007584D01*
X010406Y007538D01*
X010292Y007486D01*
X010181Y007429D01*
X010073Y007367D01*
X009969Y007299D01*
X009867Y007226D01*
X009769Y007149D01*
X009676Y007067D01*
X009586Y006980D01*
X009500Y006889D01*
X009420Y006794D01*
X009343Y006695D01*
X009272Y006593D01*
X009206Y006487D01*
X009145Y006378D01*
X009089Y006267D01*
X009039Y006152D01*
X008995Y006036D01*
X008956Y005917D01*
X008923Y005797D01*
X008896Y005675D01*
X008875Y005552D01*
X008860Y005429D01*
X008851Y005304D01*
X008848Y005179D01*
X008851Y005055D01*
X008860Y004930D01*
X008876Y004807D01*
X008897Y004684D01*
X008924Y004562D01*
X008957Y004442D01*
X008996Y004323D01*
X009041Y004207D01*
X009091Y004092D01*
X009147Y003981D01*
X009208Y003872D01*
X009274Y003766D01*
X009345Y003664D01*
X009422Y003565D01*
X009503Y003471D01*
X009588Y003380D01*
X009678Y003293D01*
X009772Y003211D01*
X009870Y003134D01*
X009971Y003061D01*
X010076Y002994D01*
X010184Y002931D01*
X010295Y002874D01*
X010409Y002823D01*
X010525Y002777D01*
X010643Y002737D01*
X010763Y002702D01*
X010884Y002674D01*
X011007Y002651D01*
X011130Y002634D01*
X011255Y002624D01*
X011379Y002619D01*
X011504Y002621D01*
X011628Y002628D01*
X011752Y002642D01*
X011876Y002662D01*
X011998Y002687D01*
X012118Y002719D01*
X012237Y002756D01*
X012354Y002799D01*
X012469Y002848D01*
X012582Y002903D01*
X012691Y002962D01*
X012798Y003027D01*
X012901Y003097D01*
X013000Y003172D01*
X013096Y003252D01*
X013188Y003337D01*
X013276Y003425D01*
X013359Y003518D01*
X013438Y003615D01*
X013511Y003716D01*
X013580Y003820D01*
X013644Y003927D01*
X013702Y004037D01*
X013755Y004150D01*
X013803Y004265D01*
X013845Y004383D01*
X013880Y004502D01*
X013911Y004623D01*
X013935Y004746D01*
X013953Y004869D01*
X013965Y004993D01*
X013971Y005118D01*
X013971Y005243D01*
X013965Y005367D01*
X013953Y005491D01*
X013935Y005615D01*
X013911Y005737D01*
X013881Y005858D01*
X013845Y005978D01*
X013803Y006095D01*
X013756Y006211D01*
X013703Y006324D01*
X013645Y006434D01*
X013581Y006541D01*
X029581Y021022D02*
X029512Y021474D01*
X029423Y021923D01*
X029313Y022367D01*
X029182Y022805D01*
X029032Y023237D01*
X028861Y023662D01*
X018621Y010061D02*
X018182Y010132D01*
X017747Y010223D01*
X017317Y010334D01*
X016892Y010464D01*
X016473Y010613D01*
X016061Y010781D01*
X010061Y021021D02*
X010129Y021473D01*
X010219Y021922D01*
X010329Y022366D01*
X010459Y022804D01*
X010610Y023236D01*
X010781Y023661D01*
X006541Y026061D02*
X006434Y025997D01*
X006324Y025939D01*
X006211Y025886D01*
X006095Y025839D01*
X005978Y025797D01*
X005858Y025761D01*
X005737Y025731D01*
X005615Y025707D01*
X005491Y025689D01*
X005367Y025677D01*
X005243Y025671D01*
X005118Y025671D01*
X004993Y025677D01*
X004869Y025689D01*
X004746Y025707D01*
X004623Y025731D01*
X004502Y025762D01*
X004383Y025797D01*
X004265Y025839D01*
X004150Y025887D01*
X004037Y025940D01*
X003927Y025998D01*
X003820Y026062D01*
X003716Y026131D01*
X003615Y026204D01*
X003518Y026283D01*
X003425Y026366D01*
X003337Y026454D01*
X003252Y026546D01*
X003172Y026642D01*
X003097Y026741D01*
X003027Y026844D01*
X002962Y026951D01*
X002903Y027060D01*
X002848Y027173D01*
X002799Y027288D01*
X002756Y027405D01*
X002719Y027524D01*
X002687Y027644D01*
X002662Y027766D01*
X002642Y027890D01*
X002628Y028014D01*
X002621Y028138D01*
X002619Y028263D01*
X002624Y028387D01*
X002634Y028512D01*
X002651Y028635D01*
X002674Y028758D01*
X002702Y028879D01*
X002737Y028999D01*
X002777Y029117D01*
X002823Y029233D01*
X002874Y029347D01*
X002931Y029458D01*
X002994Y029566D01*
X003061Y029671D01*
X003134Y029772D01*
X003211Y029870D01*
X003293Y029964D01*
X003380Y030054D01*
X003471Y030139D01*
X003565Y030220D01*
X003664Y030297D01*
X003766Y030368D01*
X003872Y030434D01*
X003981Y030495D01*
X004092Y030551D01*
X004207Y030601D01*
X004323Y030646D01*
X004442Y030685D01*
X004562Y030718D01*
X004684Y030745D01*
X004807Y030766D01*
X004930Y030782D01*
X005055Y030791D01*
X005179Y030794D01*
X005304Y030791D01*
X005429Y030782D01*
X005552Y030767D01*
X005675Y030746D01*
X005797Y030719D01*
X005917Y030686D01*
X006036Y030647D01*
X006152Y030603D01*
X006267Y030553D01*
X006378Y030497D01*
X006487Y030436D01*
X006593Y030370D01*
X006695Y030299D01*
X006794Y030222D01*
X006889Y030142D01*
X006980Y030056D01*
X007067Y029966D01*
X007149Y029873D01*
X007226Y029775D01*
X007299Y029673D01*
X007367Y029569D01*
X007429Y029461D01*
X007486Y029350D01*
X007538Y029236D01*
X007584Y029120D01*
X007624Y029002D01*
X007659Y028882D01*
X007688Y028761D01*
X007711Y028638D01*
X007727Y028515D01*
X007738Y028391D01*
X007743Y028266D01*
X007741Y028141D01*
X011421Y031901D02*
X011296Y031899D01*
X011171Y031904D01*
X011047Y031915D01*
X010924Y031931D01*
X010801Y031954D01*
X010680Y031983D01*
X010560Y032018D01*
X010442Y032058D01*
X010326Y032104D01*
X010212Y032156D01*
X010101Y032213D01*
X009993Y032275D01*
X009889Y032343D01*
X009787Y032416D01*
X009689Y032493D01*
X009596Y032575D01*
X009506Y032662D01*
X009420Y032753D01*
X009340Y032848D01*
X009263Y032947D01*
X009192Y033049D01*
X009126Y033155D01*
X009065Y033264D01*
X009009Y033375D01*
X008959Y033490D01*
X008915Y033606D01*
X008876Y033725D01*
X008843Y033845D01*
X008816Y033967D01*
X008795Y034090D01*
X008780Y034213D01*
X008771Y034338D01*
X008768Y034463D01*
X008771Y034587D01*
X008780Y034712D01*
X008796Y034835D01*
X008817Y034958D01*
X008844Y035080D01*
X008877Y035200D01*
X008916Y035319D01*
X008961Y035435D01*
X009011Y035550D01*
X009067Y035661D01*
X009128Y035770D01*
X009194Y035876D01*
X009265Y035978D01*
X009342Y036077D01*
X009423Y036171D01*
X009508Y036262D01*
X009598Y036349D01*
X009692Y036431D01*
X009790Y036508D01*
X009891Y036581D01*
X009996Y036648D01*
X010104Y036711D01*
X010215Y036768D01*
X010329Y036819D01*
X010445Y036865D01*
X010563Y036905D01*
X010683Y036940D01*
X010804Y036968D01*
X010927Y036991D01*
X011050Y037008D01*
X011175Y037018D01*
X011299Y037023D01*
X011424Y037021D01*
X011548Y037014D01*
X011672Y037000D01*
X011796Y036980D01*
X011918Y036955D01*
X012038Y036923D01*
X012157Y036886D01*
X012274Y036843D01*
X012389Y036794D01*
X012502Y036739D01*
X012611Y036680D01*
X012718Y036615D01*
X012821Y036545D01*
X012920Y036470D01*
X013016Y036390D01*
X013108Y036305D01*
X013196Y036217D01*
X013279Y036124D01*
X013358Y036027D01*
X013431Y035926D01*
X013500Y035822D01*
X013564Y035715D01*
X013622Y035605D01*
X013675Y035492D01*
X013723Y035377D01*
X013765Y035259D01*
X013800Y035140D01*
X013831Y035019D01*
X013855Y034896D01*
X013873Y034773D01*
X013885Y034649D01*
X013891Y034524D01*
X013891Y034399D01*
X013885Y034275D01*
X013873Y034151D01*
X013855Y034027D01*
X013831Y033905D01*
X013801Y033784D01*
X013765Y033664D01*
X013723Y033547D01*
X013676Y033431D01*
X013623Y033318D01*
X013565Y033208D01*
X013501Y033101D01*
X029581Y018621D02*
X029513Y018169D01*
X029423Y017720D01*
X029313Y017276D01*
X029183Y016838D01*
X029032Y016406D01*
X028861Y015981D01*
X033101Y013581D02*
X033208Y013645D01*
X033318Y013703D01*
X033431Y013756D01*
X033547Y013803D01*
X033664Y013845D01*
X033784Y013881D01*
X033905Y013911D01*
X034027Y013935D01*
X034151Y013953D01*
X034275Y013965D01*
X034399Y013971D01*
X034524Y013971D01*
X034649Y013965D01*
X034773Y013953D01*
X034896Y013935D01*
X035019Y013911D01*
X035140Y013880D01*
X035259Y013845D01*
X035377Y013803D01*
X035492Y013755D01*
X035605Y013702D01*
X035715Y013644D01*
X035822Y013580D01*
X035926Y013511D01*
X036027Y013438D01*
X036124Y013359D01*
X036217Y013276D01*
X036305Y013188D01*
X036390Y013096D01*
X036470Y013000D01*
X036545Y012901D01*
X036615Y012798D01*
X036680Y012691D01*
X036739Y012582D01*
X036794Y012469D01*
X036843Y012354D01*
X036886Y012237D01*
X036923Y012118D01*
X036955Y011998D01*
X036980Y011876D01*
X037000Y011752D01*
X037014Y011628D01*
X037021Y011504D01*
X037023Y011379D01*
X037018Y011255D01*
X037008Y011130D01*
X036991Y011007D01*
X036968Y010884D01*
X036940Y010763D01*
X036905Y010643D01*
X036865Y010525D01*
X036819Y010409D01*
X036768Y010295D01*
X036711Y010184D01*
X036648Y010076D01*
X036581Y009971D01*
X036508Y009870D01*
X036431Y009772D01*
X036349Y009678D01*
X036262Y009588D01*
X036171Y009503D01*
X036077Y009422D01*
X035978Y009345D01*
X035876Y009274D01*
X035770Y009208D01*
X035661Y009147D01*
X035550Y009091D01*
X035435Y009041D01*
X035319Y008996D01*
X035200Y008957D01*
X035080Y008924D01*
X034958Y008897D01*
X034835Y008876D01*
X034712Y008860D01*
X034587Y008851D01*
X034463Y008848D01*
X034338Y008851D01*
X034213Y008860D01*
X034090Y008875D01*
X033967Y008896D01*
X033845Y008923D01*
X033725Y008956D01*
X033606Y008995D01*
X033490Y009039D01*
X033375Y009089D01*
X033264Y009145D01*
X033155Y009206D01*
X033049Y009272D01*
X032947Y009343D01*
X032848Y009420D01*
X032753Y009500D01*
X032662Y009586D01*
X032575Y009676D01*
X032493Y009769D01*
X032416Y009867D01*
X032343Y009969D01*
X032275Y010073D01*
X032213Y010181D01*
X032156Y010292D01*
X032104Y010406D01*
X032058Y010522D01*
X032018Y010640D01*
X031983Y010760D01*
X031954Y010881D01*
X031931Y011004D01*
X031915Y011127D01*
X031904Y011251D01*
X031899Y011376D01*
X031901Y011501D01*
X028221Y007741D02*
X028346Y007743D01*
X028471Y007738D01*
X028595Y007727D01*
X028718Y007711D01*
X028841Y007688D01*
X028962Y007659D01*
X029082Y007624D01*
X029200Y007584D01*
X029316Y007538D01*
X029430Y007486D01*
X029541Y007429D01*
X029649Y007367D01*
X029753Y007299D01*
X029855Y007226D01*
X029953Y007149D01*
X030046Y007067D01*
X030136Y006980D01*
X030222Y006889D01*
X030302Y006794D01*
X030379Y006695D01*
X030450Y006593D01*
X030516Y006487D01*
X030577Y006378D01*
X030633Y006267D01*
X030683Y006152D01*
X030727Y006036D01*
X030766Y005917D01*
X030799Y005797D01*
X030826Y005675D01*
X030847Y005552D01*
X030862Y005429D01*
X030871Y005304D01*
X030874Y005179D01*
X030871Y005055D01*
X030862Y004930D01*
X030846Y004807D01*
X030825Y004684D01*
X030798Y004562D01*
X030765Y004442D01*
X030726Y004323D01*
X030681Y004207D01*
X030631Y004092D01*
X030575Y003981D01*
X030514Y003872D01*
X030448Y003766D01*
X030377Y003664D01*
X030300Y003565D01*
X030219Y003471D01*
X030134Y003380D01*
X030044Y003293D01*
X029950Y003211D01*
X029852Y003134D01*
X029751Y003061D01*
X029646Y002994D01*
X029538Y002931D01*
X029427Y002874D01*
X029313Y002823D01*
X029197Y002777D01*
X029079Y002737D01*
X028959Y002702D01*
X028838Y002674D01*
X028715Y002651D01*
X028592Y002634D01*
X028467Y002624D01*
X028343Y002619D01*
X028218Y002621D01*
X028094Y002628D01*
X027970Y002642D01*
X027846Y002662D01*
X027724Y002687D01*
X027604Y002719D01*
X027485Y002756D01*
X027368Y002799D01*
X027253Y002848D01*
X027140Y002903D01*
X027031Y002962D01*
X026924Y003027D01*
X026821Y003097D01*
X026722Y003172D01*
X026626Y003252D01*
X026534Y003337D01*
X026446Y003425D01*
X026363Y003518D01*
X026284Y003615D01*
X026211Y003716D01*
X026142Y003820D01*
X026078Y003927D01*
X026020Y004037D01*
X025967Y004150D01*
X025919Y004265D01*
X025877Y004383D01*
X025842Y004502D01*
X025811Y004623D01*
X025787Y004746D01*
X025769Y004869D01*
X025757Y004993D01*
X025751Y005118D01*
X025751Y005243D01*
X025757Y005367D01*
X025769Y005491D01*
X025787Y005615D01*
X025811Y005737D01*
X025841Y005858D01*
X025877Y005978D01*
X025919Y006095D01*
X025966Y006211D01*
X026019Y006324D01*
X026077Y006434D01*
X026141Y006541D01*
X018621Y029581D02*
X018169Y029513D01*
X017720Y029423D01*
X017276Y029313D01*
X016838Y029183D01*
X016406Y029032D01*
X015981Y028861D01*
X021021Y010061D02*
X021473Y010129D01*
X021922Y010219D01*
X022366Y010329D01*
X022804Y010459D01*
X023236Y010610D01*
X023661Y010781D01*
X013901Y011981D02*
X013545Y012263D01*
X013203Y012561D01*
X012874Y012874D01*
X012561Y013203D01*
X012263Y013545D01*
X011981Y013901D01*
X021021Y029581D02*
X021473Y029513D01*
X021922Y029423D01*
X022366Y029313D01*
X022804Y029183D01*
X023236Y029032D01*
X023661Y028861D01*
X027661Y013901D02*
X027379Y013545D01*
X027081Y013203D01*
X026768Y012874D01*
X026439Y012561D01*
X026097Y012263D01*
X025741Y011981D01*
X027661Y025741D02*
X027379Y026097D01*
X027081Y026439D01*
X026768Y026768D01*
X026439Y027081D01*
X026097Y027379D01*
X025741Y027661D01*
X013901Y027661D02*
X013545Y027379D01*
X013203Y027081D01*
X012874Y026768D01*
X012561Y026439D01*
X012263Y026097D01*
X011981Y025741D01*
D13*
G36*
X006665Y028403D02*
X006448Y028027D01*
X005733Y028439D01*
X005950Y028815D01*
X006665Y028403D01*
G37*
G36*
X006350Y027858D02*
X006133Y027482D01*
X005418Y027894D01*
X005635Y028270D01*
X006350Y027858D01*
G37*
G36*
X006035Y027312D02*
X005818Y026936D01*
X005103Y027348D01*
X005320Y027724D01*
X006035Y027312D01*
G37*
G36*
X004895Y028698D02*
X004678Y028322D01*
X003963Y028734D01*
X004180Y029110D01*
X004895Y028698D01*
G37*
G36*
X005210Y029243D02*
X004993Y028867D01*
X004278Y029279D01*
X004495Y029655D01*
X005210Y029243D01*
G37*
G36*
X004580Y028152D02*
X004363Y027776D01*
X003648Y028188D01*
X003865Y028564D01*
X004580Y028152D01*
G37*
G36*
X011625Y033205D02*
X011249Y032988D01*
X010837Y033703D01*
X011213Y033920D01*
X011625Y033205D01*
G37*
G36*
X012171Y033519D02*
X011795Y033302D01*
X011383Y034017D01*
X011759Y034234D01*
X012171Y033519D01*
G37*
G36*
X012716Y033834D02*
X012340Y033617D01*
X011928Y034332D01*
X012304Y034549D01*
X012716Y033834D01*
G37*
G36*
X011876Y035289D02*
X011500Y035072D01*
X011088Y035787D01*
X011464Y036004D01*
X011876Y035289D01*
G37*
G36*
X011331Y034974D02*
X010955Y034757D01*
X010543Y035472D01*
X010919Y035689D01*
X011331Y034974D01*
G37*
G36*
X010785Y034659D02*
X010409Y034442D01*
X009997Y035157D01*
X010373Y035374D01*
X010785Y034659D01*
G37*
X019196Y035925D03*
X019826Y035925D03*
X020456Y035925D03*
X020456Y037605D03*
X019826Y037605D03*
X019196Y037605D03*
G36*
X027312Y033617D02*
X026936Y033834D01*
X027348Y034549D01*
X027724Y034332D01*
X027312Y033617D01*
G37*
G36*
X027858Y033302D02*
X027482Y033519D01*
X027894Y034234D01*
X028270Y034017D01*
X027858Y033302D01*
G37*
G36*
X028403Y032988D02*
X028027Y033205D01*
X028439Y033920D01*
X028815Y033703D01*
X028403Y032988D01*
G37*
G36*
X029243Y034442D02*
X028867Y034659D01*
X029279Y035374D01*
X029655Y035157D01*
X029243Y034442D01*
G37*
G36*
X028698Y034757D02*
X028322Y034974D01*
X028734Y035689D01*
X029110Y035472D01*
X028698Y034757D01*
G37*
G36*
X028152Y035072D02*
X027776Y035289D01*
X028188Y036004D01*
X028564Y035787D01*
X028152Y035072D01*
G37*
G36*
X033205Y028027D02*
X032988Y028403D01*
X033703Y028815D01*
X033920Y028439D01*
X033205Y028027D01*
G37*
G36*
X033520Y027482D02*
X033303Y027858D01*
X034018Y028270D01*
X034235Y027894D01*
X033520Y027482D01*
G37*
G36*
X033834Y026936D02*
X033617Y027312D01*
X034332Y027724D01*
X034549Y027348D01*
X033834Y026936D01*
G37*
G36*
X035289Y027776D02*
X035072Y028152D01*
X035787Y028564D01*
X036004Y028188D01*
X035289Y027776D01*
G37*
G36*
X034974Y028322D02*
X034757Y028698D01*
X035472Y029110D01*
X035689Y028734D01*
X034974Y028322D01*
G37*
G36*
X034659Y028867D02*
X034442Y029243D01*
X035157Y029655D01*
X035374Y029279D01*
X034659Y028867D01*
G37*
G36*
X033617Y012340D02*
X033834Y012716D01*
X034549Y012304D01*
X034332Y011928D01*
X033617Y012340D01*
G37*
G36*
X033303Y011795D02*
X033520Y012171D01*
X034235Y011759D01*
X034018Y011383D01*
X033303Y011795D01*
G37*
G36*
X032988Y011249D02*
X033205Y011625D01*
X033920Y011213D01*
X033703Y010837D01*
X032988Y011249D01*
G37*
G36*
X034442Y010409D02*
X034659Y010785D01*
X035374Y010373D01*
X035157Y009997D01*
X034442Y010409D01*
G37*
G36*
X034757Y010955D02*
X034974Y011331D01*
X035689Y010919D01*
X035472Y010543D01*
X034757Y010955D01*
G37*
G36*
X035072Y011500D02*
X035289Y011876D01*
X036004Y011464D01*
X035787Y011088D01*
X035072Y011500D01*
G37*
G36*
X028027Y006448D02*
X028403Y006665D01*
X028815Y005950D01*
X028439Y005733D01*
X028027Y006448D01*
G37*
G36*
X027482Y006133D02*
X027858Y006350D01*
X028270Y005635D01*
X027894Y005418D01*
X027482Y006133D01*
G37*
G36*
X026936Y005818D02*
X027312Y006035D01*
X027724Y005320D01*
X027348Y005103D01*
X026936Y005818D01*
G37*
G36*
X027776Y004363D02*
X028152Y004580D01*
X028564Y003865D01*
X028188Y003648D01*
X027776Y004363D01*
G37*
G36*
X028322Y004678D02*
X028698Y004895D01*
X029110Y004180D01*
X028734Y003963D01*
X028322Y004678D01*
G37*
G36*
X028867Y004993D02*
X029243Y005210D01*
X029655Y004495D01*
X029279Y004278D01*
X028867Y004993D01*
G37*
X020456Y003727D03*
X019826Y003727D03*
X019196Y003727D03*
X019196Y002047D03*
X019826Y002047D03*
X020456Y002047D03*
G36*
X012340Y006035D02*
X012716Y005818D01*
X012304Y005103D01*
X011928Y005320D01*
X012340Y006035D01*
G37*
G36*
X011795Y006350D02*
X012171Y006133D01*
X011759Y005418D01*
X011383Y005635D01*
X011795Y006350D01*
G37*
G36*
X011249Y006665D02*
X011625Y006448D01*
X011213Y005733D01*
X010837Y005950D01*
X011249Y006665D01*
G37*
G36*
X010409Y005210D02*
X010785Y004993D01*
X010373Y004278D01*
X009997Y004495D01*
X010409Y005210D01*
G37*
G36*
X010955Y004895D02*
X011331Y004678D01*
X010919Y003963D01*
X010543Y004180D01*
X010955Y004895D01*
G37*
G36*
X011500Y004580D02*
X011876Y004363D01*
X011464Y003648D01*
X011088Y003865D01*
X011500Y004580D01*
G37*
G36*
X006448Y011625D02*
X006665Y011249D01*
X005950Y010837D01*
X005733Y011213D01*
X006448Y011625D01*
G37*
G36*
X006133Y012171D02*
X006350Y011795D01*
X005635Y011383D01*
X005418Y011759D01*
X006133Y012171D01*
G37*
G36*
X005818Y012716D02*
X006035Y012340D01*
X005320Y011928D01*
X005103Y012304D01*
X005818Y012716D01*
G37*
G36*
X004363Y011876D02*
X004580Y011500D01*
X003865Y011088D01*
X003648Y011464D01*
X004363Y011876D01*
G37*
G36*
X004678Y011331D02*
X004895Y010955D01*
X004180Y010543D01*
X003963Y010919D01*
X004678Y011331D01*
G37*
G36*
X004993Y010785D02*
X005210Y010409D01*
X004495Y009997D01*
X004278Y010373D01*
X004993Y010785D01*
G37*
D14*
X004993Y009898D03*
X011944Y003811D03*
X021007Y002016D03*
X029754Y004993D03*
X035841Y011944D03*
X037636Y021007D03*
X034660Y029754D03*
X027708Y035841D03*
X018645Y037636D03*
X009898Y034660D03*
X003811Y027708D03*
X002016Y018645D03*
D15*
X002047Y019196D03*
X002047Y019826D03*
X002047Y020456D03*
X003727Y020456D03*
X003727Y019826D03*
X003727Y019196D03*
X035925Y019196D03*
X035925Y019826D03*
X035925Y020456D03*
X037605Y020456D03*
X037605Y019826D03*
X037605Y019196D03*
D16*
G36*
X029314Y021085D02*
X028716Y020924D01*
X028670Y021097D01*
X029268Y021258D01*
X029314Y021085D01*
G37*
G36*
X029249Y021327D02*
X028651Y021166D01*
X028605Y021339D01*
X029203Y021500D01*
X029249Y021327D01*
G37*
G36*
X029182Y021578D02*
X028584Y021417D01*
X028538Y021590D01*
X029136Y021751D01*
X029182Y021578D01*
G37*
G36*
X029115Y021829D02*
X028517Y021668D01*
X028471Y021841D01*
X029069Y022002D01*
X029115Y021829D01*
G37*
G36*
X028918Y022563D02*
X028320Y022402D01*
X028274Y022575D01*
X028872Y022736D01*
X028918Y022563D01*
G37*
G36*
X028851Y022815D02*
X028253Y022654D01*
X028207Y022827D01*
X028805Y022988D01*
X028851Y022815D01*
G37*
G36*
X028783Y023066D02*
X028185Y022905D01*
X028139Y023078D01*
X028737Y023239D01*
X028783Y023066D01*
G37*
G36*
X028719Y023307D02*
X028121Y023146D01*
X028075Y023319D01*
X028673Y023480D01*
X028719Y023307D01*
G37*
G36*
X026906Y021496D02*
X026308Y021335D01*
X026262Y021508D01*
X026860Y021669D01*
X026906Y021496D01*
G37*
G36*
X026970Y021255D02*
X026372Y021094D01*
X026326Y021267D01*
X026924Y021428D01*
X026970Y021255D01*
G37*
G36*
X027038Y021004D02*
X026440Y020843D01*
X026394Y021016D01*
X026992Y021177D01*
X027038Y021004D01*
G37*
G36*
X027105Y020752D02*
X026507Y020591D01*
X026461Y020764D01*
X027059Y020925D01*
X027105Y020752D01*
G37*
G36*
X027169Y020511D02*
X026571Y020350D01*
X026525Y020523D01*
X027123Y020684D01*
X027169Y020511D01*
G37*
G36*
X026838Y021747D02*
X026240Y021586D01*
X026194Y021759D01*
X026792Y021920D01*
X026838Y021747D01*
G37*
G36*
X026773Y021989D02*
X026175Y021828D01*
X026129Y022001D01*
X026727Y022162D01*
X026773Y021989D01*
G37*
G36*
X026706Y022240D02*
X026108Y022079D01*
X026062Y022252D01*
X026660Y022413D01*
X026706Y022240D01*
G37*
G36*
X026639Y022491D02*
X026041Y022330D01*
X025995Y022503D01*
X026593Y022664D01*
X026639Y022491D01*
G37*
G36*
X026574Y022733D02*
X025976Y022572D01*
X025930Y022745D01*
X026528Y022906D01*
X026574Y022733D01*
G37*
G36*
X022906Y026528D02*
X022745Y025930D01*
X022572Y025976D01*
X022733Y026574D01*
X022906Y026528D01*
G37*
G36*
X022664Y026593D02*
X022503Y025995D01*
X022330Y026041D01*
X022491Y026639D01*
X022664Y026593D01*
G37*
G36*
X022413Y026660D02*
X022252Y026062D01*
X022079Y026108D01*
X022240Y026706D01*
X022413Y026660D01*
G37*
G36*
X022162Y026727D02*
X022001Y026129D01*
X021828Y026175D01*
X021989Y026773D01*
X022162Y026727D01*
G37*
G36*
X021920Y026792D02*
X021759Y026194D01*
X021586Y026240D01*
X021747Y026838D01*
X021920Y026792D01*
G37*
G36*
X021669Y026859D02*
X021508Y026261D01*
X021335Y026307D01*
X021496Y026905D01*
X021669Y026859D01*
G37*
G36*
X021428Y026924D02*
X021267Y026326D01*
X021094Y026372D01*
X021255Y026970D01*
X021428Y026924D01*
G37*
G36*
X021177Y026991D02*
X021016Y026393D01*
X020843Y026439D01*
X021004Y027037D01*
X021177Y026991D01*
G37*
G36*
X020925Y027059D02*
X020764Y026461D01*
X020591Y026507D01*
X020752Y027105D01*
X020925Y027059D01*
G37*
G36*
X020684Y027123D02*
X020523Y026525D01*
X020350Y026571D01*
X020511Y027169D01*
X020684Y027123D01*
G37*
G36*
X021500Y029203D02*
X021339Y028605D01*
X021166Y028651D01*
X021327Y029249D01*
X021500Y029203D01*
G37*
G36*
X021751Y029136D02*
X021590Y028538D01*
X021417Y028584D01*
X021578Y029182D01*
X021751Y029136D01*
G37*
G36*
X022002Y029069D02*
X021841Y028471D01*
X021668Y028517D01*
X021829Y029115D01*
X022002Y029069D01*
G37*
G36*
X022736Y028872D02*
X022575Y028274D01*
X022402Y028320D01*
X022563Y028918D01*
X022736Y028872D01*
G37*
G36*
X022988Y028805D02*
X022827Y028207D01*
X022654Y028253D01*
X022815Y028851D01*
X022988Y028805D01*
G37*
G36*
X023239Y028737D02*
X023078Y028139D01*
X022905Y028185D01*
X023066Y028783D01*
X023239Y028737D01*
G37*
G36*
X023480Y028673D02*
X023319Y028075D01*
X023146Y028121D01*
X023307Y028719D01*
X023480Y028673D01*
G37*
G36*
X021259Y029268D02*
X021098Y028670D01*
X020925Y028716D01*
X021086Y029314D01*
X021259Y029268D01*
G37*
G36*
X015562Y025843D02*
X015999Y025406D01*
X015872Y025279D01*
X015435Y025716D01*
X015562Y025843D01*
G37*
G36*
X015385Y025667D02*
X015822Y025230D01*
X015695Y025103D01*
X015258Y025540D01*
X015385Y025667D01*
G37*
G36*
X015202Y025483D02*
X015639Y025046D01*
X015512Y024919D01*
X015075Y025356D01*
X015202Y025483D01*
G37*
G36*
X015018Y025299D02*
X015455Y024862D01*
X015328Y024735D01*
X014891Y025172D01*
X015018Y025299D01*
G37*
G36*
X014841Y025122D02*
X015278Y024685D01*
X015151Y024558D01*
X014714Y024995D01*
X014841Y025122D01*
G37*
G36*
X014657Y024938D02*
X015094Y024501D01*
X014967Y024374D01*
X014530Y024811D01*
X014657Y024938D01*
G37*
G36*
X014480Y024761D02*
X014917Y024324D01*
X014790Y024197D01*
X014353Y024634D01*
X014480Y024761D01*
G37*
G36*
X014297Y024578D02*
X014734Y024141D01*
X014607Y024014D01*
X014170Y024451D01*
X014297Y024578D01*
G37*
G36*
X014113Y024394D02*
X014550Y023957D01*
X014423Y023830D01*
X013986Y024267D01*
X014113Y024394D01*
G37*
G36*
X013936Y024217D02*
X014373Y023780D01*
X014246Y023653D01*
X013809Y024090D01*
X013936Y024217D01*
G37*
G36*
X012543Y025964D02*
X012980Y025527D01*
X012853Y025400D01*
X012416Y025837D01*
X012543Y025964D01*
G37*
G36*
X012727Y026147D02*
X013164Y025710D01*
X013037Y025583D01*
X012600Y026020D01*
X012727Y026147D01*
G37*
G36*
X012911Y026331D02*
X013348Y025894D01*
X013221Y025767D01*
X012784Y026204D01*
X012911Y026331D01*
G37*
G36*
X013448Y026869D02*
X013885Y026432D01*
X013758Y026305D01*
X013321Y026742D01*
X013448Y026869D01*
G37*
G36*
X013632Y027053D02*
X014069Y026616D01*
X013942Y026489D01*
X013505Y026926D01*
X013632Y027053D01*
G37*
G36*
X013816Y027236D02*
X014253Y026799D01*
X014126Y026672D01*
X013689Y027109D01*
X013816Y027236D01*
G37*
G36*
X013992Y027413D02*
X014429Y026976D01*
X014302Y026849D01*
X013865Y027286D01*
X013992Y027413D01*
G37*
G36*
X012366Y025787D02*
X012803Y025350D01*
X012676Y025223D01*
X012239Y025660D01*
X012366Y025787D01*
G37*
G36*
X012483Y019141D02*
X013081Y019302D01*
X013127Y019129D01*
X012529Y018968D01*
X012483Y019141D01*
G37*
G36*
X012548Y018900D02*
X013146Y019061D01*
X013192Y018888D01*
X012594Y018727D01*
X012548Y018900D01*
G37*
G36*
X012615Y018649D02*
X013213Y018810D01*
X013259Y018637D01*
X012661Y018476D01*
X012615Y018649D01*
G37*
G36*
X012682Y018398D02*
X013280Y018559D01*
X013326Y018386D01*
X012728Y018225D01*
X012682Y018398D01*
G37*
G36*
X012747Y018156D02*
X013345Y018317D01*
X013391Y018144D01*
X012793Y017983D01*
X012747Y018156D01*
G37*
G36*
X012814Y017905D02*
X013412Y018066D01*
X013458Y017893D01*
X012860Y017732D01*
X012814Y017905D01*
G37*
G36*
X012879Y017663D02*
X013477Y017824D01*
X013523Y017651D01*
X012925Y017490D01*
X012879Y017663D01*
G37*
G36*
X012946Y017412D02*
X013544Y017573D01*
X013590Y017400D01*
X012992Y017239D01*
X012946Y017412D01*
G37*
G36*
X013013Y017161D02*
X013611Y017322D01*
X013657Y017149D01*
X013059Y016988D01*
X013013Y017161D01*
G37*
G36*
X013078Y016920D02*
X013676Y017081D01*
X013722Y016908D01*
X013124Y016747D01*
X013078Y016920D01*
G37*
G36*
X010934Y016345D02*
X011532Y016506D01*
X011578Y016333D01*
X010980Y016172D01*
X010934Y016345D01*
G37*
G36*
X010869Y016587D02*
X011467Y016748D01*
X011513Y016575D01*
X010915Y016414D01*
X010869Y016587D01*
G37*
G36*
X010802Y016838D02*
X011400Y016999D01*
X011446Y016826D01*
X010848Y016665D01*
X010802Y016838D01*
G37*
G36*
X010734Y017089D02*
X011332Y017250D01*
X011378Y017077D01*
X010780Y016916D01*
X010734Y017089D01*
G37*
G36*
X010538Y017823D02*
X011136Y017984D01*
X011182Y017811D01*
X010584Y017650D01*
X010538Y017823D01*
G37*
G36*
X010470Y018074D02*
X011068Y018235D01*
X011114Y018062D01*
X010516Y017901D01*
X010470Y018074D01*
G37*
G36*
X010403Y018325D02*
X011001Y018486D01*
X011047Y018313D01*
X010449Y018152D01*
X010403Y018325D01*
G37*
G36*
X010338Y018567D02*
X010936Y018728D01*
X010982Y018555D01*
X010384Y018394D01*
X010338Y018567D01*
G37*
G36*
X016747Y013124D02*
X016908Y013722D01*
X017081Y013676D01*
X016920Y013078D01*
X016747Y013124D01*
G37*
G36*
X016988Y013059D02*
X017149Y013657D01*
X017322Y013611D01*
X017161Y013013D01*
X016988Y013059D01*
G37*
G36*
X017239Y012992D02*
X017400Y013590D01*
X017573Y013544D01*
X017412Y012946D01*
X017239Y012992D01*
G37*
G36*
X017491Y012925D02*
X017652Y013523D01*
X017825Y013477D01*
X017664Y012879D01*
X017491Y012925D01*
G37*
G36*
X017732Y012860D02*
X017893Y013458D01*
X018066Y013412D01*
X017905Y012814D01*
X017732Y012860D01*
G37*
G36*
X017983Y012793D02*
X018144Y013391D01*
X018317Y013345D01*
X018156Y012747D01*
X017983Y012793D01*
G37*
G36*
X018225Y012728D02*
X018386Y013326D01*
X018559Y013280D01*
X018398Y012682D01*
X018225Y012728D01*
G37*
G36*
X018476Y012661D02*
X018637Y013259D01*
X018810Y013213D01*
X018649Y012615D01*
X018476Y012661D01*
G37*
G36*
X018727Y012593D02*
X018888Y013191D01*
X019061Y013145D01*
X018900Y012547D01*
X018727Y012593D01*
G37*
G36*
X018968Y012529D02*
X019129Y013127D01*
X019302Y013081D01*
X019141Y012483D01*
X018968Y012529D01*
G37*
G36*
X018152Y010449D02*
X018313Y011047D01*
X018486Y011001D01*
X018325Y010403D01*
X018152Y010449D01*
G37*
G36*
X017901Y010516D02*
X018062Y011114D01*
X018235Y011068D01*
X018074Y010470D01*
X017901Y010516D01*
G37*
G36*
X017650Y010584D02*
X017811Y011182D01*
X017984Y011136D01*
X017823Y010538D01*
X017650Y010584D01*
G37*
G36*
X016916Y010780D02*
X017077Y011378D01*
X017250Y011332D01*
X017089Y010734D01*
X016916Y010780D01*
G37*
G36*
X016665Y010848D02*
X016826Y011446D01*
X016999Y011400D01*
X016838Y010802D01*
X016665Y010848D01*
G37*
G36*
X016414Y010915D02*
X016575Y011513D01*
X016748Y011467D01*
X016587Y010869D01*
X016414Y010915D01*
G37*
G36*
X016172Y010980D02*
X016333Y011578D01*
X016506Y011532D01*
X016345Y010934D01*
X016172Y010980D01*
G37*
G36*
X018394Y010384D02*
X018555Y010982D01*
X018728Y010936D01*
X018567Y010338D01*
X018394Y010384D01*
G37*
G36*
X024090Y013809D02*
X023653Y014246D01*
X023780Y014373D01*
X024217Y013936D01*
X024090Y013809D01*
G37*
G36*
X024267Y013986D02*
X023830Y014423D01*
X023957Y014550D01*
X024394Y014113D01*
X024267Y013986D01*
G37*
G36*
X024451Y014169D02*
X024014Y014606D01*
X024141Y014733D01*
X024578Y014296D01*
X024451Y014169D01*
G37*
G36*
X024635Y014353D02*
X024198Y014790D01*
X024325Y014917D01*
X024762Y014480D01*
X024635Y014353D01*
G37*
G36*
X024811Y014530D02*
X024374Y014967D01*
X024501Y015094D01*
X024938Y014657D01*
X024811Y014530D01*
G37*
G36*
X024995Y014714D02*
X024558Y015151D01*
X024685Y015278D01*
X025122Y014841D01*
X024995Y014714D01*
G37*
G36*
X025172Y014891D02*
X024735Y015328D01*
X024862Y015455D01*
X025299Y015018D01*
X025172Y014891D01*
G37*
G36*
X025356Y015075D02*
X024919Y015512D01*
X025046Y015639D01*
X025483Y015202D01*
X025356Y015075D01*
G37*
G36*
X025540Y015258D02*
X025103Y015695D01*
X025230Y015822D01*
X025667Y015385D01*
X025540Y015258D01*
G37*
G36*
X025716Y015435D02*
X025279Y015872D01*
X025406Y015999D01*
X025843Y015562D01*
X025716Y015435D01*
G37*
G36*
X027109Y013689D02*
X026672Y014126D01*
X026799Y014253D01*
X027236Y013816D01*
X027109Y013689D01*
G37*
G36*
X026926Y013505D02*
X026489Y013942D01*
X026616Y014069D01*
X027053Y013632D01*
X026926Y013505D01*
G37*
G36*
X026742Y013321D02*
X026305Y013758D01*
X026432Y013885D01*
X026869Y013448D01*
X026742Y013321D01*
G37*
G36*
X026204Y012784D02*
X025767Y013221D01*
X025894Y013348D01*
X026331Y012911D01*
X026204Y012784D01*
G37*
G36*
X026020Y012600D02*
X025583Y013037D01*
X025710Y013164D01*
X026147Y012727D01*
X026020Y012600D01*
G37*
G36*
X025837Y012416D02*
X025400Y012853D01*
X025527Y012980D01*
X025964Y012543D01*
X025837Y012416D01*
G37*
G36*
X025660Y012239D02*
X025223Y012676D01*
X025350Y012803D01*
X025787Y012366D01*
X025660Y012239D01*
G37*
G36*
X027286Y013865D02*
X026849Y014302D01*
X026976Y014429D01*
X027413Y013992D01*
X027286Y013865D01*
G37*
D17*
X019826Y006440D03*
X019826Y005653D03*
X018056Y003384D03*
X018056Y002596D03*
X021596Y002596D03*
X021596Y003384D03*
X019826Y033212D03*
X019826Y033999D03*
X018056Y036269D03*
X018056Y037056D03*
X021596Y037056D03*
X021596Y036269D03*
D18*
G36*
X026888Y035007D02*
X026652Y034600D01*
X026142Y034895D01*
X026378Y035302D01*
X026888Y035007D01*
G37*
G36*
X027282Y035688D02*
X027046Y035281D01*
X026536Y035576D01*
X026772Y035983D01*
X027282Y035688D01*
G37*
G36*
X029953Y033237D02*
X029717Y032830D01*
X029207Y033125D01*
X029443Y033532D01*
X029953Y033237D01*
G37*
G36*
X030347Y033919D02*
X030111Y033512D01*
X029601Y033807D01*
X029837Y034214D01*
X030347Y033919D01*
G37*
G36*
X027286Y032157D02*
X027050Y031750D01*
X026540Y032045D01*
X026776Y032452D01*
X027286Y032157D01*
G37*
G36*
X026892Y031475D02*
X026656Y031068D01*
X026146Y031363D01*
X026382Y031770D01*
X026892Y031475D01*
G37*
G36*
X031770Y026382D02*
X031363Y026146D01*
X031068Y026656D01*
X031475Y026892D01*
X031770Y026382D01*
G37*
G36*
X032452Y026776D02*
X032045Y026540D01*
X031750Y027050D01*
X032157Y027286D01*
X032452Y026776D01*
G37*
G36*
X035302Y026378D02*
X034895Y026142D01*
X034600Y026652D01*
X035007Y026888D01*
X035302Y026378D01*
G37*
G36*
X035983Y026772D02*
X035576Y026536D01*
X035281Y027046D01*
X035688Y027282D01*
X035983Y026772D01*
G37*
G36*
X033532Y029443D02*
X033125Y029207D01*
X032830Y029717D01*
X033237Y029953D01*
X033532Y029443D01*
G37*
G36*
X034214Y029837D02*
X033807Y029601D01*
X033512Y030111D01*
X033919Y030347D01*
X034214Y029837D01*
G37*
X036269Y021596D03*
X037056Y021596D03*
X033999Y019826D03*
X033212Y019826D03*
X036269Y018056D03*
X037056Y018056D03*
G36*
X035007Y012764D02*
X034600Y013000D01*
X034895Y013510D01*
X035302Y013274D01*
X035007Y012764D01*
G37*
G36*
X035688Y012370D02*
X035281Y012606D01*
X035576Y013116D01*
X035983Y012880D01*
X035688Y012370D01*
G37*
G36*
X033237Y009699D02*
X032830Y009935D01*
X033125Y010445D01*
X033532Y010209D01*
X033237Y009699D01*
G37*
G36*
X033919Y009306D02*
X033512Y009542D01*
X033807Y010052D01*
X034214Y009816D01*
X033919Y009306D01*
G37*
G36*
X032157Y012367D02*
X031750Y012603D01*
X032045Y013113D01*
X032452Y012877D01*
X032157Y012367D01*
G37*
G36*
X031475Y012760D02*
X031068Y012996D01*
X031363Y013506D01*
X031770Y013270D01*
X031475Y012760D01*
G37*
X027175Y017661D03*
X026387Y017661D03*
X026387Y018541D03*
X027175Y018541D03*
X019236Y025732D03*
X018448Y025732D03*
G36*
X013270Y031770D02*
X013506Y031363D01*
X012996Y031068D01*
X012760Y031475D01*
X013270Y031770D01*
G37*
G36*
X012877Y032452D02*
X013113Y032045D01*
X012603Y031750D01*
X012367Y032157D01*
X012877Y032452D01*
G37*
G36*
X013274Y035302D02*
X013510Y034895D01*
X013000Y034600D01*
X012764Y035007D01*
X013274Y035302D01*
G37*
G36*
X012880Y035983D02*
X013116Y035576D01*
X012606Y035281D01*
X012370Y035688D01*
X012880Y035983D01*
G37*
G36*
X010209Y033532D02*
X010445Y033125D01*
X009935Y032830D01*
X009699Y033237D01*
X010209Y033532D01*
G37*
G36*
X009816Y034214D02*
X010052Y033807D01*
X009542Y033512D01*
X009306Y033919D01*
X009816Y034214D01*
G37*
G36*
X005733Y030347D02*
X006140Y030111D01*
X005845Y029601D01*
X005438Y029837D01*
X005733Y030347D01*
G37*
G36*
X006415Y029953D02*
X006822Y029717D01*
X006527Y029207D01*
X006120Y029443D01*
X006415Y029953D01*
G37*
G36*
X007496Y027286D02*
X007903Y027050D01*
X007608Y026540D01*
X007201Y026776D01*
X007496Y027286D01*
G37*
G36*
X008178Y026892D02*
X008585Y026656D01*
X008290Y026146D01*
X007883Y026382D01*
X008178Y026892D01*
G37*
G36*
X004646Y026888D02*
X005053Y026652D01*
X004758Y026142D01*
X004351Y026378D01*
X004646Y026888D01*
G37*
G36*
X003964Y027282D02*
X004371Y027046D01*
X004076Y026536D01*
X003669Y026772D01*
X003964Y027282D01*
G37*
X003384Y021596D03*
X002596Y021596D03*
X005653Y019826D03*
X006440Y019826D03*
X003384Y018056D03*
X002596Y018056D03*
G36*
X004351Y013274D02*
X004758Y013510D01*
X005053Y013000D01*
X004646Y012764D01*
X004351Y013274D01*
G37*
G36*
X003669Y012880D02*
X004076Y013116D01*
X004371Y012606D01*
X003964Y012370D01*
X003669Y012880D01*
G37*
G36*
X006120Y010209D02*
X006527Y010445D01*
X006822Y009935D01*
X006415Y009699D01*
X006120Y010209D01*
G37*
G36*
X005438Y009816D02*
X005845Y010052D01*
X006140Y009542D01*
X005733Y009306D01*
X005438Y009816D01*
G37*
G36*
X007201Y012877D02*
X007608Y013113D01*
X007903Y012603D01*
X007496Y012367D01*
X007201Y012877D01*
G37*
G36*
X007883Y013270D02*
X008290Y013506D01*
X008585Y012996D01*
X008178Y012760D01*
X007883Y013270D01*
G37*
G36*
X012760Y008178D02*
X012996Y008585D01*
X013506Y008290D01*
X013270Y007883D01*
X012760Y008178D01*
G37*
G36*
X012367Y007496D02*
X012603Y007903D01*
X013113Y007608D01*
X012877Y007201D01*
X012367Y007496D01*
G37*
G36*
X009699Y006415D02*
X009935Y006822D01*
X010445Y006527D01*
X010209Y006120D01*
X009699Y006415D01*
G37*
G36*
X009306Y005733D02*
X009542Y006140D01*
X010052Y005845D01*
X009816Y005438D01*
X009306Y005733D01*
G37*
G36*
X012370Y003964D02*
X012606Y004371D01*
X013116Y004076D01*
X012880Y003669D01*
X012370Y003964D01*
G37*
G36*
X012764Y004646D02*
X013000Y005053D01*
X013510Y004758D01*
X013274Y004351D01*
X012764Y004646D01*
G37*
G36*
X026378Y004351D02*
X026142Y004758D01*
X026652Y005053D01*
X026888Y004646D01*
X026378Y004351D01*
G37*
G36*
X026772Y003669D02*
X026536Y004076D01*
X027046Y004371D01*
X027282Y003964D01*
X026772Y003669D01*
G37*
G36*
X029443Y006120D02*
X029207Y006527D01*
X029717Y006822D01*
X029953Y006415D01*
X029443Y006120D01*
G37*
G36*
X029837Y005438D02*
X029601Y005845D01*
X030111Y006140D01*
X030347Y005733D01*
X029837Y005438D01*
G37*
G36*
X026776Y007201D02*
X026540Y007608D01*
X027050Y007903D01*
X027286Y007496D01*
X026776Y007201D01*
G37*
G36*
X026382Y007883D02*
X026146Y008290D01*
X026656Y008585D01*
X026892Y008178D01*
X026382Y007883D01*
G37*
D19*
X023734Y021942D03*
X023478Y021942D03*
X023222Y021942D03*
X022966Y021942D03*
X022710Y021942D03*
X022454Y021942D03*
X022198Y021942D03*
X021942Y021942D03*
X021686Y021942D03*
X021430Y021942D03*
X021430Y024797D03*
X021686Y024797D03*
X021942Y024797D03*
X022198Y024797D03*
X022454Y024797D03*
X022710Y024797D03*
X022966Y024797D03*
X023222Y024797D03*
X023478Y024797D03*
X023734Y024797D03*
D20*
X023791Y019593D03*
X023291Y019593D03*
X022791Y019593D03*
X024291Y019593D03*
X024291Y017533D03*
X023791Y017533D03*
X023291Y017533D03*
X022791Y017533D03*
D21*
X021987Y013069D03*
D22*
X021487Y015432D03*
X022487Y015432D03*
D23*
X016760Y020681D03*
D24*
X013532Y020681D03*
X019988Y020681D03*
D25*
X021716Y020789D03*
X021716Y020289D03*
X021716Y019789D03*
X021716Y019289D03*
X021716Y018789D03*
X021716Y018289D03*
X021716Y017789D03*
X021716Y017289D03*
X025416Y017289D03*
X025416Y017789D03*
X025416Y018289D03*
X025416Y018789D03*
X025416Y019289D03*
X025416Y019789D03*
X025416Y020289D03*
X025416Y020789D03*
D26*
X027581Y016915D03*
X027581Y016167D03*
X011641Y021517D03*
X011641Y022265D03*
D27*
X018468Y024551D03*
X019216Y024551D03*
D28*
G36*
X025127Y027275D02*
X025405Y026944D01*
X025193Y026767D01*
X024915Y027098D01*
X025127Y027275D01*
G37*
G36*
X026898Y025164D02*
X027176Y024833D01*
X026964Y024656D01*
X026686Y024987D01*
X026898Y025164D01*
G37*
D29*
X018758Y028601D02*
X018138Y028601D01*
X018758Y028601D02*
X018758Y027587D01*
X018138Y027587D01*
X018138Y028601D01*
X018138Y027793D02*
X018758Y027793D01*
X018758Y027999D02*
X018138Y027999D01*
X018138Y028205D02*
X018758Y028205D01*
X018758Y028411D02*
X018138Y028411D01*
X017380Y028601D02*
X016760Y028601D01*
X017380Y028601D02*
X017380Y027587D01*
X016760Y027587D01*
X016760Y028601D01*
X016760Y027793D02*
X017380Y027793D01*
X017380Y027999D02*
X016760Y027999D01*
X016760Y028205D02*
X017380Y028205D01*
X017380Y028411D02*
X016760Y028411D01*
X016631Y025688D02*
X017251Y025688D01*
X017251Y024674D01*
X016631Y024674D01*
X016631Y025688D01*
X016631Y024880D02*
X017251Y024880D01*
X017251Y025086D02*
X016631Y025086D01*
X016631Y025292D02*
X017251Y025292D01*
X017251Y025498D02*
X016631Y025498D01*
X019751Y015368D02*
X020371Y015368D01*
X020371Y014354D01*
X019751Y014354D01*
X019751Y015368D01*
X019751Y014560D02*
X020371Y014560D01*
X020371Y014766D02*
X019751Y014766D01*
X019751Y014972D02*
X020371Y014972D01*
X020371Y015178D02*
X019751Y015178D01*
X014371Y013234D02*
X013751Y013234D01*
X013751Y014248D01*
X014371Y014248D01*
X014371Y013234D01*
X014371Y013440D02*
X013751Y013440D01*
X013751Y013646D02*
X014371Y013646D01*
X014371Y013852D02*
X013751Y013852D01*
X013751Y014058D02*
X014371Y014058D01*
M02*
