G75*
G70*
%OFA0B0*%
%FSLAX24Y24*%
%IPPOS*%
%LPD*%
%AMOC8*
5,1,8,0,0,1.08239X$1,22.5*
%
%ADD10C,0.0010*%
%ADD11C,0.0240*%
%ADD12C,0.0120*%
%ADD13C,0.1102*%
%ADD14C,0.0080*%
%ADD15OC8,0.0240*%
%ADD16C,0.0413*%
%ADD17C,0.0160*%
D10*
X007661Y011913D02*
X007686Y011790D01*
X007705Y011666D01*
X007717Y011541D01*
X007724Y011416D01*
X007724Y011291D01*
X007719Y011166D01*
X007707Y011041D01*
X007689Y010917D01*
X007666Y010794D01*
X007636Y010673D01*
X007600Y010553D01*
X007559Y010434D01*
X007511Y010318D01*
X007458Y010205D01*
X007400Y010094D01*
X007336Y009986D01*
X007268Y009881D01*
X007194Y009780D01*
X007115Y009683D01*
X007032Y009589D01*
X006944Y009500D01*
X006852Y009415D01*
X006755Y009335D01*
X006655Y009259D01*
X006552Y009189D01*
X006445Y009124D01*
X006335Y009064D01*
X006222Y009009D01*
X006107Y008960D01*
X005990Y008917D01*
X005870Y008879D01*
X005749Y008847D01*
X005626Y008822D01*
X005503Y008802D01*
X005378Y008788D01*
X005253Y008781D01*
X005128Y008779D01*
X005003Y008784D01*
X004878Y008795D01*
X004754Y008812D01*
X004630Y008834D01*
X004509Y008863D01*
X004388Y008898D01*
X004270Y008939D01*
X004153Y008985D01*
X004039Y009037D01*
X003928Y009095D01*
X003820Y009158D01*
X003715Y009226D01*
X003613Y009299D01*
X003515Y009377D01*
X003421Y009460D01*
X003331Y009547D01*
X003246Y009639D01*
X003165Y009734D01*
X003088Y009834D01*
X003017Y009937D01*
X002951Y010043D01*
X002890Y010152D01*
X002835Y010265D01*
X002785Y010380D01*
X002741Y010497D01*
X002702Y010616D01*
X002670Y010737D01*
X002643Y010860D01*
X002622Y010983D01*
X002608Y011107D01*
X002599Y011232D01*
X002597Y011358D01*
X002601Y011483D01*
X002611Y011608D01*
X002627Y011732D01*
X002649Y011855D01*
X002677Y011977D01*
X002711Y012098D01*
X002750Y012217D01*
X002796Y012333D01*
X002847Y012448D01*
X002904Y012560D01*
X002966Y012668D01*
X003033Y012774D01*
X003106Y012876D01*
X003183Y012975D01*
X003265Y013069D01*
X003352Y013160D01*
X003443Y013246D01*
X003538Y013328D01*
X003637Y013405D01*
X003739Y013477D01*
X003845Y013544D01*
X003954Y013605D01*
X004066Y013661D01*
X004181Y013712D01*
X004297Y013757D01*
X004416Y013796D01*
X004537Y013830D01*
X004659Y013857D01*
X004783Y013879D01*
X004907Y013894D01*
X005032Y013904D01*
X005157Y013907D01*
X005282Y013904D01*
X005407Y013895D01*
X005532Y013880D01*
X005655Y013859D01*
X005777Y013832D01*
X005898Y013799D01*
X006017Y013760D01*
X006134Y013715D01*
X006249Y013665D01*
X006361Y013609D01*
X006470Y013547D01*
X006576Y013481D01*
X006679Y013409D01*
X006778Y013333D01*
X006874Y013251D01*
X006873Y013251D02*
X010929Y015614D01*
X011716Y014236D02*
X007661Y011913D01*
X011913Y007661D02*
X014236Y011716D01*
X015614Y010929D02*
X013251Y006873D01*
X013251Y006874D02*
X013333Y006778D01*
X013409Y006679D01*
X013481Y006576D01*
X013547Y006470D01*
X013609Y006361D01*
X013665Y006249D01*
X013715Y006134D01*
X013760Y006017D01*
X013799Y005898D01*
X013832Y005777D01*
X013859Y005655D01*
X013880Y005532D01*
X013895Y005407D01*
X013904Y005282D01*
X013907Y005157D01*
X013904Y005032D01*
X013894Y004907D01*
X013879Y004783D01*
X013857Y004659D01*
X013830Y004537D01*
X013796Y004416D01*
X013757Y004297D01*
X013712Y004181D01*
X013661Y004066D01*
X013605Y003954D01*
X013544Y003845D01*
X013477Y003739D01*
X013405Y003637D01*
X013328Y003538D01*
X013246Y003443D01*
X013160Y003352D01*
X013069Y003265D01*
X012975Y003183D01*
X012876Y003106D01*
X012774Y003033D01*
X012668Y002966D01*
X012560Y002904D01*
X012448Y002847D01*
X012333Y002796D01*
X012217Y002750D01*
X012098Y002711D01*
X011977Y002677D01*
X011855Y002649D01*
X011732Y002627D01*
X011608Y002611D01*
X011483Y002601D01*
X011358Y002597D01*
X011232Y002599D01*
X011107Y002608D01*
X010983Y002622D01*
X010860Y002643D01*
X010737Y002670D01*
X010616Y002702D01*
X010497Y002741D01*
X010380Y002785D01*
X010265Y002835D01*
X010152Y002890D01*
X010043Y002951D01*
X009937Y003017D01*
X009834Y003088D01*
X009734Y003165D01*
X009639Y003246D01*
X009547Y003331D01*
X009460Y003421D01*
X009377Y003515D01*
X009299Y003613D01*
X009226Y003715D01*
X009158Y003820D01*
X009095Y003928D01*
X009037Y004039D01*
X008985Y004153D01*
X008939Y004270D01*
X008898Y004388D01*
X008863Y004509D01*
X008834Y004630D01*
X008812Y004754D01*
X008795Y004878D01*
X008784Y005003D01*
X008779Y005128D01*
X008781Y005253D01*
X008788Y005378D01*
X008802Y005503D01*
X008822Y005626D01*
X008847Y005749D01*
X008879Y005870D01*
X008917Y005990D01*
X008960Y006107D01*
X009009Y006222D01*
X009064Y006335D01*
X009124Y006445D01*
X009189Y006552D01*
X009259Y006655D01*
X009335Y006755D01*
X009415Y006852D01*
X009500Y006944D01*
X009589Y007032D01*
X009683Y007115D01*
X009780Y007194D01*
X009881Y007268D01*
X009986Y007336D01*
X010094Y007400D01*
X010205Y007458D01*
X010318Y007511D01*
X010434Y007559D01*
X010553Y007600D01*
X010673Y007636D01*
X010794Y007666D01*
X010917Y007689D01*
X011041Y007707D01*
X011166Y007719D01*
X011291Y007724D01*
X011416Y007724D01*
X011541Y007717D01*
X011666Y007705D01*
X011790Y007686D01*
X011913Y007661D01*
X019039Y005338D02*
X019039Y010023D01*
X020614Y010023D02*
X020614Y005338D01*
X020613Y005338D02*
X020732Y005297D01*
X020848Y005250D01*
X020961Y005197D01*
X021072Y005139D01*
X021180Y005076D01*
X021284Y005007D01*
X021386Y004933D01*
X021483Y004855D01*
X021576Y004772D01*
X021666Y004684D01*
X021751Y004592D01*
X021831Y004497D01*
X021907Y004397D01*
X021977Y004294D01*
X022043Y004187D01*
X022103Y004077D01*
X022158Y003965D01*
X022207Y003850D01*
X022251Y003733D01*
X022289Y003613D01*
X022321Y003492D01*
X022347Y003370D01*
X022367Y003247D01*
X022381Y003122D01*
X022389Y002997D01*
X022391Y002872D01*
X022387Y002747D01*
X022376Y002622D01*
X022360Y002498D01*
X022337Y002375D01*
X022309Y002253D01*
X022275Y002133D01*
X022234Y002015D01*
X022189Y001898D01*
X022137Y001784D01*
X022080Y001673D01*
X022018Y001564D01*
X021950Y001459D01*
X021877Y001357D01*
X021800Y001259D01*
X021718Y001165D01*
X021631Y001075D01*
X021540Y000989D01*
X021445Y000907D01*
X021346Y000831D01*
X021243Y000759D01*
X021137Y000693D01*
X021028Y000631D01*
X020916Y000575D01*
X020802Y000525D01*
X020685Y000480D01*
X020566Y000441D01*
X020445Y000408D01*
X020323Y000381D01*
X020200Y000359D01*
X020076Y000344D01*
X019951Y000335D01*
X019826Y000332D01*
X019701Y000335D01*
X019576Y000344D01*
X019452Y000359D01*
X019329Y000381D01*
X019207Y000408D01*
X019086Y000441D01*
X018967Y000480D01*
X018850Y000525D01*
X018736Y000575D01*
X018624Y000631D01*
X018515Y000693D01*
X018409Y000759D01*
X018306Y000831D01*
X018207Y000907D01*
X018112Y000989D01*
X018021Y001075D01*
X017934Y001165D01*
X017852Y001259D01*
X017775Y001357D01*
X017702Y001459D01*
X017634Y001564D01*
X017572Y001673D01*
X017515Y001784D01*
X017463Y001898D01*
X017418Y002015D01*
X017377Y002133D01*
X017343Y002253D01*
X017315Y002375D01*
X017292Y002498D01*
X017276Y002622D01*
X017265Y002747D01*
X017261Y002872D01*
X017263Y002997D01*
X017271Y003122D01*
X017285Y003247D01*
X017305Y003370D01*
X017331Y003492D01*
X017363Y003613D01*
X017401Y003733D01*
X017445Y003850D01*
X017494Y003965D01*
X017549Y004077D01*
X017609Y004187D01*
X017675Y004294D01*
X017745Y004397D01*
X017821Y004497D01*
X017901Y004592D01*
X017986Y004684D01*
X018076Y004772D01*
X018169Y004855D01*
X018266Y004933D01*
X018368Y005007D01*
X018472Y005076D01*
X018580Y005139D01*
X018691Y005197D01*
X018804Y005250D01*
X018920Y005297D01*
X019039Y005338D01*
X024039Y010929D02*
X026401Y006873D01*
X027740Y007661D02*
X025417Y011716D01*
X027936Y014236D02*
X031991Y011913D01*
X032779Y013251D02*
X028724Y015614D01*
X029629Y019039D02*
X034314Y019039D01*
X034314Y020614D02*
X029629Y020614D01*
X028724Y024039D02*
X032779Y026401D01*
X031991Y027740D02*
X027936Y025417D01*
X025417Y027936D02*
X027740Y031991D01*
X026401Y032779D02*
X024039Y028724D01*
X020614Y029629D02*
X020614Y034314D01*
X019039Y034314D02*
X019039Y029629D01*
X015614Y028724D02*
X013251Y032779D01*
X011913Y031991D02*
X014236Y027936D01*
X011716Y025417D02*
X007661Y027740D01*
X006873Y026362D02*
X010929Y024039D01*
X010023Y020614D02*
X005338Y020614D01*
X005338Y019039D02*
X010023Y019039D01*
X005338Y019039D02*
X005297Y018920D01*
X005250Y018804D01*
X005197Y018691D01*
X005139Y018580D01*
X005076Y018472D01*
X005007Y018368D01*
X004933Y018266D01*
X004855Y018169D01*
X004772Y018076D01*
X004684Y017986D01*
X004592Y017901D01*
X004497Y017821D01*
X004397Y017745D01*
X004294Y017675D01*
X004187Y017609D01*
X004077Y017549D01*
X003965Y017494D01*
X003850Y017445D01*
X003733Y017401D01*
X003613Y017363D01*
X003492Y017331D01*
X003370Y017305D01*
X003247Y017285D01*
X003122Y017271D01*
X002997Y017263D01*
X002872Y017261D01*
X002747Y017265D01*
X002622Y017276D01*
X002498Y017292D01*
X002375Y017315D01*
X002253Y017343D01*
X002133Y017377D01*
X002015Y017418D01*
X001898Y017463D01*
X001784Y017515D01*
X001673Y017572D01*
X001564Y017634D01*
X001459Y017702D01*
X001357Y017775D01*
X001259Y017852D01*
X001165Y017934D01*
X001075Y018021D01*
X000989Y018112D01*
X000907Y018207D01*
X000831Y018306D01*
X000759Y018409D01*
X000693Y018515D01*
X000631Y018624D01*
X000575Y018736D01*
X000525Y018850D01*
X000480Y018967D01*
X000441Y019086D01*
X000408Y019207D01*
X000381Y019329D01*
X000359Y019452D01*
X000344Y019576D01*
X000335Y019701D01*
X000332Y019826D01*
X000335Y019951D01*
X000344Y020076D01*
X000359Y020200D01*
X000381Y020323D01*
X000408Y020445D01*
X000441Y020566D01*
X000480Y020685D01*
X000525Y020802D01*
X000575Y020916D01*
X000631Y021028D01*
X000693Y021137D01*
X000759Y021243D01*
X000831Y021346D01*
X000907Y021445D01*
X000989Y021540D01*
X001075Y021631D01*
X001165Y021718D01*
X001259Y021800D01*
X001357Y021877D01*
X001459Y021950D01*
X001564Y022018D01*
X001673Y022080D01*
X001784Y022137D01*
X001898Y022189D01*
X002015Y022234D01*
X002133Y022275D01*
X002253Y022309D01*
X002375Y022337D01*
X002498Y022360D01*
X002622Y022376D01*
X002747Y022387D01*
X002872Y022391D01*
X002997Y022389D01*
X003122Y022381D01*
X003247Y022367D01*
X003370Y022347D01*
X003492Y022321D01*
X003613Y022289D01*
X003733Y022251D01*
X003850Y022207D01*
X003965Y022158D01*
X004077Y022103D01*
X004187Y022043D01*
X004294Y021977D01*
X004397Y021907D01*
X004497Y021831D01*
X004592Y021751D01*
X004684Y021666D01*
X004772Y021576D01*
X004855Y021483D01*
X004933Y021386D01*
X005007Y021284D01*
X005076Y021180D01*
X005139Y021072D01*
X005197Y020961D01*
X005250Y020848D01*
X005297Y020732D01*
X005338Y020613D01*
X006873Y026362D02*
X006779Y026281D01*
X006681Y026204D01*
X006580Y026133D01*
X006475Y026066D01*
X006366Y026005D01*
X006255Y025949D01*
X006142Y025898D01*
X006026Y025853D01*
X005908Y025814D01*
X005788Y025780D01*
X005667Y025753D01*
X005545Y025731D01*
X005421Y025715D01*
X005298Y025706D01*
X005173Y025702D01*
X005049Y025704D01*
X004925Y025713D01*
X004801Y025727D01*
X004679Y025748D01*
X004557Y025774D01*
X004437Y025807D01*
X004319Y025845D01*
X004203Y025889D01*
X004089Y025938D01*
X003977Y025993D01*
X003869Y026053D01*
X003763Y026119D01*
X003661Y026190D01*
X003562Y026265D01*
X003467Y026345D01*
X003376Y026430D01*
X003289Y026519D01*
X003207Y026612D01*
X003129Y026710D01*
X003057Y026810D01*
X002989Y026914D01*
X002926Y027022D01*
X002869Y027132D01*
X002817Y027245D01*
X002771Y027360D01*
X002730Y027478D01*
X002695Y027597D01*
X002666Y027718D01*
X002643Y027840D01*
X002626Y027963D01*
X002614Y028087D01*
X002609Y028211D01*
X002610Y028336D01*
X002617Y028460D01*
X002630Y028583D01*
X002649Y028706D01*
X002674Y028828D01*
X002705Y028948D01*
X002742Y029067D01*
X002784Y029184D01*
X002833Y029299D01*
X002886Y029411D01*
X002945Y029520D01*
X003010Y029627D01*
X003079Y029730D01*
X003153Y029829D01*
X003232Y029925D01*
X003316Y030017D01*
X003404Y030105D01*
X003496Y030188D01*
X003592Y030267D01*
X003692Y030341D01*
X003796Y030410D01*
X003902Y030474D01*
X004012Y030533D01*
X004124Y030586D01*
X004239Y030634D01*
X004356Y030676D01*
X004475Y030712D01*
X004595Y030743D01*
X004717Y030767D01*
X004840Y030786D01*
X004964Y030798D01*
X005088Y030805D01*
X005212Y030805D01*
X005336Y030800D01*
X005460Y030788D01*
X005583Y030771D01*
X005705Y030747D01*
X005826Y030718D01*
X005945Y030683D01*
X006063Y030641D01*
X006178Y030595D01*
X006291Y030542D01*
X006401Y030485D01*
X006508Y030422D01*
X006612Y030354D01*
X006712Y030280D01*
X006809Y030202D01*
X006902Y030120D01*
X006991Y030033D01*
X007075Y029942D01*
X007155Y029846D01*
X007230Y029747D01*
X007301Y029645D01*
X007366Y029539D01*
X007426Y029430D01*
X007480Y029319D01*
X007529Y029204D01*
X007573Y029088D01*
X007611Y028969D01*
X007643Y028849D01*
X007669Y028728D01*
X007689Y028605D01*
X007703Y028482D01*
X007711Y028357D01*
X007713Y028233D01*
X007709Y028109D01*
X007699Y027985D01*
X007683Y027862D01*
X007661Y027739D01*
X011913Y031991D02*
X011790Y031966D01*
X011666Y031947D01*
X011541Y031935D01*
X011416Y031928D01*
X011291Y031928D01*
X011166Y031933D01*
X011041Y031945D01*
X010917Y031963D01*
X010794Y031986D01*
X010673Y032016D01*
X010553Y032052D01*
X010434Y032093D01*
X010318Y032141D01*
X010205Y032194D01*
X010094Y032252D01*
X009986Y032316D01*
X009881Y032384D01*
X009780Y032458D01*
X009683Y032537D01*
X009589Y032620D01*
X009500Y032708D01*
X009415Y032800D01*
X009335Y032897D01*
X009259Y032997D01*
X009189Y033100D01*
X009124Y033207D01*
X009064Y033317D01*
X009009Y033430D01*
X008960Y033545D01*
X008917Y033662D01*
X008879Y033782D01*
X008847Y033903D01*
X008822Y034026D01*
X008802Y034149D01*
X008788Y034274D01*
X008781Y034399D01*
X008779Y034524D01*
X008784Y034649D01*
X008795Y034774D01*
X008812Y034898D01*
X008834Y035022D01*
X008863Y035143D01*
X008898Y035264D01*
X008939Y035382D01*
X008985Y035499D01*
X009037Y035613D01*
X009095Y035724D01*
X009158Y035832D01*
X009226Y035937D01*
X009299Y036039D01*
X009377Y036137D01*
X009460Y036231D01*
X009547Y036321D01*
X009639Y036406D01*
X009734Y036487D01*
X009834Y036564D01*
X009937Y036635D01*
X010043Y036701D01*
X010152Y036762D01*
X010265Y036817D01*
X010380Y036867D01*
X010497Y036911D01*
X010616Y036950D01*
X010737Y036982D01*
X010860Y037009D01*
X010983Y037030D01*
X011107Y037044D01*
X011232Y037053D01*
X011358Y037055D01*
X011483Y037051D01*
X011608Y037041D01*
X011732Y037025D01*
X011855Y037003D01*
X011977Y036975D01*
X012098Y036941D01*
X012217Y036902D01*
X012333Y036856D01*
X012448Y036805D01*
X012560Y036748D01*
X012668Y036686D01*
X012774Y036619D01*
X012876Y036546D01*
X012975Y036469D01*
X013069Y036387D01*
X013160Y036300D01*
X013246Y036209D01*
X013328Y036114D01*
X013405Y036015D01*
X013477Y035913D01*
X013544Y035807D01*
X013605Y035698D01*
X013661Y035586D01*
X013712Y035471D01*
X013757Y035355D01*
X013796Y035236D01*
X013830Y035115D01*
X013857Y034993D01*
X013879Y034869D01*
X013894Y034745D01*
X013904Y034620D01*
X013907Y034495D01*
X013904Y034370D01*
X013895Y034245D01*
X013880Y034120D01*
X013859Y033997D01*
X013832Y033875D01*
X013799Y033754D01*
X013760Y033635D01*
X013715Y033518D01*
X013665Y033403D01*
X013609Y033291D01*
X013547Y033182D01*
X013481Y033076D01*
X013409Y032973D01*
X013333Y032874D01*
X013251Y032778D01*
X019039Y034314D02*
X018920Y034355D01*
X018804Y034402D01*
X018691Y034455D01*
X018580Y034513D01*
X018472Y034576D01*
X018368Y034645D01*
X018266Y034719D01*
X018169Y034797D01*
X018076Y034880D01*
X017986Y034968D01*
X017901Y035060D01*
X017821Y035155D01*
X017745Y035255D01*
X017675Y035358D01*
X017609Y035465D01*
X017549Y035575D01*
X017494Y035687D01*
X017445Y035802D01*
X017401Y035919D01*
X017363Y036039D01*
X017331Y036160D01*
X017305Y036282D01*
X017285Y036405D01*
X017271Y036530D01*
X017263Y036655D01*
X017261Y036780D01*
X017265Y036905D01*
X017276Y037030D01*
X017292Y037154D01*
X017315Y037277D01*
X017343Y037399D01*
X017377Y037519D01*
X017418Y037637D01*
X017463Y037754D01*
X017515Y037868D01*
X017572Y037979D01*
X017634Y038088D01*
X017702Y038193D01*
X017775Y038295D01*
X017852Y038393D01*
X017934Y038487D01*
X018021Y038577D01*
X018112Y038663D01*
X018207Y038745D01*
X018306Y038821D01*
X018409Y038893D01*
X018515Y038959D01*
X018624Y039021D01*
X018736Y039077D01*
X018850Y039127D01*
X018967Y039172D01*
X019086Y039211D01*
X019207Y039244D01*
X019329Y039271D01*
X019452Y039293D01*
X019576Y039308D01*
X019701Y039317D01*
X019826Y039320D01*
X019951Y039317D01*
X020076Y039308D01*
X020200Y039293D01*
X020323Y039271D01*
X020445Y039244D01*
X020566Y039211D01*
X020685Y039172D01*
X020802Y039127D01*
X020916Y039077D01*
X021028Y039021D01*
X021137Y038959D01*
X021243Y038893D01*
X021346Y038821D01*
X021445Y038745D01*
X021540Y038663D01*
X021631Y038577D01*
X021718Y038487D01*
X021800Y038393D01*
X021877Y038295D01*
X021950Y038193D01*
X022018Y038088D01*
X022080Y037979D01*
X022137Y037868D01*
X022189Y037754D01*
X022234Y037637D01*
X022275Y037519D01*
X022309Y037399D01*
X022337Y037277D01*
X022360Y037154D01*
X022376Y037030D01*
X022387Y036905D01*
X022391Y036780D01*
X022389Y036655D01*
X022381Y036530D01*
X022367Y036405D01*
X022347Y036282D01*
X022321Y036160D01*
X022289Y036039D01*
X022251Y035919D01*
X022207Y035802D01*
X022158Y035687D01*
X022103Y035575D01*
X022043Y035465D01*
X021977Y035358D01*
X021907Y035255D01*
X021831Y035155D01*
X021751Y035060D01*
X021666Y034968D01*
X021576Y034880D01*
X021483Y034797D01*
X021386Y034719D01*
X021284Y034645D01*
X021180Y034576D01*
X021072Y034513D01*
X020961Y034455D01*
X020848Y034402D01*
X020732Y034355D01*
X020613Y034314D01*
X026401Y032778D02*
X026319Y032874D01*
X026243Y032973D01*
X026171Y033076D01*
X026105Y033182D01*
X026043Y033291D01*
X025987Y033403D01*
X025937Y033518D01*
X025892Y033635D01*
X025853Y033754D01*
X025820Y033875D01*
X025793Y033997D01*
X025772Y034120D01*
X025757Y034245D01*
X025748Y034370D01*
X025745Y034495D01*
X025748Y034620D01*
X025758Y034745D01*
X025773Y034869D01*
X025795Y034993D01*
X025822Y035115D01*
X025856Y035236D01*
X025895Y035355D01*
X025940Y035471D01*
X025991Y035586D01*
X026047Y035698D01*
X026108Y035807D01*
X026175Y035913D01*
X026247Y036015D01*
X026324Y036114D01*
X026406Y036209D01*
X026492Y036300D01*
X026583Y036387D01*
X026677Y036469D01*
X026776Y036546D01*
X026878Y036619D01*
X026984Y036686D01*
X027092Y036748D01*
X027204Y036805D01*
X027319Y036856D01*
X027435Y036902D01*
X027554Y036941D01*
X027675Y036975D01*
X027797Y037003D01*
X027920Y037025D01*
X028044Y037041D01*
X028169Y037051D01*
X028294Y037055D01*
X028420Y037053D01*
X028545Y037044D01*
X028669Y037030D01*
X028792Y037009D01*
X028915Y036982D01*
X029036Y036950D01*
X029155Y036911D01*
X029272Y036867D01*
X029387Y036817D01*
X029500Y036762D01*
X029609Y036701D01*
X029715Y036635D01*
X029818Y036564D01*
X029918Y036487D01*
X030013Y036406D01*
X030105Y036321D01*
X030192Y036231D01*
X030275Y036137D01*
X030353Y036039D01*
X030426Y035937D01*
X030494Y035832D01*
X030557Y035724D01*
X030615Y035613D01*
X030667Y035499D01*
X030713Y035382D01*
X030754Y035264D01*
X030789Y035143D01*
X030818Y035022D01*
X030840Y034898D01*
X030857Y034774D01*
X030868Y034649D01*
X030873Y034524D01*
X030871Y034399D01*
X030864Y034274D01*
X030850Y034149D01*
X030830Y034026D01*
X030805Y033903D01*
X030773Y033782D01*
X030735Y033662D01*
X030692Y033545D01*
X030643Y033430D01*
X030588Y033317D01*
X030528Y033207D01*
X030463Y033100D01*
X030393Y032997D01*
X030317Y032897D01*
X030237Y032800D01*
X030152Y032708D01*
X030063Y032620D01*
X029969Y032537D01*
X029872Y032458D01*
X029771Y032384D01*
X029666Y032316D01*
X029558Y032252D01*
X029447Y032194D01*
X029334Y032141D01*
X029218Y032093D01*
X029099Y032052D01*
X028979Y032016D01*
X028858Y031986D01*
X028735Y031963D01*
X028611Y031945D01*
X028486Y031933D01*
X028361Y031928D01*
X028236Y031928D01*
X028111Y031935D01*
X027986Y031947D01*
X027862Y031966D01*
X027739Y031991D01*
X031991Y027739D02*
X031966Y027862D01*
X031947Y027986D01*
X031935Y028111D01*
X031928Y028236D01*
X031928Y028361D01*
X031933Y028486D01*
X031945Y028611D01*
X031963Y028735D01*
X031986Y028858D01*
X032016Y028979D01*
X032052Y029099D01*
X032093Y029218D01*
X032141Y029334D01*
X032194Y029447D01*
X032252Y029558D01*
X032316Y029666D01*
X032384Y029771D01*
X032458Y029872D01*
X032537Y029969D01*
X032620Y030063D01*
X032708Y030152D01*
X032800Y030237D01*
X032897Y030317D01*
X032997Y030393D01*
X033100Y030463D01*
X033207Y030528D01*
X033317Y030588D01*
X033430Y030643D01*
X033545Y030692D01*
X033662Y030735D01*
X033782Y030773D01*
X033903Y030805D01*
X034026Y030830D01*
X034149Y030850D01*
X034274Y030864D01*
X034399Y030871D01*
X034524Y030873D01*
X034649Y030868D01*
X034774Y030857D01*
X034898Y030840D01*
X035022Y030818D01*
X035143Y030789D01*
X035264Y030754D01*
X035382Y030713D01*
X035499Y030667D01*
X035613Y030615D01*
X035724Y030557D01*
X035832Y030494D01*
X035937Y030426D01*
X036039Y030353D01*
X036137Y030275D01*
X036231Y030192D01*
X036321Y030105D01*
X036406Y030013D01*
X036487Y029918D01*
X036564Y029818D01*
X036635Y029715D01*
X036701Y029609D01*
X036762Y029500D01*
X036817Y029387D01*
X036867Y029272D01*
X036911Y029155D01*
X036950Y029036D01*
X036982Y028915D01*
X037009Y028792D01*
X037030Y028669D01*
X037044Y028545D01*
X037053Y028420D01*
X037055Y028294D01*
X037051Y028169D01*
X037041Y028044D01*
X037025Y027920D01*
X037003Y027797D01*
X036975Y027675D01*
X036941Y027554D01*
X036902Y027435D01*
X036856Y027319D01*
X036805Y027204D01*
X036748Y027092D01*
X036686Y026984D01*
X036619Y026878D01*
X036546Y026776D01*
X036469Y026677D01*
X036387Y026583D01*
X036300Y026492D01*
X036209Y026406D01*
X036114Y026324D01*
X036015Y026247D01*
X035913Y026175D01*
X035807Y026108D01*
X035698Y026047D01*
X035586Y025991D01*
X035471Y025940D01*
X035355Y025895D01*
X035236Y025856D01*
X035115Y025822D01*
X034993Y025795D01*
X034869Y025773D01*
X034745Y025758D01*
X034620Y025748D01*
X034495Y025745D01*
X034370Y025748D01*
X034245Y025757D01*
X034120Y025772D01*
X033997Y025793D01*
X033875Y025820D01*
X033754Y025853D01*
X033635Y025892D01*
X033518Y025937D01*
X033403Y025987D01*
X033291Y026043D01*
X033182Y026105D01*
X033076Y026171D01*
X032973Y026243D01*
X032874Y026319D01*
X032778Y026401D01*
X034314Y020613D02*
X034355Y020732D01*
X034402Y020848D01*
X034455Y020961D01*
X034513Y021072D01*
X034576Y021180D01*
X034645Y021284D01*
X034719Y021386D01*
X034797Y021483D01*
X034880Y021576D01*
X034968Y021666D01*
X035060Y021751D01*
X035155Y021831D01*
X035255Y021907D01*
X035358Y021977D01*
X035465Y022043D01*
X035575Y022103D01*
X035687Y022158D01*
X035802Y022207D01*
X035919Y022251D01*
X036039Y022289D01*
X036160Y022321D01*
X036282Y022347D01*
X036405Y022367D01*
X036530Y022381D01*
X036655Y022389D01*
X036780Y022391D01*
X036905Y022387D01*
X037030Y022376D01*
X037154Y022360D01*
X037277Y022337D01*
X037399Y022309D01*
X037519Y022275D01*
X037637Y022234D01*
X037754Y022189D01*
X037868Y022137D01*
X037979Y022080D01*
X038088Y022018D01*
X038193Y021950D01*
X038295Y021877D01*
X038393Y021800D01*
X038487Y021718D01*
X038577Y021631D01*
X038663Y021540D01*
X038745Y021445D01*
X038821Y021346D01*
X038893Y021243D01*
X038959Y021137D01*
X039021Y021028D01*
X039077Y020916D01*
X039127Y020802D01*
X039172Y020685D01*
X039211Y020566D01*
X039244Y020445D01*
X039271Y020323D01*
X039293Y020200D01*
X039308Y020076D01*
X039317Y019951D01*
X039320Y019826D01*
X039317Y019701D01*
X039308Y019576D01*
X039293Y019452D01*
X039271Y019329D01*
X039244Y019207D01*
X039211Y019086D01*
X039172Y018967D01*
X039127Y018850D01*
X039077Y018736D01*
X039021Y018624D01*
X038959Y018515D01*
X038893Y018409D01*
X038821Y018306D01*
X038745Y018207D01*
X038663Y018112D01*
X038577Y018021D01*
X038487Y017934D01*
X038393Y017852D01*
X038295Y017775D01*
X038193Y017702D01*
X038088Y017634D01*
X037979Y017572D01*
X037868Y017515D01*
X037754Y017463D01*
X037637Y017418D01*
X037519Y017377D01*
X037399Y017343D01*
X037277Y017315D01*
X037154Y017292D01*
X037030Y017276D01*
X036905Y017265D01*
X036780Y017261D01*
X036655Y017263D01*
X036530Y017271D01*
X036405Y017285D01*
X036282Y017305D01*
X036160Y017331D01*
X036039Y017363D01*
X035919Y017401D01*
X035802Y017445D01*
X035687Y017494D01*
X035575Y017549D01*
X035465Y017609D01*
X035358Y017675D01*
X035255Y017745D01*
X035155Y017821D01*
X035060Y017901D01*
X034968Y017986D01*
X034880Y018076D01*
X034797Y018169D01*
X034719Y018266D01*
X034645Y018368D01*
X034576Y018472D01*
X034513Y018580D01*
X034455Y018691D01*
X034402Y018804D01*
X034355Y018920D01*
X034314Y019039D01*
X032778Y013251D02*
X032874Y013333D01*
X032973Y013409D01*
X033076Y013481D01*
X033182Y013547D01*
X033291Y013609D01*
X033403Y013665D01*
X033518Y013715D01*
X033635Y013760D01*
X033754Y013799D01*
X033875Y013832D01*
X033997Y013859D01*
X034120Y013880D01*
X034245Y013895D01*
X034370Y013904D01*
X034495Y013907D01*
X034620Y013904D01*
X034745Y013894D01*
X034869Y013879D01*
X034993Y013857D01*
X035115Y013830D01*
X035236Y013796D01*
X035355Y013757D01*
X035471Y013712D01*
X035586Y013661D01*
X035698Y013605D01*
X035807Y013544D01*
X035913Y013477D01*
X036015Y013405D01*
X036114Y013328D01*
X036209Y013246D01*
X036300Y013160D01*
X036387Y013069D01*
X036469Y012975D01*
X036546Y012876D01*
X036619Y012774D01*
X036686Y012668D01*
X036748Y012560D01*
X036805Y012448D01*
X036856Y012333D01*
X036902Y012217D01*
X036941Y012098D01*
X036975Y011977D01*
X037003Y011855D01*
X037025Y011732D01*
X037041Y011608D01*
X037051Y011483D01*
X037055Y011358D01*
X037053Y011232D01*
X037044Y011107D01*
X037030Y010983D01*
X037009Y010860D01*
X036982Y010737D01*
X036950Y010616D01*
X036911Y010497D01*
X036867Y010380D01*
X036817Y010265D01*
X036762Y010152D01*
X036701Y010043D01*
X036635Y009937D01*
X036564Y009834D01*
X036487Y009734D01*
X036406Y009639D01*
X036321Y009547D01*
X036231Y009460D01*
X036137Y009377D01*
X036039Y009299D01*
X035937Y009226D01*
X035832Y009158D01*
X035724Y009095D01*
X035613Y009037D01*
X035499Y008985D01*
X035382Y008939D01*
X035264Y008898D01*
X035143Y008863D01*
X035022Y008834D01*
X034898Y008812D01*
X034774Y008795D01*
X034649Y008784D01*
X034524Y008779D01*
X034399Y008781D01*
X034274Y008788D01*
X034149Y008802D01*
X034026Y008822D01*
X033903Y008847D01*
X033782Y008879D01*
X033662Y008917D01*
X033545Y008960D01*
X033430Y009009D01*
X033317Y009064D01*
X033207Y009124D01*
X033100Y009189D01*
X032997Y009259D01*
X032897Y009335D01*
X032800Y009415D01*
X032708Y009500D01*
X032620Y009589D01*
X032537Y009683D01*
X032458Y009780D01*
X032384Y009881D01*
X032316Y009986D01*
X032252Y010094D01*
X032194Y010205D01*
X032141Y010318D01*
X032093Y010434D01*
X032052Y010553D01*
X032016Y010673D01*
X031986Y010794D01*
X031963Y010917D01*
X031945Y011041D01*
X031933Y011166D01*
X031928Y011291D01*
X031928Y011416D01*
X031935Y011541D01*
X031947Y011666D01*
X031966Y011790D01*
X031991Y011913D01*
X027739Y007661D02*
X027862Y007686D01*
X027986Y007705D01*
X028111Y007717D01*
X028236Y007724D01*
X028361Y007724D01*
X028486Y007719D01*
X028611Y007707D01*
X028735Y007689D01*
X028858Y007666D01*
X028979Y007636D01*
X029099Y007600D01*
X029218Y007559D01*
X029334Y007511D01*
X029447Y007458D01*
X029558Y007400D01*
X029666Y007336D01*
X029771Y007268D01*
X029872Y007194D01*
X029969Y007115D01*
X030063Y007032D01*
X030152Y006944D01*
X030237Y006852D01*
X030317Y006755D01*
X030393Y006655D01*
X030463Y006552D01*
X030528Y006445D01*
X030588Y006335D01*
X030643Y006222D01*
X030692Y006107D01*
X030735Y005990D01*
X030773Y005870D01*
X030805Y005749D01*
X030830Y005626D01*
X030850Y005503D01*
X030864Y005378D01*
X030871Y005253D01*
X030873Y005128D01*
X030868Y005003D01*
X030857Y004878D01*
X030840Y004754D01*
X030818Y004630D01*
X030789Y004509D01*
X030754Y004388D01*
X030713Y004270D01*
X030667Y004153D01*
X030615Y004039D01*
X030557Y003928D01*
X030494Y003820D01*
X030426Y003715D01*
X030353Y003613D01*
X030275Y003515D01*
X030192Y003421D01*
X030105Y003331D01*
X030013Y003246D01*
X029918Y003165D01*
X029818Y003088D01*
X029715Y003017D01*
X029609Y002951D01*
X029500Y002890D01*
X029387Y002835D01*
X029272Y002785D01*
X029155Y002741D01*
X029036Y002702D01*
X028915Y002670D01*
X028792Y002643D01*
X028669Y002622D01*
X028545Y002608D01*
X028420Y002599D01*
X028294Y002597D01*
X028169Y002601D01*
X028044Y002611D01*
X027920Y002627D01*
X027797Y002649D01*
X027675Y002677D01*
X027554Y002711D01*
X027435Y002750D01*
X027319Y002796D01*
X027204Y002847D01*
X027092Y002904D01*
X026984Y002966D01*
X026878Y003033D01*
X026776Y003106D01*
X026677Y003183D01*
X026583Y003265D01*
X026492Y003352D01*
X026406Y003443D01*
X026324Y003538D01*
X026247Y003637D01*
X026175Y003739D01*
X026108Y003845D01*
X026047Y003954D01*
X025991Y004066D01*
X025940Y004181D01*
X025895Y004297D01*
X025856Y004416D01*
X025822Y004537D01*
X025795Y004659D01*
X025773Y004783D01*
X025758Y004907D01*
X025748Y005032D01*
X025745Y005157D01*
X025748Y005282D01*
X025757Y005407D01*
X025772Y005532D01*
X025793Y005655D01*
X025820Y005777D01*
X025853Y005898D01*
X025892Y006017D01*
X025937Y006134D01*
X025987Y006249D01*
X026043Y006361D01*
X026105Y006470D01*
X026171Y006576D01*
X026243Y006679D01*
X026319Y006778D01*
X026401Y006874D01*
X028724Y015613D02*
X028904Y016020D01*
X029066Y016435D01*
X029209Y016857D01*
X029332Y017285D01*
X029436Y017718D01*
X029521Y018155D01*
X029585Y018596D01*
X029630Y019039D01*
X024039Y028724D02*
X023632Y028904D01*
X023217Y029066D01*
X022795Y029209D01*
X022367Y029332D01*
X021934Y029436D01*
X021497Y029521D01*
X021056Y029585D01*
X020613Y029630D01*
X028724Y024039D02*
X028904Y023632D01*
X029066Y023217D01*
X029209Y022795D01*
X029332Y022367D01*
X029436Y021934D01*
X029521Y021497D01*
X029585Y021056D01*
X029630Y020613D01*
X024039Y010928D02*
X023632Y010748D01*
X023217Y010586D01*
X022795Y010443D01*
X022367Y010320D01*
X021934Y010216D01*
X021497Y010131D01*
X021056Y010067D01*
X020613Y010022D01*
X010928Y015613D02*
X010748Y016020D01*
X010586Y016435D01*
X010443Y016857D01*
X010320Y017285D01*
X010216Y017718D01*
X010131Y018155D01*
X010067Y018596D01*
X010022Y019039D01*
X015613Y028724D02*
X016020Y028904D01*
X016435Y029066D01*
X016857Y029209D01*
X017285Y029332D01*
X017718Y029436D01*
X018155Y029521D01*
X018596Y029585D01*
X019039Y029630D01*
X010928Y024039D02*
X010748Y023632D01*
X010586Y023217D01*
X010443Y022795D01*
X010320Y022367D01*
X010216Y021934D01*
X010131Y021497D01*
X010067Y021056D01*
X010022Y020613D01*
X015613Y010928D02*
X016020Y010748D01*
X016435Y010586D01*
X016857Y010443D01*
X017285Y010320D01*
X017718Y010216D01*
X018155Y010131D01*
X018596Y010067D01*
X019039Y010022D01*
X025416Y011716D02*
X025779Y011979D01*
X026130Y012257D01*
X026467Y012552D01*
X026791Y012861D01*
X027100Y013185D01*
X027395Y013522D01*
X027673Y013873D01*
X027936Y014236D01*
X027936Y025416D02*
X027673Y025779D01*
X027395Y026130D01*
X027100Y026467D01*
X026791Y026791D01*
X026467Y027100D01*
X026130Y027395D01*
X025779Y027673D01*
X025416Y027936D01*
X011716Y014236D02*
X011979Y013873D01*
X012257Y013522D01*
X012552Y013185D01*
X012861Y012861D01*
X013185Y012552D01*
X013522Y012257D01*
X013873Y011979D01*
X014236Y011716D01*
X011716Y025416D02*
X011979Y025779D01*
X012257Y026130D01*
X012552Y026467D01*
X012861Y026791D01*
X013185Y027100D01*
X013522Y027395D01*
X013873Y027673D01*
X014236Y027936D01*
D11*
X014381Y027341D03*
X014741Y026141D03*
X014741Y025781D03*
X014741Y025421D03*
X015421Y024301D03*
X015461Y023941D03*
X015541Y023621D03*
X013625Y023369D03*
X011103Y024538D03*
X009922Y020066D03*
X010630Y018805D03*
X011795Y018724D03*
X012110Y018488D03*
X012464Y018251D03*
X012740Y019826D03*
X013981Y017501D03*
X014501Y017021D03*
X014901Y016861D03*
X013625Y016086D03*
X011463Y014634D03*
X014852Y011383D03*
X016101Y011261D03*
X016821Y012301D03*
X017141Y012461D03*
X017501Y012621D03*
X018581Y013661D03*
X018901Y013861D03*
X019221Y014101D03*
X019925Y012641D03*
X020125Y009940D03*
X023468Y013625D03*
X024901Y013501D03*
X024901Y013861D03*
X024901Y014221D03*
X024541Y015661D03*
X024501Y016021D03*
X024421Y016421D03*
X026027Y016283D03*
X028571Y015175D03*
X025421Y012301D03*
X024557Y011121D03*
X029078Y006047D03*
X034787Y012346D03*
X029752Y019608D03*
X029021Y020861D03*
X027821Y021021D03*
X027541Y021221D03*
X027221Y021421D03*
X025781Y021821D03*
X025421Y021981D03*
X025061Y022141D03*
X023741Y022941D03*
X022701Y022941D03*
X020421Y025541D03*
X020741Y025781D03*
X021061Y026021D03*
X022141Y027021D03*
X022501Y027181D03*
X023339Y027142D03*
X023468Y025929D03*
X023581Y028381D03*
X025138Y028470D03*
X028491Y025277D03*
X025929Y023468D03*
X027011Y019728D03*
X019826Y027011D03*
X019596Y029712D03*
X016381Y026125D03*
X015271Y028568D03*
X010771Y033803D03*
X005062Y027110D03*
X003291Y018842D03*
X005062Y012543D03*
X012543Y005062D03*
X020810Y003291D03*
X016381Y013625D03*
X033803Y028881D03*
X027700Y034590D03*
X018842Y036362D03*
X036362Y020810D03*
D12*
X014381Y027341D02*
X014280Y027228D01*
X010628Y018878D02*
X010630Y018805D01*
D13*
X010927Y018654D02*
X010869Y019239D01*
X010850Y019826D01*
X010869Y020413D01*
X010927Y020998D01*
X011022Y021577D01*
X011156Y022149D01*
X011326Y022712D01*
X011533Y023261D01*
X011775Y023796D01*
X012053Y024314D01*
X012362Y024813D01*
X012705Y025291D01*
X013077Y025745D01*
X013479Y026173D01*
X013908Y026575D01*
X014362Y026947D01*
X014839Y027290D01*
X015338Y027600D01*
X015856Y027877D01*
X016391Y028119D01*
X016941Y028326D01*
X017503Y028497D01*
X018075Y028630D01*
X018654Y028726D01*
X019239Y028783D01*
X019826Y028803D01*
X020413Y028783D01*
X020998Y028726D01*
X021577Y028630D01*
X022149Y028497D01*
X022712Y028326D01*
X023261Y028119D01*
X023796Y027877D01*
X024314Y027600D01*
X024813Y027290D01*
X025291Y026947D01*
X025745Y026575D01*
X026173Y026173D01*
X026575Y025745D01*
X026947Y025291D01*
X027290Y024813D01*
X027600Y024314D01*
X027877Y023796D01*
X028119Y023261D01*
X028326Y022712D01*
X028497Y022149D01*
X028630Y021577D01*
X028726Y020998D01*
X028783Y020413D01*
X028803Y019826D01*
X028783Y019239D01*
X028726Y018654D01*
X028630Y018075D01*
X028497Y017503D01*
X028326Y016941D01*
X028119Y016391D01*
X027877Y015856D01*
X027600Y015338D01*
X027290Y014839D01*
X026947Y014362D01*
X026575Y013908D01*
X026173Y013479D01*
X025745Y013077D01*
X025375Y012774D01*
X025291Y012705D01*
X024813Y012362D01*
X024314Y012053D01*
X023796Y011775D01*
X023261Y011533D01*
X022712Y011326D01*
X022149Y011156D01*
X021577Y011022D01*
X020998Y010927D01*
X020413Y010869D01*
X019826Y010850D01*
X019239Y010869D01*
X018654Y010927D01*
X018075Y011022D01*
X017503Y011156D01*
X016941Y011326D01*
X016391Y011533D01*
X015856Y011775D01*
X015338Y012053D01*
X014839Y012362D01*
X014362Y012705D01*
X013908Y013077D01*
X013479Y013479D01*
X013077Y013908D01*
X012705Y014362D01*
X012362Y014839D01*
X012053Y015338D01*
X011775Y015856D01*
X011533Y016391D01*
X011326Y016941D01*
X011156Y017503D01*
X011022Y018075D01*
X010927Y018654D01*
D14*
X004311Y009078D02*
X003824Y009327D01*
X003405Y009679D01*
X003076Y010116D01*
X007236Y010116D01*
X007198Y010039D02*
X006853Y009614D01*
X006421Y009278D01*
X005925Y009048D01*
X005389Y008935D01*
X004842Y008945D01*
X004311Y009078D01*
X004278Y009095D02*
X006027Y009095D01*
X006196Y009174D02*
X004124Y009174D01*
X003970Y009252D02*
X006365Y009252D01*
X006489Y009331D02*
X003819Y009331D01*
X003726Y009409D02*
X006590Y009409D01*
X006690Y009488D02*
X003632Y009488D01*
X003539Y009566D02*
X006791Y009566D01*
X006878Y009645D02*
X003446Y009645D01*
X003371Y009723D02*
X006942Y009723D01*
X007006Y009802D02*
X003312Y009802D01*
X003253Y009880D02*
X007069Y009880D01*
X007133Y009959D02*
X003194Y009959D01*
X003135Y010038D02*
X007197Y010038D01*
X007198Y010039D02*
X007439Y010530D01*
X007564Y011063D01*
X007565Y011610D01*
X007522Y011862D01*
X007505Y011893D01*
X007511Y011916D01*
X007506Y011939D01*
X007527Y011972D01*
X007537Y012009D01*
X007557Y012021D01*
X007570Y012041D01*
X007607Y012049D01*
X011639Y014358D01*
X011683Y014389D01*
X011690Y014388D01*
X011696Y014391D01*
X011748Y014377D01*
X011801Y014367D01*
X011805Y014362D01*
X011812Y014360D01*
X011838Y014314D01*
X012184Y013844D01*
X012963Y012963D01*
X013844Y012184D01*
X014314Y011838D01*
X014360Y011812D01*
X014362Y011805D01*
X014367Y011801D01*
X014377Y011748D01*
X014391Y011696D01*
X014388Y011690D01*
X014389Y011683D01*
X014358Y011639D01*
X012049Y007607D01*
X012041Y007570D01*
X012021Y007557D01*
X012009Y007537D01*
X011972Y007527D01*
X011939Y007506D01*
X011916Y007511D01*
X011893Y007505D01*
X011862Y007522D01*
X011610Y007565D01*
X011063Y007564D01*
X010530Y007439D01*
X010039Y007198D01*
X009614Y006853D01*
X009278Y006421D01*
X009048Y005925D01*
X008935Y005389D01*
X008945Y004842D01*
X009078Y004311D01*
X009327Y003824D01*
X009679Y003405D01*
X010116Y003076D01*
X010617Y002853D01*
X011154Y002749D01*
X011701Y002768D01*
X012229Y002910D01*
X012713Y003167D01*
X013126Y003526D01*
X013448Y003968D01*
X013662Y004472D01*
X013757Y005011D01*
X008942Y005011D01*
X008940Y005089D02*
X013753Y005089D01*
X013757Y005011D02*
X013729Y005557D01*
X013579Y006083D01*
X013315Y006562D01*
X013156Y006761D01*
X013126Y006778D01*
X013120Y006803D01*
X013103Y006821D01*
X013105Y006858D01*
X013096Y006894D01*
X013108Y006916D01*
X013110Y006941D01*
X013138Y006966D01*
X015485Y010996D01*
X015508Y011045D01*
X015515Y011047D01*
X015518Y011053D01*
X015570Y011067D01*
X015621Y011085D01*
X015628Y011082D01*
X015635Y011084D01*
X015679Y011058D01*
X016212Y010827D01*
X017322Y010460D01*
X018468Y010230D01*
X019046Y010168D01*
X019099Y010168D01*
X019103Y010163D01*
X019110Y010163D01*
X019145Y010121D01*
X019184Y010083D01*
X019184Y010077D01*
X019188Y010072D01*
X019184Y010017D01*
X019184Y005361D01*
X019195Y005325D01*
X020457Y005325D01*
X020469Y005303D01*
X020469Y005278D01*
X020495Y005252D01*
X020512Y005218D01*
X020536Y005211D01*
X020553Y005193D01*
X020587Y005193D01*
X020824Y005101D01*
X021294Y004821D01*
X021688Y004443D01*
X021987Y003985D01*
X022177Y003472D01*
X022246Y002930D01*
X022191Y002386D01*
X022016Y001869D01*
X021730Y001403D01*
X021346Y001014D01*
X020885Y000721D01*
X020369Y000539D01*
X019826Y000477D01*
X019283Y000539D01*
X018768Y000721D01*
X018306Y001014D01*
X017922Y001403D01*
X017636Y001869D01*
X022017Y001869D01*
X022043Y001948D02*
X017609Y001948D01*
X017583Y002026D02*
X022070Y002026D01*
X022096Y002105D02*
X017556Y002105D01*
X017529Y002183D02*
X022123Y002183D01*
X022149Y002262D02*
X017503Y002262D01*
X017476Y002340D02*
X022176Y002340D01*
X022195Y002419D02*
X017458Y002419D01*
X017461Y002386D02*
X017407Y002930D01*
X017476Y003472D01*
X017665Y003985D01*
X017964Y004443D01*
X018359Y004821D01*
X018828Y005101D01*
X019065Y005193D01*
X019099Y005193D01*
X019116Y005211D01*
X019140Y005218D01*
X019157Y005252D01*
X019184Y005278D01*
X019184Y005303D01*
X019195Y005325D01*
X019184Y005404D02*
X020469Y005404D01*
X020469Y005361D02*
X020457Y005325D01*
X020469Y005361D02*
X020469Y010017D01*
X020464Y010072D01*
X020469Y010077D01*
X020469Y010083D01*
X020507Y010121D01*
X020542Y010163D01*
X020549Y010163D01*
X020553Y010168D01*
X020606Y010168D01*
X021184Y010230D01*
X022330Y010460D01*
X023440Y010827D01*
X023973Y011058D01*
X024018Y011084D01*
X024025Y011082D01*
X024031Y011085D01*
X024082Y011067D01*
X024134Y011053D01*
X024137Y011047D01*
X024144Y011045D01*
X024167Y010996D01*
X026515Y006966D01*
X026542Y006941D01*
X026544Y006916D01*
X026556Y006894D01*
X026547Y006858D01*
X026549Y006821D01*
X026532Y006803D01*
X026526Y006778D01*
X026497Y006761D01*
X026338Y006562D01*
X026073Y006083D01*
X025923Y005557D01*
X025895Y005011D01*
X030710Y005011D01*
X030712Y005089D02*
X025899Y005089D01*
X025895Y005011D02*
X025990Y004472D01*
X026205Y003968D01*
X026526Y003526D01*
X026940Y003167D01*
X027423Y002910D01*
X027951Y002768D01*
X028498Y002749D01*
X029036Y002853D01*
X029536Y003076D01*
X029973Y003405D01*
X030325Y003824D01*
X030574Y004311D01*
X030707Y004842D01*
X030718Y005389D01*
X030605Y005925D01*
X030374Y006421D01*
X030038Y006853D01*
X029614Y007198D01*
X029122Y007439D01*
X028589Y007564D01*
X028042Y007565D01*
X027790Y007522D01*
X027759Y007505D01*
X027736Y007511D01*
X027713Y007506D01*
X027681Y007526D01*
X027644Y007537D01*
X027632Y007557D01*
X027611Y007570D01*
X027603Y007607D01*
X025294Y011639D01*
X025263Y011683D01*
X025264Y011690D01*
X025261Y011696D01*
X025275Y011748D01*
X025285Y011801D01*
X025291Y011805D01*
X025292Y011812D01*
X025338Y011838D01*
X025808Y012184D01*
X026689Y012963D01*
X027469Y013844D01*
X027814Y014314D01*
X027840Y014360D01*
X027847Y014362D01*
X027851Y014367D01*
X027904Y014377D01*
X027956Y014391D01*
X027962Y014388D01*
X027969Y014389D01*
X028014Y014358D01*
X032045Y012049D01*
X032082Y012041D01*
X032095Y012021D01*
X032116Y012009D01*
X032126Y011972D01*
X032146Y011939D01*
X032141Y011916D01*
X032147Y011893D01*
X032130Y011862D01*
X032087Y011610D01*
X032089Y011063D01*
X032213Y010530D01*
X032454Y010039D01*
X032799Y009614D01*
X033231Y009278D01*
X033728Y009048D01*
X034263Y008935D01*
X034810Y008945D01*
X035341Y009078D01*
X035829Y009327D01*
X036248Y009679D01*
X036577Y010116D01*
X036799Y010616D01*
X036903Y011154D01*
X036884Y011701D01*
X036742Y012229D01*
X036486Y012713D01*
X036127Y013126D01*
X035684Y013448D01*
X035181Y013662D01*
X034642Y013757D01*
X034095Y013729D01*
X033569Y013579D01*
X033090Y013315D01*
X032891Y013156D01*
X032874Y013126D01*
X032850Y013120D01*
X032831Y013103D01*
X032794Y013105D01*
X032758Y013096D01*
X032736Y013108D01*
X032711Y013110D01*
X032686Y013138D01*
X028656Y015485D01*
X028608Y015508D01*
X028605Y015515D01*
X028599Y015518D01*
X028585Y015570D01*
X028567Y015621D01*
X028570Y015628D01*
X028568Y015635D01*
X028594Y015679D01*
X028825Y016212D01*
X029192Y017322D01*
X029422Y018468D01*
X029484Y019046D01*
X029484Y019099D01*
X029489Y019103D01*
X029489Y019110D01*
X029531Y019145D01*
X029569Y019184D01*
X029576Y019184D01*
X029581Y019188D01*
X029635Y019184D01*
X034292Y019184D01*
X034327Y019195D01*
X034349Y019184D01*
X034374Y019184D01*
X034401Y019157D01*
X034434Y019140D01*
X034442Y019116D01*
X034459Y019099D01*
X034459Y019065D01*
X034551Y018828D01*
X034831Y018359D01*
X035210Y017964D01*
X035667Y017665D01*
X035667Y017665D01*
X036180Y017476D01*
X036722Y017407D01*
X037266Y017461D01*
X037784Y017636D01*
X038249Y017922D01*
X038638Y018306D01*
X038931Y018768D01*
X039113Y019283D01*
X039175Y019826D01*
X039113Y020369D01*
X038931Y020885D01*
X038638Y021346D01*
X038249Y021730D01*
X037784Y022016D01*
X037266Y022191D01*
X036722Y022246D01*
X036180Y022177D01*
X035667Y021987D01*
X035210Y021688D01*
X034831Y021294D01*
X034551Y020824D01*
X034459Y020587D01*
X034459Y020553D01*
X034442Y020536D01*
X034434Y020512D01*
X034401Y020495D01*
X034374Y020469D01*
X034349Y020469D01*
X034327Y020457D01*
X034292Y020469D01*
X029635Y020469D01*
X029581Y020464D01*
X029576Y020469D01*
X029569Y020469D01*
X029531Y020507D01*
X029489Y020542D01*
X029489Y020549D01*
X029484Y020553D01*
X029484Y020606D01*
X029422Y021184D01*
X029192Y022330D01*
X028825Y023440D01*
X028594Y023973D01*
X028568Y024018D01*
X028570Y024025D01*
X028567Y024031D01*
X028585Y024082D01*
X028599Y024134D01*
X028605Y024137D01*
X028608Y024144D01*
X028656Y024167D01*
X032686Y026515D01*
X032711Y026542D01*
X032736Y026544D01*
X032758Y026556D01*
X032794Y026547D01*
X032831Y026549D01*
X032850Y026532D01*
X032874Y026526D01*
X032891Y026497D01*
X033090Y026338D01*
X033569Y026073D01*
X034095Y025923D01*
X034642Y025895D01*
X035180Y025990D01*
X035684Y026205D01*
X036127Y026526D01*
X036486Y026940D01*
X036742Y027423D01*
X036884Y027951D01*
X036903Y028498D01*
X036799Y029036D01*
X036577Y029536D01*
X036248Y029973D01*
X035829Y030325D01*
X035341Y030574D01*
X034810Y030707D01*
X034263Y030718D01*
X033728Y030605D01*
X033231Y030374D01*
X032799Y030038D01*
X032454Y029614D01*
X032213Y029122D01*
X032089Y028589D01*
X032087Y028042D01*
X032130Y027790D01*
X032147Y027759D01*
X032141Y027736D01*
X032146Y027713D01*
X032126Y027681D01*
X032116Y027644D01*
X032095Y027632D01*
X032082Y027611D01*
X032045Y027603D01*
X028014Y025294D01*
X027969Y025263D01*
X027962Y025264D01*
X027956Y025261D01*
X027904Y025275D01*
X027851Y025285D01*
X027847Y025291D01*
X027840Y025292D01*
X027814Y025338D01*
X027469Y025808D01*
X026689Y026689D01*
X025808Y027469D01*
X025338Y027814D01*
X025292Y027840D01*
X025291Y027847D01*
X025285Y027851D01*
X025275Y027904D01*
X025261Y027956D01*
X025264Y027962D01*
X025263Y027969D01*
X025294Y028014D01*
X027603Y032045D01*
X027611Y032082D01*
X027632Y032095D01*
X027644Y032116D01*
X027681Y032126D01*
X027713Y032146D01*
X027736Y032141D01*
X027759Y032147D01*
X027790Y032130D01*
X028042Y032087D01*
X028589Y032089D01*
X029122Y032213D01*
X029614Y032454D01*
X030038Y032799D01*
X030374Y033231D01*
X030605Y033728D01*
X030718Y034263D01*
X030707Y034810D01*
X030574Y035341D01*
X030325Y035829D01*
X029973Y036248D01*
X029536Y036577D01*
X029036Y036799D01*
X028498Y036903D01*
X027952Y036884D01*
X027423Y036742D01*
X029163Y036742D01*
X029340Y036664D02*
X027275Y036664D01*
X027423Y036742D02*
X026940Y036486D01*
X026526Y036127D01*
X026205Y035684D01*
X025990Y035180D01*
X025895Y034642D01*
X025923Y034095D01*
X026073Y033569D01*
X026338Y033090D01*
X026338Y033090D01*
X026497Y032891D01*
X026526Y032874D01*
X026532Y032850D01*
X026549Y032831D01*
X026547Y032794D01*
X026556Y032758D01*
X026544Y032736D01*
X026542Y032711D01*
X026515Y032686D01*
X024167Y028656D01*
X024144Y028608D01*
X024137Y028605D01*
X024134Y028599D01*
X024082Y028585D01*
X024031Y028567D01*
X024025Y028570D01*
X024018Y028568D01*
X023973Y028594D01*
X023441Y028825D01*
X022330Y029192D01*
X021184Y029422D01*
X020606Y029484D01*
X020553Y029484D01*
X020549Y029489D01*
X020542Y029489D01*
X020507Y029531D01*
X020469Y029569D01*
X020469Y029576D01*
X020464Y029581D01*
X020469Y029635D01*
X020469Y034292D01*
X020457Y034327D01*
X020469Y034349D01*
X020469Y034374D01*
X020495Y034401D01*
X020512Y034434D01*
X020536Y034442D01*
X020553Y034459D01*
X020587Y034459D01*
X020824Y034551D01*
X021294Y034831D01*
X021688Y035210D01*
X021987Y035667D01*
X022177Y036180D01*
X022246Y036722D01*
X022191Y037266D01*
X022016Y037784D01*
X021730Y038249D01*
X021346Y038638D01*
X020885Y038931D01*
X020369Y039113D01*
X019826Y039175D01*
X019283Y039113D01*
X018768Y038931D01*
X018306Y038638D01*
X017922Y038249D01*
X017636Y037784D01*
X017461Y037266D01*
X017407Y036722D01*
X017476Y036180D01*
X017665Y035667D01*
X017964Y035210D01*
X018359Y034831D01*
X018828Y034551D01*
X019065Y034459D01*
X019099Y034459D01*
X019117Y034442D01*
X019140Y034434D01*
X019157Y034401D01*
X019184Y034374D01*
X019184Y034349D01*
X019195Y034327D01*
X019184Y034292D01*
X019184Y029635D01*
X019188Y029581D01*
X019184Y029576D01*
X019184Y029569D01*
X019145Y029531D01*
X019110Y029489D01*
X019103Y029489D01*
X019099Y029484D01*
X019046Y029484D01*
X018468Y029422D01*
X017322Y029192D01*
X016212Y028825D01*
X015680Y028594D01*
X015635Y028568D01*
X015628Y028570D01*
X015621Y028567D01*
X015570Y028585D01*
X015518Y028599D01*
X015515Y028605D01*
X015508Y028608D01*
X015485Y028656D01*
X013138Y032686D01*
X013110Y032711D01*
X013108Y032736D01*
X013096Y032758D01*
X013105Y032794D01*
X013103Y032831D01*
X013120Y032850D01*
X013126Y032874D01*
X013156Y032891D01*
X013315Y033090D01*
X013579Y033569D01*
X013729Y034095D01*
X013757Y034642D01*
X013662Y035180D01*
X013448Y035684D01*
X013126Y036127D01*
X012713Y036486D01*
X012713Y036486D01*
X012229Y036742D01*
X011701Y036884D01*
X011154Y036903D01*
X010617Y036799D01*
X010116Y036577D01*
X009679Y036248D01*
X009327Y035829D01*
X009078Y035341D01*
X008945Y034810D01*
X008935Y034263D01*
X009048Y033728D01*
X009278Y033231D01*
X009614Y032799D01*
X010039Y032454D01*
X010530Y032213D01*
X011063Y032089D01*
X011610Y032087D01*
X011862Y032130D01*
X011893Y032147D01*
X011916Y032141D01*
X011939Y032146D01*
X011972Y032126D01*
X012009Y032116D01*
X012021Y032095D01*
X012041Y032082D01*
X012049Y032045D01*
X014359Y028013D01*
X014389Y027969D01*
X014388Y027962D01*
X014391Y027956D01*
X014377Y027904D01*
X014367Y027851D01*
X014362Y027847D01*
X014360Y027840D01*
X014314Y027814D01*
X013844Y027469D01*
X012963Y026689D01*
X013069Y026689D01*
X013092Y026713D02*
X013018Y026634D01*
X012939Y026560D01*
X012930Y026540D01*
X012676Y026268D01*
X012656Y026258D01*
X012588Y026174D01*
X012514Y026095D01*
X012506Y026075D01*
X012270Y025787D01*
X012251Y025775D01*
X012188Y025687D01*
X012119Y025604D01*
X012113Y025583D01*
X011896Y025280D01*
X011878Y025267D01*
X011821Y025175D01*
X011758Y025087D01*
X011753Y025066D01*
X011556Y024749D01*
X011539Y024736D01*
X011488Y024640D01*
X011431Y024548D01*
X011428Y024526D01*
X011252Y024198D01*
X011235Y024183D01*
X011191Y024084D01*
X011140Y023989D01*
X011138Y023967D01*
X010984Y023628D01*
X010970Y023612D01*
X010931Y023510D01*
X010887Y023412D01*
X010886Y023390D01*
X010810Y023390D01*
X010827Y023441D02*
X011058Y023973D01*
X011084Y024019D01*
X011082Y024025D01*
X011085Y024031D01*
X011067Y024082D01*
X011053Y024135D01*
X011047Y024138D01*
X011045Y024144D01*
X010996Y024167D01*
X006965Y026476D01*
X006941Y026503D01*
X006915Y026505D01*
X006893Y026517D01*
X006858Y026507D01*
X006821Y026509D01*
X006802Y026492D01*
X006777Y026486D01*
X006761Y026457D01*
X006564Y026298D01*
X006090Y026033D01*
X005569Y025882D01*
X005027Y025850D01*
X004492Y025942D01*
X003990Y026150D01*
X003549Y026466D01*
X003189Y026873D01*
X002930Y027350D01*
X002784Y027873D01*
X002759Y028415D01*
X002856Y028950D01*
X003071Y029449D01*
X003391Y029887D01*
X003802Y030242D01*
X004282Y030496D01*
X004807Y030635D01*
X005350Y030654D01*
X005883Y030551D01*
X006379Y030331D01*
X006813Y030005D01*
X007164Y029590D01*
X007412Y029107D01*
X007546Y028581D01*
X007558Y028038D01*
X007522Y027788D01*
X002807Y027788D01*
X002829Y027710D02*
X007507Y027710D01*
X007527Y027679D01*
X007537Y027644D01*
X007559Y027631D01*
X007573Y027610D01*
X007609Y027602D01*
X011639Y025294D01*
X011683Y025263D01*
X011690Y025264D01*
X011696Y025261D01*
X011748Y025275D01*
X011801Y025285D01*
X011805Y025291D01*
X011812Y025292D01*
X011838Y025338D01*
X012184Y025808D01*
X012963Y026689D01*
X012993Y026610D02*
X012894Y026610D01*
X012922Y026532D02*
X012824Y026532D01*
X012849Y026453D02*
X012755Y026453D01*
X012775Y026375D02*
X012685Y026375D01*
X012702Y026296D02*
X012615Y026296D01*
X012623Y026217D02*
X012546Y026217D01*
X012554Y026139D02*
X012476Y026139D01*
X012494Y026060D02*
X012407Y026060D01*
X012430Y025982D02*
X012337Y025982D01*
X012365Y025903D02*
X012268Y025903D01*
X012301Y025825D02*
X012198Y025825D01*
X012230Y025746D02*
X012138Y025746D01*
X012172Y025668D02*
X012080Y025668D01*
X012115Y025589D02*
X012022Y025589D01*
X012061Y025511D02*
X011965Y025511D01*
X012005Y025432D02*
X011907Y025432D01*
X011949Y025354D02*
X011849Y025354D01*
X011889Y025275D02*
X011747Y025275D01*
X011666Y025275D02*
X009062Y025275D01*
X008925Y025354D02*
X011534Y025354D01*
X011397Y025432D02*
X008788Y025432D01*
X008651Y025511D02*
X011260Y025511D01*
X011123Y025589D02*
X008514Y025589D01*
X008376Y025668D02*
X010986Y025668D01*
X010849Y025746D02*
X008239Y025746D01*
X008102Y025825D02*
X010712Y025825D01*
X010575Y025903D02*
X007965Y025903D01*
X007828Y025982D02*
X010437Y025982D01*
X010300Y026060D02*
X007691Y026060D01*
X007554Y026139D02*
X010163Y026139D01*
X010026Y026217D02*
X007417Y026217D01*
X007280Y026296D02*
X009889Y026296D01*
X009752Y026375D02*
X007142Y026375D01*
X007005Y026453D02*
X009615Y026453D01*
X009478Y026532D02*
X003491Y026532D01*
X003421Y026610D02*
X009341Y026610D01*
X009203Y026689D02*
X003352Y026689D01*
X003282Y026767D02*
X009066Y026767D01*
X008929Y026846D02*
X003213Y026846D01*
X003161Y026924D02*
X008792Y026924D01*
X008655Y027003D02*
X003118Y027003D01*
X003076Y027081D02*
X008518Y027081D01*
X008381Y027160D02*
X003033Y027160D01*
X002990Y027239D02*
X008244Y027239D01*
X008106Y027317D02*
X002947Y027317D01*
X002917Y027396D02*
X007969Y027396D01*
X007832Y027474D02*
X002895Y027474D01*
X002873Y027553D02*
X007695Y027553D01*
X007558Y027631D02*
X002851Y027631D01*
X002785Y027867D02*
X007533Y027867D01*
X007545Y027945D02*
X002780Y027945D01*
X002777Y028024D02*
X007556Y028024D01*
X007557Y028103D02*
X002773Y028103D01*
X002770Y028181D02*
X007555Y028181D01*
X007553Y028260D02*
X002766Y028260D01*
X002762Y028338D02*
X007552Y028338D01*
X007550Y028417D02*
X002759Y028417D01*
X002773Y028495D02*
X007548Y028495D01*
X007546Y028574D02*
X002788Y028574D01*
X002802Y028652D02*
X007528Y028652D01*
X007508Y028731D02*
X002816Y028731D01*
X002830Y028809D02*
X007488Y028809D01*
X007468Y028888D02*
X002845Y028888D01*
X002863Y028966D02*
X007448Y028966D01*
X007428Y029045D02*
X002897Y029045D01*
X002931Y029124D02*
X007403Y029124D01*
X007363Y029202D02*
X002965Y029202D01*
X002998Y029281D02*
X007323Y029281D01*
X007282Y029359D02*
X003032Y029359D01*
X003066Y029438D02*
X007242Y029438D01*
X007201Y029516D02*
X003120Y029516D01*
X003178Y029595D02*
X007159Y029595D01*
X007093Y029673D02*
X003235Y029673D01*
X003293Y029752D02*
X007027Y029752D01*
X006960Y029830D02*
X003350Y029830D01*
X003417Y029909D02*
X006894Y029909D01*
X006828Y029988D02*
X003508Y029988D01*
X003599Y030066D02*
X006731Y030066D01*
X006627Y030145D02*
X003690Y030145D01*
X003781Y030223D02*
X006522Y030223D01*
X006417Y030302D02*
X003916Y030302D01*
X004064Y030380D02*
X006267Y030380D01*
X006090Y030459D02*
X004213Y030459D01*
X004439Y030537D02*
X005913Y030537D01*
X005547Y030616D02*
X004734Y030616D01*
X007522Y027788D02*
X007505Y027759D01*
X007512Y027735D01*
X007507Y027710D01*
X006756Y026453D02*
X003567Y026453D01*
X003677Y026375D02*
X006659Y026375D01*
X006560Y026296D02*
X003787Y026296D01*
X003896Y026217D02*
X006420Y026217D01*
X006279Y026139D02*
X004018Y026139D01*
X004206Y026060D02*
X006139Y026060D01*
X005913Y025982D02*
X004395Y025982D01*
X004716Y025903D02*
X005644Y025903D01*
X009199Y025196D02*
X011834Y025196D01*
X011780Y025118D02*
X009336Y025118D01*
X009473Y025039D02*
X011736Y025039D01*
X011688Y024961D02*
X009610Y024961D01*
X009748Y024882D02*
X011639Y024882D01*
X011590Y024804D02*
X009885Y024804D01*
X010022Y024725D02*
X011534Y024725D01*
X011492Y024647D02*
X010159Y024647D01*
X010296Y024568D02*
X011444Y024568D01*
X011408Y024490D02*
X010433Y024490D01*
X010570Y024411D02*
X011366Y024411D01*
X011324Y024332D02*
X010707Y024332D01*
X010845Y024254D02*
X011282Y024254D01*
X011232Y024175D02*
X010982Y024175D01*
X011063Y024097D02*
X011197Y024097D01*
X011156Y024018D02*
X011084Y024018D01*
X011043Y023940D02*
X011126Y023940D01*
X011090Y023861D02*
X011009Y023861D01*
X010975Y023783D02*
X011054Y023783D01*
X011019Y023704D02*
X010941Y023704D01*
X010907Y023626D02*
X010982Y023626D01*
X010945Y023547D02*
X010873Y023547D01*
X010839Y023468D02*
X010912Y023468D01*
X010886Y023390D02*
X010755Y023042D01*
X010741Y023024D01*
X010709Y022921D01*
X010671Y022820D01*
X010672Y022798D01*
X010564Y022441D01*
X010551Y022423D01*
X010526Y022318D01*
X010495Y022214D01*
X010497Y022193D01*
X010412Y021830D01*
X010401Y021811D01*
X010383Y021705D01*
X010359Y021599D01*
X010362Y021577D01*
X010302Y021210D01*
X010291Y021190D01*
X010281Y021083D01*
X010263Y020976D01*
X010268Y020955D01*
X010206Y020955D01*
X010268Y020955D02*
X010232Y020584D01*
X010222Y020564D01*
X010219Y020456D01*
X010208Y020348D01*
X010215Y020327D01*
X010202Y019955D01*
X010195Y019934D01*
X000489Y019934D01*
X000480Y019855D02*
X010197Y019855D01*
X010198Y019826D02*
X010195Y019934D01*
X010204Y020013D02*
X000498Y020013D01*
X000507Y020091D02*
X010207Y020091D01*
X010210Y020170D02*
X000516Y020170D01*
X000525Y020248D02*
X010212Y020248D01*
X010215Y020327D02*
X000534Y020327D01*
X000539Y020369D02*
X000721Y020885D01*
X001014Y021346D01*
X001403Y021730D01*
X001869Y022016D01*
X002386Y022191D01*
X002930Y022246D01*
X003472Y022177D01*
X003985Y021987D01*
X004443Y021688D01*
X004821Y021294D01*
X005101Y020824D01*
X005193Y020587D01*
X005193Y020553D01*
X005211Y020536D01*
X005218Y020512D01*
X005252Y020495D01*
X005278Y020469D01*
X005303Y020469D01*
X005325Y020457D01*
X005361Y020469D01*
X010017Y020469D01*
X010072Y020464D01*
X010077Y020469D01*
X010083Y020469D01*
X010122Y020507D01*
X010163Y020542D01*
X010163Y020549D01*
X010168Y020553D01*
X010168Y020606D01*
X010230Y021184D01*
X010460Y022330D01*
X010827Y023441D01*
X010856Y023311D02*
X010784Y023311D01*
X010758Y023233D02*
X010827Y023233D01*
X010797Y023154D02*
X010732Y023154D01*
X010706Y023076D02*
X010768Y023076D01*
X010732Y022997D02*
X010681Y022997D01*
X010655Y022919D02*
X010708Y022919D01*
X010679Y022840D02*
X010629Y022840D01*
X010603Y022762D02*
X010661Y022762D01*
X010637Y022683D02*
X010577Y022683D01*
X010551Y022604D02*
X010613Y022604D01*
X010589Y022526D02*
X010525Y022526D01*
X010499Y022447D02*
X010566Y022447D01*
X010538Y022369D02*
X010473Y022369D01*
X010452Y022290D02*
X010518Y022290D01*
X010495Y022212D02*
X010437Y022212D01*
X010421Y022133D02*
X010483Y022133D01*
X010465Y022055D02*
X010405Y022055D01*
X010389Y021976D02*
X010447Y021976D01*
X010428Y021898D02*
X010374Y021898D01*
X010358Y021819D02*
X010406Y021819D01*
X010389Y021741D02*
X010342Y021741D01*
X010326Y021662D02*
X010373Y021662D01*
X010361Y021583D02*
X010310Y021583D01*
X010295Y021505D02*
X010350Y021505D01*
X010337Y021426D02*
X010279Y021426D01*
X010263Y021348D02*
X010324Y021348D01*
X010311Y021269D02*
X010247Y021269D01*
X010232Y021191D02*
X010291Y021191D01*
X010283Y021112D02*
X010223Y021112D01*
X010214Y021034D02*
X010272Y021034D01*
X010260Y020877D02*
X010197Y020877D01*
X010189Y020798D02*
X010253Y020798D01*
X010245Y020719D02*
X010180Y020719D01*
X010172Y020641D02*
X010237Y020641D01*
X010222Y020562D02*
X010168Y020562D01*
X010220Y020484D02*
X010098Y020484D01*
X010214Y020405D02*
X000552Y020405D01*
X000539Y020369D02*
X000477Y019826D01*
X000539Y019283D01*
X000721Y018768D01*
X001014Y018306D01*
X001403Y017922D01*
X001869Y017636D01*
X002386Y017461D01*
X002930Y017407D01*
X003472Y017476D01*
X003985Y017665D01*
X004443Y017964D01*
X004821Y018359D01*
X005101Y018828D01*
X005193Y019065D01*
X005193Y019099D01*
X005211Y019116D01*
X005218Y019140D01*
X005252Y019157D01*
X005278Y019184D01*
X005303Y019184D01*
X005325Y019195D01*
X005361Y019184D01*
X010017Y019184D01*
X010072Y019188D01*
X010077Y019184D01*
X010083Y019184D01*
X010121Y019145D01*
X010163Y019110D01*
X010163Y019103D01*
X010168Y019099D01*
X010168Y019046D01*
X010230Y018468D01*
X010460Y017322D01*
X010827Y016212D01*
X011058Y015679D01*
X011084Y015635D01*
X011082Y015628D01*
X011085Y015621D01*
X011067Y015570D01*
X011053Y015518D01*
X011047Y015515D01*
X011045Y015508D01*
X010996Y015485D01*
X006966Y013138D01*
X006941Y013110D01*
X006916Y013108D01*
X006894Y013096D01*
X006858Y013105D01*
X006821Y013103D01*
X006803Y013120D01*
X006778Y013126D01*
X006761Y013156D01*
X006562Y013315D01*
X006083Y013579D01*
X005557Y013729D01*
X005011Y013757D01*
X004472Y013662D01*
X003968Y013448D01*
X003526Y013126D01*
X003167Y012713D01*
X003167Y012713D01*
X002910Y012229D01*
X002768Y011701D01*
X002749Y011154D01*
X002853Y010617D01*
X003076Y010116D01*
X003041Y010195D02*
X007275Y010195D01*
X007313Y010273D02*
X003006Y010273D01*
X002971Y010352D02*
X007352Y010352D01*
X007390Y010430D02*
X002936Y010430D01*
X002901Y010509D02*
X007429Y010509D01*
X007453Y010587D02*
X002866Y010587D01*
X002844Y010666D02*
X007471Y010666D01*
X007489Y010744D02*
X002829Y010744D01*
X002813Y010823D02*
X007508Y010823D01*
X007526Y010902D02*
X002798Y010902D01*
X002783Y010980D02*
X007544Y010980D01*
X007563Y011059D02*
X002768Y011059D01*
X002752Y011137D02*
X007564Y011137D01*
X007564Y011216D02*
X002751Y011216D01*
X002754Y011294D02*
X007564Y011294D01*
X007564Y011373D02*
X002757Y011373D01*
X002759Y011451D02*
X007565Y011451D01*
X007565Y011530D02*
X002762Y011530D01*
X002765Y011608D02*
X007565Y011608D01*
X007552Y011687D02*
X002768Y011687D01*
X002786Y011766D02*
X007539Y011766D01*
X007526Y011844D02*
X002807Y011844D01*
X002828Y011923D02*
X007510Y011923D01*
X007535Y012001D02*
X002849Y012001D01*
X002870Y012080D02*
X007661Y012080D01*
X007798Y012158D02*
X002891Y012158D01*
X002914Y012237D02*
X007935Y012237D01*
X008072Y012315D02*
X002956Y012315D01*
X002997Y012394D02*
X008209Y012394D01*
X008346Y012472D02*
X003039Y012472D01*
X003081Y012551D02*
X008483Y012551D01*
X008620Y012629D02*
X003122Y012629D01*
X003164Y012708D02*
X008758Y012708D01*
X008895Y012787D02*
X003231Y012787D01*
X003299Y012865D02*
X009032Y012865D01*
X009169Y012944D02*
X003367Y012944D01*
X003436Y013022D02*
X009306Y013022D01*
X009443Y013101D02*
X006903Y013101D01*
X006876Y013101D02*
X003504Y013101D01*
X003599Y013179D02*
X006732Y013179D01*
X006633Y013258D02*
X003707Y013258D01*
X003815Y013336D02*
X006523Y013336D01*
X006381Y013415D02*
X003923Y013415D01*
X004076Y013493D02*
X006239Y013493D01*
X006097Y013572D02*
X004260Y013572D01*
X004445Y013651D02*
X005834Y013651D01*
X005558Y013729D02*
X004851Y013729D01*
X007038Y013179D02*
X009580Y013179D01*
X009717Y013258D02*
X007172Y013258D01*
X007307Y013336D02*
X009854Y013336D01*
X009992Y013415D02*
X007442Y013415D01*
X007577Y013493D02*
X010129Y013493D01*
X010266Y013572D02*
X007712Y013572D01*
X007847Y013651D02*
X010403Y013651D01*
X010540Y013729D02*
X007981Y013729D01*
X008116Y013808D02*
X010677Y013808D01*
X010814Y013886D02*
X008251Y013886D01*
X008386Y013965D02*
X010951Y013965D01*
X011089Y014043D02*
X008521Y014043D01*
X008656Y014122D02*
X011226Y014122D01*
X011363Y014200D02*
X008790Y014200D01*
X008925Y014279D02*
X011500Y014279D01*
X011637Y014357D02*
X009060Y014357D01*
X009195Y014436D02*
X011846Y014436D01*
X011821Y014477D02*
X011878Y014386D01*
X011896Y014373D01*
X012113Y014070D01*
X012119Y014049D01*
X012188Y013965D01*
X012251Y013877D01*
X012270Y013865D01*
X012506Y013578D01*
X012514Y013557D01*
X012588Y013478D01*
X012656Y013394D01*
X012676Y013384D01*
X012930Y013112D01*
X012939Y013092D01*
X013018Y013018D01*
X013092Y012939D01*
X013112Y012930D01*
X013384Y012676D01*
X013394Y012656D01*
X013478Y012588D01*
X013557Y012514D01*
X013578Y012506D01*
X013865Y012270D01*
X013877Y012251D01*
X013965Y012188D01*
X014049Y012119D01*
X014070Y012113D01*
X014373Y011896D01*
X014386Y011878D01*
X014477Y011821D01*
X014565Y011758D01*
X014587Y011753D01*
X014903Y011556D01*
X014917Y011539D01*
X015012Y011488D01*
X015104Y011431D01*
X015126Y011428D01*
X015454Y011252D01*
X015470Y011235D01*
X015568Y011191D01*
X015663Y011140D01*
X015685Y011138D01*
X016024Y010984D01*
X016040Y010970D01*
X016142Y010931D01*
X016241Y010887D01*
X016262Y010886D01*
X016611Y010755D01*
X016628Y010741D01*
X016731Y010709D01*
X016832Y010671D01*
X016854Y010672D01*
X017211Y010564D01*
X017229Y010551D01*
X017334Y010526D01*
X017438Y010495D01*
X017460Y010497D01*
X017822Y010412D01*
X017841Y010401D01*
X017948Y010383D01*
X018053Y010359D01*
X018075Y010362D01*
X018442Y010302D01*
X018462Y010291D01*
X018570Y010281D01*
X018676Y010263D01*
X018698Y010268D01*
X019068Y010232D01*
X019088Y010222D01*
X019196Y010219D01*
X019304Y010208D01*
X019325Y010215D01*
X019697Y010202D01*
X019718Y010195D01*
X019826Y010198D01*
X019934Y010195D01*
X019955Y010202D01*
X020327Y010215D01*
X020348Y010208D01*
X020456Y010219D01*
X020564Y010222D01*
X020584Y010232D01*
X020955Y010268D01*
X020976Y010263D01*
X021083Y010281D01*
X021190Y010291D01*
X021210Y010302D01*
X021577Y010362D01*
X021599Y010359D01*
X021705Y010383D01*
X021811Y010401D01*
X021830Y010412D01*
X022193Y010497D01*
X022214Y010495D01*
X022318Y010526D01*
X022423Y010551D01*
X022441Y010564D01*
X022798Y010672D01*
X022820Y010671D01*
X022921Y010709D01*
X023024Y010741D01*
X023042Y010755D01*
X023390Y010886D01*
X023412Y010887D01*
X023510Y010931D01*
X023612Y010970D01*
X023628Y010984D01*
X023967Y011138D01*
X023989Y011140D01*
X024084Y011191D01*
X024183Y011235D01*
X024198Y011252D01*
X024526Y011428D01*
X024548Y011431D01*
X024640Y011488D01*
X024736Y011539D01*
X024749Y011556D01*
X025066Y011753D01*
X025087Y011758D01*
X025175Y011821D01*
X025267Y011878D01*
X025280Y011896D01*
X025583Y012113D01*
X025604Y012119D01*
X025687Y012188D01*
X025775Y012251D01*
X025787Y012270D01*
X026075Y012506D01*
X026095Y012514D01*
X026174Y012588D01*
X026258Y012656D01*
X026268Y012676D01*
X026540Y012930D01*
X026560Y012939D01*
X026634Y013018D01*
X026713Y013092D01*
X026722Y013112D01*
X026977Y013384D01*
X026996Y013394D01*
X027065Y013478D01*
X027139Y013557D01*
X027146Y013578D01*
X027382Y013865D01*
X027401Y013877D01*
X027464Y013965D01*
X027533Y014049D01*
X027539Y014070D01*
X027757Y014373D01*
X027775Y014386D01*
X027831Y014477D01*
X027895Y014565D01*
X027900Y014587D01*
X028096Y014903D01*
X028113Y014917D01*
X028164Y015012D01*
X028221Y015104D01*
X028225Y015126D01*
X028400Y015454D01*
X028417Y015470D01*
X028461Y015568D01*
X028512Y015663D01*
X028514Y015685D01*
X028668Y016024D01*
X028683Y016040D01*
X028721Y016142D01*
X028766Y016241D01*
X028766Y016262D01*
X028898Y016611D01*
X028912Y016628D01*
X028943Y016731D01*
X028981Y016832D01*
X028980Y016854D01*
X029089Y017211D01*
X029101Y017229D01*
X029126Y017334D01*
X029157Y017438D01*
X029155Y017460D01*
X029240Y017822D01*
X029251Y017841D01*
X029269Y017948D01*
X029294Y018053D01*
X029290Y018075D01*
X029351Y018442D01*
X029361Y018462D01*
X029372Y018570D01*
X029389Y018676D01*
X029384Y018698D01*
X029421Y019068D01*
X029430Y019088D01*
X029433Y019196D01*
X029444Y019304D01*
X029438Y019325D01*
X029450Y019697D01*
X029458Y019718D01*
X029454Y019826D01*
X029458Y019934D01*
X039163Y019934D01*
X039172Y019855D02*
X029455Y019855D01*
X029456Y019777D02*
X039170Y019777D01*
X039161Y019698D02*
X029450Y019698D01*
X029447Y019620D02*
X039152Y019620D01*
X039143Y019541D02*
X029445Y019541D01*
X029442Y019463D02*
X039134Y019463D01*
X039125Y019384D02*
X029439Y019384D01*
X029444Y019306D02*
X039116Y019306D01*
X039094Y019227D02*
X029436Y019227D01*
X029432Y019149D02*
X029534Y019149D01*
X029484Y019070D02*
X029421Y019070D01*
X029413Y018991D02*
X029478Y018991D01*
X029470Y018913D02*
X029405Y018913D01*
X029398Y018834D02*
X029461Y018834D01*
X029453Y018756D02*
X029390Y018756D01*
X029389Y018677D02*
X029445Y018677D01*
X029436Y018599D02*
X029376Y018599D01*
X029367Y018520D02*
X029428Y018520D01*
X029417Y018442D02*
X029351Y018442D01*
X029338Y018363D02*
X029401Y018363D01*
X029385Y018285D02*
X029325Y018285D01*
X029312Y018206D02*
X029369Y018206D01*
X029354Y018128D02*
X029299Y018128D01*
X029293Y018049D02*
X029338Y018049D01*
X029322Y017970D02*
X029274Y017970D01*
X029260Y017892D02*
X029306Y017892D01*
X029291Y017813D02*
X029238Y017813D01*
X029219Y017735D02*
X029275Y017735D01*
X029259Y017656D02*
X029201Y017656D01*
X029183Y017578D02*
X029243Y017578D01*
X029227Y017499D02*
X029164Y017499D01*
X029152Y017421D02*
X029212Y017421D01*
X029196Y017342D02*
X029128Y017342D01*
X029109Y017264D02*
X029173Y017264D01*
X029147Y017185D02*
X029081Y017185D01*
X029057Y017106D02*
X029121Y017106D01*
X029095Y017028D02*
X029033Y017028D01*
X029009Y016949D02*
X029069Y016949D01*
X029043Y016871D02*
X028985Y016871D01*
X028966Y016792D02*
X029017Y016792D01*
X028991Y016714D02*
X028938Y016714D01*
X028914Y016635D02*
X028965Y016635D01*
X028939Y016557D02*
X028877Y016557D01*
X028848Y016478D02*
X028913Y016478D01*
X028887Y016400D02*
X028818Y016400D01*
X028788Y016321D02*
X028861Y016321D01*
X028836Y016242D02*
X028766Y016242D01*
X028731Y016164D02*
X028805Y016164D01*
X028771Y016085D02*
X028700Y016085D01*
X028736Y016007D02*
X028660Y016007D01*
X028624Y015928D02*
X028702Y015928D01*
X028668Y015850D02*
X028589Y015850D01*
X028553Y015771D02*
X028634Y015771D01*
X028600Y015693D02*
X028518Y015693D01*
X028486Y015614D02*
X028569Y015614D01*
X028594Y015536D02*
X028447Y015536D01*
X028403Y015457D02*
X028704Y015457D01*
X028839Y015379D02*
X028360Y015379D01*
X028318Y015300D02*
X028974Y015300D01*
X029109Y015221D02*
X028276Y015221D01*
X028234Y015143D02*
X029244Y015143D01*
X029379Y015064D02*
X028196Y015064D01*
X028150Y014986D02*
X029513Y014986D01*
X029648Y014907D02*
X028101Y014907D01*
X028050Y014829D02*
X029783Y014829D01*
X029918Y014750D02*
X028001Y014750D01*
X027952Y014672D02*
X030053Y014672D01*
X030188Y014593D02*
X027904Y014593D01*
X027858Y014515D02*
X030322Y014515D01*
X030457Y014436D02*
X027806Y014436D01*
X027839Y014357D02*
X027746Y014357D01*
X027788Y014279D02*
X027689Y014279D01*
X027731Y014200D02*
X027633Y014200D01*
X027673Y014122D02*
X027577Y014122D01*
X027615Y014043D02*
X027529Y014043D01*
X027557Y013965D02*
X027464Y013965D01*
X027500Y013886D02*
X027408Y013886D01*
X027437Y013808D02*
X027335Y013808D01*
X027367Y013729D02*
X027271Y013729D01*
X027297Y013651D02*
X027206Y013651D01*
X027228Y013572D02*
X027144Y013572D01*
X027158Y013493D02*
X027079Y013493D01*
X027089Y013415D02*
X027013Y013415D01*
X027019Y013336D02*
X026932Y013336D01*
X026950Y013258D02*
X026858Y013258D01*
X026880Y013179D02*
X026785Y013179D01*
X026811Y013101D02*
X026717Y013101D01*
X026741Y013022D02*
X026638Y013022D01*
X026667Y012944D02*
X026564Y012944D01*
X026578Y012865D02*
X026471Y012865D01*
X026489Y012787D02*
X026387Y012787D01*
X026401Y012708D02*
X026303Y012708D01*
X026312Y012629D02*
X026225Y012629D01*
X026223Y012551D02*
X026135Y012551D01*
X026135Y012472D02*
X026034Y012472D01*
X026046Y012394D02*
X025938Y012394D01*
X025957Y012315D02*
X025842Y012315D01*
X025868Y012237D02*
X025755Y012237D01*
X025774Y012158D02*
X025651Y012158D01*
X025667Y012080D02*
X025536Y012080D01*
X025560Y012001D02*
X025427Y012001D01*
X025453Y011923D02*
X025317Y011923D01*
X025346Y011844D02*
X025213Y011844D01*
X025278Y011766D02*
X025098Y011766D01*
X024960Y011687D02*
X025264Y011687D01*
X025311Y011608D02*
X024833Y011608D01*
X024718Y011530D02*
X025356Y011530D01*
X025401Y011451D02*
X024581Y011451D01*
X024424Y011373D02*
X025446Y011373D01*
X025491Y011294D02*
X024277Y011294D01*
X024139Y011216D02*
X025536Y011216D01*
X025581Y011137D02*
X023965Y011137D01*
X023974Y011059D02*
X023792Y011059D01*
X023794Y010980D02*
X023623Y010980D01*
X023613Y010902D02*
X023445Y010902D01*
X023429Y010823D02*
X023223Y010823D01*
X023191Y010744D02*
X023029Y010744D01*
X022953Y010666D02*
X022778Y010666D01*
X022715Y010587D02*
X022519Y010587D01*
X022477Y010509D02*
X022260Y010509D01*
X022180Y010430D02*
X021906Y010430D01*
X021789Y010352D02*
X021514Y010352D01*
X021398Y010273D02*
X021038Y010273D01*
X020854Y010195D02*
X018799Y010195D01*
X018614Y010273D02*
X018255Y010273D01*
X018139Y010352D02*
X017863Y010352D01*
X017746Y010430D02*
X017472Y010430D01*
X017392Y010509D02*
X017175Y010509D01*
X017133Y010587D02*
X016937Y010587D01*
X016874Y010666D02*
X016699Y010666D01*
X016623Y010744D02*
X016461Y010744D01*
X016429Y010823D02*
X016223Y010823D01*
X016208Y010902D02*
X016040Y010902D01*
X016029Y010980D02*
X015859Y010980D01*
X015860Y011059D02*
X015678Y011059D01*
X015687Y011137D02*
X014071Y011137D01*
X014026Y011059D02*
X015539Y011059D01*
X015476Y010980D02*
X013981Y010980D01*
X013936Y010902D02*
X015430Y010902D01*
X015384Y010823D02*
X013891Y010823D01*
X013846Y010744D02*
X015339Y010744D01*
X015293Y010666D02*
X013801Y010666D01*
X013756Y010587D02*
X015247Y010587D01*
X015201Y010509D02*
X013711Y010509D01*
X013666Y010430D02*
X015156Y010430D01*
X015110Y010352D02*
X013621Y010352D01*
X013576Y010273D02*
X015064Y010273D01*
X015018Y010195D02*
X013531Y010195D01*
X013486Y010116D02*
X014973Y010116D01*
X014927Y010038D02*
X013441Y010038D01*
X013396Y009959D02*
X014881Y009959D01*
X014835Y009880D02*
X013351Y009880D01*
X013306Y009802D02*
X014790Y009802D01*
X014744Y009723D02*
X013261Y009723D01*
X013216Y009645D02*
X014698Y009645D01*
X014652Y009566D02*
X013171Y009566D01*
X013126Y009488D02*
X014606Y009488D01*
X014561Y009409D02*
X013081Y009409D01*
X013036Y009331D02*
X014515Y009331D01*
X014469Y009252D02*
X012991Y009252D01*
X012946Y009174D02*
X014424Y009174D01*
X014378Y009095D02*
X012901Y009095D01*
X012856Y009016D02*
X014332Y009016D01*
X014286Y008938D02*
X012811Y008938D01*
X012766Y008859D02*
X014240Y008859D01*
X014195Y008781D02*
X012721Y008781D01*
X012676Y008702D02*
X014149Y008702D01*
X014103Y008624D02*
X012631Y008624D01*
X012586Y008545D02*
X014057Y008545D01*
X014012Y008467D02*
X012541Y008467D01*
X012496Y008388D02*
X013966Y008388D01*
X013920Y008310D02*
X012451Y008310D01*
X012406Y008231D02*
X013874Y008231D01*
X013829Y008153D02*
X012361Y008153D01*
X012316Y008074D02*
X013783Y008074D01*
X013737Y007995D02*
X012272Y007995D01*
X012227Y007917D02*
X013691Y007917D01*
X013646Y007838D02*
X012182Y007838D01*
X012137Y007760D02*
X013600Y007760D01*
X013554Y007681D02*
X012092Y007681D01*
X012048Y007603D02*
X013508Y007603D01*
X013463Y007524D02*
X011968Y007524D01*
X011852Y007524D02*
X010894Y007524D01*
X010558Y007446D02*
X013417Y007446D01*
X013371Y007367D02*
X010383Y007367D01*
X010223Y007289D02*
X013325Y007289D01*
X013280Y007210D02*
X010063Y007210D01*
X009957Y007131D02*
X013234Y007131D01*
X013188Y007053D02*
X009860Y007053D01*
X009764Y006974D02*
X013142Y006974D01*
X013097Y006896D02*
X009667Y006896D01*
X009586Y006817D02*
X013107Y006817D01*
X013174Y006739D02*
X009525Y006739D01*
X009464Y006660D02*
X013236Y006660D01*
X013299Y006582D02*
X009403Y006582D01*
X009342Y006503D02*
X013347Y006503D01*
X013391Y006425D02*
X009281Y006425D01*
X009243Y006346D02*
X013434Y006346D01*
X013478Y006267D02*
X009207Y006267D01*
X009170Y006189D02*
X013521Y006189D01*
X013564Y006110D02*
X009134Y006110D01*
X009097Y006032D02*
X013594Y006032D01*
X013616Y005953D02*
X009061Y005953D01*
X009037Y005875D02*
X013639Y005875D01*
X013661Y005796D02*
X009021Y005796D01*
X009004Y005718D02*
X013684Y005718D01*
X013706Y005639D02*
X008987Y005639D01*
X008971Y005561D02*
X013728Y005561D01*
X013733Y005482D02*
X008954Y005482D01*
X008938Y005404D02*
X013737Y005404D01*
X013741Y005325D02*
X008936Y005325D01*
X008937Y005246D02*
X013745Y005246D01*
X013749Y005168D02*
X008939Y005168D01*
X008943Y004932D02*
X013744Y004932D01*
X013730Y004854D02*
X008945Y004854D01*
X008962Y004775D02*
X013716Y004775D01*
X013702Y004697D02*
X008981Y004697D01*
X009001Y004618D02*
X013688Y004618D01*
X013674Y004540D02*
X009021Y004540D01*
X009041Y004461D02*
X013657Y004461D01*
X013624Y004382D02*
X009060Y004382D01*
X009082Y004304D02*
X013591Y004304D01*
X013557Y004225D02*
X009122Y004225D01*
X009162Y004147D02*
X013524Y004147D01*
X013490Y004068D02*
X009202Y004068D01*
X009242Y003990D02*
X013457Y003990D01*
X013406Y003911D02*
X009282Y003911D01*
X009322Y003833D02*
X013349Y003833D01*
X013292Y003754D02*
X009386Y003754D01*
X009452Y003676D02*
X013235Y003676D01*
X013178Y003597D02*
X009518Y003597D01*
X009584Y003518D02*
X013118Y003518D01*
X013027Y003440D02*
X009650Y003440D01*
X009737Y003361D02*
X012937Y003361D01*
X012846Y003283D02*
X009841Y003283D01*
X009946Y003204D02*
X012756Y003204D01*
X012636Y003126D02*
X010050Y003126D01*
X010180Y003047D02*
X012488Y003047D01*
X012340Y002969D02*
X010357Y002969D01*
X010534Y002890D02*
X012156Y002890D01*
X011862Y002812D02*
X010832Y002812D01*
X005777Y009016D02*
X004557Y009016D01*
X005216Y008938D02*
X005405Y008938D01*
X009330Y014515D02*
X011794Y014515D01*
X011821Y014477D02*
X011758Y014565D01*
X011753Y014587D01*
X011556Y014903D01*
X011539Y014917D01*
X011488Y015012D01*
X011431Y015104D01*
X011428Y015126D01*
X011252Y015454D01*
X011235Y015470D01*
X011191Y015568D01*
X011140Y015663D01*
X011138Y015685D01*
X010984Y016024D01*
X010970Y016040D01*
X010931Y016142D01*
X010887Y016241D01*
X010886Y016262D01*
X010755Y016611D01*
X010741Y016628D01*
X010709Y016731D01*
X010671Y016832D01*
X010672Y016854D01*
X010564Y017211D01*
X010551Y017229D01*
X010526Y017334D01*
X010495Y017438D01*
X010497Y017460D01*
X010412Y017822D01*
X010401Y017841D01*
X010383Y017948D01*
X010359Y018053D01*
X010362Y018075D01*
X010302Y018442D01*
X010236Y018442D01*
X010291Y018462D02*
X010302Y018442D01*
X010291Y018462D02*
X010281Y018570D01*
X010263Y018676D01*
X010268Y018698D01*
X010232Y019068D01*
X010222Y019088D01*
X010219Y019196D01*
X010208Y019304D01*
X010215Y019325D01*
X010202Y019697D01*
X010195Y019718D01*
X010198Y019826D01*
X010197Y019777D02*
X000483Y019777D01*
X000492Y019698D02*
X010202Y019698D01*
X010205Y019620D02*
X000501Y019620D01*
X000510Y019541D02*
X010208Y019541D01*
X010210Y019463D02*
X000519Y019463D01*
X000527Y019384D02*
X010213Y019384D01*
X010209Y019306D02*
X000536Y019306D01*
X000559Y019227D02*
X010216Y019227D01*
X010220Y019149D02*
X010118Y019149D01*
X010168Y019070D02*
X010231Y019070D01*
X010239Y018991D02*
X010174Y018991D01*
X010182Y018913D02*
X010247Y018913D01*
X010254Y018834D02*
X010191Y018834D01*
X010199Y018756D02*
X010262Y018756D01*
X010263Y018677D02*
X010208Y018677D01*
X010216Y018599D02*
X010276Y018599D01*
X010285Y018520D02*
X010225Y018520D01*
X010251Y018363D02*
X010315Y018363D01*
X010328Y018285D02*
X010267Y018285D01*
X010283Y018206D02*
X010341Y018206D01*
X010354Y018128D02*
X010299Y018128D01*
X010314Y018049D02*
X010360Y018049D01*
X010378Y017970D02*
X010330Y017970D01*
X010346Y017892D02*
X010392Y017892D01*
X010415Y017813D02*
X010362Y017813D01*
X010378Y017735D02*
X010433Y017735D01*
X010451Y017656D02*
X010393Y017656D01*
X010409Y017578D02*
X010470Y017578D01*
X010488Y017499D02*
X010425Y017499D01*
X010441Y017421D02*
X010500Y017421D01*
X010524Y017342D02*
X010456Y017342D01*
X010480Y017264D02*
X010543Y017264D01*
X010572Y017185D02*
X010506Y017185D01*
X010532Y017106D02*
X010595Y017106D01*
X010619Y017028D02*
X010557Y017028D01*
X010583Y016949D02*
X010643Y016949D01*
X010667Y016871D02*
X010609Y016871D01*
X010635Y016792D02*
X010686Y016792D01*
X010661Y016714D02*
X010714Y016714D01*
X010738Y016635D02*
X010687Y016635D01*
X010713Y016557D02*
X010775Y016557D01*
X010805Y016478D02*
X010739Y016478D01*
X010765Y016400D02*
X010834Y016400D01*
X010864Y016321D02*
X010791Y016321D01*
X010817Y016242D02*
X010886Y016242D01*
X010921Y016164D02*
X010848Y016164D01*
X010882Y016085D02*
X010953Y016085D01*
X010916Y016007D02*
X010992Y016007D01*
X011028Y015928D02*
X010950Y015928D01*
X010984Y015850D02*
X011063Y015850D01*
X011099Y015771D02*
X011018Y015771D01*
X011052Y015693D02*
X011135Y015693D01*
X011166Y015614D02*
X011083Y015614D01*
X011058Y015536D02*
X011206Y015536D01*
X011249Y015457D02*
X010948Y015457D01*
X010813Y015379D02*
X011292Y015379D01*
X011334Y015300D02*
X010678Y015300D01*
X010543Y015221D02*
X011376Y015221D01*
X011418Y015143D02*
X010409Y015143D01*
X010274Y015064D02*
X011456Y015064D01*
X011502Y014986D02*
X010139Y014986D01*
X010004Y014907D02*
X011551Y014907D01*
X011602Y014829D02*
X009869Y014829D01*
X009734Y014750D02*
X011651Y014750D01*
X011700Y014672D02*
X009599Y014672D01*
X009465Y014593D02*
X011749Y014593D01*
X011813Y014357D02*
X011906Y014357D01*
X011864Y014279D02*
X011963Y014279D01*
X011922Y014200D02*
X012019Y014200D01*
X011979Y014122D02*
X012075Y014122D01*
X012037Y014043D02*
X012124Y014043D01*
X012095Y013965D02*
X012188Y013965D01*
X012153Y013886D02*
X012244Y013886D01*
X012216Y013808D02*
X012317Y013808D01*
X012285Y013729D02*
X012381Y013729D01*
X012355Y013651D02*
X012446Y013651D01*
X012424Y013572D02*
X012508Y013572D01*
X012494Y013493D02*
X012573Y013493D01*
X012563Y013415D02*
X012639Y013415D01*
X012633Y013336D02*
X012720Y013336D01*
X012703Y013258D02*
X012794Y013258D01*
X012772Y013179D02*
X012867Y013179D01*
X012842Y013101D02*
X012935Y013101D01*
X012911Y013022D02*
X013014Y013022D01*
X012986Y012944D02*
X013088Y012944D01*
X013074Y012865D02*
X013182Y012865D01*
X013163Y012787D02*
X013265Y012787D01*
X013252Y012708D02*
X013349Y012708D01*
X013340Y012629D02*
X013427Y012629D01*
X013429Y012551D02*
X013517Y012551D01*
X013518Y012472D02*
X013618Y012472D01*
X013606Y012394D02*
X013714Y012394D01*
X013695Y012315D02*
X013810Y012315D01*
X013784Y012237D02*
X013897Y012237D01*
X013878Y012158D02*
X014001Y012158D01*
X013985Y012080D02*
X014116Y012080D01*
X014092Y012001D02*
X014225Y012001D01*
X014199Y011923D02*
X014335Y011923D01*
X014306Y011844D02*
X014439Y011844D01*
X014374Y011766D02*
X014554Y011766D01*
X014692Y011687D02*
X014388Y011687D01*
X014341Y011608D02*
X014819Y011608D01*
X014934Y011530D02*
X014296Y011530D01*
X014251Y011451D02*
X015072Y011451D01*
X015228Y011373D02*
X014206Y011373D01*
X014161Y011294D02*
X015375Y011294D01*
X015513Y011216D02*
X014116Y011216D01*
X015320Y013083D02*
X015771Y012803D01*
X016239Y012552D01*
X016723Y012333D01*
X016780Y012311D01*
X016821Y012301D01*
X016780Y012311D02*
X017219Y012146D01*
X017727Y011992D01*
X018244Y011872D01*
X018767Y011785D01*
X019296Y011733D01*
X019826Y011716D01*
X020356Y011733D01*
X020885Y011785D01*
X021408Y011872D01*
X021925Y011992D01*
X022433Y012146D01*
X022930Y012333D01*
X023413Y012552D01*
X023881Y012803D01*
X024332Y013083D01*
X024763Y013392D01*
X024916Y013518D01*
X024901Y013501D01*
X024916Y013518D02*
X025174Y013729D01*
X025561Y014091D01*
X025924Y014479D01*
X026260Y014889D01*
X026569Y015320D01*
X026850Y015771D01*
X027100Y016239D01*
X027319Y016723D01*
X027506Y017219D01*
X027660Y017727D01*
X027780Y018244D01*
X027867Y018767D01*
X027919Y019296D01*
X027936Y019826D01*
X027919Y020356D01*
X027867Y020885D01*
X027844Y021025D01*
X027821Y021021D01*
X027844Y021025D02*
X027780Y021408D01*
X027660Y021925D01*
X027506Y022433D01*
X027319Y022930D01*
X027100Y023413D01*
X026850Y023881D01*
X026569Y024332D01*
X026260Y024763D01*
X025924Y025174D01*
X025561Y025561D01*
X025174Y025924D01*
X024763Y026260D01*
X024332Y026569D01*
X023881Y026850D01*
X023413Y027100D01*
X022930Y027319D01*
X022831Y027356D01*
X023339Y027142D01*
X023291Y026853D02*
X022824Y027064D01*
X022507Y027184D01*
X022501Y027181D01*
X022507Y027184D02*
X022345Y027245D01*
X021854Y027394D01*
X021354Y027510D01*
X020849Y027594D01*
X020339Y027644D01*
X019826Y027661D01*
X019314Y027644D01*
X018804Y027594D01*
X018298Y027510D01*
X017799Y027394D01*
X017308Y027245D01*
X016828Y027064D01*
X016361Y026853D01*
X015909Y026611D01*
X015473Y026340D01*
X015057Y026042D01*
X014747Y025788D01*
X014741Y025781D01*
X014747Y025788D02*
X014660Y025717D01*
X014286Y025366D01*
X013936Y024992D01*
X013610Y024595D01*
X013312Y024179D01*
X013041Y023743D01*
X012799Y023291D01*
X012588Y022824D01*
X012407Y022345D01*
X012258Y021854D01*
X012142Y021354D01*
X012058Y020849D01*
X012008Y020339D01*
X011991Y019826D01*
X012008Y019314D01*
X012058Y018804D01*
X012109Y018494D01*
X012110Y018488D01*
X012109Y018494D02*
X012142Y018298D01*
X012258Y017799D01*
X012407Y017308D01*
X012588Y016828D01*
X012799Y016361D01*
X013041Y015909D01*
X013312Y015473D01*
X013610Y015057D01*
X013936Y014660D01*
X014286Y014286D01*
X014660Y013936D01*
X015057Y013610D01*
X015473Y013312D01*
X015909Y013041D01*
X016361Y012799D01*
X016828Y012588D01*
X017175Y012457D01*
X017141Y012461D01*
X017175Y012457D02*
X017308Y012407D01*
X017799Y012258D01*
X018298Y012142D01*
X018804Y012058D01*
X019314Y012008D01*
X019826Y011991D01*
X020339Y012008D01*
X020849Y012058D01*
X021354Y012142D01*
X021854Y012258D01*
X022345Y012407D01*
X022824Y012588D01*
X023291Y012799D01*
X023743Y013041D01*
X024179Y013312D01*
X024595Y013610D01*
X024938Y013891D01*
X024901Y013861D01*
X024938Y013891D02*
X024992Y013936D01*
X025366Y014286D01*
X025717Y014660D01*
X026042Y015057D01*
X026340Y015473D01*
X026611Y015909D01*
X026853Y016361D01*
X027064Y016828D01*
X027245Y017308D01*
X027394Y017799D01*
X027510Y018298D01*
X027594Y018804D01*
X027644Y019314D01*
X027661Y019826D01*
X027644Y020339D01*
X027594Y020849D01*
X027531Y021227D01*
X027541Y021221D01*
X027531Y021227D02*
X027510Y021354D01*
X027394Y021854D01*
X027245Y022345D01*
X027064Y022824D01*
X026853Y023291D01*
X026611Y023743D01*
X026340Y024179D01*
X026042Y024595D01*
X025717Y024992D01*
X025366Y025366D01*
X024992Y025717D01*
X024595Y026042D01*
X024179Y026340D01*
X023743Y026611D01*
X023291Y026853D01*
X023169Y026606D02*
X022719Y026810D01*
X022256Y026984D01*
X022158Y027014D01*
X022141Y027021D01*
X022158Y027014D02*
X021782Y027128D01*
X021301Y027240D01*
X020813Y027321D01*
X020321Y027369D01*
X019826Y027385D01*
X019332Y027369D01*
X018840Y027321D01*
X018351Y027240D01*
X017870Y027128D01*
X017396Y026984D01*
X016933Y026810D01*
X016483Y026606D01*
X016047Y026373D01*
X015627Y026111D01*
X015225Y025823D01*
X014842Y025509D01*
X014760Y025432D01*
X014741Y025421D01*
X014760Y025432D02*
X014481Y025171D01*
X014143Y024810D01*
X013829Y024428D01*
X013541Y024026D01*
X013280Y023606D01*
X013047Y023169D01*
X012843Y022719D01*
X012668Y022256D01*
X012525Y021782D01*
X012412Y021301D01*
X012332Y020813D01*
X012283Y020321D01*
X012267Y019826D01*
X012283Y019332D01*
X012332Y018840D01*
X012412Y018351D01*
X012434Y018260D01*
X012464Y018251D01*
X012434Y018260D02*
X012525Y017870D01*
X012668Y017396D01*
X012843Y016933D01*
X013047Y016483D01*
X013280Y016047D01*
X013541Y015627D01*
X013829Y015225D01*
X014143Y014842D01*
X014481Y014481D01*
X014842Y014143D01*
X015225Y013829D01*
X015627Y013541D01*
X016047Y013280D01*
X016483Y013047D01*
X016933Y012843D01*
X017396Y012668D01*
X017488Y012641D01*
X017501Y012621D01*
X017488Y012641D02*
X017870Y012525D01*
X018351Y012412D01*
X018840Y012332D01*
X019332Y012283D01*
X019826Y012267D01*
X020321Y012283D01*
X020813Y012332D01*
X021301Y012412D01*
X021782Y012525D01*
X022256Y012668D01*
X022719Y012843D01*
X023169Y013047D01*
X023606Y013280D01*
X024026Y013541D01*
X024428Y013829D01*
X024810Y014143D01*
X024923Y014249D01*
X024901Y014221D01*
X024923Y014249D02*
X025171Y014481D01*
X025509Y014842D01*
X025823Y015225D01*
X026111Y015627D01*
X026373Y016047D01*
X026606Y016483D01*
X026810Y016933D01*
X026984Y017396D01*
X027128Y017870D01*
X027240Y018351D01*
X027321Y018840D01*
X027369Y019332D01*
X027385Y019826D01*
X027369Y020321D01*
X027321Y020813D01*
X027240Y021301D01*
X027214Y021413D01*
X027221Y021421D01*
X027214Y021413D02*
X027128Y021782D01*
X026984Y022256D01*
X026810Y022719D01*
X026606Y023169D01*
X026373Y023606D01*
X026111Y024026D01*
X025823Y024428D01*
X025509Y024810D01*
X025171Y025171D01*
X024810Y025509D01*
X024428Y025823D01*
X024026Y026111D01*
X023606Y026373D01*
X023169Y026606D01*
X023107Y026480D02*
X023536Y026251D01*
X023948Y025995D01*
X024342Y025712D01*
X024718Y025404D01*
X025072Y025072D01*
X025404Y024717D01*
X025712Y024342D01*
X025995Y023948D01*
X026141Y023713D01*
X026141Y021087D01*
X026133Y021135D01*
X026129Y021138D01*
X026059Y021437D01*
X026062Y021442D01*
X026046Y021493D01*
X026034Y021545D01*
X026029Y021547D01*
X025980Y021709D01*
X026001Y021730D01*
X026001Y021912D01*
X025872Y022041D01*
X025869Y022041D01*
X025795Y022237D01*
X025797Y022242D01*
X025775Y022290D01*
X026141Y022290D01*
X026141Y022212D02*
X025805Y022212D01*
X026851Y022212D01*
X026851Y022211D02*
X026992Y021746D01*
X027038Y021549D01*
X027001Y021512D01*
X027001Y021330D01*
X027111Y021220D01*
X027182Y020794D01*
X027229Y020311D01*
X027245Y019826D01*
X027229Y019341D01*
X027182Y018858D01*
X027102Y018378D01*
X026992Y017906D01*
X026851Y017442D01*
X026680Y016987D01*
X026480Y016545D01*
X026251Y016117D01*
X025995Y015704D01*
X025712Y015310D01*
X025404Y014935D01*
X025072Y014580D01*
X024923Y014441D01*
X024810Y014441D01*
X024681Y014312D01*
X024681Y014218D01*
X024392Y013981D01*
X022520Y013981D01*
X022622Y014027D01*
X022627Y014026D01*
X022674Y014051D01*
X022723Y014073D01*
X022725Y014078D01*
X022995Y014223D01*
X023000Y014221D01*
X023046Y014250D01*
X023093Y014275D01*
X023094Y014280D01*
X023355Y014442D01*
X023360Y014441D01*
X023404Y014472D01*
X023449Y014500D01*
X023450Y014505D01*
X023699Y014684D01*
X023705Y014684D01*
X023746Y014718D01*
X023789Y014749D01*
X023790Y014754D01*
X024028Y014949D01*
X024033Y014948D01*
X024072Y014985D01*
X024113Y015019D01*
X024114Y015024D01*
X024338Y015234D01*
X024343Y015234D01*
X024379Y015273D01*
X024418Y015309D01*
X024419Y015315D01*
X024537Y015441D01*
X024632Y015441D01*
X024761Y015570D01*
X024761Y015695D01*
X024899Y015862D01*
X024904Y015863D01*
X024935Y015906D01*
X024969Y015947D01*
X024968Y015953D01*
X025147Y016202D01*
X025152Y016203D01*
X025180Y016249D01*
X025211Y016292D01*
X025211Y016297D01*
X025372Y016558D01*
X025377Y016559D01*
X025402Y016606D01*
X025431Y016652D01*
X025430Y016657D01*
X025574Y016927D01*
X025579Y016929D01*
X025601Y016978D01*
X025626Y017025D01*
X025625Y017030D01*
X025752Y017310D01*
X025756Y017312D01*
X025775Y017362D01*
X025797Y017411D01*
X025795Y017416D01*
X025904Y017703D01*
X025908Y017705D01*
X025924Y017756D01*
X025943Y017806D01*
X025940Y017811D01*
X026029Y018105D01*
X026034Y018108D01*
X026046Y018160D01*
X026062Y018211D01*
X026059Y018215D01*
X026129Y018514D01*
X026133Y018517D01*
X026141Y018566D01*
X026141Y015939D01*
X025995Y015704D01*
X025712Y015310D01*
X025404Y014935D01*
X025072Y014580D01*
X024923Y014441D01*
X024810Y014441D01*
X024681Y014312D01*
X024681Y014218D01*
X024342Y013940D01*
X023948Y013657D01*
X023536Y013401D01*
X023107Y013172D01*
X022665Y012972D01*
X022211Y012801D01*
X021746Y012660D01*
X021274Y012550D01*
X020794Y012470D01*
X020311Y012423D01*
X019826Y012407D01*
X019341Y012423D01*
X018858Y012470D01*
X018378Y012550D01*
X017906Y012660D01*
X017716Y012718D01*
X017592Y012841D01*
X017410Y012841D01*
X017389Y012820D01*
X016987Y012972D01*
X016545Y013172D01*
X016117Y013401D01*
X015704Y013657D01*
X015310Y013940D01*
X014935Y014248D01*
X014580Y014580D01*
X014248Y014935D01*
X013940Y015310D01*
X013657Y015704D01*
X013421Y016084D01*
X013421Y019197D01*
X013436Y019043D01*
X013433Y019039D01*
X013442Y018986D01*
X013447Y018933D01*
X013451Y018929D01*
X013501Y018627D01*
X013498Y018622D01*
X013510Y018570D01*
X013519Y018517D01*
X013523Y018514D01*
X013593Y018215D01*
X013591Y018211D01*
X013606Y018160D01*
X013618Y018108D01*
X013623Y018105D01*
X013700Y017852D01*
X013701Y017846D01*
X013699Y017840D01*
X013711Y017809D01*
X013710Y017806D01*
X013729Y017756D01*
X013744Y017705D01*
X013749Y017703D01*
X013782Y017613D01*
X013761Y017592D01*
X013761Y017410D01*
X013890Y017281D01*
X013914Y017281D01*
X014027Y017030D01*
X014026Y017025D01*
X014051Y016978D01*
X014073Y016929D01*
X014078Y016927D01*
X014223Y016657D01*
X014221Y016652D01*
X014250Y016606D01*
X014275Y016559D01*
X014280Y016558D01*
X014442Y016297D01*
X014441Y016292D01*
X014472Y016249D01*
X014500Y016203D01*
X014505Y016202D01*
X014684Y015953D01*
X014684Y015947D01*
X014718Y015906D01*
X014749Y015863D01*
X014718Y015906D01*
X014684Y015947D01*
X014684Y015953D01*
X014505Y016202D01*
X014500Y016203D01*
X014472Y016249D01*
X014441Y016292D01*
X014442Y016297D01*
X014280Y016558D01*
X014275Y016559D01*
X014250Y016606D01*
X014221Y016652D01*
X014223Y016657D01*
X014078Y016927D01*
X014073Y016929D01*
X014051Y016978D01*
X014026Y017025D01*
X014027Y017030D01*
X013914Y017281D01*
X013890Y017281D01*
X013761Y017410D01*
X013761Y017592D01*
X013782Y017613D01*
X013749Y017703D01*
X013744Y017705D01*
X013729Y017756D01*
X013710Y017806D01*
X013711Y017809D01*
X013699Y017840D01*
X013701Y017846D01*
X013700Y017852D01*
X013623Y018105D01*
X013618Y018108D01*
X013606Y018160D01*
X013591Y018211D01*
X013593Y018215D01*
X013523Y018514D01*
X013519Y018517D01*
X013510Y018570D01*
X013498Y018622D01*
X013501Y018627D01*
X013451Y018929D01*
X013447Y018933D01*
X013442Y018986D01*
X013433Y019039D01*
X013436Y019043D01*
X013406Y019348D01*
X013402Y019352D01*
X013401Y019405D01*
X013395Y019458D01*
X013399Y019462D01*
X013389Y019769D01*
X013385Y019773D01*
X013387Y019826D01*
X013385Y019880D01*
X013389Y019883D01*
X013399Y020190D01*
X013395Y020194D01*
X013401Y020247D01*
X013402Y020300D01*
X013406Y020304D01*
X013436Y020609D01*
X013421Y020455D01*
X013421Y023568D01*
X013657Y023948D01*
X013940Y024342D01*
X014248Y024717D01*
X014580Y025072D01*
X014718Y025201D01*
X014832Y025201D01*
X014961Y025330D01*
X014961Y025421D01*
X016636Y025421D01*
X016606Y025402D01*
X016559Y025377D01*
X016558Y025372D01*
X016297Y025211D01*
X016292Y025211D01*
X016249Y025180D01*
X016203Y025152D01*
X016202Y025147D01*
X015953Y024968D01*
X015947Y024969D01*
X015906Y024935D01*
X015863Y024904D01*
X015906Y024935D01*
X015947Y024969D01*
X015953Y024968D01*
X016202Y025147D01*
X016203Y025152D01*
X016249Y025180D01*
X016292Y025211D01*
X016297Y025211D01*
X016558Y025372D01*
X016559Y025377D01*
X016606Y025402D01*
X016652Y025431D01*
X016657Y025430D01*
X016927Y025574D01*
X016929Y025579D01*
X016978Y025601D01*
X017025Y025626D01*
X017030Y025625D01*
X017310Y025752D01*
X017312Y025756D01*
X017362Y025775D01*
X017411Y025797D01*
X017416Y025795D01*
X017703Y025904D01*
X017705Y025908D01*
X017756Y025924D01*
X017806Y025943D01*
X017811Y025940D01*
X018105Y026029D01*
X018108Y026034D01*
X018160Y026046D01*
X018211Y026062D01*
X018215Y026059D01*
X018514Y026129D01*
X018517Y026133D01*
X018570Y026142D01*
X018622Y026154D01*
X018627Y026151D01*
X018929Y026201D01*
X018933Y026205D01*
X018986Y026210D01*
X019039Y026219D01*
X019043Y026216D01*
X019348Y026246D01*
X019352Y026250D01*
X019405Y026252D01*
X019458Y026257D01*
X019462Y026254D01*
X019769Y026264D01*
X019773Y026267D01*
X019826Y026265D01*
X019880Y026267D01*
X019883Y026264D01*
X020190Y026254D01*
X020194Y026257D01*
X020247Y026252D01*
X020300Y026250D01*
X020304Y026246D01*
X020609Y026216D01*
X020614Y026219D01*
X020666Y026210D01*
X020720Y026205D01*
X020723Y026201D01*
X020901Y026172D01*
X020970Y026241D01*
X021152Y026241D01*
X021281Y026112D01*
X021281Y026095D01*
X021437Y026059D01*
X021442Y026062D01*
X021493Y026046D01*
X021545Y026034D01*
X021548Y026029D01*
X021841Y025940D01*
X021846Y025943D01*
X021896Y025924D01*
X021947Y025908D01*
X021950Y025904D01*
X022237Y025795D01*
X022242Y025797D01*
X022290Y025775D01*
X022340Y025756D01*
X022343Y025752D01*
X022622Y025625D01*
X022627Y025626D01*
X022674Y025601D01*
X022723Y025579D01*
X022725Y025574D01*
X022995Y025430D01*
X023000Y025431D01*
X023046Y025402D01*
X023016Y025421D01*
X024697Y025421D01*
X024718Y025404D01*
X025072Y025072D01*
X025404Y024717D01*
X025712Y024342D01*
X025995Y023948D01*
X026251Y023536D01*
X026480Y023107D01*
X026680Y022665D01*
X026851Y022211D01*
X026875Y022133D02*
X025834Y022133D01*
X026141Y022133D01*
X026141Y022055D02*
X025864Y022055D01*
X026899Y022055D01*
X026923Y021976D02*
X025937Y021976D01*
X026141Y021976D01*
X026141Y021898D02*
X026001Y021898D01*
X026946Y021898D01*
X026970Y021819D02*
X026001Y021819D01*
X026141Y021819D01*
X026141Y021741D02*
X026001Y021741D01*
X026994Y021741D01*
X027012Y021662D02*
X025995Y021662D01*
X026141Y021662D01*
X026141Y021583D02*
X026019Y021583D01*
X027030Y021583D01*
X027001Y021505D02*
X026043Y021505D01*
X026141Y021505D01*
X026141Y021426D02*
X026061Y021426D01*
X027001Y021426D01*
X027001Y021348D02*
X026080Y021348D01*
X026141Y021348D01*
X026141Y021269D02*
X026098Y021269D01*
X027062Y021269D01*
X027116Y021191D02*
X026116Y021191D01*
X026141Y021191D01*
X026129Y021138D02*
X026059Y021437D01*
X026062Y021442D01*
X026046Y021493D01*
X026034Y021545D01*
X026029Y021547D01*
X025980Y021709D01*
X026001Y021730D01*
X026001Y021912D01*
X025872Y022041D01*
X025869Y022041D01*
X025795Y022237D01*
X025797Y022242D01*
X025775Y022290D01*
X026821Y022290D01*
X026792Y022369D02*
X025740Y022369D01*
X026141Y022369D01*
X026141Y022447D02*
X025704Y022447D01*
X026762Y022447D01*
X026733Y022526D02*
X025669Y022526D01*
X026141Y022526D01*
X026141Y022604D02*
X025633Y022604D01*
X026703Y022604D01*
X026672Y022683D02*
X025597Y022683D01*
X026141Y022683D01*
X026141Y022762D02*
X025555Y022762D01*
X026637Y022762D01*
X026601Y022840D02*
X025513Y022840D01*
X026141Y022840D01*
X026141Y022919D02*
X025471Y022919D01*
X026566Y022919D01*
X026530Y022997D02*
X025430Y022997D01*
X026141Y022997D01*
X026141Y023076D02*
X025386Y023076D01*
X026494Y023076D01*
X026455Y023154D02*
X025335Y023154D01*
X026141Y023154D01*
X026141Y023233D02*
X025286Y023233D01*
X026413Y023233D01*
X026371Y023311D02*
X025238Y023311D01*
X026141Y023311D01*
X026141Y023390D02*
X025190Y023390D01*
X026329Y023390D01*
X026287Y023468D02*
X025134Y023468D01*
X026141Y023468D01*
X026141Y023547D02*
X025078Y023547D01*
X026244Y023547D01*
X026195Y023626D02*
X025021Y023626D01*
X026141Y023626D01*
X026141Y023704D02*
X024969Y023704D01*
X026146Y023704D01*
X026098Y023783D02*
X024909Y023783D01*
X026098Y023783D01*
X026049Y023861D02*
X024840Y023861D01*
X026049Y023861D01*
X026000Y023940D02*
X024776Y023940D01*
X026000Y023940D01*
X025944Y024018D02*
X024711Y024018D01*
X025944Y024018D01*
X025888Y024097D02*
X024647Y024097D01*
X025888Y024097D01*
X025832Y024175D02*
X024571Y024175D01*
X025832Y024175D01*
X025775Y024254D02*
X024497Y024254D01*
X025775Y024254D01*
X025719Y024332D02*
X024424Y024332D01*
X025719Y024332D01*
X025656Y024411D02*
X024350Y024411D01*
X025656Y024411D01*
X025591Y024490D02*
X024262Y024490D01*
X025591Y024490D01*
X025527Y024568D02*
X024178Y024568D01*
X025527Y024568D01*
X025462Y024647D02*
X024097Y024647D01*
X025462Y024647D01*
X025397Y024725D02*
X024001Y024725D01*
X025397Y024725D01*
X025323Y024804D02*
X023906Y024804D01*
X025323Y024804D01*
X025250Y024882D02*
X023810Y024882D01*
X025250Y024882D01*
X025176Y024961D02*
X023714Y024961D01*
X025176Y024961D01*
X025103Y025039D02*
X023600Y025039D01*
X025103Y025039D01*
X025023Y025118D02*
X023491Y025118D01*
X025023Y025118D01*
X024939Y025196D02*
X023381Y025196D01*
X024939Y025196D01*
X024855Y025275D02*
X023251Y025275D01*
X024855Y025275D01*
X024771Y025354D02*
X023125Y025354D01*
X024771Y025354D01*
X024683Y025432D02*
X022991Y025432D01*
X023046Y025402D02*
X023093Y025377D01*
X023094Y025372D01*
X023355Y025211D01*
X023360Y025211D01*
X023404Y025180D01*
X023449Y025152D01*
X023450Y025147D01*
X023699Y024968D01*
X023705Y024969D01*
X023746Y024935D01*
X023789Y024904D01*
X023790Y024899D01*
X024028Y024704D01*
X024033Y024704D01*
X024072Y024667D01*
X024113Y024633D01*
X024114Y024628D01*
X024338Y024419D01*
X024343Y024418D01*
X024379Y024379D01*
X024418Y024343D01*
X024419Y024338D01*
X024628Y024114D01*
X024633Y024113D01*
X024667Y024072D01*
X024704Y024033D01*
X024704Y024028D01*
X024899Y023790D01*
X024904Y023789D01*
X024935Y023746D01*
X024969Y023705D01*
X024968Y023699D01*
X025147Y023450D01*
X025152Y023449D01*
X025180Y023404D01*
X025211Y023360D01*
X025211Y023355D01*
X025372Y023094D01*
X025377Y023093D01*
X025402Y023046D01*
X025431Y023000D01*
X025430Y022995D01*
X025574Y022725D01*
X025579Y022723D01*
X025601Y022674D01*
X025626Y022627D01*
X025625Y022622D01*
X025752Y022343D01*
X025756Y022340D01*
X025775Y022290D01*
X025756Y022340D01*
X025752Y022343D01*
X025625Y022622D01*
X025626Y022627D01*
X025601Y022674D01*
X025579Y022723D01*
X025574Y022725D01*
X025430Y022995D01*
X025431Y023000D01*
X025402Y023046D01*
X025377Y023093D01*
X025372Y023094D01*
X025211Y023355D01*
X025211Y023360D01*
X025180Y023404D01*
X025152Y023449D01*
X025147Y023450D01*
X024968Y023699D01*
X024969Y023705D01*
X024935Y023746D01*
X024904Y023789D01*
X024899Y023790D01*
X024704Y024028D01*
X024704Y024033D01*
X024667Y024072D01*
X024633Y024113D01*
X024628Y024114D01*
X024419Y024338D01*
X024418Y024343D01*
X024379Y024379D01*
X024343Y024418D01*
X024338Y024419D01*
X024114Y024628D01*
X024113Y024633D01*
X024072Y024667D01*
X024033Y024704D01*
X024028Y024704D01*
X023790Y024899D01*
X023789Y024904D01*
X023746Y024935D01*
X023705Y024969D01*
X023699Y024968D01*
X023450Y025147D01*
X023449Y025152D01*
X023404Y025180D01*
X023360Y025211D01*
X023355Y025211D01*
X023094Y025372D01*
X023093Y025377D01*
X023046Y025402D01*
X022976Y025281D02*
X022612Y025476D01*
X022237Y025646D01*
X021851Y025791D01*
X021456Y025911D01*
X021055Y026004D01*
X021061Y026021D01*
X021055Y026004D02*
X020648Y026071D01*
X020238Y026112D01*
X019826Y026125D01*
X019414Y026112D01*
X019004Y026071D01*
X018597Y026004D01*
X018196Y025911D01*
X017801Y025791D01*
X017416Y025646D01*
X017040Y025476D01*
X016677Y025281D01*
X016327Y025064D01*
X015991Y024824D01*
X015673Y024562D01*
X015372Y024280D01*
X015131Y024023D01*
X015421Y024301D01*
X015201Y024303D02*
X015045Y024136D01*
X015031Y024121D01*
X015023Y024114D01*
X015019Y024113D01*
X015005Y024096D01*
X014992Y024084D01*
X014992Y024081D01*
X014985Y024072D01*
X014949Y024033D01*
X014949Y024028D01*
X014754Y023790D01*
X014749Y023789D01*
X014718Y023746D01*
X014684Y023705D01*
X014684Y023699D01*
X014505Y023450D01*
X014500Y023449D01*
X014472Y023404D01*
X014441Y023360D01*
X014442Y023355D01*
X014280Y023094D01*
X014275Y023093D01*
X014250Y023046D01*
X014221Y023000D01*
X014223Y022995D01*
X014078Y022725D01*
X014073Y022723D01*
X014051Y022674D01*
X014026Y022627D01*
X014027Y022622D01*
X013901Y022343D01*
X013896Y022340D01*
X013877Y022290D01*
X013421Y022290D01*
X013421Y022212D02*
X013848Y022212D01*
X012801Y022212D01*
X012801Y022211D02*
X012972Y022665D01*
X013172Y023107D01*
X013401Y023536D01*
X013657Y023948D01*
X013940Y024342D01*
X014248Y024717D01*
X014580Y025072D01*
X014718Y025201D01*
X014832Y025201D01*
X014961Y025330D01*
X014961Y025426D01*
X015310Y025712D01*
X015704Y025995D01*
X016117Y026251D01*
X016545Y026480D01*
X016987Y026680D01*
X017442Y026851D01*
X017906Y026992D01*
X018378Y027102D01*
X018858Y027182D01*
X019341Y027229D01*
X019826Y027245D01*
X020311Y027229D01*
X020794Y027182D01*
X021274Y027102D01*
X021746Y026992D01*
X021921Y026939D01*
X021921Y026930D01*
X022050Y026801D01*
X022232Y026801D01*
X022263Y026832D01*
X022665Y026680D01*
X023107Y026480D01*
X023158Y026453D02*
X016494Y026453D01*
X016347Y026375D02*
X023305Y026375D01*
X023452Y026296D02*
X016200Y026296D01*
X016062Y026217D02*
X019030Y026217D01*
X019041Y026217D02*
X019059Y026217D01*
X019040Y025798D02*
X018651Y025734D01*
X018267Y025645D01*
X017890Y025530D01*
X017521Y025391D01*
X017162Y025229D01*
X016814Y025043D01*
X016480Y024834D01*
X016159Y024605D01*
X015854Y024355D01*
X015567Y024086D01*
X015297Y023798D01*
X015153Y023622D01*
X015461Y023941D01*
X015762Y023891D02*
X015504Y023616D01*
X015266Y023325D01*
X015199Y023232D01*
X015541Y023621D01*
X015534Y023401D02*
X015632Y023401D01*
X015761Y023530D01*
X015761Y023685D01*
X015861Y023792D01*
X016129Y024042D01*
X016412Y024275D01*
X016711Y024489D01*
X017022Y024683D01*
X017346Y024856D01*
X017680Y025007D01*
X018023Y025136D01*
X018375Y025243D01*
X018732Y025326D01*
X019094Y025386D01*
X019448Y025421D01*
X020204Y025421D01*
X020233Y025418D01*
X020250Y025401D01*
X020130Y025401D01*
X020001Y025272D01*
X020001Y025090D01*
X020130Y024961D01*
X020312Y024961D01*
X020392Y025041D01*
X020930Y025041D01*
X021010Y024961D01*
X021192Y024961D01*
X021321Y025090D01*
X021321Y025230D01*
X021629Y025136D01*
X021972Y025007D01*
X022306Y024856D01*
X022630Y024683D01*
X022942Y024489D01*
X023240Y024275D01*
X023524Y024042D01*
X023792Y023792D01*
X024042Y023524D01*
X024275Y023240D01*
X024489Y022942D01*
X024683Y022630D01*
X024856Y022306D01*
X024874Y022265D01*
X024841Y022232D01*
X024841Y022050D01*
X024970Y021921D01*
X025027Y021921D01*
X025136Y021629D01*
X025243Y021278D01*
X025326Y020920D01*
X025386Y020558D01*
X025422Y020193D01*
X025434Y019826D01*
X025422Y019459D01*
X025386Y019094D01*
X025326Y018732D01*
X025243Y018375D01*
X025136Y018023D01*
X025007Y017680D01*
X024856Y017346D01*
X024683Y017022D01*
X024489Y016711D01*
X024439Y016641D01*
X024330Y016641D01*
X024201Y016512D01*
X024201Y016330D01*
X024205Y016326D01*
X024042Y016129D01*
X023792Y015861D01*
X023524Y015610D01*
X023240Y015377D01*
X022942Y015163D01*
X022630Y014970D01*
X022306Y014797D01*
X021972Y014645D01*
X021629Y014516D01*
X021278Y014409D01*
X020920Y014326D01*
X020558Y014266D01*
X020193Y014230D01*
X019826Y014218D01*
X019459Y014230D01*
X019397Y014236D01*
X019312Y014321D01*
X019130Y014321D01*
X019078Y014269D01*
X018732Y014326D01*
X018375Y014409D01*
X018023Y014516D01*
X017680Y014645D01*
X017346Y014797D01*
X017022Y014970D01*
X016711Y015163D01*
X016412Y015377D01*
X016129Y015610D01*
X015861Y015861D01*
X015610Y016129D01*
X015377Y016412D01*
X015163Y016711D01*
X015121Y016779D01*
X015121Y016952D01*
X014992Y017081D01*
X014945Y017081D01*
X014704Y017549D01*
X014645Y017680D01*
X014516Y018023D01*
X014409Y018375D01*
X014326Y018732D01*
X014266Y019094D01*
X014230Y019459D01*
X014218Y019826D01*
X014230Y020193D01*
X014266Y020558D01*
X014326Y020920D01*
X014409Y021278D01*
X014516Y021629D01*
X014645Y021972D01*
X014797Y022306D01*
X014970Y022630D01*
X015163Y022942D01*
X015279Y023103D01*
X015309Y023145D01*
X015534Y023401D01*
X015632Y023401D01*
X015761Y023530D01*
X015761Y023685D01*
X015861Y023792D01*
X016129Y024042D01*
X016412Y024275D01*
X016711Y024489D01*
X017022Y024683D01*
X017346Y024856D01*
X017680Y025007D01*
X018023Y025136D01*
X018375Y025243D01*
X018732Y025326D01*
X019094Y025386D01*
X019459Y025422D01*
X019826Y025434D01*
X020193Y025422D01*
X020233Y025418D01*
X020250Y025401D01*
X020130Y025401D01*
X020001Y025272D01*
X020001Y025090D01*
X020130Y024961D01*
X020312Y024961D01*
X020392Y025041D01*
X020930Y025041D01*
X021010Y024961D01*
X021192Y024961D01*
X021321Y025090D01*
X021321Y025230D01*
X021629Y025136D01*
X021972Y025007D01*
X022306Y024856D01*
X022630Y024683D01*
X022942Y024489D01*
X023240Y024275D01*
X023524Y024042D01*
X023792Y023792D01*
X024042Y023524D01*
X024275Y023240D01*
X024489Y022942D01*
X024683Y022630D01*
X024856Y022306D01*
X024874Y022265D01*
X024841Y022232D01*
X024841Y022050D01*
X024970Y021921D01*
X025027Y021921D01*
X025136Y021629D01*
X025243Y021278D01*
X025326Y020920D01*
X025386Y020558D01*
X025422Y020193D01*
X025434Y019826D01*
X025422Y019459D01*
X025386Y019094D01*
X025326Y018732D01*
X025243Y018375D01*
X025136Y018023D01*
X025007Y017680D01*
X024856Y017346D01*
X024683Y017022D01*
X024489Y016711D01*
X024439Y016641D01*
X024330Y016641D01*
X024201Y016512D01*
X024201Y016330D01*
X024205Y016326D01*
X024042Y016129D01*
X023792Y015861D01*
X023524Y015610D01*
X023240Y015377D01*
X022942Y015163D01*
X022630Y014970D01*
X022306Y014797D01*
X021972Y014645D01*
X021629Y014516D01*
X021278Y014409D01*
X020920Y014326D01*
X020558Y014266D01*
X020193Y014230D01*
X019826Y014218D01*
X019459Y014230D01*
X019397Y014236D01*
X019312Y014321D01*
X019130Y014321D01*
X019078Y014269D01*
X018732Y014326D01*
X018375Y014409D01*
X018023Y014516D01*
X017680Y014645D01*
X017346Y014797D01*
X017022Y014970D01*
X016711Y015163D01*
X016412Y015377D01*
X016129Y015610D01*
X015861Y015861D01*
X015610Y016129D01*
X015377Y016412D01*
X015163Y016711D01*
X015121Y016779D01*
X015121Y016952D01*
X014992Y017081D01*
X014945Y017081D01*
X014704Y017549D01*
X014645Y017680D01*
X014516Y018023D01*
X014409Y018375D01*
X014326Y018732D01*
X014266Y019094D01*
X014230Y019459D01*
X014218Y019826D01*
X014230Y020193D01*
X014266Y020558D01*
X014326Y020920D01*
X014409Y021278D01*
X014516Y021629D01*
X014645Y021972D01*
X014797Y022306D01*
X014970Y022630D01*
X015163Y022942D01*
X015279Y023103D01*
X015279Y023103D01*
X015309Y023145D01*
X015534Y023401D01*
X015524Y023390D02*
X024152Y023390D01*
X015524Y023390D01*
X015455Y023311D02*
X024217Y023311D01*
X015455Y023311D01*
X015386Y023233D02*
X024280Y023233D01*
X015386Y023233D01*
X015317Y023154D02*
X022603Y023154D01*
X015317Y023154D01*
X015279Y023103D02*
X015279Y023103D01*
X015259Y023076D02*
X022525Y023076D01*
X015259Y023076D01*
X015203Y022997D02*
X022481Y022997D01*
X015203Y022997D01*
X015149Y022919D02*
X022481Y022919D01*
X015149Y022919D01*
X015100Y022840D02*
X022491Y022840D01*
X015100Y022840D01*
X015051Y022762D02*
X022569Y022762D01*
X015051Y022762D01*
X015002Y022683D02*
X024650Y022683D01*
X015002Y022683D01*
X014956Y022604D02*
X024696Y022604D01*
X014956Y022604D01*
X014914Y022526D02*
X024738Y022526D01*
X014914Y022526D01*
X014872Y022447D02*
X024780Y022447D01*
X014872Y022447D01*
X014830Y022369D02*
X024822Y022369D01*
X014830Y022369D01*
X014789Y022290D02*
X024863Y022290D01*
X014789Y022290D01*
X014754Y022212D02*
X024841Y022212D01*
X014754Y022212D01*
X014718Y022133D02*
X024841Y022133D01*
X014718Y022133D01*
X014682Y022055D02*
X024841Y022055D01*
X014682Y022055D01*
X014647Y021976D02*
X024915Y021976D01*
X014647Y021976D01*
X014617Y021898D02*
X025035Y021898D01*
X014617Y021898D01*
X014587Y021819D02*
X025065Y021819D01*
X014587Y021819D01*
X014558Y021741D02*
X025094Y021741D01*
X014558Y021741D01*
X014528Y021662D02*
X025124Y021662D01*
X014528Y021662D01*
X014502Y021583D02*
X025150Y021583D01*
X014502Y021583D01*
X014478Y021505D02*
X025174Y021505D01*
X014478Y021505D01*
X014454Y021426D02*
X025198Y021426D01*
X014454Y021426D01*
X014430Y021348D02*
X025222Y021348D01*
X014430Y021348D01*
X014407Y021269D02*
X025245Y021269D01*
X014407Y021269D01*
X014389Y021191D02*
X025263Y021191D01*
X014389Y021191D01*
X014371Y021112D02*
X025282Y021112D01*
X014371Y021112D01*
X014352Y021034D02*
X025300Y021034D01*
X014352Y021034D01*
X014334Y020955D02*
X022324Y020955D01*
X014334Y020955D01*
X014319Y020877D02*
X022245Y020877D01*
X014319Y020877D01*
X014306Y020798D02*
X022241Y020798D01*
X014306Y020798D01*
X014293Y020719D02*
X022241Y020719D01*
X014293Y020719D01*
X014280Y020641D02*
X022290Y020641D01*
X014280Y020641D01*
X014267Y020562D02*
X022369Y020562D01*
X014267Y020562D01*
X014259Y020484D02*
X025393Y020484D01*
X014259Y020484D01*
X014251Y020405D02*
X025401Y020405D01*
X014251Y020405D01*
X014243Y020327D02*
X025409Y020327D01*
X014243Y020327D01*
X014235Y020248D02*
X025417Y020248D01*
X014235Y020248D01*
X014229Y020170D02*
X025423Y020170D01*
X014229Y020170D01*
X014227Y020091D02*
X025426Y020091D01*
X014227Y020091D01*
X014224Y020013D02*
X025428Y020013D01*
X014224Y020013D01*
X014222Y019934D02*
X025431Y019934D01*
X014222Y019934D01*
X014219Y019855D02*
X025433Y019855D01*
X014219Y019855D01*
X014220Y019777D02*
X020026Y019777D01*
X014220Y019777D01*
X014222Y019698D02*
X019947Y019698D01*
X014222Y019698D01*
X014225Y019620D02*
X019921Y019620D01*
X014225Y019620D01*
X014227Y019541D02*
X019921Y019541D01*
X014227Y019541D01*
X014230Y019463D02*
X019948Y019463D01*
X014230Y019463D01*
X014237Y019384D02*
X020027Y019384D01*
X014237Y019384D01*
X014245Y019306D02*
X025407Y019306D01*
X014245Y019306D01*
X014253Y019227D02*
X025399Y019227D01*
X014253Y019227D01*
X014261Y019149D02*
X025391Y019149D01*
X014261Y019149D01*
X014270Y019070D02*
X025382Y019070D01*
X014270Y019070D01*
X014283Y018991D02*
X025369Y018991D01*
X014283Y018991D01*
X014296Y018913D02*
X025356Y018913D01*
X014296Y018913D01*
X014309Y018834D02*
X025343Y018834D01*
X014309Y018834D01*
X014322Y018756D02*
X025330Y018756D01*
X014322Y018756D01*
X014339Y018677D02*
X025313Y018677D01*
X014339Y018677D01*
X014357Y018599D02*
X025295Y018599D01*
X014357Y018599D01*
X014375Y018520D02*
X025277Y018520D01*
X014375Y018520D01*
X014393Y018442D02*
X025259Y018442D01*
X014393Y018442D01*
X014413Y018363D02*
X025240Y018363D01*
X014413Y018363D01*
X014436Y018285D02*
X025216Y018285D01*
X014436Y018285D01*
X014460Y018206D02*
X025192Y018206D01*
X014460Y018206D01*
X014484Y018128D02*
X025168Y018128D01*
X014484Y018128D01*
X014508Y018049D02*
X025144Y018049D01*
X014508Y018049D01*
X014536Y017970D02*
X025116Y017970D01*
X014536Y017970D01*
X014565Y017892D02*
X025087Y017892D01*
X014565Y017892D01*
X014595Y017813D02*
X025057Y017813D01*
X014595Y017813D01*
X014624Y017735D02*
X025028Y017735D01*
X014624Y017735D01*
X014656Y017656D02*
X024997Y017656D01*
X014656Y017656D01*
X014691Y017578D02*
X024961Y017578D01*
X014691Y017578D01*
X014730Y017499D02*
X024925Y017499D01*
X014730Y017499D01*
X014771Y017421D02*
X024890Y017421D01*
X014771Y017421D01*
X014811Y017342D02*
X024854Y017342D01*
X014811Y017342D01*
X014851Y017264D02*
X024812Y017264D01*
X014851Y017264D01*
X014892Y017185D02*
X024770Y017185D01*
X014892Y017185D01*
X014932Y017106D02*
X024728Y017106D01*
X014932Y017106D01*
X015045Y017028D02*
X024686Y017028D01*
X015045Y017028D01*
X015121Y016949D02*
X024638Y016949D01*
X015121Y016949D01*
X015121Y016871D02*
X024589Y016871D01*
X015121Y016871D01*
X015121Y016792D02*
X024540Y016792D01*
X015121Y016792D01*
X015161Y016714D02*
X024491Y016714D01*
X015161Y016714D01*
X015217Y016635D02*
X024324Y016635D01*
X015217Y016635D01*
X015274Y016557D02*
X024246Y016557D01*
X015274Y016557D01*
X015330Y016478D02*
X024201Y016478D01*
X015330Y016478D01*
X015387Y016400D02*
X024201Y016400D01*
X015387Y016400D01*
X015452Y016321D02*
X024200Y016321D01*
X015452Y016321D01*
X015516Y016242D02*
X024136Y016242D01*
X015516Y016242D01*
X015581Y016164D02*
X024071Y016164D01*
X015581Y016164D01*
X015650Y016085D02*
X024002Y016085D01*
X015650Y016085D01*
X015724Y016007D02*
X023929Y016007D01*
X015724Y016007D01*
X015797Y015928D02*
X023855Y015928D01*
X015797Y015928D01*
X015872Y015850D02*
X023780Y015850D01*
X015872Y015850D01*
X015956Y015771D02*
X023696Y015771D01*
X015956Y015771D01*
X016040Y015693D02*
X023612Y015693D01*
X016040Y015693D01*
X016124Y015614D02*
X023528Y015614D01*
X016124Y015614D01*
X016219Y015536D02*
X023433Y015536D01*
X016219Y015536D01*
X016315Y015457D02*
X023338Y015457D01*
X016315Y015457D01*
X016410Y015379D02*
X023242Y015379D01*
X016410Y015379D01*
X016520Y015300D02*
X023132Y015300D01*
X016520Y015300D01*
X016630Y015221D02*
X023023Y015221D01*
X016630Y015221D01*
X016744Y015143D02*
X022909Y015143D01*
X016744Y015143D01*
X016633Y015047D02*
X016952Y014848D01*
X017284Y014671D01*
X017627Y014516D01*
X017979Y014383D01*
X018338Y014274D01*
X018705Y014189D01*
X019076Y014127D01*
X019278Y014107D01*
X019221Y014101D01*
X019278Y014107D02*
X019450Y014090D01*
X019826Y014078D01*
X020202Y014090D01*
X020577Y014127D01*
X020947Y014189D01*
X021314Y014274D01*
X021674Y014383D01*
X022026Y014516D01*
X022368Y014671D01*
X022700Y014848D01*
X023019Y015047D01*
X023325Y015266D01*
X023616Y015504D01*
X023891Y015762D01*
X024148Y016036D01*
X024386Y016327D01*
X024407Y016356D01*
X024421Y016421D01*
X024407Y016356D02*
X024605Y016633D01*
X024804Y016952D01*
X024981Y017284D01*
X025137Y017627D01*
X025269Y017979D01*
X025379Y018338D01*
X025464Y018705D01*
X025525Y019076D01*
X025562Y019450D01*
X025574Y019826D01*
X025562Y020202D01*
X025525Y020577D01*
X025464Y020947D01*
X025379Y021314D01*
X025269Y021674D01*
X025137Y022026D01*
X025083Y022144D01*
X025061Y022141D01*
X025083Y022144D02*
X024981Y022368D01*
X024804Y022700D01*
X024605Y023019D01*
X024386Y023325D01*
X024148Y023616D01*
X023891Y023891D01*
X023616Y024148D01*
X023325Y024386D01*
X023019Y024605D01*
X022700Y024804D01*
X022368Y024981D01*
X022026Y025137D01*
X021674Y025269D01*
X021314Y025379D01*
X020947Y025464D01*
X020577Y025525D01*
X020401Y025542D01*
X020421Y025541D01*
X020401Y025542D02*
X020202Y025562D01*
X019826Y025574D01*
X019450Y025562D01*
X019076Y025525D01*
X018705Y025464D01*
X018338Y025379D01*
X017979Y025269D01*
X017627Y025137D01*
X017284Y024981D01*
X016952Y024804D01*
X016633Y024605D01*
X016327Y024386D01*
X016036Y024148D01*
X015762Y023891D01*
X015852Y023783D02*
X023800Y023783D01*
X015852Y023783D01*
X015779Y023704D02*
X023874Y023704D01*
X015779Y023704D01*
X015761Y023626D02*
X023947Y023626D01*
X015761Y023626D01*
X015761Y023547D02*
X024021Y023547D01*
X015761Y023547D01*
X015700Y023468D02*
X024088Y023468D01*
X015700Y023468D01*
X015935Y023861D02*
X023717Y023861D01*
X015935Y023861D01*
X016019Y023940D02*
X023633Y023940D01*
X016019Y023940D01*
X016103Y024018D02*
X023549Y024018D01*
X016103Y024018D01*
X016195Y024097D02*
X020239Y024097D01*
X016195Y024097D01*
X016290Y024175D02*
X020161Y024175D01*
X016290Y024175D01*
X016386Y024254D02*
X020154Y024254D01*
X016386Y024254D01*
X016492Y024332D02*
X020154Y024332D01*
X016492Y024332D01*
X016602Y024411D02*
X020200Y024411D01*
X016602Y024411D01*
X016712Y024490D02*
X020278Y024490D01*
X016712Y024490D01*
X016838Y024568D02*
X022814Y024568D01*
X016838Y024568D01*
X016964Y024647D02*
X022688Y024647D01*
X016964Y024647D01*
X017101Y024725D02*
X022551Y024725D01*
X017101Y024725D01*
X017249Y024804D02*
X022404Y024804D01*
X017249Y024804D01*
X017404Y024882D02*
X022248Y024882D01*
X017404Y024882D01*
X017577Y024961D02*
X022075Y024961D01*
X017577Y024961D01*
X017765Y025039D02*
X020052Y025039D01*
X017765Y025039D01*
X017974Y025118D02*
X020001Y025118D01*
X017974Y025118D01*
X018221Y025196D02*
X020001Y025196D01*
X018221Y025196D01*
X018511Y025275D02*
X020004Y025275D01*
X018511Y025275D01*
X018897Y025354D02*
X020082Y025354D01*
X018897Y025354D01*
X019040Y025798D02*
X019432Y025837D01*
X019826Y025850D01*
X020220Y025837D01*
X020612Y025798D01*
X020695Y025785D01*
X020741Y025781D01*
X020695Y025785D02*
X021001Y025734D01*
X021385Y025645D01*
X021762Y025530D01*
X022131Y025391D01*
X022490Y025229D01*
X022838Y025043D01*
X023173Y024834D01*
X023493Y024605D01*
X023798Y024355D01*
X024086Y024086D01*
X024355Y023798D01*
X024605Y023493D01*
X024834Y023173D01*
X025043Y022838D01*
X025229Y022490D01*
X025391Y022131D01*
X025446Y021986D01*
X025421Y021981D01*
X025446Y021986D02*
X025530Y021762D01*
X025645Y021385D01*
X025734Y021001D01*
X025798Y020612D01*
X025837Y020220D01*
X025850Y019826D01*
X025837Y019432D01*
X025798Y019040D01*
X025734Y018651D01*
X025645Y018267D01*
X025530Y017890D01*
X025391Y017521D01*
X025229Y017162D01*
X025043Y016814D01*
X024834Y016480D01*
X024605Y016159D01*
X024490Y016019D01*
X024501Y016021D01*
X024490Y016019D02*
X024355Y015854D01*
X024086Y015567D01*
X023798Y015297D01*
X023493Y015047D01*
X023173Y014818D01*
X022838Y014610D01*
X022490Y014424D01*
X022131Y014261D01*
X021762Y014122D01*
X021385Y014008D01*
X021001Y013918D01*
X020612Y013854D01*
X020220Y013816D01*
X019826Y013803D01*
X019432Y013816D01*
X019040Y013854D01*
X018949Y013869D01*
X018901Y013861D01*
X018949Y013869D02*
X018651Y013918D01*
X018267Y014008D01*
X017890Y014122D01*
X017521Y014261D01*
X017162Y014424D01*
X016814Y014610D01*
X016480Y014818D01*
X016159Y015047D01*
X015854Y015297D01*
X015567Y015567D01*
X015297Y015854D01*
X015047Y016159D01*
X014818Y016480D01*
X014610Y016814D01*
X014424Y017162D01*
X014261Y017521D01*
X014208Y017661D01*
X014501Y017021D01*
X014671Y017284D02*
X014848Y016952D01*
X015047Y016633D01*
X015266Y016327D01*
X015504Y016036D01*
X015762Y015762D01*
X016036Y015504D01*
X016327Y015266D01*
X016633Y015047D01*
X016870Y015064D02*
X022783Y015064D01*
X016870Y015064D01*
X016996Y014986D02*
X022656Y014986D01*
X016996Y014986D01*
X017139Y014907D02*
X022514Y014907D01*
X017139Y014907D01*
X017286Y014829D02*
X022366Y014829D01*
X017286Y014829D01*
X017448Y014750D02*
X022204Y014750D01*
X017448Y014750D01*
X017621Y014672D02*
X022031Y014672D01*
X017621Y014672D01*
X017818Y014593D02*
X021834Y014593D01*
X017818Y014593D01*
X018028Y014515D02*
X021624Y014515D01*
X018028Y014515D01*
X018286Y014436D02*
X021366Y014436D01*
X018286Y014436D01*
X018597Y014357D02*
X021055Y014357D01*
X018597Y014357D01*
X019017Y014279D02*
X019088Y014279D01*
X019017Y014279D01*
X019354Y014279D02*
X020635Y014279D01*
X019354Y014279D01*
X019414Y013540D02*
X019004Y013581D01*
X018597Y013648D01*
X018581Y013661D01*
X018597Y013648D02*
X018196Y013741D01*
X017801Y013861D01*
X017416Y014006D01*
X017040Y014177D01*
X016677Y014371D01*
X016327Y014588D01*
X015991Y014829D01*
X015673Y015090D01*
X015372Y015372D01*
X015090Y015673D01*
X014829Y015991D01*
X014588Y016327D01*
X014371Y016677D01*
X014177Y017040D01*
X014006Y017416D01*
X013861Y017801D01*
X013850Y017837D01*
X013981Y017501D01*
X013829Y017342D02*
X013421Y017342D01*
X013421Y017264D02*
X013922Y017264D01*
X012868Y017264D01*
X012838Y017342D02*
X013829Y017342D01*
X013761Y017421D02*
X013421Y017421D01*
X013421Y017499D02*
X013761Y017499D01*
X012783Y017499D01*
X012801Y017442D02*
X012660Y017906D01*
X012616Y018093D01*
X012684Y018160D01*
X012684Y018342D01*
X012555Y018471D01*
X012534Y018471D01*
X012470Y018858D01*
X012423Y019341D01*
X012407Y019826D01*
X012423Y020311D01*
X012470Y020794D01*
X012550Y021274D01*
X012660Y021746D01*
X012801Y022211D01*
X012777Y022133D02*
X013818Y022133D01*
X013421Y022133D01*
X013421Y022055D02*
X013788Y022055D01*
X012753Y022055D01*
X012730Y021976D02*
X013759Y021976D01*
X013421Y021976D01*
X013421Y021898D02*
X013729Y021898D01*
X012706Y021898D01*
X012682Y021819D02*
X013705Y021819D01*
X013421Y021819D01*
X013421Y021741D02*
X013681Y021741D01*
X012658Y021741D01*
X012640Y021662D02*
X013658Y021662D01*
X013421Y021662D01*
X013421Y021583D02*
X013634Y021583D01*
X012622Y021583D01*
X012604Y021505D02*
X013609Y021505D01*
X013421Y021505D01*
X013421Y021426D02*
X013591Y021426D01*
X012585Y021426D01*
X012567Y021348D02*
X013572Y021348D01*
X013421Y021348D01*
X013421Y021269D02*
X013554Y021269D01*
X012549Y021269D01*
X012536Y021191D02*
X013536Y021191D01*
X013421Y021191D01*
X013421Y021112D02*
X013515Y021112D01*
X012523Y021112D01*
X012510Y021034D02*
X013499Y021034D01*
X013421Y021034D01*
X013498Y021030D02*
X013501Y021026D01*
X013451Y020723D01*
X013447Y020720D01*
X013442Y020666D01*
X013433Y020614D01*
X013436Y020609D01*
X013433Y020614D01*
X013442Y020666D01*
X013447Y020720D01*
X013451Y020723D01*
X013501Y021026D01*
X013498Y021030D01*
X013510Y021082D01*
X013519Y021135D01*
X013523Y021138D01*
X013593Y021437D01*
X013591Y021442D01*
X013606Y021493D01*
X013618Y021545D01*
X013623Y021548D01*
X013712Y021841D01*
X013710Y021846D01*
X013729Y021896D01*
X013744Y021947D01*
X013749Y021950D01*
X013857Y022237D01*
X013855Y022242D01*
X013877Y022290D01*
X012831Y022290D01*
X012860Y022369D02*
X013913Y022369D01*
X013421Y022369D01*
X013421Y022447D02*
X013948Y022447D01*
X012890Y022447D01*
X012919Y022526D02*
X013984Y022526D01*
X013421Y022526D01*
X013421Y022604D02*
X014019Y022604D01*
X012949Y022604D01*
X012980Y022683D02*
X014055Y022683D01*
X013421Y022683D01*
X013421Y022762D02*
X014098Y022762D01*
X013016Y022762D01*
X013051Y022840D02*
X014140Y022840D01*
X013421Y022840D01*
X013421Y022919D02*
X014182Y022919D01*
X013087Y022919D01*
X013122Y022997D02*
X014222Y022997D01*
X013421Y022997D01*
X013421Y023076D02*
X014266Y023076D01*
X013158Y023076D01*
X013197Y023154D02*
X014317Y023154D01*
X013421Y023154D01*
X013421Y023233D02*
X014366Y023233D01*
X013239Y023233D01*
X013281Y023311D02*
X014415Y023311D01*
X013421Y023311D01*
X013421Y023390D02*
X014462Y023390D01*
X013323Y023390D01*
X013365Y023468D02*
X014518Y023468D01*
X013421Y023468D01*
X013421Y023547D02*
X014575Y023547D01*
X013408Y023547D01*
X013457Y023626D02*
X014631Y023626D01*
X013457Y023626D01*
X013506Y023704D02*
X014684Y023704D01*
X013506Y023704D01*
X013555Y023783D02*
X014744Y023783D01*
X013555Y023783D01*
X013604Y023861D02*
X014812Y023861D01*
X013604Y023861D01*
X013652Y023940D02*
X014876Y023940D01*
X013652Y023940D01*
X013708Y024018D02*
X014941Y024018D01*
X013708Y024018D01*
X013764Y024097D02*
X015005Y024097D01*
X013764Y024097D01*
X013821Y024175D02*
X015082Y024175D01*
X013821Y024175D01*
X013877Y024254D02*
X015155Y024254D01*
X013877Y024254D01*
X013933Y024332D02*
X015201Y024332D01*
X013933Y024332D01*
X013997Y024411D02*
X015220Y024411D01*
X013997Y024411D01*
X014061Y024490D02*
X015298Y024490D01*
X014061Y024490D01*
X014126Y024568D02*
X015474Y024568D01*
X014126Y024568D01*
X014190Y024647D02*
X015555Y024647D01*
X014190Y024647D01*
X014255Y024725D02*
X015651Y024725D01*
X014255Y024725D01*
X014329Y024804D02*
X015746Y024804D01*
X014329Y024804D01*
X014403Y024882D02*
X015842Y024882D01*
X014403Y024882D01*
X014476Y024961D02*
X015938Y024961D01*
X014476Y024961D01*
X014550Y025039D02*
X016052Y025039D01*
X014550Y025039D01*
X014629Y025118D02*
X016162Y025118D01*
X014629Y025118D01*
X014713Y025196D02*
X016271Y025196D01*
X014713Y025196D01*
X014906Y025275D02*
X016401Y025275D01*
X014906Y025275D01*
X014961Y025354D02*
X016528Y025354D01*
X014961Y025354D01*
X014969Y025432D02*
X016662Y025432D01*
X016808Y025511D02*
X015065Y025511D01*
X015160Y025589D02*
X016951Y025589D01*
X017124Y025668D02*
X015256Y025668D01*
X015358Y025746D02*
X017298Y025746D01*
X017494Y025825D02*
X015467Y025825D01*
X015577Y025903D02*
X017702Y025903D01*
X017948Y025982D02*
X015686Y025982D01*
X015810Y026060D02*
X018207Y026060D01*
X018213Y026060D02*
X018221Y026060D01*
X018552Y026139D02*
X015936Y026139D01*
X015771Y026850D02*
X015320Y026569D01*
X014889Y026260D01*
X014749Y026145D01*
X014741Y026141D01*
X014749Y026145D02*
X014479Y025924D01*
X014091Y025561D01*
X013729Y025174D01*
X013392Y024763D01*
X013083Y024332D01*
X012803Y023881D01*
X012552Y023413D01*
X012333Y022930D01*
X012146Y022433D01*
X011992Y021925D01*
X011872Y021408D01*
X011785Y020885D01*
X011733Y020356D01*
X011716Y019826D01*
X011733Y019296D01*
X011785Y018767D01*
X011794Y018717D01*
X011795Y018724D01*
X011794Y018717D02*
X011872Y018244D01*
X011992Y017727D01*
X012146Y017219D01*
X012333Y016723D01*
X012552Y016239D01*
X012803Y015771D01*
X013083Y015320D01*
X013392Y014889D01*
X013729Y014479D01*
X014091Y014091D01*
X014479Y013729D01*
X014889Y013392D01*
X015320Y013083D01*
X015716Y013651D02*
X018013Y013651D01*
X018105Y013623D02*
X018108Y013618D01*
X018160Y013606D01*
X018211Y013591D01*
X018215Y013593D01*
X018375Y013556D01*
X018490Y013441D01*
X018672Y013441D01*
X018717Y013486D01*
X018929Y013451D01*
X018933Y013447D01*
X018986Y013442D01*
X019039Y013433D01*
X019043Y013436D01*
X019348Y013406D01*
X019352Y013402D01*
X019405Y013401D01*
X019458Y013395D01*
X019462Y013399D01*
X019769Y013389D01*
X019773Y013385D01*
X019826Y013387D01*
X019880Y013385D01*
X019883Y013389D01*
X020190Y013399D01*
X020194Y013395D01*
X020247Y013401D01*
X020300Y013402D01*
X020304Y013406D01*
X020609Y013436D01*
X020614Y013433D01*
X020666Y013442D01*
X020720Y013447D01*
X020723Y013451D01*
X021026Y013501D01*
X021030Y013498D01*
X021082Y013510D01*
X021135Y013519D01*
X021138Y013523D01*
X021437Y013593D01*
X021442Y013591D01*
X021493Y013606D01*
X021545Y013618D01*
X021547Y013623D01*
X021841Y013712D01*
X021846Y013710D01*
X021896Y013729D01*
X021947Y013744D01*
X021950Y013749D01*
X022237Y013857D01*
X022242Y013855D01*
X022290Y013877D01*
X022340Y013896D01*
X022343Y013901D01*
X022622Y014027D01*
X022627Y014026D01*
X022674Y014051D01*
X022723Y014073D01*
X022725Y014078D01*
X022995Y014223D01*
X023000Y014221D01*
X023046Y014250D01*
X023093Y014275D01*
X023094Y014280D01*
X023355Y014442D01*
X023360Y014441D01*
X023404Y014472D01*
X023449Y014500D01*
X023450Y014505D01*
X023699Y014684D01*
X023705Y014684D01*
X023746Y014718D01*
X023789Y014749D01*
X023790Y014754D01*
X024028Y014949D01*
X024033Y014948D01*
X024072Y014985D01*
X024113Y015019D01*
X024114Y015024D01*
X024338Y015234D01*
X024343Y015234D01*
X024379Y015273D01*
X024418Y015309D01*
X024419Y015315D01*
X024537Y015441D01*
X024632Y015441D01*
X024761Y015570D01*
X024761Y015695D01*
X024899Y015862D01*
X024904Y015863D01*
X024935Y015906D01*
X024969Y015947D01*
X024968Y015953D01*
X025147Y016202D01*
X025152Y016203D01*
X025180Y016249D01*
X025211Y016292D01*
X025211Y016297D01*
X025372Y016558D01*
X025377Y016559D01*
X025402Y016606D01*
X025431Y016652D01*
X025430Y016657D01*
X025574Y016927D01*
X025579Y016929D01*
X025601Y016978D01*
X025626Y017025D01*
X025625Y017030D01*
X025752Y017310D01*
X025756Y017312D01*
X025775Y017362D01*
X025797Y017411D01*
X025795Y017416D01*
X025904Y017703D01*
X025908Y017705D01*
X025924Y017756D01*
X025943Y017806D01*
X025940Y017811D01*
X026029Y018105D01*
X026034Y018108D01*
X026046Y018160D01*
X026062Y018211D01*
X026059Y018215D01*
X026129Y018514D01*
X026133Y018517D01*
X026142Y018570D01*
X026154Y018622D01*
X026151Y018627D01*
X026201Y018929D01*
X026205Y018933D01*
X026210Y018986D01*
X026219Y019039D01*
X026216Y019043D01*
X026246Y019348D01*
X026250Y019352D01*
X026252Y019405D01*
X026257Y019458D01*
X026254Y019462D01*
X026264Y019769D01*
X026267Y019773D01*
X026265Y019826D01*
X026267Y019880D01*
X026264Y019883D01*
X026254Y020190D01*
X026257Y020194D01*
X026252Y020247D01*
X026250Y020300D01*
X026246Y020304D01*
X026216Y020609D01*
X026219Y020614D01*
X026210Y020666D01*
X026205Y020720D01*
X026201Y020723D01*
X026151Y021026D01*
X026154Y021030D01*
X026142Y021082D01*
X026133Y021135D01*
X026129Y021138D01*
X026137Y021112D02*
X026141Y021112D01*
X026137Y021112D02*
X027129Y021112D01*
X027142Y021034D02*
X026153Y021034D01*
X026163Y020955D02*
X027155Y020955D01*
X027168Y020877D02*
X026176Y020877D01*
X026189Y020798D02*
X027181Y020798D01*
X027189Y020719D02*
X026205Y020719D01*
X026214Y020641D02*
X027197Y020641D01*
X027205Y020562D02*
X026221Y020562D01*
X026228Y020484D02*
X027212Y020484D01*
X027220Y020405D02*
X026236Y020405D01*
X026244Y020327D02*
X027228Y020327D01*
X027231Y020248D02*
X026252Y020248D01*
X026254Y020170D02*
X027234Y020170D01*
X027236Y020091D02*
X026257Y020091D01*
X026259Y020013D02*
X027239Y020013D01*
X027242Y019934D02*
X026262Y019934D01*
X026266Y019855D02*
X027244Y019855D01*
X027244Y019777D02*
X026267Y019777D01*
X026261Y019698D02*
X027241Y019698D01*
X027238Y019620D02*
X026259Y019620D01*
X026256Y019541D02*
X027236Y019541D01*
X027233Y019463D02*
X026254Y019463D01*
X026251Y019384D02*
X027231Y019384D01*
X027226Y019306D02*
X026242Y019306D01*
X026234Y019227D02*
X027218Y019227D01*
X027210Y019149D02*
X026226Y019149D01*
X026219Y019070D02*
X027203Y019070D01*
X027195Y018991D02*
X026211Y018991D01*
X026198Y018913D02*
X027187Y018913D01*
X027178Y018834D02*
X026185Y018834D01*
X026172Y018756D02*
X027165Y018756D01*
X027152Y018677D02*
X026159Y018677D01*
X026149Y018599D02*
X027139Y018599D01*
X027126Y018520D02*
X026134Y018520D01*
X026141Y018520D01*
X026141Y018442D02*
X026112Y018442D01*
X027113Y018442D01*
X027099Y018363D02*
X026094Y018363D01*
X026141Y018363D01*
X026141Y018285D02*
X026075Y018285D01*
X027081Y018285D01*
X027062Y018206D02*
X026060Y018206D01*
X026141Y018206D01*
X026141Y018128D02*
X026039Y018128D01*
X027044Y018128D01*
X027026Y018049D02*
X026012Y018049D01*
X026141Y018049D01*
X026141Y017970D02*
X025989Y017970D01*
X027007Y017970D01*
X026988Y017892D02*
X025965Y017892D01*
X026141Y017892D01*
X026141Y017813D02*
X025941Y017813D01*
X026964Y017813D01*
X026941Y017735D02*
X025917Y017735D01*
X026141Y017735D01*
X026141Y017656D02*
X025886Y017656D01*
X026917Y017656D01*
X026893Y017578D02*
X025856Y017578D01*
X026141Y017578D01*
X026141Y017499D02*
X025827Y017499D01*
X026869Y017499D01*
X026844Y017421D02*
X025797Y017421D01*
X026141Y017421D01*
X026141Y017342D02*
X025768Y017342D01*
X026814Y017342D01*
X026784Y017264D02*
X025731Y017264D01*
X026141Y017264D01*
X026141Y017185D02*
X025695Y017185D01*
X026755Y017185D01*
X026725Y017106D02*
X025659Y017106D01*
X026141Y017106D01*
X026141Y017028D02*
X025626Y017028D01*
X026696Y017028D01*
X026663Y016949D02*
X025588Y016949D01*
X026141Y016949D01*
X026141Y016871D02*
X025544Y016871D01*
X026628Y016871D01*
X026592Y016792D02*
X025502Y016792D01*
X026141Y016792D01*
X026141Y016714D02*
X025460Y016714D01*
X026557Y016714D01*
X026521Y016635D02*
X025420Y016635D01*
X026141Y016635D01*
X026141Y016557D02*
X025372Y016557D01*
X026485Y016557D01*
X026444Y016478D02*
X025323Y016478D01*
X026141Y016478D01*
X026141Y016400D02*
X025274Y016400D01*
X026402Y016400D01*
X026361Y016321D02*
X025225Y016321D01*
X026141Y016321D01*
X026141Y016242D02*
X025176Y016242D01*
X026319Y016242D01*
X026277Y016164D02*
X025120Y016164D01*
X026141Y016164D01*
X026141Y016085D02*
X025063Y016085D01*
X026232Y016085D01*
X026183Y016007D02*
X025007Y016007D01*
X026141Y016007D01*
X026134Y015928D02*
X024953Y015928D01*
X026134Y015928D01*
X026085Y015850D02*
X024888Y015850D01*
X026085Y015850D01*
X026036Y015771D02*
X024824Y015771D01*
X026036Y015771D01*
X025986Y015693D02*
X024761Y015693D01*
X025986Y015693D01*
X025930Y015614D02*
X024761Y015614D01*
X025930Y015614D01*
X025874Y015536D02*
X024727Y015536D01*
X025874Y015536D01*
X025817Y015457D02*
X024648Y015457D01*
X025817Y015457D01*
X025761Y015379D02*
X024478Y015379D01*
X025761Y015379D01*
X025704Y015300D02*
X024409Y015300D01*
X025704Y015300D01*
X025639Y015221D02*
X024325Y015221D01*
X025639Y015221D01*
X025575Y015143D02*
X024241Y015143D01*
X025575Y015143D01*
X025510Y015064D02*
X024157Y015064D01*
X025510Y015064D01*
X025446Y014986D02*
X024073Y014986D01*
X025446Y014986D01*
X025378Y014907D02*
X023977Y014907D01*
X025378Y014907D01*
X025305Y014829D02*
X023882Y014829D01*
X025305Y014829D01*
X025231Y014750D02*
X023790Y014750D01*
X025231Y014750D01*
X025158Y014672D02*
X023682Y014672D01*
X025158Y014672D01*
X025084Y014593D02*
X023573Y014593D01*
X025084Y014593D01*
X025002Y014515D02*
X023463Y014515D01*
X025002Y014515D01*
X024805Y014436D02*
X023346Y014436D01*
X024805Y014436D01*
X024726Y014357D02*
X023219Y014357D01*
X024726Y014357D01*
X024681Y014279D02*
X023094Y014279D01*
X024681Y014279D01*
X024659Y014200D02*
X022953Y014200D01*
X024659Y014200D01*
X024564Y014122D02*
X022807Y014122D01*
X024564Y014122D01*
X024468Y014043D02*
X022660Y014043D01*
X024468Y014043D01*
X024372Y013965D02*
X022484Y013965D01*
X022315Y013886D02*
X024267Y013886D01*
X024157Y013808D02*
X022106Y013808D01*
X021898Y013729D02*
X024048Y013729D01*
X023937Y013651D02*
X021639Y013651D01*
X021456Y013741D02*
X021851Y013861D01*
X022237Y014006D01*
X022612Y014177D01*
X022976Y014371D01*
X023326Y014588D01*
X023661Y014829D01*
X023980Y015090D01*
X024280Y015372D01*
X024562Y015673D01*
X024541Y015661D01*
X024562Y015673D02*
X024824Y015991D01*
X025064Y016327D01*
X025281Y016677D01*
X025476Y017040D01*
X025646Y017416D01*
X025791Y017801D01*
X025911Y018196D01*
X026004Y018597D01*
X026071Y019004D01*
X026112Y019414D01*
X026125Y019826D01*
X026112Y020238D01*
X026071Y020648D01*
X026004Y021055D01*
X025911Y021456D01*
X025791Y021851D01*
X025781Y021821D01*
X025791Y021851D02*
X025646Y022237D01*
X025476Y022612D01*
X025281Y022976D01*
X025064Y023326D01*
X024824Y023661D01*
X024562Y023980D01*
X024280Y024280D01*
X023980Y024562D01*
X023661Y024824D01*
X023326Y025064D01*
X022976Y025281D01*
X022844Y025511D02*
X024588Y025511D01*
X024492Y025589D02*
X022701Y025589D01*
X022528Y025668D02*
X024396Y025668D01*
X024294Y025746D02*
X022354Y025746D01*
X022159Y025825D02*
X024185Y025825D01*
X024075Y025903D02*
X021950Y025903D01*
X021704Y025982D02*
X023966Y025982D01*
X023842Y026060D02*
X021445Y026060D01*
X021439Y026060D02*
X021431Y026060D01*
X021254Y026139D02*
X023716Y026139D01*
X023590Y026217D02*
X021176Y026217D01*
X020946Y026217D02*
X020623Y026217D01*
X020612Y026217D02*
X020593Y026217D01*
X020926Y027160D02*
X018726Y027160D01*
X018288Y027081D02*
X021364Y027081D01*
X021701Y027003D02*
X017951Y027003D01*
X017682Y026924D02*
X021927Y026924D01*
X022005Y026846D02*
X017426Y026846D01*
X017218Y026767D02*
X022434Y026767D01*
X022643Y026689D02*
X017009Y026689D01*
X016832Y026610D02*
X022820Y026610D01*
X022994Y026532D02*
X016659Y026532D01*
X016239Y027100D02*
X015771Y026850D01*
X016239Y027100D02*
X016723Y027319D01*
X017219Y027506D01*
X017727Y027660D01*
X018244Y027780D01*
X018767Y027867D01*
X019296Y027919D01*
X019826Y027936D01*
X020356Y027919D01*
X020885Y027867D01*
X021408Y027780D01*
X021925Y027660D01*
X022433Y027506D01*
X022831Y027356D01*
X023261Y028119D02*
X023581Y028381D01*
X023662Y028652D02*
X023839Y028652D01*
X023836Y028574D02*
X024008Y028574D01*
X024050Y028574D02*
X025615Y028574D01*
X025660Y028652D02*
X024165Y028652D01*
X024211Y028731D02*
X025705Y028731D01*
X025750Y028809D02*
X024256Y028809D01*
X024302Y028888D02*
X025795Y028888D01*
X025840Y028966D02*
X024348Y028966D01*
X024394Y029045D02*
X025885Y029045D01*
X025930Y029124D02*
X024439Y029124D01*
X024485Y029202D02*
X025975Y029202D01*
X026020Y029281D02*
X024531Y029281D01*
X024577Y029359D02*
X026065Y029359D01*
X026110Y029438D02*
X024622Y029438D01*
X024668Y029516D02*
X026155Y029516D01*
X026200Y029595D02*
X024714Y029595D01*
X024760Y029673D02*
X026245Y029673D01*
X026290Y029752D02*
X024805Y029752D01*
X024851Y029830D02*
X026335Y029830D01*
X026380Y029909D02*
X024897Y029909D01*
X024943Y029988D02*
X026425Y029988D01*
X026470Y030066D02*
X024988Y030066D01*
X025034Y030145D02*
X026515Y030145D01*
X026560Y030223D02*
X025080Y030223D01*
X025126Y030302D02*
X026605Y030302D01*
X026650Y030380D02*
X025171Y030380D01*
X025217Y030459D02*
X026695Y030459D01*
X026739Y030537D02*
X025263Y030537D01*
X025309Y030616D02*
X026784Y030616D01*
X026829Y030694D02*
X025354Y030694D01*
X025400Y030773D02*
X026874Y030773D01*
X026919Y030852D02*
X025446Y030852D01*
X025492Y030930D02*
X026964Y030930D01*
X027009Y031009D02*
X025537Y031009D01*
X025583Y031087D02*
X027054Y031087D01*
X027099Y031166D02*
X025629Y031166D01*
X025675Y031244D02*
X027144Y031244D01*
X027189Y031323D02*
X025720Y031323D01*
X025766Y031401D02*
X027234Y031401D01*
X027279Y031480D02*
X025812Y031480D01*
X025858Y031558D02*
X027324Y031558D01*
X027369Y031637D02*
X025903Y031637D01*
X025949Y031716D02*
X027414Y031716D01*
X027459Y031794D02*
X025995Y031794D01*
X026041Y031873D02*
X027504Y031873D01*
X027549Y031951D02*
X026086Y031951D01*
X026132Y032030D02*
X027594Y032030D01*
X027639Y032108D02*
X026178Y032108D01*
X026224Y032187D02*
X029010Y032187D01*
X029229Y032265D02*
X026269Y032265D01*
X026315Y032344D02*
X029389Y032344D01*
X029549Y032422D02*
X026361Y032422D01*
X026407Y032501D02*
X029671Y032501D01*
X029768Y032579D02*
X026453Y032579D01*
X026498Y032658D02*
X029864Y032658D01*
X029961Y032737D02*
X026544Y032737D01*
X026548Y032815D02*
X030050Y032815D01*
X030111Y032894D02*
X026494Y032894D01*
X026432Y032972D02*
X030173Y032972D01*
X030234Y033051D02*
X026369Y033051D01*
X026316Y033129D02*
X030295Y033129D01*
X030356Y033208D02*
X026272Y033208D01*
X026229Y033286D02*
X030400Y033286D01*
X030436Y033365D02*
X026186Y033365D01*
X026142Y033443D02*
X030473Y033443D01*
X030509Y033522D02*
X026099Y033522D01*
X026064Y033601D02*
X030546Y033601D01*
X030582Y033679D02*
X026042Y033679D01*
X026019Y033758D02*
X030611Y033758D01*
X030628Y033836D02*
X025997Y033836D01*
X025974Y033915D02*
X030644Y033915D01*
X030661Y033993D02*
X025952Y033993D01*
X025929Y034072D02*
X030677Y034072D01*
X030694Y034150D02*
X025920Y034150D01*
X025916Y034229D02*
X030710Y034229D01*
X030717Y034307D02*
X025912Y034307D01*
X025908Y034386D02*
X030715Y034386D01*
X030714Y034465D02*
X025904Y034465D01*
X025900Y034543D02*
X030712Y034543D01*
X030711Y034622D02*
X025896Y034622D01*
X025905Y034700D02*
X030709Y034700D01*
X030708Y034779D02*
X025919Y034779D01*
X025933Y034857D02*
X030695Y034857D01*
X030676Y034936D02*
X025947Y034936D01*
X025961Y035014D02*
X030656Y035014D01*
X030636Y035093D02*
X025975Y035093D01*
X025989Y035171D02*
X030617Y035171D01*
X030597Y035250D02*
X026020Y035250D01*
X026053Y035329D02*
X030577Y035329D01*
X030541Y035407D02*
X026087Y035407D01*
X026120Y035486D02*
X030500Y035486D01*
X030460Y035564D02*
X026154Y035564D01*
X026187Y035643D02*
X030420Y035643D01*
X030380Y035721D02*
X026232Y035721D01*
X026289Y035800D02*
X030340Y035800D01*
X030283Y035878D02*
X026346Y035878D01*
X026403Y035957D02*
X030217Y035957D01*
X030151Y036035D02*
X026460Y036035D01*
X026517Y036114D02*
X030085Y036114D01*
X030019Y036192D02*
X026602Y036192D01*
X026693Y036271D02*
X029942Y036271D01*
X029837Y036350D02*
X026783Y036350D01*
X026874Y036428D02*
X029733Y036428D01*
X029629Y036507D02*
X026979Y036507D01*
X027127Y036585D02*
X029516Y036585D01*
X028923Y036821D02*
X027716Y036821D01*
X028390Y036899D02*
X028518Y036899D01*
X028673Y032108D02*
X027917Y032108D01*
X025570Y028495D02*
X024021Y028495D01*
X023989Y028512D02*
X023967Y028514D01*
X023628Y028668D01*
X023612Y028683D01*
X023510Y028721D01*
X023412Y028766D01*
X023390Y028766D01*
X023042Y028898D01*
X023024Y028912D01*
X022921Y028943D01*
X022820Y028981D01*
X022798Y028980D01*
X022441Y029089D01*
X022423Y029101D01*
X022318Y029126D01*
X022214Y029157D01*
X022193Y029155D01*
X021830Y029240D01*
X021811Y029251D01*
X021705Y029269D01*
X021599Y029294D01*
X021577Y029290D01*
X021210Y029351D01*
X021190Y029361D01*
X021083Y029372D01*
X020976Y029389D01*
X020955Y029384D01*
X020584Y029421D01*
X020564Y029430D01*
X020456Y029433D01*
X020348Y029444D01*
X020327Y029438D01*
X019955Y029450D01*
X019934Y029458D01*
X019826Y029454D01*
X019718Y029458D01*
X019697Y029450D01*
X019325Y029438D01*
X019331Y029438D01*
X019325Y029438D02*
X019304Y029444D01*
X019196Y029433D01*
X019088Y029430D01*
X019068Y029421D01*
X018698Y029384D01*
X018676Y029389D01*
X018570Y029372D01*
X018462Y029361D01*
X018442Y029351D01*
X018075Y029290D01*
X018053Y029294D01*
X017948Y029269D01*
X017841Y029251D01*
X017822Y029240D01*
X017460Y029155D01*
X017438Y029157D01*
X017334Y029126D01*
X017229Y029101D01*
X017211Y029089D01*
X016854Y028980D01*
X016832Y028981D01*
X016731Y028943D01*
X016628Y028912D01*
X016611Y028898D01*
X016262Y028766D01*
X016241Y028766D01*
X016142Y028721D01*
X016040Y028683D01*
X016024Y028668D01*
X015685Y028514D01*
X015663Y028512D01*
X015568Y028461D01*
X015470Y028417D01*
X015454Y028400D01*
X015126Y028225D01*
X015104Y028221D01*
X015012Y028164D01*
X014917Y028113D01*
X014903Y028096D01*
X014587Y027900D01*
X014565Y027895D01*
X014477Y027831D01*
X014386Y027775D01*
X014373Y027757D01*
X014070Y027539D01*
X014049Y027533D01*
X013965Y027464D01*
X013877Y027401D01*
X013865Y027382D01*
X013578Y027146D01*
X013557Y027139D01*
X013478Y027065D01*
X013394Y026996D01*
X013384Y026977D01*
X013112Y026722D01*
X013092Y026713D01*
X013052Y026767D02*
X013161Y026767D01*
X013141Y026846D02*
X013244Y026846D01*
X013229Y026924D02*
X013328Y026924D01*
X013318Y027003D02*
X013403Y027003D01*
X013407Y027081D02*
X013496Y027081D01*
X013495Y027160D02*
X013594Y027160D01*
X013584Y027239D02*
X013690Y027239D01*
X013673Y027317D02*
X013786Y027317D01*
X013761Y027396D02*
X013873Y027396D01*
X013851Y027474D02*
X013977Y027474D01*
X013958Y027553D02*
X014088Y027553D01*
X014065Y027631D02*
X014198Y027631D01*
X014172Y027710D02*
X014307Y027710D01*
X014279Y027788D02*
X014408Y027788D01*
X014370Y027867D02*
X014526Y027867D01*
X014660Y027945D02*
X014388Y027945D01*
X014352Y028024D02*
X014787Y028024D01*
X014908Y028103D02*
X014307Y028103D01*
X014262Y028181D02*
X015040Y028181D01*
X015191Y028260D02*
X014218Y028260D01*
X014173Y028338D02*
X015338Y028338D01*
X015470Y028417D02*
X014128Y028417D01*
X014083Y028495D02*
X015631Y028495D01*
X015644Y028574D02*
X015817Y028574D01*
X015813Y028652D02*
X015990Y028652D01*
X015994Y028731D02*
X016164Y028731D01*
X016175Y028809D02*
X016377Y028809D01*
X016401Y028888D02*
X016585Y028888D01*
X016639Y028966D02*
X016793Y028966D01*
X016877Y029045D02*
X017068Y029045D01*
X017115Y029124D02*
X017324Y029124D01*
X017373Y029202D02*
X017661Y029202D01*
X017764Y029281D02*
X017998Y029281D01*
X018156Y029359D02*
X018458Y029359D01*
X018615Y029438D02*
X019241Y029438D01*
X019133Y029516D02*
X020519Y029516D01*
X020465Y029595D02*
X019187Y029595D01*
X019184Y029673D02*
X020469Y029673D01*
X020469Y029752D02*
X019184Y029752D01*
X019184Y029830D02*
X020469Y029830D01*
X020469Y029909D02*
X019184Y029909D01*
X019184Y029988D02*
X020469Y029988D01*
X020469Y030066D02*
X019184Y030066D01*
X019184Y030145D02*
X020469Y030145D01*
X020469Y030223D02*
X019184Y030223D01*
X019184Y030302D02*
X020469Y030302D01*
X020469Y030380D02*
X019184Y030380D01*
X019184Y030459D02*
X020469Y030459D01*
X020469Y030537D02*
X019184Y030537D01*
X019184Y030616D02*
X020469Y030616D01*
X020469Y030694D02*
X019184Y030694D01*
X019184Y030773D02*
X020469Y030773D01*
X020469Y030852D02*
X019184Y030852D01*
X019184Y030930D02*
X020469Y030930D01*
X020469Y031009D02*
X019184Y031009D01*
X019184Y031087D02*
X020469Y031087D01*
X020469Y031166D02*
X019184Y031166D01*
X019184Y031244D02*
X020469Y031244D01*
X020469Y031323D02*
X019184Y031323D01*
X019184Y031401D02*
X020469Y031401D01*
X020469Y031480D02*
X019184Y031480D01*
X019184Y031558D02*
X020469Y031558D01*
X020469Y031637D02*
X019184Y031637D01*
X019184Y031716D02*
X020469Y031716D01*
X020469Y031794D02*
X019184Y031794D01*
X019184Y031873D02*
X020469Y031873D01*
X020469Y031951D02*
X019184Y031951D01*
X019184Y032030D02*
X020469Y032030D01*
X020469Y032108D02*
X019184Y032108D01*
X019184Y032187D02*
X020469Y032187D01*
X020469Y032265D02*
X019184Y032265D01*
X019184Y032344D02*
X020469Y032344D01*
X020469Y032422D02*
X019184Y032422D01*
X019184Y032501D02*
X020469Y032501D01*
X020469Y032579D02*
X019184Y032579D01*
X019184Y032658D02*
X020469Y032658D01*
X020469Y032737D02*
X019184Y032737D01*
X019184Y032815D02*
X020469Y032815D01*
X020469Y032894D02*
X019184Y032894D01*
X019184Y032972D02*
X020469Y032972D01*
X020469Y033051D02*
X019184Y033051D01*
X019184Y033129D02*
X020469Y033129D01*
X020469Y033208D02*
X019184Y033208D01*
X019184Y033286D02*
X020469Y033286D01*
X020469Y033365D02*
X019184Y033365D01*
X019184Y033443D02*
X020469Y033443D01*
X020469Y033522D02*
X019184Y033522D01*
X019184Y033601D02*
X020469Y033601D01*
X020469Y033679D02*
X019184Y033679D01*
X019184Y033758D02*
X020469Y033758D01*
X020469Y033836D02*
X019184Y033836D01*
X019184Y033915D02*
X020469Y033915D01*
X020469Y033993D02*
X019184Y033993D01*
X019184Y034072D02*
X020469Y034072D01*
X020469Y034150D02*
X019184Y034150D01*
X019184Y034229D02*
X020469Y034229D01*
X020463Y034307D02*
X019189Y034307D01*
X019172Y034386D02*
X020480Y034386D01*
X020601Y034465D02*
X019051Y034465D01*
X018848Y034543D02*
X020804Y034543D01*
X020943Y034622D02*
X018710Y034622D01*
X018578Y034700D02*
X021074Y034700D01*
X021206Y034779D02*
X018447Y034779D01*
X018332Y034857D02*
X021321Y034857D01*
X021403Y034936D02*
X018250Y034936D01*
X018168Y035014D02*
X021484Y035014D01*
X021566Y035093D02*
X018086Y035093D01*
X018004Y035171D02*
X021648Y035171D01*
X021714Y035250D02*
X017938Y035250D01*
X017886Y035329D02*
X021766Y035329D01*
X021817Y035407D02*
X017835Y035407D01*
X017784Y035486D02*
X021869Y035486D01*
X021920Y035564D02*
X017732Y035564D01*
X017681Y035643D02*
X021972Y035643D01*
X022007Y035721D02*
X017645Y035721D01*
X017616Y035800D02*
X022036Y035800D01*
X022065Y035878D02*
X017587Y035878D01*
X017558Y035957D02*
X022094Y035957D01*
X022123Y036035D02*
X017529Y036035D01*
X017500Y036114D02*
X022152Y036114D01*
X022178Y036192D02*
X017474Y036192D01*
X017464Y036271D02*
X022188Y036271D01*
X022198Y036350D02*
X017454Y036350D01*
X017444Y036428D02*
X022208Y036428D01*
X022218Y036507D02*
X017434Y036507D01*
X017424Y036585D02*
X022228Y036585D01*
X022238Y036664D02*
X017414Y036664D01*
X017409Y036742D02*
X022244Y036742D01*
X022236Y036821D02*
X017416Y036821D01*
X017424Y036899D02*
X022228Y036899D01*
X022220Y036978D02*
X017432Y036978D01*
X017440Y037056D02*
X022212Y037056D01*
X022204Y037135D02*
X017448Y037135D01*
X017456Y037214D02*
X022197Y037214D01*
X022183Y037292D02*
X017470Y037292D01*
X017496Y037371D02*
X022156Y037371D01*
X022129Y037449D02*
X017523Y037449D01*
X017549Y037528D02*
X022103Y037528D01*
X022076Y037606D02*
X017576Y037606D01*
X017602Y037685D02*
X022050Y037685D01*
X022023Y037763D02*
X017629Y037763D01*
X017672Y037842D02*
X021981Y037842D01*
X021932Y037920D02*
X017720Y037920D01*
X017768Y037999D02*
X021884Y037999D01*
X021835Y038078D02*
X017817Y038078D01*
X017865Y038156D02*
X021787Y038156D01*
X021739Y038235D02*
X017914Y038235D01*
X017986Y038313D02*
X021667Y038313D01*
X021589Y038392D02*
X018063Y038392D01*
X018141Y038470D02*
X021512Y038470D01*
X021434Y038549D02*
X018218Y038549D01*
X018295Y038627D02*
X021357Y038627D01*
X021239Y038706D02*
X018413Y038706D01*
X018536Y038784D02*
X021116Y038784D01*
X020992Y038863D02*
X018660Y038863D01*
X018796Y038941D02*
X020856Y038941D01*
X020633Y039020D02*
X019019Y039020D01*
X019241Y039099D02*
X020411Y039099D01*
X013499Y035564D02*
X009192Y035564D01*
X009152Y035486D02*
X013532Y035486D01*
X013566Y035407D02*
X009112Y035407D01*
X009075Y035329D02*
X013599Y035329D01*
X013632Y035250D02*
X009055Y035250D01*
X009035Y035171D02*
X013664Y035171D01*
X013677Y035093D02*
X009016Y035093D01*
X008996Y035014D02*
X013691Y035014D01*
X013705Y034936D02*
X008976Y034936D01*
X008957Y034857D02*
X013719Y034857D01*
X013733Y034779D02*
X008944Y034779D01*
X008943Y034700D02*
X013747Y034700D01*
X013756Y034622D02*
X008941Y034622D01*
X008940Y034543D02*
X013752Y034543D01*
X013748Y034465D02*
X008938Y034465D01*
X008937Y034386D02*
X013744Y034386D01*
X013740Y034307D02*
X008936Y034307D01*
X008942Y034229D02*
X013736Y034229D01*
X013732Y034150D02*
X008959Y034150D01*
X008975Y034072D02*
X013723Y034072D01*
X013700Y033993D02*
X008992Y033993D01*
X009008Y033915D02*
X013678Y033915D01*
X013656Y033836D02*
X009025Y033836D01*
X009041Y033758D02*
X013633Y033758D01*
X013611Y033679D02*
X009070Y033679D01*
X009107Y033601D02*
X013588Y033601D01*
X013553Y033522D02*
X009143Y033522D01*
X009180Y033443D02*
X013510Y033443D01*
X013467Y033365D02*
X009216Y033365D01*
X009252Y033286D02*
X013423Y033286D01*
X013380Y033208D02*
X009296Y033208D01*
X009357Y033129D02*
X013336Y033129D01*
X013283Y033051D02*
X009419Y033051D01*
X009480Y032972D02*
X013221Y032972D01*
X013158Y032894D02*
X009541Y032894D01*
X009602Y032815D02*
X013104Y032815D01*
X013108Y032737D02*
X009691Y032737D01*
X009788Y032658D02*
X013154Y032658D01*
X013200Y032579D02*
X009885Y032579D01*
X009981Y032501D02*
X013245Y032501D01*
X013291Y032422D02*
X010103Y032422D01*
X010263Y032344D02*
X013337Y032344D01*
X013383Y032265D02*
X010424Y032265D01*
X010643Y032187D02*
X013428Y032187D01*
X013474Y032108D02*
X012013Y032108D01*
X012058Y032030D02*
X013520Y032030D01*
X013566Y031951D02*
X012103Y031951D01*
X012148Y031873D02*
X013611Y031873D01*
X013657Y031794D02*
X012193Y031794D01*
X012238Y031716D02*
X013703Y031716D01*
X013749Y031637D02*
X012283Y031637D01*
X012328Y031558D02*
X013794Y031558D01*
X013840Y031480D02*
X012373Y031480D01*
X012418Y031401D02*
X013886Y031401D01*
X013932Y031323D02*
X012463Y031323D01*
X012508Y031244D02*
X013977Y031244D01*
X014023Y031166D02*
X012553Y031166D01*
X012598Y031087D02*
X014069Y031087D01*
X014115Y031009D02*
X012643Y031009D01*
X012688Y030930D02*
X014161Y030930D01*
X014206Y030852D02*
X012733Y030852D01*
X012778Y030773D02*
X014252Y030773D01*
X014298Y030694D02*
X012823Y030694D01*
X012868Y030616D02*
X014344Y030616D01*
X014389Y030537D02*
X012913Y030537D01*
X012958Y030459D02*
X014435Y030459D01*
X014481Y030380D02*
X013003Y030380D01*
X013048Y030302D02*
X014527Y030302D01*
X014572Y030223D02*
X013093Y030223D01*
X013138Y030145D02*
X014618Y030145D01*
X014664Y030066D02*
X013183Y030066D01*
X013228Y029988D02*
X014710Y029988D01*
X014755Y029909D02*
X013273Y029909D01*
X013318Y029830D02*
X014801Y029830D01*
X014847Y029752D02*
X013363Y029752D01*
X013408Y029673D02*
X014893Y029673D01*
X014938Y029595D02*
X013453Y029595D01*
X013498Y029516D02*
X014984Y029516D01*
X015030Y029438D02*
X013543Y029438D01*
X013588Y029359D02*
X015076Y029359D01*
X015121Y029281D02*
X013633Y029281D01*
X013678Y029202D02*
X015167Y029202D01*
X015213Y029124D02*
X013723Y029124D01*
X013768Y029045D02*
X015259Y029045D01*
X015304Y028966D02*
X013813Y028966D01*
X013858Y028888D02*
X015350Y028888D01*
X015396Y028809D02*
X013903Y028809D01*
X013948Y028731D02*
X015442Y028731D01*
X015487Y028652D02*
X013993Y028652D01*
X014038Y028574D02*
X015602Y028574D01*
X014381Y027341D02*
X014362Y026947D01*
X015863Y024904D02*
X015862Y024899D01*
X015625Y024704D01*
X015619Y024704D01*
X015580Y024667D01*
X015539Y024633D01*
X015538Y024628D01*
X015424Y024521D01*
X015330Y024521D01*
X015201Y024392D01*
X015201Y024303D01*
X015045Y024136D01*
X015031Y024121D01*
X015023Y024114D01*
X015019Y024113D01*
X015005Y024096D01*
X014992Y024084D01*
X014992Y024081D01*
X014985Y024072D01*
X014949Y024033D01*
X014949Y024028D01*
X014754Y023790D01*
X014749Y023789D01*
X014718Y023746D01*
X014684Y023705D01*
X014684Y023699D01*
X014505Y023450D01*
X014500Y023449D01*
X014472Y023404D01*
X014441Y023360D01*
X014442Y023355D01*
X014280Y023094D01*
X014275Y023093D01*
X014250Y023046D01*
X014221Y023000D01*
X014223Y022995D01*
X014078Y022725D01*
X014073Y022723D01*
X014051Y022674D01*
X014026Y022627D01*
X014027Y022622D01*
X013901Y022343D01*
X013896Y022340D01*
X013877Y022290D01*
X013855Y022242D01*
X013857Y022237D01*
X013749Y021950D01*
X013744Y021947D01*
X013729Y021896D01*
X013710Y021846D01*
X013712Y021841D01*
X013623Y021548D01*
X013618Y021545D01*
X013606Y021493D01*
X013591Y021442D01*
X013593Y021437D01*
X013523Y021138D01*
X013519Y021135D01*
X013510Y021082D01*
X013498Y021030D01*
X013490Y020955D02*
X013421Y020955D01*
X013490Y020955D02*
X012497Y020955D01*
X012484Y020877D02*
X013477Y020877D01*
X013421Y020877D01*
X013421Y020798D02*
X013464Y020798D01*
X012471Y020798D01*
X012463Y020719D02*
X013447Y020719D01*
X013421Y020719D01*
X013421Y020641D02*
X013438Y020641D01*
X012455Y020641D01*
X012448Y020562D02*
X013432Y020562D01*
X013421Y020562D01*
X013421Y020484D02*
X013424Y020484D01*
X012440Y020484D01*
X012432Y020405D02*
X013416Y020405D01*
X013408Y020327D02*
X012424Y020327D01*
X012421Y020248D02*
X013401Y020248D01*
X013398Y020170D02*
X012418Y020170D01*
X012416Y020091D02*
X013396Y020091D01*
X013393Y020013D02*
X012413Y020013D01*
X012411Y019934D02*
X013390Y019934D01*
X013386Y019855D02*
X012408Y019855D01*
X012409Y019777D02*
X013385Y019777D01*
X013391Y019698D02*
X012411Y019698D01*
X012414Y019620D02*
X013394Y019620D01*
X013396Y019541D02*
X012416Y019541D01*
X012419Y019463D02*
X013399Y019463D01*
X013401Y019384D02*
X012422Y019384D01*
X012426Y019306D02*
X013410Y019306D01*
X013418Y019227D02*
X012434Y019227D01*
X012442Y019149D02*
X013426Y019149D01*
X013421Y019149D01*
X013421Y019070D02*
X013434Y019070D01*
X012450Y019070D01*
X012457Y018991D02*
X013441Y018991D01*
X013421Y018991D01*
X013421Y018913D02*
X013454Y018913D01*
X012465Y018913D01*
X012474Y018834D02*
X013467Y018834D01*
X013421Y018834D01*
X013421Y018756D02*
X013480Y018756D01*
X012487Y018756D01*
X012500Y018677D02*
X013493Y018677D01*
X013421Y018677D01*
X013421Y018599D02*
X013504Y018599D01*
X012513Y018599D01*
X012526Y018520D02*
X013519Y018520D01*
X013421Y018520D01*
X013421Y018442D02*
X013540Y018442D01*
X012585Y018442D01*
X012663Y018363D02*
X013559Y018363D01*
X013421Y018363D01*
X013421Y018285D02*
X013577Y018285D01*
X012684Y018285D01*
X012684Y018206D02*
X013592Y018206D01*
X013421Y018206D01*
X013421Y018128D02*
X013614Y018128D01*
X012651Y018128D01*
X012627Y018049D02*
X013640Y018049D01*
X013421Y018049D01*
X013421Y017970D02*
X013664Y017970D01*
X012645Y017970D01*
X012664Y017892D02*
X013687Y017892D01*
X013421Y017892D01*
X013421Y017813D02*
X013709Y017813D01*
X012688Y017813D01*
X012712Y017735D02*
X013735Y017735D01*
X013421Y017735D01*
X013421Y017656D02*
X013766Y017656D01*
X012736Y017656D01*
X012759Y017578D02*
X013761Y017578D01*
X013421Y017578D01*
X013761Y017421D02*
X012809Y017421D01*
X012801Y017442D02*
X012972Y016987D01*
X013172Y016545D01*
X013401Y016117D01*
X013657Y015704D01*
X013940Y015310D01*
X014248Y014935D01*
X014580Y014580D01*
X014935Y014248D01*
X015260Y013981D01*
X017132Y013981D01*
X017030Y014027D01*
X017025Y014026D01*
X016978Y014051D01*
X016929Y014073D01*
X016927Y014078D01*
X016657Y014223D01*
X016652Y014221D01*
X016606Y014250D01*
X016559Y014275D01*
X016558Y014280D01*
X016297Y014442D01*
X016292Y014441D01*
X016249Y014472D01*
X016203Y014500D01*
X016202Y014505D01*
X015953Y014684D01*
X015947Y014684D01*
X015906Y014718D01*
X015863Y014749D01*
X015906Y014718D01*
X015947Y014684D01*
X015953Y014684D01*
X016202Y014505D01*
X016203Y014500D01*
X016249Y014472D01*
X016292Y014441D01*
X016297Y014442D01*
X016558Y014280D01*
X016559Y014275D01*
X016606Y014250D01*
X016652Y014221D01*
X016657Y014223D01*
X016927Y014078D01*
X016929Y014073D01*
X016978Y014051D01*
X017025Y014026D01*
X017030Y014027D01*
X017310Y013901D01*
X017312Y013896D01*
X017362Y013877D01*
X017411Y013855D01*
X017416Y013857D01*
X017703Y013749D01*
X017705Y013744D01*
X017756Y013729D01*
X017806Y013710D01*
X017811Y013712D01*
X018105Y013623D01*
X018306Y013572D02*
X015842Y013572D01*
X015968Y013493D02*
X018438Y013493D01*
X017754Y013729D02*
X015604Y013729D01*
X015495Y013808D02*
X017546Y013808D01*
X017338Y013886D02*
X015385Y013886D01*
X015280Y013965D02*
X017168Y013965D01*
X016992Y014043D02*
X015185Y014043D01*
X015184Y014043D02*
X016992Y014043D01*
X016845Y014122D02*
X015089Y014122D01*
X016845Y014122D01*
X016699Y014200D02*
X014993Y014200D01*
X016699Y014200D01*
X016558Y014279D02*
X014902Y014279D01*
X016558Y014279D01*
X016433Y014357D02*
X014818Y014357D01*
X016433Y014357D01*
X016306Y014436D02*
X014734Y014436D01*
X016306Y014436D01*
X016189Y014515D02*
X014650Y014515D01*
X016189Y014515D01*
X016080Y014593D02*
X014568Y014593D01*
X016080Y014593D01*
X015970Y014672D02*
X014495Y014672D01*
X015970Y014672D01*
X015863Y014749D02*
X015862Y014754D01*
X015625Y014949D01*
X015619Y014948D01*
X015580Y014985D01*
X015539Y015019D01*
X015538Y015024D01*
X015315Y015234D01*
X015309Y015234D01*
X015273Y015273D01*
X015234Y015309D01*
X015234Y015315D01*
X015024Y015538D01*
X015019Y015539D01*
X014985Y015580D01*
X014948Y015619D01*
X014949Y015625D01*
X014754Y015862D01*
X014749Y015863D01*
X014754Y015862D01*
X014949Y015625D01*
X014948Y015619D01*
X014985Y015580D01*
X015019Y015539D01*
X015024Y015538D01*
X015234Y015315D01*
X015234Y015309D01*
X015273Y015273D01*
X015309Y015234D01*
X015315Y015234D01*
X015538Y015024D01*
X015539Y015019D01*
X015580Y014985D01*
X015619Y014948D01*
X015625Y014949D01*
X015862Y014754D01*
X015863Y014749D01*
X015863Y014750D02*
X014421Y014750D01*
X015863Y014750D01*
X015771Y014829D02*
X014348Y014829D01*
X015771Y014829D01*
X015675Y014907D02*
X014274Y014907D01*
X015675Y014907D01*
X015579Y014986D02*
X014206Y014986D01*
X015579Y014986D01*
X015495Y015064D02*
X014142Y015064D01*
X015495Y015064D01*
X015412Y015143D02*
X014077Y015143D01*
X015412Y015143D01*
X015328Y015221D02*
X014013Y015221D01*
X015328Y015221D01*
X015244Y015300D02*
X013949Y015300D01*
X015244Y015300D01*
X015174Y015379D02*
X013891Y015379D01*
X015174Y015379D01*
X015100Y015457D02*
X013835Y015457D01*
X015100Y015457D01*
X015027Y015536D02*
X013779Y015536D01*
X015027Y015536D01*
X014953Y015614D02*
X013722Y015614D01*
X014953Y015614D01*
X014893Y015693D02*
X013666Y015693D01*
X014893Y015693D01*
X014828Y015771D02*
X013616Y015771D01*
X014828Y015771D01*
X014764Y015850D02*
X013567Y015850D01*
X014764Y015850D01*
X014699Y015928D02*
X013518Y015928D01*
X014699Y015928D01*
X014645Y016007D02*
X013469Y016007D01*
X014645Y016007D01*
X014589Y016085D02*
X013421Y016085D01*
X013420Y016085D02*
X014589Y016085D01*
X014533Y016164D02*
X013421Y016164D01*
X013376Y016164D02*
X014533Y016164D01*
X014476Y016242D02*
X013421Y016242D01*
X013421Y016321D02*
X014427Y016321D01*
X013292Y016321D01*
X013334Y016242D02*
X014476Y016242D01*
X014378Y016400D02*
X013421Y016400D01*
X013421Y016478D02*
X014329Y016478D01*
X013208Y016478D01*
X013167Y016557D02*
X014281Y016557D01*
X013421Y016557D01*
X013421Y016635D02*
X014232Y016635D01*
X013131Y016635D01*
X013096Y016714D02*
X014192Y016714D01*
X013421Y016714D01*
X013421Y016792D02*
X014150Y016792D01*
X013060Y016792D01*
X013025Y016871D02*
X014108Y016871D01*
X013421Y016871D01*
X013421Y016949D02*
X014064Y016949D01*
X012989Y016949D01*
X012957Y017028D02*
X014027Y017028D01*
X013421Y017028D01*
X013421Y017106D02*
X013993Y017106D01*
X012927Y017106D01*
X012897Y017185D02*
X013957Y017185D01*
X013421Y017185D01*
X013850Y017837D02*
X013741Y018196D01*
X013648Y018597D01*
X013581Y019004D01*
X013540Y019414D01*
X013527Y019826D01*
X013540Y020238D01*
X013581Y020648D01*
X013648Y021055D01*
X013741Y021456D01*
X013861Y021851D01*
X014006Y022237D01*
X014177Y022612D01*
X014371Y022976D01*
X014588Y023326D01*
X014829Y023661D01*
X015090Y023980D01*
X015131Y024023D01*
X015201Y024303D02*
X015201Y024392D01*
X015330Y024521D01*
X015424Y024521D01*
X015538Y024628D01*
X015539Y024633D01*
X015580Y024667D01*
X015619Y024704D01*
X015625Y024704D01*
X015862Y024899D01*
X015863Y024904D01*
X015153Y023622D02*
X015047Y023493D01*
X014818Y023173D01*
X014610Y022838D01*
X014424Y022490D01*
X014261Y022131D01*
X014122Y021762D01*
X014008Y021385D01*
X013918Y021001D01*
X013854Y020612D01*
X013816Y020220D01*
X013803Y019826D01*
X013816Y019432D01*
X013854Y019040D01*
X013918Y018651D01*
X014008Y018267D01*
X014122Y017890D01*
X014208Y017661D01*
X014516Y017627D02*
X014383Y017979D01*
X014274Y018338D01*
X014189Y018705D01*
X014127Y019076D01*
X014090Y019450D01*
X014078Y019826D01*
X014090Y020202D01*
X014127Y020577D01*
X014189Y020947D01*
X014274Y021314D01*
X014383Y021674D01*
X014516Y022026D01*
X014671Y022368D01*
X014848Y022700D01*
X015047Y023019D01*
X015199Y023232D01*
X019762Y025432D02*
X019890Y025432D01*
X020221Y025181D02*
X021101Y025181D01*
X021321Y025196D02*
X021431Y025196D01*
X021321Y025196D01*
X021321Y025118D02*
X021678Y025118D01*
X021321Y025118D01*
X021270Y025039D02*
X021887Y025039D01*
X021270Y025039D01*
X020932Y025039D02*
X020390Y025039D01*
X020932Y025039D01*
X021310Y024494D02*
X021230Y024414D01*
X020545Y024414D01*
X020465Y024494D01*
X020282Y024494D01*
X020154Y024365D01*
X020154Y024183D01*
X020282Y024054D01*
X020465Y024054D01*
X020545Y024134D01*
X021230Y024134D01*
X021310Y024054D01*
X021492Y024054D01*
X021621Y024183D01*
X021621Y024365D01*
X021492Y024494D01*
X021310Y024494D01*
X021230Y024414D01*
X020545Y024414D01*
X020465Y024494D01*
X020282Y024494D01*
X020154Y024365D01*
X020154Y024183D01*
X020282Y024054D01*
X020465Y024054D01*
X020545Y024134D01*
X021230Y024134D01*
X021310Y024054D01*
X021492Y024054D01*
X021621Y024183D01*
X021621Y024365D01*
X021492Y024494D01*
X021310Y024494D01*
X021306Y024490D02*
X020469Y024490D01*
X021306Y024490D01*
X021496Y024490D02*
X022940Y024490D01*
X021496Y024490D01*
X021575Y024411D02*
X023050Y024411D01*
X021575Y024411D01*
X021621Y024332D02*
X023160Y024332D01*
X021621Y024332D01*
X021621Y024254D02*
X023266Y024254D01*
X021621Y024254D01*
X021614Y024175D02*
X023362Y024175D01*
X021614Y024175D01*
X021535Y024097D02*
X023457Y024097D01*
X021535Y024097D01*
X021401Y024274D02*
X020374Y024274D01*
X020508Y024097D02*
X021267Y024097D01*
X020508Y024097D01*
X022481Y023032D02*
X022481Y022850D01*
X022610Y022721D01*
X022792Y022721D01*
X022872Y022801D01*
X023570Y022801D01*
X023650Y022721D01*
X023832Y022721D01*
X023961Y022850D01*
X023961Y023032D01*
X023832Y023161D01*
X023650Y023161D01*
X023570Y023081D01*
X022872Y023081D01*
X022792Y023161D01*
X022610Y023161D01*
X022481Y023032D01*
X022481Y022850D01*
X022610Y022721D01*
X022792Y022721D01*
X022872Y022801D01*
X023570Y022801D01*
X023650Y022721D01*
X023832Y022721D01*
X023961Y022850D01*
X023961Y023032D01*
X023832Y023161D01*
X023650Y023161D01*
X023570Y023081D01*
X022872Y023081D01*
X022792Y023161D01*
X022610Y023161D01*
X022481Y023032D01*
X022701Y022941D02*
X023741Y022941D01*
X023961Y022919D02*
X024503Y022919D01*
X023961Y022919D01*
X023961Y022997D02*
X024449Y022997D01*
X023961Y022997D01*
X023918Y023076D02*
X024393Y023076D01*
X023918Y023076D01*
X023839Y023154D02*
X024337Y023154D01*
X023839Y023154D01*
X023643Y023154D02*
X022799Y023154D01*
X023643Y023154D01*
X023609Y022762D02*
X022833Y022762D01*
X023609Y022762D01*
X023873Y022762D02*
X024601Y022762D01*
X023873Y022762D01*
X023951Y022840D02*
X024552Y022840D01*
X023951Y022840D01*
X023032Y021001D02*
X022850Y021001D01*
X022770Y020921D01*
X022632Y020921D01*
X022552Y021001D01*
X022370Y021001D01*
X022241Y020872D01*
X022241Y020690D01*
X022370Y020561D01*
X022552Y020561D01*
X022632Y020641D01*
X022770Y020641D01*
X022850Y020561D01*
X023032Y020561D01*
X023161Y020690D01*
X023161Y020872D01*
X023032Y021001D01*
X022850Y021001D01*
X022770Y020921D01*
X022632Y020921D01*
X022552Y021001D01*
X022370Y021001D01*
X022241Y020872D01*
X022241Y020690D01*
X022370Y020561D01*
X022552Y020561D01*
X022632Y020641D01*
X022770Y020641D01*
X022632Y020641D01*
X022770Y020641D01*
X022850Y020561D01*
X023032Y020561D01*
X023161Y020690D01*
X023161Y020872D01*
X023032Y021001D01*
X023078Y020955D02*
X025318Y020955D01*
X023078Y020955D01*
X023157Y020877D02*
X025333Y020877D01*
X023157Y020877D01*
X023161Y020798D02*
X025346Y020798D01*
X023161Y020798D01*
X023161Y020719D02*
X025359Y020719D01*
X023161Y020719D01*
X023112Y020641D02*
X025372Y020641D01*
X023112Y020641D01*
X023033Y020562D02*
X025385Y020562D01*
X023033Y020562D01*
X022849Y020562D02*
X022553Y020562D01*
X022849Y020562D01*
X022941Y020781D02*
X022461Y020781D01*
X022598Y020955D02*
X022804Y020955D01*
X022598Y020955D01*
X021321Y019672D02*
X021192Y019801D01*
X021010Y019801D01*
X020930Y019721D01*
X020312Y019721D01*
X020232Y019801D01*
X020050Y019801D01*
X019921Y019672D01*
X019921Y019490D01*
X020050Y019361D01*
X020232Y019361D01*
X020312Y019441D01*
X020930Y019441D01*
X021010Y019361D01*
X021192Y019361D01*
X021321Y019490D01*
X021321Y019672D01*
X021192Y019801D01*
X021010Y019801D01*
X020930Y019721D01*
X020312Y019721D01*
X020232Y019801D01*
X020050Y019801D01*
X019921Y019672D01*
X019921Y019490D01*
X020050Y019361D01*
X020232Y019361D01*
X020312Y019441D01*
X020930Y019441D01*
X021010Y019361D01*
X021192Y019361D01*
X021321Y019490D01*
X021321Y019672D01*
X021295Y019698D02*
X025430Y019698D01*
X021295Y019698D01*
X021321Y019620D02*
X025427Y019620D01*
X021321Y019620D01*
X021321Y019541D02*
X025425Y019541D01*
X021321Y019541D01*
X021294Y019463D02*
X025422Y019463D01*
X021294Y019463D01*
X021215Y019384D02*
X025415Y019384D01*
X021215Y019384D01*
X021101Y019581D02*
X020141Y019581D01*
X020256Y019777D02*
X020986Y019777D01*
X020256Y019777D01*
X020255Y019384D02*
X020987Y019384D01*
X020255Y019384D01*
X021216Y019777D02*
X025433Y019777D01*
X021216Y019777D01*
X021456Y013741D02*
X021055Y013648D01*
X020648Y013581D01*
X020238Y013540D01*
X019826Y013527D01*
X019414Y013540D01*
X019260Y013415D02*
X016094Y013415D01*
X016237Y013336D02*
X023415Y013336D01*
X023558Y013415D02*
X020392Y013415D01*
X020979Y013493D02*
X023684Y013493D01*
X023811Y013572D02*
X021346Y013572D01*
X021905Y012708D02*
X017747Y012708D01*
X017647Y012787D02*
X022164Y012787D01*
X022382Y012865D02*
X017271Y012865D01*
X017062Y012944D02*
X022590Y012944D01*
X022776Y013022D02*
X016876Y013022D01*
X016703Y013101D02*
X022950Y013101D01*
X023121Y013179D02*
X016531Y013179D01*
X016384Y013258D02*
X023268Y013258D01*
X021616Y012629D02*
X018036Y012629D01*
X018373Y012551D02*
X021279Y012551D01*
X020806Y012472D02*
X018846Y012472D01*
X019826Y010968D02*
X019826Y010850D01*
X019151Y010116D02*
X020502Y010116D01*
X020467Y010038D02*
X019185Y010038D01*
X019184Y009959D02*
X020469Y009959D01*
X020469Y009880D02*
X019184Y009880D01*
X019184Y009802D02*
X020469Y009802D01*
X020469Y009723D02*
X019184Y009723D01*
X019184Y009645D02*
X020469Y009645D01*
X020469Y009566D02*
X019184Y009566D01*
X019184Y009488D02*
X020469Y009488D01*
X020469Y009409D02*
X019184Y009409D01*
X019184Y009331D02*
X020469Y009331D01*
X020469Y009252D02*
X019184Y009252D01*
X019184Y009174D02*
X020469Y009174D01*
X020469Y009095D02*
X019184Y009095D01*
X019184Y009016D02*
X020469Y009016D01*
X020469Y008938D02*
X019184Y008938D01*
X019184Y008859D02*
X020469Y008859D01*
X020469Y008781D02*
X019184Y008781D01*
X019184Y008702D02*
X020469Y008702D01*
X020469Y008624D02*
X019184Y008624D01*
X019184Y008545D02*
X020469Y008545D01*
X020469Y008467D02*
X019184Y008467D01*
X019184Y008388D02*
X020469Y008388D01*
X020469Y008310D02*
X019184Y008310D01*
X019184Y008231D02*
X020469Y008231D01*
X020469Y008153D02*
X019184Y008153D01*
X019184Y008074D02*
X020469Y008074D01*
X020469Y007995D02*
X019184Y007995D01*
X019184Y007917D02*
X020469Y007917D01*
X020469Y007838D02*
X019184Y007838D01*
X019184Y007760D02*
X020469Y007760D01*
X020469Y007681D02*
X019184Y007681D01*
X019184Y007603D02*
X020469Y007603D01*
X020469Y007524D02*
X019184Y007524D01*
X019184Y007446D02*
X020469Y007446D01*
X020469Y007367D02*
X019184Y007367D01*
X019184Y007289D02*
X020469Y007289D01*
X020469Y007210D02*
X019184Y007210D01*
X019184Y007131D02*
X020469Y007131D01*
X020469Y007053D02*
X019184Y007053D01*
X019184Y006974D02*
X020469Y006974D01*
X020469Y006896D02*
X019184Y006896D01*
X019184Y006817D02*
X020469Y006817D01*
X020469Y006739D02*
X019184Y006739D01*
X019184Y006660D02*
X020469Y006660D01*
X020469Y006582D02*
X019184Y006582D01*
X019184Y006503D02*
X020469Y006503D01*
X020469Y006425D02*
X019184Y006425D01*
X019184Y006346D02*
X020469Y006346D01*
X020469Y006267D02*
X019184Y006267D01*
X019184Y006189D02*
X020469Y006189D01*
X020469Y006110D02*
X019184Y006110D01*
X019184Y006032D02*
X020469Y006032D01*
X020469Y005953D02*
X019184Y005953D01*
X019184Y005875D02*
X020469Y005875D01*
X020469Y005796D02*
X019184Y005796D01*
X019184Y005718D02*
X020469Y005718D01*
X020469Y005639D02*
X019184Y005639D01*
X019184Y005561D02*
X020469Y005561D01*
X020469Y005482D02*
X019184Y005482D01*
X019155Y005246D02*
X020497Y005246D01*
X020652Y005168D02*
X019000Y005168D01*
X018808Y005089D02*
X020844Y005089D01*
X020976Y005011D02*
X018676Y005011D01*
X018545Y004932D02*
X021107Y004932D01*
X021239Y004854D02*
X018413Y004854D01*
X018311Y004775D02*
X021341Y004775D01*
X021423Y004697D02*
X018229Y004697D01*
X018147Y004618D02*
X021505Y004618D01*
X021587Y004540D02*
X018065Y004540D01*
X017983Y004461D02*
X021669Y004461D01*
X021727Y004382D02*
X017925Y004382D01*
X017873Y004304D02*
X021779Y004304D01*
X021830Y004225D02*
X017822Y004225D01*
X017771Y004147D02*
X021882Y004147D01*
X021933Y004068D02*
X017719Y004068D01*
X017668Y003990D02*
X021984Y003990D01*
X022015Y003911D02*
X017637Y003911D01*
X017609Y003833D02*
X022044Y003833D01*
X022073Y003754D02*
X017580Y003754D01*
X017551Y003676D02*
X022102Y003676D01*
X022131Y003597D02*
X017522Y003597D01*
X017493Y003518D02*
X022160Y003518D01*
X022181Y003440D02*
X017472Y003440D01*
X017461Y003361D02*
X022191Y003361D01*
X022201Y003283D02*
X017451Y003283D01*
X017441Y003204D02*
X022211Y003204D01*
X022221Y003126D02*
X017431Y003126D01*
X017421Y003047D02*
X022231Y003047D01*
X022241Y002969D02*
X017411Y002969D01*
X017411Y002890D02*
X022242Y002890D01*
X022234Y002812D02*
X017418Y002812D01*
X017426Y002733D02*
X022226Y002733D01*
X022218Y002654D02*
X017434Y002654D01*
X017442Y002576D02*
X022210Y002576D01*
X022203Y002497D02*
X017450Y002497D01*
X017461Y002386D02*
X017636Y001869D01*
X017684Y001791D02*
X021968Y001791D01*
X021920Y001712D02*
X017732Y001712D01*
X017781Y001633D02*
X021872Y001633D01*
X021823Y001555D02*
X017829Y001555D01*
X017877Y001476D02*
X021775Y001476D01*
X021724Y001398D02*
X017928Y001398D01*
X018005Y001319D02*
X021647Y001319D01*
X021570Y001241D02*
X018083Y001241D01*
X018160Y001162D02*
X021492Y001162D01*
X021415Y001084D02*
X018238Y001084D01*
X018320Y001005D02*
X021332Y001005D01*
X021208Y000927D02*
X018444Y000927D01*
X018568Y000848D02*
X021085Y000848D01*
X020961Y000769D02*
X018691Y000769D01*
X018853Y000691D02*
X020800Y000691D01*
X020577Y000612D02*
X019075Y000612D01*
X019328Y000534D02*
X020325Y000534D01*
X026162Y004068D02*
X030450Y004068D01*
X030410Y003990D02*
X026195Y003990D01*
X026246Y003911D02*
X030370Y003911D01*
X030330Y003833D02*
X026303Y003833D01*
X026360Y003754D02*
X030267Y003754D01*
X030201Y003676D02*
X026417Y003676D01*
X026475Y003597D02*
X030135Y003597D01*
X030069Y003518D02*
X026535Y003518D01*
X026625Y003440D02*
X030003Y003440D01*
X029915Y003361D02*
X026716Y003361D01*
X026806Y003283D02*
X029811Y003283D01*
X029707Y003204D02*
X026896Y003204D01*
X027017Y003126D02*
X029602Y003126D01*
X029472Y003047D02*
X027165Y003047D01*
X027312Y002969D02*
X029295Y002969D01*
X029119Y002890D02*
X027497Y002890D01*
X027790Y002812D02*
X028821Y002812D01*
X030490Y004147D02*
X026129Y004147D01*
X026095Y004225D02*
X030530Y004225D01*
X030571Y004304D02*
X026062Y004304D01*
X026028Y004382D02*
X030592Y004382D01*
X030612Y004461D02*
X025995Y004461D01*
X025978Y004540D02*
X030631Y004540D01*
X030651Y004618D02*
X025964Y004618D01*
X025950Y004697D02*
X030671Y004697D01*
X030691Y004775D02*
X025937Y004775D01*
X025923Y004854D02*
X030707Y004854D01*
X030709Y004932D02*
X025909Y004932D01*
X025903Y005168D02*
X030713Y005168D01*
X030715Y005246D02*
X025907Y005246D01*
X025911Y005325D02*
X030716Y005325D01*
X030714Y005404D02*
X025915Y005404D01*
X025919Y005482D02*
X030698Y005482D01*
X030681Y005561D02*
X025924Y005561D01*
X025946Y005639D02*
X030665Y005639D01*
X030648Y005718D02*
X025969Y005718D01*
X025991Y005796D02*
X030632Y005796D01*
X030615Y005875D02*
X026013Y005875D01*
X026036Y005953D02*
X030591Y005953D01*
X030555Y006032D02*
X026058Y006032D01*
X026088Y006110D02*
X030518Y006110D01*
X030482Y006189D02*
X026131Y006189D01*
X026175Y006267D02*
X030445Y006267D01*
X030409Y006346D02*
X026218Y006346D01*
X026261Y006425D02*
X030371Y006425D01*
X030310Y006503D02*
X026305Y006503D01*
X026353Y006582D02*
X030249Y006582D01*
X030188Y006660D02*
X026416Y006660D01*
X026479Y006739D02*
X030127Y006739D01*
X030066Y006817D02*
X026545Y006817D01*
X026556Y006896D02*
X029985Y006896D01*
X029889Y006974D02*
X026510Y006974D01*
X026464Y007053D02*
X029792Y007053D01*
X029696Y007131D02*
X026418Y007131D01*
X026373Y007210D02*
X029589Y007210D01*
X029429Y007289D02*
X026327Y007289D01*
X026281Y007367D02*
X029269Y007367D01*
X029095Y007446D02*
X026235Y007446D01*
X026190Y007524D02*
X027684Y007524D01*
X027604Y007603D02*
X026144Y007603D01*
X026098Y007681D02*
X027561Y007681D01*
X027516Y007760D02*
X026052Y007760D01*
X026007Y007838D02*
X027471Y007838D01*
X027426Y007917D02*
X025961Y007917D01*
X025915Y007995D02*
X027381Y007995D01*
X027336Y008074D02*
X025869Y008074D01*
X025824Y008153D02*
X027291Y008153D01*
X027246Y008231D02*
X025778Y008231D01*
X025732Y008310D02*
X027201Y008310D01*
X027156Y008388D02*
X025686Y008388D01*
X025641Y008467D02*
X027111Y008467D01*
X027066Y008545D02*
X025595Y008545D01*
X025549Y008624D02*
X027021Y008624D01*
X026976Y008702D02*
X025503Y008702D01*
X025458Y008781D02*
X026931Y008781D01*
X026886Y008859D02*
X025412Y008859D01*
X025366Y008938D02*
X026841Y008938D01*
X026796Y009016D02*
X025320Y009016D01*
X025275Y009095D02*
X026751Y009095D01*
X026706Y009174D02*
X025229Y009174D01*
X025183Y009252D02*
X026661Y009252D01*
X026616Y009331D02*
X025137Y009331D01*
X025091Y009409D02*
X026571Y009409D01*
X026526Y009488D02*
X025046Y009488D01*
X025000Y009566D02*
X026481Y009566D01*
X026436Y009645D02*
X024954Y009645D01*
X024909Y009723D02*
X026391Y009723D01*
X026346Y009802D02*
X024863Y009802D01*
X024817Y009880D02*
X026301Y009880D01*
X026256Y009959D02*
X024771Y009959D01*
X024725Y010038D02*
X026211Y010038D01*
X026166Y010116D02*
X024680Y010116D01*
X024634Y010195D02*
X026121Y010195D01*
X026076Y010273D02*
X024588Y010273D01*
X024542Y010352D02*
X026031Y010352D01*
X025986Y010430D02*
X024497Y010430D01*
X024451Y010509D02*
X025941Y010509D01*
X025896Y010587D02*
X024405Y010587D01*
X024359Y010666D02*
X025851Y010666D01*
X025806Y010744D02*
X024314Y010744D01*
X024268Y010823D02*
X025761Y010823D01*
X025716Y010902D02*
X024222Y010902D01*
X024176Y010980D02*
X025671Y010980D01*
X025626Y011059D02*
X024114Y011059D01*
X025421Y012301D02*
X025375Y012774D01*
X028015Y014357D02*
X030592Y014357D01*
X030727Y014279D02*
X028152Y014279D01*
X028290Y014200D02*
X030862Y014200D01*
X030997Y014122D02*
X028427Y014122D01*
X028564Y014043D02*
X031131Y014043D01*
X031266Y013965D02*
X028701Y013965D01*
X028838Y013886D02*
X031401Y013886D01*
X031536Y013808D02*
X028975Y013808D01*
X029112Y013729D02*
X031671Y013729D01*
X031806Y013651D02*
X029249Y013651D01*
X029386Y013572D02*
X031940Y013572D01*
X032075Y013493D02*
X029524Y013493D01*
X029661Y013415D02*
X032210Y013415D01*
X032345Y013336D02*
X029798Y013336D01*
X029935Y013258D02*
X032480Y013258D01*
X032615Y013179D02*
X030072Y013179D01*
X030209Y013101D02*
X032749Y013101D01*
X032776Y013101D02*
X036148Y013101D01*
X036217Y013022D02*
X030346Y013022D01*
X030483Y012944D02*
X036285Y012944D01*
X036353Y012865D02*
X030621Y012865D01*
X030758Y012787D02*
X036421Y012787D01*
X036488Y012708D02*
X030895Y012708D01*
X031032Y012629D02*
X036530Y012629D01*
X036571Y012551D02*
X031169Y012551D01*
X031306Y012472D02*
X036613Y012472D01*
X036655Y012394D02*
X031443Y012394D01*
X031580Y012315D02*
X036697Y012315D01*
X036738Y012237D02*
X031717Y012237D01*
X031855Y012158D02*
X036761Y012158D01*
X036782Y012080D02*
X031992Y012080D01*
X032118Y012001D02*
X036804Y012001D01*
X036825Y011923D02*
X032142Y011923D01*
X032127Y011844D02*
X036846Y011844D01*
X036867Y011766D02*
X032113Y011766D01*
X032100Y011687D02*
X036884Y011687D01*
X036887Y011608D02*
X032087Y011608D01*
X032087Y011530D02*
X036890Y011530D01*
X036893Y011451D02*
X032088Y011451D01*
X032088Y011373D02*
X036895Y011373D01*
X036898Y011294D02*
X032088Y011294D01*
X032088Y011216D02*
X036901Y011216D01*
X036900Y011137D02*
X032088Y011137D01*
X032090Y011059D02*
X036885Y011059D01*
X036869Y010980D02*
X032108Y010980D01*
X032126Y010902D02*
X036854Y010902D01*
X036839Y010823D02*
X032145Y010823D01*
X032163Y010744D02*
X036824Y010744D01*
X036809Y010666D02*
X032181Y010666D01*
X032200Y010587D02*
X036786Y010587D01*
X036751Y010509D02*
X032223Y010509D01*
X032262Y010430D02*
X036716Y010430D01*
X036681Y010352D02*
X032301Y010352D01*
X032339Y010273D02*
X036646Y010273D01*
X036611Y010195D02*
X032378Y010195D01*
X032416Y010116D02*
X036576Y010116D01*
X036517Y010038D02*
X032455Y010038D01*
X032519Y009959D02*
X036458Y009959D01*
X036399Y009880D02*
X032583Y009880D01*
X032647Y009802D02*
X036340Y009802D01*
X036281Y009723D02*
X032711Y009723D01*
X032774Y009645D02*
X036207Y009645D01*
X036113Y009566D02*
X032861Y009566D01*
X032962Y009488D02*
X036020Y009488D01*
X035926Y009409D02*
X033063Y009409D01*
X033164Y009331D02*
X035833Y009331D01*
X035682Y009252D02*
X033287Y009252D01*
X033456Y009174D02*
X035528Y009174D01*
X035374Y009095D02*
X033626Y009095D01*
X033875Y009016D02*
X035096Y009016D01*
X034437Y008938D02*
X034248Y008938D01*
X032920Y013179D02*
X036053Y013179D01*
X035945Y013258D02*
X033019Y013258D01*
X033129Y013336D02*
X035837Y013336D01*
X035729Y013415D02*
X033271Y013415D01*
X033413Y013493D02*
X035576Y013493D01*
X035392Y013572D02*
X033556Y013572D01*
X033819Y013651D02*
X035207Y013651D01*
X034802Y013729D02*
X034094Y013729D01*
X036611Y017421D02*
X036863Y017421D01*
X037379Y017499D02*
X036116Y017499D01*
X035903Y017578D02*
X037612Y017578D01*
X037817Y017656D02*
X035690Y017656D01*
X035560Y017735D02*
X037944Y017735D01*
X038072Y017813D02*
X035440Y017813D01*
X035320Y017892D02*
X038199Y017892D01*
X038298Y017970D02*
X035204Y017970D01*
X035128Y018049D02*
X038377Y018049D01*
X038457Y018128D02*
X035053Y018128D01*
X034978Y018206D02*
X038537Y018206D01*
X038616Y018285D02*
X034902Y018285D01*
X034829Y018363D02*
X038674Y018363D01*
X038724Y018442D02*
X034782Y018442D01*
X034735Y018520D02*
X038774Y018520D01*
X038824Y018599D02*
X034688Y018599D01*
X034641Y018677D02*
X038874Y018677D01*
X038924Y018756D02*
X034594Y018756D01*
X034548Y018834D02*
X038955Y018834D01*
X038983Y018913D02*
X034518Y018913D01*
X034488Y018991D02*
X039010Y018991D01*
X039038Y019070D02*
X034459Y019070D01*
X034418Y019149D02*
X039066Y019149D01*
X039154Y020013D02*
X029448Y020013D01*
X029450Y019955D02*
X029438Y020327D01*
X029444Y020348D01*
X029433Y020456D01*
X029430Y020564D01*
X029421Y020584D01*
X029384Y020955D01*
X029447Y020955D01*
X029389Y020976D02*
X029372Y021083D01*
X029361Y021190D01*
X029351Y021210D01*
X029290Y021577D01*
X029294Y021599D01*
X029269Y021705D01*
X029251Y021811D01*
X029240Y021830D01*
X029155Y022193D01*
X029157Y022214D01*
X029126Y022318D01*
X029101Y022423D01*
X029089Y022441D01*
X028980Y022798D01*
X028981Y022820D01*
X028943Y022921D01*
X028912Y023024D01*
X028898Y023042D01*
X028766Y023390D01*
X028842Y023390D01*
X028766Y023390D02*
X028766Y023412D01*
X028721Y023510D01*
X028683Y023612D01*
X028668Y023628D01*
X028514Y023967D01*
X028512Y023989D01*
X028461Y024084D01*
X028417Y024183D01*
X028400Y024198D01*
X028225Y024526D01*
X028221Y024548D01*
X028164Y024640D01*
X028113Y024736D01*
X028096Y024749D01*
X027900Y025066D01*
X027895Y025087D01*
X027831Y025175D01*
X027775Y025267D01*
X027757Y025280D01*
X027539Y025583D01*
X027533Y025604D01*
X027464Y025687D01*
X027401Y025775D01*
X027382Y025787D01*
X027146Y026075D01*
X027139Y026095D01*
X027065Y026174D01*
X026996Y026258D01*
X026977Y026268D01*
X026722Y026540D01*
X026713Y026560D01*
X026634Y026634D01*
X026560Y026713D01*
X026540Y026722D01*
X026268Y026977D01*
X026258Y026996D01*
X026174Y027065D01*
X026095Y027139D01*
X026075Y027146D01*
X025787Y027382D01*
X025775Y027401D01*
X025687Y027464D01*
X025604Y027533D01*
X025583Y027539D01*
X025280Y027757D01*
X025267Y027775D01*
X025175Y027831D01*
X025087Y027895D01*
X025066Y027900D01*
X024749Y028096D01*
X024736Y028113D01*
X024640Y028164D01*
X024548Y028221D01*
X024526Y028225D01*
X024198Y028400D01*
X024183Y028417D01*
X025525Y028417D01*
X025480Y028338D02*
X024314Y028338D01*
X024183Y028417D02*
X024084Y028461D01*
X023989Y028512D01*
X023658Y028731D02*
X023489Y028731D01*
X023477Y028809D02*
X023276Y028809D01*
X023251Y028888D02*
X023067Y028888D01*
X023013Y028966D02*
X022859Y028966D01*
X022775Y029045D02*
X022585Y029045D01*
X022537Y029124D02*
X022328Y029124D01*
X022279Y029202D02*
X021991Y029202D01*
X021888Y029281D02*
X021655Y029281D01*
X021496Y029359D02*
X021194Y029359D01*
X021038Y029438D02*
X020411Y029438D01*
X020328Y029438D02*
X020321Y029438D01*
X019826Y028803D02*
X019826Y028684D01*
X019625Y027239D02*
X020028Y027239D01*
X024461Y028260D02*
X025435Y028260D01*
X025390Y028181D02*
X024612Y028181D01*
X024744Y028103D02*
X025345Y028103D01*
X025300Y028024D02*
X024865Y028024D01*
X024992Y027945D02*
X025264Y027945D01*
X025282Y027867D02*
X025126Y027867D01*
X025245Y027788D02*
X025373Y027788D01*
X025345Y027710D02*
X025480Y027710D01*
X025454Y027631D02*
X025587Y027631D01*
X025564Y027553D02*
X025694Y027553D01*
X025675Y027474D02*
X025801Y027474D01*
X025779Y027396D02*
X025891Y027396D01*
X025867Y027317D02*
X025979Y027317D01*
X025962Y027239D02*
X026068Y027239D01*
X026058Y027160D02*
X026157Y027160D01*
X026156Y027081D02*
X026246Y027081D01*
X026250Y027003D02*
X026334Y027003D01*
X026324Y026924D02*
X026423Y026924D01*
X026408Y026846D02*
X026512Y026846D01*
X026492Y026767D02*
X026600Y026767D01*
X026583Y026689D02*
X026689Y026689D01*
X026660Y026610D02*
X026759Y026610D01*
X026730Y026532D02*
X026828Y026532D01*
X026804Y026453D02*
X026898Y026453D01*
X026877Y026375D02*
X026967Y026375D01*
X026951Y026296D02*
X027037Y026296D01*
X027029Y026217D02*
X027106Y026217D01*
X027098Y026139D02*
X027176Y026139D01*
X027158Y026060D02*
X027245Y026060D01*
X027223Y025982D02*
X027315Y025982D01*
X027287Y025903D02*
X027385Y025903D01*
X027351Y025825D02*
X027454Y025825D01*
X027422Y025746D02*
X027514Y025746D01*
X027480Y025668D02*
X027572Y025668D01*
X027537Y025589D02*
X027630Y025589D01*
X027591Y025511D02*
X027687Y025511D01*
X027647Y025432D02*
X027745Y025432D01*
X027704Y025354D02*
X027803Y025354D01*
X027763Y025275D02*
X027905Y025275D01*
X027986Y025275D02*
X030558Y025275D01*
X030693Y025354D02*
X028118Y025354D01*
X028255Y025432D02*
X030828Y025432D01*
X030962Y025511D02*
X028392Y025511D01*
X028529Y025589D02*
X031097Y025589D01*
X031232Y025668D02*
X028666Y025668D01*
X028803Y025746D02*
X031367Y025746D01*
X031502Y025825D02*
X028940Y025825D01*
X029078Y025903D02*
X031637Y025903D01*
X031771Y025982D02*
X029215Y025982D01*
X029352Y026060D02*
X031906Y026060D01*
X032041Y026139D02*
X029489Y026139D01*
X029626Y026217D02*
X032176Y026217D01*
X032311Y026296D02*
X029763Y026296D01*
X029900Y026375D02*
X032446Y026375D01*
X032581Y026453D02*
X030037Y026453D01*
X030174Y026532D02*
X032701Y026532D01*
X032852Y026532D02*
X036131Y026532D01*
X036199Y026610D02*
X030312Y026610D01*
X030449Y026689D02*
X036268Y026689D01*
X036336Y026767D02*
X030586Y026767D01*
X030723Y026846D02*
X036404Y026846D01*
X036472Y026924D02*
X030860Y026924D01*
X030997Y027003D02*
X036519Y027003D01*
X036561Y027081D02*
X031134Y027081D01*
X031271Y027160D02*
X036603Y027160D01*
X036644Y027239D02*
X031409Y027239D01*
X031546Y027317D02*
X036686Y027317D01*
X036728Y027396D02*
X031683Y027396D01*
X031820Y027474D02*
X036756Y027474D01*
X036777Y027553D02*
X031957Y027553D01*
X032095Y027631D02*
X036798Y027631D01*
X036819Y027710D02*
X032144Y027710D01*
X032131Y027788D02*
X036840Y027788D01*
X036861Y027867D02*
X032117Y027867D01*
X032104Y027945D02*
X036882Y027945D01*
X036887Y028024D02*
X032090Y028024D01*
X032087Y028103D02*
X036889Y028103D01*
X036892Y028181D02*
X032088Y028181D01*
X032088Y028260D02*
X036895Y028260D01*
X036898Y028338D02*
X032088Y028338D01*
X032088Y028417D02*
X036900Y028417D01*
X036903Y028495D02*
X032088Y028495D01*
X032089Y028574D02*
X036889Y028574D01*
X036873Y028652D02*
X032103Y028652D01*
X032122Y028731D02*
X036858Y028731D01*
X036843Y028809D02*
X032140Y028809D01*
X032158Y028888D02*
X036828Y028888D01*
X036812Y028966D02*
X032177Y028966D01*
X032195Y029045D02*
X036795Y029045D01*
X036760Y029124D02*
X032214Y029124D01*
X032252Y029202D02*
X036725Y029202D01*
X036690Y029281D02*
X032291Y029281D01*
X032329Y029359D02*
X036655Y029359D01*
X036620Y029438D02*
X032368Y029438D01*
X032406Y029516D02*
X036585Y029516D01*
X036532Y029595D02*
X032445Y029595D01*
X032503Y029673D02*
X036473Y029673D01*
X036414Y029752D02*
X032567Y029752D01*
X032631Y029830D02*
X036355Y029830D01*
X036296Y029909D02*
X032694Y029909D01*
X032758Y029988D02*
X036230Y029988D01*
X036137Y030066D02*
X032835Y030066D01*
X032936Y030145D02*
X036043Y030145D01*
X035950Y030223D02*
X033037Y030223D01*
X033138Y030302D02*
X035857Y030302D01*
X035721Y030380D02*
X033244Y030380D01*
X033414Y030459D02*
X035567Y030459D01*
X035413Y030537D02*
X033583Y030537D01*
X033781Y030616D02*
X035175Y030616D01*
X034861Y030694D02*
X034154Y030694D01*
X032945Y026453D02*
X036026Y026453D01*
X035918Y026375D02*
X033044Y026375D01*
X033165Y026296D02*
X035810Y026296D01*
X035702Y026217D02*
X033307Y026217D01*
X033449Y026139D02*
X035530Y026139D01*
X035345Y026060D02*
X033613Y026060D01*
X033888Y025982D02*
X035133Y025982D01*
X034690Y025903D02*
X034475Y025903D01*
X036456Y022212D02*
X037062Y022212D01*
X037438Y022133D02*
X036062Y022133D01*
X035849Y022055D02*
X037671Y022055D01*
X037849Y021976D02*
X035650Y021976D01*
X035530Y021898D02*
X037977Y021898D01*
X038104Y021819D02*
X035410Y021819D01*
X035290Y021741D02*
X038232Y021741D01*
X038318Y021662D02*
X035185Y021662D01*
X035109Y021583D02*
X038397Y021583D01*
X038477Y021505D02*
X035034Y021505D01*
X034959Y021426D02*
X038557Y021426D01*
X038636Y021348D02*
X034883Y021348D01*
X034817Y021269D02*
X038687Y021269D01*
X038737Y021191D02*
X034770Y021191D01*
X034723Y021112D02*
X038787Y021112D01*
X038837Y021034D02*
X034676Y021034D01*
X034629Y020955D02*
X038886Y020955D01*
X038934Y020877D02*
X034582Y020877D01*
X034541Y020798D02*
X038962Y020798D01*
X038990Y020719D02*
X034510Y020719D01*
X034480Y020641D02*
X039017Y020641D01*
X039045Y020562D02*
X034459Y020562D01*
X034390Y020484D02*
X039073Y020484D01*
X039101Y020405D02*
X029438Y020405D01*
X029438Y020327D02*
X039118Y020327D01*
X039127Y020248D02*
X029440Y020248D01*
X029443Y020170D02*
X039136Y020170D01*
X039145Y020091D02*
X029445Y020091D01*
X029450Y019955D02*
X029458Y019934D01*
X029432Y020484D02*
X029554Y020484D01*
X029484Y020562D02*
X029430Y020562D01*
X029415Y020641D02*
X029481Y020641D01*
X029472Y020719D02*
X029407Y020719D01*
X029400Y020798D02*
X029464Y020798D01*
X029455Y020877D02*
X029392Y020877D01*
X029384Y020955D02*
X029389Y020976D01*
X029380Y021034D02*
X029438Y021034D01*
X029430Y021112D02*
X029369Y021112D01*
X029361Y021191D02*
X029421Y021191D01*
X029405Y021269D02*
X029341Y021269D01*
X029328Y021348D02*
X029389Y021348D01*
X029373Y021426D02*
X029315Y021426D01*
X029302Y021505D02*
X029358Y021505D01*
X029342Y021583D02*
X029291Y021583D01*
X029279Y021662D02*
X029326Y021662D01*
X029310Y021741D02*
X029263Y021741D01*
X029247Y021819D02*
X029294Y021819D01*
X029279Y021898D02*
X029224Y021898D01*
X029206Y021976D02*
X029263Y021976D01*
X029247Y022055D02*
X029187Y022055D01*
X029169Y022133D02*
X029231Y022133D01*
X029216Y022212D02*
X029157Y022212D01*
X029134Y022290D02*
X029200Y022290D01*
X029179Y022369D02*
X029114Y022369D01*
X029087Y022447D02*
X029153Y022447D01*
X029127Y022526D02*
X029063Y022526D01*
X029039Y022604D02*
X029101Y022604D01*
X029075Y022683D02*
X029015Y022683D01*
X028991Y022762D02*
X029049Y022762D01*
X029024Y022840D02*
X028974Y022840D01*
X028998Y022919D02*
X028944Y022919D01*
X028920Y022997D02*
X028972Y022997D01*
X028946Y023076D02*
X028885Y023076D01*
X028855Y023154D02*
X028920Y023154D01*
X028894Y023233D02*
X028826Y023233D01*
X028796Y023311D02*
X028868Y023311D01*
X028813Y023468D02*
X028740Y023468D01*
X028707Y023547D02*
X028779Y023547D01*
X028745Y023626D02*
X028670Y023626D01*
X028633Y023704D02*
X028711Y023704D01*
X028677Y023783D02*
X028598Y023783D01*
X028562Y023861D02*
X028643Y023861D01*
X028609Y023940D02*
X028527Y023940D01*
X028497Y024018D02*
X028568Y024018D01*
X028589Y024097D02*
X028456Y024097D01*
X028420Y024175D02*
X028670Y024175D01*
X028805Y024254D02*
X028371Y024254D01*
X028329Y024332D02*
X028940Y024332D01*
X029075Y024411D02*
X028286Y024411D01*
X028244Y024490D02*
X029210Y024490D01*
X029344Y024568D02*
X028209Y024568D01*
X028160Y024647D02*
X029479Y024647D01*
X029614Y024725D02*
X028118Y024725D01*
X028062Y024804D02*
X029749Y024804D01*
X029884Y024882D02*
X028014Y024882D01*
X027965Y024961D02*
X030019Y024961D01*
X030153Y025039D02*
X027916Y025039D01*
X027873Y025118D02*
X030288Y025118D01*
X030423Y025196D02*
X027818Y025196D01*
X028726Y020998D02*
X029021Y020861D01*
X028684Y019826D01*
X029021Y020861D02*
X028461Y017501D01*
X028381Y017661D01*
X028758Y007524D02*
X027800Y007524D01*
X016391Y011533D02*
X016101Y011261D01*
X014378Y016400D02*
X013250Y016400D01*
X014671Y017284D02*
X014578Y017489D01*
X014901Y016861D01*
X014578Y017489D02*
X014516Y017627D01*
X010927Y018654D02*
X010630Y018805D01*
X010850Y019826D02*
X010968Y019826D01*
X005263Y020484D02*
X000579Y020484D01*
X000607Y020562D02*
X005193Y020562D01*
X005172Y020641D02*
X000635Y020641D01*
X000663Y020719D02*
X005142Y020719D01*
X005111Y020798D02*
X000690Y020798D01*
X000718Y020877D02*
X005070Y020877D01*
X005023Y020955D02*
X000766Y020955D01*
X000816Y021034D02*
X004976Y021034D01*
X004929Y021112D02*
X000865Y021112D01*
X000915Y021191D02*
X004882Y021191D01*
X004836Y021269D02*
X000965Y021269D01*
X001016Y021348D02*
X004769Y021348D01*
X004694Y021426D02*
X001095Y021426D01*
X001175Y021505D02*
X004618Y021505D01*
X004543Y021583D02*
X001255Y021583D01*
X001334Y021662D02*
X004468Y021662D01*
X004362Y021741D02*
X001421Y021741D01*
X001548Y021819D02*
X004242Y021819D01*
X004122Y021898D02*
X001676Y021898D01*
X001803Y021976D02*
X004002Y021976D01*
X003803Y022055D02*
X001982Y022055D01*
X002214Y022133D02*
X003590Y022133D01*
X003196Y022212D02*
X002590Y022212D01*
X000586Y019149D02*
X005234Y019149D01*
X005193Y019070D02*
X000614Y019070D01*
X000642Y018991D02*
X005165Y018991D01*
X005134Y018913D02*
X000670Y018913D01*
X000697Y018834D02*
X005104Y018834D01*
X005058Y018756D02*
X000728Y018756D01*
X000778Y018677D02*
X005011Y018677D01*
X004964Y018599D02*
X000828Y018599D01*
X000878Y018520D02*
X004918Y018520D01*
X004871Y018442D02*
X000928Y018442D01*
X000978Y018363D02*
X004824Y018363D01*
X004750Y018285D02*
X001036Y018285D01*
X001116Y018206D02*
X004675Y018206D01*
X004599Y018128D02*
X001195Y018128D01*
X001275Y018049D02*
X004524Y018049D01*
X004449Y017970D02*
X001354Y017970D01*
X001453Y017892D02*
X004332Y017892D01*
X004212Y017813D02*
X001580Y017813D01*
X001708Y017735D02*
X004092Y017735D01*
X003962Y017656D02*
X001835Y017656D01*
X002040Y017578D02*
X003749Y017578D01*
X003536Y017499D02*
X002273Y017499D01*
X002789Y017421D02*
X003041Y017421D01*
X010979Y032108D02*
X011735Y032108D01*
X013465Y035643D02*
X009232Y035643D01*
X009272Y035721D02*
X013421Y035721D01*
X013364Y035800D02*
X009312Y035800D01*
X009369Y035878D02*
X013306Y035878D01*
X013249Y035957D02*
X009435Y035957D01*
X009501Y036035D02*
X013192Y036035D01*
X013135Y036114D02*
X009567Y036114D01*
X009633Y036192D02*
X013050Y036192D01*
X012960Y036271D02*
X009710Y036271D01*
X009815Y036350D02*
X012869Y036350D01*
X012779Y036428D02*
X009919Y036428D01*
X010024Y036507D02*
X012673Y036507D01*
X012525Y036585D02*
X010136Y036585D01*
X010312Y036664D02*
X012377Y036664D01*
X012229Y036742D02*
X010489Y036742D01*
X010729Y036821D02*
X011937Y036821D01*
X011263Y036899D02*
X011134Y036899D01*
D15*
X018301Y028941D03*
X020221Y025181D03*
X020374Y024274D03*
X021401Y024274D03*
X021101Y025181D03*
X017821Y024701D03*
X016701Y021741D03*
X020141Y019581D03*
X021101Y019581D03*
X021101Y019101D03*
X022461Y020781D03*
X022941Y020781D03*
X021421Y021421D03*
X022781Y016861D03*
X028381Y017661D03*
D16*
X028684Y019826D03*
X019826Y010968D03*
X010968Y019826D03*
X019826Y028684D03*
D17*
X019826Y029021D01*
X018541Y029021D01*
X018541Y028941D01*
X018301Y028941D01*
M02*
