G75*
G70*
%OFA0B0*%
%FSLAX24Y24*%
%IPPOS*%
%LPD*%
%AMOC8*
5,1,8,0,0,1.08239X$1,22.5*
%
%ADD10C,0.0010*%
%ADD11C,0.4051*%
%ADD12C,0.0679*%
%ADD13R,0.0394X0.0787*%
%ADD14R,0.0787X0.0394*%
%ADD15R,0.0580X0.0140*%
%ADD16R,0.0060X0.0060*%
%ADD17R,0.0551X0.0433*%
%ADD18R,0.0433X0.0551*%
%ADD19R,0.0157X0.0591*%
%ADD20R,0.0240X0.0870*%
%ADD21R,0.0984X0.2362*%
%ADD22R,0.0394X0.0984*%
%ADD23R,0.1535X0.1535*%
%ADD24R,0.1260X0.1260*%
%ADD25R,0.0780X0.0210*%
%ADD26R,0.0591X0.0512*%
%ADD27R,0.0512X0.0591*%
%ADD28R,0.0394X0.0236*%
%ADD29C,0.0197*%
%ADD30C,0.0240*%
%ADD31C,0.0080*%
%ADD32C,0.0120*%
%ADD33OC8,0.0240*%
%ADD34C,0.0413*%
%ADD35C,0.0160*%
D10*
X007661Y011913D02*
X007686Y011790D01*
X007705Y011666D01*
X007717Y011541D01*
X007724Y011416D01*
X007724Y011291D01*
X007719Y011166D01*
X007707Y011041D01*
X007689Y010917D01*
X007666Y010794D01*
X007636Y010673D01*
X007600Y010553D01*
X007559Y010434D01*
X007511Y010318D01*
X007458Y010205D01*
X007400Y010094D01*
X007336Y009986D01*
X007268Y009881D01*
X007194Y009780D01*
X007115Y009683D01*
X007032Y009589D01*
X006944Y009500D01*
X006852Y009415D01*
X006755Y009335D01*
X006655Y009259D01*
X006552Y009189D01*
X006445Y009124D01*
X006335Y009064D01*
X006222Y009009D01*
X006107Y008960D01*
X005990Y008917D01*
X005870Y008879D01*
X005749Y008847D01*
X005626Y008822D01*
X005503Y008802D01*
X005378Y008788D01*
X005253Y008781D01*
X005128Y008779D01*
X005003Y008784D01*
X004878Y008795D01*
X004754Y008812D01*
X004630Y008834D01*
X004509Y008863D01*
X004388Y008898D01*
X004270Y008939D01*
X004153Y008985D01*
X004039Y009037D01*
X003928Y009095D01*
X003820Y009158D01*
X003715Y009226D01*
X003613Y009299D01*
X003515Y009377D01*
X003421Y009460D01*
X003331Y009547D01*
X003246Y009639D01*
X003165Y009734D01*
X003088Y009834D01*
X003017Y009937D01*
X002951Y010043D01*
X002890Y010152D01*
X002835Y010265D01*
X002785Y010380D01*
X002741Y010497D01*
X002702Y010616D01*
X002670Y010737D01*
X002643Y010860D01*
X002622Y010983D01*
X002608Y011107D01*
X002599Y011232D01*
X002597Y011358D01*
X002601Y011483D01*
X002611Y011608D01*
X002627Y011732D01*
X002649Y011855D01*
X002677Y011977D01*
X002711Y012098D01*
X002750Y012217D01*
X002796Y012333D01*
X002847Y012448D01*
X002904Y012560D01*
X002966Y012668D01*
X003033Y012774D01*
X003106Y012876D01*
X003183Y012975D01*
X003265Y013069D01*
X003352Y013160D01*
X003443Y013246D01*
X003538Y013328D01*
X003637Y013405D01*
X003739Y013477D01*
X003845Y013544D01*
X003954Y013605D01*
X004066Y013661D01*
X004181Y013712D01*
X004297Y013757D01*
X004416Y013796D01*
X004537Y013830D01*
X004659Y013857D01*
X004783Y013879D01*
X004907Y013894D01*
X005032Y013904D01*
X005157Y013907D01*
X005282Y013904D01*
X005407Y013895D01*
X005532Y013880D01*
X005655Y013859D01*
X005777Y013832D01*
X005898Y013799D01*
X006017Y013760D01*
X006134Y013715D01*
X006249Y013665D01*
X006361Y013609D01*
X006470Y013547D01*
X006576Y013481D01*
X006679Y013409D01*
X006778Y013333D01*
X006874Y013251D01*
X006873Y013251D02*
X010929Y015614D01*
X011716Y014236D02*
X007661Y011913D01*
X011913Y007661D02*
X014236Y011716D01*
X015614Y010929D02*
X013251Y006873D01*
X013251Y006874D02*
X013333Y006778D01*
X013409Y006679D01*
X013481Y006576D01*
X013547Y006470D01*
X013609Y006361D01*
X013665Y006249D01*
X013715Y006134D01*
X013760Y006017D01*
X013799Y005898D01*
X013832Y005777D01*
X013859Y005655D01*
X013880Y005532D01*
X013895Y005407D01*
X013904Y005282D01*
X013907Y005157D01*
X013904Y005032D01*
X013894Y004907D01*
X013879Y004783D01*
X013857Y004659D01*
X013830Y004537D01*
X013796Y004416D01*
X013757Y004297D01*
X013712Y004181D01*
X013661Y004066D01*
X013605Y003954D01*
X013544Y003845D01*
X013477Y003739D01*
X013405Y003637D01*
X013328Y003538D01*
X013246Y003443D01*
X013160Y003352D01*
X013069Y003265D01*
X012975Y003183D01*
X012876Y003106D01*
X012774Y003033D01*
X012668Y002966D01*
X012560Y002904D01*
X012448Y002847D01*
X012333Y002796D01*
X012217Y002750D01*
X012098Y002711D01*
X011977Y002677D01*
X011855Y002649D01*
X011732Y002627D01*
X011608Y002611D01*
X011483Y002601D01*
X011358Y002597D01*
X011232Y002599D01*
X011107Y002608D01*
X010983Y002622D01*
X010860Y002643D01*
X010737Y002670D01*
X010616Y002702D01*
X010497Y002741D01*
X010380Y002785D01*
X010265Y002835D01*
X010152Y002890D01*
X010043Y002951D01*
X009937Y003017D01*
X009834Y003088D01*
X009734Y003165D01*
X009639Y003246D01*
X009547Y003331D01*
X009460Y003421D01*
X009377Y003515D01*
X009299Y003613D01*
X009226Y003715D01*
X009158Y003820D01*
X009095Y003928D01*
X009037Y004039D01*
X008985Y004153D01*
X008939Y004270D01*
X008898Y004388D01*
X008863Y004509D01*
X008834Y004630D01*
X008812Y004754D01*
X008795Y004878D01*
X008784Y005003D01*
X008779Y005128D01*
X008781Y005253D01*
X008788Y005378D01*
X008802Y005503D01*
X008822Y005626D01*
X008847Y005749D01*
X008879Y005870D01*
X008917Y005990D01*
X008960Y006107D01*
X009009Y006222D01*
X009064Y006335D01*
X009124Y006445D01*
X009189Y006552D01*
X009259Y006655D01*
X009335Y006755D01*
X009415Y006852D01*
X009500Y006944D01*
X009589Y007032D01*
X009683Y007115D01*
X009780Y007194D01*
X009881Y007268D01*
X009986Y007336D01*
X010094Y007400D01*
X010205Y007458D01*
X010318Y007511D01*
X010434Y007559D01*
X010553Y007600D01*
X010673Y007636D01*
X010794Y007666D01*
X010917Y007689D01*
X011041Y007707D01*
X011166Y007719D01*
X011291Y007724D01*
X011416Y007724D01*
X011541Y007717D01*
X011666Y007705D01*
X011790Y007686D01*
X011913Y007661D01*
X019039Y005338D02*
X019039Y010023D01*
X020614Y010023D02*
X020614Y005338D01*
X020613Y005338D02*
X020732Y005297D01*
X020848Y005250D01*
X020961Y005197D01*
X021072Y005139D01*
X021180Y005076D01*
X021284Y005007D01*
X021386Y004933D01*
X021483Y004855D01*
X021576Y004772D01*
X021666Y004684D01*
X021751Y004592D01*
X021831Y004497D01*
X021907Y004397D01*
X021977Y004294D01*
X022043Y004187D01*
X022103Y004077D01*
X022158Y003965D01*
X022207Y003850D01*
X022251Y003733D01*
X022289Y003613D01*
X022321Y003492D01*
X022347Y003370D01*
X022367Y003247D01*
X022381Y003122D01*
X022389Y002997D01*
X022391Y002872D01*
X022387Y002747D01*
X022376Y002622D01*
X022360Y002498D01*
X022337Y002375D01*
X022309Y002253D01*
X022275Y002133D01*
X022234Y002015D01*
X022189Y001898D01*
X022137Y001784D01*
X022080Y001673D01*
X022018Y001564D01*
X021950Y001459D01*
X021877Y001357D01*
X021800Y001259D01*
X021718Y001165D01*
X021631Y001075D01*
X021540Y000989D01*
X021445Y000907D01*
X021346Y000831D01*
X021243Y000759D01*
X021137Y000693D01*
X021028Y000631D01*
X020916Y000575D01*
X020802Y000525D01*
X020685Y000480D01*
X020566Y000441D01*
X020445Y000408D01*
X020323Y000381D01*
X020200Y000359D01*
X020076Y000344D01*
X019951Y000335D01*
X019826Y000332D01*
X019701Y000335D01*
X019576Y000344D01*
X019452Y000359D01*
X019329Y000381D01*
X019207Y000408D01*
X019086Y000441D01*
X018967Y000480D01*
X018850Y000525D01*
X018736Y000575D01*
X018624Y000631D01*
X018515Y000693D01*
X018409Y000759D01*
X018306Y000831D01*
X018207Y000907D01*
X018112Y000989D01*
X018021Y001075D01*
X017934Y001165D01*
X017852Y001259D01*
X017775Y001357D01*
X017702Y001459D01*
X017634Y001564D01*
X017572Y001673D01*
X017515Y001784D01*
X017463Y001898D01*
X017418Y002015D01*
X017377Y002133D01*
X017343Y002253D01*
X017315Y002375D01*
X017292Y002498D01*
X017276Y002622D01*
X017265Y002747D01*
X017261Y002872D01*
X017263Y002997D01*
X017271Y003122D01*
X017285Y003247D01*
X017305Y003370D01*
X017331Y003492D01*
X017363Y003613D01*
X017401Y003733D01*
X017445Y003850D01*
X017494Y003965D01*
X017549Y004077D01*
X017609Y004187D01*
X017675Y004294D01*
X017745Y004397D01*
X017821Y004497D01*
X017901Y004592D01*
X017986Y004684D01*
X018076Y004772D01*
X018169Y004855D01*
X018266Y004933D01*
X018368Y005007D01*
X018472Y005076D01*
X018580Y005139D01*
X018691Y005197D01*
X018804Y005250D01*
X018920Y005297D01*
X019039Y005338D01*
X024039Y010929D02*
X026401Y006873D01*
X027740Y007661D02*
X025417Y011716D01*
X027936Y014236D02*
X031991Y011913D01*
X032779Y013251D02*
X028724Y015614D01*
X029629Y019039D02*
X034314Y019039D01*
X034314Y020614D02*
X029629Y020614D01*
X028724Y024039D02*
X032779Y026401D01*
X031991Y027740D02*
X027936Y025417D01*
X025417Y027936D02*
X027740Y031991D01*
X026401Y032779D02*
X024039Y028724D01*
X020614Y029629D02*
X020614Y034314D01*
X019039Y034314D02*
X019039Y029629D01*
X015614Y028724D02*
X013251Y032779D01*
X011913Y031991D02*
X014236Y027936D01*
X011716Y025417D02*
X007661Y027740D01*
X006873Y026362D02*
X010929Y024039D01*
X010023Y020614D02*
X005338Y020614D01*
X005338Y019039D02*
X010023Y019039D01*
X005338Y019039D02*
X005297Y018920D01*
X005250Y018804D01*
X005197Y018691D01*
X005139Y018580D01*
X005076Y018472D01*
X005007Y018368D01*
X004933Y018266D01*
X004855Y018169D01*
X004772Y018076D01*
X004684Y017986D01*
X004592Y017901D01*
X004497Y017821D01*
X004397Y017745D01*
X004294Y017675D01*
X004187Y017609D01*
X004077Y017549D01*
X003965Y017494D01*
X003850Y017445D01*
X003733Y017401D01*
X003613Y017363D01*
X003492Y017331D01*
X003370Y017305D01*
X003247Y017285D01*
X003122Y017271D01*
X002997Y017263D01*
X002872Y017261D01*
X002747Y017265D01*
X002622Y017276D01*
X002498Y017292D01*
X002375Y017315D01*
X002253Y017343D01*
X002133Y017377D01*
X002015Y017418D01*
X001898Y017463D01*
X001784Y017515D01*
X001673Y017572D01*
X001564Y017634D01*
X001459Y017702D01*
X001357Y017775D01*
X001259Y017852D01*
X001165Y017934D01*
X001075Y018021D01*
X000989Y018112D01*
X000907Y018207D01*
X000831Y018306D01*
X000759Y018409D01*
X000693Y018515D01*
X000631Y018624D01*
X000575Y018736D01*
X000525Y018850D01*
X000480Y018967D01*
X000441Y019086D01*
X000408Y019207D01*
X000381Y019329D01*
X000359Y019452D01*
X000344Y019576D01*
X000335Y019701D01*
X000332Y019826D01*
X000335Y019951D01*
X000344Y020076D01*
X000359Y020200D01*
X000381Y020323D01*
X000408Y020445D01*
X000441Y020566D01*
X000480Y020685D01*
X000525Y020802D01*
X000575Y020916D01*
X000631Y021028D01*
X000693Y021137D01*
X000759Y021243D01*
X000831Y021346D01*
X000907Y021445D01*
X000989Y021540D01*
X001075Y021631D01*
X001165Y021718D01*
X001259Y021800D01*
X001357Y021877D01*
X001459Y021950D01*
X001564Y022018D01*
X001673Y022080D01*
X001784Y022137D01*
X001898Y022189D01*
X002015Y022234D01*
X002133Y022275D01*
X002253Y022309D01*
X002375Y022337D01*
X002498Y022360D01*
X002622Y022376D01*
X002747Y022387D01*
X002872Y022391D01*
X002997Y022389D01*
X003122Y022381D01*
X003247Y022367D01*
X003370Y022347D01*
X003492Y022321D01*
X003613Y022289D01*
X003733Y022251D01*
X003850Y022207D01*
X003965Y022158D01*
X004077Y022103D01*
X004187Y022043D01*
X004294Y021977D01*
X004397Y021907D01*
X004497Y021831D01*
X004592Y021751D01*
X004684Y021666D01*
X004772Y021576D01*
X004855Y021483D01*
X004933Y021386D01*
X005007Y021284D01*
X005076Y021180D01*
X005139Y021072D01*
X005197Y020961D01*
X005250Y020848D01*
X005297Y020732D01*
X005338Y020613D01*
X006873Y026362D02*
X006779Y026281D01*
X006681Y026204D01*
X006580Y026133D01*
X006475Y026066D01*
X006366Y026005D01*
X006255Y025949D01*
X006142Y025898D01*
X006026Y025853D01*
X005908Y025814D01*
X005788Y025780D01*
X005667Y025753D01*
X005545Y025731D01*
X005421Y025715D01*
X005298Y025706D01*
X005173Y025702D01*
X005049Y025704D01*
X004925Y025713D01*
X004801Y025727D01*
X004679Y025748D01*
X004557Y025774D01*
X004437Y025807D01*
X004319Y025845D01*
X004203Y025889D01*
X004089Y025938D01*
X003977Y025993D01*
X003869Y026053D01*
X003763Y026119D01*
X003661Y026190D01*
X003562Y026265D01*
X003467Y026345D01*
X003376Y026430D01*
X003289Y026519D01*
X003207Y026612D01*
X003129Y026710D01*
X003057Y026810D01*
X002989Y026914D01*
X002926Y027022D01*
X002869Y027132D01*
X002817Y027245D01*
X002771Y027360D01*
X002730Y027478D01*
X002695Y027597D01*
X002666Y027718D01*
X002643Y027840D01*
X002626Y027963D01*
X002614Y028087D01*
X002609Y028211D01*
X002610Y028336D01*
X002617Y028460D01*
X002630Y028583D01*
X002649Y028706D01*
X002674Y028828D01*
X002705Y028948D01*
X002742Y029067D01*
X002784Y029184D01*
X002833Y029299D01*
X002886Y029411D01*
X002945Y029520D01*
X003010Y029627D01*
X003079Y029730D01*
X003153Y029829D01*
X003232Y029925D01*
X003316Y030017D01*
X003404Y030105D01*
X003496Y030188D01*
X003592Y030267D01*
X003692Y030341D01*
X003796Y030410D01*
X003902Y030474D01*
X004012Y030533D01*
X004124Y030586D01*
X004239Y030634D01*
X004356Y030676D01*
X004475Y030712D01*
X004595Y030743D01*
X004717Y030767D01*
X004840Y030786D01*
X004964Y030798D01*
X005088Y030805D01*
X005212Y030805D01*
X005336Y030800D01*
X005460Y030788D01*
X005583Y030771D01*
X005705Y030747D01*
X005826Y030718D01*
X005945Y030683D01*
X006063Y030641D01*
X006178Y030595D01*
X006291Y030542D01*
X006401Y030485D01*
X006508Y030422D01*
X006612Y030354D01*
X006712Y030280D01*
X006809Y030202D01*
X006902Y030120D01*
X006991Y030033D01*
X007075Y029942D01*
X007155Y029846D01*
X007230Y029747D01*
X007301Y029645D01*
X007366Y029539D01*
X007426Y029430D01*
X007480Y029319D01*
X007529Y029204D01*
X007573Y029088D01*
X007611Y028969D01*
X007643Y028849D01*
X007669Y028728D01*
X007689Y028605D01*
X007703Y028482D01*
X007711Y028357D01*
X007713Y028233D01*
X007709Y028109D01*
X007699Y027985D01*
X007683Y027862D01*
X007661Y027739D01*
X011913Y031991D02*
X011790Y031966D01*
X011666Y031947D01*
X011541Y031935D01*
X011416Y031928D01*
X011291Y031928D01*
X011166Y031933D01*
X011041Y031945D01*
X010917Y031963D01*
X010794Y031986D01*
X010673Y032016D01*
X010553Y032052D01*
X010434Y032093D01*
X010318Y032141D01*
X010205Y032194D01*
X010094Y032252D01*
X009986Y032316D01*
X009881Y032384D01*
X009780Y032458D01*
X009683Y032537D01*
X009589Y032620D01*
X009500Y032708D01*
X009415Y032800D01*
X009335Y032897D01*
X009259Y032997D01*
X009189Y033100D01*
X009124Y033207D01*
X009064Y033317D01*
X009009Y033430D01*
X008960Y033545D01*
X008917Y033662D01*
X008879Y033782D01*
X008847Y033903D01*
X008822Y034026D01*
X008802Y034149D01*
X008788Y034274D01*
X008781Y034399D01*
X008779Y034524D01*
X008784Y034649D01*
X008795Y034774D01*
X008812Y034898D01*
X008834Y035022D01*
X008863Y035143D01*
X008898Y035264D01*
X008939Y035382D01*
X008985Y035499D01*
X009037Y035613D01*
X009095Y035724D01*
X009158Y035832D01*
X009226Y035937D01*
X009299Y036039D01*
X009377Y036137D01*
X009460Y036231D01*
X009547Y036321D01*
X009639Y036406D01*
X009734Y036487D01*
X009834Y036564D01*
X009937Y036635D01*
X010043Y036701D01*
X010152Y036762D01*
X010265Y036817D01*
X010380Y036867D01*
X010497Y036911D01*
X010616Y036950D01*
X010737Y036982D01*
X010860Y037009D01*
X010983Y037030D01*
X011107Y037044D01*
X011232Y037053D01*
X011358Y037055D01*
X011483Y037051D01*
X011608Y037041D01*
X011732Y037025D01*
X011855Y037003D01*
X011977Y036975D01*
X012098Y036941D01*
X012217Y036902D01*
X012333Y036856D01*
X012448Y036805D01*
X012560Y036748D01*
X012668Y036686D01*
X012774Y036619D01*
X012876Y036546D01*
X012975Y036469D01*
X013069Y036387D01*
X013160Y036300D01*
X013246Y036209D01*
X013328Y036114D01*
X013405Y036015D01*
X013477Y035913D01*
X013544Y035807D01*
X013605Y035698D01*
X013661Y035586D01*
X013712Y035471D01*
X013757Y035355D01*
X013796Y035236D01*
X013830Y035115D01*
X013857Y034993D01*
X013879Y034869D01*
X013894Y034745D01*
X013904Y034620D01*
X013907Y034495D01*
X013904Y034370D01*
X013895Y034245D01*
X013880Y034120D01*
X013859Y033997D01*
X013832Y033875D01*
X013799Y033754D01*
X013760Y033635D01*
X013715Y033518D01*
X013665Y033403D01*
X013609Y033291D01*
X013547Y033182D01*
X013481Y033076D01*
X013409Y032973D01*
X013333Y032874D01*
X013251Y032778D01*
X019039Y034314D02*
X018920Y034355D01*
X018804Y034402D01*
X018691Y034455D01*
X018580Y034513D01*
X018472Y034576D01*
X018368Y034645D01*
X018266Y034719D01*
X018169Y034797D01*
X018076Y034880D01*
X017986Y034968D01*
X017901Y035060D01*
X017821Y035155D01*
X017745Y035255D01*
X017675Y035358D01*
X017609Y035465D01*
X017549Y035575D01*
X017494Y035687D01*
X017445Y035802D01*
X017401Y035919D01*
X017363Y036039D01*
X017331Y036160D01*
X017305Y036282D01*
X017285Y036405D01*
X017271Y036530D01*
X017263Y036655D01*
X017261Y036780D01*
X017265Y036905D01*
X017276Y037030D01*
X017292Y037154D01*
X017315Y037277D01*
X017343Y037399D01*
X017377Y037519D01*
X017418Y037637D01*
X017463Y037754D01*
X017515Y037868D01*
X017572Y037979D01*
X017634Y038088D01*
X017702Y038193D01*
X017775Y038295D01*
X017852Y038393D01*
X017934Y038487D01*
X018021Y038577D01*
X018112Y038663D01*
X018207Y038745D01*
X018306Y038821D01*
X018409Y038893D01*
X018515Y038959D01*
X018624Y039021D01*
X018736Y039077D01*
X018850Y039127D01*
X018967Y039172D01*
X019086Y039211D01*
X019207Y039244D01*
X019329Y039271D01*
X019452Y039293D01*
X019576Y039308D01*
X019701Y039317D01*
X019826Y039320D01*
X019951Y039317D01*
X020076Y039308D01*
X020200Y039293D01*
X020323Y039271D01*
X020445Y039244D01*
X020566Y039211D01*
X020685Y039172D01*
X020802Y039127D01*
X020916Y039077D01*
X021028Y039021D01*
X021137Y038959D01*
X021243Y038893D01*
X021346Y038821D01*
X021445Y038745D01*
X021540Y038663D01*
X021631Y038577D01*
X021718Y038487D01*
X021800Y038393D01*
X021877Y038295D01*
X021950Y038193D01*
X022018Y038088D01*
X022080Y037979D01*
X022137Y037868D01*
X022189Y037754D01*
X022234Y037637D01*
X022275Y037519D01*
X022309Y037399D01*
X022337Y037277D01*
X022360Y037154D01*
X022376Y037030D01*
X022387Y036905D01*
X022391Y036780D01*
X022389Y036655D01*
X022381Y036530D01*
X022367Y036405D01*
X022347Y036282D01*
X022321Y036160D01*
X022289Y036039D01*
X022251Y035919D01*
X022207Y035802D01*
X022158Y035687D01*
X022103Y035575D01*
X022043Y035465D01*
X021977Y035358D01*
X021907Y035255D01*
X021831Y035155D01*
X021751Y035060D01*
X021666Y034968D01*
X021576Y034880D01*
X021483Y034797D01*
X021386Y034719D01*
X021284Y034645D01*
X021180Y034576D01*
X021072Y034513D01*
X020961Y034455D01*
X020848Y034402D01*
X020732Y034355D01*
X020613Y034314D01*
X026401Y032778D02*
X026319Y032874D01*
X026243Y032973D01*
X026171Y033076D01*
X026105Y033182D01*
X026043Y033291D01*
X025987Y033403D01*
X025937Y033518D01*
X025892Y033635D01*
X025853Y033754D01*
X025820Y033875D01*
X025793Y033997D01*
X025772Y034120D01*
X025757Y034245D01*
X025748Y034370D01*
X025745Y034495D01*
X025748Y034620D01*
X025758Y034745D01*
X025773Y034869D01*
X025795Y034993D01*
X025822Y035115D01*
X025856Y035236D01*
X025895Y035355D01*
X025940Y035471D01*
X025991Y035586D01*
X026047Y035698D01*
X026108Y035807D01*
X026175Y035913D01*
X026247Y036015D01*
X026324Y036114D01*
X026406Y036209D01*
X026492Y036300D01*
X026583Y036387D01*
X026677Y036469D01*
X026776Y036546D01*
X026878Y036619D01*
X026984Y036686D01*
X027092Y036748D01*
X027204Y036805D01*
X027319Y036856D01*
X027435Y036902D01*
X027554Y036941D01*
X027675Y036975D01*
X027797Y037003D01*
X027920Y037025D01*
X028044Y037041D01*
X028169Y037051D01*
X028294Y037055D01*
X028420Y037053D01*
X028545Y037044D01*
X028669Y037030D01*
X028792Y037009D01*
X028915Y036982D01*
X029036Y036950D01*
X029155Y036911D01*
X029272Y036867D01*
X029387Y036817D01*
X029500Y036762D01*
X029609Y036701D01*
X029715Y036635D01*
X029818Y036564D01*
X029918Y036487D01*
X030013Y036406D01*
X030105Y036321D01*
X030192Y036231D01*
X030275Y036137D01*
X030353Y036039D01*
X030426Y035937D01*
X030494Y035832D01*
X030557Y035724D01*
X030615Y035613D01*
X030667Y035499D01*
X030713Y035382D01*
X030754Y035264D01*
X030789Y035143D01*
X030818Y035022D01*
X030840Y034898D01*
X030857Y034774D01*
X030868Y034649D01*
X030873Y034524D01*
X030871Y034399D01*
X030864Y034274D01*
X030850Y034149D01*
X030830Y034026D01*
X030805Y033903D01*
X030773Y033782D01*
X030735Y033662D01*
X030692Y033545D01*
X030643Y033430D01*
X030588Y033317D01*
X030528Y033207D01*
X030463Y033100D01*
X030393Y032997D01*
X030317Y032897D01*
X030237Y032800D01*
X030152Y032708D01*
X030063Y032620D01*
X029969Y032537D01*
X029872Y032458D01*
X029771Y032384D01*
X029666Y032316D01*
X029558Y032252D01*
X029447Y032194D01*
X029334Y032141D01*
X029218Y032093D01*
X029099Y032052D01*
X028979Y032016D01*
X028858Y031986D01*
X028735Y031963D01*
X028611Y031945D01*
X028486Y031933D01*
X028361Y031928D01*
X028236Y031928D01*
X028111Y031935D01*
X027986Y031947D01*
X027862Y031966D01*
X027739Y031991D01*
X031991Y027739D02*
X031966Y027862D01*
X031947Y027986D01*
X031935Y028111D01*
X031928Y028236D01*
X031928Y028361D01*
X031933Y028486D01*
X031945Y028611D01*
X031963Y028735D01*
X031986Y028858D01*
X032016Y028979D01*
X032052Y029099D01*
X032093Y029218D01*
X032141Y029334D01*
X032194Y029447D01*
X032252Y029558D01*
X032316Y029666D01*
X032384Y029771D01*
X032458Y029872D01*
X032537Y029969D01*
X032620Y030063D01*
X032708Y030152D01*
X032800Y030237D01*
X032897Y030317D01*
X032997Y030393D01*
X033100Y030463D01*
X033207Y030528D01*
X033317Y030588D01*
X033430Y030643D01*
X033545Y030692D01*
X033662Y030735D01*
X033782Y030773D01*
X033903Y030805D01*
X034026Y030830D01*
X034149Y030850D01*
X034274Y030864D01*
X034399Y030871D01*
X034524Y030873D01*
X034649Y030868D01*
X034774Y030857D01*
X034898Y030840D01*
X035022Y030818D01*
X035143Y030789D01*
X035264Y030754D01*
X035382Y030713D01*
X035499Y030667D01*
X035613Y030615D01*
X035724Y030557D01*
X035832Y030494D01*
X035937Y030426D01*
X036039Y030353D01*
X036137Y030275D01*
X036231Y030192D01*
X036321Y030105D01*
X036406Y030013D01*
X036487Y029918D01*
X036564Y029818D01*
X036635Y029715D01*
X036701Y029609D01*
X036762Y029500D01*
X036817Y029387D01*
X036867Y029272D01*
X036911Y029155D01*
X036950Y029036D01*
X036982Y028915D01*
X037009Y028792D01*
X037030Y028669D01*
X037044Y028545D01*
X037053Y028420D01*
X037055Y028294D01*
X037051Y028169D01*
X037041Y028044D01*
X037025Y027920D01*
X037003Y027797D01*
X036975Y027675D01*
X036941Y027554D01*
X036902Y027435D01*
X036856Y027319D01*
X036805Y027204D01*
X036748Y027092D01*
X036686Y026984D01*
X036619Y026878D01*
X036546Y026776D01*
X036469Y026677D01*
X036387Y026583D01*
X036300Y026492D01*
X036209Y026406D01*
X036114Y026324D01*
X036015Y026247D01*
X035913Y026175D01*
X035807Y026108D01*
X035698Y026047D01*
X035586Y025991D01*
X035471Y025940D01*
X035355Y025895D01*
X035236Y025856D01*
X035115Y025822D01*
X034993Y025795D01*
X034869Y025773D01*
X034745Y025758D01*
X034620Y025748D01*
X034495Y025745D01*
X034370Y025748D01*
X034245Y025757D01*
X034120Y025772D01*
X033997Y025793D01*
X033875Y025820D01*
X033754Y025853D01*
X033635Y025892D01*
X033518Y025937D01*
X033403Y025987D01*
X033291Y026043D01*
X033182Y026105D01*
X033076Y026171D01*
X032973Y026243D01*
X032874Y026319D01*
X032778Y026401D01*
X034314Y020613D02*
X034355Y020732D01*
X034402Y020848D01*
X034455Y020961D01*
X034513Y021072D01*
X034576Y021180D01*
X034645Y021284D01*
X034719Y021386D01*
X034797Y021483D01*
X034880Y021576D01*
X034968Y021666D01*
X035060Y021751D01*
X035155Y021831D01*
X035255Y021907D01*
X035358Y021977D01*
X035465Y022043D01*
X035575Y022103D01*
X035687Y022158D01*
X035802Y022207D01*
X035919Y022251D01*
X036039Y022289D01*
X036160Y022321D01*
X036282Y022347D01*
X036405Y022367D01*
X036530Y022381D01*
X036655Y022389D01*
X036780Y022391D01*
X036905Y022387D01*
X037030Y022376D01*
X037154Y022360D01*
X037277Y022337D01*
X037399Y022309D01*
X037519Y022275D01*
X037637Y022234D01*
X037754Y022189D01*
X037868Y022137D01*
X037979Y022080D01*
X038088Y022018D01*
X038193Y021950D01*
X038295Y021877D01*
X038393Y021800D01*
X038487Y021718D01*
X038577Y021631D01*
X038663Y021540D01*
X038745Y021445D01*
X038821Y021346D01*
X038893Y021243D01*
X038959Y021137D01*
X039021Y021028D01*
X039077Y020916D01*
X039127Y020802D01*
X039172Y020685D01*
X039211Y020566D01*
X039244Y020445D01*
X039271Y020323D01*
X039293Y020200D01*
X039308Y020076D01*
X039317Y019951D01*
X039320Y019826D01*
X039317Y019701D01*
X039308Y019576D01*
X039293Y019452D01*
X039271Y019329D01*
X039244Y019207D01*
X039211Y019086D01*
X039172Y018967D01*
X039127Y018850D01*
X039077Y018736D01*
X039021Y018624D01*
X038959Y018515D01*
X038893Y018409D01*
X038821Y018306D01*
X038745Y018207D01*
X038663Y018112D01*
X038577Y018021D01*
X038487Y017934D01*
X038393Y017852D01*
X038295Y017775D01*
X038193Y017702D01*
X038088Y017634D01*
X037979Y017572D01*
X037868Y017515D01*
X037754Y017463D01*
X037637Y017418D01*
X037519Y017377D01*
X037399Y017343D01*
X037277Y017315D01*
X037154Y017292D01*
X037030Y017276D01*
X036905Y017265D01*
X036780Y017261D01*
X036655Y017263D01*
X036530Y017271D01*
X036405Y017285D01*
X036282Y017305D01*
X036160Y017331D01*
X036039Y017363D01*
X035919Y017401D01*
X035802Y017445D01*
X035687Y017494D01*
X035575Y017549D01*
X035465Y017609D01*
X035358Y017675D01*
X035255Y017745D01*
X035155Y017821D01*
X035060Y017901D01*
X034968Y017986D01*
X034880Y018076D01*
X034797Y018169D01*
X034719Y018266D01*
X034645Y018368D01*
X034576Y018472D01*
X034513Y018580D01*
X034455Y018691D01*
X034402Y018804D01*
X034355Y018920D01*
X034314Y019039D01*
X032778Y013251D02*
X032874Y013333D01*
X032973Y013409D01*
X033076Y013481D01*
X033182Y013547D01*
X033291Y013609D01*
X033403Y013665D01*
X033518Y013715D01*
X033635Y013760D01*
X033754Y013799D01*
X033875Y013832D01*
X033997Y013859D01*
X034120Y013880D01*
X034245Y013895D01*
X034370Y013904D01*
X034495Y013907D01*
X034620Y013904D01*
X034745Y013894D01*
X034869Y013879D01*
X034993Y013857D01*
X035115Y013830D01*
X035236Y013796D01*
X035355Y013757D01*
X035471Y013712D01*
X035586Y013661D01*
X035698Y013605D01*
X035807Y013544D01*
X035913Y013477D01*
X036015Y013405D01*
X036114Y013328D01*
X036209Y013246D01*
X036300Y013160D01*
X036387Y013069D01*
X036469Y012975D01*
X036546Y012876D01*
X036619Y012774D01*
X036686Y012668D01*
X036748Y012560D01*
X036805Y012448D01*
X036856Y012333D01*
X036902Y012217D01*
X036941Y012098D01*
X036975Y011977D01*
X037003Y011855D01*
X037025Y011732D01*
X037041Y011608D01*
X037051Y011483D01*
X037055Y011358D01*
X037053Y011232D01*
X037044Y011107D01*
X037030Y010983D01*
X037009Y010860D01*
X036982Y010737D01*
X036950Y010616D01*
X036911Y010497D01*
X036867Y010380D01*
X036817Y010265D01*
X036762Y010152D01*
X036701Y010043D01*
X036635Y009937D01*
X036564Y009834D01*
X036487Y009734D01*
X036406Y009639D01*
X036321Y009547D01*
X036231Y009460D01*
X036137Y009377D01*
X036039Y009299D01*
X035937Y009226D01*
X035832Y009158D01*
X035724Y009095D01*
X035613Y009037D01*
X035499Y008985D01*
X035382Y008939D01*
X035264Y008898D01*
X035143Y008863D01*
X035022Y008834D01*
X034898Y008812D01*
X034774Y008795D01*
X034649Y008784D01*
X034524Y008779D01*
X034399Y008781D01*
X034274Y008788D01*
X034149Y008802D01*
X034026Y008822D01*
X033903Y008847D01*
X033782Y008879D01*
X033662Y008917D01*
X033545Y008960D01*
X033430Y009009D01*
X033317Y009064D01*
X033207Y009124D01*
X033100Y009189D01*
X032997Y009259D01*
X032897Y009335D01*
X032800Y009415D01*
X032708Y009500D01*
X032620Y009589D01*
X032537Y009683D01*
X032458Y009780D01*
X032384Y009881D01*
X032316Y009986D01*
X032252Y010094D01*
X032194Y010205D01*
X032141Y010318D01*
X032093Y010434D01*
X032052Y010553D01*
X032016Y010673D01*
X031986Y010794D01*
X031963Y010917D01*
X031945Y011041D01*
X031933Y011166D01*
X031928Y011291D01*
X031928Y011416D01*
X031935Y011541D01*
X031947Y011666D01*
X031966Y011790D01*
X031991Y011913D01*
X027739Y007661D02*
X027862Y007686D01*
X027986Y007705D01*
X028111Y007717D01*
X028236Y007724D01*
X028361Y007724D01*
X028486Y007719D01*
X028611Y007707D01*
X028735Y007689D01*
X028858Y007666D01*
X028979Y007636D01*
X029099Y007600D01*
X029218Y007559D01*
X029334Y007511D01*
X029447Y007458D01*
X029558Y007400D01*
X029666Y007336D01*
X029771Y007268D01*
X029872Y007194D01*
X029969Y007115D01*
X030063Y007032D01*
X030152Y006944D01*
X030237Y006852D01*
X030317Y006755D01*
X030393Y006655D01*
X030463Y006552D01*
X030528Y006445D01*
X030588Y006335D01*
X030643Y006222D01*
X030692Y006107D01*
X030735Y005990D01*
X030773Y005870D01*
X030805Y005749D01*
X030830Y005626D01*
X030850Y005503D01*
X030864Y005378D01*
X030871Y005253D01*
X030873Y005128D01*
X030868Y005003D01*
X030857Y004878D01*
X030840Y004754D01*
X030818Y004630D01*
X030789Y004509D01*
X030754Y004388D01*
X030713Y004270D01*
X030667Y004153D01*
X030615Y004039D01*
X030557Y003928D01*
X030494Y003820D01*
X030426Y003715D01*
X030353Y003613D01*
X030275Y003515D01*
X030192Y003421D01*
X030105Y003331D01*
X030013Y003246D01*
X029918Y003165D01*
X029818Y003088D01*
X029715Y003017D01*
X029609Y002951D01*
X029500Y002890D01*
X029387Y002835D01*
X029272Y002785D01*
X029155Y002741D01*
X029036Y002702D01*
X028915Y002670D01*
X028792Y002643D01*
X028669Y002622D01*
X028545Y002608D01*
X028420Y002599D01*
X028294Y002597D01*
X028169Y002601D01*
X028044Y002611D01*
X027920Y002627D01*
X027797Y002649D01*
X027675Y002677D01*
X027554Y002711D01*
X027435Y002750D01*
X027319Y002796D01*
X027204Y002847D01*
X027092Y002904D01*
X026984Y002966D01*
X026878Y003033D01*
X026776Y003106D01*
X026677Y003183D01*
X026583Y003265D01*
X026492Y003352D01*
X026406Y003443D01*
X026324Y003538D01*
X026247Y003637D01*
X026175Y003739D01*
X026108Y003845D01*
X026047Y003954D01*
X025991Y004066D01*
X025940Y004181D01*
X025895Y004297D01*
X025856Y004416D01*
X025822Y004537D01*
X025795Y004659D01*
X025773Y004783D01*
X025758Y004907D01*
X025748Y005032D01*
X025745Y005157D01*
X025748Y005282D01*
X025757Y005407D01*
X025772Y005532D01*
X025793Y005655D01*
X025820Y005777D01*
X025853Y005898D01*
X025892Y006017D01*
X025937Y006134D01*
X025987Y006249D01*
X026043Y006361D01*
X026105Y006470D01*
X026171Y006576D01*
X026243Y006679D01*
X026319Y006778D01*
X026401Y006874D01*
X028724Y015613D02*
X028904Y016020D01*
X029066Y016435D01*
X029209Y016857D01*
X029332Y017285D01*
X029436Y017718D01*
X029521Y018155D01*
X029585Y018596D01*
X029630Y019039D01*
X024039Y028724D02*
X023632Y028904D01*
X023217Y029066D01*
X022795Y029209D01*
X022367Y029332D01*
X021934Y029436D01*
X021497Y029521D01*
X021056Y029585D01*
X020613Y029630D01*
X028724Y024039D02*
X028904Y023632D01*
X029066Y023217D01*
X029209Y022795D01*
X029332Y022367D01*
X029436Y021934D01*
X029521Y021497D01*
X029585Y021056D01*
X029630Y020613D01*
X024039Y010928D02*
X023632Y010748D01*
X023217Y010586D01*
X022795Y010443D01*
X022367Y010320D01*
X021934Y010216D01*
X021497Y010131D01*
X021056Y010067D01*
X020613Y010022D01*
X010928Y015613D02*
X010748Y016020D01*
X010586Y016435D01*
X010443Y016857D01*
X010320Y017285D01*
X010216Y017718D01*
X010131Y018155D01*
X010067Y018596D01*
X010022Y019039D01*
X015613Y028724D02*
X016020Y028904D01*
X016435Y029066D01*
X016857Y029209D01*
X017285Y029332D01*
X017718Y029436D01*
X018155Y029521D01*
X018596Y029585D01*
X019039Y029630D01*
X010928Y024039D02*
X010748Y023632D01*
X010586Y023217D01*
X010443Y022795D01*
X010320Y022367D01*
X010216Y021934D01*
X010131Y021497D01*
X010067Y021056D01*
X010022Y020613D01*
X015613Y010928D02*
X016020Y010748D01*
X016435Y010586D01*
X016857Y010443D01*
X017285Y010320D01*
X017718Y010216D01*
X018155Y010131D01*
X018596Y010067D01*
X019039Y010022D01*
X025416Y011716D02*
X025779Y011979D01*
X026130Y012257D01*
X026467Y012552D01*
X026791Y012861D01*
X027100Y013185D01*
X027395Y013522D01*
X027673Y013873D01*
X027936Y014236D01*
X027936Y025416D02*
X027673Y025779D01*
X027395Y026130D01*
X027100Y026467D01*
X026791Y026791D01*
X026467Y027100D01*
X026130Y027395D01*
X025779Y027673D01*
X025416Y027936D01*
X011716Y014236D02*
X011979Y013873D01*
X012257Y013522D01*
X012552Y013185D01*
X012861Y012861D01*
X013185Y012552D01*
X013522Y012257D01*
X013873Y011979D01*
X014236Y011716D01*
X011716Y025416D02*
X011979Y025779D01*
X012257Y026130D01*
X012552Y026467D01*
X012861Y026791D01*
X013185Y027100D01*
X013522Y027395D01*
X013873Y027673D01*
X014236Y027936D01*
D11*
X016781Y020701D03*
D12*
X025181Y027021D03*
X026941Y024861D03*
D13*
G36*
X033213Y028054D02*
X033016Y028396D01*
X033695Y028788D01*
X033892Y028446D01*
X033213Y028054D01*
G37*
G36*
X033528Y027509D02*
X033331Y027851D01*
X034010Y028243D01*
X034207Y027901D01*
X033528Y027509D01*
G37*
G36*
X033842Y026963D02*
X033645Y027305D01*
X034324Y027697D01*
X034521Y027355D01*
X033842Y026963D01*
G37*
G36*
X035297Y027803D02*
X035100Y028145D01*
X035779Y028537D01*
X035976Y028195D01*
X035297Y027803D01*
G37*
G36*
X034982Y028349D02*
X034785Y028691D01*
X035464Y029083D01*
X035661Y028741D01*
X034982Y028349D01*
G37*
G36*
X034667Y028894D02*
X034470Y029236D01*
X035149Y029628D01*
X035346Y029286D01*
X034667Y028894D01*
G37*
G36*
X028396Y033016D02*
X028054Y033213D01*
X028446Y033892D01*
X028788Y033695D01*
X028396Y033016D01*
G37*
G36*
X027851Y033330D02*
X027509Y033527D01*
X027901Y034206D01*
X028243Y034009D01*
X027851Y033330D01*
G37*
G36*
X027305Y033645D02*
X026963Y033842D01*
X027355Y034521D01*
X027697Y034324D01*
X027305Y033645D01*
G37*
G36*
X028691Y034785D02*
X028349Y034982D01*
X028741Y035661D01*
X029083Y035464D01*
X028691Y034785D01*
G37*
G36*
X029236Y034470D02*
X028894Y034667D01*
X029286Y035346D01*
X029628Y035149D01*
X029236Y034470D01*
G37*
G36*
X028145Y035100D02*
X027803Y035297D01*
X028195Y035976D01*
X028537Y035779D01*
X028145Y035100D01*
G37*
X020456Y035925D03*
X019826Y035925D03*
X019196Y035925D03*
X019196Y037605D03*
X019826Y037605D03*
X020456Y037605D03*
G36*
X012689Y033842D02*
X012347Y033645D01*
X011955Y034324D01*
X012297Y034521D01*
X012689Y033842D01*
G37*
G36*
X012144Y033527D02*
X011802Y033330D01*
X011410Y034009D01*
X011752Y034206D01*
X012144Y033527D01*
G37*
G36*
X011598Y033213D02*
X011256Y033016D01*
X010864Y033695D01*
X011206Y033892D01*
X011598Y033213D01*
G37*
G36*
X010758Y034667D02*
X010416Y034470D01*
X010024Y035149D01*
X010366Y035346D01*
X010758Y034667D01*
G37*
G36*
X011304Y034982D02*
X010962Y034785D01*
X010570Y035464D01*
X010912Y035661D01*
X011304Y034982D01*
G37*
G36*
X011849Y035297D02*
X011507Y035100D01*
X011115Y035779D01*
X011457Y035976D01*
X011849Y035297D01*
G37*
G36*
X006637Y028396D02*
X006440Y028054D01*
X005761Y028446D01*
X005958Y028788D01*
X006637Y028396D01*
G37*
G36*
X006322Y027851D02*
X006125Y027509D01*
X005446Y027901D01*
X005643Y028243D01*
X006322Y027851D01*
G37*
G36*
X006007Y027305D02*
X005810Y026963D01*
X005131Y027355D01*
X005328Y027697D01*
X006007Y027305D01*
G37*
G36*
X004867Y028691D02*
X004670Y028349D01*
X003991Y028741D01*
X004188Y029083D01*
X004867Y028691D01*
G37*
G36*
X005182Y029236D02*
X004985Y028894D01*
X004306Y029286D01*
X004503Y029628D01*
X005182Y029236D01*
G37*
G36*
X004552Y028145D02*
X004355Y027803D01*
X003676Y028195D01*
X003873Y028537D01*
X004552Y028145D01*
G37*
G36*
X005810Y012689D02*
X006007Y012347D01*
X005328Y011955D01*
X005131Y012297D01*
X005810Y012689D01*
G37*
G36*
X006125Y012144D02*
X006322Y011802D01*
X005643Y011410D01*
X005446Y011752D01*
X006125Y012144D01*
G37*
G36*
X006440Y011598D02*
X006637Y011256D01*
X005958Y010864D01*
X005761Y011206D01*
X006440Y011598D01*
G37*
G36*
X004985Y010758D02*
X005182Y010416D01*
X004503Y010024D01*
X004306Y010366D01*
X004985Y010758D01*
G37*
G36*
X004670Y011304D02*
X004867Y010962D01*
X004188Y010570D01*
X003991Y010912D01*
X004670Y011304D01*
G37*
G36*
X004355Y011849D02*
X004552Y011507D01*
X003873Y011115D01*
X003676Y011457D01*
X004355Y011849D01*
G37*
G36*
X011256Y006637D02*
X011598Y006440D01*
X011206Y005761D01*
X010864Y005958D01*
X011256Y006637D01*
G37*
G36*
X011802Y006322D02*
X012144Y006125D01*
X011752Y005446D01*
X011410Y005643D01*
X011802Y006322D01*
G37*
G36*
X012347Y006007D02*
X012689Y005810D01*
X012297Y005131D01*
X011955Y005328D01*
X012347Y006007D01*
G37*
G36*
X010962Y004867D02*
X011304Y004670D01*
X010912Y003991D01*
X010570Y004188D01*
X010962Y004867D01*
G37*
G36*
X010416Y005182D02*
X010758Y004985D01*
X010366Y004306D01*
X010024Y004503D01*
X010416Y005182D01*
G37*
G36*
X011507Y004552D02*
X011849Y004355D01*
X011457Y003676D01*
X011115Y003873D01*
X011507Y004552D01*
G37*
X019196Y003727D03*
X019826Y003727D03*
X020456Y003727D03*
X020456Y002047D03*
X019826Y002047D03*
X019196Y002047D03*
G36*
X026963Y005810D02*
X027305Y006007D01*
X027697Y005328D01*
X027355Y005131D01*
X026963Y005810D01*
G37*
G36*
X027509Y006125D02*
X027851Y006322D01*
X028243Y005643D01*
X027901Y005446D01*
X027509Y006125D01*
G37*
G36*
X028054Y006440D02*
X028396Y006637D01*
X028788Y005958D01*
X028446Y005761D01*
X028054Y006440D01*
G37*
G36*
X028894Y004985D02*
X029236Y005182D01*
X029628Y004503D01*
X029286Y004306D01*
X028894Y004985D01*
G37*
G36*
X028349Y004670D02*
X028691Y004867D01*
X029083Y004188D01*
X028741Y003991D01*
X028349Y004670D01*
G37*
G36*
X027803Y004355D02*
X028145Y004552D01*
X028537Y003873D01*
X028195Y003676D01*
X027803Y004355D01*
G37*
G36*
X033016Y011256D02*
X033213Y011598D01*
X033892Y011206D01*
X033695Y010864D01*
X033016Y011256D01*
G37*
G36*
X033331Y011802D02*
X033528Y012144D01*
X034207Y011752D01*
X034010Y011410D01*
X033331Y011802D01*
G37*
G36*
X033645Y012347D02*
X033842Y012689D01*
X034521Y012297D01*
X034324Y011955D01*
X033645Y012347D01*
G37*
G36*
X034785Y010962D02*
X034982Y011304D01*
X035661Y010912D01*
X035464Y010570D01*
X034785Y010962D01*
G37*
G36*
X034470Y010416D02*
X034667Y010758D01*
X035346Y010366D01*
X035149Y010024D01*
X034470Y010416D01*
G37*
G36*
X035100Y011507D02*
X035297Y011849D01*
X035976Y011457D01*
X035779Y011115D01*
X035100Y011507D01*
G37*
D14*
X035925Y019196D03*
X035925Y019826D03*
X035925Y020456D03*
X037605Y020456D03*
X037605Y019826D03*
X037605Y019196D03*
X003727Y019196D03*
X003727Y019826D03*
X003727Y020456D03*
X002047Y020456D03*
X002047Y019826D03*
X002047Y019196D03*
D15*
G36*
X010362Y018554D02*
X010922Y018703D01*
X010958Y018568D01*
X010398Y018419D01*
X010362Y018554D01*
G37*
G36*
X010427Y018312D02*
X010987Y018461D01*
X011023Y018326D01*
X010463Y018177D01*
X010427Y018312D01*
G37*
G36*
X010494Y018061D02*
X011054Y018210D01*
X011090Y018075D01*
X010530Y017926D01*
X010494Y018061D01*
G37*
G36*
X010562Y017810D02*
X011122Y017959D01*
X011158Y017824D01*
X010598Y017675D01*
X010562Y017810D01*
G37*
G36*
X010758Y017076D02*
X011318Y017225D01*
X011354Y017090D01*
X010794Y016941D01*
X010758Y017076D01*
G37*
G36*
X010826Y016825D02*
X011386Y016974D01*
X011422Y016839D01*
X010862Y016690D01*
X010826Y016825D01*
G37*
G36*
X010893Y016574D02*
X011453Y016723D01*
X011489Y016588D01*
X010929Y016439D01*
X010893Y016574D01*
G37*
G36*
X010958Y016332D02*
X011518Y016481D01*
X011554Y016346D01*
X010994Y016197D01*
X010958Y016332D01*
G37*
G36*
X012771Y018143D02*
X013331Y018292D01*
X013367Y018157D01*
X012807Y018008D01*
X012771Y018143D01*
G37*
G36*
X012706Y018385D02*
X013266Y018534D01*
X013302Y018399D01*
X012742Y018250D01*
X012706Y018385D01*
G37*
G36*
X012639Y018636D02*
X013199Y018785D01*
X013235Y018650D01*
X012675Y018501D01*
X012639Y018636D01*
G37*
G36*
X012572Y018887D02*
X013132Y019036D01*
X013168Y018901D01*
X012608Y018752D01*
X012572Y018887D01*
G37*
G36*
X012507Y019128D02*
X013067Y019277D01*
X013103Y019142D01*
X012543Y018993D01*
X012507Y019128D01*
G37*
G36*
X012838Y017892D02*
X013398Y018041D01*
X013434Y017906D01*
X012874Y017757D01*
X012838Y017892D01*
G37*
G36*
X012903Y017650D02*
X013463Y017799D01*
X013499Y017664D01*
X012939Y017515D01*
X012903Y017650D01*
G37*
G36*
X012970Y017399D02*
X013530Y017548D01*
X013566Y017413D01*
X013006Y017264D01*
X012970Y017399D01*
G37*
G36*
X013037Y017148D02*
X013597Y017297D01*
X013633Y017162D01*
X013073Y017013D01*
X013037Y017148D01*
G37*
G36*
X013102Y016907D02*
X013662Y017056D01*
X013698Y016921D01*
X013138Y016772D01*
X013102Y016907D01*
G37*
G36*
X016772Y013138D02*
X016921Y013698D01*
X017056Y013662D01*
X016907Y013102D01*
X016772Y013138D01*
G37*
G36*
X017013Y013073D02*
X017162Y013633D01*
X017297Y013597D01*
X017148Y013037D01*
X017013Y013073D01*
G37*
G36*
X017264Y013006D02*
X017413Y013566D01*
X017548Y013530D01*
X017399Y012970D01*
X017264Y013006D01*
G37*
G36*
X017516Y012939D02*
X017665Y013499D01*
X017800Y013463D01*
X017651Y012903D01*
X017516Y012939D01*
G37*
G36*
X017757Y012874D02*
X017906Y013434D01*
X018041Y013398D01*
X017892Y012838D01*
X017757Y012874D01*
G37*
G36*
X018008Y012807D02*
X018157Y013367D01*
X018292Y013331D01*
X018143Y012771D01*
X018008Y012807D01*
G37*
G36*
X018250Y012742D02*
X018399Y013302D01*
X018534Y013266D01*
X018385Y012706D01*
X018250Y012742D01*
G37*
G36*
X018501Y012675D02*
X018650Y013235D01*
X018785Y013199D01*
X018636Y012639D01*
X018501Y012675D01*
G37*
G36*
X018752Y012607D02*
X018901Y013167D01*
X019036Y013131D01*
X018887Y012571D01*
X018752Y012607D01*
G37*
G36*
X018993Y012543D02*
X019142Y013103D01*
X019277Y013067D01*
X019128Y012507D01*
X018993Y012543D01*
G37*
G36*
X018177Y010463D02*
X018326Y011023D01*
X018461Y010987D01*
X018312Y010427D01*
X018177Y010463D01*
G37*
G36*
X017926Y010530D02*
X018075Y011090D01*
X018210Y011054D01*
X018061Y010494D01*
X017926Y010530D01*
G37*
G36*
X017675Y010598D02*
X017824Y011158D01*
X017959Y011122D01*
X017810Y010562D01*
X017675Y010598D01*
G37*
G36*
X016941Y010794D02*
X017090Y011354D01*
X017225Y011318D01*
X017076Y010758D01*
X016941Y010794D01*
G37*
G36*
X016690Y010862D02*
X016839Y011422D01*
X016974Y011386D01*
X016825Y010826D01*
X016690Y010862D01*
G37*
G36*
X016439Y010929D02*
X016588Y011489D01*
X016723Y011453D01*
X016574Y010893D01*
X016439Y010929D01*
G37*
G36*
X016197Y010994D02*
X016346Y011554D01*
X016481Y011518D01*
X016332Y010958D01*
X016197Y010994D01*
G37*
G36*
X018419Y010398D02*
X018568Y010958D01*
X018703Y010922D01*
X018554Y010362D01*
X018419Y010398D01*
G37*
G36*
X024090Y013837D02*
X023681Y014246D01*
X023780Y014345D01*
X024189Y013936D01*
X024090Y013837D01*
G37*
G36*
X024267Y014014D02*
X023858Y014423D01*
X023957Y014522D01*
X024366Y014113D01*
X024267Y014014D01*
G37*
G36*
X024451Y014197D02*
X024042Y014606D01*
X024141Y014705D01*
X024550Y014296D01*
X024451Y014197D01*
G37*
G36*
X024635Y014381D02*
X024226Y014790D01*
X024325Y014889D01*
X024734Y014480D01*
X024635Y014381D01*
G37*
G36*
X024811Y014558D02*
X024402Y014967D01*
X024501Y015066D01*
X024910Y014657D01*
X024811Y014558D01*
G37*
G36*
X024995Y014742D02*
X024586Y015151D01*
X024685Y015250D01*
X025094Y014841D01*
X024995Y014742D01*
G37*
G36*
X025172Y014919D02*
X024763Y015328D01*
X024862Y015427D01*
X025271Y015018D01*
X025172Y014919D01*
G37*
G36*
X025356Y015103D02*
X024947Y015512D01*
X025046Y015611D01*
X025455Y015202D01*
X025356Y015103D01*
G37*
G36*
X025540Y015286D02*
X025131Y015695D01*
X025230Y015794D01*
X025639Y015385D01*
X025540Y015286D01*
G37*
G36*
X025716Y015463D02*
X025307Y015872D01*
X025406Y015971D01*
X025815Y015562D01*
X025716Y015463D01*
G37*
G36*
X027109Y013717D02*
X026700Y014126D01*
X026799Y014225D01*
X027208Y013816D01*
X027109Y013717D01*
G37*
G36*
X026926Y013533D02*
X026517Y013942D01*
X026616Y014041D01*
X027025Y013632D01*
X026926Y013533D01*
G37*
G36*
X026742Y013349D02*
X026333Y013758D01*
X026432Y013857D01*
X026841Y013448D01*
X026742Y013349D01*
G37*
G36*
X026204Y012812D02*
X025795Y013221D01*
X025894Y013320D01*
X026303Y012911D01*
X026204Y012812D01*
G37*
G36*
X026020Y012628D02*
X025611Y013037D01*
X025710Y013136D01*
X026119Y012727D01*
X026020Y012628D01*
G37*
G36*
X025837Y012444D02*
X025428Y012853D01*
X025527Y012952D01*
X025936Y012543D01*
X025837Y012444D01*
G37*
G36*
X025660Y012267D02*
X025251Y012676D01*
X025350Y012775D01*
X025759Y012366D01*
X025660Y012267D01*
G37*
G36*
X027286Y013893D02*
X026877Y014302D01*
X026976Y014401D01*
X027385Y013992D01*
X027286Y013893D01*
G37*
G36*
X027145Y020524D02*
X026585Y020375D01*
X026549Y020510D01*
X027109Y020659D01*
X027145Y020524D01*
G37*
G36*
X027081Y020765D02*
X026521Y020616D01*
X026485Y020751D01*
X027045Y020900D01*
X027081Y020765D01*
G37*
G36*
X027014Y021017D02*
X026454Y020868D01*
X026418Y021003D01*
X026978Y021152D01*
X027014Y021017D01*
G37*
G36*
X026946Y021268D02*
X026386Y021119D01*
X026350Y021254D01*
X026910Y021403D01*
X026946Y021268D01*
G37*
G36*
X026882Y021509D02*
X026322Y021360D01*
X026286Y021495D01*
X026846Y021644D01*
X026882Y021509D01*
G37*
G36*
X026814Y021760D02*
X026254Y021611D01*
X026218Y021746D01*
X026778Y021895D01*
X026814Y021760D01*
G37*
G36*
X026749Y022002D02*
X026189Y021853D01*
X026153Y021988D01*
X026713Y022137D01*
X026749Y022002D01*
G37*
G36*
X026682Y022253D02*
X026122Y022104D01*
X026086Y022239D01*
X026646Y022388D01*
X026682Y022253D01*
G37*
G36*
X026615Y022504D02*
X026055Y022355D01*
X026019Y022490D01*
X026579Y022639D01*
X026615Y022504D01*
G37*
G36*
X026550Y022746D02*
X025990Y022597D01*
X025954Y022732D01*
X026514Y022881D01*
X026550Y022746D01*
G37*
G36*
X028695Y023320D02*
X028135Y023171D01*
X028099Y023306D01*
X028659Y023455D01*
X028695Y023320D01*
G37*
G36*
X028759Y023079D02*
X028199Y022930D01*
X028163Y023065D01*
X028723Y023214D01*
X028759Y023079D01*
G37*
G36*
X028827Y022828D02*
X028267Y022679D01*
X028231Y022814D01*
X028791Y022963D01*
X028827Y022828D01*
G37*
G36*
X028894Y022576D02*
X028334Y022427D01*
X028298Y022562D01*
X028858Y022711D01*
X028894Y022576D01*
G37*
G36*
X029091Y021842D02*
X028531Y021693D01*
X028495Y021828D01*
X029055Y021977D01*
X029091Y021842D01*
G37*
G36*
X029158Y021591D02*
X028598Y021442D01*
X028562Y021577D01*
X029122Y021726D01*
X029158Y021591D01*
G37*
G36*
X029225Y021340D02*
X028665Y021191D01*
X028629Y021326D01*
X029189Y021475D01*
X029225Y021340D01*
G37*
G36*
X029290Y021098D02*
X028730Y020949D01*
X028694Y021084D01*
X029254Y021233D01*
X029290Y021098D01*
G37*
G36*
X022881Y026514D02*
X022732Y025954D01*
X022597Y025990D01*
X022746Y026550D01*
X022881Y026514D01*
G37*
G36*
X022639Y026579D02*
X022490Y026019D01*
X022355Y026055D01*
X022504Y026615D01*
X022639Y026579D01*
G37*
G36*
X022388Y026646D02*
X022239Y026086D01*
X022104Y026122D01*
X022253Y026682D01*
X022388Y026646D01*
G37*
G36*
X022137Y026713D02*
X021988Y026153D01*
X021853Y026189D01*
X022002Y026749D01*
X022137Y026713D01*
G37*
G36*
X021895Y026778D02*
X021746Y026218D01*
X021611Y026254D01*
X021760Y026814D01*
X021895Y026778D01*
G37*
G36*
X021644Y026845D02*
X021495Y026285D01*
X021360Y026321D01*
X021509Y026881D01*
X021644Y026845D01*
G37*
G36*
X021403Y026910D02*
X021254Y026350D01*
X021119Y026386D01*
X021268Y026946D01*
X021403Y026910D01*
G37*
G36*
X021152Y026977D02*
X021003Y026417D01*
X020868Y026453D01*
X021017Y027013D01*
X021152Y026977D01*
G37*
G36*
X020900Y027045D02*
X020751Y026485D01*
X020616Y026521D01*
X020765Y027081D01*
X020900Y027045D01*
G37*
G36*
X020659Y027109D02*
X020510Y026549D01*
X020375Y026585D01*
X020524Y027145D01*
X020659Y027109D01*
G37*
G36*
X021475Y029189D02*
X021326Y028629D01*
X021191Y028665D01*
X021340Y029225D01*
X021475Y029189D01*
G37*
G36*
X021726Y029122D02*
X021577Y028562D01*
X021442Y028598D01*
X021591Y029158D01*
X021726Y029122D01*
G37*
G36*
X021977Y029055D02*
X021828Y028495D01*
X021693Y028531D01*
X021842Y029091D01*
X021977Y029055D01*
G37*
G36*
X022711Y028858D02*
X022562Y028298D01*
X022427Y028334D01*
X022576Y028894D01*
X022711Y028858D01*
G37*
G36*
X022963Y028791D02*
X022814Y028231D01*
X022679Y028267D01*
X022828Y028827D01*
X022963Y028791D01*
G37*
G36*
X023214Y028723D02*
X023065Y028163D01*
X022930Y028199D01*
X023079Y028759D01*
X023214Y028723D01*
G37*
G36*
X023455Y028659D02*
X023306Y028099D01*
X023171Y028135D01*
X023320Y028695D01*
X023455Y028659D01*
G37*
G36*
X021234Y029254D02*
X021085Y028694D01*
X020950Y028730D01*
X021099Y029290D01*
X021234Y029254D01*
G37*
G36*
X015562Y025815D02*
X015971Y025406D01*
X015872Y025307D01*
X015463Y025716D01*
X015562Y025815D01*
G37*
G36*
X015385Y025639D02*
X015794Y025230D01*
X015695Y025131D01*
X015286Y025540D01*
X015385Y025639D01*
G37*
G36*
X015202Y025455D02*
X015611Y025046D01*
X015512Y024947D01*
X015103Y025356D01*
X015202Y025455D01*
G37*
G36*
X015018Y025271D02*
X015427Y024862D01*
X015328Y024763D01*
X014919Y025172D01*
X015018Y025271D01*
G37*
G36*
X014841Y025094D02*
X015250Y024685D01*
X015151Y024586D01*
X014742Y024995D01*
X014841Y025094D01*
G37*
G36*
X014657Y024910D02*
X015066Y024501D01*
X014967Y024402D01*
X014558Y024811D01*
X014657Y024910D01*
G37*
G36*
X014480Y024733D02*
X014889Y024324D01*
X014790Y024225D01*
X014381Y024634D01*
X014480Y024733D01*
G37*
G36*
X014297Y024550D02*
X014706Y024141D01*
X014607Y024042D01*
X014198Y024451D01*
X014297Y024550D01*
G37*
G36*
X014113Y024366D02*
X014522Y023957D01*
X014423Y023858D01*
X014014Y024267D01*
X014113Y024366D01*
G37*
G36*
X013936Y024189D02*
X014345Y023780D01*
X014246Y023681D01*
X013837Y024090D01*
X013936Y024189D01*
G37*
G36*
X012366Y025759D02*
X012775Y025350D01*
X012676Y025251D01*
X012267Y025660D01*
X012366Y025759D01*
G37*
G36*
X012543Y025936D02*
X012952Y025527D01*
X012853Y025428D01*
X012444Y025837D01*
X012543Y025936D01*
G37*
G36*
X012727Y026119D02*
X013136Y025710D01*
X013037Y025611D01*
X012628Y026020D01*
X012727Y026119D01*
G37*
G36*
X012911Y026303D02*
X013320Y025894D01*
X013221Y025795D01*
X012812Y026204D01*
X012911Y026303D01*
G37*
G36*
X013448Y026841D02*
X013857Y026432D01*
X013758Y026333D01*
X013349Y026742D01*
X013448Y026841D01*
G37*
G36*
X013632Y027025D02*
X014041Y026616D01*
X013942Y026517D01*
X013533Y026926D01*
X013632Y027025D01*
G37*
G36*
X013816Y027208D02*
X014225Y026799D01*
X014126Y026700D01*
X013717Y027109D01*
X013816Y027208D01*
G37*
G36*
X013992Y027385D02*
X014401Y026976D01*
X014302Y026877D01*
X013893Y027286D01*
X013992Y027385D01*
G37*
D16*
G36*
X013660Y026318D02*
X013702Y026276D01*
X013660Y026234D01*
X013618Y026276D01*
X013660Y026318D01*
G37*
G36*
X013377Y026035D02*
X013419Y025993D01*
X013377Y025951D01*
X013335Y025993D01*
X013377Y026035D01*
G37*
G36*
X011121Y017731D02*
X011178Y017746D01*
X011193Y017689D01*
X011136Y017674D01*
X011121Y017731D01*
G37*
G36*
X011225Y017345D02*
X011282Y017360D01*
X011297Y017303D01*
X011240Y017288D01*
X011225Y017345D01*
G37*
G36*
X017288Y011240D02*
X017303Y011297D01*
X017360Y011282D01*
X017345Y011225D01*
X017288Y011240D01*
G37*
G36*
X017674Y011136D02*
X017689Y011193D01*
X017746Y011178D01*
X017731Y011121D01*
X017674Y011136D01*
G37*
G36*
X025993Y013335D02*
X025951Y013377D01*
X025993Y013419D01*
X026035Y013377D01*
X025993Y013335D01*
G37*
G36*
X026276Y013618D02*
X026234Y013660D01*
X026276Y013702D01*
X026318Y013660D01*
X026276Y013618D01*
G37*
G36*
X028531Y021921D02*
X028474Y021906D01*
X028459Y021963D01*
X028516Y021978D01*
X028531Y021921D01*
G37*
G36*
X028427Y022307D02*
X028370Y022292D01*
X028355Y022349D01*
X028412Y022364D01*
X028427Y022307D01*
G37*
G36*
X022364Y028412D02*
X022349Y028355D01*
X022292Y028370D01*
X022307Y028427D01*
X022364Y028412D01*
G37*
G36*
X021978Y028516D02*
X021963Y028459D01*
X021906Y028474D01*
X021921Y028531D01*
X021978Y028516D01*
G37*
D17*
X019826Y033212D03*
X019826Y033999D03*
X018056Y036269D03*
X018056Y037056D03*
X021596Y037056D03*
X021596Y036269D03*
X019826Y006440D03*
X019826Y005653D03*
X018056Y003384D03*
X018056Y002596D03*
X021596Y002596D03*
X021596Y003384D03*
D18*
G36*
X005465Y009809D02*
X005838Y010025D01*
X006113Y009549D01*
X005740Y009333D01*
X005465Y009809D01*
G37*
G36*
X006147Y010202D02*
X006520Y010418D01*
X006795Y009942D01*
X006422Y009726D01*
X006147Y010202D01*
G37*
G36*
X007228Y012870D02*
X007601Y013086D01*
X007876Y012610D01*
X007503Y012394D01*
X007228Y012870D01*
G37*
G36*
X007910Y013263D02*
X008283Y013479D01*
X008558Y013003D01*
X008185Y012787D01*
X007910Y013263D01*
G37*
G36*
X004378Y013267D02*
X004751Y013483D01*
X005026Y013007D01*
X004653Y012791D01*
X004378Y013267D01*
G37*
G36*
X003696Y012873D02*
X004069Y013089D01*
X004344Y012613D01*
X003971Y012397D01*
X003696Y012873D01*
G37*
X003384Y018056D03*
X002596Y018056D03*
X005653Y019826D03*
X006440Y019826D03*
X003384Y021596D03*
X002596Y021596D03*
G36*
X004653Y026861D02*
X005026Y026645D01*
X004751Y026169D01*
X004378Y026385D01*
X004653Y026861D01*
G37*
G36*
X003971Y027255D02*
X004344Y027039D01*
X004069Y026563D01*
X003696Y026779D01*
X003971Y027255D01*
G37*
G36*
X006422Y029926D02*
X006795Y029710D01*
X006520Y029234D01*
X006147Y029450D01*
X006422Y029926D01*
G37*
G36*
X005740Y030320D02*
X006113Y030104D01*
X005838Y029628D01*
X005465Y029844D01*
X005740Y030320D01*
G37*
G36*
X007503Y027259D02*
X007876Y027043D01*
X007601Y026567D01*
X007228Y026783D01*
X007503Y027259D01*
G37*
G36*
X008185Y026865D02*
X008558Y026649D01*
X008283Y026173D01*
X007910Y026389D01*
X008185Y026865D01*
G37*
G36*
X013263Y031743D02*
X013479Y031370D01*
X013003Y031095D01*
X012787Y031468D01*
X013263Y031743D01*
G37*
G36*
X012870Y032425D02*
X013086Y032052D01*
X012610Y031777D01*
X012394Y032150D01*
X012870Y032425D01*
G37*
G36*
X013267Y035275D02*
X013483Y034902D01*
X013007Y034627D01*
X012791Y035000D01*
X013267Y035275D01*
G37*
G36*
X012873Y035956D02*
X013089Y035583D01*
X012613Y035308D01*
X012397Y035681D01*
X012873Y035956D01*
G37*
G36*
X010202Y033505D02*
X010418Y033132D01*
X009942Y032857D01*
X009726Y033230D01*
X010202Y033505D01*
G37*
G36*
X009809Y034187D02*
X010025Y033814D01*
X009549Y033539D01*
X009333Y033912D01*
X009809Y034187D01*
G37*
X018448Y025732D03*
X019236Y025732D03*
G36*
X026865Y031468D02*
X026649Y031095D01*
X026173Y031370D01*
X026389Y031743D01*
X026865Y031468D01*
G37*
G36*
X027259Y032150D02*
X027043Y031777D01*
X026567Y032052D01*
X026783Y032425D01*
X027259Y032150D01*
G37*
G36*
X029926Y033230D02*
X029710Y032857D01*
X029234Y033132D01*
X029450Y033505D01*
X029926Y033230D01*
G37*
G36*
X030320Y033912D02*
X030104Y033539D01*
X029628Y033814D01*
X029844Y034187D01*
X030320Y033912D01*
G37*
G36*
X027255Y035681D02*
X027039Y035308D01*
X026563Y035583D01*
X026779Y035956D01*
X027255Y035681D01*
G37*
G36*
X026861Y035000D02*
X026645Y034627D01*
X026169Y034902D01*
X026385Y035275D01*
X026861Y035000D01*
G37*
G36*
X033505Y029450D02*
X033132Y029234D01*
X032857Y029710D01*
X033230Y029926D01*
X033505Y029450D01*
G37*
G36*
X034187Y029844D02*
X033814Y029628D01*
X033539Y030104D01*
X033912Y030320D01*
X034187Y029844D01*
G37*
G36*
X035956Y026779D02*
X035583Y026563D01*
X035308Y027039D01*
X035681Y027255D01*
X035956Y026779D01*
G37*
G36*
X035275Y026385D02*
X034902Y026169D01*
X034627Y026645D01*
X035000Y026861D01*
X035275Y026385D01*
G37*
G36*
X032425Y026783D02*
X032052Y026567D01*
X031777Y027043D01*
X032150Y027259D01*
X032425Y026783D01*
G37*
G36*
X031743Y026389D02*
X031370Y026173D01*
X031095Y026649D01*
X031468Y026865D01*
X031743Y026389D01*
G37*
X036269Y021596D03*
X037056Y021596D03*
X033999Y019826D03*
X033212Y019826D03*
X036269Y018056D03*
X037056Y018056D03*
G36*
X035000Y012791D02*
X034627Y013007D01*
X034902Y013483D01*
X035275Y013267D01*
X035000Y012791D01*
G37*
G36*
X035681Y012397D02*
X035308Y012613D01*
X035583Y013089D01*
X035956Y012873D01*
X035681Y012397D01*
G37*
G36*
X033230Y009726D02*
X032857Y009942D01*
X033132Y010418D01*
X033505Y010202D01*
X033230Y009726D01*
G37*
G36*
X033912Y009333D02*
X033539Y009549D01*
X033814Y010025D01*
X034187Y009809D01*
X033912Y009333D01*
G37*
G36*
X032150Y012394D02*
X031777Y012610D01*
X032052Y013086D01*
X032425Y012870D01*
X032150Y012394D01*
G37*
G36*
X031468Y012787D02*
X031095Y013003D01*
X031370Y013479D01*
X031743Y013263D01*
X031468Y012787D01*
G37*
X027175Y017661D03*
X026387Y017661D03*
X026387Y018541D03*
X027175Y018541D03*
G36*
X026389Y007910D02*
X026173Y008283D01*
X026649Y008558D01*
X026865Y008185D01*
X026389Y007910D01*
G37*
G36*
X026783Y007228D02*
X026567Y007601D01*
X027043Y007876D01*
X027259Y007503D01*
X026783Y007228D01*
G37*
G36*
X026385Y004378D02*
X026169Y004751D01*
X026645Y005026D01*
X026861Y004653D01*
X026385Y004378D01*
G37*
G36*
X026779Y003696D02*
X026563Y004069D01*
X027039Y004344D01*
X027255Y003971D01*
X026779Y003696D01*
G37*
G36*
X029450Y006147D02*
X029234Y006520D01*
X029710Y006795D01*
X029926Y006422D01*
X029450Y006147D01*
G37*
G36*
X029844Y005465D02*
X029628Y005838D01*
X030104Y006113D01*
X030320Y005740D01*
X029844Y005465D01*
G37*
G36*
X012791Y004653D02*
X013007Y005026D01*
X013483Y004751D01*
X013267Y004378D01*
X012791Y004653D01*
G37*
G36*
X012397Y003971D02*
X012613Y004344D01*
X013089Y004069D01*
X012873Y003696D01*
X012397Y003971D01*
G37*
G36*
X009726Y006422D02*
X009942Y006795D01*
X010418Y006520D01*
X010202Y006147D01*
X009726Y006422D01*
G37*
G36*
X009333Y005740D02*
X009549Y006113D01*
X010025Y005838D01*
X009809Y005465D01*
X009333Y005740D01*
G37*
G36*
X012394Y007503D02*
X012610Y007876D01*
X013086Y007601D01*
X012870Y007228D01*
X012394Y007503D01*
G37*
G36*
X012787Y008185D02*
X013003Y008558D01*
X013479Y008283D01*
X013263Y007910D01*
X012787Y008185D01*
G37*
D19*
X021430Y021942D03*
X021686Y021942D03*
X021942Y021942D03*
X022198Y021942D03*
X022454Y021942D03*
X022710Y021942D03*
X022966Y021942D03*
X023222Y021942D03*
X023478Y021942D03*
X023734Y021942D03*
X023734Y024797D03*
X023478Y024797D03*
X023222Y024797D03*
X022966Y024797D03*
X022710Y024797D03*
X022454Y024797D03*
X022198Y024797D03*
X021942Y024797D03*
X021686Y024797D03*
X021430Y024797D03*
D20*
X022791Y019593D03*
X023291Y019593D03*
X023791Y019593D03*
X024291Y019593D03*
X024291Y017533D03*
X023791Y017533D03*
X023291Y017533D03*
X022791Y017533D03*
D21*
X021987Y013069D03*
D22*
X021487Y015432D03*
X022487Y015432D03*
D23*
X016760Y020681D03*
D24*
X013532Y020681D03*
X019988Y020681D03*
D25*
X021716Y020789D03*
X021716Y020289D03*
X021716Y019789D03*
X021716Y019289D03*
X021716Y018789D03*
X021716Y018289D03*
X021716Y017789D03*
X021716Y017289D03*
X025416Y017289D03*
X025416Y017789D03*
X025416Y018289D03*
X025416Y018789D03*
X025416Y019289D03*
X025416Y019789D03*
X025416Y020289D03*
X025416Y020789D03*
D26*
X027581Y016915D03*
X027581Y016167D03*
X011641Y021517D03*
X011641Y022265D03*
D27*
X018468Y024551D03*
X019216Y024551D03*
D28*
G36*
X025124Y027247D02*
X025377Y026946D01*
X025196Y026795D01*
X024943Y027096D01*
X025124Y027247D01*
G37*
G36*
X026895Y025136D02*
X027148Y024835D01*
X026967Y024684D01*
X026714Y024985D01*
X026895Y025136D01*
G37*
D29*
X018743Y028586D02*
X018153Y028586D01*
X018743Y028586D02*
X018743Y027602D01*
X018153Y027602D01*
X018153Y028586D01*
X018153Y027798D02*
X018743Y027798D01*
X018743Y027994D02*
X018153Y027994D01*
X018153Y028190D02*
X018743Y028190D01*
X018743Y028386D02*
X018153Y028386D01*
X018153Y028582D02*
X018743Y028582D01*
X017365Y028586D02*
X016775Y028586D01*
X017365Y028586D02*
X017365Y027602D01*
X016775Y027602D01*
X016775Y028586D01*
X016775Y027798D02*
X017365Y027798D01*
X017365Y027994D02*
X016775Y027994D01*
X016775Y028190D02*
X017365Y028190D01*
X017365Y028386D02*
X016775Y028386D01*
X016775Y028582D02*
X017365Y028582D01*
X017236Y025673D02*
X016646Y025673D01*
X017236Y025673D02*
X017236Y024689D01*
X016646Y024689D01*
X016646Y025673D01*
X016646Y024885D02*
X017236Y024885D01*
X017236Y025081D02*
X016646Y025081D01*
X016646Y025277D02*
X017236Y025277D01*
X017236Y025473D02*
X016646Y025473D01*
X016646Y025669D02*
X017236Y025669D01*
X019766Y015353D02*
X020356Y015353D01*
X020356Y014369D01*
X019766Y014369D01*
X019766Y015353D01*
X019766Y014565D02*
X020356Y014565D01*
X020356Y014761D02*
X019766Y014761D01*
X019766Y014957D02*
X020356Y014957D01*
X020356Y015153D02*
X019766Y015153D01*
X019766Y015349D02*
X020356Y015349D01*
X014356Y013249D02*
X013766Y013249D01*
X013766Y014233D01*
X014356Y014233D01*
X014356Y013249D01*
X014356Y013445D02*
X013766Y013445D01*
X013766Y013641D02*
X014356Y013641D01*
X014356Y013837D02*
X013766Y013837D01*
X013766Y014033D02*
X014356Y014033D01*
X014356Y014229D02*
X013766Y014229D01*
D30*
X013625Y016086D03*
X014501Y017021D03*
X014901Y016861D03*
X013981Y017501D03*
X012464Y018251D03*
X012110Y018488D03*
X011795Y018724D03*
X010630Y018805D03*
X009922Y020066D03*
X012740Y019826D03*
X013625Y023369D03*
X015461Y023941D03*
X015541Y023621D03*
X015421Y024301D03*
X014741Y025421D03*
X014741Y025781D03*
X014741Y026141D03*
X014381Y027341D03*
X015271Y028568D03*
X016381Y026125D03*
X019826Y027011D03*
X020741Y025781D03*
X020421Y025541D03*
X021061Y026021D03*
X022141Y027021D03*
X022501Y027181D03*
X023339Y027142D03*
X023468Y025929D03*
X023581Y028381D03*
X025138Y028470D03*
X028491Y025277D03*
X025929Y023468D03*
X025421Y021981D03*
X025061Y022141D03*
X025781Y021821D03*
X027221Y021421D03*
X027541Y021221D03*
X027821Y021021D03*
X029021Y020861D03*
X029752Y019608D03*
X027011Y019728D03*
X026027Y016283D03*
X024501Y016021D03*
X024541Y015661D03*
X024421Y016421D03*
X024901Y014221D03*
X024901Y013861D03*
X024901Y013501D03*
X025421Y012301D03*
X024557Y011121D03*
X023468Y013625D03*
X019925Y012641D03*
X018901Y013861D03*
X018581Y013661D03*
X019221Y014101D03*
X017501Y012621D03*
X017141Y012461D03*
X016821Y012301D03*
X016101Y011261D03*
X014852Y011383D03*
X016381Y013625D03*
X020125Y009940D03*
X020810Y003291D03*
X012543Y005062D03*
X005062Y012543D03*
X003291Y018842D03*
X011103Y024538D03*
X005062Y027110D03*
X010771Y033803D03*
X018842Y036362D03*
X019596Y029712D03*
X022701Y022941D03*
X023741Y022941D03*
X028571Y015175D03*
X034787Y012346D03*
X029078Y006047D03*
X036362Y020810D03*
X033803Y028881D03*
X027700Y034590D03*
X011463Y014634D03*
D31*
X011341Y014301D02*
X011981Y014621D01*
X014141Y014621D01*
X014061Y013741D01*
X014141Y014621D02*
X018141Y014621D01*
X020061Y016061D01*
X020621Y019101D01*
X021021Y022701D01*
X021981Y022701D01*
X021981Y021981D01*
X021942Y021942D01*
X021686Y021942D02*
X021661Y021968D01*
X021661Y022541D01*
X021181Y022301D01*
X020861Y019581D01*
X020621Y018061D01*
X020728Y014867D01*
X020061Y014861D01*
X020728Y014867D02*
X020781Y013261D01*
X020781Y010541D01*
X020381Y010141D01*
X020381Y009661D01*
X019821Y009661D01*
X019821Y010301D01*
X019341Y010781D01*
X019341Y011181D01*
X018941Y011581D01*
X018061Y011581D01*
X017581Y011421D01*
X017341Y010541D01*
X018421Y010261D01*
X018561Y010660D01*
X018319Y010725D02*
X018448Y011066D01*
X018736Y011066D01*
X018861Y010941D01*
X018861Y010541D01*
X018941Y010461D01*
X019236Y010174D01*
X019236Y005358D01*
X019181Y005101D01*
X018541Y004701D01*
X018056Y003384D01*
X018701Y003181D02*
X018701Y004301D01*
X019821Y004301D01*
X019826Y005653D01*
X019826Y006440D02*
X019826Y007228D01*
X019432Y007621D01*
X019432Y010193D01*
X019021Y010604D01*
X019021Y011021D01*
X018781Y011261D01*
X018251Y011263D01*
X018068Y010792D01*
X017817Y010860D02*
X017901Y011181D01*
X018141Y011421D01*
X018861Y011421D01*
X019181Y011101D01*
X019181Y010701D01*
X019629Y010253D01*
X019629Y008803D01*
X020417Y008015D01*
X020417Y004866D01*
X021598Y003684D01*
X021598Y003386D01*
X021596Y003384D01*
X021596Y002596D02*
X020456Y002047D01*
X019826Y002047D02*
X019821Y002621D01*
X018701Y003181D01*
X019196Y003727D02*
X019826Y003727D01*
X020456Y003727D01*
X020810Y003291D01*
X019196Y002047D02*
X018056Y002596D01*
X013137Y004702D02*
X012936Y006834D01*
X015397Y010968D01*
X016283Y011755D01*
X016677Y011657D01*
X016581Y011191D01*
X016339Y011256D02*
X016101Y011261D01*
X016283Y011952D02*
X016972Y011755D01*
X016832Y011124D01*
X017083Y011056D02*
X017267Y011854D01*
X016283Y012149D01*
X015003Y011165D01*
X013724Y010377D01*
X011952Y007425D01*
X011101Y007421D01*
X010072Y006471D01*
X010541Y005901D02*
X011261Y004941D01*
X010937Y004429D01*
X011482Y004114D02*
X012743Y004020D01*
X012543Y005062D02*
X012322Y005569D01*
X011777Y005884D01*
X011231Y006199D01*
X010541Y005901D02*
X011101Y006941D01*
X012061Y006461D01*
X012740Y007552D01*
X013133Y008234D02*
X014019Y009787D01*
X015200Y011066D01*
X016283Y011952D01*
X016821Y012301D02*
X017155Y013335D01*
X016914Y013400D02*
X017021Y013861D01*
X018021Y013541D01*
X017899Y013136D01*
X018150Y013069D01*
X018392Y013004D02*
X018581Y013661D01*
X018901Y013861D02*
X018643Y012937D01*
X018894Y012869D02*
X019221Y014101D01*
X019135Y012805D02*
X019925Y012641D01*
X021021Y014221D02*
X021021Y017981D01*
X021278Y017987D01*
X021226Y017935D01*
X021226Y017642D01*
X021285Y017584D01*
X022148Y017584D01*
X022206Y017642D01*
X022206Y017935D01*
X022148Y017994D01*
X021614Y017994D01*
X022538Y018013D01*
X022531Y017987D01*
X022531Y017553D01*
X022771Y017553D01*
X022771Y017513D01*
X022811Y017513D01*
X022811Y016958D01*
X022929Y016958D01*
X022965Y016968D01*
X022997Y016986D01*
X023023Y017012D01*
X023041Y017044D01*
X023051Y017080D01*
X023051Y017513D01*
X022811Y017513D01*
X022811Y017553D01*
X023051Y017553D01*
X023051Y017987D01*
X023047Y018001D01*
X023071Y018001D01*
X023071Y017057D01*
X023130Y016998D01*
X023452Y016998D01*
X023511Y017057D01*
X023511Y018010D01*
X023487Y018034D01*
X023597Y018036D01*
X023571Y018010D01*
X023571Y017057D01*
X023630Y016998D01*
X023651Y016998D01*
X023651Y016969D01*
X023363Y016681D01*
X021923Y016681D01*
X021841Y016599D01*
X021361Y016119D01*
X021361Y016024D01*
X021249Y016024D01*
X021190Y015965D01*
X021190Y014898D01*
X021249Y014840D01*
X021725Y014840D01*
X021784Y014898D01*
X021784Y015965D01*
X021725Y016024D01*
X021662Y016024D01*
X022039Y016401D01*
X022363Y016401D01*
X022241Y016279D01*
X022241Y016163D01*
X022241Y016016D01*
X022190Y015965D01*
X022190Y014898D01*
X022249Y014840D01*
X022725Y014840D01*
X022784Y014898D01*
X022784Y015965D01*
X022725Y016024D01*
X022521Y016024D01*
X022521Y016163D01*
X022599Y016241D01*
X023443Y016241D01*
X023559Y016241D01*
X024316Y016998D01*
X024452Y016998D01*
X024500Y017046D01*
X024388Y016641D01*
X024330Y016641D01*
X024201Y016512D01*
X024201Y016330D01*
X024280Y016251D01*
X023797Y014505D01*
X023778Y014485D01*
X023761Y014485D01*
X023725Y014476D01*
X023694Y014457D01*
X023631Y014395D01*
X023726Y014301D01*
X023725Y014301D01*
X023631Y014395D01*
X023569Y014332D01*
X023550Y014300D01*
X023549Y014295D01*
X022579Y014267D01*
X022579Y014292D01*
X022521Y014351D01*
X021454Y014351D01*
X021395Y014292D01*
X021395Y014232D01*
X021021Y014221D01*
X021021Y014279D02*
X021395Y014279D01*
X021021Y014357D02*
X023594Y014357D01*
X023621Y014421D02*
X023935Y014091D01*
X023468Y013625D01*
X024112Y014268D02*
X024901Y013501D01*
X025240Y013527D02*
X025633Y013429D01*
X026049Y013066D01*
X025865Y012882D02*
X025535Y013232D01*
X025240Y013232D01*
X024846Y012740D01*
X025043Y011362D01*
X025732Y009590D01*
X026519Y008234D01*
X026913Y007552D02*
X027581Y006381D01*
X026781Y005901D01*
X026701Y005821D01*
X027181Y004941D01*
X028461Y004861D01*
X028716Y004429D01*
X029261Y004744D02*
X029974Y005789D01*
X029580Y006471D02*
X027700Y007425D01*
X025240Y011558D01*
X025043Y012641D01*
X025338Y013035D01*
X025682Y012698D01*
X025505Y012521D02*
X025421Y012301D01*
X024649Y012740D02*
X025240Y013527D01*
X024901Y013861D02*
X024296Y014451D01*
X024480Y014635D02*
X024901Y014221D01*
X025501Y014221D02*
X026861Y015341D01*
X027821Y015261D01*
X028621Y014861D01*
X028941Y015261D01*
X028141Y015661D01*
X028381Y016461D01*
X028621Y017101D01*
X028890Y017729D01*
X028890Y018912D01*
X028621Y019181D01*
X026941Y019181D01*
X026461Y019661D01*
X026461Y019981D01*
X026061Y020381D01*
X026061Y021021D01*
X025741Y021341D01*
X024335Y021341D01*
X023734Y021942D01*
X023478Y021942D02*
X023501Y022541D01*
X024701Y023021D01*
X026781Y025661D01*
X027821Y025181D01*
X028701Y025661D01*
X028941Y025301D01*
X027861Y024541D01*
X027181Y023341D01*
X027981Y022061D01*
X029101Y022301D01*
X028781Y023421D01*
X028397Y023313D01*
X028461Y023072D02*
X028094Y022976D01*
X027897Y023369D01*
X028232Y024037D01*
X028772Y024455D01*
X033015Y026716D01*
X033981Y026141D01*
X034951Y026515D01*
X035632Y026909D02*
X035538Y028170D01*
X035223Y028716D02*
X034621Y028381D01*
X034941Y027341D01*
X033821Y026701D01*
X033741Y026781D01*
X033341Y027501D01*
X033181Y027501D01*
X032101Y026913D01*
X031419Y026519D02*
X030456Y025929D01*
X030062Y025436D01*
X028488Y024551D01*
X028094Y024194D01*
X027602Y023369D01*
X027995Y022680D01*
X028529Y022821D01*
X028596Y022569D02*
X027995Y022385D01*
X027405Y023369D01*
X027937Y024332D01*
X028429Y024707D01*
X029472Y025338D01*
X029669Y026125D01*
X032228Y027700D01*
X033181Y029580D01*
X033863Y029974D02*
X034908Y029261D01*
X033803Y028881D02*
X033454Y028421D01*
X033769Y027876D01*
X034083Y027330D01*
X029580Y033181D02*
X028684Y032425D01*
X027700Y032425D01*
X026125Y029669D01*
X025338Y029570D01*
X024649Y028488D01*
X023763Y027602D01*
X022877Y027602D01*
X022385Y027897D01*
X022569Y028596D01*
X022821Y028529D02*
X022680Y027995D01*
X023074Y027799D01*
X023665Y027799D01*
X024452Y028586D01*
X025240Y029767D01*
X025929Y030456D01*
X026519Y031419D01*
X026913Y032101D02*
X027581Y033181D01*
X028461Y032701D01*
X029101Y033821D01*
X028461Y034621D01*
X028716Y035223D01*
X029261Y034908D02*
X029974Y033863D01*
X028421Y033454D02*
X027876Y033768D01*
X027330Y034083D01*
X027700Y034590D01*
X028170Y035538D02*
X026909Y035632D01*
X026515Y034951D02*
X026617Y032818D01*
X024255Y028684D01*
X023566Y027995D01*
X023173Y027995D01*
X022976Y028094D01*
X023072Y028461D01*
X023313Y028397D02*
X023581Y028381D01*
X023821Y027421D02*
X022781Y027421D01*
X022061Y027901D01*
X022301Y029101D01*
X021301Y029381D01*
X021181Y029341D01*
X021092Y028992D01*
X021333Y028927D02*
X021204Y028488D01*
X020810Y028586D01*
X020810Y029275D01*
X020417Y029570D01*
X020417Y034590D01*
X021598Y035771D01*
X021596Y036269D01*
X021596Y037056D02*
X020456Y037605D01*
X019826Y037605D02*
X019821Y037021D01*
X020861Y036701D01*
X020861Y035341D01*
X019821Y035341D01*
X019826Y033999D01*
X019826Y033212D02*
X019826Y030653D01*
X020220Y030259D01*
X020220Y029472D01*
X020614Y029177D01*
X020614Y028389D01*
X021401Y028192D01*
X021584Y028860D01*
X021835Y028793D02*
X021499Y027897D01*
X020381Y028221D01*
X020381Y029101D01*
X020023Y029379D01*
X020023Y030062D01*
X019236Y030850D01*
X019236Y034590D01*
X018056Y036269D01*
X018056Y037056D02*
X019196Y037605D01*
X018842Y036362D02*
X019196Y035925D01*
X019826Y035925D01*
X020456Y035925D01*
X012936Y033015D02*
X014708Y029866D01*
X015102Y028094D01*
X015102Y027208D01*
X014314Y026027D01*
X013603Y026587D01*
X013787Y026771D02*
X014314Y026322D01*
X014905Y027208D01*
X014905Y027995D01*
X014708Y028488D01*
X013527Y030850D01*
X013133Y031419D01*
X012740Y032101D02*
X012061Y033261D01*
X012941Y033821D01*
X012781Y034141D01*
X012301Y034861D01*
X011261Y034781D01*
X010937Y035223D01*
X011482Y035538D02*
X012743Y035632D01*
X013137Y034951D02*
X013501Y034301D01*
X012936Y033015D01*
X012322Y034083D02*
X011777Y033768D01*
X011231Y033454D01*
X010771Y033803D01*
X010072Y033181D02*
X011952Y032228D01*
X014511Y028094D01*
X014511Y027897D01*
X014708Y027208D01*
X014314Y026617D01*
X013971Y026954D01*
X014147Y027131D02*
X014381Y027341D01*
X014741Y026141D02*
X015540Y025385D01*
X015717Y025561D02*
X016381Y026125D01*
X015717Y025561D02*
X016021Y025261D01*
X015301Y024541D01*
X014996Y024840D01*
X014812Y024656D01*
X014635Y024479D02*
X014941Y024221D01*
X015421Y024301D01*
X015461Y023941D02*
X014781Y023981D01*
X014452Y024296D01*
X014268Y024112D02*
X014621Y023821D01*
X015541Y023621D01*
X014861Y023341D02*
X019501Y023341D01*
X019981Y022861D01*
X022221Y022861D01*
X022198Y021942D01*
X022454Y021942D02*
X022454Y020789D01*
X022454Y020788D01*
X022461Y020781D01*
X022454Y020789D02*
X021716Y020789D01*
X021716Y020289D02*
X022710Y020289D01*
X022710Y021942D01*
X022966Y021942D02*
X023021Y022941D01*
X023741Y023821D01*
X024141Y024381D01*
X024141Y025341D01*
X022461Y025901D01*
X022497Y026317D01*
X022582Y026716D01*
X023339Y027142D01*
X023821Y027421D02*
X024781Y028381D01*
X025101Y028861D01*
X025501Y028621D01*
X025021Y027581D01*
X024301Y026541D01*
X024301Y024061D01*
X023821Y023501D01*
X023261Y022781D01*
X023222Y021942D01*
X023741Y022941D02*
X026061Y025581D01*
X025160Y027021D01*
X023468Y025929D02*
X022739Y026252D01*
X022246Y026384D02*
X022141Y025901D01*
X022941Y025341D01*
X022966Y024797D01*
X023222Y024797D02*
X023181Y024221D01*
X021181Y023981D01*
X020781Y025261D01*
X020741Y025781D01*
X021010Y026715D01*
X021261Y026648D02*
X021061Y026021D01*
X022461Y025181D01*
X022454Y024797D01*
X022198Y024797D02*
X022141Y025181D01*
X021981Y025261D01*
X021341Y025261D01*
X021101Y025181D01*
X021430Y024797D02*
X021401Y024274D01*
X021058Y023704D02*
X020421Y025541D01*
X020758Y026783D01*
X020517Y026847D02*
X020621Y027341D01*
X021661Y027101D01*
X021502Y026583D01*
X021753Y026516D01*
X021995Y026451D02*
X021821Y025821D01*
X022701Y025261D01*
X022710Y024797D01*
X023478Y024797D02*
X023421Y024061D01*
X021058Y023704D01*
X020701Y023661D02*
X020621Y024381D01*
X020221Y025181D01*
X019236Y025732D01*
X019216Y024551D02*
X020374Y024274D01*
X020701Y023661D02*
X017501Y023821D01*
X016941Y025181D01*
X017821Y024701D02*
X018247Y024461D01*
X018468Y024551D01*
X019826Y027011D02*
X020517Y026847D01*
X021995Y026451D02*
X022141Y027021D01*
X022501Y027181D02*
X022246Y026384D01*
X023734Y024797D02*
X023581Y023981D01*
X022701Y022941D01*
X021430Y021991D02*
X021431Y021591D01*
X021421Y021421D01*
X022941Y020781D02*
X023291Y020431D01*
X023291Y019593D01*
X023291Y018671D01*
X023421Y018541D01*
X026387Y018541D01*
X025987Y018061D02*
X024781Y018061D01*
X024461Y018381D01*
X022941Y018381D01*
X022791Y018531D01*
X022791Y019593D01*
X022781Y019603D01*
X022781Y020289D01*
X022710Y020289D01*
X022301Y019741D02*
X021764Y019741D01*
X021716Y019789D01*
X021309Y019789D01*
X021101Y019581D01*
X021289Y019289D02*
X021716Y019289D01*
X021289Y019289D02*
X021101Y019101D01*
X020141Y019581D02*
X020141Y020528D01*
X019988Y020681D01*
X022301Y019741D02*
X022461Y019581D01*
X022461Y018381D01*
X022701Y018141D01*
X023181Y018141D01*
X023261Y018061D01*
X023261Y017563D01*
X023291Y017533D01*
X023511Y017499D02*
X023571Y017499D01*
X023571Y017421D02*
X023511Y017421D01*
X023511Y017342D02*
X023571Y017342D01*
X023571Y017264D02*
X023511Y017264D01*
X023511Y017185D02*
X023571Y017185D01*
X023571Y017106D02*
X023511Y017106D01*
X023482Y017028D02*
X023600Y017028D01*
X023631Y016949D02*
X021021Y016949D01*
X021021Y016871D02*
X023553Y016871D01*
X023474Y016792D02*
X021021Y016792D01*
X021021Y016714D02*
X023396Y016714D01*
X023421Y016541D02*
X023791Y016911D01*
X023791Y017533D01*
X023571Y017578D02*
X023511Y017578D01*
X023511Y017656D02*
X023571Y017656D01*
X023571Y017735D02*
X023511Y017735D01*
X023511Y017813D02*
X023571Y017813D01*
X023571Y017892D02*
X023511Y017892D01*
X023511Y017970D02*
X023571Y017970D01*
X023071Y017970D02*
X023051Y017970D01*
X023051Y017892D02*
X023071Y017892D01*
X023071Y017813D02*
X023051Y017813D01*
X023051Y017735D02*
X023071Y017735D01*
X023071Y017656D02*
X023051Y017656D01*
X023051Y017578D02*
X023071Y017578D01*
X023071Y017499D02*
X023051Y017499D01*
X023051Y017421D02*
X023071Y017421D01*
X023071Y017342D02*
X023051Y017342D01*
X023051Y017264D02*
X023071Y017264D01*
X023071Y017185D02*
X023051Y017185D01*
X023051Y017106D02*
X023071Y017106D01*
X023100Y017028D02*
X023032Y017028D01*
X022811Y017028D02*
X022771Y017028D01*
X022771Y016958D02*
X022771Y017513D01*
X022531Y017513D01*
X022531Y017080D01*
X022541Y017044D01*
X022559Y017012D01*
X022585Y016986D01*
X022617Y016968D01*
X022653Y016958D01*
X022771Y016958D01*
X022791Y016871D02*
X022781Y016861D01*
X022791Y016871D02*
X022791Y017533D01*
X022771Y017499D02*
X022811Y017499D01*
X022811Y017421D02*
X022771Y017421D01*
X022771Y017342D02*
X022811Y017342D01*
X022811Y017264D02*
X022771Y017264D01*
X022771Y017185D02*
X022811Y017185D01*
X022811Y017106D02*
X022771Y017106D01*
X022550Y017028D02*
X021021Y017028D01*
X021021Y017106D02*
X021262Y017106D01*
X021285Y017084D02*
X022148Y017084D01*
X022206Y017142D01*
X022206Y017435D01*
X022148Y017494D01*
X021285Y017494D01*
X021226Y017435D01*
X021226Y017142D01*
X021285Y017084D01*
X021226Y017185D02*
X021021Y017185D01*
X021021Y017264D02*
X021226Y017264D01*
X021226Y017342D02*
X021021Y017342D01*
X021021Y017421D02*
X021226Y017421D01*
X021021Y017499D02*
X022531Y017499D01*
X022531Y017421D02*
X022206Y017421D01*
X022206Y017342D02*
X022531Y017342D01*
X022531Y017264D02*
X022206Y017264D01*
X022206Y017185D02*
X022531Y017185D01*
X022531Y017106D02*
X022170Y017106D01*
X022206Y017656D02*
X022531Y017656D01*
X022531Y017578D02*
X021021Y017578D01*
X021021Y017656D02*
X021226Y017656D01*
X021226Y017735D02*
X021021Y017735D01*
X021021Y017813D02*
X021226Y017813D01*
X021226Y017892D02*
X021021Y017892D01*
X021021Y017970D02*
X021262Y017970D01*
X022171Y017970D02*
X022531Y017970D01*
X022531Y017892D02*
X022206Y017892D01*
X022206Y017813D02*
X022531Y017813D01*
X022531Y017735D02*
X022206Y017735D01*
X021877Y016635D02*
X021021Y016635D01*
X021021Y016557D02*
X021799Y016557D01*
X021720Y016478D02*
X021021Y016478D01*
X021021Y016400D02*
X021642Y016400D01*
X021563Y016321D02*
X021021Y016321D01*
X021021Y016242D02*
X021484Y016242D01*
X021406Y016164D02*
X021021Y016164D01*
X021021Y016085D02*
X021361Y016085D01*
X021501Y016061D02*
X021981Y016541D01*
X023421Y016541D01*
X023501Y016381D02*
X024291Y017171D01*
X024291Y017533D01*
X024482Y017028D02*
X024495Y017028D01*
X024474Y016949D02*
X024267Y016949D01*
X024189Y016871D02*
X024452Y016871D01*
X024430Y016792D02*
X024110Y016792D01*
X024032Y016714D02*
X024408Y016714D01*
X024324Y016635D02*
X023953Y016635D01*
X023875Y016557D02*
X024246Y016557D01*
X024201Y016478D02*
X023796Y016478D01*
X023718Y016400D02*
X024201Y016400D01*
X024210Y016321D02*
X023639Y016321D01*
X023560Y016242D02*
X024278Y016242D01*
X024256Y016164D02*
X022522Y016164D01*
X022521Y016085D02*
X024235Y016085D01*
X024213Y016007D02*
X022742Y016007D01*
X022784Y015928D02*
X024191Y015928D01*
X024169Y015850D02*
X022784Y015850D01*
X022784Y015771D02*
X024148Y015771D01*
X024126Y015693D02*
X022784Y015693D01*
X022784Y015614D02*
X024104Y015614D01*
X024083Y015536D02*
X022784Y015536D01*
X022784Y015457D02*
X024061Y015457D01*
X024039Y015379D02*
X022784Y015379D01*
X022784Y015300D02*
X024017Y015300D01*
X023996Y015221D02*
X022784Y015221D01*
X022784Y015143D02*
X023974Y015143D01*
X023952Y015064D02*
X022784Y015064D01*
X022784Y014986D02*
X023931Y014986D01*
X023909Y014907D02*
X022784Y014907D01*
X022487Y015432D02*
X022381Y015538D01*
X022381Y016221D01*
X022541Y016381D01*
X023501Y016381D01*
X024421Y016421D02*
X025385Y015540D01*
X025561Y015717D02*
X026027Y016283D01*
X025201Y015357D02*
X024501Y016021D01*
X024541Y015661D02*
X025017Y015173D01*
X024840Y014996D02*
X024656Y014812D01*
X024381Y015101D01*
X023621Y014421D01*
X023672Y014436D02*
X021021Y014436D01*
X021021Y014515D02*
X023800Y014515D01*
X023822Y014593D02*
X021021Y014593D01*
X021021Y014672D02*
X023844Y014672D01*
X023865Y014750D02*
X021021Y014750D01*
X021021Y014829D02*
X023887Y014829D01*
X023669Y014357D02*
X023668Y014357D01*
X022986Y014279D02*
X022579Y014279D01*
X022190Y014907D02*
X021784Y014907D01*
X021784Y014986D02*
X022190Y014986D01*
X022190Y015064D02*
X021784Y015064D01*
X021784Y015143D02*
X022190Y015143D01*
X022190Y015221D02*
X021784Y015221D01*
X021784Y015300D02*
X022190Y015300D01*
X022190Y015379D02*
X021784Y015379D01*
X021784Y015457D02*
X022190Y015457D01*
X022190Y015536D02*
X021784Y015536D01*
X021784Y015614D02*
X022190Y015614D01*
X022190Y015693D02*
X021784Y015693D01*
X021784Y015771D02*
X022190Y015771D01*
X022190Y015850D02*
X021784Y015850D01*
X021784Y015928D02*
X022190Y015928D01*
X022232Y016007D02*
X021742Y016007D01*
X021723Y016085D02*
X022241Y016085D01*
X022241Y016164D02*
X021802Y016164D01*
X021880Y016242D02*
X022241Y016242D01*
X022283Y016321D02*
X021959Y016321D01*
X022038Y016400D02*
X022362Y016400D01*
X021501Y016061D02*
X021501Y015446D01*
X021487Y015432D01*
X021190Y015457D02*
X021021Y015457D01*
X021021Y015379D02*
X021190Y015379D01*
X021190Y015300D02*
X021021Y015300D01*
X021021Y015221D02*
X021190Y015221D01*
X021190Y015143D02*
X021021Y015143D01*
X021021Y015064D02*
X021190Y015064D01*
X021190Y014986D02*
X021021Y014986D01*
X021021Y014907D02*
X021190Y014907D01*
X021190Y015536D02*
X021021Y015536D01*
X021021Y015614D02*
X021190Y015614D01*
X021190Y015693D02*
X021021Y015693D01*
X021021Y015771D02*
X021190Y015771D01*
X021190Y015850D02*
X021021Y015850D01*
X021021Y015928D02*
X021190Y015928D01*
X021232Y016007D02*
X021021Y016007D01*
X017658Y013201D02*
X017501Y012621D01*
X017141Y012461D02*
X017406Y013268D01*
X016914Y013400D02*
X016381Y013625D01*
X013625Y016086D02*
X013400Y016914D01*
X013335Y017155D02*
X013341Y017181D01*
X013741Y017181D01*
X014141Y016781D01*
X014621Y016781D01*
X014701Y016861D01*
X014901Y016861D01*
X014501Y017021D02*
X013741Y017341D01*
X013581Y017501D01*
X013268Y017406D01*
X013201Y017657D02*
X013661Y017741D01*
X013981Y017501D01*
X013461Y018261D02*
X013221Y019261D01*
X012805Y019135D01*
X012740Y019826D01*
X012870Y018894D02*
X011795Y018724D01*
X012110Y018488D02*
X012937Y018643D01*
X013004Y018392D02*
X012464Y018251D01*
X013069Y018150D02*
X013136Y017899D01*
X013069Y018150D02*
X013461Y018261D01*
X011741Y017661D02*
X012461Y016301D01*
X012461Y015821D01*
X011821Y015181D01*
X011101Y014701D01*
X011341Y014301D01*
X011263Y015003D02*
X011657Y015299D01*
X012247Y016283D01*
X011755Y017267D01*
X011056Y017083D01*
X011124Y016832D02*
X011657Y016972D01*
X012051Y016283D01*
X011460Y015397D01*
X011165Y015200D01*
X010180Y014511D01*
X008234Y013133D01*
X007552Y012740D02*
X006381Y012141D01*
X006861Y011181D01*
X006141Y010621D01*
X005421Y010781D01*
X005021Y011181D01*
X004429Y010937D01*
X004114Y011482D02*
X004020Y012743D01*
X004702Y013137D02*
X006834Y012936D01*
X011066Y015397D01*
X011263Y015495D01*
X011755Y016381D01*
X011558Y016677D01*
X011191Y016581D01*
X011256Y016339D02*
X010861Y016221D01*
X010541Y017341D01*
X011741Y017661D01*
X011541Y018021D02*
X011301Y018941D01*
X011165Y019272D01*
X010377Y019728D01*
X009393Y019826D01*
X008803Y020417D01*
X005062Y020417D01*
X004461Y021341D01*
X003384Y021596D01*
X003021Y020941D02*
X002701Y019821D01*
X002047Y019826D01*
X002047Y019196D02*
X002596Y018056D01*
X003384Y018056D02*
X005062Y019236D01*
X010180Y019236D01*
X010981Y018901D01*
X011101Y018421D01*
X010725Y018319D01*
X010660Y018561D02*
X010630Y018805D01*
X011066Y019076D02*
X011141Y018901D01*
X011301Y018221D01*
X010792Y018068D01*
X010860Y017817D02*
X011541Y018021D01*
X011066Y019076D02*
X010279Y019531D01*
X009196Y019531D01*
X008901Y019826D01*
X006440Y019826D01*
X005653Y019826D02*
X004301Y019821D01*
X004301Y020941D01*
X003021Y020941D01*
X002596Y021596D02*
X002047Y020456D01*
X003727Y020456D02*
X003727Y019826D01*
X003727Y019196D01*
X003291Y018842D01*
X005062Y012543D02*
X005569Y012322D01*
X005884Y011777D01*
X006199Y011231D01*
X006471Y010072D02*
X007425Y011362D01*
X007228Y011952D01*
X009984Y013527D01*
X010574Y014511D01*
X011263Y015003D01*
X005789Y009679D02*
X004744Y010391D01*
X009679Y005789D02*
X010391Y004744D01*
X025141Y009393D02*
X024846Y011263D01*
X024649Y012740D01*
X025501Y014221D02*
X026621Y013021D01*
X027421Y013821D01*
X027131Y014147D01*
X026954Y013971D02*
X026716Y014314D01*
X027110Y014708D01*
X027799Y014610D01*
X028094Y014413D01*
X032129Y012051D01*
X032701Y010381D01*
X033181Y010072D01*
X033863Y009679D02*
X034908Y010391D01*
X035223Y010937D02*
X034701Y011181D01*
X033821Y010541D01*
X032781Y011181D01*
X033261Y012061D01*
X032101Y012740D01*
X031419Y013133D02*
X030062Y013921D01*
X029501Y013821D01*
X028192Y014610D01*
X027799Y014806D01*
X027011Y014905D01*
X026322Y014314D01*
X026771Y013787D01*
X026587Y013603D02*
X026027Y014314D01*
X026913Y015102D01*
X027741Y015021D01*
X028301Y014781D01*
X029501Y014061D01*
X030456Y014314D01*
X033015Y012936D01*
X034951Y013137D01*
X035632Y012743D02*
X035538Y011482D01*
X034787Y012346D02*
X034083Y012322D01*
X033769Y011777D01*
X033454Y011231D01*
X029078Y006047D02*
X028421Y006199D01*
X027876Y005884D01*
X027330Y005569D01*
X026515Y004702D02*
X026141Y005821D01*
X026716Y006834D01*
X025141Y009393D01*
X026909Y004020D02*
X028170Y004114D01*
X027503Y015641D02*
X027503Y016167D01*
X027581Y016167D01*
X027581Y016915D02*
X027661Y016915D01*
X026387Y017661D02*
X025987Y018061D01*
X027011Y019728D02*
X026847Y020517D01*
X026381Y020421D01*
X026181Y021381D01*
X026584Y021502D01*
X026516Y021753D01*
X026451Y021995D02*
X025781Y021821D01*
X025421Y021981D02*
X026384Y022246D01*
X026317Y022497D02*
X025061Y022141D01*
X026252Y022739D02*
X025929Y023468D01*
X027239Y024506D02*
X026931Y024910D01*
X028192Y021696D02*
X028793Y021835D01*
X028860Y021584D02*
X028389Y021401D01*
X028389Y020712D01*
X029373Y020121D01*
X030850Y020023D01*
X032031Y019826D01*
X033212Y019826D01*
X033999Y019826D02*
X035341Y019821D01*
X035341Y018861D01*
X035421Y018781D01*
X036621Y018781D01*
X037021Y019821D01*
X037605Y019826D01*
X037605Y019196D02*
X037056Y018056D01*
X036269Y018056D02*
X035581Y018061D01*
X034590Y019236D01*
X031243Y019236D01*
X030259Y019826D01*
X029373Y019925D01*
X028192Y020614D01*
X028192Y021696D01*
X028586Y021204D02*
X028586Y020810D01*
X029472Y020417D01*
X034590Y020417D01*
X036269Y021596D01*
X037056Y021596D02*
X037605Y020456D01*
X036362Y020810D02*
X035925Y020456D01*
X035925Y019826D01*
X035925Y019196D01*
X029021Y020861D02*
X028992Y021091D01*
X028927Y021333D02*
X028586Y021204D01*
X027821Y021021D02*
X026783Y020758D01*
X026716Y021010D02*
X027541Y021221D01*
X027221Y021421D02*
X026648Y021261D01*
X025416Y020289D02*
X025404Y020301D01*
X024301Y020301D02*
X024291Y020291D01*
X016760Y020681D02*
X016760Y021800D01*
X016701Y021741D01*
X014861Y023341D02*
X013661Y023021D01*
X010701Y024461D01*
X010941Y024861D01*
X011821Y024461D01*
X013021Y024381D01*
X014061Y025581D01*
X013021Y026701D01*
X012221Y025821D01*
X012521Y025505D01*
X012698Y025682D02*
X013035Y025338D01*
X012740Y025043D01*
X011952Y025043D01*
X011409Y025324D01*
X011558Y025240D01*
X011409Y025324D02*
X007326Y027700D01*
X007341Y028701D01*
X006471Y029580D01*
X005789Y029974D02*
X004744Y029261D01*
X004429Y028716D02*
X004861Y028461D01*
X005901Y029021D01*
X006941Y028461D01*
X006461Y027581D01*
X007552Y026913D01*
X008234Y026519D02*
X008803Y026125D01*
X010574Y025535D01*
X011460Y025043D01*
X011952Y024846D01*
X012838Y024846D01*
X013330Y025338D01*
X012882Y025865D01*
X013066Y026049D02*
X013625Y025338D01*
X012936Y024649D01*
X011854Y024649D01*
X011362Y024846D01*
X010771Y025141D01*
X009787Y024944D01*
X006932Y026519D01*
X004702Y026515D01*
X004020Y026909D02*
X004114Y028170D01*
X005062Y027110D02*
X005569Y027330D01*
X005884Y027876D01*
X006199Y028421D01*
X009679Y033863D02*
X010391Y034908D01*
X014741Y025781D02*
X015357Y025201D01*
X015173Y025017D02*
X014741Y025421D01*
X014091Y023935D02*
X013625Y023369D01*
X013017Y022265D02*
X013391Y021891D01*
X013391Y020951D01*
X013433Y020909D01*
X013292Y021235D01*
X013433Y020909D02*
X013532Y020681D01*
X013017Y022265D02*
X011641Y022265D01*
D32*
X021430Y021991D02*
X021430Y021942D01*
X024291Y020291D02*
X024291Y019593D01*
X024301Y020301D02*
X025404Y020301D01*
X025416Y020289D02*
X025673Y020289D01*
X025981Y019981D01*
X025981Y019735D01*
X027175Y018541D01*
X027175Y017661D01*
X027661Y017661D01*
X027661Y016915D01*
X027661Y017661D02*
X028381Y017661D01*
D33*
X028381Y017661D03*
X022781Y016861D03*
X021101Y019101D03*
X021101Y019581D03*
X020141Y019581D03*
X021421Y021421D03*
X022461Y020781D03*
X022941Y020781D03*
X021401Y024274D03*
X021101Y025181D03*
X020374Y024274D03*
X020221Y025181D03*
X017821Y024701D03*
X016701Y021741D03*
X018301Y028941D03*
D34*
X019826Y028684D03*
X010968Y019826D03*
X019826Y010968D03*
X028684Y019826D03*
D35*
X029581Y019421D02*
X029741Y019581D01*
X029581Y019421D02*
X027181Y019421D01*
X027011Y019591D01*
X027011Y019728D01*
X026027Y016283D02*
X027503Y015641D01*
X028571Y015175D01*
X023468Y013625D02*
X024557Y011121D01*
X020461Y010701D02*
X020141Y010381D01*
X020141Y009981D01*
X020461Y010701D02*
X020461Y012141D01*
X019961Y012641D01*
X019925Y012641D01*
X016381Y013625D02*
X014852Y011383D01*
X011463Y014634D02*
X013625Y016086D01*
X012701Y019821D02*
X011961Y019821D01*
X011391Y020391D01*
X010655Y020391D01*
X010585Y020461D01*
X011641Y021517D01*
X010585Y020461D02*
X010317Y020461D01*
X009922Y020066D01*
X011103Y024538D02*
X013625Y023369D01*
X016381Y026125D02*
X015720Y027579D01*
X017070Y028094D01*
X018448Y028094D02*
X018448Y025732D01*
X019216Y024551D01*
X019826Y027011D02*
X019205Y028666D01*
X019328Y028998D01*
X019596Y029712D01*
X018301Y028941D02*
X018448Y028094D01*
X015720Y027579D02*
X015271Y028568D01*
X023468Y025929D02*
X025138Y028470D01*
X027239Y024506D02*
X028491Y025277D01*
X027239Y024506D02*
X025929Y023468D01*
M02*
