G75*
G70*
%OFA0B0*%
%FSLAX24Y24*%
%IPPOS*%
%LPD*%
%AMOC8*
5,1,8,0,0,1.08239X$1,22.5*
%
%ADD10C,0.0010*%
%ADD11C,0.0080*%
%ADD12C,0.0040*%
%ADD13R,0.0098X0.0098*%
%ADD14R,0.0098X0.0098*%
%ADD15C,0.0060*%
%ADD16C,0.0030*%
%ADD17C,0.0050*%
%ADD18C,0.0406*%
D10*
X007661Y011913D02*
X007686Y011790D01*
X007705Y011666D01*
X007717Y011541D01*
X007724Y011416D01*
X007724Y011291D01*
X007719Y011166D01*
X007707Y011041D01*
X007689Y010917D01*
X007666Y010794D01*
X007636Y010673D01*
X007600Y010553D01*
X007559Y010434D01*
X007511Y010318D01*
X007458Y010205D01*
X007400Y010094D01*
X007336Y009986D01*
X007268Y009881D01*
X007194Y009780D01*
X007115Y009683D01*
X007032Y009589D01*
X006944Y009500D01*
X006852Y009415D01*
X006755Y009335D01*
X006655Y009259D01*
X006552Y009189D01*
X006445Y009124D01*
X006335Y009064D01*
X006222Y009009D01*
X006107Y008960D01*
X005990Y008917D01*
X005870Y008879D01*
X005749Y008847D01*
X005626Y008822D01*
X005503Y008802D01*
X005378Y008788D01*
X005253Y008781D01*
X005128Y008779D01*
X005003Y008784D01*
X004878Y008795D01*
X004754Y008812D01*
X004630Y008834D01*
X004509Y008863D01*
X004388Y008898D01*
X004270Y008939D01*
X004153Y008985D01*
X004039Y009037D01*
X003928Y009095D01*
X003820Y009158D01*
X003715Y009226D01*
X003613Y009299D01*
X003515Y009377D01*
X003421Y009460D01*
X003331Y009547D01*
X003246Y009639D01*
X003165Y009734D01*
X003088Y009834D01*
X003017Y009937D01*
X002951Y010043D01*
X002890Y010152D01*
X002835Y010265D01*
X002785Y010380D01*
X002741Y010497D01*
X002702Y010616D01*
X002670Y010737D01*
X002643Y010860D01*
X002622Y010983D01*
X002608Y011107D01*
X002599Y011232D01*
X002597Y011358D01*
X002601Y011483D01*
X002611Y011608D01*
X002627Y011732D01*
X002649Y011855D01*
X002677Y011977D01*
X002711Y012098D01*
X002750Y012217D01*
X002796Y012333D01*
X002847Y012448D01*
X002904Y012560D01*
X002966Y012668D01*
X003033Y012774D01*
X003106Y012876D01*
X003183Y012975D01*
X003265Y013069D01*
X003352Y013160D01*
X003443Y013246D01*
X003538Y013328D01*
X003637Y013405D01*
X003739Y013477D01*
X003845Y013544D01*
X003954Y013605D01*
X004066Y013661D01*
X004181Y013712D01*
X004297Y013757D01*
X004416Y013796D01*
X004537Y013830D01*
X004659Y013857D01*
X004783Y013879D01*
X004907Y013894D01*
X005032Y013904D01*
X005157Y013907D01*
X005282Y013904D01*
X005407Y013895D01*
X005532Y013880D01*
X005655Y013859D01*
X005777Y013832D01*
X005898Y013799D01*
X006017Y013760D01*
X006134Y013715D01*
X006249Y013665D01*
X006361Y013609D01*
X006470Y013547D01*
X006576Y013481D01*
X006679Y013409D01*
X006778Y013333D01*
X006874Y013251D01*
X006873Y013251D02*
X010929Y015614D01*
X011716Y014236D02*
X007661Y011913D01*
X011913Y007661D02*
X014236Y011716D01*
X015614Y010929D02*
X013251Y006873D01*
X013251Y006874D02*
X013333Y006778D01*
X013409Y006679D01*
X013481Y006576D01*
X013547Y006470D01*
X013609Y006361D01*
X013665Y006249D01*
X013715Y006134D01*
X013760Y006017D01*
X013799Y005898D01*
X013832Y005777D01*
X013859Y005655D01*
X013880Y005532D01*
X013895Y005407D01*
X013904Y005282D01*
X013907Y005157D01*
X013904Y005032D01*
X013894Y004907D01*
X013879Y004783D01*
X013857Y004659D01*
X013830Y004537D01*
X013796Y004416D01*
X013757Y004297D01*
X013712Y004181D01*
X013661Y004066D01*
X013605Y003954D01*
X013544Y003845D01*
X013477Y003739D01*
X013405Y003637D01*
X013328Y003538D01*
X013246Y003443D01*
X013160Y003352D01*
X013069Y003265D01*
X012975Y003183D01*
X012876Y003106D01*
X012774Y003033D01*
X012668Y002966D01*
X012560Y002904D01*
X012448Y002847D01*
X012333Y002796D01*
X012217Y002750D01*
X012098Y002711D01*
X011977Y002677D01*
X011855Y002649D01*
X011732Y002627D01*
X011608Y002611D01*
X011483Y002601D01*
X011358Y002597D01*
X011232Y002599D01*
X011107Y002608D01*
X010983Y002622D01*
X010860Y002643D01*
X010737Y002670D01*
X010616Y002702D01*
X010497Y002741D01*
X010380Y002785D01*
X010265Y002835D01*
X010152Y002890D01*
X010043Y002951D01*
X009937Y003017D01*
X009834Y003088D01*
X009734Y003165D01*
X009639Y003246D01*
X009547Y003331D01*
X009460Y003421D01*
X009377Y003515D01*
X009299Y003613D01*
X009226Y003715D01*
X009158Y003820D01*
X009095Y003928D01*
X009037Y004039D01*
X008985Y004153D01*
X008939Y004270D01*
X008898Y004388D01*
X008863Y004509D01*
X008834Y004630D01*
X008812Y004754D01*
X008795Y004878D01*
X008784Y005003D01*
X008779Y005128D01*
X008781Y005253D01*
X008788Y005378D01*
X008802Y005503D01*
X008822Y005626D01*
X008847Y005749D01*
X008879Y005870D01*
X008917Y005990D01*
X008960Y006107D01*
X009009Y006222D01*
X009064Y006335D01*
X009124Y006445D01*
X009189Y006552D01*
X009259Y006655D01*
X009335Y006755D01*
X009415Y006852D01*
X009500Y006944D01*
X009589Y007032D01*
X009683Y007115D01*
X009780Y007194D01*
X009881Y007268D01*
X009986Y007336D01*
X010094Y007400D01*
X010205Y007458D01*
X010318Y007511D01*
X010434Y007559D01*
X010553Y007600D01*
X010673Y007636D01*
X010794Y007666D01*
X010917Y007689D01*
X011041Y007707D01*
X011166Y007719D01*
X011291Y007724D01*
X011416Y007724D01*
X011541Y007717D01*
X011666Y007705D01*
X011790Y007686D01*
X011913Y007661D01*
X019039Y005338D02*
X019039Y010023D01*
X020614Y010023D02*
X020614Y005338D01*
X020613Y005338D02*
X020732Y005297D01*
X020848Y005250D01*
X020961Y005197D01*
X021072Y005139D01*
X021180Y005076D01*
X021284Y005007D01*
X021386Y004933D01*
X021483Y004855D01*
X021576Y004772D01*
X021666Y004684D01*
X021751Y004592D01*
X021831Y004497D01*
X021907Y004397D01*
X021977Y004294D01*
X022043Y004187D01*
X022103Y004077D01*
X022158Y003965D01*
X022207Y003850D01*
X022251Y003733D01*
X022289Y003613D01*
X022321Y003492D01*
X022347Y003370D01*
X022367Y003247D01*
X022381Y003122D01*
X022389Y002997D01*
X022391Y002872D01*
X022387Y002747D01*
X022376Y002622D01*
X022360Y002498D01*
X022337Y002375D01*
X022309Y002253D01*
X022275Y002133D01*
X022234Y002015D01*
X022189Y001898D01*
X022137Y001784D01*
X022080Y001673D01*
X022018Y001564D01*
X021950Y001459D01*
X021877Y001357D01*
X021800Y001259D01*
X021718Y001165D01*
X021631Y001075D01*
X021540Y000989D01*
X021445Y000907D01*
X021346Y000831D01*
X021243Y000759D01*
X021137Y000693D01*
X021028Y000631D01*
X020916Y000575D01*
X020802Y000525D01*
X020685Y000480D01*
X020566Y000441D01*
X020445Y000408D01*
X020323Y000381D01*
X020200Y000359D01*
X020076Y000344D01*
X019951Y000335D01*
X019826Y000332D01*
X019701Y000335D01*
X019576Y000344D01*
X019452Y000359D01*
X019329Y000381D01*
X019207Y000408D01*
X019086Y000441D01*
X018967Y000480D01*
X018850Y000525D01*
X018736Y000575D01*
X018624Y000631D01*
X018515Y000693D01*
X018409Y000759D01*
X018306Y000831D01*
X018207Y000907D01*
X018112Y000989D01*
X018021Y001075D01*
X017934Y001165D01*
X017852Y001259D01*
X017775Y001357D01*
X017702Y001459D01*
X017634Y001564D01*
X017572Y001673D01*
X017515Y001784D01*
X017463Y001898D01*
X017418Y002015D01*
X017377Y002133D01*
X017343Y002253D01*
X017315Y002375D01*
X017292Y002498D01*
X017276Y002622D01*
X017265Y002747D01*
X017261Y002872D01*
X017263Y002997D01*
X017271Y003122D01*
X017285Y003247D01*
X017305Y003370D01*
X017331Y003492D01*
X017363Y003613D01*
X017401Y003733D01*
X017445Y003850D01*
X017494Y003965D01*
X017549Y004077D01*
X017609Y004187D01*
X017675Y004294D01*
X017745Y004397D01*
X017821Y004497D01*
X017901Y004592D01*
X017986Y004684D01*
X018076Y004772D01*
X018169Y004855D01*
X018266Y004933D01*
X018368Y005007D01*
X018472Y005076D01*
X018580Y005139D01*
X018691Y005197D01*
X018804Y005250D01*
X018920Y005297D01*
X019039Y005338D01*
X024039Y010929D02*
X026401Y006873D01*
X027740Y007661D02*
X025417Y011716D01*
X027936Y014236D02*
X031991Y011913D01*
X032779Y013251D02*
X028724Y015614D01*
X029629Y019039D02*
X034314Y019039D01*
X034314Y020614D02*
X029629Y020614D01*
X028724Y024039D02*
X032779Y026401D01*
X031991Y027740D02*
X027936Y025417D01*
X025417Y027936D02*
X027740Y031991D01*
X026401Y032779D02*
X024039Y028724D01*
X020614Y029629D02*
X020614Y034314D01*
X019039Y034314D02*
X019039Y029629D01*
X015614Y028724D02*
X013251Y032779D01*
X011913Y031991D02*
X014236Y027936D01*
X011716Y025417D02*
X007661Y027740D01*
X006873Y026362D02*
X010929Y024039D01*
X010023Y020614D02*
X005338Y020614D01*
X005338Y019039D02*
X010023Y019039D01*
X005338Y019039D02*
X005297Y018920D01*
X005250Y018804D01*
X005197Y018691D01*
X005139Y018580D01*
X005076Y018472D01*
X005007Y018368D01*
X004933Y018266D01*
X004855Y018169D01*
X004772Y018076D01*
X004684Y017986D01*
X004592Y017901D01*
X004497Y017821D01*
X004397Y017745D01*
X004294Y017675D01*
X004187Y017609D01*
X004077Y017549D01*
X003965Y017494D01*
X003850Y017445D01*
X003733Y017401D01*
X003613Y017363D01*
X003492Y017331D01*
X003370Y017305D01*
X003247Y017285D01*
X003122Y017271D01*
X002997Y017263D01*
X002872Y017261D01*
X002747Y017265D01*
X002622Y017276D01*
X002498Y017292D01*
X002375Y017315D01*
X002253Y017343D01*
X002133Y017377D01*
X002015Y017418D01*
X001898Y017463D01*
X001784Y017515D01*
X001673Y017572D01*
X001564Y017634D01*
X001459Y017702D01*
X001357Y017775D01*
X001259Y017852D01*
X001165Y017934D01*
X001075Y018021D01*
X000989Y018112D01*
X000907Y018207D01*
X000831Y018306D01*
X000759Y018409D01*
X000693Y018515D01*
X000631Y018624D01*
X000575Y018736D01*
X000525Y018850D01*
X000480Y018967D01*
X000441Y019086D01*
X000408Y019207D01*
X000381Y019329D01*
X000359Y019452D01*
X000344Y019576D01*
X000335Y019701D01*
X000332Y019826D01*
X000335Y019951D01*
X000344Y020076D01*
X000359Y020200D01*
X000381Y020323D01*
X000408Y020445D01*
X000441Y020566D01*
X000480Y020685D01*
X000525Y020802D01*
X000575Y020916D01*
X000631Y021028D01*
X000693Y021137D01*
X000759Y021243D01*
X000831Y021346D01*
X000907Y021445D01*
X000989Y021540D01*
X001075Y021631D01*
X001165Y021718D01*
X001259Y021800D01*
X001357Y021877D01*
X001459Y021950D01*
X001564Y022018D01*
X001673Y022080D01*
X001784Y022137D01*
X001898Y022189D01*
X002015Y022234D01*
X002133Y022275D01*
X002253Y022309D01*
X002375Y022337D01*
X002498Y022360D01*
X002622Y022376D01*
X002747Y022387D01*
X002872Y022391D01*
X002997Y022389D01*
X003122Y022381D01*
X003247Y022367D01*
X003370Y022347D01*
X003492Y022321D01*
X003613Y022289D01*
X003733Y022251D01*
X003850Y022207D01*
X003965Y022158D01*
X004077Y022103D01*
X004187Y022043D01*
X004294Y021977D01*
X004397Y021907D01*
X004497Y021831D01*
X004592Y021751D01*
X004684Y021666D01*
X004772Y021576D01*
X004855Y021483D01*
X004933Y021386D01*
X005007Y021284D01*
X005076Y021180D01*
X005139Y021072D01*
X005197Y020961D01*
X005250Y020848D01*
X005297Y020732D01*
X005338Y020613D01*
X006873Y026362D02*
X006779Y026281D01*
X006681Y026204D01*
X006580Y026133D01*
X006475Y026066D01*
X006366Y026005D01*
X006255Y025949D01*
X006142Y025898D01*
X006026Y025853D01*
X005908Y025814D01*
X005788Y025780D01*
X005667Y025753D01*
X005545Y025731D01*
X005421Y025715D01*
X005298Y025706D01*
X005173Y025702D01*
X005049Y025704D01*
X004925Y025713D01*
X004801Y025727D01*
X004679Y025748D01*
X004557Y025774D01*
X004437Y025807D01*
X004319Y025845D01*
X004203Y025889D01*
X004089Y025938D01*
X003977Y025993D01*
X003869Y026053D01*
X003763Y026119D01*
X003661Y026190D01*
X003562Y026265D01*
X003467Y026345D01*
X003376Y026430D01*
X003289Y026519D01*
X003207Y026612D01*
X003129Y026710D01*
X003057Y026810D01*
X002989Y026914D01*
X002926Y027022D01*
X002869Y027132D01*
X002817Y027245D01*
X002771Y027360D01*
X002730Y027478D01*
X002695Y027597D01*
X002666Y027718D01*
X002643Y027840D01*
X002626Y027963D01*
X002614Y028087D01*
X002609Y028211D01*
X002610Y028336D01*
X002617Y028460D01*
X002630Y028583D01*
X002649Y028706D01*
X002674Y028828D01*
X002705Y028948D01*
X002742Y029067D01*
X002784Y029184D01*
X002833Y029299D01*
X002886Y029411D01*
X002945Y029520D01*
X003010Y029627D01*
X003079Y029730D01*
X003153Y029829D01*
X003232Y029925D01*
X003316Y030017D01*
X003404Y030105D01*
X003496Y030188D01*
X003592Y030267D01*
X003692Y030341D01*
X003796Y030410D01*
X003902Y030474D01*
X004012Y030533D01*
X004124Y030586D01*
X004239Y030634D01*
X004356Y030676D01*
X004475Y030712D01*
X004595Y030743D01*
X004717Y030767D01*
X004840Y030786D01*
X004964Y030798D01*
X005088Y030805D01*
X005212Y030805D01*
X005336Y030800D01*
X005460Y030788D01*
X005583Y030771D01*
X005705Y030747D01*
X005826Y030718D01*
X005945Y030683D01*
X006063Y030641D01*
X006178Y030595D01*
X006291Y030542D01*
X006401Y030485D01*
X006508Y030422D01*
X006612Y030354D01*
X006712Y030280D01*
X006809Y030202D01*
X006902Y030120D01*
X006991Y030033D01*
X007075Y029942D01*
X007155Y029846D01*
X007230Y029747D01*
X007301Y029645D01*
X007366Y029539D01*
X007426Y029430D01*
X007480Y029319D01*
X007529Y029204D01*
X007573Y029088D01*
X007611Y028969D01*
X007643Y028849D01*
X007669Y028728D01*
X007689Y028605D01*
X007703Y028482D01*
X007711Y028357D01*
X007713Y028233D01*
X007709Y028109D01*
X007699Y027985D01*
X007683Y027862D01*
X007661Y027739D01*
X011913Y031991D02*
X011790Y031966D01*
X011666Y031947D01*
X011541Y031935D01*
X011416Y031928D01*
X011291Y031928D01*
X011166Y031933D01*
X011041Y031945D01*
X010917Y031963D01*
X010794Y031986D01*
X010673Y032016D01*
X010553Y032052D01*
X010434Y032093D01*
X010318Y032141D01*
X010205Y032194D01*
X010094Y032252D01*
X009986Y032316D01*
X009881Y032384D01*
X009780Y032458D01*
X009683Y032537D01*
X009589Y032620D01*
X009500Y032708D01*
X009415Y032800D01*
X009335Y032897D01*
X009259Y032997D01*
X009189Y033100D01*
X009124Y033207D01*
X009064Y033317D01*
X009009Y033430D01*
X008960Y033545D01*
X008917Y033662D01*
X008879Y033782D01*
X008847Y033903D01*
X008822Y034026D01*
X008802Y034149D01*
X008788Y034274D01*
X008781Y034399D01*
X008779Y034524D01*
X008784Y034649D01*
X008795Y034774D01*
X008812Y034898D01*
X008834Y035022D01*
X008863Y035143D01*
X008898Y035264D01*
X008939Y035382D01*
X008985Y035499D01*
X009037Y035613D01*
X009095Y035724D01*
X009158Y035832D01*
X009226Y035937D01*
X009299Y036039D01*
X009377Y036137D01*
X009460Y036231D01*
X009547Y036321D01*
X009639Y036406D01*
X009734Y036487D01*
X009834Y036564D01*
X009937Y036635D01*
X010043Y036701D01*
X010152Y036762D01*
X010265Y036817D01*
X010380Y036867D01*
X010497Y036911D01*
X010616Y036950D01*
X010737Y036982D01*
X010860Y037009D01*
X010983Y037030D01*
X011107Y037044D01*
X011232Y037053D01*
X011358Y037055D01*
X011483Y037051D01*
X011608Y037041D01*
X011732Y037025D01*
X011855Y037003D01*
X011977Y036975D01*
X012098Y036941D01*
X012217Y036902D01*
X012333Y036856D01*
X012448Y036805D01*
X012560Y036748D01*
X012668Y036686D01*
X012774Y036619D01*
X012876Y036546D01*
X012975Y036469D01*
X013069Y036387D01*
X013160Y036300D01*
X013246Y036209D01*
X013328Y036114D01*
X013405Y036015D01*
X013477Y035913D01*
X013544Y035807D01*
X013605Y035698D01*
X013661Y035586D01*
X013712Y035471D01*
X013757Y035355D01*
X013796Y035236D01*
X013830Y035115D01*
X013857Y034993D01*
X013879Y034869D01*
X013894Y034745D01*
X013904Y034620D01*
X013907Y034495D01*
X013904Y034370D01*
X013895Y034245D01*
X013880Y034120D01*
X013859Y033997D01*
X013832Y033875D01*
X013799Y033754D01*
X013760Y033635D01*
X013715Y033518D01*
X013665Y033403D01*
X013609Y033291D01*
X013547Y033182D01*
X013481Y033076D01*
X013409Y032973D01*
X013333Y032874D01*
X013251Y032778D01*
X019039Y034314D02*
X018920Y034355D01*
X018804Y034402D01*
X018691Y034455D01*
X018580Y034513D01*
X018472Y034576D01*
X018368Y034645D01*
X018266Y034719D01*
X018169Y034797D01*
X018076Y034880D01*
X017986Y034968D01*
X017901Y035060D01*
X017821Y035155D01*
X017745Y035255D01*
X017675Y035358D01*
X017609Y035465D01*
X017549Y035575D01*
X017494Y035687D01*
X017445Y035802D01*
X017401Y035919D01*
X017363Y036039D01*
X017331Y036160D01*
X017305Y036282D01*
X017285Y036405D01*
X017271Y036530D01*
X017263Y036655D01*
X017261Y036780D01*
X017265Y036905D01*
X017276Y037030D01*
X017292Y037154D01*
X017315Y037277D01*
X017343Y037399D01*
X017377Y037519D01*
X017418Y037637D01*
X017463Y037754D01*
X017515Y037868D01*
X017572Y037979D01*
X017634Y038088D01*
X017702Y038193D01*
X017775Y038295D01*
X017852Y038393D01*
X017934Y038487D01*
X018021Y038577D01*
X018112Y038663D01*
X018207Y038745D01*
X018306Y038821D01*
X018409Y038893D01*
X018515Y038959D01*
X018624Y039021D01*
X018736Y039077D01*
X018850Y039127D01*
X018967Y039172D01*
X019086Y039211D01*
X019207Y039244D01*
X019329Y039271D01*
X019452Y039293D01*
X019576Y039308D01*
X019701Y039317D01*
X019826Y039320D01*
X019951Y039317D01*
X020076Y039308D01*
X020200Y039293D01*
X020323Y039271D01*
X020445Y039244D01*
X020566Y039211D01*
X020685Y039172D01*
X020802Y039127D01*
X020916Y039077D01*
X021028Y039021D01*
X021137Y038959D01*
X021243Y038893D01*
X021346Y038821D01*
X021445Y038745D01*
X021540Y038663D01*
X021631Y038577D01*
X021718Y038487D01*
X021800Y038393D01*
X021877Y038295D01*
X021950Y038193D01*
X022018Y038088D01*
X022080Y037979D01*
X022137Y037868D01*
X022189Y037754D01*
X022234Y037637D01*
X022275Y037519D01*
X022309Y037399D01*
X022337Y037277D01*
X022360Y037154D01*
X022376Y037030D01*
X022387Y036905D01*
X022391Y036780D01*
X022389Y036655D01*
X022381Y036530D01*
X022367Y036405D01*
X022347Y036282D01*
X022321Y036160D01*
X022289Y036039D01*
X022251Y035919D01*
X022207Y035802D01*
X022158Y035687D01*
X022103Y035575D01*
X022043Y035465D01*
X021977Y035358D01*
X021907Y035255D01*
X021831Y035155D01*
X021751Y035060D01*
X021666Y034968D01*
X021576Y034880D01*
X021483Y034797D01*
X021386Y034719D01*
X021284Y034645D01*
X021180Y034576D01*
X021072Y034513D01*
X020961Y034455D01*
X020848Y034402D01*
X020732Y034355D01*
X020613Y034314D01*
X026401Y032778D02*
X026319Y032874D01*
X026243Y032973D01*
X026171Y033076D01*
X026105Y033182D01*
X026043Y033291D01*
X025987Y033403D01*
X025937Y033518D01*
X025892Y033635D01*
X025853Y033754D01*
X025820Y033875D01*
X025793Y033997D01*
X025772Y034120D01*
X025757Y034245D01*
X025748Y034370D01*
X025745Y034495D01*
X025748Y034620D01*
X025758Y034745D01*
X025773Y034869D01*
X025795Y034993D01*
X025822Y035115D01*
X025856Y035236D01*
X025895Y035355D01*
X025940Y035471D01*
X025991Y035586D01*
X026047Y035698D01*
X026108Y035807D01*
X026175Y035913D01*
X026247Y036015D01*
X026324Y036114D01*
X026406Y036209D01*
X026492Y036300D01*
X026583Y036387D01*
X026677Y036469D01*
X026776Y036546D01*
X026878Y036619D01*
X026984Y036686D01*
X027092Y036748D01*
X027204Y036805D01*
X027319Y036856D01*
X027435Y036902D01*
X027554Y036941D01*
X027675Y036975D01*
X027797Y037003D01*
X027920Y037025D01*
X028044Y037041D01*
X028169Y037051D01*
X028294Y037055D01*
X028420Y037053D01*
X028545Y037044D01*
X028669Y037030D01*
X028792Y037009D01*
X028915Y036982D01*
X029036Y036950D01*
X029155Y036911D01*
X029272Y036867D01*
X029387Y036817D01*
X029500Y036762D01*
X029609Y036701D01*
X029715Y036635D01*
X029818Y036564D01*
X029918Y036487D01*
X030013Y036406D01*
X030105Y036321D01*
X030192Y036231D01*
X030275Y036137D01*
X030353Y036039D01*
X030426Y035937D01*
X030494Y035832D01*
X030557Y035724D01*
X030615Y035613D01*
X030667Y035499D01*
X030713Y035382D01*
X030754Y035264D01*
X030789Y035143D01*
X030818Y035022D01*
X030840Y034898D01*
X030857Y034774D01*
X030868Y034649D01*
X030873Y034524D01*
X030871Y034399D01*
X030864Y034274D01*
X030850Y034149D01*
X030830Y034026D01*
X030805Y033903D01*
X030773Y033782D01*
X030735Y033662D01*
X030692Y033545D01*
X030643Y033430D01*
X030588Y033317D01*
X030528Y033207D01*
X030463Y033100D01*
X030393Y032997D01*
X030317Y032897D01*
X030237Y032800D01*
X030152Y032708D01*
X030063Y032620D01*
X029969Y032537D01*
X029872Y032458D01*
X029771Y032384D01*
X029666Y032316D01*
X029558Y032252D01*
X029447Y032194D01*
X029334Y032141D01*
X029218Y032093D01*
X029099Y032052D01*
X028979Y032016D01*
X028858Y031986D01*
X028735Y031963D01*
X028611Y031945D01*
X028486Y031933D01*
X028361Y031928D01*
X028236Y031928D01*
X028111Y031935D01*
X027986Y031947D01*
X027862Y031966D01*
X027739Y031991D01*
X031991Y027739D02*
X031966Y027862D01*
X031947Y027986D01*
X031935Y028111D01*
X031928Y028236D01*
X031928Y028361D01*
X031933Y028486D01*
X031945Y028611D01*
X031963Y028735D01*
X031986Y028858D01*
X032016Y028979D01*
X032052Y029099D01*
X032093Y029218D01*
X032141Y029334D01*
X032194Y029447D01*
X032252Y029558D01*
X032316Y029666D01*
X032384Y029771D01*
X032458Y029872D01*
X032537Y029969D01*
X032620Y030063D01*
X032708Y030152D01*
X032800Y030237D01*
X032897Y030317D01*
X032997Y030393D01*
X033100Y030463D01*
X033207Y030528D01*
X033317Y030588D01*
X033430Y030643D01*
X033545Y030692D01*
X033662Y030735D01*
X033782Y030773D01*
X033903Y030805D01*
X034026Y030830D01*
X034149Y030850D01*
X034274Y030864D01*
X034399Y030871D01*
X034524Y030873D01*
X034649Y030868D01*
X034774Y030857D01*
X034898Y030840D01*
X035022Y030818D01*
X035143Y030789D01*
X035264Y030754D01*
X035382Y030713D01*
X035499Y030667D01*
X035613Y030615D01*
X035724Y030557D01*
X035832Y030494D01*
X035937Y030426D01*
X036039Y030353D01*
X036137Y030275D01*
X036231Y030192D01*
X036321Y030105D01*
X036406Y030013D01*
X036487Y029918D01*
X036564Y029818D01*
X036635Y029715D01*
X036701Y029609D01*
X036762Y029500D01*
X036817Y029387D01*
X036867Y029272D01*
X036911Y029155D01*
X036950Y029036D01*
X036982Y028915D01*
X037009Y028792D01*
X037030Y028669D01*
X037044Y028545D01*
X037053Y028420D01*
X037055Y028294D01*
X037051Y028169D01*
X037041Y028044D01*
X037025Y027920D01*
X037003Y027797D01*
X036975Y027675D01*
X036941Y027554D01*
X036902Y027435D01*
X036856Y027319D01*
X036805Y027204D01*
X036748Y027092D01*
X036686Y026984D01*
X036619Y026878D01*
X036546Y026776D01*
X036469Y026677D01*
X036387Y026583D01*
X036300Y026492D01*
X036209Y026406D01*
X036114Y026324D01*
X036015Y026247D01*
X035913Y026175D01*
X035807Y026108D01*
X035698Y026047D01*
X035586Y025991D01*
X035471Y025940D01*
X035355Y025895D01*
X035236Y025856D01*
X035115Y025822D01*
X034993Y025795D01*
X034869Y025773D01*
X034745Y025758D01*
X034620Y025748D01*
X034495Y025745D01*
X034370Y025748D01*
X034245Y025757D01*
X034120Y025772D01*
X033997Y025793D01*
X033875Y025820D01*
X033754Y025853D01*
X033635Y025892D01*
X033518Y025937D01*
X033403Y025987D01*
X033291Y026043D01*
X033182Y026105D01*
X033076Y026171D01*
X032973Y026243D01*
X032874Y026319D01*
X032778Y026401D01*
X034314Y020613D02*
X034355Y020732D01*
X034402Y020848D01*
X034455Y020961D01*
X034513Y021072D01*
X034576Y021180D01*
X034645Y021284D01*
X034719Y021386D01*
X034797Y021483D01*
X034880Y021576D01*
X034968Y021666D01*
X035060Y021751D01*
X035155Y021831D01*
X035255Y021907D01*
X035358Y021977D01*
X035465Y022043D01*
X035575Y022103D01*
X035687Y022158D01*
X035802Y022207D01*
X035919Y022251D01*
X036039Y022289D01*
X036160Y022321D01*
X036282Y022347D01*
X036405Y022367D01*
X036530Y022381D01*
X036655Y022389D01*
X036780Y022391D01*
X036905Y022387D01*
X037030Y022376D01*
X037154Y022360D01*
X037277Y022337D01*
X037399Y022309D01*
X037519Y022275D01*
X037637Y022234D01*
X037754Y022189D01*
X037868Y022137D01*
X037979Y022080D01*
X038088Y022018D01*
X038193Y021950D01*
X038295Y021877D01*
X038393Y021800D01*
X038487Y021718D01*
X038577Y021631D01*
X038663Y021540D01*
X038745Y021445D01*
X038821Y021346D01*
X038893Y021243D01*
X038959Y021137D01*
X039021Y021028D01*
X039077Y020916D01*
X039127Y020802D01*
X039172Y020685D01*
X039211Y020566D01*
X039244Y020445D01*
X039271Y020323D01*
X039293Y020200D01*
X039308Y020076D01*
X039317Y019951D01*
X039320Y019826D01*
X039317Y019701D01*
X039308Y019576D01*
X039293Y019452D01*
X039271Y019329D01*
X039244Y019207D01*
X039211Y019086D01*
X039172Y018967D01*
X039127Y018850D01*
X039077Y018736D01*
X039021Y018624D01*
X038959Y018515D01*
X038893Y018409D01*
X038821Y018306D01*
X038745Y018207D01*
X038663Y018112D01*
X038577Y018021D01*
X038487Y017934D01*
X038393Y017852D01*
X038295Y017775D01*
X038193Y017702D01*
X038088Y017634D01*
X037979Y017572D01*
X037868Y017515D01*
X037754Y017463D01*
X037637Y017418D01*
X037519Y017377D01*
X037399Y017343D01*
X037277Y017315D01*
X037154Y017292D01*
X037030Y017276D01*
X036905Y017265D01*
X036780Y017261D01*
X036655Y017263D01*
X036530Y017271D01*
X036405Y017285D01*
X036282Y017305D01*
X036160Y017331D01*
X036039Y017363D01*
X035919Y017401D01*
X035802Y017445D01*
X035687Y017494D01*
X035575Y017549D01*
X035465Y017609D01*
X035358Y017675D01*
X035255Y017745D01*
X035155Y017821D01*
X035060Y017901D01*
X034968Y017986D01*
X034880Y018076D01*
X034797Y018169D01*
X034719Y018266D01*
X034645Y018368D01*
X034576Y018472D01*
X034513Y018580D01*
X034455Y018691D01*
X034402Y018804D01*
X034355Y018920D01*
X034314Y019039D01*
X032778Y013251D02*
X032874Y013333D01*
X032973Y013409D01*
X033076Y013481D01*
X033182Y013547D01*
X033291Y013609D01*
X033403Y013665D01*
X033518Y013715D01*
X033635Y013760D01*
X033754Y013799D01*
X033875Y013832D01*
X033997Y013859D01*
X034120Y013880D01*
X034245Y013895D01*
X034370Y013904D01*
X034495Y013907D01*
X034620Y013904D01*
X034745Y013894D01*
X034869Y013879D01*
X034993Y013857D01*
X035115Y013830D01*
X035236Y013796D01*
X035355Y013757D01*
X035471Y013712D01*
X035586Y013661D01*
X035698Y013605D01*
X035807Y013544D01*
X035913Y013477D01*
X036015Y013405D01*
X036114Y013328D01*
X036209Y013246D01*
X036300Y013160D01*
X036387Y013069D01*
X036469Y012975D01*
X036546Y012876D01*
X036619Y012774D01*
X036686Y012668D01*
X036748Y012560D01*
X036805Y012448D01*
X036856Y012333D01*
X036902Y012217D01*
X036941Y012098D01*
X036975Y011977D01*
X037003Y011855D01*
X037025Y011732D01*
X037041Y011608D01*
X037051Y011483D01*
X037055Y011358D01*
X037053Y011232D01*
X037044Y011107D01*
X037030Y010983D01*
X037009Y010860D01*
X036982Y010737D01*
X036950Y010616D01*
X036911Y010497D01*
X036867Y010380D01*
X036817Y010265D01*
X036762Y010152D01*
X036701Y010043D01*
X036635Y009937D01*
X036564Y009834D01*
X036487Y009734D01*
X036406Y009639D01*
X036321Y009547D01*
X036231Y009460D01*
X036137Y009377D01*
X036039Y009299D01*
X035937Y009226D01*
X035832Y009158D01*
X035724Y009095D01*
X035613Y009037D01*
X035499Y008985D01*
X035382Y008939D01*
X035264Y008898D01*
X035143Y008863D01*
X035022Y008834D01*
X034898Y008812D01*
X034774Y008795D01*
X034649Y008784D01*
X034524Y008779D01*
X034399Y008781D01*
X034274Y008788D01*
X034149Y008802D01*
X034026Y008822D01*
X033903Y008847D01*
X033782Y008879D01*
X033662Y008917D01*
X033545Y008960D01*
X033430Y009009D01*
X033317Y009064D01*
X033207Y009124D01*
X033100Y009189D01*
X032997Y009259D01*
X032897Y009335D01*
X032800Y009415D01*
X032708Y009500D01*
X032620Y009589D01*
X032537Y009683D01*
X032458Y009780D01*
X032384Y009881D01*
X032316Y009986D01*
X032252Y010094D01*
X032194Y010205D01*
X032141Y010318D01*
X032093Y010434D01*
X032052Y010553D01*
X032016Y010673D01*
X031986Y010794D01*
X031963Y010917D01*
X031945Y011041D01*
X031933Y011166D01*
X031928Y011291D01*
X031928Y011416D01*
X031935Y011541D01*
X031947Y011666D01*
X031966Y011790D01*
X031991Y011913D01*
X027739Y007661D02*
X027862Y007686D01*
X027986Y007705D01*
X028111Y007717D01*
X028236Y007724D01*
X028361Y007724D01*
X028486Y007719D01*
X028611Y007707D01*
X028735Y007689D01*
X028858Y007666D01*
X028979Y007636D01*
X029099Y007600D01*
X029218Y007559D01*
X029334Y007511D01*
X029447Y007458D01*
X029558Y007400D01*
X029666Y007336D01*
X029771Y007268D01*
X029872Y007194D01*
X029969Y007115D01*
X030063Y007032D01*
X030152Y006944D01*
X030237Y006852D01*
X030317Y006755D01*
X030393Y006655D01*
X030463Y006552D01*
X030528Y006445D01*
X030588Y006335D01*
X030643Y006222D01*
X030692Y006107D01*
X030735Y005990D01*
X030773Y005870D01*
X030805Y005749D01*
X030830Y005626D01*
X030850Y005503D01*
X030864Y005378D01*
X030871Y005253D01*
X030873Y005128D01*
X030868Y005003D01*
X030857Y004878D01*
X030840Y004754D01*
X030818Y004630D01*
X030789Y004509D01*
X030754Y004388D01*
X030713Y004270D01*
X030667Y004153D01*
X030615Y004039D01*
X030557Y003928D01*
X030494Y003820D01*
X030426Y003715D01*
X030353Y003613D01*
X030275Y003515D01*
X030192Y003421D01*
X030105Y003331D01*
X030013Y003246D01*
X029918Y003165D01*
X029818Y003088D01*
X029715Y003017D01*
X029609Y002951D01*
X029500Y002890D01*
X029387Y002835D01*
X029272Y002785D01*
X029155Y002741D01*
X029036Y002702D01*
X028915Y002670D01*
X028792Y002643D01*
X028669Y002622D01*
X028545Y002608D01*
X028420Y002599D01*
X028294Y002597D01*
X028169Y002601D01*
X028044Y002611D01*
X027920Y002627D01*
X027797Y002649D01*
X027675Y002677D01*
X027554Y002711D01*
X027435Y002750D01*
X027319Y002796D01*
X027204Y002847D01*
X027092Y002904D01*
X026984Y002966D01*
X026878Y003033D01*
X026776Y003106D01*
X026677Y003183D01*
X026583Y003265D01*
X026492Y003352D01*
X026406Y003443D01*
X026324Y003538D01*
X026247Y003637D01*
X026175Y003739D01*
X026108Y003845D01*
X026047Y003954D01*
X025991Y004066D01*
X025940Y004181D01*
X025895Y004297D01*
X025856Y004416D01*
X025822Y004537D01*
X025795Y004659D01*
X025773Y004783D01*
X025758Y004907D01*
X025748Y005032D01*
X025745Y005157D01*
X025748Y005282D01*
X025757Y005407D01*
X025772Y005532D01*
X025793Y005655D01*
X025820Y005777D01*
X025853Y005898D01*
X025892Y006017D01*
X025937Y006134D01*
X025987Y006249D01*
X026043Y006361D01*
X026105Y006470D01*
X026171Y006576D01*
X026243Y006679D01*
X026319Y006778D01*
X026401Y006874D01*
X028724Y015613D02*
X028904Y016020D01*
X029066Y016435D01*
X029209Y016857D01*
X029332Y017285D01*
X029436Y017718D01*
X029521Y018155D01*
X029585Y018596D01*
X029630Y019039D01*
X024039Y028724D02*
X023632Y028904D01*
X023217Y029066D01*
X022795Y029209D01*
X022367Y029332D01*
X021934Y029436D01*
X021497Y029521D01*
X021056Y029585D01*
X020613Y029630D01*
X028724Y024039D02*
X028904Y023632D01*
X029066Y023217D01*
X029209Y022795D01*
X029332Y022367D01*
X029436Y021934D01*
X029521Y021497D01*
X029585Y021056D01*
X029630Y020613D01*
X024039Y010928D02*
X023632Y010748D01*
X023217Y010586D01*
X022795Y010443D01*
X022367Y010320D01*
X021934Y010216D01*
X021497Y010131D01*
X021056Y010067D01*
X020613Y010022D01*
X010928Y015613D02*
X010748Y016020D01*
X010586Y016435D01*
X010443Y016857D01*
X010320Y017285D01*
X010216Y017718D01*
X010131Y018155D01*
X010067Y018596D01*
X010022Y019039D01*
X015613Y028724D02*
X016020Y028904D01*
X016435Y029066D01*
X016857Y029209D01*
X017285Y029332D01*
X017718Y029436D01*
X018155Y029521D01*
X018596Y029585D01*
X019039Y029630D01*
X010928Y024039D02*
X010748Y023632D01*
X010586Y023217D01*
X010443Y022795D01*
X010320Y022367D01*
X010216Y021934D01*
X010131Y021497D01*
X010067Y021056D01*
X010022Y020613D01*
X015613Y010928D02*
X016020Y010748D01*
X016435Y010586D01*
X016857Y010443D01*
X017285Y010320D01*
X017718Y010216D01*
X018155Y010131D01*
X018596Y010067D01*
X019039Y010022D01*
X025416Y011716D02*
X025779Y011979D01*
X026130Y012257D01*
X026467Y012552D01*
X026791Y012861D01*
X027100Y013185D01*
X027395Y013522D01*
X027673Y013873D01*
X027936Y014236D01*
X027936Y025416D02*
X027673Y025779D01*
X027395Y026130D01*
X027100Y026467D01*
X026791Y026791D01*
X026467Y027100D01*
X026130Y027395D01*
X025779Y027673D01*
X025416Y027936D01*
X011716Y014236D02*
X011979Y013873D01*
X012257Y013522D01*
X012552Y013185D01*
X012861Y012861D01*
X013185Y012552D01*
X013522Y012257D01*
X013873Y011979D01*
X014236Y011716D01*
X011716Y025416D02*
X011979Y025779D01*
X012257Y026130D01*
X012552Y026467D01*
X012861Y026791D01*
X013185Y027100D01*
X013522Y027395D01*
X013873Y027673D01*
X014236Y027936D01*
D11*
X016887Y027178D02*
X016887Y026764D01*
X016991Y026661D01*
X017198Y026661D01*
X017301Y026764D01*
X016887Y027178D01*
X016991Y027282D01*
X017198Y027282D01*
X017301Y027178D01*
X017301Y026764D01*
X018083Y026764D02*
X018186Y026661D01*
X018393Y026661D01*
X018497Y026764D01*
X018497Y026971D02*
X018290Y027075D01*
X018186Y027075D01*
X018083Y026971D01*
X018083Y026764D01*
X018497Y026971D02*
X018497Y027282D01*
X018083Y027282D01*
X018727Y026971D02*
X019141Y026971D01*
X018934Y027178D02*
X018934Y026764D01*
X018101Y024322D02*
X017894Y024115D01*
X017687Y024322D01*
X017687Y023701D01*
X017457Y023804D02*
X017353Y023701D01*
X017146Y023701D01*
X017043Y023804D01*
X016812Y023701D02*
X016398Y023701D01*
X016168Y023701D02*
X016168Y024322D01*
X015857Y024322D01*
X015754Y024218D01*
X015754Y024011D01*
X015857Y023908D01*
X016168Y023908D01*
X015961Y023908D02*
X015754Y023701D01*
X016812Y023701D02*
X016812Y024322D01*
X017043Y024218D02*
X017146Y024322D01*
X017353Y024322D01*
X017457Y024218D01*
X017457Y023804D01*
X018101Y023701D02*
X018101Y024322D01*
X024194Y018173D02*
X024196Y018188D01*
X024202Y018201D01*
X024211Y018213D01*
X024222Y018222D01*
X024236Y018228D01*
X024251Y018230D01*
X024266Y018228D01*
X024279Y018222D01*
X024291Y018213D01*
X024300Y018202D01*
X024306Y018188D01*
X024308Y018173D01*
X024306Y018158D01*
X024300Y018145D01*
X024291Y018133D01*
X024280Y018124D01*
X024266Y018118D01*
X024251Y018116D01*
X024236Y018118D01*
X024223Y018124D01*
X024211Y018133D01*
X024202Y018144D01*
X024196Y018158D01*
X024194Y018173D01*
X020901Y013922D02*
X020591Y013922D01*
X020487Y013818D01*
X020487Y013611D01*
X020591Y013508D01*
X020901Y013508D01*
X020901Y013301D02*
X020901Y013922D01*
X020257Y013818D02*
X020257Y013404D01*
X020153Y013301D01*
X019946Y013301D01*
X019843Y013404D01*
X019843Y013611D01*
X020050Y013611D01*
X020257Y013818D02*
X020153Y013922D01*
X019946Y013922D01*
X019843Y013818D01*
X019612Y013922D02*
X019612Y013301D01*
X019302Y013301D01*
X019198Y013404D01*
X019198Y013818D01*
X019302Y013922D01*
X019612Y013922D01*
X015475Y012902D02*
X015475Y012281D01*
X015475Y012488D02*
X015164Y012488D01*
X015061Y012591D01*
X015061Y012798D01*
X015164Y012902D01*
X015475Y012902D01*
X014830Y012798D02*
X014830Y012384D01*
X014727Y012281D01*
X014520Y012281D01*
X014417Y012384D01*
X014417Y012591D01*
X014623Y012591D01*
X014417Y012798D02*
X014520Y012902D01*
X014727Y012902D01*
X014830Y012798D01*
X014186Y012798D02*
X014186Y012384D01*
X014082Y012281D01*
X013875Y012281D01*
X013772Y012384D01*
X013772Y012798D02*
X013875Y012902D01*
X014082Y012902D01*
X014186Y012798D01*
D12*
X009085Y005131D02*
X009004Y005153D01*
X008945Y005255D01*
X008967Y005336D01*
X009018Y005365D01*
X009098Y005344D01*
X009157Y005241D01*
X009238Y005220D01*
X009289Y005249D01*
X009311Y005330D01*
X009252Y005432D01*
X009171Y005454D01*
X009120Y005424D01*
X009098Y005344D01*
X009157Y005241D02*
X009136Y005161D01*
X009085Y005131D01*
X009097Y004992D02*
X009215Y004788D01*
X009521Y004965D01*
X009534Y004826D02*
X009482Y004796D01*
X009461Y004716D01*
X009549Y004563D01*
X009461Y004716D02*
X009380Y004738D01*
X009329Y004708D01*
X009308Y004627D01*
X009396Y004474D01*
X009703Y004651D01*
X009614Y004804D01*
X009534Y004826D01*
X009768Y004555D02*
X011630Y003480D01*
X012955Y005775D01*
X011093Y006850D01*
X009768Y004555D01*
X011458Y003137D02*
X011436Y003056D01*
X011466Y003005D01*
X011546Y002984D01*
X011648Y003043D01*
X011670Y003123D01*
X011640Y003174D01*
X011560Y003196D01*
X011458Y003137D01*
X011546Y002984D02*
X011525Y002903D01*
X011554Y002852D01*
X011635Y002831D01*
X011737Y002890D01*
X011758Y002970D01*
X011729Y003021D01*
X011648Y003043D01*
X011720Y003289D02*
X011925Y003407D01*
X012102Y003100D01*
X011897Y002982D01*
X011911Y003195D02*
X012013Y003254D01*
X012123Y003317D02*
X012203Y003295D01*
X012357Y003384D01*
X012416Y003282D02*
X012239Y003588D01*
X012085Y003500D01*
X012064Y003419D01*
X012123Y003317D01*
X012255Y003325D02*
X012211Y003164D01*
X013551Y008622D02*
X013631Y008643D01*
X013690Y008746D01*
X013669Y008826D01*
X013618Y008856D01*
X013537Y008834D01*
X013478Y008732D01*
X013500Y008651D01*
X013551Y008622D01*
X013478Y008732D02*
X013397Y008710D01*
X013346Y008740D01*
X013325Y008820D01*
X013384Y008923D01*
X013464Y008944D01*
X013515Y008915D01*
X013537Y008834D01*
X013630Y008995D02*
X013710Y009016D01*
X013799Y009170D01*
X013901Y009111D02*
X013594Y009288D01*
X013506Y009134D01*
X013527Y009054D01*
X013630Y008995D01*
X013740Y009067D02*
X013783Y008906D01*
X013913Y009250D02*
X013811Y009309D01*
X013870Y009411D01*
X013827Y009572D02*
X014031Y009454D01*
X014053Y009374D01*
X013994Y009271D01*
X013913Y009250D01*
X013709Y009368D02*
X013687Y009448D01*
X013746Y009551D01*
X013827Y009572D01*
X009686Y013796D02*
X009584Y013737D01*
X009503Y013758D01*
X009444Y013860D01*
X009546Y013919D01*
X009385Y013963D02*
X009407Y014043D01*
X009509Y014102D01*
X009589Y014081D01*
X009707Y013876D01*
X009686Y013796D01*
X009423Y013644D02*
X009246Y013951D01*
X009093Y013862D01*
X009071Y013781D01*
X009130Y013679D01*
X009211Y013658D01*
X009364Y013746D01*
X009262Y013687D02*
X009219Y013526D01*
X009080Y013514D02*
X009058Y013433D01*
X008956Y013374D01*
X008875Y013396D01*
X008757Y013600D01*
X008779Y013681D01*
X008881Y013740D01*
X008962Y013718D01*
X008991Y013667D01*
X008969Y013586D01*
X008816Y013498D01*
X005775Y012955D02*
X006850Y011093D01*
X004555Y009768D01*
X003480Y011630D01*
X005775Y012955D01*
X003832Y012061D02*
X003678Y011973D01*
X003598Y011994D01*
X003568Y012045D01*
X003590Y012126D01*
X003743Y012214D01*
X003590Y012126D02*
X003509Y012148D01*
X003480Y012199D01*
X003501Y012279D01*
X003655Y012368D01*
X003832Y012061D01*
X003518Y011880D02*
X003313Y011762D01*
X003174Y011750D02*
X003153Y011669D01*
X003051Y011610D01*
X002970Y011632D01*
X002852Y011836D01*
X002874Y011917D01*
X002976Y011976D01*
X003056Y011954D01*
X003086Y011903D01*
X003064Y011822D01*
X002911Y011734D01*
X003341Y012187D02*
X003518Y011880D01*
X004792Y009703D02*
X004587Y009585D01*
X004507Y009470D02*
X004537Y009419D01*
X004515Y009338D01*
X004362Y009250D01*
X004303Y009352D02*
X004325Y009433D01*
X004427Y009492D01*
X004507Y009470D01*
X004303Y009352D02*
X004421Y009148D01*
X004502Y009126D01*
X004604Y009185D01*
X004625Y009266D01*
X004764Y009278D02*
X004969Y009396D01*
X004792Y009703D01*
X004931Y009715D02*
X004990Y009612D01*
X005070Y009591D01*
X005224Y009679D01*
X005283Y009577D02*
X005106Y009884D01*
X004952Y009795D01*
X004931Y009715D01*
X004880Y009549D02*
X004778Y009490D01*
X005078Y009459D02*
X005122Y009620D01*
X012133Y015943D02*
X012193Y015883D01*
X012313Y015883D01*
X012373Y015943D01*
X012373Y016063D02*
X012253Y016123D01*
X012193Y016123D01*
X012133Y016063D01*
X012133Y015943D01*
X012373Y016063D02*
X012373Y016243D01*
X012133Y016243D01*
X012501Y016243D02*
X012501Y015943D01*
X012561Y015883D01*
X012682Y015883D01*
X012742Y015943D01*
X012742Y016243D01*
X013852Y016046D02*
X013852Y015841D01*
X013989Y015841D02*
X013989Y016046D01*
X013920Y016115D01*
X013852Y016046D01*
X013989Y016046D02*
X014057Y016115D01*
X014125Y016115D01*
X014125Y015841D01*
X014266Y015909D02*
X014266Y016046D01*
X014334Y016115D01*
X014471Y016115D01*
X014540Y016046D01*
X014540Y015909D01*
X014471Y015841D01*
X014334Y015841D01*
X014266Y015909D01*
X014680Y015841D02*
X014886Y015841D01*
X014954Y015909D01*
X014954Y016046D01*
X014886Y016115D01*
X014680Y016115D01*
X015093Y015909D02*
X015093Y015841D01*
X015161Y015841D01*
X015161Y015909D01*
X015093Y015909D01*
X015312Y015909D02*
X015380Y015978D01*
X015517Y015978D01*
X015585Y016046D01*
X015517Y016115D01*
X015312Y016115D01*
X015312Y015909D02*
X015380Y015841D01*
X015585Y015841D01*
X015726Y015909D02*
X015795Y015841D01*
X016000Y015841D01*
X016000Y016251D01*
X016000Y016115D02*
X015795Y016115D01*
X015726Y016046D01*
X015726Y015909D01*
X016140Y015841D02*
X016346Y015841D01*
X016414Y015909D01*
X016346Y015978D01*
X016140Y015978D01*
X016140Y016046D02*
X016140Y015841D01*
X016140Y016046D02*
X016209Y016115D01*
X016346Y016115D01*
X016555Y015841D02*
X016828Y015841D01*
X016828Y016251D01*
X016969Y016046D02*
X016969Y015841D01*
X017106Y015841D02*
X017106Y016046D01*
X017038Y016115D01*
X016969Y016046D01*
X017106Y016046D02*
X017174Y016115D01*
X017243Y016115D01*
X017243Y015841D01*
X017383Y015909D02*
X017383Y016046D01*
X017452Y016115D01*
X017589Y016115D01*
X017657Y016046D01*
X017657Y015909D01*
X017589Y015841D01*
X017452Y015841D01*
X017383Y015909D01*
X017798Y015909D02*
X017798Y016046D01*
X017866Y016115D01*
X018003Y016115D01*
X018071Y016046D01*
X018071Y015909D01*
X018003Y015841D01*
X017866Y015841D01*
X017798Y015909D01*
X018212Y015841D02*
X018349Y015978D01*
X018281Y015978D02*
X018486Y015978D01*
X018486Y015841D02*
X018486Y016251D01*
X018281Y016251D01*
X018212Y016183D01*
X018212Y016046D01*
X018281Y015978D01*
X018625Y015841D02*
X018762Y015841D01*
X018694Y015841D02*
X018694Y016251D01*
X018762Y016251D01*
X018970Y016251D02*
X018970Y015841D01*
X019038Y015841D02*
X018901Y015841D01*
X019179Y015841D02*
X019179Y016046D01*
X019247Y016115D01*
X019384Y016115D01*
X019384Y015978D02*
X019179Y015978D01*
X019179Y015841D02*
X019384Y015841D01*
X019452Y015909D01*
X019384Y015978D01*
X019593Y016046D02*
X019593Y015841D01*
X019730Y015841D02*
X019730Y016046D01*
X019662Y016115D01*
X019593Y016046D01*
X019730Y016046D02*
X019798Y016115D01*
X019867Y016115D01*
X019867Y015841D01*
X020008Y015909D02*
X020076Y015841D01*
X020213Y015841D01*
X020281Y015909D01*
X020213Y016046D02*
X020281Y016115D01*
X020281Y016183D01*
X020213Y016251D01*
X020076Y016251D01*
X020008Y016183D01*
X020076Y016046D02*
X020008Y015978D01*
X020008Y015909D01*
X020076Y016046D02*
X020213Y016046D01*
X020281Y016881D02*
X020281Y017155D01*
X020281Y017018D02*
X020144Y017155D01*
X020076Y017155D01*
X019936Y017086D02*
X019867Y017155D01*
X019731Y017155D01*
X019662Y017086D01*
X019662Y017018D01*
X019936Y017018D01*
X019936Y017086D02*
X019936Y016949D01*
X019867Y016881D01*
X019731Y016881D01*
X019521Y017155D02*
X019385Y016881D01*
X019248Y017155D01*
X019316Y017441D02*
X019384Y017509D01*
X019384Y017783D01*
X019452Y017715D02*
X019316Y017715D01*
X019176Y017715D02*
X019176Y017441D01*
X019176Y017578D02*
X019039Y017715D01*
X018971Y017715D01*
X018831Y017646D02*
X018831Y017509D01*
X018763Y017441D01*
X018626Y017441D01*
X018557Y017509D01*
X018557Y017646D01*
X018626Y017715D01*
X018763Y017715D01*
X018831Y017646D01*
X018556Y017291D02*
X018556Y016881D01*
X018693Y016881D02*
X018419Y016881D01*
X018693Y017155D02*
X018556Y017291D01*
X018280Y017441D02*
X018280Y017851D01*
X018417Y017851D02*
X018143Y017851D01*
X018002Y017715D02*
X017934Y017715D01*
X017934Y017441D01*
X018002Y017441D02*
X017866Y017441D01*
X017726Y017441D02*
X017726Y017715D01*
X017658Y017715D01*
X017589Y017646D01*
X017521Y017715D01*
X017453Y017646D01*
X017453Y017441D01*
X017589Y017441D02*
X017589Y017646D01*
X017312Y017646D02*
X017243Y017715D01*
X017107Y017715D01*
X017038Y017646D01*
X017038Y017578D01*
X017312Y017578D01*
X017312Y017646D02*
X017312Y017509D01*
X017243Y017441D01*
X017107Y017441D01*
X017934Y017851D02*
X017934Y017920D01*
X019593Y017646D02*
X019593Y017578D01*
X019867Y017578D01*
X019867Y017646D02*
X019798Y017715D01*
X019662Y017715D01*
X019593Y017646D01*
X019662Y017441D02*
X019798Y017441D01*
X019867Y017509D01*
X019867Y017646D01*
X020008Y017646D02*
X020076Y017578D01*
X020281Y017578D01*
X020144Y017578D02*
X020008Y017441D01*
X020008Y017646D02*
X020008Y017783D01*
X020076Y017851D01*
X020281Y017851D01*
X020281Y017441D01*
X019038Y016251D02*
X018970Y016251D01*
X019284Y011933D02*
X019464Y011753D01*
X019223Y011753D01*
X019284Y011573D02*
X019284Y011933D01*
X019592Y011933D02*
X019592Y011633D01*
X019652Y011573D01*
X019772Y011573D01*
X019832Y011633D01*
X019832Y011933D01*
X023115Y015764D02*
X023356Y015764D01*
X023236Y015764D02*
X023236Y016124D01*
X023356Y016004D01*
X023484Y016124D02*
X023724Y015764D01*
X023484Y015764D02*
X023724Y016124D01*
X023970Y013015D02*
X023910Y012955D01*
X023910Y012895D01*
X023970Y012834D01*
X023910Y012774D01*
X023910Y012714D01*
X023970Y012654D01*
X024090Y012654D01*
X024150Y012714D01*
X024278Y012714D02*
X024338Y012654D01*
X024458Y012654D01*
X024518Y012714D01*
X024518Y013015D01*
X024278Y013015D02*
X024278Y012714D01*
X024150Y012955D02*
X024090Y013015D01*
X023970Y013015D01*
X023970Y012834D02*
X024030Y012834D01*
X025932Y009637D02*
X025940Y009505D01*
X025897Y009344D01*
X025808Y009497D01*
X025728Y009519D01*
X025677Y009490D01*
X025655Y009409D01*
X025714Y009307D01*
X025795Y009285D01*
X025897Y009344D01*
X025960Y009235D02*
X025939Y009154D01*
X026027Y009001D01*
X025968Y009103D02*
X025807Y009146D01*
X025960Y009235D02*
X026062Y009294D01*
X026143Y009272D01*
X026231Y009119D01*
X025925Y008942D01*
X026039Y008862D02*
X026141Y008921D01*
X026200Y008819D01*
X026039Y008862D02*
X026018Y008781D01*
X026077Y008679D01*
X026157Y008657D01*
X026362Y008775D01*
X026383Y008856D01*
X026324Y008958D01*
X026244Y008980D01*
X028559Y006850D02*
X026697Y005775D01*
X028022Y003480D01*
X029884Y004555D01*
X028559Y006850D01*
X029870Y005158D02*
X029921Y005188D01*
X030002Y005166D01*
X030090Y005013D01*
X029988Y004954D01*
X029907Y004976D01*
X029848Y005078D01*
X029870Y005158D01*
X030133Y005174D02*
X030090Y005013D01*
X030133Y005174D02*
X030125Y005306D01*
X030307Y004992D02*
X030425Y004788D01*
X030118Y004611D01*
X030000Y004815D01*
X030212Y004801D02*
X030271Y004699D01*
X030334Y004590D02*
X030313Y004509D01*
X030401Y004356D01*
X030342Y004458D02*
X030181Y004501D01*
X030334Y004590D02*
X030437Y004649D01*
X030517Y004627D01*
X030606Y004474D01*
X030299Y004297D01*
X028090Y003016D02*
X028001Y003169D01*
X027921Y003191D01*
X027870Y003161D01*
X027848Y003081D01*
X027937Y002927D01*
X027783Y002839D02*
X028090Y003016D01*
X027848Y003081D02*
X027767Y003102D01*
X027716Y003073D01*
X027695Y002992D01*
X027783Y002839D01*
X027602Y003153D02*
X027484Y003357D01*
X027472Y003496D02*
X027391Y003518D01*
X027332Y003620D01*
X027354Y003700D01*
X027405Y003730D01*
X027486Y003708D01*
X027574Y003555D01*
X027472Y003496D01*
X027574Y003555D02*
X027617Y003716D01*
X027609Y003848D01*
X027909Y003330D02*
X027602Y003153D01*
X021666Y001806D02*
X021360Y001983D01*
X021271Y001830D01*
X021293Y001749D01*
X021395Y001690D01*
X021476Y001712D01*
X021564Y001865D01*
X021505Y001763D02*
X021549Y001602D01*
X021485Y001492D02*
X021367Y001288D01*
X021304Y001178D02*
X021253Y001208D01*
X020931Y001121D01*
X020880Y001151D01*
X020998Y001355D01*
X021061Y001465D02*
X021179Y001669D01*
X021485Y001492D01*
X021332Y001581D02*
X021273Y001478D01*
X020901Y001572D02*
X020901Y004222D01*
X018751Y004222D01*
X018751Y001572D01*
X020901Y001572D01*
X018708Y001444D02*
X018583Y001569D01*
X018500Y001569D01*
X018458Y001527D01*
X018458Y001444D01*
X018583Y001319D01*
X018458Y001194D02*
X018708Y001444D01*
X018458Y001444D02*
X018374Y001444D01*
X018333Y001402D01*
X018333Y001319D01*
X018458Y001194D01*
X018201Y001450D02*
X018035Y001617D01*
X017945Y001706D02*
X017987Y001748D01*
X017987Y002082D01*
X018029Y002123D01*
X018196Y001956D01*
X018452Y001700D02*
X018201Y001450D01*
X019764Y007052D02*
X019705Y007111D01*
X019705Y007229D01*
X019764Y007288D01*
X019882Y007288D01*
X019882Y007170D01*
X020000Y007052D02*
X019764Y007052D01*
X020000Y007052D02*
X020059Y007111D01*
X020059Y007229D01*
X020000Y007288D01*
X020059Y007415D02*
X020059Y007592D01*
X020000Y007651D01*
X019882Y007651D01*
X019823Y007592D01*
X019823Y007415D01*
X019823Y007533D02*
X019705Y007651D01*
X019705Y007777D02*
X019764Y007777D01*
X020000Y008013D01*
X020059Y008013D01*
X020059Y007777D01*
X020059Y007415D02*
X019705Y007415D01*
X027269Y015341D02*
X027509Y015341D01*
X027269Y015581D01*
X027269Y015641D01*
X027329Y015701D01*
X027449Y015701D01*
X027509Y015641D01*
X027638Y015641D02*
X027698Y015701D01*
X027818Y015701D01*
X027878Y015641D01*
X027878Y015401D01*
X027818Y015341D01*
X027698Y015341D01*
X027638Y015401D01*
X027669Y017681D02*
X027669Y018041D01*
X027789Y017921D01*
X027918Y017861D02*
X027978Y017801D01*
X028158Y017801D01*
X028158Y017681D02*
X028158Y018041D01*
X027978Y018041D01*
X027918Y017981D01*
X027918Y017861D01*
X028038Y017801D02*
X027918Y017681D01*
X027789Y017681D02*
X027549Y017681D01*
X027629Y018561D02*
X027869Y018561D01*
X027629Y018801D01*
X027629Y018861D01*
X027689Y018921D01*
X027809Y018921D01*
X027869Y018861D01*
X027998Y018861D02*
X027998Y018741D01*
X028058Y018681D01*
X028238Y018681D01*
X028238Y018561D02*
X028238Y018921D01*
X028058Y018921D01*
X027998Y018861D01*
X028118Y018681D02*
X027998Y018561D01*
X027993Y020116D02*
X027753Y020116D01*
X027993Y020116D02*
X027753Y020357D01*
X027753Y020417D01*
X027813Y020477D01*
X027933Y020477D01*
X027993Y020417D01*
X028121Y020477D02*
X028121Y020176D01*
X028181Y020116D01*
X028301Y020116D01*
X028361Y020176D01*
X028361Y020477D01*
X031596Y019820D02*
X031832Y019820D01*
X031655Y019997D01*
X031655Y019643D01*
X031959Y019643D02*
X032076Y019761D01*
X032018Y019761D02*
X032194Y019761D01*
X032194Y019643D02*
X032194Y019997D01*
X032018Y019997D01*
X031959Y019938D01*
X031959Y019820D01*
X032018Y019761D01*
X032321Y019820D02*
X032439Y019820D01*
X032321Y019820D02*
X032321Y019702D01*
X032380Y019643D01*
X032498Y019643D01*
X032557Y019702D01*
X032557Y019938D01*
X032498Y019997D01*
X032380Y019997D01*
X032321Y019938D01*
X035430Y020901D02*
X035430Y018751D01*
X038080Y018751D01*
X038080Y020901D01*
X035430Y020901D01*
X037506Y021532D02*
X037683Y021838D01*
X037748Y021597D01*
X037543Y021715D01*
X037946Y021687D02*
X038150Y021569D01*
X037973Y021262D01*
X037769Y021380D01*
X037959Y021474D02*
X038061Y021415D01*
X038171Y021352D02*
X038230Y021454D01*
X038311Y021476D01*
X038464Y021387D01*
X038287Y021081D01*
X038346Y021183D02*
X038193Y021271D01*
X038171Y021352D01*
X038244Y021242D02*
X038082Y021199D01*
X037939Y018672D02*
X037850Y018518D01*
X037872Y018438D01*
X037923Y018408D01*
X038003Y018430D01*
X038092Y018583D01*
X038245Y018495D02*
X038157Y018341D01*
X038076Y018320D01*
X038025Y018349D01*
X038003Y018430D01*
X038245Y018495D02*
X037939Y018672D01*
X037757Y018358D02*
X038064Y018181D01*
X037946Y017976D01*
X037729Y017955D02*
X037611Y017751D01*
X037488Y017891D02*
X037729Y017955D01*
X037794Y017714D02*
X037488Y017891D01*
X033877Y012955D02*
X032802Y011093D01*
X035097Y009768D01*
X036172Y011630D01*
X033877Y012955D01*
X035797Y012168D02*
X035818Y012087D01*
X035920Y012028D01*
X036001Y012050D01*
X036060Y012152D02*
X035987Y012262D01*
X035936Y012292D01*
X035856Y012270D01*
X035797Y012168D01*
X036060Y012152D02*
X036148Y012305D01*
X035944Y012423D01*
X036258Y012242D02*
X036462Y012124D01*
X036285Y011818D01*
X036081Y011936D01*
X036272Y012030D02*
X036374Y011971D01*
X036483Y011908D02*
X036505Y011827D01*
X036658Y011739D01*
X036556Y011797D02*
X036395Y011754D01*
X036483Y011908D02*
X036542Y012010D01*
X036623Y012031D01*
X036776Y011943D01*
X036599Y011636D01*
X035082Y009537D02*
X034905Y009231D01*
X034700Y009349D01*
X034620Y009463D02*
X034540Y009441D01*
X034438Y009500D01*
X034416Y009581D01*
X034475Y009683D01*
X034556Y009705D01*
X034607Y009675D01*
X034679Y009565D01*
X034768Y009719D01*
X034563Y009837D01*
X035162Y009423D02*
X035132Y009372D01*
X035154Y009291D01*
X035307Y009203D01*
X035154Y009291D02*
X035073Y009270D01*
X035044Y009219D01*
X035065Y009138D01*
X035219Y009050D01*
X035396Y009356D01*
X035242Y009445D01*
X035162Y009423D01*
X030926Y013321D02*
X031044Y013526D01*
X031022Y013606D01*
X030920Y013665D01*
X030840Y013644D01*
X030781Y013542D02*
X030883Y013483D01*
X030781Y013542D02*
X030722Y013439D01*
X030743Y013359D01*
X030845Y013300D01*
X030926Y013321D01*
X030583Y013452D02*
X030760Y013758D01*
X030606Y013847D01*
X030526Y013825D01*
X030467Y013723D01*
X030488Y013642D01*
X030642Y013554D01*
X030539Y013613D02*
X030378Y013570D01*
X030298Y013684D02*
X030218Y013662D01*
X030115Y013721D01*
X030094Y013802D01*
X030153Y013904D01*
X030233Y013926D01*
X030285Y013896D01*
X030357Y013786D01*
X030446Y013939D01*
X030241Y014057D01*
X024361Y020263D02*
X024241Y020263D01*
X024181Y020323D01*
X024181Y020624D01*
X024053Y020564D02*
X023993Y020624D01*
X023873Y020624D01*
X023812Y020564D01*
X023812Y020504D01*
X023873Y020444D01*
X023993Y020444D01*
X024053Y020504D01*
X024053Y020564D01*
X023993Y020444D02*
X024053Y020383D01*
X024053Y020323D01*
X023993Y020263D01*
X023873Y020263D01*
X023812Y020323D01*
X023812Y020383D01*
X023873Y020444D01*
X024361Y020263D02*
X024421Y020323D01*
X024421Y020624D01*
X024618Y021329D02*
X024618Y021389D01*
X024378Y021629D01*
X024378Y021689D01*
X024618Y021689D01*
X024746Y021689D02*
X024746Y021389D01*
X024806Y021329D01*
X024926Y021329D01*
X024986Y021389D01*
X024986Y021689D01*
X024889Y023892D02*
X024769Y023892D01*
X024709Y023952D01*
X024709Y024252D01*
X024581Y024192D02*
X024581Y024132D01*
X024521Y024072D01*
X024341Y024072D01*
X024341Y023952D02*
X024341Y024192D01*
X024401Y024252D01*
X024521Y024252D01*
X024581Y024192D01*
X024581Y023952D02*
X024521Y023892D01*
X024401Y023892D01*
X024341Y023952D01*
X024889Y023892D02*
X024949Y023952D01*
X024949Y024252D01*
X024018Y027443D02*
X023897Y027443D01*
X023837Y027503D01*
X023837Y027803D01*
X023709Y027683D02*
X023589Y027803D01*
X023589Y027443D01*
X023709Y027443D02*
X023469Y027443D01*
X024018Y027443D02*
X024078Y027503D01*
X024078Y027803D01*
X025646Y030076D02*
X025624Y030157D01*
X025683Y030259D01*
X025764Y030281D01*
X025827Y030390D02*
X025929Y030331D01*
X026010Y030353D01*
X026099Y030506D01*
X026201Y030447D02*
X025894Y030624D01*
X025806Y030471D01*
X025827Y030390D01*
X026040Y030404D02*
X026083Y030243D01*
X026019Y030133D02*
X025697Y030047D01*
X025646Y030076D01*
X025901Y029929D02*
X026019Y030133D01*
X026213Y030586D02*
X026111Y030645D01*
X026170Y030747D01*
X026213Y030586D02*
X026293Y030608D01*
X026352Y030710D01*
X026331Y030791D01*
X026126Y030909D01*
X026046Y030887D01*
X025987Y030785D01*
X026008Y030704D01*
X026697Y033877D02*
X028559Y032802D01*
X029884Y035097D01*
X028022Y036172D01*
X026697Y033877D01*
X027445Y035897D02*
X027612Y036064D01*
X027278Y036064D01*
X027236Y036105D01*
X027236Y036189D01*
X027320Y036272D01*
X027403Y036272D01*
X027451Y036403D02*
X027618Y036570D01*
X027868Y036320D01*
X027701Y036153D01*
X027659Y036362D02*
X027743Y036445D01*
X027832Y036534D02*
X027749Y036618D01*
X027749Y036701D01*
X027874Y036826D01*
X028124Y036576D01*
X028041Y036660D02*
X027916Y036534D01*
X027832Y036534D01*
X027957Y036576D02*
X027957Y036409D01*
X030121Y035371D02*
X030121Y035135D01*
X030357Y035371D01*
X030416Y035371D01*
X030475Y035312D01*
X030475Y035194D01*
X030416Y035135D01*
X030121Y035009D02*
X030121Y034773D01*
X030475Y034773D01*
X030416Y034646D02*
X030357Y034646D01*
X030298Y034587D01*
X030298Y034410D01*
X030121Y034410D02*
X030475Y034410D01*
X030475Y034587D01*
X030416Y034646D01*
X030298Y034587D02*
X030239Y034646D01*
X030180Y034646D01*
X030121Y034587D01*
X030121Y034410D01*
X034347Y030123D02*
X034325Y030042D01*
X034355Y029991D01*
X034435Y029969D01*
X034414Y029889D01*
X034443Y029838D01*
X034524Y029816D01*
X034626Y029875D01*
X034648Y029956D01*
X034787Y029968D02*
X034991Y030086D01*
X034814Y030392D01*
X034610Y030274D01*
X034530Y030160D02*
X034449Y030182D01*
X034347Y030123D01*
X034435Y029969D02*
X034487Y029999D01*
X034800Y030180D02*
X034903Y030239D01*
X035012Y030302D02*
X035093Y030281D01*
X035246Y030369D01*
X035305Y030267D02*
X035128Y030574D01*
X034975Y030485D01*
X034953Y030405D01*
X035012Y030302D01*
X035144Y030310D02*
X035101Y030149D01*
X035097Y029884D02*
X032802Y028559D01*
X033877Y026697D01*
X036172Y028022D01*
X035097Y029884D01*
X036322Y027828D02*
X036499Y027522D01*
X036295Y027404D01*
X036156Y027392D02*
X036134Y027311D01*
X036032Y027252D01*
X035952Y027274D01*
X035922Y027325D01*
X035944Y027405D01*
X035995Y027435D01*
X035944Y027405D02*
X035863Y027427D01*
X035834Y027478D01*
X035855Y027559D01*
X035957Y027618D01*
X036038Y027596D01*
X036461Y027841D02*
X036491Y027789D01*
X036572Y027768D01*
X036725Y027856D01*
X036813Y027703D02*
X036636Y028010D01*
X036483Y027921D01*
X036461Y027841D01*
X036572Y027768D02*
X036550Y027687D01*
X036579Y027636D01*
X036660Y027615D01*
X036813Y027703D01*
X031007Y026015D02*
X030985Y025935D01*
X030883Y025876D01*
X030803Y025897D01*
X030744Y026000D01*
X030846Y026059D01*
X030889Y026220D02*
X031007Y026015D01*
X030889Y026220D02*
X030808Y026241D01*
X030706Y026182D01*
X030685Y026102D01*
X030546Y026090D02*
X030392Y026001D01*
X030371Y025921D01*
X030430Y025818D01*
X030510Y025797D01*
X030664Y025885D01*
X030723Y025783D02*
X030546Y026090D01*
X030561Y025826D02*
X030518Y025665D01*
X030379Y025653D02*
X030358Y025572D01*
X030255Y025513D01*
X030175Y025535D01*
X030145Y025586D01*
X030167Y025667D01*
X030218Y025696D01*
X030167Y025667D02*
X030086Y025688D01*
X030057Y025739D01*
X030078Y025820D01*
X030181Y025879D01*
X030261Y025857D01*
X020901Y035430D02*
X018751Y035430D01*
X018751Y038080D01*
X020901Y038080D01*
X020901Y035430D01*
X021569Y037747D02*
X021444Y037872D01*
X021443Y037956D01*
X021485Y037998D01*
X021569Y037998D01*
X021694Y037872D01*
X021569Y037747D02*
X021819Y037998D01*
X021694Y038123D01*
X021610Y038123D01*
X021569Y038081D01*
X021569Y037998D01*
X021563Y038254D02*
X021312Y038004D01*
X021145Y038170D01*
X021056Y038260D02*
X020889Y038427D01*
X020973Y038343D02*
X021223Y038594D01*
X021223Y038427D01*
X018624Y038403D02*
X018317Y038580D01*
X018229Y038426D01*
X018250Y038346D01*
X018352Y038287D01*
X018433Y038308D01*
X018521Y038462D01*
X018462Y038359D02*
X018506Y038198D01*
X018442Y038089D02*
X018324Y037884D01*
X018261Y037775D02*
X018143Y037570D01*
X018202Y037672D02*
X017896Y037849D01*
X018057Y037893D01*
X018018Y038061D02*
X018136Y038266D01*
X018442Y038089D01*
X018289Y038177D02*
X018230Y038075D01*
X012955Y033877D02*
X011093Y032802D01*
X009768Y035097D01*
X011630Y036172D01*
X012955Y033877D01*
X012397Y035985D02*
X012244Y036073D01*
X012222Y036154D01*
X012252Y036205D01*
X012332Y036227D01*
X012486Y036138D01*
X012574Y036291D02*
X012421Y036380D01*
X012340Y036358D01*
X012311Y036307D01*
X012332Y036227D01*
X012397Y035985D02*
X012574Y036291D01*
X012260Y036473D02*
X012083Y036166D01*
X011879Y036284D01*
X011769Y036347D02*
X011565Y036465D01*
X011667Y036406D02*
X011844Y036713D01*
X011887Y036552D01*
X011603Y036784D02*
X011581Y036865D01*
X011479Y036924D01*
X011399Y036902D01*
X011369Y036851D01*
X011455Y036529D01*
X011251Y036647D01*
X009916Y035839D02*
X009609Y036016D01*
X009521Y035863D01*
X009542Y035782D01*
X009645Y035723D01*
X009725Y035745D01*
X009814Y035898D01*
X009755Y035796D02*
X009798Y035635D01*
X009735Y035525D02*
X009617Y035321D01*
X009553Y035211D02*
X009435Y035007D01*
X009494Y035109D02*
X009188Y035286D01*
X009349Y035329D01*
X009310Y035498D02*
X009428Y035702D01*
X009735Y035525D01*
X009581Y035614D02*
X009522Y035511D01*
X009117Y035045D02*
X009036Y035023D01*
X008977Y034921D01*
X008999Y034840D01*
X009050Y034811D01*
X009372Y034897D01*
X009254Y034693D01*
X013262Y030883D02*
X013380Y030679D01*
X013466Y031001D01*
X013518Y031031D01*
X013598Y031009D01*
X013657Y030907D01*
X013636Y030826D01*
X013809Y030644D02*
X013502Y030467D01*
X013561Y030365D02*
X013443Y030569D01*
X013766Y030483D02*
X013809Y030644D01*
X013880Y030403D02*
X013778Y030344D01*
X013756Y030263D01*
X013845Y030110D01*
X013786Y030212D02*
X013625Y030255D01*
X013743Y030051D02*
X014049Y030228D01*
X013961Y030381D01*
X013880Y030403D01*
X014061Y030089D02*
X014142Y030067D01*
X014201Y029965D01*
X014179Y029885D01*
X013975Y029767D01*
X013894Y029788D01*
X013835Y029890D01*
X013857Y029971D01*
X013959Y030030D01*
X014018Y029928D01*
X015167Y027019D02*
X015287Y026959D01*
X015407Y026839D01*
X015227Y026839D01*
X015167Y026779D01*
X015167Y026719D01*
X015227Y026659D01*
X015347Y026659D01*
X015407Y026719D01*
X015407Y026839D01*
X015535Y026719D02*
X015535Y027019D01*
X015775Y027019D02*
X015775Y026719D01*
X015715Y026659D01*
X015595Y026659D01*
X015535Y026719D01*
X019633Y025892D02*
X019633Y025832D01*
X019693Y025772D01*
X019633Y025712D01*
X019633Y025652D01*
X019693Y025592D01*
X019814Y025592D01*
X019874Y025652D01*
X020002Y025592D02*
X020122Y025712D01*
X020062Y025712D02*
X020242Y025712D01*
X020242Y025592D02*
X020242Y025952D01*
X020062Y025952D01*
X020002Y025892D01*
X020002Y025772D01*
X020062Y025712D01*
X019874Y025892D02*
X019814Y025952D01*
X019693Y025952D01*
X019633Y025892D01*
X019693Y025772D02*
X019754Y025772D01*
X019774Y024791D02*
X019653Y024791D01*
X019593Y024731D01*
X019593Y024671D01*
X019653Y024611D01*
X019593Y024551D01*
X019593Y024491D01*
X019653Y024431D01*
X019774Y024431D01*
X019834Y024491D01*
X019962Y024491D02*
X020022Y024431D01*
X020142Y024431D01*
X020202Y024491D01*
X020202Y024731D01*
X020142Y024791D01*
X020022Y024791D01*
X019962Y024731D01*
X019834Y024731D02*
X019774Y024791D01*
X019714Y024611D02*
X019653Y024611D01*
X019795Y031756D02*
X019736Y031815D01*
X019736Y031933D01*
X019795Y031992D01*
X019913Y031992D01*
X019913Y031874D01*
X020031Y031992D02*
X020090Y031933D01*
X020090Y031815D01*
X020031Y031756D01*
X019795Y031756D01*
X019854Y032118D02*
X019854Y032295D01*
X019913Y032354D01*
X020031Y032354D01*
X020090Y032295D01*
X020090Y032118D01*
X019736Y032118D01*
X019854Y032236D02*
X019736Y032354D01*
X019736Y032481D02*
X019736Y032717D01*
X019736Y032599D02*
X020090Y032599D01*
X019972Y032481D01*
X011878Y023051D02*
X011938Y022991D01*
X011938Y022751D01*
X011878Y022691D01*
X011758Y022691D01*
X011698Y022751D01*
X011569Y022691D02*
X011329Y022691D01*
X011449Y022691D02*
X011449Y023051D01*
X011569Y022931D01*
X011698Y022991D02*
X011758Y023051D01*
X011878Y023051D01*
X009713Y025541D02*
X009632Y025520D01*
X009530Y025579D01*
X009508Y025659D01*
X009567Y025761D01*
X009669Y025702D01*
X009713Y025541D02*
X009831Y025746D01*
X009809Y025826D01*
X009707Y025885D01*
X009626Y025864D01*
X009546Y025978D02*
X009393Y026066D01*
X009312Y026045D01*
X009253Y025943D01*
X009275Y025862D01*
X009428Y025774D01*
X009326Y025832D02*
X009165Y025789D01*
X009055Y025853D02*
X008851Y025971D01*
X008953Y025912D02*
X009130Y026218D01*
X009173Y026057D01*
X008859Y026238D02*
X008816Y026399D01*
X008639Y026093D01*
X008741Y026034D02*
X008537Y026152D01*
X009369Y025671D02*
X009546Y025978D01*
X006850Y028559D02*
X005775Y026697D01*
X003480Y028022D01*
X004555Y029884D01*
X006850Y028559D01*
X005331Y030082D02*
X005331Y030436D01*
X005154Y030436D01*
X005095Y030377D01*
X005095Y030318D01*
X005154Y030259D01*
X005331Y030259D01*
X005331Y030082D02*
X005154Y030082D01*
X005095Y030141D01*
X005095Y030200D01*
X005154Y030259D01*
X004968Y030436D02*
X004968Y030082D01*
X004732Y030082D01*
X004606Y030082D02*
X004370Y030082D01*
X004488Y030082D02*
X004488Y030436D01*
X004606Y030318D01*
X004244Y030318D02*
X004126Y030436D01*
X004126Y030082D01*
X004244Y030082D02*
X004008Y030082D01*
X003056Y028576D02*
X003056Y028340D01*
X003056Y028458D02*
X003410Y028458D01*
X003292Y028340D01*
X003056Y028214D02*
X003056Y027978D01*
X003056Y028096D02*
X003410Y028096D01*
X003292Y027978D01*
X003410Y027851D02*
X003410Y027615D01*
X003056Y027615D01*
X003056Y027851D01*
X003233Y027733D02*
X003233Y027615D01*
X003233Y027489D02*
X003174Y027430D01*
X003174Y027253D01*
X003056Y027253D02*
X003410Y027253D01*
X003410Y027430D01*
X003351Y027489D01*
X003233Y027489D01*
X003174Y027371D02*
X003056Y027489D01*
X001824Y021946D02*
X001699Y021821D01*
X001699Y021737D01*
X001741Y021696D01*
X001825Y021696D01*
X001950Y021821D01*
X002075Y021696D02*
X001824Y021946D01*
X001825Y021696D02*
X001824Y021612D01*
X001866Y021571D01*
X001950Y021571D01*
X002075Y021696D01*
X001818Y021439D02*
X001652Y021273D01*
X001562Y021183D02*
X001395Y021016D01*
X001479Y021100D02*
X001228Y021350D01*
X001395Y021350D01*
X001097Y021135D02*
X001264Y020968D01*
X000930Y020968D01*
X001097Y020802D01*
X001181Y020802D01*
X001264Y020885D01*
X001264Y020968D01*
X001097Y021135D02*
X001014Y021135D01*
X000930Y021052D01*
X000930Y020968D01*
X001572Y020901D02*
X001572Y018751D01*
X004222Y018751D01*
X004222Y020901D01*
X001572Y020901D01*
X001818Y021439D02*
X001568Y021690D01*
X001087Y018948D02*
X001004Y018948D01*
X001004Y018615D01*
X000921Y018615D01*
X000837Y018698D01*
X000837Y018781D01*
X001004Y018948D01*
X001087Y018948D02*
X001171Y018865D01*
X001171Y018781D01*
X001004Y018615D01*
X001052Y018483D02*
X001219Y018317D01*
X001135Y018400D02*
X001385Y018650D01*
X001385Y018483D01*
X001558Y018477D02*
X001725Y018311D01*
X001475Y018060D01*
X001308Y018227D01*
X001517Y018269D02*
X001600Y018185D01*
X001689Y018096D02*
X001689Y018013D01*
X001815Y017887D01*
X001731Y017804D02*
X001981Y018054D01*
X001856Y018179D01*
X001773Y018179D01*
X001689Y018096D01*
X001731Y017971D02*
X001564Y017971D01*
X006936Y019733D02*
X006995Y019674D01*
X007113Y019674D01*
X007172Y019733D01*
X006936Y019969D01*
X006936Y019733D01*
X006936Y019969D02*
X006995Y020028D01*
X007113Y020028D01*
X007172Y019969D01*
X007172Y019733D01*
X007299Y019674D02*
X007535Y019674D01*
X007417Y019674D02*
X007417Y020028D01*
X007535Y019910D01*
X007661Y019851D02*
X007720Y019792D01*
X007897Y019792D01*
X007779Y019792D02*
X007661Y019674D01*
X007661Y019851D02*
X007661Y019969D01*
X007720Y020028D01*
X007897Y020028D01*
X007897Y019674D01*
X008024Y019733D02*
X008024Y019851D01*
X008142Y019851D01*
X008260Y019969D02*
X008260Y019733D01*
X008201Y019674D01*
X008083Y019674D01*
X008024Y019733D01*
X008024Y019969D02*
X008083Y020028D01*
X008201Y020028D01*
X008260Y019969D01*
D13*
X002995Y019944D03*
X002799Y019826D03*
X002995Y019708D03*
X019708Y002995D03*
X019826Y002799D03*
X019944Y002995D03*
X036657Y019708D03*
X036854Y019826D03*
X036657Y019944D03*
X019944Y036657D03*
X019826Y036854D03*
X019708Y036657D03*
D14*
G36*
X011496Y034395D02*
X011447Y034478D01*
X011530Y034527D01*
X011579Y034444D01*
X011496Y034395D01*
G37*
G36*
X011292Y034277D02*
X011243Y034360D01*
X011326Y034409D01*
X011375Y034326D01*
X011292Y034277D01*
G37*
G36*
X011295Y034506D02*
X011246Y034589D01*
X011329Y034638D01*
X011378Y034555D01*
X011295Y034506D01*
G37*
G36*
X005326Y028278D02*
X005243Y028327D01*
X005292Y028410D01*
X005375Y028361D01*
X005326Y028278D01*
G37*
G36*
X005208Y028073D02*
X005125Y028122D01*
X005174Y028205D01*
X005257Y028156D01*
X005208Y028073D01*
G37*
G36*
X005097Y028274D02*
X005014Y028323D01*
X005063Y028406D01*
X005146Y028357D01*
X005097Y028274D01*
G37*
G36*
X005257Y011496D02*
X005174Y011447D01*
X005125Y011530D01*
X005208Y011579D01*
X005257Y011496D01*
G37*
G36*
X005375Y011291D02*
X005292Y011242D01*
X005243Y011325D01*
X005326Y011374D01*
X005375Y011291D01*
G37*
G36*
X005146Y011295D02*
X005063Y011246D01*
X005014Y011329D01*
X005097Y011378D01*
X005146Y011295D01*
G37*
G36*
X011375Y005326D02*
X011326Y005243D01*
X011243Y005292D01*
X011292Y005375D01*
X011375Y005326D01*
G37*
G36*
X011579Y005208D02*
X011530Y005125D01*
X011447Y005174D01*
X011496Y005257D01*
X011579Y005208D01*
G37*
G36*
X011378Y005097D02*
X011329Y005014D01*
X011246Y005063D01*
X011295Y005146D01*
X011378Y005097D01*
G37*
G36*
X028156Y005257D02*
X028205Y005174D01*
X028122Y005125D01*
X028073Y005208D01*
X028156Y005257D01*
G37*
G36*
X028361Y005375D02*
X028410Y005292D01*
X028327Y005243D01*
X028278Y005326D01*
X028361Y005375D01*
G37*
G36*
X028357Y005146D02*
X028406Y005063D01*
X028323Y005014D01*
X028274Y005097D01*
X028357Y005146D01*
G37*
G36*
X034326Y011374D02*
X034409Y011325D01*
X034360Y011242D01*
X034277Y011291D01*
X034326Y011374D01*
G37*
G36*
X034444Y011579D02*
X034527Y011530D01*
X034478Y011447D01*
X034395Y011496D01*
X034444Y011579D01*
G37*
G36*
X034555Y011378D02*
X034638Y011329D01*
X034589Y011246D01*
X034506Y011295D01*
X034555Y011378D01*
G37*
G36*
X034395Y028156D02*
X034478Y028205D01*
X034527Y028122D01*
X034444Y028073D01*
X034395Y028156D01*
G37*
G36*
X034277Y028361D02*
X034360Y028410D01*
X034409Y028327D01*
X034326Y028278D01*
X034277Y028361D01*
G37*
G36*
X034506Y028357D02*
X034589Y028406D01*
X034638Y028323D01*
X034555Y028274D01*
X034506Y028357D01*
G37*
G36*
X028278Y034326D02*
X028327Y034409D01*
X028410Y034360D01*
X028361Y034277D01*
X028278Y034326D01*
G37*
G36*
X028073Y034444D02*
X028122Y034527D01*
X028205Y034478D01*
X028156Y034395D01*
X028073Y034444D01*
G37*
G36*
X028274Y034555D02*
X028323Y034638D01*
X028406Y034589D01*
X028357Y034506D01*
X028274Y034555D01*
G37*
D15*
X023535Y029186D02*
X023432Y028800D01*
X023357Y027981D02*
X023202Y027401D01*
X023140Y027170D01*
X022984Y026590D01*
X023140Y027170D02*
X023120Y027177D01*
X023102Y027188D01*
X023086Y027201D01*
X023073Y027217D01*
X023062Y027235D01*
X023055Y027255D01*
X023051Y027276D01*
X023051Y027296D01*
X023055Y027317D01*
X023062Y027337D01*
X023073Y027355D01*
X023086Y027371D01*
X023102Y027384D01*
X023120Y027395D01*
X023140Y027402D01*
X023161Y027406D01*
X023181Y027406D01*
X023202Y027402D01*
X024870Y026264D02*
X026135Y024756D01*
X026286Y024882D01*
X026437Y025009D01*
X026527Y025085D01*
X026591Y025009D01*
X026892Y025262D01*
X026829Y025338D01*
X026919Y025414D01*
X027070Y025540D01*
X027221Y025667D01*
X025956Y027175D01*
X025805Y027048D01*
X025654Y026922D01*
X025564Y026846D01*
X025500Y026921D01*
X025199Y026668D01*
X025262Y026593D01*
X025171Y026517D01*
X025021Y026390D01*
X024870Y026264D01*
X025139Y026335D02*
X025838Y026922D01*
X025838Y026923D02*
X025855Y026935D01*
X025874Y026944D01*
X025894Y026951D01*
X025915Y026954D01*
X025936Y026953D01*
X025956Y026950D01*
X025976Y026943D01*
X025995Y026934D01*
X026012Y026921D01*
X026027Y026906D01*
X026968Y025784D01*
X026969Y025784D02*
X026981Y025767D01*
X026990Y025748D01*
X026997Y025728D01*
X027000Y025707D01*
X026999Y025686D01*
X026996Y025666D01*
X026989Y025646D01*
X026980Y025627D01*
X026967Y025610D01*
X026952Y025595D01*
X026252Y025008D01*
X026235Y024996D01*
X026216Y024987D01*
X026196Y024980D01*
X026175Y024977D01*
X026154Y024978D01*
X026134Y024981D01*
X026114Y024988D01*
X026095Y024997D01*
X026078Y025010D01*
X026063Y025025D01*
X026064Y025025D02*
X025122Y026147D01*
X025110Y026164D01*
X025101Y026183D01*
X025094Y026203D01*
X025091Y026224D01*
X025092Y026245D01*
X025095Y026265D01*
X025102Y026285D01*
X025111Y026304D01*
X025124Y026321D01*
X025139Y026336D01*
X025262Y026593D02*
X025564Y026846D01*
X026829Y025338D02*
X026527Y025085D01*
X026590Y022984D02*
X027981Y023357D01*
X025854Y022642D02*
X025467Y022539D01*
X025066Y021109D02*
X025066Y021029D01*
X025066Y021109D02*
X023686Y021109D01*
X023446Y021109D01*
X022066Y021109D01*
X022066Y021029D01*
X021047Y022346D02*
X024117Y022346D01*
X024117Y024393D01*
X021047Y024393D01*
X021047Y022346D01*
X023446Y021109D02*
X023448Y021088D01*
X023453Y021068D01*
X023462Y021049D01*
X023474Y021032D01*
X023489Y021017D01*
X023506Y021005D01*
X023525Y020996D01*
X023545Y020991D01*
X023566Y020989D01*
X023587Y020991D01*
X023607Y020996D01*
X023626Y021005D01*
X023643Y021017D01*
X023658Y021032D01*
X023670Y021049D01*
X023679Y021068D01*
X023684Y021088D01*
X023686Y021109D01*
X024471Y019273D02*
X024471Y017854D01*
X025066Y017049D02*
X025066Y016969D01*
X022066Y016969D01*
X022066Y017049D01*
X021206Y017809D02*
X020816Y017809D01*
X022611Y017854D02*
X022611Y019273D01*
X024996Y016297D02*
X025279Y016014D01*
X025943Y015548D02*
X026961Y014529D01*
X025123Y012691D02*
X024699Y013115D01*
X024529Y013285D01*
X024105Y013709D01*
X024529Y013285D02*
X024545Y013298D01*
X024563Y013309D01*
X024583Y013316D01*
X024604Y013320D01*
X024624Y013320D01*
X024645Y013316D01*
X024665Y013309D01*
X024683Y013298D01*
X024699Y013285D01*
X024712Y013269D01*
X024723Y013251D01*
X024730Y013231D01*
X024734Y013210D01*
X024734Y013190D01*
X024730Y013169D01*
X024723Y013149D01*
X024712Y013131D01*
X024699Y013115D01*
X025795Y012217D02*
X026078Y011934D01*
X019179Y012389D02*
X018807Y010998D01*
X016513Y012483D02*
X016668Y013062D01*
X016513Y012483D02*
X016451Y012251D01*
X016295Y011671D01*
X016451Y012251D02*
X016472Y012247D01*
X016492Y012247D01*
X016513Y012251D01*
X016533Y012258D01*
X016551Y012269D01*
X016567Y012282D01*
X016580Y012298D01*
X016591Y012316D01*
X016598Y012336D01*
X016602Y012357D01*
X016602Y012377D01*
X016598Y012398D01*
X016591Y012418D01*
X016580Y012436D01*
X016567Y012452D01*
X016551Y012465D01*
X016533Y012476D01*
X016513Y012483D01*
X016221Y010853D02*
X016117Y010466D01*
X019251Y013198D02*
X019355Y013585D01*
X014185Y017114D02*
X013799Y017010D01*
X013062Y016668D02*
X011671Y016295D01*
X010252Y018462D02*
X009866Y018358D01*
X010998Y018807D02*
X011578Y018962D01*
X011810Y019024D01*
X012389Y019179D01*
X011810Y019024D02*
X011814Y019003D01*
X011814Y018983D01*
X011810Y018962D01*
X011803Y018942D01*
X011792Y018924D01*
X011779Y018908D01*
X011763Y018895D01*
X011745Y018884D01*
X011725Y018877D01*
X011704Y018873D01*
X011684Y018873D01*
X011663Y018877D01*
X011643Y018884D01*
X011625Y018895D01*
X011609Y018908D01*
X011596Y018924D01*
X011585Y018942D01*
X011578Y018962D01*
X014657Y023355D02*
X014374Y023638D01*
X013709Y024105D02*
X012691Y025123D01*
X014529Y026961D02*
X014954Y026537D01*
X015123Y026367D01*
X015548Y025943D01*
X015123Y026367D02*
X015107Y026354D01*
X015089Y026343D01*
X015069Y026336D01*
X015048Y026332D01*
X015028Y026332D01*
X015007Y026336D01*
X014987Y026343D01*
X014969Y026354D01*
X014953Y026367D01*
X014940Y026383D01*
X014929Y026401D01*
X014922Y026421D01*
X014918Y026442D01*
X014918Y026462D01*
X014922Y026483D01*
X014929Y026503D01*
X014940Y026521D01*
X014953Y026537D01*
X013858Y027435D02*
X013575Y027718D01*
X020473Y027263D02*
X020846Y028654D01*
X020401Y026454D02*
X020298Y026068D01*
X027263Y020473D02*
X027843Y020628D01*
X028074Y020690D01*
X028654Y020846D01*
X028075Y020690D02*
X028068Y020710D01*
X028057Y020728D01*
X028044Y020744D01*
X028028Y020757D01*
X028010Y020768D01*
X027990Y020775D01*
X027969Y020779D01*
X027949Y020779D01*
X027928Y020775D01*
X027908Y020768D01*
X027890Y020757D01*
X027874Y020744D01*
X027861Y020728D01*
X027850Y020710D01*
X027843Y020690D01*
X027839Y020669D01*
X027839Y020649D01*
X027843Y020628D01*
X029400Y021191D02*
X029786Y021294D01*
D16*
X026975Y020036D02*
X026591Y020258D01*
X026631Y020107D02*
X026934Y020188D01*
X026894Y020339D02*
X026672Y019955D01*
X026823Y019996D02*
X026742Y020299D01*
X025721Y021042D02*
X025408Y021356D01*
X025565Y021356D02*
X025565Y021042D01*
X025408Y021042D02*
X025721Y021356D01*
X025721Y021199D02*
X025408Y021199D01*
X026193Y025318D02*
X026657Y025708D01*
X025898Y026613D01*
X025434Y026223D01*
X026193Y025318D01*
X026234Y025440D02*
X026530Y025688D01*
X026530Y025689D02*
X026540Y025700D01*
X026548Y025712D01*
X026553Y025727D01*
X026554Y025742D01*
X026552Y025757D01*
X026547Y025771D01*
X026538Y025783D01*
X025951Y026482D01*
X025940Y026492D01*
X025928Y026500D01*
X025913Y026505D01*
X025898Y026506D01*
X025883Y026504D01*
X025869Y026499D01*
X025857Y026490D01*
X025561Y026242D01*
X025551Y026231D01*
X025543Y026219D01*
X025538Y026204D01*
X025537Y026189D01*
X025539Y026174D01*
X025544Y026160D01*
X025553Y026148D01*
X026140Y025448D01*
X026151Y025438D01*
X026163Y025430D01*
X026178Y025425D01*
X026193Y025424D01*
X026208Y025426D01*
X026222Y025431D01*
X026234Y025440D01*
X023218Y026122D02*
X022834Y025900D01*
X022986Y025860D02*
X023067Y026163D01*
X022915Y026203D02*
X023137Y025819D01*
X023178Y025971D02*
X022875Y026052D01*
X016291Y025690D02*
X015848Y025690D01*
X015959Y025801D02*
X016181Y025579D01*
X016070Y025468D02*
X016070Y025912D01*
X016181Y025801D02*
X015959Y025579D01*
X012981Y019697D02*
X012759Y019313D01*
X012910Y019353D02*
X012829Y019656D01*
X012678Y019616D02*
X013062Y019394D01*
X013021Y019545D02*
X012718Y019464D01*
X016515Y013833D02*
X016737Y013449D01*
X016778Y013600D02*
X016475Y013681D01*
X016434Y013530D02*
X016818Y013752D01*
X016667Y013792D02*
X016586Y013489D01*
X023361Y013962D02*
X023804Y013962D01*
X023694Y013851D02*
X023472Y014073D01*
X023583Y014184D02*
X023583Y013740D01*
X023472Y013851D02*
X023694Y014073D01*
D17*
X022971Y016170D02*
X022971Y011642D01*
X021003Y011642D01*
X021003Y016170D01*
X022971Y016170D01*
X020494Y015491D02*
X020494Y014231D01*
X019628Y014231D01*
X019628Y015491D01*
X020494Y015491D01*
X019382Y018062D02*
X019060Y018062D01*
X018218Y018947D01*
X015560Y018947D01*
X014660Y018062D01*
X014138Y018062D01*
X014138Y020035D01*
X012886Y020035D01*
X012886Y021327D01*
X014138Y021327D01*
X014138Y022127D01*
X015254Y023303D01*
X018327Y023303D01*
X019382Y022187D01*
X019382Y021287D01*
X020634Y021287D01*
X020634Y020035D01*
X019382Y020035D01*
X019382Y018062D01*
X014494Y014371D02*
X014494Y013111D01*
X013628Y013111D01*
X013628Y014371D01*
X014494Y014371D01*
X012983Y008674D02*
X013589Y008324D01*
X012889Y007111D01*
X012283Y007461D01*
X012983Y008674D01*
X010528Y006561D02*
X009922Y006911D01*
X009222Y005699D01*
X009828Y005349D01*
X010528Y006561D01*
X012987Y005142D02*
X013593Y004792D01*
X012893Y003580D01*
X012287Y003930D01*
X012987Y005142D01*
X017706Y003690D02*
X017706Y002290D01*
X018406Y002290D01*
X018406Y003690D01*
X017706Y003690D01*
X019476Y005347D02*
X020176Y005347D01*
X020176Y006747D01*
X019476Y006747D01*
X019476Y005347D01*
X021246Y003690D02*
X021946Y003690D01*
X021946Y002290D01*
X021246Y002290D01*
X021246Y003690D01*
X026059Y004792D02*
X026665Y005142D01*
X027365Y003930D01*
X026759Y003580D01*
X026059Y004792D01*
X026763Y007111D02*
X027369Y007461D01*
X026669Y008674D01*
X026063Y008324D01*
X026763Y007111D01*
X029124Y006561D02*
X029730Y006911D01*
X030430Y005699D01*
X029824Y005349D01*
X029124Y006561D01*
X032741Y009922D02*
X033091Y010528D01*
X034303Y009828D01*
X033953Y009222D01*
X032741Y009922D01*
X032191Y012283D02*
X032541Y012889D01*
X031328Y013589D01*
X030978Y012983D01*
X032191Y012283D01*
X034510Y012987D02*
X034860Y013593D01*
X036073Y012893D01*
X035723Y012287D01*
X034510Y012987D01*
X035962Y017706D02*
X035962Y018406D01*
X037362Y018406D01*
X037362Y017706D01*
X035962Y017706D01*
X034306Y019476D02*
X034306Y020176D01*
X032906Y020176D01*
X032906Y019476D01*
X034306Y019476D01*
X035962Y021246D02*
X035962Y021946D01*
X037362Y021946D01*
X037362Y021246D01*
X035962Y021246D01*
X034860Y026059D02*
X034510Y026665D01*
X035723Y027365D01*
X036073Y026759D01*
X034860Y026059D01*
X032541Y026763D02*
X032191Y027369D01*
X030978Y026669D01*
X031328Y026063D01*
X032541Y026763D01*
X033091Y029124D02*
X032741Y029730D01*
X033953Y030430D01*
X034303Y029824D01*
X033091Y029124D01*
X029730Y032741D02*
X029124Y033091D01*
X029824Y034303D01*
X030430Y033953D01*
X029730Y032741D01*
X027369Y032191D02*
X026763Y032541D01*
X026063Y031328D01*
X026669Y030978D01*
X027369Y032191D01*
X026665Y034510D02*
X026059Y034860D01*
X026759Y036073D01*
X027365Y035723D01*
X026665Y034510D01*
X021946Y035962D02*
X021246Y035962D01*
X021246Y037362D01*
X021946Y037362D01*
X021946Y035962D01*
X020176Y034306D02*
X019476Y034306D01*
X019476Y032906D01*
X020176Y032906D01*
X020176Y034306D01*
X018406Y035962D02*
X017706Y035962D01*
X017706Y037362D01*
X018406Y037362D01*
X018406Y035962D01*
X013593Y034860D02*
X012987Y034510D01*
X012287Y035723D01*
X012893Y036073D01*
X013593Y034860D01*
X012889Y032541D02*
X012283Y032191D01*
X012983Y030978D01*
X013589Y031328D01*
X012889Y032541D01*
X010528Y033091D02*
X009922Y032741D01*
X009222Y033953D01*
X009828Y034303D01*
X010528Y033091D01*
X006911Y029730D02*
X006561Y029124D01*
X005349Y029824D01*
X005699Y030430D01*
X006911Y029730D01*
X007461Y027369D02*
X007111Y026763D01*
X008324Y026063D01*
X008674Y026669D01*
X007461Y027369D01*
X005142Y026665D02*
X004792Y026059D01*
X003580Y026759D01*
X003930Y027365D01*
X005142Y026665D01*
X003690Y021946D02*
X002290Y021946D01*
X002290Y021246D01*
X003690Y021246D01*
X003690Y021946D01*
X005347Y020176D02*
X005347Y019476D01*
X006747Y019476D01*
X006747Y020176D01*
X005347Y020176D01*
X003690Y018406D02*
X003690Y017706D01*
X002290Y017706D01*
X002290Y018406D01*
X003690Y018406D01*
X004792Y013593D02*
X005142Y012987D01*
X003930Y012287D01*
X003580Y012893D01*
X004792Y013593D01*
X007111Y012889D02*
X007461Y012283D01*
X008674Y012983D01*
X008324Y013589D01*
X007111Y012889D01*
X006561Y010528D02*
X006911Y009922D01*
X005699Y009222D01*
X005349Y009828D01*
X006561Y010528D01*
X016508Y024551D02*
X017374Y024551D01*
X017374Y025811D01*
X016508Y025811D01*
X016508Y024551D01*
X018142Y025382D02*
X018142Y026082D01*
X019542Y026082D01*
X019542Y025382D01*
X018142Y025382D01*
X018015Y027464D02*
X018881Y027464D01*
X018881Y028724D01*
X018015Y028724D01*
X018015Y027464D01*
X017503Y027464D02*
X017503Y028724D01*
X016637Y028724D01*
X016637Y027464D01*
X017503Y027464D01*
X026081Y018891D02*
X026081Y018191D01*
X027481Y018191D01*
X027481Y018891D01*
X026081Y018891D01*
X026081Y018011D02*
X026081Y017311D01*
X027481Y017311D01*
X027481Y018011D01*
X026081Y018011D01*
D18*
X021007Y024797D03*
M02*
